G04 #@! TF.GenerationSoftware,KiCad,Pcbnew,(5.0.1-3-g963ef8bb5)*
G04 #@! TF.CreationDate,2018-11-27T14:44:22+08:00*
G04 #@! TF.ProjectId,SevenSegmentDisplayBoard,536576656E5365676D656E7444697370,1.0*
G04 #@! TF.SameCoordinates,Original*
G04 #@! TF.FileFunction,Copper,L1,Top,Signal*
G04 #@! TF.FilePolarity,Positive*
%FSLAX46Y46*%
G04 Gerber Fmt 4.6, Leading zero omitted, Abs format (unit mm)*
G04 Created by KiCad (PCBNEW (5.0.1-3-g963ef8bb5)) date 2018 November 27, Tuesday 14:44:22*
%MOMM*%
%LPD*%
G01*
G04 APERTURE LIST*
G04 #@! TA.AperFunction,ComponentPad*
%ADD10R,1.700000X1.700000*%
G04 #@! TD*
G04 #@! TA.AperFunction,ComponentPad*
%ADD11O,1.700000X1.700000*%
G04 #@! TD*
G04 #@! TA.AperFunction,ComponentPad*
%ADD12C,1.600000*%
G04 #@! TD*
G04 #@! TA.AperFunction,ComponentPad*
%ADD13O,1.600000X1.600000*%
G04 #@! TD*
G04 #@! TA.AperFunction,ComponentPad*
%ADD14R,1.600000X1.600000*%
G04 #@! TD*
G04 #@! TA.AperFunction,ComponentPad*
%ADD15O,1.524000X2.524000*%
G04 #@! TD*
G04 #@! TA.AperFunction,ComponentPad*
%ADD16R,1.524000X2.524000*%
G04 #@! TD*
G04 #@! TA.AperFunction,ViaPad*
%ADD17C,0.700000*%
G04 #@! TD*
G04 #@! TA.AperFunction,Conductor*
%ADD18C,0.400000*%
G04 #@! TD*
G04 #@! TA.AperFunction,Conductor*
%ADD19C,0.250000*%
G04 #@! TD*
G04 #@! TA.AperFunction,Conductor*
%ADD20C,0.254000*%
G04 #@! TD*
G04 APERTURE END LIST*
D10*
G04 #@! TO.P,J1,1*
G04 #@! TO.N,VCC*
X133350000Y-86360000D03*
D11*
G04 #@! TO.P,J1,2*
G04 #@! TO.N,GND*
X133350000Y-83820000D03*
G04 #@! TO.P,J1,3*
G04 #@! TO.N,/LATCH*
X133350000Y-81280000D03*
G04 #@! TO.P,J1,4*
G04 #@! TO.N,/CLOCK*
X133350000Y-78740000D03*
G04 #@! TO.P,J1,5*
G04 #@! TO.N,/DATA*
X133350000Y-76200000D03*
G04 #@! TD*
D12*
G04 #@! TO.P,R1,1*
G04 #@! TO.N,/sg7*
X152400000Y-67310000D03*
D13*
G04 #@! TO.P,R1,2*
G04 #@! TO.N,Net-(R1-Pad2)*
X162560000Y-67310000D03*
G04 #@! TD*
G04 #@! TO.P,R2,2*
G04 #@! TO.N,Net-(R2-Pad2)*
X162560000Y-71120000D03*
D12*
G04 #@! TO.P,R2,1*
G04 #@! TO.N,/sg6*
X152400000Y-71120000D03*
G04 #@! TD*
G04 #@! TO.P,R3,1*
G04 #@! TO.N,/sg5*
X152400000Y-74930000D03*
D13*
G04 #@! TO.P,R3,2*
G04 #@! TO.N,Net-(R3-Pad2)*
X162560000Y-74930000D03*
G04 #@! TD*
G04 #@! TO.P,R4,2*
G04 #@! TO.N,Net-(R4-Pad2)*
X162560000Y-78740000D03*
D12*
G04 #@! TO.P,R4,1*
G04 #@! TO.N,/sg4*
X152400000Y-78740000D03*
G04 #@! TD*
G04 #@! TO.P,R5,1*
G04 #@! TO.N,/sg3*
X152400000Y-82550000D03*
D13*
G04 #@! TO.P,R5,2*
G04 #@! TO.N,Net-(R5-Pad2)*
X162560000Y-82550000D03*
G04 #@! TD*
G04 #@! TO.P,R6,2*
G04 #@! TO.N,Net-(R6-Pad2)*
X162560000Y-86360000D03*
D12*
G04 #@! TO.P,R6,1*
G04 #@! TO.N,/sg2*
X152400000Y-86360000D03*
G04 #@! TD*
G04 #@! TO.P,R7,1*
G04 #@! TO.N,/sg1*
X152400000Y-90170000D03*
D13*
G04 #@! TO.P,R7,2*
G04 #@! TO.N,Net-(R7-Pad2)*
X162560000Y-90170000D03*
G04 #@! TD*
G04 #@! TO.P,R8,2*
G04 #@! TO.N,Net-(R8-Pad2)*
X162560000Y-93980000D03*
D12*
G04 #@! TO.P,R8,1*
G04 #@! TO.N,/sg0*
X152400000Y-93980000D03*
G04 #@! TD*
D14*
G04 #@! TO.P,U1,1*
G04 #@! TO.N,/sg1*
X147320000Y-90170000D03*
D13*
G04 #@! TO.P,U1,9*
G04 #@! TO.N,Net-(U1-Pad9)*
X139700000Y-72390000D03*
G04 #@! TO.P,U1,2*
G04 #@! TO.N,/sg2*
X147320000Y-87630000D03*
G04 #@! TO.P,U1,10*
G04 #@! TO.N,VCC*
X139700000Y-74930000D03*
G04 #@! TO.P,U1,3*
G04 #@! TO.N,/sg3*
X147320000Y-85090000D03*
G04 #@! TO.P,U1,11*
G04 #@! TO.N,/DATA*
X139700000Y-77470000D03*
G04 #@! TO.P,U1,4*
G04 #@! TO.N,/sg4*
X147320000Y-82550000D03*
G04 #@! TO.P,U1,12*
G04 #@! TO.N,/CLOCK*
X139700000Y-80010000D03*
G04 #@! TO.P,U1,5*
G04 #@! TO.N,/sg5*
X147320000Y-80010000D03*
G04 #@! TO.P,U1,13*
G04 #@! TO.N,GND*
X139700000Y-82550000D03*
G04 #@! TO.P,U1,6*
G04 #@! TO.N,/sg6*
X147320000Y-77470000D03*
G04 #@! TO.P,U1,14*
G04 #@! TO.N,/LATCH*
X139700000Y-85090000D03*
G04 #@! TO.P,U1,7*
G04 #@! TO.N,/sg7*
X147320000Y-74930000D03*
G04 #@! TO.P,U1,15*
G04 #@! TO.N,/sg0*
X139700000Y-87630000D03*
G04 #@! TO.P,U1,8*
G04 #@! TO.N,GND*
X147320000Y-72390000D03*
G04 #@! TO.P,U1,16*
G04 #@! TO.N,VCC*
X139700000Y-90170000D03*
G04 #@! TD*
D15*
G04 #@! TO.P,U2,10*
G04 #@! TO.N,Net-(R2-Pad2)*
X168910000Y-73660000D03*
G04 #@! TO.P,U2,9*
G04 #@! TO.N,Net-(R3-Pad2)*
X171450000Y-73660000D03*
G04 #@! TO.P,U2,8*
G04 #@! TO.N,VCC*
X173990000Y-73660000D03*
G04 #@! TO.P,U2,7*
G04 #@! TO.N,Net-(R8-Pad2)*
X176530000Y-73660000D03*
G04 #@! TO.P,U2,6*
G04 #@! TO.N,Net-(R7-Pad2)*
X179070000Y-73660000D03*
G04 #@! TO.P,U2,5*
G04 #@! TO.N,Net-(R1-Pad2)*
X179070000Y-88900000D03*
G04 #@! TO.P,U2,4*
G04 #@! TO.N,Net-(R6-Pad2)*
X176530000Y-88900000D03*
G04 #@! TO.P,U2,3*
G04 #@! TO.N,VCC*
X173990000Y-88900000D03*
G04 #@! TO.P,U2,2*
G04 #@! TO.N,Net-(R5-Pad2)*
X171450000Y-88900000D03*
D16*
G04 #@! TO.P,U2,1*
G04 #@! TO.N,Net-(R4-Pad2)*
X168910000Y-88900000D03*
G04 #@! TD*
D17*
G04 #@! TO.N,Net-(R6-Pad2)*
X171298959Y-92050959D03*
G04 #@! TO.N,Net-(R8-Pad2)*
X165608000Y-90932000D03*
G04 #@! TD*
D18*
G04 #@! TO.N,VCC*
X135890000Y-86360000D02*
X139700000Y-90170000D01*
X133350000Y-86360000D02*
X135890000Y-86360000D01*
X140970000Y-92710000D02*
X138430000Y-92710000D01*
X133350000Y-87630000D02*
X133350000Y-86360000D01*
X138430000Y-92710000D02*
X133350000Y-87630000D01*
X139700000Y-74930000D02*
X136652000Y-71882000D01*
X136652000Y-71882000D02*
X136652000Y-68580000D01*
X136652000Y-68580000D02*
X139700000Y-65532000D01*
X139700000Y-65532000D02*
X168656000Y-65532000D01*
X173990000Y-70866000D02*
X173990000Y-73660000D01*
X168656000Y-65532000D02*
X173990000Y-70866000D01*
X173990000Y-90562000D02*
X169048000Y-95504000D01*
X173990000Y-88900000D02*
X173990000Y-90562000D01*
X169048000Y-95504000D02*
X149352000Y-95504000D01*
X146558000Y-92710000D02*
X140970000Y-92710000D01*
X149352000Y-95504000D02*
X146558000Y-92710000D01*
X136652000Y-71882000D02*
X133858000Y-71882000D01*
X133858000Y-71882000D02*
X131572000Y-74168000D01*
X132100000Y-86360000D02*
X133350000Y-86360000D01*
X131572000Y-85832000D02*
X132100000Y-86360000D01*
X131572000Y-74168000D02*
X131572000Y-85832000D01*
D19*
G04 #@! TO.N,/LATCH*
X135890000Y-81280000D02*
X139700000Y-85090000D01*
X133350000Y-81280000D02*
X135890000Y-81280000D01*
G04 #@! TO.N,/CLOCK*
X138430000Y-78740000D02*
X139700000Y-80010000D01*
X133350000Y-78740000D02*
X138430000Y-78740000D01*
G04 #@! TO.N,/DATA*
X138430000Y-76200000D02*
X139700000Y-77470000D01*
X133350000Y-76200000D02*
X138430000Y-76200000D01*
G04 #@! TO.N,/sg7*
X148545001Y-71164999D02*
X151600001Y-68109999D01*
X148545001Y-73704999D02*
X148545001Y-71164999D01*
X151600001Y-68109999D02*
X152400000Y-67310000D01*
X147320000Y-74930000D02*
X148545001Y-73704999D01*
G04 #@! TO.N,Net-(R1-Pad2)*
X179070000Y-88400000D02*
X179070000Y-88900000D01*
X172802990Y-82132990D02*
X179070000Y-88400000D01*
X172802990Y-72975726D02*
X172802990Y-82132990D01*
X167137264Y-67310000D02*
X172802990Y-72975726D01*
X162560000Y-67310000D02*
X167137264Y-67310000D01*
G04 #@! TO.N,Net-(R2-Pad2)*
X165100000Y-73660000D02*
X168910000Y-73660000D01*
X162560000Y-71120000D02*
X165100000Y-73660000D01*
G04 #@! TO.N,/sg6*
X152400000Y-72390000D02*
X152400000Y-71120000D01*
X147320000Y-77470000D02*
X152400000Y-72390000D01*
G04 #@! TO.N,/sg5*
X147320000Y-80010000D02*
X152400000Y-74930000D01*
G04 #@! TO.N,Net-(R3-Pad2)*
X171450000Y-74160000D02*
X171450000Y-73660000D01*
X169880001Y-75729999D02*
X171450000Y-74160000D01*
X163359999Y-75729999D02*
X169880001Y-75729999D01*
X162560000Y-74930000D02*
X163359999Y-75729999D01*
G04 #@! TO.N,Net-(R4-Pad2)*
X162560000Y-78740000D02*
X160528000Y-80772000D01*
X167898000Y-88900000D02*
X168910000Y-88900000D01*
X167244998Y-88900000D02*
X167898000Y-88900000D01*
X160528000Y-82183002D02*
X167244998Y-88900000D01*
X160528000Y-80772000D02*
X160528000Y-82183002D01*
G04 #@! TO.N,/sg4*
X151130000Y-78740000D02*
X152400000Y-78740000D01*
X147320000Y-82550000D02*
X151130000Y-78740000D01*
G04 #@! TO.N,/sg3*
X149860000Y-82550000D02*
X152400000Y-82550000D01*
X147320000Y-85090000D02*
X149860000Y-82550000D01*
G04 #@! TO.N,Net-(R5-Pad2)*
X171450000Y-88400000D02*
X171450000Y-88900000D01*
X166399999Y-83349999D02*
X171450000Y-88400000D01*
X163359999Y-83349999D02*
X166399999Y-83349999D01*
X162560000Y-82550000D02*
X163359999Y-83349999D01*
G04 #@! TO.N,Net-(R6-Pad2)*
X162560000Y-86360000D02*
X168275000Y-92075000D01*
X168275000Y-92075000D02*
X171577000Y-92075000D01*
X171323000Y-92075000D02*
X171298959Y-92050959D01*
X171577000Y-92075000D02*
X171323000Y-92075000D01*
G04 #@! TO.N,/sg2*
X151130000Y-87630000D02*
X152400000Y-86360000D01*
X147320000Y-87630000D02*
X151130000Y-87630000D01*
G04 #@! TO.N,/sg1*
X147320000Y-90170000D02*
X152400000Y-90170000D01*
G04 #@! TO.N,Net-(R8-Pad2)*
X162560000Y-93980000D02*
X163359999Y-93180001D01*
X163359999Y-93180001D02*
X165608000Y-90932000D01*
G04 #@! TO.N,/sg0*
X151600001Y-93180001D02*
X152400000Y-93980000D01*
X149715001Y-91295001D02*
X151600001Y-93180001D01*
X143365001Y-91295001D02*
X149715001Y-91295001D01*
X139700000Y-87630000D02*
X143365001Y-91295001D01*
G04 #@! TD*
D20*
G04 #@! TO.N,VCC*
G36*
X180900001Y-95810000D02*
X131520000Y-95810000D01*
X131520000Y-90519039D01*
X138308096Y-90519039D01*
X138468959Y-90907423D01*
X138844866Y-91322389D01*
X139350959Y-91561914D01*
X139573000Y-91440629D01*
X139573000Y-90297000D01*
X139827000Y-90297000D01*
X139827000Y-91440629D01*
X140049041Y-91561914D01*
X140555134Y-91322389D01*
X140931041Y-90907423D01*
X141091904Y-90519039D01*
X140969915Y-90297000D01*
X139827000Y-90297000D01*
X139573000Y-90297000D01*
X138430085Y-90297000D01*
X138308096Y-90519039D01*
X131520000Y-90519039D01*
X131520000Y-86645750D01*
X131865000Y-86645750D01*
X131865000Y-87336310D01*
X131961673Y-87569699D01*
X132140302Y-87748327D01*
X132373691Y-87845000D01*
X133064250Y-87845000D01*
X133223000Y-87686250D01*
X133223000Y-86487000D01*
X133477000Y-86487000D01*
X133477000Y-87686250D01*
X133635750Y-87845000D01*
X134326309Y-87845000D01*
X134559698Y-87748327D01*
X134738327Y-87569699D01*
X134835000Y-87336310D01*
X134835000Y-86645750D01*
X134676250Y-86487000D01*
X133477000Y-86487000D01*
X133223000Y-86487000D01*
X132023750Y-86487000D01*
X131865000Y-86645750D01*
X131520000Y-86645750D01*
X131520000Y-76200000D01*
X131835908Y-76200000D01*
X131951161Y-76779418D01*
X132279375Y-77270625D01*
X132577761Y-77470000D01*
X132279375Y-77669375D01*
X131951161Y-78160582D01*
X131835908Y-78740000D01*
X131951161Y-79319418D01*
X132279375Y-79810625D01*
X132577761Y-80010000D01*
X132279375Y-80209375D01*
X131951161Y-80700582D01*
X131835908Y-81280000D01*
X131951161Y-81859418D01*
X132279375Y-82350625D01*
X132577761Y-82550000D01*
X132279375Y-82749375D01*
X131951161Y-83240582D01*
X131835908Y-83820000D01*
X131951161Y-84399418D01*
X132279375Y-84890625D01*
X132301033Y-84905096D01*
X132140302Y-84971673D01*
X131961673Y-85150301D01*
X131865000Y-85383690D01*
X131865000Y-86074250D01*
X132023750Y-86233000D01*
X133223000Y-86233000D01*
X133223000Y-86213000D01*
X133477000Y-86213000D01*
X133477000Y-86233000D01*
X134676250Y-86233000D01*
X134835000Y-86074250D01*
X134835000Y-85383690D01*
X134738327Y-85150301D01*
X134559698Y-84971673D01*
X134398967Y-84905096D01*
X134420625Y-84890625D01*
X134748839Y-84399418D01*
X134864092Y-83820000D01*
X134748839Y-83240582D01*
X134420625Y-82749375D01*
X134122239Y-82550000D01*
X134420625Y-82350625D01*
X134628178Y-82040000D01*
X135575199Y-82040000D01*
X138301312Y-84766114D01*
X138236887Y-85090000D01*
X138348260Y-85649909D01*
X138665423Y-86124577D01*
X139017758Y-86360000D01*
X138665423Y-86595423D01*
X138348260Y-87070091D01*
X138236887Y-87630000D01*
X138348260Y-88189909D01*
X138665423Y-88664577D01*
X139049108Y-88920947D01*
X138844866Y-89017611D01*
X138468959Y-89432577D01*
X138308096Y-89820961D01*
X138430085Y-90043000D01*
X139573000Y-90043000D01*
X139573000Y-90023000D01*
X139827000Y-90023000D01*
X139827000Y-90043000D01*
X140969915Y-90043000D01*
X140994128Y-89998929D01*
X142774671Y-91779473D01*
X142817072Y-91842930D01*
X143068464Y-92010905D01*
X143290149Y-92055001D01*
X143290153Y-92055001D01*
X143365000Y-92069889D01*
X143439847Y-92055001D01*
X149400200Y-92055001D01*
X150986896Y-93641698D01*
X150965000Y-93694561D01*
X150965000Y-94265439D01*
X151183466Y-94792862D01*
X151587138Y-95196534D01*
X152114561Y-95415000D01*
X152685439Y-95415000D01*
X153212862Y-95196534D01*
X153616534Y-94792862D01*
X153835000Y-94265439D01*
X153835000Y-93694561D01*
X153616534Y-93167138D01*
X153212862Y-92763466D01*
X152685439Y-92545000D01*
X152114561Y-92545000D01*
X152061698Y-92566896D01*
X150424801Y-90930000D01*
X151161570Y-90930000D01*
X151183466Y-90982862D01*
X151587138Y-91386534D01*
X152114561Y-91605000D01*
X152685439Y-91605000D01*
X153212862Y-91386534D01*
X153616534Y-90982862D01*
X153835000Y-90455439D01*
X153835000Y-90170000D01*
X161096887Y-90170000D01*
X161208260Y-90729909D01*
X161525423Y-91204577D01*
X162000091Y-91521740D01*
X162418667Y-91605000D01*
X162701333Y-91605000D01*
X163119909Y-91521740D01*
X163594577Y-91204577D01*
X163911740Y-90729909D01*
X164023113Y-90170000D01*
X163911740Y-89610091D01*
X163594577Y-89135423D01*
X163119909Y-88818260D01*
X162701333Y-88735000D01*
X162418667Y-88735000D01*
X162000091Y-88818260D01*
X161525423Y-89135423D01*
X161208260Y-89610091D01*
X161096887Y-90170000D01*
X153835000Y-90170000D01*
X153835000Y-89884561D01*
X153616534Y-89357138D01*
X153212862Y-88953466D01*
X152685439Y-88735000D01*
X152114561Y-88735000D01*
X151587138Y-88953466D01*
X151183466Y-89357138D01*
X151161570Y-89410000D01*
X148767440Y-89410000D01*
X148767440Y-89370000D01*
X148718157Y-89122235D01*
X148577809Y-88912191D01*
X148367765Y-88771843D01*
X148233894Y-88745215D01*
X148354577Y-88664577D01*
X148538043Y-88390000D01*
X151055153Y-88390000D01*
X151130000Y-88404888D01*
X151204847Y-88390000D01*
X151204852Y-88390000D01*
X151426537Y-88345904D01*
X151677929Y-88177929D01*
X151720331Y-88114470D01*
X152061698Y-87773103D01*
X152114561Y-87795000D01*
X152685439Y-87795000D01*
X153212862Y-87576534D01*
X153616534Y-87172862D01*
X153835000Y-86645439D01*
X153835000Y-86074561D01*
X153616534Y-85547138D01*
X153212862Y-85143466D01*
X152685439Y-84925000D01*
X152114561Y-84925000D01*
X151587138Y-85143466D01*
X151183466Y-85547138D01*
X150965000Y-86074561D01*
X150965000Y-86645439D01*
X150986897Y-86698302D01*
X150815199Y-86870000D01*
X148538043Y-86870000D01*
X148354577Y-86595423D01*
X148002242Y-86360000D01*
X148354577Y-86124577D01*
X148671740Y-85649909D01*
X148783113Y-85090000D01*
X148718688Y-84766114D01*
X150174803Y-83310000D01*
X151161570Y-83310000D01*
X151183466Y-83362862D01*
X151587138Y-83766534D01*
X152114561Y-83985000D01*
X152685439Y-83985000D01*
X153212862Y-83766534D01*
X153616534Y-83362862D01*
X153835000Y-82835439D01*
X153835000Y-82264561D01*
X153616534Y-81737138D01*
X153212862Y-81333466D01*
X152685439Y-81115000D01*
X152114561Y-81115000D01*
X151587138Y-81333466D01*
X151183466Y-81737138D01*
X151161570Y-81790000D01*
X149934846Y-81790000D01*
X149859999Y-81775112D01*
X149785152Y-81790000D01*
X149785148Y-81790000D01*
X149563463Y-81834096D01*
X149563461Y-81834097D01*
X149563462Y-81834097D01*
X149375526Y-81959671D01*
X149375524Y-81959673D01*
X149312071Y-82002071D01*
X149269673Y-82065524D01*
X148782595Y-82552602D01*
X148783113Y-82550000D01*
X148718688Y-82226113D01*
X150172801Y-80772000D01*
X159753112Y-80772000D01*
X159768000Y-80846847D01*
X159768001Y-82108151D01*
X159753112Y-82183002D01*
X159812097Y-82479539D01*
X159859178Y-82550000D01*
X159980072Y-82730931D01*
X160043528Y-82773331D01*
X162232273Y-84962076D01*
X162000091Y-85008260D01*
X161525423Y-85325423D01*
X161208260Y-85800091D01*
X161096887Y-86360000D01*
X161208260Y-86919909D01*
X161525423Y-87394577D01*
X162000091Y-87711740D01*
X162418667Y-87795000D01*
X162701333Y-87795000D01*
X162883887Y-87758688D01*
X165171745Y-90046547D01*
X165050042Y-90096958D01*
X164772958Y-90374042D01*
X164623000Y-90736071D01*
X164623000Y-90842198D01*
X162883887Y-92581312D01*
X162701333Y-92545000D01*
X162418667Y-92545000D01*
X162000091Y-92628260D01*
X161525423Y-92945423D01*
X161208260Y-93420091D01*
X161096887Y-93980000D01*
X161208260Y-94539909D01*
X161525423Y-95014577D01*
X162000091Y-95331740D01*
X162418667Y-95415000D01*
X162701333Y-95415000D01*
X163119909Y-95331740D01*
X163594577Y-95014577D01*
X163911740Y-94539909D01*
X164023113Y-93980000D01*
X163958688Y-93656113D01*
X165697802Y-91917000D01*
X165803929Y-91917000D01*
X166165958Y-91767042D01*
X166443042Y-91489958D01*
X166493453Y-91368255D01*
X167684671Y-92559473D01*
X167727071Y-92622929D01*
X167978463Y-92790904D01*
X168200148Y-92835000D01*
X168200152Y-92835000D01*
X168275000Y-92849888D01*
X168349848Y-92835000D01*
X170690000Y-92835000D01*
X170741001Y-92886001D01*
X171103030Y-93035959D01*
X171494888Y-93035959D01*
X171856917Y-92886001D01*
X172110041Y-92632877D01*
X172124929Y-92622929D01*
X172292904Y-92371537D01*
X172351889Y-92075000D01*
X172292904Y-91778463D01*
X172185927Y-91618361D01*
X172134001Y-91493001D01*
X171856917Y-91215917D01*
X171494888Y-91065959D01*
X171103030Y-91065959D01*
X170741001Y-91215917D01*
X170641918Y-91315000D01*
X168589802Y-91315000D01*
X168068411Y-90793609D01*
X168148000Y-90809440D01*
X169672000Y-90809440D01*
X169919765Y-90760157D01*
X170129809Y-90619809D01*
X170270157Y-90409765D01*
X170310162Y-90208643D01*
X170442821Y-90407180D01*
X170904919Y-90715944D01*
X171450000Y-90824368D01*
X171995082Y-90715944D01*
X172457180Y-90407180D01*
X172731580Y-89996511D01*
X172747941Y-90051941D01*
X173091974Y-90477630D01*
X173572723Y-90739260D01*
X173646930Y-90754220D01*
X173863000Y-90631720D01*
X173863000Y-89027000D01*
X173843000Y-89027000D01*
X173843000Y-88773000D01*
X173863000Y-88773000D01*
X173863000Y-87168280D01*
X173646930Y-87045780D01*
X173572723Y-87060740D01*
X173091974Y-87322370D01*
X172747941Y-87748059D01*
X172731580Y-87803489D01*
X172457179Y-87392820D01*
X171995081Y-87084056D01*
X171450000Y-86975632D01*
X171158431Y-87033629D01*
X166990330Y-82865529D01*
X166947928Y-82802070D01*
X166696536Y-82634095D01*
X166474851Y-82589999D01*
X166474846Y-82589999D01*
X166399999Y-82575111D01*
X166325152Y-82589999D01*
X164015157Y-82589999D01*
X164023113Y-82550000D01*
X163911740Y-81990091D01*
X163594577Y-81515423D01*
X163119909Y-81198260D01*
X162701333Y-81115000D01*
X162418667Y-81115000D01*
X162000091Y-81198260D01*
X161525423Y-81515423D01*
X161289022Y-81869223D01*
X161288000Y-81868201D01*
X161288000Y-81086801D01*
X162236114Y-80138688D01*
X162418667Y-80175000D01*
X162701333Y-80175000D01*
X163119909Y-80091740D01*
X163594577Y-79774577D01*
X163911740Y-79299909D01*
X164023113Y-78740000D01*
X163911740Y-78180091D01*
X163594577Y-77705423D01*
X163119909Y-77388260D01*
X162701333Y-77305000D01*
X162418667Y-77305000D01*
X162000091Y-77388260D01*
X161525423Y-77705423D01*
X161208260Y-78180091D01*
X161096887Y-78740000D01*
X161161312Y-79063886D01*
X160043530Y-80181669D01*
X159980071Y-80224071D01*
X159812096Y-80475464D01*
X159768000Y-80697149D01*
X159768000Y-80697153D01*
X159753112Y-80772000D01*
X150172801Y-80772000D01*
X151287703Y-79657099D01*
X151587138Y-79956534D01*
X152114561Y-80175000D01*
X152685439Y-80175000D01*
X153212862Y-79956534D01*
X153616534Y-79552862D01*
X153835000Y-79025439D01*
X153835000Y-78454561D01*
X153616534Y-77927138D01*
X153212862Y-77523466D01*
X152685439Y-77305000D01*
X152114561Y-77305000D01*
X151587138Y-77523466D01*
X151183466Y-77927138D01*
X151164864Y-77972047D01*
X151130000Y-77965112D01*
X151055152Y-77980000D01*
X151055148Y-77980000D01*
X150881605Y-78014520D01*
X150833462Y-78024096D01*
X150646418Y-78149076D01*
X150582071Y-78192071D01*
X150539671Y-78255527D01*
X148782595Y-80012603D01*
X148783113Y-80010000D01*
X148718688Y-79686113D01*
X152061698Y-76343104D01*
X152114561Y-76365000D01*
X152685439Y-76365000D01*
X153212862Y-76146534D01*
X153616534Y-75742862D01*
X153835000Y-75215439D01*
X153835000Y-74644561D01*
X153616534Y-74117138D01*
X153212862Y-73713466D01*
X152685439Y-73495000D01*
X152369802Y-73495000D01*
X152884473Y-72980329D01*
X152947929Y-72937929D01*
X153115904Y-72686537D01*
X153160000Y-72464852D01*
X153160000Y-72464847D01*
X153174888Y-72390000D01*
X153167953Y-72355136D01*
X153212862Y-72336534D01*
X153616534Y-71932862D01*
X153835000Y-71405439D01*
X153835000Y-70834561D01*
X153616534Y-70307138D01*
X153212862Y-69903466D01*
X152685439Y-69685000D01*
X152114561Y-69685000D01*
X151587138Y-69903466D01*
X151183466Y-70307138D01*
X150965000Y-70834561D01*
X150965000Y-71405439D01*
X151183466Y-71932862D01*
X151482901Y-72232297D01*
X148782595Y-74932603D01*
X148783113Y-74930000D01*
X148718688Y-74606114D01*
X149029474Y-74295328D01*
X149092930Y-74252928D01*
X149260905Y-74001536D01*
X149305001Y-73779851D01*
X149305001Y-73779847D01*
X149319889Y-73705000D01*
X149305001Y-73630153D01*
X149305001Y-71479800D01*
X152061699Y-68723104D01*
X152114561Y-68745000D01*
X152685439Y-68745000D01*
X153212862Y-68526534D01*
X153616534Y-68122862D01*
X153835000Y-67595439D01*
X153835000Y-67310000D01*
X161096887Y-67310000D01*
X161208260Y-67869909D01*
X161525423Y-68344577D01*
X162000091Y-68661740D01*
X162418667Y-68745000D01*
X162701333Y-68745000D01*
X163119909Y-68661740D01*
X163594577Y-68344577D01*
X163778043Y-68070000D01*
X166822463Y-68070000D01*
X170720046Y-71967584D01*
X170442820Y-72152821D01*
X170180000Y-72546159D01*
X169917179Y-72152820D01*
X169455081Y-71844056D01*
X168910000Y-71735632D01*
X168364918Y-71844056D01*
X167902820Y-72152821D01*
X167594056Y-72614919D01*
X167537350Y-72900000D01*
X165414803Y-72900000D01*
X163958688Y-71443886D01*
X164023113Y-71120000D01*
X163911740Y-70560091D01*
X163594577Y-70085423D01*
X163119909Y-69768260D01*
X162701333Y-69685000D01*
X162418667Y-69685000D01*
X162000091Y-69768260D01*
X161525423Y-70085423D01*
X161208260Y-70560091D01*
X161096887Y-71120000D01*
X161208260Y-71679909D01*
X161525423Y-72154577D01*
X162000091Y-72471740D01*
X162418667Y-72555000D01*
X162701333Y-72555000D01*
X162883886Y-72518688D01*
X164509673Y-74144476D01*
X164552071Y-74207929D01*
X164615524Y-74250327D01*
X164615526Y-74250329D01*
X164686255Y-74297588D01*
X164803463Y-74375904D01*
X165025148Y-74420000D01*
X165025152Y-74420000D01*
X165099999Y-74434888D01*
X165174846Y-74420000D01*
X167537349Y-74420000D01*
X167594056Y-74705082D01*
X167771068Y-74969999D01*
X164015157Y-74969999D01*
X164023113Y-74930000D01*
X163911740Y-74370091D01*
X163594577Y-73895423D01*
X163119909Y-73578260D01*
X162701333Y-73495000D01*
X162418667Y-73495000D01*
X162000091Y-73578260D01*
X161525423Y-73895423D01*
X161208260Y-74370091D01*
X161096887Y-74930000D01*
X161208260Y-75489909D01*
X161525423Y-75964577D01*
X162000091Y-76281740D01*
X162418667Y-76365000D01*
X162701333Y-76365000D01*
X162887084Y-76328052D01*
X162942382Y-76365000D01*
X163063462Y-76445903D01*
X163285147Y-76489999D01*
X163285151Y-76489999D01*
X163359998Y-76504887D01*
X163434845Y-76489999D01*
X169805154Y-76489999D01*
X169880001Y-76504887D01*
X169954848Y-76489999D01*
X169954853Y-76489999D01*
X170176538Y-76445903D01*
X170427930Y-76277928D01*
X170470332Y-76214469D01*
X171158431Y-75526371D01*
X171450000Y-75584368D01*
X171995082Y-75475944D01*
X172042990Y-75443933D01*
X172042991Y-82058138D01*
X172028102Y-82132990D01*
X172087087Y-82429527D01*
X172167585Y-82550000D01*
X172255062Y-82680919D01*
X172318518Y-82723319D01*
X176580969Y-86985770D01*
X176530000Y-86975632D01*
X175984918Y-87084056D01*
X175522820Y-87392821D01*
X175248420Y-87803490D01*
X175232059Y-87748059D01*
X174888026Y-87322370D01*
X174407277Y-87060740D01*
X174333070Y-87045780D01*
X174117000Y-87168280D01*
X174117000Y-88773000D01*
X174137000Y-88773000D01*
X174137000Y-89027000D01*
X174117000Y-89027000D01*
X174117000Y-90631720D01*
X174333070Y-90754220D01*
X174407277Y-90739260D01*
X174888026Y-90477630D01*
X175232059Y-90051941D01*
X175248420Y-89996511D01*
X175522821Y-90407180D01*
X175984919Y-90715944D01*
X176530000Y-90824368D01*
X177075082Y-90715944D01*
X177537180Y-90407180D01*
X177800000Y-90013842D01*
X178062821Y-90407180D01*
X178524919Y-90715944D01*
X179070000Y-90824368D01*
X179615082Y-90715944D01*
X180077180Y-90407180D01*
X180385944Y-89945082D01*
X180467000Y-89537588D01*
X180467000Y-88262412D01*
X180385944Y-87854918D01*
X180077179Y-87392820D01*
X179615081Y-87084056D01*
X179070000Y-86975632D01*
X178778431Y-87033629D01*
X173562990Y-81818189D01*
X173562990Y-75493963D01*
X173572723Y-75499260D01*
X173646930Y-75514220D01*
X173863000Y-75391720D01*
X173863000Y-73787000D01*
X173843000Y-73787000D01*
X173843000Y-73533000D01*
X173863000Y-73533000D01*
X173863000Y-71928280D01*
X174117000Y-71928280D01*
X174117000Y-73533000D01*
X174137000Y-73533000D01*
X174137000Y-73787000D01*
X174117000Y-73787000D01*
X174117000Y-75391720D01*
X174333070Y-75514220D01*
X174407277Y-75499260D01*
X174888026Y-75237630D01*
X175232059Y-74811941D01*
X175248420Y-74756511D01*
X175522821Y-75167180D01*
X175984919Y-75475944D01*
X176530000Y-75584368D01*
X177075082Y-75475944D01*
X177537180Y-75167180D01*
X177800000Y-74773842D01*
X178062821Y-75167180D01*
X178524919Y-75475944D01*
X179070000Y-75584368D01*
X179615082Y-75475944D01*
X180077180Y-75167180D01*
X180385944Y-74705082D01*
X180467000Y-74297588D01*
X180467000Y-73022412D01*
X180385944Y-72614918D01*
X180077179Y-72152820D01*
X179615081Y-71844056D01*
X179070000Y-71735632D01*
X178524918Y-71844056D01*
X178062820Y-72152821D01*
X177800000Y-72546159D01*
X177537179Y-72152820D01*
X177075081Y-71844056D01*
X176530000Y-71735632D01*
X175984918Y-71844056D01*
X175522820Y-72152821D01*
X175248420Y-72563490D01*
X175232059Y-72508059D01*
X174888026Y-72082370D01*
X174407277Y-71820740D01*
X174333070Y-71805780D01*
X174117000Y-71928280D01*
X173863000Y-71928280D01*
X173646930Y-71805780D01*
X173572723Y-71820740D01*
X173091974Y-72082370D01*
X173043909Y-72141843D01*
X167727595Y-66825530D01*
X167685193Y-66762071D01*
X167433801Y-66594096D01*
X167212116Y-66550000D01*
X167212111Y-66550000D01*
X167137264Y-66535112D01*
X167062417Y-66550000D01*
X163778043Y-66550000D01*
X163594577Y-66275423D01*
X163119909Y-65958260D01*
X162701333Y-65875000D01*
X162418667Y-65875000D01*
X162000091Y-65958260D01*
X161525423Y-66275423D01*
X161208260Y-66750091D01*
X161096887Y-67310000D01*
X153835000Y-67310000D01*
X153835000Y-67024561D01*
X153616534Y-66497138D01*
X153212862Y-66093466D01*
X152685439Y-65875000D01*
X152114561Y-65875000D01*
X151587138Y-66093466D01*
X151183466Y-66497138D01*
X150965000Y-67024561D01*
X150965000Y-67595439D01*
X150986896Y-67648301D01*
X148060529Y-70574670D01*
X147997073Y-70617070D01*
X147954673Y-70680526D01*
X147954672Y-70680527D01*
X147829098Y-70868462D01*
X147798542Y-71022075D01*
X147461333Y-70955000D01*
X147178667Y-70955000D01*
X146760091Y-71038260D01*
X146285423Y-71355423D01*
X145968260Y-71830091D01*
X145856887Y-72390000D01*
X145968260Y-72949909D01*
X146285423Y-73424577D01*
X146637758Y-73660000D01*
X146285423Y-73895423D01*
X145968260Y-74370091D01*
X145856887Y-74930000D01*
X145968260Y-75489909D01*
X146285423Y-75964577D01*
X146637758Y-76200000D01*
X146285423Y-76435423D01*
X145968260Y-76910091D01*
X145856887Y-77470000D01*
X145968260Y-78029909D01*
X146285423Y-78504577D01*
X146637758Y-78740000D01*
X146285423Y-78975423D01*
X145968260Y-79450091D01*
X145856887Y-80010000D01*
X145968260Y-80569909D01*
X146285423Y-81044577D01*
X146637758Y-81280000D01*
X146285423Y-81515423D01*
X145968260Y-81990091D01*
X145856887Y-82550000D01*
X145968260Y-83109909D01*
X146285423Y-83584577D01*
X146637758Y-83820000D01*
X146285423Y-84055423D01*
X145968260Y-84530091D01*
X145856887Y-85090000D01*
X145968260Y-85649909D01*
X146285423Y-86124577D01*
X146637758Y-86360000D01*
X146285423Y-86595423D01*
X145968260Y-87070091D01*
X145856887Y-87630000D01*
X145968260Y-88189909D01*
X146285423Y-88664577D01*
X146406106Y-88745215D01*
X146272235Y-88771843D01*
X146062191Y-88912191D01*
X145921843Y-89122235D01*
X145872560Y-89370000D01*
X145872560Y-90535001D01*
X143679803Y-90535001D01*
X141098688Y-87953887D01*
X141163113Y-87630000D01*
X141051740Y-87070091D01*
X140734577Y-86595423D01*
X140382242Y-86360000D01*
X140734577Y-86124577D01*
X141051740Y-85649909D01*
X141163113Y-85090000D01*
X141051740Y-84530091D01*
X140734577Y-84055423D01*
X140382242Y-83820000D01*
X140734577Y-83584577D01*
X141051740Y-83109909D01*
X141163113Y-82550000D01*
X141051740Y-81990091D01*
X140734577Y-81515423D01*
X140382242Y-81280000D01*
X140734577Y-81044577D01*
X141051740Y-80569909D01*
X141163113Y-80010000D01*
X141051740Y-79450091D01*
X140734577Y-78975423D01*
X140382242Y-78740000D01*
X140734577Y-78504577D01*
X141051740Y-78029909D01*
X141163113Y-77470000D01*
X141051740Y-76910091D01*
X140734577Y-76435423D01*
X140350892Y-76179053D01*
X140555134Y-76082389D01*
X140931041Y-75667423D01*
X141091904Y-75279039D01*
X140969915Y-75057000D01*
X139827000Y-75057000D01*
X139827000Y-75077000D01*
X139573000Y-75077000D01*
X139573000Y-75057000D01*
X138430085Y-75057000D01*
X138308096Y-75279039D01*
X138373271Y-75436396D01*
X138355153Y-75440000D01*
X134628178Y-75440000D01*
X134420625Y-75129375D01*
X133929418Y-74801161D01*
X133496256Y-74715000D01*
X133203744Y-74715000D01*
X132770582Y-74801161D01*
X132279375Y-75129375D01*
X131951161Y-75620582D01*
X131835908Y-76200000D01*
X131520000Y-76200000D01*
X131520000Y-72390000D01*
X138236887Y-72390000D01*
X138348260Y-72949909D01*
X138665423Y-73424577D01*
X139049108Y-73680947D01*
X138844866Y-73777611D01*
X138468959Y-74192577D01*
X138308096Y-74580961D01*
X138430085Y-74803000D01*
X139573000Y-74803000D01*
X139573000Y-74783000D01*
X139827000Y-74783000D01*
X139827000Y-74803000D01*
X140969915Y-74803000D01*
X141091904Y-74580961D01*
X140931041Y-74192577D01*
X140555134Y-73777611D01*
X140350892Y-73680947D01*
X140734577Y-73424577D01*
X141051740Y-72949909D01*
X141163113Y-72390000D01*
X141051740Y-71830091D01*
X140734577Y-71355423D01*
X140259909Y-71038260D01*
X139841333Y-70955000D01*
X139558667Y-70955000D01*
X139140091Y-71038260D01*
X138665423Y-71355423D01*
X138348260Y-71830091D01*
X138236887Y-72390000D01*
X131520000Y-72390000D01*
X131520000Y-65480000D01*
X180900000Y-65480000D01*
X180900001Y-95810000D01*
X180900001Y-95810000D01*
G37*
X180900001Y-95810000D02*
X131520000Y-95810000D01*
X131520000Y-90519039D01*
X138308096Y-90519039D01*
X138468959Y-90907423D01*
X138844866Y-91322389D01*
X139350959Y-91561914D01*
X139573000Y-91440629D01*
X139573000Y-90297000D01*
X139827000Y-90297000D01*
X139827000Y-91440629D01*
X140049041Y-91561914D01*
X140555134Y-91322389D01*
X140931041Y-90907423D01*
X141091904Y-90519039D01*
X140969915Y-90297000D01*
X139827000Y-90297000D01*
X139573000Y-90297000D01*
X138430085Y-90297000D01*
X138308096Y-90519039D01*
X131520000Y-90519039D01*
X131520000Y-86645750D01*
X131865000Y-86645750D01*
X131865000Y-87336310D01*
X131961673Y-87569699D01*
X132140302Y-87748327D01*
X132373691Y-87845000D01*
X133064250Y-87845000D01*
X133223000Y-87686250D01*
X133223000Y-86487000D01*
X133477000Y-86487000D01*
X133477000Y-87686250D01*
X133635750Y-87845000D01*
X134326309Y-87845000D01*
X134559698Y-87748327D01*
X134738327Y-87569699D01*
X134835000Y-87336310D01*
X134835000Y-86645750D01*
X134676250Y-86487000D01*
X133477000Y-86487000D01*
X133223000Y-86487000D01*
X132023750Y-86487000D01*
X131865000Y-86645750D01*
X131520000Y-86645750D01*
X131520000Y-76200000D01*
X131835908Y-76200000D01*
X131951161Y-76779418D01*
X132279375Y-77270625D01*
X132577761Y-77470000D01*
X132279375Y-77669375D01*
X131951161Y-78160582D01*
X131835908Y-78740000D01*
X131951161Y-79319418D01*
X132279375Y-79810625D01*
X132577761Y-80010000D01*
X132279375Y-80209375D01*
X131951161Y-80700582D01*
X131835908Y-81280000D01*
X131951161Y-81859418D01*
X132279375Y-82350625D01*
X132577761Y-82550000D01*
X132279375Y-82749375D01*
X131951161Y-83240582D01*
X131835908Y-83820000D01*
X131951161Y-84399418D01*
X132279375Y-84890625D01*
X132301033Y-84905096D01*
X132140302Y-84971673D01*
X131961673Y-85150301D01*
X131865000Y-85383690D01*
X131865000Y-86074250D01*
X132023750Y-86233000D01*
X133223000Y-86233000D01*
X133223000Y-86213000D01*
X133477000Y-86213000D01*
X133477000Y-86233000D01*
X134676250Y-86233000D01*
X134835000Y-86074250D01*
X134835000Y-85383690D01*
X134738327Y-85150301D01*
X134559698Y-84971673D01*
X134398967Y-84905096D01*
X134420625Y-84890625D01*
X134748839Y-84399418D01*
X134864092Y-83820000D01*
X134748839Y-83240582D01*
X134420625Y-82749375D01*
X134122239Y-82550000D01*
X134420625Y-82350625D01*
X134628178Y-82040000D01*
X135575199Y-82040000D01*
X138301312Y-84766114D01*
X138236887Y-85090000D01*
X138348260Y-85649909D01*
X138665423Y-86124577D01*
X139017758Y-86360000D01*
X138665423Y-86595423D01*
X138348260Y-87070091D01*
X138236887Y-87630000D01*
X138348260Y-88189909D01*
X138665423Y-88664577D01*
X139049108Y-88920947D01*
X138844866Y-89017611D01*
X138468959Y-89432577D01*
X138308096Y-89820961D01*
X138430085Y-90043000D01*
X139573000Y-90043000D01*
X139573000Y-90023000D01*
X139827000Y-90023000D01*
X139827000Y-90043000D01*
X140969915Y-90043000D01*
X140994128Y-89998929D01*
X142774671Y-91779473D01*
X142817072Y-91842930D01*
X143068464Y-92010905D01*
X143290149Y-92055001D01*
X143290153Y-92055001D01*
X143365000Y-92069889D01*
X143439847Y-92055001D01*
X149400200Y-92055001D01*
X150986896Y-93641698D01*
X150965000Y-93694561D01*
X150965000Y-94265439D01*
X151183466Y-94792862D01*
X151587138Y-95196534D01*
X152114561Y-95415000D01*
X152685439Y-95415000D01*
X153212862Y-95196534D01*
X153616534Y-94792862D01*
X153835000Y-94265439D01*
X153835000Y-93694561D01*
X153616534Y-93167138D01*
X153212862Y-92763466D01*
X152685439Y-92545000D01*
X152114561Y-92545000D01*
X152061698Y-92566896D01*
X150424801Y-90930000D01*
X151161570Y-90930000D01*
X151183466Y-90982862D01*
X151587138Y-91386534D01*
X152114561Y-91605000D01*
X152685439Y-91605000D01*
X153212862Y-91386534D01*
X153616534Y-90982862D01*
X153835000Y-90455439D01*
X153835000Y-90170000D01*
X161096887Y-90170000D01*
X161208260Y-90729909D01*
X161525423Y-91204577D01*
X162000091Y-91521740D01*
X162418667Y-91605000D01*
X162701333Y-91605000D01*
X163119909Y-91521740D01*
X163594577Y-91204577D01*
X163911740Y-90729909D01*
X164023113Y-90170000D01*
X163911740Y-89610091D01*
X163594577Y-89135423D01*
X163119909Y-88818260D01*
X162701333Y-88735000D01*
X162418667Y-88735000D01*
X162000091Y-88818260D01*
X161525423Y-89135423D01*
X161208260Y-89610091D01*
X161096887Y-90170000D01*
X153835000Y-90170000D01*
X153835000Y-89884561D01*
X153616534Y-89357138D01*
X153212862Y-88953466D01*
X152685439Y-88735000D01*
X152114561Y-88735000D01*
X151587138Y-88953466D01*
X151183466Y-89357138D01*
X151161570Y-89410000D01*
X148767440Y-89410000D01*
X148767440Y-89370000D01*
X148718157Y-89122235D01*
X148577809Y-88912191D01*
X148367765Y-88771843D01*
X148233894Y-88745215D01*
X148354577Y-88664577D01*
X148538043Y-88390000D01*
X151055153Y-88390000D01*
X151130000Y-88404888D01*
X151204847Y-88390000D01*
X151204852Y-88390000D01*
X151426537Y-88345904D01*
X151677929Y-88177929D01*
X151720331Y-88114470D01*
X152061698Y-87773103D01*
X152114561Y-87795000D01*
X152685439Y-87795000D01*
X153212862Y-87576534D01*
X153616534Y-87172862D01*
X153835000Y-86645439D01*
X153835000Y-86074561D01*
X153616534Y-85547138D01*
X153212862Y-85143466D01*
X152685439Y-84925000D01*
X152114561Y-84925000D01*
X151587138Y-85143466D01*
X151183466Y-85547138D01*
X150965000Y-86074561D01*
X150965000Y-86645439D01*
X150986897Y-86698302D01*
X150815199Y-86870000D01*
X148538043Y-86870000D01*
X148354577Y-86595423D01*
X148002242Y-86360000D01*
X148354577Y-86124577D01*
X148671740Y-85649909D01*
X148783113Y-85090000D01*
X148718688Y-84766114D01*
X150174803Y-83310000D01*
X151161570Y-83310000D01*
X151183466Y-83362862D01*
X151587138Y-83766534D01*
X152114561Y-83985000D01*
X152685439Y-83985000D01*
X153212862Y-83766534D01*
X153616534Y-83362862D01*
X153835000Y-82835439D01*
X153835000Y-82264561D01*
X153616534Y-81737138D01*
X153212862Y-81333466D01*
X152685439Y-81115000D01*
X152114561Y-81115000D01*
X151587138Y-81333466D01*
X151183466Y-81737138D01*
X151161570Y-81790000D01*
X149934846Y-81790000D01*
X149859999Y-81775112D01*
X149785152Y-81790000D01*
X149785148Y-81790000D01*
X149563463Y-81834096D01*
X149563461Y-81834097D01*
X149563462Y-81834097D01*
X149375526Y-81959671D01*
X149375524Y-81959673D01*
X149312071Y-82002071D01*
X149269673Y-82065524D01*
X148782595Y-82552602D01*
X148783113Y-82550000D01*
X148718688Y-82226113D01*
X150172801Y-80772000D01*
X159753112Y-80772000D01*
X159768000Y-80846847D01*
X159768001Y-82108151D01*
X159753112Y-82183002D01*
X159812097Y-82479539D01*
X159859178Y-82550000D01*
X159980072Y-82730931D01*
X160043528Y-82773331D01*
X162232273Y-84962076D01*
X162000091Y-85008260D01*
X161525423Y-85325423D01*
X161208260Y-85800091D01*
X161096887Y-86360000D01*
X161208260Y-86919909D01*
X161525423Y-87394577D01*
X162000091Y-87711740D01*
X162418667Y-87795000D01*
X162701333Y-87795000D01*
X162883887Y-87758688D01*
X165171745Y-90046547D01*
X165050042Y-90096958D01*
X164772958Y-90374042D01*
X164623000Y-90736071D01*
X164623000Y-90842198D01*
X162883887Y-92581312D01*
X162701333Y-92545000D01*
X162418667Y-92545000D01*
X162000091Y-92628260D01*
X161525423Y-92945423D01*
X161208260Y-93420091D01*
X161096887Y-93980000D01*
X161208260Y-94539909D01*
X161525423Y-95014577D01*
X162000091Y-95331740D01*
X162418667Y-95415000D01*
X162701333Y-95415000D01*
X163119909Y-95331740D01*
X163594577Y-95014577D01*
X163911740Y-94539909D01*
X164023113Y-93980000D01*
X163958688Y-93656113D01*
X165697802Y-91917000D01*
X165803929Y-91917000D01*
X166165958Y-91767042D01*
X166443042Y-91489958D01*
X166493453Y-91368255D01*
X167684671Y-92559473D01*
X167727071Y-92622929D01*
X167978463Y-92790904D01*
X168200148Y-92835000D01*
X168200152Y-92835000D01*
X168275000Y-92849888D01*
X168349848Y-92835000D01*
X170690000Y-92835000D01*
X170741001Y-92886001D01*
X171103030Y-93035959D01*
X171494888Y-93035959D01*
X171856917Y-92886001D01*
X172110041Y-92632877D01*
X172124929Y-92622929D01*
X172292904Y-92371537D01*
X172351889Y-92075000D01*
X172292904Y-91778463D01*
X172185927Y-91618361D01*
X172134001Y-91493001D01*
X171856917Y-91215917D01*
X171494888Y-91065959D01*
X171103030Y-91065959D01*
X170741001Y-91215917D01*
X170641918Y-91315000D01*
X168589802Y-91315000D01*
X168068411Y-90793609D01*
X168148000Y-90809440D01*
X169672000Y-90809440D01*
X169919765Y-90760157D01*
X170129809Y-90619809D01*
X170270157Y-90409765D01*
X170310162Y-90208643D01*
X170442821Y-90407180D01*
X170904919Y-90715944D01*
X171450000Y-90824368D01*
X171995082Y-90715944D01*
X172457180Y-90407180D01*
X172731580Y-89996511D01*
X172747941Y-90051941D01*
X173091974Y-90477630D01*
X173572723Y-90739260D01*
X173646930Y-90754220D01*
X173863000Y-90631720D01*
X173863000Y-89027000D01*
X173843000Y-89027000D01*
X173843000Y-88773000D01*
X173863000Y-88773000D01*
X173863000Y-87168280D01*
X173646930Y-87045780D01*
X173572723Y-87060740D01*
X173091974Y-87322370D01*
X172747941Y-87748059D01*
X172731580Y-87803489D01*
X172457179Y-87392820D01*
X171995081Y-87084056D01*
X171450000Y-86975632D01*
X171158431Y-87033629D01*
X166990330Y-82865529D01*
X166947928Y-82802070D01*
X166696536Y-82634095D01*
X166474851Y-82589999D01*
X166474846Y-82589999D01*
X166399999Y-82575111D01*
X166325152Y-82589999D01*
X164015157Y-82589999D01*
X164023113Y-82550000D01*
X163911740Y-81990091D01*
X163594577Y-81515423D01*
X163119909Y-81198260D01*
X162701333Y-81115000D01*
X162418667Y-81115000D01*
X162000091Y-81198260D01*
X161525423Y-81515423D01*
X161289022Y-81869223D01*
X161288000Y-81868201D01*
X161288000Y-81086801D01*
X162236114Y-80138688D01*
X162418667Y-80175000D01*
X162701333Y-80175000D01*
X163119909Y-80091740D01*
X163594577Y-79774577D01*
X163911740Y-79299909D01*
X164023113Y-78740000D01*
X163911740Y-78180091D01*
X163594577Y-77705423D01*
X163119909Y-77388260D01*
X162701333Y-77305000D01*
X162418667Y-77305000D01*
X162000091Y-77388260D01*
X161525423Y-77705423D01*
X161208260Y-78180091D01*
X161096887Y-78740000D01*
X161161312Y-79063886D01*
X160043530Y-80181669D01*
X159980071Y-80224071D01*
X159812096Y-80475464D01*
X159768000Y-80697149D01*
X159768000Y-80697153D01*
X159753112Y-80772000D01*
X150172801Y-80772000D01*
X151287703Y-79657099D01*
X151587138Y-79956534D01*
X152114561Y-80175000D01*
X152685439Y-80175000D01*
X153212862Y-79956534D01*
X153616534Y-79552862D01*
X153835000Y-79025439D01*
X153835000Y-78454561D01*
X153616534Y-77927138D01*
X153212862Y-77523466D01*
X152685439Y-77305000D01*
X152114561Y-77305000D01*
X151587138Y-77523466D01*
X151183466Y-77927138D01*
X151164864Y-77972047D01*
X151130000Y-77965112D01*
X151055152Y-77980000D01*
X151055148Y-77980000D01*
X150881605Y-78014520D01*
X150833462Y-78024096D01*
X150646418Y-78149076D01*
X150582071Y-78192071D01*
X150539671Y-78255527D01*
X148782595Y-80012603D01*
X148783113Y-80010000D01*
X148718688Y-79686113D01*
X152061698Y-76343104D01*
X152114561Y-76365000D01*
X152685439Y-76365000D01*
X153212862Y-76146534D01*
X153616534Y-75742862D01*
X153835000Y-75215439D01*
X153835000Y-74644561D01*
X153616534Y-74117138D01*
X153212862Y-73713466D01*
X152685439Y-73495000D01*
X152369802Y-73495000D01*
X152884473Y-72980329D01*
X152947929Y-72937929D01*
X153115904Y-72686537D01*
X153160000Y-72464852D01*
X153160000Y-72464847D01*
X153174888Y-72390000D01*
X153167953Y-72355136D01*
X153212862Y-72336534D01*
X153616534Y-71932862D01*
X153835000Y-71405439D01*
X153835000Y-70834561D01*
X153616534Y-70307138D01*
X153212862Y-69903466D01*
X152685439Y-69685000D01*
X152114561Y-69685000D01*
X151587138Y-69903466D01*
X151183466Y-70307138D01*
X150965000Y-70834561D01*
X150965000Y-71405439D01*
X151183466Y-71932862D01*
X151482901Y-72232297D01*
X148782595Y-74932603D01*
X148783113Y-74930000D01*
X148718688Y-74606114D01*
X149029474Y-74295328D01*
X149092930Y-74252928D01*
X149260905Y-74001536D01*
X149305001Y-73779851D01*
X149305001Y-73779847D01*
X149319889Y-73705000D01*
X149305001Y-73630153D01*
X149305001Y-71479800D01*
X152061699Y-68723104D01*
X152114561Y-68745000D01*
X152685439Y-68745000D01*
X153212862Y-68526534D01*
X153616534Y-68122862D01*
X153835000Y-67595439D01*
X153835000Y-67310000D01*
X161096887Y-67310000D01*
X161208260Y-67869909D01*
X161525423Y-68344577D01*
X162000091Y-68661740D01*
X162418667Y-68745000D01*
X162701333Y-68745000D01*
X163119909Y-68661740D01*
X163594577Y-68344577D01*
X163778043Y-68070000D01*
X166822463Y-68070000D01*
X170720046Y-71967584D01*
X170442820Y-72152821D01*
X170180000Y-72546159D01*
X169917179Y-72152820D01*
X169455081Y-71844056D01*
X168910000Y-71735632D01*
X168364918Y-71844056D01*
X167902820Y-72152821D01*
X167594056Y-72614919D01*
X167537350Y-72900000D01*
X165414803Y-72900000D01*
X163958688Y-71443886D01*
X164023113Y-71120000D01*
X163911740Y-70560091D01*
X163594577Y-70085423D01*
X163119909Y-69768260D01*
X162701333Y-69685000D01*
X162418667Y-69685000D01*
X162000091Y-69768260D01*
X161525423Y-70085423D01*
X161208260Y-70560091D01*
X161096887Y-71120000D01*
X161208260Y-71679909D01*
X161525423Y-72154577D01*
X162000091Y-72471740D01*
X162418667Y-72555000D01*
X162701333Y-72555000D01*
X162883886Y-72518688D01*
X164509673Y-74144476D01*
X164552071Y-74207929D01*
X164615524Y-74250327D01*
X164615526Y-74250329D01*
X164686255Y-74297588D01*
X164803463Y-74375904D01*
X165025148Y-74420000D01*
X165025152Y-74420000D01*
X165099999Y-74434888D01*
X165174846Y-74420000D01*
X167537349Y-74420000D01*
X167594056Y-74705082D01*
X167771068Y-74969999D01*
X164015157Y-74969999D01*
X164023113Y-74930000D01*
X163911740Y-74370091D01*
X163594577Y-73895423D01*
X163119909Y-73578260D01*
X162701333Y-73495000D01*
X162418667Y-73495000D01*
X162000091Y-73578260D01*
X161525423Y-73895423D01*
X161208260Y-74370091D01*
X161096887Y-74930000D01*
X161208260Y-75489909D01*
X161525423Y-75964577D01*
X162000091Y-76281740D01*
X162418667Y-76365000D01*
X162701333Y-76365000D01*
X162887084Y-76328052D01*
X162942382Y-76365000D01*
X163063462Y-76445903D01*
X163285147Y-76489999D01*
X163285151Y-76489999D01*
X163359998Y-76504887D01*
X163434845Y-76489999D01*
X169805154Y-76489999D01*
X169880001Y-76504887D01*
X169954848Y-76489999D01*
X169954853Y-76489999D01*
X170176538Y-76445903D01*
X170427930Y-76277928D01*
X170470332Y-76214469D01*
X171158431Y-75526371D01*
X171450000Y-75584368D01*
X171995082Y-75475944D01*
X172042990Y-75443933D01*
X172042991Y-82058138D01*
X172028102Y-82132990D01*
X172087087Y-82429527D01*
X172167585Y-82550000D01*
X172255062Y-82680919D01*
X172318518Y-82723319D01*
X176580969Y-86985770D01*
X176530000Y-86975632D01*
X175984918Y-87084056D01*
X175522820Y-87392821D01*
X175248420Y-87803490D01*
X175232059Y-87748059D01*
X174888026Y-87322370D01*
X174407277Y-87060740D01*
X174333070Y-87045780D01*
X174117000Y-87168280D01*
X174117000Y-88773000D01*
X174137000Y-88773000D01*
X174137000Y-89027000D01*
X174117000Y-89027000D01*
X174117000Y-90631720D01*
X174333070Y-90754220D01*
X174407277Y-90739260D01*
X174888026Y-90477630D01*
X175232059Y-90051941D01*
X175248420Y-89996511D01*
X175522821Y-90407180D01*
X175984919Y-90715944D01*
X176530000Y-90824368D01*
X177075082Y-90715944D01*
X177537180Y-90407180D01*
X177800000Y-90013842D01*
X178062821Y-90407180D01*
X178524919Y-90715944D01*
X179070000Y-90824368D01*
X179615082Y-90715944D01*
X180077180Y-90407180D01*
X180385944Y-89945082D01*
X180467000Y-89537588D01*
X180467000Y-88262412D01*
X180385944Y-87854918D01*
X180077179Y-87392820D01*
X179615081Y-87084056D01*
X179070000Y-86975632D01*
X178778431Y-87033629D01*
X173562990Y-81818189D01*
X173562990Y-75493963D01*
X173572723Y-75499260D01*
X173646930Y-75514220D01*
X173863000Y-75391720D01*
X173863000Y-73787000D01*
X173843000Y-73787000D01*
X173843000Y-73533000D01*
X173863000Y-73533000D01*
X173863000Y-71928280D01*
X174117000Y-71928280D01*
X174117000Y-73533000D01*
X174137000Y-73533000D01*
X174137000Y-73787000D01*
X174117000Y-73787000D01*
X174117000Y-75391720D01*
X174333070Y-75514220D01*
X174407277Y-75499260D01*
X174888026Y-75237630D01*
X175232059Y-74811941D01*
X175248420Y-74756511D01*
X175522821Y-75167180D01*
X175984919Y-75475944D01*
X176530000Y-75584368D01*
X177075082Y-75475944D01*
X177537180Y-75167180D01*
X177800000Y-74773842D01*
X178062821Y-75167180D01*
X178524919Y-75475944D01*
X179070000Y-75584368D01*
X179615082Y-75475944D01*
X180077180Y-75167180D01*
X180385944Y-74705082D01*
X180467000Y-74297588D01*
X180467000Y-73022412D01*
X180385944Y-72614918D01*
X180077179Y-72152820D01*
X179615081Y-71844056D01*
X179070000Y-71735632D01*
X178524918Y-71844056D01*
X178062820Y-72152821D01*
X177800000Y-72546159D01*
X177537179Y-72152820D01*
X177075081Y-71844056D01*
X176530000Y-71735632D01*
X175984918Y-71844056D01*
X175522820Y-72152821D01*
X175248420Y-72563490D01*
X175232059Y-72508059D01*
X174888026Y-72082370D01*
X174407277Y-71820740D01*
X174333070Y-71805780D01*
X174117000Y-71928280D01*
X173863000Y-71928280D01*
X173646930Y-71805780D01*
X173572723Y-71820740D01*
X173091974Y-72082370D01*
X173043909Y-72141843D01*
X167727595Y-66825530D01*
X167685193Y-66762071D01*
X167433801Y-66594096D01*
X167212116Y-66550000D01*
X167212111Y-66550000D01*
X167137264Y-66535112D01*
X167062417Y-66550000D01*
X163778043Y-66550000D01*
X163594577Y-66275423D01*
X163119909Y-65958260D01*
X162701333Y-65875000D01*
X162418667Y-65875000D01*
X162000091Y-65958260D01*
X161525423Y-66275423D01*
X161208260Y-66750091D01*
X161096887Y-67310000D01*
X153835000Y-67310000D01*
X153835000Y-67024561D01*
X153616534Y-66497138D01*
X153212862Y-66093466D01*
X152685439Y-65875000D01*
X152114561Y-65875000D01*
X151587138Y-66093466D01*
X151183466Y-66497138D01*
X150965000Y-67024561D01*
X150965000Y-67595439D01*
X150986896Y-67648301D01*
X148060529Y-70574670D01*
X147997073Y-70617070D01*
X147954673Y-70680526D01*
X147954672Y-70680527D01*
X147829098Y-70868462D01*
X147798542Y-71022075D01*
X147461333Y-70955000D01*
X147178667Y-70955000D01*
X146760091Y-71038260D01*
X146285423Y-71355423D01*
X145968260Y-71830091D01*
X145856887Y-72390000D01*
X145968260Y-72949909D01*
X146285423Y-73424577D01*
X146637758Y-73660000D01*
X146285423Y-73895423D01*
X145968260Y-74370091D01*
X145856887Y-74930000D01*
X145968260Y-75489909D01*
X146285423Y-75964577D01*
X146637758Y-76200000D01*
X146285423Y-76435423D01*
X145968260Y-76910091D01*
X145856887Y-77470000D01*
X145968260Y-78029909D01*
X146285423Y-78504577D01*
X146637758Y-78740000D01*
X146285423Y-78975423D01*
X145968260Y-79450091D01*
X145856887Y-80010000D01*
X145968260Y-80569909D01*
X146285423Y-81044577D01*
X146637758Y-81280000D01*
X146285423Y-81515423D01*
X145968260Y-81990091D01*
X145856887Y-82550000D01*
X145968260Y-83109909D01*
X146285423Y-83584577D01*
X146637758Y-83820000D01*
X146285423Y-84055423D01*
X145968260Y-84530091D01*
X145856887Y-85090000D01*
X145968260Y-85649909D01*
X146285423Y-86124577D01*
X146637758Y-86360000D01*
X146285423Y-86595423D01*
X145968260Y-87070091D01*
X145856887Y-87630000D01*
X145968260Y-88189909D01*
X146285423Y-88664577D01*
X146406106Y-88745215D01*
X146272235Y-88771843D01*
X146062191Y-88912191D01*
X145921843Y-89122235D01*
X145872560Y-89370000D01*
X145872560Y-90535001D01*
X143679803Y-90535001D01*
X141098688Y-87953887D01*
X141163113Y-87630000D01*
X141051740Y-87070091D01*
X140734577Y-86595423D01*
X140382242Y-86360000D01*
X140734577Y-86124577D01*
X141051740Y-85649909D01*
X141163113Y-85090000D01*
X141051740Y-84530091D01*
X140734577Y-84055423D01*
X140382242Y-83820000D01*
X140734577Y-83584577D01*
X141051740Y-83109909D01*
X141163113Y-82550000D01*
X141051740Y-81990091D01*
X140734577Y-81515423D01*
X140382242Y-81280000D01*
X140734577Y-81044577D01*
X141051740Y-80569909D01*
X141163113Y-80010000D01*
X141051740Y-79450091D01*
X140734577Y-78975423D01*
X140382242Y-78740000D01*
X140734577Y-78504577D01*
X141051740Y-78029909D01*
X141163113Y-77470000D01*
X141051740Y-76910091D01*
X140734577Y-76435423D01*
X140350892Y-76179053D01*
X140555134Y-76082389D01*
X140931041Y-75667423D01*
X141091904Y-75279039D01*
X140969915Y-75057000D01*
X139827000Y-75057000D01*
X139827000Y-75077000D01*
X139573000Y-75077000D01*
X139573000Y-75057000D01*
X138430085Y-75057000D01*
X138308096Y-75279039D01*
X138373271Y-75436396D01*
X138355153Y-75440000D01*
X134628178Y-75440000D01*
X134420625Y-75129375D01*
X133929418Y-74801161D01*
X133496256Y-74715000D01*
X133203744Y-74715000D01*
X132770582Y-74801161D01*
X132279375Y-75129375D01*
X131951161Y-75620582D01*
X131835908Y-76200000D01*
X131520000Y-76200000D01*
X131520000Y-72390000D01*
X138236887Y-72390000D01*
X138348260Y-72949909D01*
X138665423Y-73424577D01*
X139049108Y-73680947D01*
X138844866Y-73777611D01*
X138468959Y-74192577D01*
X138308096Y-74580961D01*
X138430085Y-74803000D01*
X139573000Y-74803000D01*
X139573000Y-74783000D01*
X139827000Y-74783000D01*
X139827000Y-74803000D01*
X140969915Y-74803000D01*
X141091904Y-74580961D01*
X140931041Y-74192577D01*
X140555134Y-73777611D01*
X140350892Y-73680947D01*
X140734577Y-73424577D01*
X141051740Y-72949909D01*
X141163113Y-72390000D01*
X141051740Y-71830091D01*
X140734577Y-71355423D01*
X140259909Y-71038260D01*
X139841333Y-70955000D01*
X139558667Y-70955000D01*
X139140091Y-71038260D01*
X138665423Y-71355423D01*
X138348260Y-71830091D01*
X138236887Y-72390000D01*
X131520000Y-72390000D01*
X131520000Y-65480000D01*
X180900000Y-65480000D01*
X180900001Y-95810000D01*
G04 #@! TD*
M02*
