G04 #@! TF.GenerationSoftware,KiCad,Pcbnew,(5.0.1-3-g963ef8bb5)*
G04 #@! TF.CreationDate,2018-11-27T14:44:22+08:00*
G04 #@! TF.ProjectId,SevenSegmentDisplayBoard,536576656E5365676D656E7444697370,1.0*
G04 #@! TF.SameCoordinates,Original*
G04 #@! TF.FileFunction,Soldermask,Top*
G04 #@! TF.FilePolarity,Negative*
%FSLAX46Y46*%
G04 Gerber Fmt 4.6, Leading zero omitted, Abs format (unit mm)*
G04 Created by KiCad (PCBNEW (5.0.1-3-g963ef8bb5)) date 2018 November 27, Tuesday 14:44:22*
%MOMM*%
%LPD*%
G01*
G04 APERTURE LIST*
%ADD10C,0.100000*%
G04 APERTURE END LIST*
D10*
G36*
X162726821Y-93141313D02*
X162726824Y-93141314D01*
X162726825Y-93141314D01*
X162887239Y-93189975D01*
X162887241Y-93189976D01*
X162887244Y-93189977D01*
X163035078Y-93268995D01*
X163164659Y-93375341D01*
X163271005Y-93504922D01*
X163350023Y-93652756D01*
X163350024Y-93652759D01*
X163350025Y-93652761D01*
X163398686Y-93813175D01*
X163398687Y-93813179D01*
X163415117Y-93980000D01*
X163398687Y-94146821D01*
X163398686Y-94146824D01*
X163398686Y-94146825D01*
X163373993Y-94228228D01*
X163350023Y-94307244D01*
X163271005Y-94455078D01*
X163164659Y-94584659D01*
X163035078Y-94691005D01*
X162887244Y-94770023D01*
X162887241Y-94770024D01*
X162887239Y-94770025D01*
X162726825Y-94818686D01*
X162726824Y-94818686D01*
X162726821Y-94818687D01*
X162601804Y-94831000D01*
X162518196Y-94831000D01*
X162393179Y-94818687D01*
X162393176Y-94818686D01*
X162393175Y-94818686D01*
X162232761Y-94770025D01*
X162232759Y-94770024D01*
X162232756Y-94770023D01*
X162084922Y-94691005D01*
X161955341Y-94584659D01*
X161848995Y-94455078D01*
X161769977Y-94307244D01*
X161746008Y-94228228D01*
X161721314Y-94146825D01*
X161721314Y-94146824D01*
X161721313Y-94146821D01*
X161704883Y-93980000D01*
X161721313Y-93813179D01*
X161721314Y-93813175D01*
X161769975Y-93652761D01*
X161769976Y-93652759D01*
X161769977Y-93652756D01*
X161848995Y-93504922D01*
X161955341Y-93375341D01*
X162084922Y-93268995D01*
X162232756Y-93189977D01*
X162232759Y-93189976D01*
X162232761Y-93189975D01*
X162393175Y-93141314D01*
X162393176Y-93141314D01*
X162393179Y-93141313D01*
X162518196Y-93129000D01*
X162601804Y-93129000D01*
X162726821Y-93141313D01*
X162726821Y-93141313D01*
G37*
G36*
X152648228Y-93161703D02*
X152803100Y-93225853D01*
X152942481Y-93318985D01*
X153061015Y-93437519D01*
X153154147Y-93576900D01*
X153218297Y-93731772D01*
X153251000Y-93896184D01*
X153251000Y-94063816D01*
X153218297Y-94228228D01*
X153154147Y-94383100D01*
X153061015Y-94522481D01*
X152942481Y-94641015D01*
X152803100Y-94734147D01*
X152648228Y-94798297D01*
X152483816Y-94831000D01*
X152316184Y-94831000D01*
X152151772Y-94798297D01*
X151996900Y-94734147D01*
X151857519Y-94641015D01*
X151738985Y-94522481D01*
X151645853Y-94383100D01*
X151581703Y-94228228D01*
X151549000Y-94063816D01*
X151549000Y-93896184D01*
X151581703Y-93731772D01*
X151645853Y-93576900D01*
X151738985Y-93437519D01*
X151857519Y-93318985D01*
X151996900Y-93225853D01*
X152151772Y-93161703D01*
X152316184Y-93129000D01*
X152483816Y-93129000D01*
X152648228Y-93161703D01*
X152648228Y-93161703D01*
G37*
G36*
X162726821Y-89331313D02*
X162726824Y-89331314D01*
X162726825Y-89331314D01*
X162887239Y-89379975D01*
X162887241Y-89379976D01*
X162887244Y-89379977D01*
X163035078Y-89458995D01*
X163164659Y-89565341D01*
X163271005Y-89694922D01*
X163350023Y-89842756D01*
X163350024Y-89842759D01*
X163350025Y-89842761D01*
X163390946Y-89977659D01*
X163398687Y-90003179D01*
X163415117Y-90170000D01*
X163398687Y-90336821D01*
X163398686Y-90336824D01*
X163398686Y-90336825D01*
X163373993Y-90418228D01*
X163350023Y-90497244D01*
X163271005Y-90645078D01*
X163164659Y-90774659D01*
X163035078Y-90881005D01*
X162887244Y-90960023D01*
X162887241Y-90960024D01*
X162887239Y-90960025D01*
X162726825Y-91008686D01*
X162726824Y-91008686D01*
X162726821Y-91008687D01*
X162601804Y-91021000D01*
X162518196Y-91021000D01*
X162393179Y-91008687D01*
X162393176Y-91008686D01*
X162393175Y-91008686D01*
X162232761Y-90960025D01*
X162232759Y-90960024D01*
X162232756Y-90960023D01*
X162084922Y-90881005D01*
X161955341Y-90774659D01*
X161848995Y-90645078D01*
X161769977Y-90497244D01*
X161746008Y-90418228D01*
X161721314Y-90336825D01*
X161721314Y-90336824D01*
X161721313Y-90336821D01*
X161704883Y-90170000D01*
X161721313Y-90003179D01*
X161729054Y-89977659D01*
X161769975Y-89842761D01*
X161769976Y-89842759D01*
X161769977Y-89842756D01*
X161848995Y-89694922D01*
X161955341Y-89565341D01*
X162084922Y-89458995D01*
X162232756Y-89379977D01*
X162232759Y-89379976D01*
X162232761Y-89379975D01*
X162393175Y-89331314D01*
X162393176Y-89331314D01*
X162393179Y-89331313D01*
X162518196Y-89319000D01*
X162601804Y-89319000D01*
X162726821Y-89331313D01*
X162726821Y-89331313D01*
G37*
G36*
X152648228Y-89351703D02*
X152803100Y-89415853D01*
X152942481Y-89508985D01*
X153061015Y-89627519D01*
X153154147Y-89766900D01*
X153218297Y-89921772D01*
X153251000Y-90086184D01*
X153251000Y-90253816D01*
X153218297Y-90418228D01*
X153154147Y-90573100D01*
X153061015Y-90712481D01*
X152942481Y-90831015D01*
X152803100Y-90924147D01*
X152648228Y-90988297D01*
X152483816Y-91021000D01*
X152316184Y-91021000D01*
X152151772Y-90988297D01*
X151996900Y-90924147D01*
X151857519Y-90831015D01*
X151738985Y-90712481D01*
X151645853Y-90573100D01*
X151581703Y-90418228D01*
X151549000Y-90253816D01*
X151549000Y-90086184D01*
X151581703Y-89921772D01*
X151645853Y-89766900D01*
X151738985Y-89627519D01*
X151857519Y-89508985D01*
X151996900Y-89415853D01*
X152151772Y-89351703D01*
X152316184Y-89319000D01*
X152483816Y-89319000D01*
X152648228Y-89351703D01*
X152648228Y-89351703D01*
G37*
G36*
X148171000Y-91021000D02*
X146469000Y-91021000D01*
X146469000Y-89319000D01*
X148171000Y-89319000D01*
X148171000Y-91021000D01*
X148171000Y-91021000D01*
G37*
G36*
X139866821Y-89331313D02*
X139866824Y-89331314D01*
X139866825Y-89331314D01*
X140027239Y-89379975D01*
X140027241Y-89379976D01*
X140027244Y-89379977D01*
X140175078Y-89458995D01*
X140304659Y-89565341D01*
X140411005Y-89694922D01*
X140490023Y-89842756D01*
X140490024Y-89842759D01*
X140490025Y-89842761D01*
X140530946Y-89977659D01*
X140538687Y-90003179D01*
X140555117Y-90170000D01*
X140538687Y-90336821D01*
X140538686Y-90336824D01*
X140538686Y-90336825D01*
X140513993Y-90418228D01*
X140490023Y-90497244D01*
X140411005Y-90645078D01*
X140304659Y-90774659D01*
X140175078Y-90881005D01*
X140027244Y-90960023D01*
X140027241Y-90960024D01*
X140027239Y-90960025D01*
X139866825Y-91008686D01*
X139866824Y-91008686D01*
X139866821Y-91008687D01*
X139741804Y-91021000D01*
X139658196Y-91021000D01*
X139533179Y-91008687D01*
X139533176Y-91008686D01*
X139533175Y-91008686D01*
X139372761Y-90960025D01*
X139372759Y-90960024D01*
X139372756Y-90960023D01*
X139224922Y-90881005D01*
X139095341Y-90774659D01*
X138988995Y-90645078D01*
X138909977Y-90497244D01*
X138886008Y-90418228D01*
X138861314Y-90336825D01*
X138861314Y-90336824D01*
X138861313Y-90336821D01*
X138844883Y-90170000D01*
X138861313Y-90003179D01*
X138869054Y-89977659D01*
X138909975Y-89842761D01*
X138909976Y-89842759D01*
X138909977Y-89842756D01*
X138988995Y-89694922D01*
X139095341Y-89565341D01*
X139224922Y-89458995D01*
X139372756Y-89379977D01*
X139372759Y-89379976D01*
X139372761Y-89379975D01*
X139533175Y-89331314D01*
X139533176Y-89331314D01*
X139533179Y-89331313D01*
X139658196Y-89319000D01*
X139741804Y-89319000D01*
X139866821Y-89331313D01*
X139866821Y-89331313D01*
G37*
G36*
X171609375Y-87598764D02*
X171711542Y-87629756D01*
X171762627Y-87645252D01*
X171838120Y-87685605D01*
X171903863Y-87720745D01*
X171903865Y-87720746D01*
X171903864Y-87720746D01*
X172027659Y-87822341D01*
X172129255Y-87946135D01*
X172204748Y-88087372D01*
X172210119Y-88105078D01*
X172251236Y-88240624D01*
X172251236Y-88240626D01*
X172263000Y-88360066D01*
X172263000Y-89439934D01*
X172259079Y-89479747D01*
X172251236Y-89559376D01*
X172230565Y-89627519D01*
X172204748Y-89712628D01*
X172129255Y-89853865D01*
X172027659Y-89977659D01*
X171903865Y-90079255D01*
X171762628Y-90154748D01*
X171712348Y-90170000D01*
X171609376Y-90201236D01*
X171450000Y-90216933D01*
X171290625Y-90201236D01*
X171187653Y-90170000D01*
X171137373Y-90154748D01*
X170996136Y-90079255D01*
X170872342Y-89977659D01*
X170770746Y-89853865D01*
X170695253Y-89712628D01*
X170669436Y-89627519D01*
X170648765Y-89559376D01*
X170640922Y-89479747D01*
X170637001Y-89439934D01*
X170637000Y-88360067D01*
X170648764Y-88240627D01*
X170648764Y-88240625D01*
X170679756Y-88138458D01*
X170695252Y-88087373D01*
X170735605Y-88011880D01*
X170770745Y-87946137D01*
X170872341Y-87822341D01*
X170903437Y-87796821D01*
X170996135Y-87720745D01*
X171137372Y-87645252D01*
X171188457Y-87629756D01*
X171290624Y-87598764D01*
X171450000Y-87583067D01*
X171609375Y-87598764D01*
X171609375Y-87598764D01*
G37*
G36*
X174149375Y-87598764D02*
X174251542Y-87629756D01*
X174302627Y-87645252D01*
X174378120Y-87685605D01*
X174443863Y-87720745D01*
X174443865Y-87720746D01*
X174443864Y-87720746D01*
X174567659Y-87822341D01*
X174669255Y-87946135D01*
X174744748Y-88087372D01*
X174750119Y-88105078D01*
X174791236Y-88240624D01*
X174791236Y-88240626D01*
X174803000Y-88360066D01*
X174803000Y-89439934D01*
X174799079Y-89479747D01*
X174791236Y-89559376D01*
X174770565Y-89627519D01*
X174744748Y-89712628D01*
X174669255Y-89853865D01*
X174567659Y-89977659D01*
X174443865Y-90079255D01*
X174302628Y-90154748D01*
X174252348Y-90170000D01*
X174149376Y-90201236D01*
X173990000Y-90216933D01*
X173830625Y-90201236D01*
X173727653Y-90170000D01*
X173677373Y-90154748D01*
X173536136Y-90079255D01*
X173412342Y-89977659D01*
X173310746Y-89853865D01*
X173235253Y-89712628D01*
X173209436Y-89627519D01*
X173188765Y-89559376D01*
X173180922Y-89479747D01*
X173177001Y-89439934D01*
X173177000Y-88360067D01*
X173188764Y-88240627D01*
X173188764Y-88240625D01*
X173219756Y-88138458D01*
X173235252Y-88087373D01*
X173275605Y-88011880D01*
X173310745Y-87946137D01*
X173412341Y-87822341D01*
X173443437Y-87796821D01*
X173536135Y-87720745D01*
X173677372Y-87645252D01*
X173728457Y-87629756D01*
X173830624Y-87598764D01*
X173990000Y-87583067D01*
X174149375Y-87598764D01*
X174149375Y-87598764D01*
G37*
G36*
X176689375Y-87598764D02*
X176791542Y-87629756D01*
X176842627Y-87645252D01*
X176918120Y-87685605D01*
X176983863Y-87720745D01*
X176983865Y-87720746D01*
X176983864Y-87720746D01*
X177107659Y-87822341D01*
X177209255Y-87946135D01*
X177284748Y-88087372D01*
X177290119Y-88105078D01*
X177331236Y-88240624D01*
X177331236Y-88240626D01*
X177343000Y-88360066D01*
X177343000Y-89439934D01*
X177339079Y-89479747D01*
X177331236Y-89559376D01*
X177310565Y-89627519D01*
X177284748Y-89712628D01*
X177209255Y-89853865D01*
X177107659Y-89977659D01*
X176983865Y-90079255D01*
X176842628Y-90154748D01*
X176792348Y-90170000D01*
X176689376Y-90201236D01*
X176530000Y-90216933D01*
X176370625Y-90201236D01*
X176267653Y-90170000D01*
X176217373Y-90154748D01*
X176076136Y-90079255D01*
X175952342Y-89977659D01*
X175850746Y-89853865D01*
X175775253Y-89712628D01*
X175749436Y-89627519D01*
X175728765Y-89559376D01*
X175720922Y-89479747D01*
X175717001Y-89439934D01*
X175717000Y-88360067D01*
X175728764Y-88240627D01*
X175728764Y-88240625D01*
X175759756Y-88138458D01*
X175775252Y-88087373D01*
X175815605Y-88011880D01*
X175850745Y-87946137D01*
X175952341Y-87822341D01*
X175983437Y-87796821D01*
X176076135Y-87720745D01*
X176217372Y-87645252D01*
X176268457Y-87629756D01*
X176370624Y-87598764D01*
X176530000Y-87583067D01*
X176689375Y-87598764D01*
X176689375Y-87598764D01*
G37*
G36*
X179229375Y-87598764D02*
X179331542Y-87629756D01*
X179382627Y-87645252D01*
X179458120Y-87685605D01*
X179523863Y-87720745D01*
X179523865Y-87720746D01*
X179523864Y-87720746D01*
X179647659Y-87822341D01*
X179749255Y-87946135D01*
X179824748Y-88087372D01*
X179830119Y-88105078D01*
X179871236Y-88240624D01*
X179871236Y-88240626D01*
X179883000Y-88360066D01*
X179883000Y-89439934D01*
X179879079Y-89479747D01*
X179871236Y-89559376D01*
X179850565Y-89627519D01*
X179824748Y-89712628D01*
X179749255Y-89853865D01*
X179647659Y-89977659D01*
X179523865Y-90079255D01*
X179382628Y-90154748D01*
X179332348Y-90170000D01*
X179229376Y-90201236D01*
X179070000Y-90216933D01*
X178910625Y-90201236D01*
X178807653Y-90170000D01*
X178757373Y-90154748D01*
X178616136Y-90079255D01*
X178492342Y-89977659D01*
X178390746Y-89853865D01*
X178315253Y-89712628D01*
X178289436Y-89627519D01*
X178268765Y-89559376D01*
X178260922Y-89479747D01*
X178257001Y-89439934D01*
X178257000Y-88360067D01*
X178268764Y-88240627D01*
X178268764Y-88240625D01*
X178299756Y-88138458D01*
X178315252Y-88087373D01*
X178355605Y-88011880D01*
X178390745Y-87946137D01*
X178492341Y-87822341D01*
X178523437Y-87796821D01*
X178616135Y-87720745D01*
X178757372Y-87645252D01*
X178808457Y-87629756D01*
X178910624Y-87598764D01*
X179070000Y-87583067D01*
X179229375Y-87598764D01*
X179229375Y-87598764D01*
G37*
G36*
X169723000Y-90213000D02*
X168097000Y-90213000D01*
X168097000Y-87587000D01*
X169723000Y-87587000D01*
X169723000Y-90213000D01*
X169723000Y-90213000D01*
G37*
G36*
X147486821Y-86791313D02*
X147486824Y-86791314D01*
X147486825Y-86791314D01*
X147647239Y-86839975D01*
X147647241Y-86839976D01*
X147647244Y-86839977D01*
X147795078Y-86918995D01*
X147924659Y-87025341D01*
X148031005Y-87154922D01*
X148110023Y-87302756D01*
X148158687Y-87463179D01*
X148175117Y-87630000D01*
X148158687Y-87796821D01*
X148158686Y-87796824D01*
X148158686Y-87796825D01*
X148113393Y-87946137D01*
X148110023Y-87957244D01*
X148031005Y-88105078D01*
X147924659Y-88234659D01*
X147795078Y-88341005D01*
X147647244Y-88420023D01*
X147647241Y-88420024D01*
X147647239Y-88420025D01*
X147486825Y-88468686D01*
X147486824Y-88468686D01*
X147486821Y-88468687D01*
X147361804Y-88481000D01*
X147278196Y-88481000D01*
X147153179Y-88468687D01*
X147153176Y-88468686D01*
X147153175Y-88468686D01*
X146992761Y-88420025D01*
X146992759Y-88420024D01*
X146992756Y-88420023D01*
X146844922Y-88341005D01*
X146715341Y-88234659D01*
X146608995Y-88105078D01*
X146529977Y-87957244D01*
X146526608Y-87946137D01*
X146481314Y-87796825D01*
X146481314Y-87796824D01*
X146481313Y-87796821D01*
X146464883Y-87630000D01*
X146481313Y-87463179D01*
X146529977Y-87302756D01*
X146608995Y-87154922D01*
X146715341Y-87025341D01*
X146844922Y-86918995D01*
X146992756Y-86839977D01*
X146992759Y-86839976D01*
X146992761Y-86839975D01*
X147153175Y-86791314D01*
X147153176Y-86791314D01*
X147153179Y-86791313D01*
X147278196Y-86779000D01*
X147361804Y-86779000D01*
X147486821Y-86791313D01*
X147486821Y-86791313D01*
G37*
G36*
X139866821Y-86791313D02*
X139866824Y-86791314D01*
X139866825Y-86791314D01*
X140027239Y-86839975D01*
X140027241Y-86839976D01*
X140027244Y-86839977D01*
X140175078Y-86918995D01*
X140304659Y-87025341D01*
X140411005Y-87154922D01*
X140490023Y-87302756D01*
X140538687Y-87463179D01*
X140555117Y-87630000D01*
X140538687Y-87796821D01*
X140538686Y-87796824D01*
X140538686Y-87796825D01*
X140493393Y-87946137D01*
X140490023Y-87957244D01*
X140411005Y-88105078D01*
X140304659Y-88234659D01*
X140175078Y-88341005D01*
X140027244Y-88420023D01*
X140027241Y-88420024D01*
X140027239Y-88420025D01*
X139866825Y-88468686D01*
X139866824Y-88468686D01*
X139866821Y-88468687D01*
X139741804Y-88481000D01*
X139658196Y-88481000D01*
X139533179Y-88468687D01*
X139533176Y-88468686D01*
X139533175Y-88468686D01*
X139372761Y-88420025D01*
X139372759Y-88420024D01*
X139372756Y-88420023D01*
X139224922Y-88341005D01*
X139095341Y-88234659D01*
X138988995Y-88105078D01*
X138909977Y-87957244D01*
X138906608Y-87946137D01*
X138861314Y-87796825D01*
X138861314Y-87796824D01*
X138861313Y-87796821D01*
X138844883Y-87630000D01*
X138861313Y-87463179D01*
X138909977Y-87302756D01*
X138988995Y-87154922D01*
X139095341Y-87025341D01*
X139224922Y-86918995D01*
X139372756Y-86839977D01*
X139372759Y-86839976D01*
X139372761Y-86839975D01*
X139533175Y-86791314D01*
X139533176Y-86791314D01*
X139533179Y-86791313D01*
X139658196Y-86779000D01*
X139741804Y-86779000D01*
X139866821Y-86791313D01*
X139866821Y-86791313D01*
G37*
G36*
X134251000Y-87261000D02*
X132449000Y-87261000D01*
X132449000Y-85459000D01*
X134251000Y-85459000D01*
X134251000Y-87261000D01*
X134251000Y-87261000D01*
G37*
G36*
X162726821Y-85521313D02*
X162726824Y-85521314D01*
X162726825Y-85521314D01*
X162887239Y-85569975D01*
X162887241Y-85569976D01*
X162887244Y-85569977D01*
X163035078Y-85648995D01*
X163164659Y-85755341D01*
X163271005Y-85884922D01*
X163350023Y-86032756D01*
X163350024Y-86032759D01*
X163350025Y-86032761D01*
X163398686Y-86193175D01*
X163398687Y-86193179D01*
X163415117Y-86360000D01*
X163398687Y-86526821D01*
X163398686Y-86526824D01*
X163398686Y-86526825D01*
X163373993Y-86608228D01*
X163350023Y-86687244D01*
X163271005Y-86835078D01*
X163164659Y-86964659D01*
X163035078Y-87071005D01*
X162887244Y-87150023D01*
X162887241Y-87150024D01*
X162887239Y-87150025D01*
X162726825Y-87198686D01*
X162726824Y-87198686D01*
X162726821Y-87198687D01*
X162601804Y-87211000D01*
X162518196Y-87211000D01*
X162393179Y-87198687D01*
X162393176Y-87198686D01*
X162393175Y-87198686D01*
X162232761Y-87150025D01*
X162232759Y-87150024D01*
X162232756Y-87150023D01*
X162084922Y-87071005D01*
X161955341Y-86964659D01*
X161848995Y-86835078D01*
X161769977Y-86687244D01*
X161746008Y-86608228D01*
X161721314Y-86526825D01*
X161721314Y-86526824D01*
X161721313Y-86526821D01*
X161704883Y-86360000D01*
X161721313Y-86193179D01*
X161721314Y-86193175D01*
X161769975Y-86032761D01*
X161769976Y-86032759D01*
X161769977Y-86032756D01*
X161848995Y-85884922D01*
X161955341Y-85755341D01*
X162084922Y-85648995D01*
X162232756Y-85569977D01*
X162232759Y-85569976D01*
X162232761Y-85569975D01*
X162393175Y-85521314D01*
X162393176Y-85521314D01*
X162393179Y-85521313D01*
X162518196Y-85509000D01*
X162601804Y-85509000D01*
X162726821Y-85521313D01*
X162726821Y-85521313D01*
G37*
G36*
X152648228Y-85541703D02*
X152803100Y-85605853D01*
X152942481Y-85698985D01*
X153061015Y-85817519D01*
X153154147Y-85956900D01*
X153218297Y-86111772D01*
X153251000Y-86276184D01*
X153251000Y-86443816D01*
X153218297Y-86608228D01*
X153154147Y-86763100D01*
X153061015Y-86902481D01*
X152942481Y-87021015D01*
X152803100Y-87114147D01*
X152648228Y-87178297D01*
X152483816Y-87211000D01*
X152316184Y-87211000D01*
X152151772Y-87178297D01*
X151996900Y-87114147D01*
X151857519Y-87021015D01*
X151738985Y-86902481D01*
X151645853Y-86763100D01*
X151581703Y-86608228D01*
X151549000Y-86443816D01*
X151549000Y-86276184D01*
X151581703Y-86111772D01*
X151645853Y-85956900D01*
X151738985Y-85817519D01*
X151857519Y-85698985D01*
X151996900Y-85605853D01*
X152151772Y-85541703D01*
X152316184Y-85509000D01*
X152483816Y-85509000D01*
X152648228Y-85541703D01*
X152648228Y-85541703D01*
G37*
G36*
X139866821Y-84251313D02*
X139866824Y-84251314D01*
X139866825Y-84251314D01*
X140027239Y-84299975D01*
X140027241Y-84299976D01*
X140027244Y-84299977D01*
X140175078Y-84378995D01*
X140304659Y-84485341D01*
X140411005Y-84614922D01*
X140490023Y-84762756D01*
X140538687Y-84923179D01*
X140555117Y-85090000D01*
X140538687Y-85256821D01*
X140490023Y-85417244D01*
X140411005Y-85565078D01*
X140304659Y-85694659D01*
X140175078Y-85801005D01*
X140027244Y-85880023D01*
X140027241Y-85880024D01*
X140027239Y-85880025D01*
X139866825Y-85928686D01*
X139866824Y-85928686D01*
X139866821Y-85928687D01*
X139741804Y-85941000D01*
X139658196Y-85941000D01*
X139533179Y-85928687D01*
X139533176Y-85928686D01*
X139533175Y-85928686D01*
X139372761Y-85880025D01*
X139372759Y-85880024D01*
X139372756Y-85880023D01*
X139224922Y-85801005D01*
X139095341Y-85694659D01*
X138988995Y-85565078D01*
X138909977Y-85417244D01*
X138861313Y-85256821D01*
X138844883Y-85090000D01*
X138861313Y-84923179D01*
X138909977Y-84762756D01*
X138988995Y-84614922D01*
X139095341Y-84485341D01*
X139224922Y-84378995D01*
X139372756Y-84299977D01*
X139372759Y-84299976D01*
X139372761Y-84299975D01*
X139533175Y-84251314D01*
X139533176Y-84251314D01*
X139533179Y-84251313D01*
X139658196Y-84239000D01*
X139741804Y-84239000D01*
X139866821Y-84251313D01*
X139866821Y-84251313D01*
G37*
G36*
X147486821Y-84251313D02*
X147486824Y-84251314D01*
X147486825Y-84251314D01*
X147647239Y-84299975D01*
X147647241Y-84299976D01*
X147647244Y-84299977D01*
X147795078Y-84378995D01*
X147924659Y-84485341D01*
X148031005Y-84614922D01*
X148110023Y-84762756D01*
X148158687Y-84923179D01*
X148175117Y-85090000D01*
X148158687Y-85256821D01*
X148110023Y-85417244D01*
X148031005Y-85565078D01*
X147924659Y-85694659D01*
X147795078Y-85801005D01*
X147647244Y-85880023D01*
X147647241Y-85880024D01*
X147647239Y-85880025D01*
X147486825Y-85928686D01*
X147486824Y-85928686D01*
X147486821Y-85928687D01*
X147361804Y-85941000D01*
X147278196Y-85941000D01*
X147153179Y-85928687D01*
X147153176Y-85928686D01*
X147153175Y-85928686D01*
X146992761Y-85880025D01*
X146992759Y-85880024D01*
X146992756Y-85880023D01*
X146844922Y-85801005D01*
X146715341Y-85694659D01*
X146608995Y-85565078D01*
X146529977Y-85417244D01*
X146481313Y-85256821D01*
X146464883Y-85090000D01*
X146481313Y-84923179D01*
X146529977Y-84762756D01*
X146608995Y-84614922D01*
X146715341Y-84485341D01*
X146844922Y-84378995D01*
X146992756Y-84299977D01*
X146992759Y-84299976D01*
X146992761Y-84299975D01*
X147153175Y-84251314D01*
X147153176Y-84251314D01*
X147153179Y-84251313D01*
X147278196Y-84239000D01*
X147361804Y-84239000D01*
X147486821Y-84251313D01*
X147486821Y-84251313D01*
G37*
G36*
X133460443Y-82925519D02*
X133526627Y-82932037D01*
X133639853Y-82966384D01*
X133696467Y-82983557D01*
X133774146Y-83025078D01*
X133852991Y-83067222D01*
X133883769Y-83092481D01*
X133990186Y-83179814D01*
X134073448Y-83281271D01*
X134102778Y-83317009D01*
X134102779Y-83317011D01*
X134186443Y-83473533D01*
X134186443Y-83473534D01*
X134237963Y-83643373D01*
X134255359Y-83820000D01*
X134237963Y-83996627D01*
X134203616Y-84109853D01*
X134186443Y-84166467D01*
X134115080Y-84299975D01*
X134102778Y-84322991D01*
X134073448Y-84358729D01*
X133990186Y-84460186D01*
X133888729Y-84543448D01*
X133852991Y-84572778D01*
X133852989Y-84572779D01*
X133696467Y-84656443D01*
X133639853Y-84673616D01*
X133526627Y-84707963D01*
X133460443Y-84714481D01*
X133394260Y-84721000D01*
X133305740Y-84721000D01*
X133239557Y-84714481D01*
X133173373Y-84707963D01*
X133060147Y-84673616D01*
X133003533Y-84656443D01*
X132847011Y-84572779D01*
X132847009Y-84572778D01*
X132811271Y-84543448D01*
X132709814Y-84460186D01*
X132626552Y-84358729D01*
X132597222Y-84322991D01*
X132584920Y-84299975D01*
X132513557Y-84166467D01*
X132496384Y-84109853D01*
X132462037Y-83996627D01*
X132444641Y-83820000D01*
X132462037Y-83643373D01*
X132513557Y-83473534D01*
X132513557Y-83473533D01*
X132597221Y-83317011D01*
X132597222Y-83317009D01*
X132626552Y-83281271D01*
X132709814Y-83179814D01*
X132816231Y-83092481D01*
X132847009Y-83067222D01*
X132925854Y-83025078D01*
X133003533Y-82983557D01*
X133060147Y-82966384D01*
X133173373Y-82932037D01*
X133239557Y-82925519D01*
X133305740Y-82919000D01*
X133394260Y-82919000D01*
X133460443Y-82925519D01*
X133460443Y-82925519D01*
G37*
G36*
X147486821Y-81711313D02*
X147486824Y-81711314D01*
X147486825Y-81711314D01*
X147647239Y-81759975D01*
X147647241Y-81759976D01*
X147647244Y-81759977D01*
X147795078Y-81838995D01*
X147924659Y-81945341D01*
X148031005Y-82074922D01*
X148110023Y-82222756D01*
X148110024Y-82222759D01*
X148110025Y-82222761D01*
X148158686Y-82383175D01*
X148158687Y-82383179D01*
X148175117Y-82550000D01*
X148158687Y-82716821D01*
X148158686Y-82716824D01*
X148158686Y-82716825D01*
X148133993Y-82798228D01*
X148110023Y-82877244D01*
X148031005Y-83025078D01*
X147924659Y-83154659D01*
X147795078Y-83261005D01*
X147647244Y-83340023D01*
X147647241Y-83340024D01*
X147647239Y-83340025D01*
X147486825Y-83388686D01*
X147486824Y-83388686D01*
X147486821Y-83388687D01*
X147361804Y-83401000D01*
X147278196Y-83401000D01*
X147153179Y-83388687D01*
X147153176Y-83388686D01*
X147153175Y-83388686D01*
X146992761Y-83340025D01*
X146992759Y-83340024D01*
X146992756Y-83340023D01*
X146844922Y-83261005D01*
X146715341Y-83154659D01*
X146608995Y-83025078D01*
X146529977Y-82877244D01*
X146506008Y-82798228D01*
X146481314Y-82716825D01*
X146481314Y-82716824D01*
X146481313Y-82716821D01*
X146464883Y-82550000D01*
X146481313Y-82383179D01*
X146481314Y-82383175D01*
X146529975Y-82222761D01*
X146529976Y-82222759D01*
X146529977Y-82222756D01*
X146608995Y-82074922D01*
X146715341Y-81945341D01*
X146844922Y-81838995D01*
X146992756Y-81759977D01*
X146992759Y-81759976D01*
X146992761Y-81759975D01*
X147153175Y-81711314D01*
X147153176Y-81711314D01*
X147153179Y-81711313D01*
X147278196Y-81699000D01*
X147361804Y-81699000D01*
X147486821Y-81711313D01*
X147486821Y-81711313D01*
G37*
G36*
X139866821Y-81711313D02*
X139866824Y-81711314D01*
X139866825Y-81711314D01*
X140027239Y-81759975D01*
X140027241Y-81759976D01*
X140027244Y-81759977D01*
X140175078Y-81838995D01*
X140304659Y-81945341D01*
X140411005Y-82074922D01*
X140490023Y-82222756D01*
X140490024Y-82222759D01*
X140490025Y-82222761D01*
X140538686Y-82383175D01*
X140538687Y-82383179D01*
X140555117Y-82550000D01*
X140538687Y-82716821D01*
X140538686Y-82716824D01*
X140538686Y-82716825D01*
X140513993Y-82798228D01*
X140490023Y-82877244D01*
X140411005Y-83025078D01*
X140304659Y-83154659D01*
X140175078Y-83261005D01*
X140027244Y-83340023D01*
X140027241Y-83340024D01*
X140027239Y-83340025D01*
X139866825Y-83388686D01*
X139866824Y-83388686D01*
X139866821Y-83388687D01*
X139741804Y-83401000D01*
X139658196Y-83401000D01*
X139533179Y-83388687D01*
X139533176Y-83388686D01*
X139533175Y-83388686D01*
X139372761Y-83340025D01*
X139372759Y-83340024D01*
X139372756Y-83340023D01*
X139224922Y-83261005D01*
X139095341Y-83154659D01*
X138988995Y-83025078D01*
X138909977Y-82877244D01*
X138886008Y-82798228D01*
X138861314Y-82716825D01*
X138861314Y-82716824D01*
X138861313Y-82716821D01*
X138844883Y-82550000D01*
X138861313Y-82383179D01*
X138861314Y-82383175D01*
X138909975Y-82222761D01*
X138909976Y-82222759D01*
X138909977Y-82222756D01*
X138988995Y-82074922D01*
X139095341Y-81945341D01*
X139224922Y-81838995D01*
X139372756Y-81759977D01*
X139372759Y-81759976D01*
X139372761Y-81759975D01*
X139533175Y-81711314D01*
X139533176Y-81711314D01*
X139533179Y-81711313D01*
X139658196Y-81699000D01*
X139741804Y-81699000D01*
X139866821Y-81711313D01*
X139866821Y-81711313D01*
G37*
G36*
X152648228Y-81731703D02*
X152803100Y-81795853D01*
X152942481Y-81888985D01*
X153061015Y-82007519D01*
X153154147Y-82146900D01*
X153218297Y-82301772D01*
X153251000Y-82466184D01*
X153251000Y-82633816D01*
X153218297Y-82798228D01*
X153154147Y-82953100D01*
X153061015Y-83092481D01*
X152942481Y-83211015D01*
X152803100Y-83304147D01*
X152648228Y-83368297D01*
X152483816Y-83401000D01*
X152316184Y-83401000D01*
X152151772Y-83368297D01*
X151996900Y-83304147D01*
X151857519Y-83211015D01*
X151738985Y-83092481D01*
X151645853Y-82953100D01*
X151581703Y-82798228D01*
X151549000Y-82633816D01*
X151549000Y-82466184D01*
X151581703Y-82301772D01*
X151645853Y-82146900D01*
X151738985Y-82007519D01*
X151857519Y-81888985D01*
X151996900Y-81795853D01*
X152151772Y-81731703D01*
X152316184Y-81699000D01*
X152483816Y-81699000D01*
X152648228Y-81731703D01*
X152648228Y-81731703D01*
G37*
G36*
X162726821Y-81711313D02*
X162726824Y-81711314D01*
X162726825Y-81711314D01*
X162887239Y-81759975D01*
X162887241Y-81759976D01*
X162887244Y-81759977D01*
X163035078Y-81838995D01*
X163164659Y-81945341D01*
X163271005Y-82074922D01*
X163350023Y-82222756D01*
X163350024Y-82222759D01*
X163350025Y-82222761D01*
X163398686Y-82383175D01*
X163398687Y-82383179D01*
X163415117Y-82550000D01*
X163398687Y-82716821D01*
X163398686Y-82716824D01*
X163398686Y-82716825D01*
X163373993Y-82798228D01*
X163350023Y-82877244D01*
X163271005Y-83025078D01*
X163164659Y-83154659D01*
X163035078Y-83261005D01*
X162887244Y-83340023D01*
X162887241Y-83340024D01*
X162887239Y-83340025D01*
X162726825Y-83388686D01*
X162726824Y-83388686D01*
X162726821Y-83388687D01*
X162601804Y-83401000D01*
X162518196Y-83401000D01*
X162393179Y-83388687D01*
X162393176Y-83388686D01*
X162393175Y-83388686D01*
X162232761Y-83340025D01*
X162232759Y-83340024D01*
X162232756Y-83340023D01*
X162084922Y-83261005D01*
X161955341Y-83154659D01*
X161848995Y-83025078D01*
X161769977Y-82877244D01*
X161746008Y-82798228D01*
X161721314Y-82716825D01*
X161721314Y-82716824D01*
X161721313Y-82716821D01*
X161704883Y-82550000D01*
X161721313Y-82383179D01*
X161721314Y-82383175D01*
X161769975Y-82222761D01*
X161769976Y-82222759D01*
X161769977Y-82222756D01*
X161848995Y-82074922D01*
X161955341Y-81945341D01*
X162084922Y-81838995D01*
X162232756Y-81759977D01*
X162232759Y-81759976D01*
X162232761Y-81759975D01*
X162393175Y-81711314D01*
X162393176Y-81711314D01*
X162393179Y-81711313D01*
X162518196Y-81699000D01*
X162601804Y-81699000D01*
X162726821Y-81711313D01*
X162726821Y-81711313D01*
G37*
G36*
X133460442Y-80385518D02*
X133526627Y-80392037D01*
X133639853Y-80426384D01*
X133696467Y-80443557D01*
X133774146Y-80485078D01*
X133852991Y-80527222D01*
X133888729Y-80556552D01*
X133990186Y-80639814D01*
X134073448Y-80741271D01*
X134102778Y-80777009D01*
X134102779Y-80777011D01*
X134186443Y-80933533D01*
X134186443Y-80933534D01*
X134237963Y-81103373D01*
X134255359Y-81280000D01*
X134237963Y-81456627D01*
X134203616Y-81569853D01*
X134186443Y-81626467D01*
X134130192Y-81731703D01*
X134102778Y-81782991D01*
X134073448Y-81818729D01*
X133990186Y-81920186D01*
X133888729Y-82003448D01*
X133852991Y-82032778D01*
X133852989Y-82032779D01*
X133696467Y-82116443D01*
X133639853Y-82133616D01*
X133526627Y-82167963D01*
X133460443Y-82174481D01*
X133394260Y-82181000D01*
X133305740Y-82181000D01*
X133239557Y-82174481D01*
X133173373Y-82167963D01*
X133060147Y-82133616D01*
X133003533Y-82116443D01*
X132847011Y-82032779D01*
X132847009Y-82032778D01*
X132811271Y-82003448D01*
X132709814Y-81920186D01*
X132626552Y-81818729D01*
X132597222Y-81782991D01*
X132569808Y-81731703D01*
X132513557Y-81626467D01*
X132496384Y-81569853D01*
X132462037Y-81456627D01*
X132444641Y-81280000D01*
X132462037Y-81103373D01*
X132513557Y-80933534D01*
X132513557Y-80933533D01*
X132597221Y-80777011D01*
X132597222Y-80777009D01*
X132626552Y-80741271D01*
X132709814Y-80639814D01*
X132811271Y-80556552D01*
X132847009Y-80527222D01*
X132925854Y-80485078D01*
X133003533Y-80443557D01*
X133060147Y-80426384D01*
X133173373Y-80392037D01*
X133239558Y-80385518D01*
X133305740Y-80379000D01*
X133394260Y-80379000D01*
X133460442Y-80385518D01*
X133460442Y-80385518D01*
G37*
G36*
X147486821Y-79171313D02*
X147486824Y-79171314D01*
X147486825Y-79171314D01*
X147647239Y-79219975D01*
X147647241Y-79219976D01*
X147647244Y-79219977D01*
X147795078Y-79298995D01*
X147924659Y-79405341D01*
X148031005Y-79534922D01*
X148110023Y-79682756D01*
X148158687Y-79843179D01*
X148175117Y-80010000D01*
X148158687Y-80176821D01*
X148110023Y-80337244D01*
X148031005Y-80485078D01*
X147924659Y-80614659D01*
X147795078Y-80721005D01*
X147647244Y-80800023D01*
X147647241Y-80800024D01*
X147647239Y-80800025D01*
X147486825Y-80848686D01*
X147486824Y-80848686D01*
X147486821Y-80848687D01*
X147361804Y-80861000D01*
X147278196Y-80861000D01*
X147153179Y-80848687D01*
X147153176Y-80848686D01*
X147153175Y-80848686D01*
X146992761Y-80800025D01*
X146992759Y-80800024D01*
X146992756Y-80800023D01*
X146844922Y-80721005D01*
X146715341Y-80614659D01*
X146608995Y-80485078D01*
X146529977Y-80337244D01*
X146481313Y-80176821D01*
X146464883Y-80010000D01*
X146481313Y-79843179D01*
X146529977Y-79682756D01*
X146608995Y-79534922D01*
X146715341Y-79405341D01*
X146844922Y-79298995D01*
X146992756Y-79219977D01*
X146992759Y-79219976D01*
X146992761Y-79219975D01*
X147153175Y-79171314D01*
X147153176Y-79171314D01*
X147153179Y-79171313D01*
X147278196Y-79159000D01*
X147361804Y-79159000D01*
X147486821Y-79171313D01*
X147486821Y-79171313D01*
G37*
G36*
X139866821Y-79171313D02*
X139866824Y-79171314D01*
X139866825Y-79171314D01*
X140027239Y-79219975D01*
X140027241Y-79219976D01*
X140027244Y-79219977D01*
X140175078Y-79298995D01*
X140304659Y-79405341D01*
X140411005Y-79534922D01*
X140490023Y-79682756D01*
X140538687Y-79843179D01*
X140555117Y-80010000D01*
X140538687Y-80176821D01*
X140490023Y-80337244D01*
X140411005Y-80485078D01*
X140304659Y-80614659D01*
X140175078Y-80721005D01*
X140027244Y-80800023D01*
X140027241Y-80800024D01*
X140027239Y-80800025D01*
X139866825Y-80848686D01*
X139866824Y-80848686D01*
X139866821Y-80848687D01*
X139741804Y-80861000D01*
X139658196Y-80861000D01*
X139533179Y-80848687D01*
X139533176Y-80848686D01*
X139533175Y-80848686D01*
X139372761Y-80800025D01*
X139372759Y-80800024D01*
X139372756Y-80800023D01*
X139224922Y-80721005D01*
X139095341Y-80614659D01*
X138988995Y-80485078D01*
X138909977Y-80337244D01*
X138861313Y-80176821D01*
X138844883Y-80010000D01*
X138861313Y-79843179D01*
X138909977Y-79682756D01*
X138988995Y-79534922D01*
X139095341Y-79405341D01*
X139224922Y-79298995D01*
X139372756Y-79219977D01*
X139372759Y-79219976D01*
X139372761Y-79219975D01*
X139533175Y-79171314D01*
X139533176Y-79171314D01*
X139533179Y-79171313D01*
X139658196Y-79159000D01*
X139741804Y-79159000D01*
X139866821Y-79171313D01*
X139866821Y-79171313D01*
G37*
G36*
X133460443Y-77845519D02*
X133526627Y-77852037D01*
X133639853Y-77886384D01*
X133696467Y-77903557D01*
X133783311Y-77949977D01*
X133852991Y-77987222D01*
X133888729Y-78016552D01*
X133990186Y-78099814D01*
X134070369Y-78197519D01*
X134102778Y-78237009D01*
X134102779Y-78237011D01*
X134186443Y-78393533D01*
X134203616Y-78450147D01*
X134237963Y-78563373D01*
X134255359Y-78740000D01*
X134237963Y-78916627D01*
X134216243Y-78988228D01*
X134186443Y-79086467D01*
X134117698Y-79215078D01*
X134102778Y-79242991D01*
X134073448Y-79278729D01*
X133990186Y-79380186D01*
X133888729Y-79463448D01*
X133852991Y-79492778D01*
X133852989Y-79492779D01*
X133696467Y-79576443D01*
X133689069Y-79578687D01*
X133526627Y-79627963D01*
X133460442Y-79634482D01*
X133394260Y-79641000D01*
X133305740Y-79641000D01*
X133239558Y-79634482D01*
X133173373Y-79627963D01*
X133010931Y-79578687D01*
X133003533Y-79576443D01*
X132847011Y-79492779D01*
X132847009Y-79492778D01*
X132811271Y-79463448D01*
X132709814Y-79380186D01*
X132626552Y-79278729D01*
X132597222Y-79242991D01*
X132582302Y-79215078D01*
X132513557Y-79086467D01*
X132483757Y-78988228D01*
X132462037Y-78916627D01*
X132444641Y-78740000D01*
X132462037Y-78563373D01*
X132496384Y-78450147D01*
X132513557Y-78393533D01*
X132597221Y-78237011D01*
X132597222Y-78237009D01*
X132629631Y-78197519D01*
X132709814Y-78099814D01*
X132811271Y-78016552D01*
X132847009Y-77987222D01*
X132916689Y-77949977D01*
X133003533Y-77903557D01*
X133060147Y-77886384D01*
X133173373Y-77852037D01*
X133239557Y-77845519D01*
X133305740Y-77839000D01*
X133394260Y-77839000D01*
X133460443Y-77845519D01*
X133460443Y-77845519D01*
G37*
G36*
X162726821Y-77901313D02*
X162726824Y-77901314D01*
X162726825Y-77901314D01*
X162887239Y-77949975D01*
X162887241Y-77949976D01*
X162887244Y-77949977D01*
X163035078Y-78028995D01*
X163164659Y-78135341D01*
X163271005Y-78264922D01*
X163350023Y-78412756D01*
X163350024Y-78412759D01*
X163350025Y-78412761D01*
X163395713Y-78563375D01*
X163398687Y-78573179D01*
X163415117Y-78740000D01*
X163398687Y-78906821D01*
X163398686Y-78906824D01*
X163398686Y-78906825D01*
X163373993Y-78988228D01*
X163350023Y-79067244D01*
X163271005Y-79215078D01*
X163164659Y-79344659D01*
X163035078Y-79451005D01*
X162887244Y-79530023D01*
X162887241Y-79530024D01*
X162887239Y-79530025D01*
X162726825Y-79578686D01*
X162726824Y-79578686D01*
X162726821Y-79578687D01*
X162601804Y-79591000D01*
X162518196Y-79591000D01*
X162393179Y-79578687D01*
X162393176Y-79578686D01*
X162393175Y-79578686D01*
X162232761Y-79530025D01*
X162232759Y-79530024D01*
X162232756Y-79530023D01*
X162084922Y-79451005D01*
X161955341Y-79344659D01*
X161848995Y-79215078D01*
X161769977Y-79067244D01*
X161746008Y-78988228D01*
X161721314Y-78906825D01*
X161721314Y-78906824D01*
X161721313Y-78906821D01*
X161704883Y-78740000D01*
X161721313Y-78573179D01*
X161724287Y-78563375D01*
X161769975Y-78412761D01*
X161769976Y-78412759D01*
X161769977Y-78412756D01*
X161848995Y-78264922D01*
X161955341Y-78135341D01*
X162084922Y-78028995D01*
X162232756Y-77949977D01*
X162232759Y-77949976D01*
X162232761Y-77949975D01*
X162393175Y-77901314D01*
X162393176Y-77901314D01*
X162393179Y-77901313D01*
X162518196Y-77889000D01*
X162601804Y-77889000D01*
X162726821Y-77901313D01*
X162726821Y-77901313D01*
G37*
G36*
X152648228Y-77921703D02*
X152803100Y-77985853D01*
X152942481Y-78078985D01*
X153061015Y-78197519D01*
X153154147Y-78336900D01*
X153218297Y-78491772D01*
X153251000Y-78656184D01*
X153251000Y-78823816D01*
X153218297Y-78988228D01*
X153154147Y-79143100D01*
X153061015Y-79282481D01*
X152942481Y-79401015D01*
X152803100Y-79494147D01*
X152648228Y-79558297D01*
X152483816Y-79591000D01*
X152316184Y-79591000D01*
X152151772Y-79558297D01*
X151996900Y-79494147D01*
X151857519Y-79401015D01*
X151738985Y-79282481D01*
X151645853Y-79143100D01*
X151581703Y-78988228D01*
X151549000Y-78823816D01*
X151549000Y-78656184D01*
X151581703Y-78491772D01*
X151645853Y-78336900D01*
X151738985Y-78197519D01*
X151857519Y-78078985D01*
X151996900Y-77985853D01*
X152151772Y-77921703D01*
X152316184Y-77889000D01*
X152483816Y-77889000D01*
X152648228Y-77921703D01*
X152648228Y-77921703D01*
G37*
G36*
X147486821Y-76631313D02*
X147486824Y-76631314D01*
X147486825Y-76631314D01*
X147647239Y-76679975D01*
X147647241Y-76679976D01*
X147647244Y-76679977D01*
X147795078Y-76758995D01*
X147924659Y-76865341D01*
X148031005Y-76994922D01*
X148110023Y-77142756D01*
X148158687Y-77303179D01*
X148175117Y-77470000D01*
X148158687Y-77636821D01*
X148110023Y-77797244D01*
X148031005Y-77945078D01*
X147924659Y-78074659D01*
X147795078Y-78181005D01*
X147647244Y-78260023D01*
X147647241Y-78260024D01*
X147647239Y-78260025D01*
X147486825Y-78308686D01*
X147486824Y-78308686D01*
X147486821Y-78308687D01*
X147361804Y-78321000D01*
X147278196Y-78321000D01*
X147153179Y-78308687D01*
X147153176Y-78308686D01*
X147153175Y-78308686D01*
X146992761Y-78260025D01*
X146992759Y-78260024D01*
X146992756Y-78260023D01*
X146844922Y-78181005D01*
X146715341Y-78074659D01*
X146608995Y-77945078D01*
X146529977Y-77797244D01*
X146481313Y-77636821D01*
X146464883Y-77470000D01*
X146481313Y-77303179D01*
X146529977Y-77142756D01*
X146608995Y-76994922D01*
X146715341Y-76865341D01*
X146844922Y-76758995D01*
X146992756Y-76679977D01*
X146992759Y-76679976D01*
X146992761Y-76679975D01*
X147153175Y-76631314D01*
X147153176Y-76631314D01*
X147153179Y-76631313D01*
X147278196Y-76619000D01*
X147361804Y-76619000D01*
X147486821Y-76631313D01*
X147486821Y-76631313D01*
G37*
G36*
X139866821Y-76631313D02*
X139866824Y-76631314D01*
X139866825Y-76631314D01*
X140027239Y-76679975D01*
X140027241Y-76679976D01*
X140027244Y-76679977D01*
X140175078Y-76758995D01*
X140304659Y-76865341D01*
X140411005Y-76994922D01*
X140490023Y-77142756D01*
X140538687Y-77303179D01*
X140555117Y-77470000D01*
X140538687Y-77636821D01*
X140490023Y-77797244D01*
X140411005Y-77945078D01*
X140304659Y-78074659D01*
X140175078Y-78181005D01*
X140027244Y-78260023D01*
X140027241Y-78260024D01*
X140027239Y-78260025D01*
X139866825Y-78308686D01*
X139866824Y-78308686D01*
X139866821Y-78308687D01*
X139741804Y-78321000D01*
X139658196Y-78321000D01*
X139533179Y-78308687D01*
X139533176Y-78308686D01*
X139533175Y-78308686D01*
X139372761Y-78260025D01*
X139372759Y-78260024D01*
X139372756Y-78260023D01*
X139224922Y-78181005D01*
X139095341Y-78074659D01*
X138988995Y-77945078D01*
X138909977Y-77797244D01*
X138861313Y-77636821D01*
X138844883Y-77470000D01*
X138861313Y-77303179D01*
X138909977Y-77142756D01*
X138988995Y-76994922D01*
X139095341Y-76865341D01*
X139224922Y-76758995D01*
X139372756Y-76679977D01*
X139372759Y-76679976D01*
X139372761Y-76679975D01*
X139533175Y-76631314D01*
X139533176Y-76631314D01*
X139533179Y-76631313D01*
X139658196Y-76619000D01*
X139741804Y-76619000D01*
X139866821Y-76631313D01*
X139866821Y-76631313D01*
G37*
G36*
X133460442Y-75305518D02*
X133526627Y-75312037D01*
X133639853Y-75346384D01*
X133696467Y-75363557D01*
X133774146Y-75405078D01*
X133852991Y-75447222D01*
X133883769Y-75472481D01*
X133990186Y-75559814D01*
X134073448Y-75661271D01*
X134102778Y-75697009D01*
X134102779Y-75697011D01*
X134186443Y-75853533D01*
X134186443Y-75853534D01*
X134237963Y-76023373D01*
X134255359Y-76200000D01*
X134237963Y-76376627D01*
X134203616Y-76489853D01*
X134186443Y-76546467D01*
X134115080Y-76679975D01*
X134102778Y-76702991D01*
X134073448Y-76738729D01*
X133990186Y-76840186D01*
X133888729Y-76923448D01*
X133852991Y-76952778D01*
X133852989Y-76952779D01*
X133696467Y-77036443D01*
X133639853Y-77053616D01*
X133526627Y-77087963D01*
X133460442Y-77094482D01*
X133394260Y-77101000D01*
X133305740Y-77101000D01*
X133239558Y-77094482D01*
X133173373Y-77087963D01*
X133060147Y-77053616D01*
X133003533Y-77036443D01*
X132847011Y-76952779D01*
X132847009Y-76952778D01*
X132811271Y-76923448D01*
X132709814Y-76840186D01*
X132626552Y-76738729D01*
X132597222Y-76702991D01*
X132584920Y-76679975D01*
X132513557Y-76546467D01*
X132496384Y-76489853D01*
X132462037Y-76376627D01*
X132444641Y-76200000D01*
X132462037Y-76023373D01*
X132513557Y-75853534D01*
X132513557Y-75853533D01*
X132597221Y-75697011D01*
X132597222Y-75697009D01*
X132626552Y-75661271D01*
X132709814Y-75559814D01*
X132816231Y-75472481D01*
X132847009Y-75447222D01*
X132925854Y-75405078D01*
X133003533Y-75363557D01*
X133060147Y-75346384D01*
X133173373Y-75312037D01*
X133239558Y-75305518D01*
X133305740Y-75299000D01*
X133394260Y-75299000D01*
X133460442Y-75305518D01*
X133460442Y-75305518D01*
G37*
G36*
X139866821Y-74091313D02*
X139866824Y-74091314D01*
X139866825Y-74091314D01*
X140027239Y-74139975D01*
X140027241Y-74139976D01*
X140027244Y-74139977D01*
X140175078Y-74218995D01*
X140304659Y-74325341D01*
X140411005Y-74454922D01*
X140490023Y-74602756D01*
X140490024Y-74602759D01*
X140490025Y-74602761D01*
X140530946Y-74737659D01*
X140538687Y-74763179D01*
X140555117Y-74930000D01*
X140538687Y-75096821D01*
X140538686Y-75096824D01*
X140538686Y-75096825D01*
X140513993Y-75178228D01*
X140490023Y-75257244D01*
X140411005Y-75405078D01*
X140304659Y-75534659D01*
X140175078Y-75641005D01*
X140027244Y-75720023D01*
X140027241Y-75720024D01*
X140027239Y-75720025D01*
X139866825Y-75768686D01*
X139866824Y-75768686D01*
X139866821Y-75768687D01*
X139741804Y-75781000D01*
X139658196Y-75781000D01*
X139533179Y-75768687D01*
X139533176Y-75768686D01*
X139533175Y-75768686D01*
X139372761Y-75720025D01*
X139372759Y-75720024D01*
X139372756Y-75720023D01*
X139224922Y-75641005D01*
X139095341Y-75534659D01*
X138988995Y-75405078D01*
X138909977Y-75257244D01*
X138886008Y-75178228D01*
X138861314Y-75096825D01*
X138861314Y-75096824D01*
X138861313Y-75096821D01*
X138844883Y-74930000D01*
X138861313Y-74763179D01*
X138869054Y-74737659D01*
X138909975Y-74602761D01*
X138909976Y-74602759D01*
X138909977Y-74602756D01*
X138988995Y-74454922D01*
X139095341Y-74325341D01*
X139224922Y-74218995D01*
X139372756Y-74139977D01*
X139372759Y-74139976D01*
X139372761Y-74139975D01*
X139533175Y-74091314D01*
X139533176Y-74091314D01*
X139533179Y-74091313D01*
X139658196Y-74079000D01*
X139741804Y-74079000D01*
X139866821Y-74091313D01*
X139866821Y-74091313D01*
G37*
G36*
X147486821Y-74091313D02*
X147486824Y-74091314D01*
X147486825Y-74091314D01*
X147647239Y-74139975D01*
X147647241Y-74139976D01*
X147647244Y-74139977D01*
X147795078Y-74218995D01*
X147924659Y-74325341D01*
X148031005Y-74454922D01*
X148110023Y-74602756D01*
X148110024Y-74602759D01*
X148110025Y-74602761D01*
X148150946Y-74737659D01*
X148158687Y-74763179D01*
X148175117Y-74930000D01*
X148158687Y-75096821D01*
X148158686Y-75096824D01*
X148158686Y-75096825D01*
X148133993Y-75178228D01*
X148110023Y-75257244D01*
X148031005Y-75405078D01*
X147924659Y-75534659D01*
X147795078Y-75641005D01*
X147647244Y-75720023D01*
X147647241Y-75720024D01*
X147647239Y-75720025D01*
X147486825Y-75768686D01*
X147486824Y-75768686D01*
X147486821Y-75768687D01*
X147361804Y-75781000D01*
X147278196Y-75781000D01*
X147153179Y-75768687D01*
X147153176Y-75768686D01*
X147153175Y-75768686D01*
X146992761Y-75720025D01*
X146992759Y-75720024D01*
X146992756Y-75720023D01*
X146844922Y-75641005D01*
X146715341Y-75534659D01*
X146608995Y-75405078D01*
X146529977Y-75257244D01*
X146506008Y-75178228D01*
X146481314Y-75096825D01*
X146481314Y-75096824D01*
X146481313Y-75096821D01*
X146464883Y-74930000D01*
X146481313Y-74763179D01*
X146489054Y-74737659D01*
X146529975Y-74602761D01*
X146529976Y-74602759D01*
X146529977Y-74602756D01*
X146608995Y-74454922D01*
X146715341Y-74325341D01*
X146844922Y-74218995D01*
X146992756Y-74139977D01*
X146992759Y-74139976D01*
X146992761Y-74139975D01*
X147153175Y-74091314D01*
X147153176Y-74091314D01*
X147153179Y-74091313D01*
X147278196Y-74079000D01*
X147361804Y-74079000D01*
X147486821Y-74091313D01*
X147486821Y-74091313D01*
G37*
G36*
X162726821Y-74091313D02*
X162726824Y-74091314D01*
X162726825Y-74091314D01*
X162887239Y-74139975D01*
X162887241Y-74139976D01*
X162887244Y-74139977D01*
X163035078Y-74218995D01*
X163164659Y-74325341D01*
X163271005Y-74454922D01*
X163350023Y-74602756D01*
X163350024Y-74602759D01*
X163350025Y-74602761D01*
X163390946Y-74737659D01*
X163398687Y-74763179D01*
X163415117Y-74930000D01*
X163398687Y-75096821D01*
X163398686Y-75096824D01*
X163398686Y-75096825D01*
X163373993Y-75178228D01*
X163350023Y-75257244D01*
X163271005Y-75405078D01*
X163164659Y-75534659D01*
X163035078Y-75641005D01*
X162887244Y-75720023D01*
X162887241Y-75720024D01*
X162887239Y-75720025D01*
X162726825Y-75768686D01*
X162726824Y-75768686D01*
X162726821Y-75768687D01*
X162601804Y-75781000D01*
X162518196Y-75781000D01*
X162393179Y-75768687D01*
X162393176Y-75768686D01*
X162393175Y-75768686D01*
X162232761Y-75720025D01*
X162232759Y-75720024D01*
X162232756Y-75720023D01*
X162084922Y-75641005D01*
X161955341Y-75534659D01*
X161848995Y-75405078D01*
X161769977Y-75257244D01*
X161746008Y-75178228D01*
X161721314Y-75096825D01*
X161721314Y-75096824D01*
X161721313Y-75096821D01*
X161704883Y-74930000D01*
X161721313Y-74763179D01*
X161729054Y-74737659D01*
X161769975Y-74602761D01*
X161769976Y-74602759D01*
X161769977Y-74602756D01*
X161848995Y-74454922D01*
X161955341Y-74325341D01*
X162084922Y-74218995D01*
X162232756Y-74139977D01*
X162232759Y-74139976D01*
X162232761Y-74139975D01*
X162393175Y-74091314D01*
X162393176Y-74091314D01*
X162393179Y-74091313D01*
X162518196Y-74079000D01*
X162601804Y-74079000D01*
X162726821Y-74091313D01*
X162726821Y-74091313D01*
G37*
G36*
X152648228Y-74111703D02*
X152803100Y-74175853D01*
X152942481Y-74268985D01*
X153061015Y-74387519D01*
X153154147Y-74526900D01*
X153218297Y-74681772D01*
X153251000Y-74846184D01*
X153251000Y-75013816D01*
X153218297Y-75178228D01*
X153154147Y-75333100D01*
X153061015Y-75472481D01*
X152942481Y-75591015D01*
X152803100Y-75684147D01*
X152648228Y-75748297D01*
X152483816Y-75781000D01*
X152316184Y-75781000D01*
X152151772Y-75748297D01*
X151996900Y-75684147D01*
X151857519Y-75591015D01*
X151738985Y-75472481D01*
X151645853Y-75333100D01*
X151581703Y-75178228D01*
X151549000Y-75013816D01*
X151549000Y-74846184D01*
X151581703Y-74681772D01*
X151645853Y-74526900D01*
X151738985Y-74387519D01*
X151857519Y-74268985D01*
X151996900Y-74175853D01*
X152151772Y-74111703D01*
X152316184Y-74079000D01*
X152483816Y-74079000D01*
X152648228Y-74111703D01*
X152648228Y-74111703D01*
G37*
G36*
X169069375Y-72358764D02*
X169171542Y-72389756D01*
X169222627Y-72405252D01*
X169298120Y-72445605D01*
X169363863Y-72480745D01*
X169363865Y-72480746D01*
X169363864Y-72480746D01*
X169487659Y-72582341D01*
X169589255Y-72706135D01*
X169664748Y-72847372D01*
X169670119Y-72865078D01*
X169711236Y-73000624D01*
X169711236Y-73000626D01*
X169723000Y-73120066D01*
X169723000Y-74199934D01*
X169719079Y-74239747D01*
X169711236Y-74319376D01*
X169690565Y-74387519D01*
X169664748Y-74472628D01*
X169589255Y-74613865D01*
X169487659Y-74737659D01*
X169363865Y-74839255D01*
X169222628Y-74914748D01*
X169172348Y-74930000D01*
X169069376Y-74961236D01*
X168910000Y-74976933D01*
X168750625Y-74961236D01*
X168647653Y-74930000D01*
X168597373Y-74914748D01*
X168456136Y-74839255D01*
X168332342Y-74737659D01*
X168230746Y-74613865D01*
X168155253Y-74472628D01*
X168129436Y-74387519D01*
X168108765Y-74319376D01*
X168100922Y-74239747D01*
X168097001Y-74199934D01*
X168097000Y-73120067D01*
X168108764Y-73000627D01*
X168108764Y-73000625D01*
X168139756Y-72898458D01*
X168155252Y-72847373D01*
X168195605Y-72771880D01*
X168230745Y-72706137D01*
X168332341Y-72582341D01*
X168363437Y-72556821D01*
X168456135Y-72480745D01*
X168597372Y-72405252D01*
X168648457Y-72389756D01*
X168750624Y-72358764D01*
X168910000Y-72343067D01*
X169069375Y-72358764D01*
X169069375Y-72358764D01*
G37*
G36*
X174149375Y-72358764D02*
X174251542Y-72389756D01*
X174302627Y-72405252D01*
X174378120Y-72445605D01*
X174443863Y-72480745D01*
X174443865Y-72480746D01*
X174443864Y-72480746D01*
X174567659Y-72582341D01*
X174669255Y-72706135D01*
X174744748Y-72847372D01*
X174750119Y-72865078D01*
X174791236Y-73000624D01*
X174791236Y-73000626D01*
X174803000Y-73120066D01*
X174803000Y-74199934D01*
X174799079Y-74239747D01*
X174791236Y-74319376D01*
X174770565Y-74387519D01*
X174744748Y-74472628D01*
X174669255Y-74613865D01*
X174567659Y-74737659D01*
X174443865Y-74839255D01*
X174302628Y-74914748D01*
X174252348Y-74930000D01*
X174149376Y-74961236D01*
X173990000Y-74976933D01*
X173830625Y-74961236D01*
X173727653Y-74930000D01*
X173677373Y-74914748D01*
X173536136Y-74839255D01*
X173412342Y-74737659D01*
X173310746Y-74613865D01*
X173235253Y-74472628D01*
X173209436Y-74387519D01*
X173188765Y-74319376D01*
X173180922Y-74239747D01*
X173177001Y-74199934D01*
X173177000Y-73120067D01*
X173188764Y-73000627D01*
X173188764Y-73000625D01*
X173219756Y-72898458D01*
X173235252Y-72847373D01*
X173275605Y-72771880D01*
X173310745Y-72706137D01*
X173412341Y-72582341D01*
X173443437Y-72556821D01*
X173536135Y-72480745D01*
X173677372Y-72405252D01*
X173728457Y-72389756D01*
X173830624Y-72358764D01*
X173990000Y-72343067D01*
X174149375Y-72358764D01*
X174149375Y-72358764D01*
G37*
G36*
X171609375Y-72358764D02*
X171711542Y-72389756D01*
X171762627Y-72405252D01*
X171838120Y-72445605D01*
X171903863Y-72480745D01*
X171903865Y-72480746D01*
X171903864Y-72480746D01*
X172027659Y-72582341D01*
X172129255Y-72706135D01*
X172204748Y-72847372D01*
X172210119Y-72865078D01*
X172251236Y-73000624D01*
X172251236Y-73000626D01*
X172263000Y-73120066D01*
X172263000Y-74199934D01*
X172259079Y-74239747D01*
X172251236Y-74319376D01*
X172230565Y-74387519D01*
X172204748Y-74472628D01*
X172129255Y-74613865D01*
X172027659Y-74737659D01*
X171903865Y-74839255D01*
X171762628Y-74914748D01*
X171712348Y-74930000D01*
X171609376Y-74961236D01*
X171450000Y-74976933D01*
X171290625Y-74961236D01*
X171187653Y-74930000D01*
X171137373Y-74914748D01*
X170996136Y-74839255D01*
X170872342Y-74737659D01*
X170770746Y-74613865D01*
X170695253Y-74472628D01*
X170669436Y-74387519D01*
X170648765Y-74319376D01*
X170640922Y-74239747D01*
X170637001Y-74199934D01*
X170637000Y-73120067D01*
X170648764Y-73000627D01*
X170648764Y-73000625D01*
X170679756Y-72898458D01*
X170695252Y-72847373D01*
X170735605Y-72771880D01*
X170770745Y-72706137D01*
X170872341Y-72582341D01*
X170903437Y-72556821D01*
X170996135Y-72480745D01*
X171137372Y-72405252D01*
X171188457Y-72389756D01*
X171290624Y-72358764D01*
X171450000Y-72343067D01*
X171609375Y-72358764D01*
X171609375Y-72358764D01*
G37*
G36*
X176689375Y-72358764D02*
X176791542Y-72389756D01*
X176842627Y-72405252D01*
X176918120Y-72445605D01*
X176983863Y-72480745D01*
X176983865Y-72480746D01*
X176983864Y-72480746D01*
X177107659Y-72582341D01*
X177209255Y-72706135D01*
X177284748Y-72847372D01*
X177290119Y-72865078D01*
X177331236Y-73000624D01*
X177331236Y-73000626D01*
X177343000Y-73120066D01*
X177343000Y-74199934D01*
X177339079Y-74239747D01*
X177331236Y-74319376D01*
X177310565Y-74387519D01*
X177284748Y-74472628D01*
X177209255Y-74613865D01*
X177107659Y-74737659D01*
X176983865Y-74839255D01*
X176842628Y-74914748D01*
X176792348Y-74930000D01*
X176689376Y-74961236D01*
X176530000Y-74976933D01*
X176370625Y-74961236D01*
X176267653Y-74930000D01*
X176217373Y-74914748D01*
X176076136Y-74839255D01*
X175952342Y-74737659D01*
X175850746Y-74613865D01*
X175775253Y-74472628D01*
X175749436Y-74387519D01*
X175728765Y-74319376D01*
X175720922Y-74239747D01*
X175717001Y-74199934D01*
X175717000Y-73120067D01*
X175728764Y-73000627D01*
X175728764Y-73000625D01*
X175759756Y-72898458D01*
X175775252Y-72847373D01*
X175815605Y-72771880D01*
X175850745Y-72706137D01*
X175952341Y-72582341D01*
X175983437Y-72556821D01*
X176076135Y-72480745D01*
X176217372Y-72405252D01*
X176268457Y-72389756D01*
X176370624Y-72358764D01*
X176530000Y-72343067D01*
X176689375Y-72358764D01*
X176689375Y-72358764D01*
G37*
G36*
X179229375Y-72358764D02*
X179331542Y-72389756D01*
X179382627Y-72405252D01*
X179458120Y-72445605D01*
X179523863Y-72480745D01*
X179523865Y-72480746D01*
X179523864Y-72480746D01*
X179647659Y-72582341D01*
X179749255Y-72706135D01*
X179824748Y-72847372D01*
X179830119Y-72865078D01*
X179871236Y-73000624D01*
X179871236Y-73000626D01*
X179883000Y-73120066D01*
X179883000Y-74199934D01*
X179879079Y-74239747D01*
X179871236Y-74319376D01*
X179850565Y-74387519D01*
X179824748Y-74472628D01*
X179749255Y-74613865D01*
X179647659Y-74737659D01*
X179523865Y-74839255D01*
X179382628Y-74914748D01*
X179332348Y-74930000D01*
X179229376Y-74961236D01*
X179070000Y-74976933D01*
X178910625Y-74961236D01*
X178807653Y-74930000D01*
X178757373Y-74914748D01*
X178616136Y-74839255D01*
X178492342Y-74737659D01*
X178390746Y-74613865D01*
X178315253Y-74472628D01*
X178289436Y-74387519D01*
X178268765Y-74319376D01*
X178260922Y-74239747D01*
X178257001Y-74199934D01*
X178257000Y-73120067D01*
X178268764Y-73000627D01*
X178268764Y-73000625D01*
X178299756Y-72898458D01*
X178315252Y-72847373D01*
X178355605Y-72771880D01*
X178390745Y-72706137D01*
X178492341Y-72582341D01*
X178523437Y-72556821D01*
X178616135Y-72480745D01*
X178757372Y-72405252D01*
X178808457Y-72389756D01*
X178910624Y-72358764D01*
X179070000Y-72343067D01*
X179229375Y-72358764D01*
X179229375Y-72358764D01*
G37*
G36*
X139866821Y-71551313D02*
X139866824Y-71551314D01*
X139866825Y-71551314D01*
X140027239Y-71599975D01*
X140027241Y-71599976D01*
X140027244Y-71599977D01*
X140175078Y-71678995D01*
X140304659Y-71785341D01*
X140411005Y-71914922D01*
X140490023Y-72062756D01*
X140538687Y-72223179D01*
X140555117Y-72390000D01*
X140538687Y-72556821D01*
X140538686Y-72556824D01*
X140538686Y-72556825D01*
X140493393Y-72706137D01*
X140490023Y-72717244D01*
X140411005Y-72865078D01*
X140304659Y-72994659D01*
X140175078Y-73101005D01*
X140027244Y-73180023D01*
X140027241Y-73180024D01*
X140027239Y-73180025D01*
X139866825Y-73228686D01*
X139866824Y-73228686D01*
X139866821Y-73228687D01*
X139741804Y-73241000D01*
X139658196Y-73241000D01*
X139533179Y-73228687D01*
X139533176Y-73228686D01*
X139533175Y-73228686D01*
X139372761Y-73180025D01*
X139372759Y-73180024D01*
X139372756Y-73180023D01*
X139224922Y-73101005D01*
X139095341Y-72994659D01*
X138988995Y-72865078D01*
X138909977Y-72717244D01*
X138906608Y-72706137D01*
X138861314Y-72556825D01*
X138861314Y-72556824D01*
X138861313Y-72556821D01*
X138844883Y-72390000D01*
X138861313Y-72223179D01*
X138909977Y-72062756D01*
X138988995Y-71914922D01*
X139095341Y-71785341D01*
X139224922Y-71678995D01*
X139372756Y-71599977D01*
X139372759Y-71599976D01*
X139372761Y-71599975D01*
X139533175Y-71551314D01*
X139533176Y-71551314D01*
X139533179Y-71551313D01*
X139658196Y-71539000D01*
X139741804Y-71539000D01*
X139866821Y-71551313D01*
X139866821Y-71551313D01*
G37*
G36*
X147486821Y-71551313D02*
X147486824Y-71551314D01*
X147486825Y-71551314D01*
X147647239Y-71599975D01*
X147647241Y-71599976D01*
X147647244Y-71599977D01*
X147795078Y-71678995D01*
X147924659Y-71785341D01*
X148031005Y-71914922D01*
X148110023Y-72062756D01*
X148158687Y-72223179D01*
X148175117Y-72390000D01*
X148158687Y-72556821D01*
X148158686Y-72556824D01*
X148158686Y-72556825D01*
X148113393Y-72706137D01*
X148110023Y-72717244D01*
X148031005Y-72865078D01*
X147924659Y-72994659D01*
X147795078Y-73101005D01*
X147647244Y-73180023D01*
X147647241Y-73180024D01*
X147647239Y-73180025D01*
X147486825Y-73228686D01*
X147486824Y-73228686D01*
X147486821Y-73228687D01*
X147361804Y-73241000D01*
X147278196Y-73241000D01*
X147153179Y-73228687D01*
X147153176Y-73228686D01*
X147153175Y-73228686D01*
X146992761Y-73180025D01*
X146992759Y-73180024D01*
X146992756Y-73180023D01*
X146844922Y-73101005D01*
X146715341Y-72994659D01*
X146608995Y-72865078D01*
X146529977Y-72717244D01*
X146526608Y-72706137D01*
X146481314Y-72556825D01*
X146481314Y-72556824D01*
X146481313Y-72556821D01*
X146464883Y-72390000D01*
X146481313Y-72223179D01*
X146529977Y-72062756D01*
X146608995Y-71914922D01*
X146715341Y-71785341D01*
X146844922Y-71678995D01*
X146992756Y-71599977D01*
X146992759Y-71599976D01*
X146992761Y-71599975D01*
X147153175Y-71551314D01*
X147153176Y-71551314D01*
X147153179Y-71551313D01*
X147278196Y-71539000D01*
X147361804Y-71539000D01*
X147486821Y-71551313D01*
X147486821Y-71551313D01*
G37*
G36*
X152648228Y-70301703D02*
X152803100Y-70365853D01*
X152942481Y-70458985D01*
X153061015Y-70577519D01*
X153154147Y-70716900D01*
X153218297Y-70871772D01*
X153251000Y-71036184D01*
X153251000Y-71203816D01*
X153218297Y-71368228D01*
X153154147Y-71523100D01*
X153061015Y-71662481D01*
X152942481Y-71781015D01*
X152803100Y-71874147D01*
X152648228Y-71938297D01*
X152483816Y-71971000D01*
X152316184Y-71971000D01*
X152151772Y-71938297D01*
X151996900Y-71874147D01*
X151857519Y-71781015D01*
X151738985Y-71662481D01*
X151645853Y-71523100D01*
X151581703Y-71368228D01*
X151549000Y-71203816D01*
X151549000Y-71036184D01*
X151581703Y-70871772D01*
X151645853Y-70716900D01*
X151738985Y-70577519D01*
X151857519Y-70458985D01*
X151996900Y-70365853D01*
X152151772Y-70301703D01*
X152316184Y-70269000D01*
X152483816Y-70269000D01*
X152648228Y-70301703D01*
X152648228Y-70301703D01*
G37*
G36*
X162726821Y-70281313D02*
X162726824Y-70281314D01*
X162726825Y-70281314D01*
X162887239Y-70329975D01*
X162887241Y-70329976D01*
X162887244Y-70329977D01*
X163035078Y-70408995D01*
X163164659Y-70515341D01*
X163271005Y-70644922D01*
X163350023Y-70792756D01*
X163350024Y-70792759D01*
X163350025Y-70792761D01*
X163398686Y-70953175D01*
X163398687Y-70953179D01*
X163415117Y-71120000D01*
X163398687Y-71286821D01*
X163398686Y-71286824D01*
X163398686Y-71286825D01*
X163373993Y-71368228D01*
X163350023Y-71447244D01*
X163271005Y-71595078D01*
X163164659Y-71724659D01*
X163035078Y-71831005D01*
X162887244Y-71910023D01*
X162887241Y-71910024D01*
X162887239Y-71910025D01*
X162726825Y-71958686D01*
X162726824Y-71958686D01*
X162726821Y-71958687D01*
X162601804Y-71971000D01*
X162518196Y-71971000D01*
X162393179Y-71958687D01*
X162393176Y-71958686D01*
X162393175Y-71958686D01*
X162232761Y-71910025D01*
X162232759Y-71910024D01*
X162232756Y-71910023D01*
X162084922Y-71831005D01*
X161955341Y-71724659D01*
X161848995Y-71595078D01*
X161769977Y-71447244D01*
X161746008Y-71368228D01*
X161721314Y-71286825D01*
X161721314Y-71286824D01*
X161721313Y-71286821D01*
X161704883Y-71120000D01*
X161721313Y-70953179D01*
X161721314Y-70953175D01*
X161769975Y-70792761D01*
X161769976Y-70792759D01*
X161769977Y-70792756D01*
X161848995Y-70644922D01*
X161955341Y-70515341D01*
X162084922Y-70408995D01*
X162232756Y-70329977D01*
X162232759Y-70329976D01*
X162232761Y-70329975D01*
X162393175Y-70281314D01*
X162393176Y-70281314D01*
X162393179Y-70281313D01*
X162518196Y-70269000D01*
X162601804Y-70269000D01*
X162726821Y-70281313D01*
X162726821Y-70281313D01*
G37*
G36*
X162726821Y-66471313D02*
X162726824Y-66471314D01*
X162726825Y-66471314D01*
X162887239Y-66519975D01*
X162887241Y-66519976D01*
X162887244Y-66519977D01*
X163035078Y-66598995D01*
X163164659Y-66705341D01*
X163271005Y-66834922D01*
X163350023Y-66982756D01*
X163350024Y-66982759D01*
X163350025Y-66982761D01*
X163398686Y-67143175D01*
X163398687Y-67143179D01*
X163415117Y-67310000D01*
X163398687Y-67476821D01*
X163398686Y-67476824D01*
X163398686Y-67476825D01*
X163373993Y-67558228D01*
X163350023Y-67637244D01*
X163271005Y-67785078D01*
X163164659Y-67914659D01*
X163035078Y-68021005D01*
X162887244Y-68100023D01*
X162887241Y-68100024D01*
X162887239Y-68100025D01*
X162726825Y-68148686D01*
X162726824Y-68148686D01*
X162726821Y-68148687D01*
X162601804Y-68161000D01*
X162518196Y-68161000D01*
X162393179Y-68148687D01*
X162393176Y-68148686D01*
X162393175Y-68148686D01*
X162232761Y-68100025D01*
X162232759Y-68100024D01*
X162232756Y-68100023D01*
X162084922Y-68021005D01*
X161955341Y-67914659D01*
X161848995Y-67785078D01*
X161769977Y-67637244D01*
X161746008Y-67558228D01*
X161721314Y-67476825D01*
X161721314Y-67476824D01*
X161721313Y-67476821D01*
X161704883Y-67310000D01*
X161721313Y-67143179D01*
X161721314Y-67143175D01*
X161769975Y-66982761D01*
X161769976Y-66982759D01*
X161769977Y-66982756D01*
X161848995Y-66834922D01*
X161955341Y-66705341D01*
X162084922Y-66598995D01*
X162232756Y-66519977D01*
X162232759Y-66519976D01*
X162232761Y-66519975D01*
X162393175Y-66471314D01*
X162393176Y-66471314D01*
X162393179Y-66471313D01*
X162518196Y-66459000D01*
X162601804Y-66459000D01*
X162726821Y-66471313D01*
X162726821Y-66471313D01*
G37*
G36*
X152648228Y-66491703D02*
X152803100Y-66555853D01*
X152942481Y-66648985D01*
X153061015Y-66767519D01*
X153154147Y-66906900D01*
X153218297Y-67061772D01*
X153251000Y-67226184D01*
X153251000Y-67393816D01*
X153218297Y-67558228D01*
X153154147Y-67713100D01*
X153061015Y-67852481D01*
X152942481Y-67971015D01*
X152803100Y-68064147D01*
X152648228Y-68128297D01*
X152483816Y-68161000D01*
X152316184Y-68161000D01*
X152151772Y-68128297D01*
X151996900Y-68064147D01*
X151857519Y-67971015D01*
X151738985Y-67852481D01*
X151645853Y-67713100D01*
X151581703Y-67558228D01*
X151549000Y-67393816D01*
X151549000Y-67226184D01*
X151581703Y-67061772D01*
X151645853Y-66906900D01*
X151738985Y-66767519D01*
X151857519Y-66648985D01*
X151996900Y-66555853D01*
X152151772Y-66491703D01*
X152316184Y-66459000D01*
X152483816Y-66459000D01*
X152648228Y-66491703D01*
X152648228Y-66491703D01*
G37*
M02*
