M48
;DRILL file {KiCad (5.0.1-3-g963ef8bb5)} date 2018 November 27, Tuesday 14:44:29
;FORMAT={-:-/ absolute / inch / decimal}
FMAT,2
INCH,TZ
T1C0.0157
T2C0.0315
T3C0.0394
%
G90
G05
M72
T1
X6.52Y-3.58
X6.7441Y-3.6241
T2
X6.Y-3.55
X6.4Y-3.55
X6.Y-3.4
X6.4Y-3.4
X6.Y-2.65
X6.4Y-2.65
X6.Y-3.7
X6.4Y-3.7
X6.Y-3.1
X6.4Y-3.1
X6.Y-3.25
X6.4Y-3.25
X5.5Y-2.85
X5.5Y-2.95
X5.5Y-3.05
X5.5Y-3.15
X5.5Y-3.25
X5.5Y-3.35
X5.5Y-3.45
X5.5Y-3.55
X5.8Y-2.85
X5.8Y-2.95
X5.8Y-3.05
X5.8Y-3.15
X5.8Y-3.25
X5.8Y-3.35
X5.8Y-3.45
X5.8Y-3.55
X6.Y-2.95
X6.4Y-2.95
X6.65Y-2.9
X6.65Y-3.5
X6.75Y-2.9
X6.75Y-3.5
X6.85Y-2.9
X6.85Y-3.5
X6.95Y-2.9
X6.95Y-3.5
X7.05Y-2.9
X7.05Y-3.5
X6.Y-2.8
X6.4Y-2.8
T3
X5.25Y-3.
X5.25Y-3.1
X5.25Y-3.2
X5.25Y-3.3
X5.25Y-3.4
T0
M30
