G04 #@! TF.GenerationSoftware,KiCad,Pcbnew,(5.0.1-3-g963ef8bb5)*
G04 #@! TF.CreationDate,2018-12-19T14:50:12+08:00*
G04 #@! TF.ProjectId,16-LED-board,31362D4C45442D626F6172642E6B6963,1.0*
G04 #@! TF.SameCoordinates,Original*
G04 #@! TF.FileFunction,Soldermask,Bot*
G04 #@! TF.FilePolarity,Negative*
%FSLAX46Y46*%
G04 Gerber Fmt 4.6, Leading zero omitted, Abs format (unit mm)*
G04 Created by KiCad (PCBNEW (5.0.1-3-g963ef8bb5)) date 2018 December 19, Wednesday 14:50:12*
%MOMM*%
%LPD*%
G01*
G04 APERTURE LIST*
%ADD10C,0.100000*%
G04 APERTURE END LIST*
D10*
G36*
X95135000Y-85483000D02*
X93333000Y-85483000D01*
X93333000Y-83681000D01*
X95135000Y-83681000D01*
X95135000Y-85483000D01*
X95135000Y-85483000D01*
G37*
G36*
X91804443Y-83687519D02*
X91870627Y-83694037D01*
X91983853Y-83728384D01*
X92040467Y-83745557D01*
X92179087Y-83819652D01*
X92196991Y-83829222D01*
X92232729Y-83858552D01*
X92334186Y-83941814D01*
X92417448Y-84043271D01*
X92446778Y-84079009D01*
X92446779Y-84079011D01*
X92530443Y-84235533D01*
X92530443Y-84235534D01*
X92581963Y-84405373D01*
X92599359Y-84582000D01*
X92581963Y-84758627D01*
X92547616Y-84871853D01*
X92530443Y-84928467D01*
X92456348Y-85067087D01*
X92446778Y-85084991D01*
X92417448Y-85120729D01*
X92334186Y-85222186D01*
X92232729Y-85305448D01*
X92196991Y-85334778D01*
X92196989Y-85334779D01*
X92040467Y-85418443D01*
X91983853Y-85435616D01*
X91870627Y-85469963D01*
X91804442Y-85476482D01*
X91738260Y-85483000D01*
X91649740Y-85483000D01*
X91583558Y-85476482D01*
X91517373Y-85469963D01*
X91404147Y-85435616D01*
X91347533Y-85418443D01*
X91191011Y-85334779D01*
X91191009Y-85334778D01*
X91155271Y-85305448D01*
X91053814Y-85222186D01*
X90970552Y-85120729D01*
X90941222Y-85084991D01*
X90931652Y-85067087D01*
X90857557Y-84928467D01*
X90840384Y-84871853D01*
X90806037Y-84758627D01*
X90788641Y-84582000D01*
X90806037Y-84405373D01*
X90857557Y-84235534D01*
X90857557Y-84235533D01*
X90941221Y-84079011D01*
X90941222Y-84079009D01*
X90970552Y-84043271D01*
X91053814Y-83941814D01*
X91155271Y-83858552D01*
X91191009Y-83829222D01*
X91208913Y-83819652D01*
X91347533Y-83745557D01*
X91404147Y-83728384D01*
X91517373Y-83694037D01*
X91583557Y-83687519D01*
X91649740Y-83681000D01*
X91738260Y-83681000D01*
X91804443Y-83687519D01*
X91804443Y-83687519D01*
G37*
G36*
X89264443Y-83687519D02*
X89330627Y-83694037D01*
X89443853Y-83728384D01*
X89500467Y-83745557D01*
X89639087Y-83819652D01*
X89656991Y-83829222D01*
X89692729Y-83858552D01*
X89794186Y-83941814D01*
X89877448Y-84043271D01*
X89906778Y-84079009D01*
X89906779Y-84079011D01*
X89990443Y-84235533D01*
X89990443Y-84235534D01*
X90041963Y-84405373D01*
X90059359Y-84582000D01*
X90041963Y-84758627D01*
X90007616Y-84871853D01*
X89990443Y-84928467D01*
X89916348Y-85067087D01*
X89906778Y-85084991D01*
X89877448Y-85120729D01*
X89794186Y-85222186D01*
X89692729Y-85305448D01*
X89656991Y-85334778D01*
X89656989Y-85334779D01*
X89500467Y-85418443D01*
X89443853Y-85435616D01*
X89330627Y-85469963D01*
X89264442Y-85476482D01*
X89198260Y-85483000D01*
X89109740Y-85483000D01*
X89043558Y-85476482D01*
X88977373Y-85469963D01*
X88864147Y-85435616D01*
X88807533Y-85418443D01*
X88651011Y-85334779D01*
X88651009Y-85334778D01*
X88615271Y-85305448D01*
X88513814Y-85222186D01*
X88430552Y-85120729D01*
X88401222Y-85084991D01*
X88391652Y-85067087D01*
X88317557Y-84928467D01*
X88300384Y-84871853D01*
X88266037Y-84758627D01*
X88248641Y-84582000D01*
X88266037Y-84405373D01*
X88317557Y-84235534D01*
X88317557Y-84235533D01*
X88401221Y-84079011D01*
X88401222Y-84079009D01*
X88430552Y-84043271D01*
X88513814Y-83941814D01*
X88615271Y-83858552D01*
X88651009Y-83829222D01*
X88668913Y-83819652D01*
X88807533Y-83745557D01*
X88864147Y-83728384D01*
X88977373Y-83694037D01*
X89043557Y-83687519D01*
X89109740Y-83681000D01*
X89198260Y-83681000D01*
X89264443Y-83687519D01*
X89264443Y-83687519D01*
G37*
G36*
X86724443Y-83687519D02*
X86790627Y-83694037D01*
X86903853Y-83728384D01*
X86960467Y-83745557D01*
X87099087Y-83819652D01*
X87116991Y-83829222D01*
X87152729Y-83858552D01*
X87254186Y-83941814D01*
X87337448Y-84043271D01*
X87366778Y-84079009D01*
X87366779Y-84079011D01*
X87450443Y-84235533D01*
X87450443Y-84235534D01*
X87501963Y-84405373D01*
X87519359Y-84582000D01*
X87501963Y-84758627D01*
X87467616Y-84871853D01*
X87450443Y-84928467D01*
X87376348Y-85067087D01*
X87366778Y-85084991D01*
X87337448Y-85120729D01*
X87254186Y-85222186D01*
X87152729Y-85305448D01*
X87116991Y-85334778D01*
X87116989Y-85334779D01*
X86960467Y-85418443D01*
X86903853Y-85435616D01*
X86790627Y-85469963D01*
X86724442Y-85476482D01*
X86658260Y-85483000D01*
X86569740Y-85483000D01*
X86503558Y-85476482D01*
X86437373Y-85469963D01*
X86324147Y-85435616D01*
X86267533Y-85418443D01*
X86111011Y-85334779D01*
X86111009Y-85334778D01*
X86075271Y-85305448D01*
X85973814Y-85222186D01*
X85890552Y-85120729D01*
X85861222Y-85084991D01*
X85851652Y-85067087D01*
X85777557Y-84928467D01*
X85760384Y-84871853D01*
X85726037Y-84758627D01*
X85708641Y-84582000D01*
X85726037Y-84405373D01*
X85777557Y-84235534D01*
X85777557Y-84235533D01*
X85861221Y-84079011D01*
X85861222Y-84079009D01*
X85890552Y-84043271D01*
X85973814Y-83941814D01*
X86075271Y-83858552D01*
X86111009Y-83829222D01*
X86128913Y-83819652D01*
X86267533Y-83745557D01*
X86324147Y-83728384D01*
X86437373Y-83694037D01*
X86503557Y-83687519D01*
X86569740Y-83681000D01*
X86658260Y-83681000D01*
X86724443Y-83687519D01*
X86724443Y-83687519D01*
G37*
G36*
X84184443Y-83687519D02*
X84250627Y-83694037D01*
X84363853Y-83728384D01*
X84420467Y-83745557D01*
X84559087Y-83819652D01*
X84576991Y-83829222D01*
X84612729Y-83858552D01*
X84714186Y-83941814D01*
X84797448Y-84043271D01*
X84826778Y-84079009D01*
X84826779Y-84079011D01*
X84910443Y-84235533D01*
X84910443Y-84235534D01*
X84961963Y-84405373D01*
X84979359Y-84582000D01*
X84961963Y-84758627D01*
X84927616Y-84871853D01*
X84910443Y-84928467D01*
X84836348Y-85067087D01*
X84826778Y-85084991D01*
X84797448Y-85120729D01*
X84714186Y-85222186D01*
X84612729Y-85305448D01*
X84576991Y-85334778D01*
X84576989Y-85334779D01*
X84420467Y-85418443D01*
X84363853Y-85435616D01*
X84250627Y-85469963D01*
X84184442Y-85476482D01*
X84118260Y-85483000D01*
X84029740Y-85483000D01*
X83963558Y-85476482D01*
X83897373Y-85469963D01*
X83784147Y-85435616D01*
X83727533Y-85418443D01*
X83571011Y-85334779D01*
X83571009Y-85334778D01*
X83535271Y-85305448D01*
X83433814Y-85222186D01*
X83350552Y-85120729D01*
X83321222Y-85084991D01*
X83311652Y-85067087D01*
X83237557Y-84928467D01*
X83220384Y-84871853D01*
X83186037Y-84758627D01*
X83168641Y-84582000D01*
X83186037Y-84405373D01*
X83237557Y-84235534D01*
X83237557Y-84235533D01*
X83321221Y-84079011D01*
X83321222Y-84079009D01*
X83350552Y-84043271D01*
X83433814Y-83941814D01*
X83535271Y-83858552D01*
X83571009Y-83829222D01*
X83588913Y-83819652D01*
X83727533Y-83745557D01*
X83784147Y-83728384D01*
X83897373Y-83694037D01*
X83963557Y-83687519D01*
X84029740Y-83681000D01*
X84118260Y-83681000D01*
X84184443Y-83687519D01*
X84184443Y-83687519D01*
G37*
M02*
