G04 #@! TF.GenerationSoftware,KiCad,Pcbnew,(5.0.1-3-g963ef8bb5)*
G04 #@! TF.CreationDate,2018-12-19T14:50:12+08:00*
G04 #@! TF.ProjectId,16-LED-board,31362D4C45442D626F6172642E6B6963,1.0*
G04 #@! TF.SameCoordinates,Original*
G04 #@! TF.FileFunction,Soldermask,Top*
G04 #@! TF.FilePolarity,Negative*
%FSLAX46Y46*%
G04 Gerber Fmt 4.6, Leading zero omitted, Abs format (unit mm)*
G04 Created by KiCad (PCBNEW (5.0.1-3-g963ef8bb5)) date 2018 December 19, Wednesday 14:50:12*
%MOMM*%
%LPD*%
G01*
G04 APERTURE LIST*
%ADD10C,0.100000*%
G04 APERTURE END LIST*
D10*
G36*
X113938177Y-107520965D02*
X113975864Y-107532398D01*
X114010603Y-107550966D01*
X114041048Y-107575952D01*
X114066034Y-107606397D01*
X114084602Y-107641136D01*
X114096035Y-107678823D01*
X114100500Y-107724161D01*
X114100500Y-108810839D01*
X114096035Y-108856177D01*
X114084602Y-108893864D01*
X114066034Y-108928603D01*
X114041048Y-108959048D01*
X114010603Y-108984034D01*
X113975864Y-109002602D01*
X113938177Y-109014035D01*
X113892839Y-109018500D01*
X113056161Y-109018500D01*
X113010823Y-109014035D01*
X112973136Y-109002602D01*
X112938397Y-108984034D01*
X112907952Y-108959048D01*
X112882966Y-108928603D01*
X112864398Y-108893864D01*
X112852965Y-108856177D01*
X112848500Y-108810839D01*
X112848500Y-107724161D01*
X112852965Y-107678823D01*
X112864398Y-107641136D01*
X112882966Y-107606397D01*
X112907952Y-107575952D01*
X112938397Y-107550966D01*
X112973136Y-107532398D01*
X113010823Y-107520965D01*
X113056161Y-107516500D01*
X113892839Y-107516500D01*
X113938177Y-107520965D01*
X113938177Y-107520965D01*
G37*
G36*
X111888177Y-107520965D02*
X111925864Y-107532398D01*
X111960603Y-107550966D01*
X111991048Y-107575952D01*
X112016034Y-107606397D01*
X112034602Y-107641136D01*
X112046035Y-107678823D01*
X112050500Y-107724161D01*
X112050500Y-108810839D01*
X112046035Y-108856177D01*
X112034602Y-108893864D01*
X112016034Y-108928603D01*
X111991048Y-108959048D01*
X111960603Y-108984034D01*
X111925864Y-109002602D01*
X111888177Y-109014035D01*
X111842839Y-109018500D01*
X111006161Y-109018500D01*
X110960823Y-109014035D01*
X110923136Y-109002602D01*
X110888397Y-108984034D01*
X110857952Y-108959048D01*
X110832966Y-108928603D01*
X110814398Y-108893864D01*
X110802965Y-108856177D01*
X110798500Y-108810839D01*
X110798500Y-107724161D01*
X110802965Y-107678823D01*
X110814398Y-107641136D01*
X110832966Y-107606397D01*
X110857952Y-107575952D01*
X110888397Y-107550966D01*
X110923136Y-107532398D01*
X110960823Y-107520965D01*
X111006161Y-107516500D01*
X111842839Y-107516500D01*
X111888177Y-107520965D01*
X111888177Y-107520965D01*
G37*
G36*
X107479177Y-107393965D02*
X107516864Y-107405398D01*
X107551603Y-107423966D01*
X107582048Y-107448952D01*
X107607034Y-107479397D01*
X107625602Y-107514136D01*
X107637035Y-107551823D01*
X107641500Y-107597161D01*
X107641500Y-108683839D01*
X107637035Y-108729177D01*
X107625602Y-108766864D01*
X107607034Y-108801603D01*
X107582048Y-108832048D01*
X107551603Y-108857034D01*
X107516864Y-108875602D01*
X107479177Y-108887035D01*
X107433839Y-108891500D01*
X106597161Y-108891500D01*
X106551823Y-108887035D01*
X106514136Y-108875602D01*
X106479397Y-108857034D01*
X106448952Y-108832048D01*
X106423966Y-108801603D01*
X106405398Y-108766864D01*
X106393965Y-108729177D01*
X106389500Y-108683839D01*
X106389500Y-107597161D01*
X106393965Y-107551823D01*
X106405398Y-107514136D01*
X106423966Y-107479397D01*
X106448952Y-107448952D01*
X106479397Y-107423966D01*
X106514136Y-107405398D01*
X106551823Y-107393965D01*
X106597161Y-107389500D01*
X107433839Y-107389500D01*
X107479177Y-107393965D01*
X107479177Y-107393965D01*
G37*
G36*
X105429177Y-107393965D02*
X105466864Y-107405398D01*
X105501603Y-107423966D01*
X105532048Y-107448952D01*
X105557034Y-107479397D01*
X105575602Y-107514136D01*
X105587035Y-107551823D01*
X105591500Y-107597161D01*
X105591500Y-108683839D01*
X105587035Y-108729177D01*
X105575602Y-108766864D01*
X105557034Y-108801603D01*
X105532048Y-108832048D01*
X105501603Y-108857034D01*
X105466864Y-108875602D01*
X105429177Y-108887035D01*
X105383839Y-108891500D01*
X104547161Y-108891500D01*
X104501823Y-108887035D01*
X104464136Y-108875602D01*
X104429397Y-108857034D01*
X104398952Y-108832048D01*
X104373966Y-108801603D01*
X104355398Y-108766864D01*
X104343965Y-108729177D01*
X104339500Y-108683839D01*
X104339500Y-107597161D01*
X104343965Y-107551823D01*
X104355398Y-107514136D01*
X104373966Y-107479397D01*
X104398952Y-107448952D01*
X104429397Y-107423966D01*
X104464136Y-107405398D01*
X104501823Y-107393965D01*
X104547161Y-107389500D01*
X105383839Y-107389500D01*
X105429177Y-107393965D01*
X105429177Y-107393965D01*
G37*
G36*
X74885677Y-107330465D02*
X74923364Y-107341898D01*
X74958103Y-107360466D01*
X74988548Y-107385452D01*
X75013534Y-107415897D01*
X75032102Y-107450636D01*
X75043535Y-107488323D01*
X75048000Y-107533661D01*
X75048000Y-108620339D01*
X75043535Y-108665677D01*
X75032102Y-108703364D01*
X75013534Y-108738103D01*
X74988548Y-108768548D01*
X74958103Y-108793534D01*
X74923364Y-108812102D01*
X74885677Y-108823535D01*
X74840339Y-108828000D01*
X74003661Y-108828000D01*
X73958323Y-108823535D01*
X73920636Y-108812102D01*
X73885897Y-108793534D01*
X73855452Y-108768548D01*
X73830466Y-108738103D01*
X73811898Y-108703364D01*
X73800465Y-108665677D01*
X73796000Y-108620339D01*
X73796000Y-107533661D01*
X73800465Y-107488323D01*
X73811898Y-107450636D01*
X73830466Y-107415897D01*
X73855452Y-107385452D01*
X73885897Y-107360466D01*
X73920636Y-107341898D01*
X73958323Y-107330465D01*
X74003661Y-107326000D01*
X74840339Y-107326000D01*
X74885677Y-107330465D01*
X74885677Y-107330465D01*
G37*
G36*
X72835677Y-107330465D02*
X72873364Y-107341898D01*
X72908103Y-107360466D01*
X72938548Y-107385452D01*
X72963534Y-107415897D01*
X72982102Y-107450636D01*
X72993535Y-107488323D01*
X72998000Y-107533661D01*
X72998000Y-108620339D01*
X72993535Y-108665677D01*
X72982102Y-108703364D01*
X72963534Y-108738103D01*
X72938548Y-108768548D01*
X72908103Y-108793534D01*
X72873364Y-108812102D01*
X72835677Y-108823535D01*
X72790339Y-108828000D01*
X71953661Y-108828000D01*
X71908323Y-108823535D01*
X71870636Y-108812102D01*
X71835897Y-108793534D01*
X71805452Y-108768548D01*
X71780466Y-108738103D01*
X71761898Y-108703364D01*
X71750465Y-108665677D01*
X71746000Y-108620339D01*
X71746000Y-107533661D01*
X71750465Y-107488323D01*
X71761898Y-107450636D01*
X71780466Y-107415897D01*
X71805452Y-107385452D01*
X71835897Y-107360466D01*
X71870636Y-107341898D01*
X71908323Y-107330465D01*
X71953661Y-107326000D01*
X72790339Y-107326000D01*
X72835677Y-107330465D01*
X72835677Y-107330465D01*
G37*
G36*
X68535677Y-107330465D02*
X68573364Y-107341898D01*
X68608103Y-107360466D01*
X68638548Y-107385452D01*
X68663534Y-107415897D01*
X68682102Y-107450636D01*
X68693535Y-107488323D01*
X68698000Y-107533661D01*
X68698000Y-108620339D01*
X68693535Y-108665677D01*
X68682102Y-108703364D01*
X68663534Y-108738103D01*
X68638548Y-108768548D01*
X68608103Y-108793534D01*
X68573364Y-108812102D01*
X68535677Y-108823535D01*
X68490339Y-108828000D01*
X67653661Y-108828000D01*
X67608323Y-108823535D01*
X67570636Y-108812102D01*
X67535897Y-108793534D01*
X67505452Y-108768548D01*
X67480466Y-108738103D01*
X67461898Y-108703364D01*
X67450465Y-108665677D01*
X67446000Y-108620339D01*
X67446000Y-107533661D01*
X67450465Y-107488323D01*
X67461898Y-107450636D01*
X67480466Y-107415897D01*
X67505452Y-107385452D01*
X67535897Y-107360466D01*
X67570636Y-107341898D01*
X67608323Y-107330465D01*
X67653661Y-107326000D01*
X68490339Y-107326000D01*
X68535677Y-107330465D01*
X68535677Y-107330465D01*
G37*
G36*
X66485677Y-107330465D02*
X66523364Y-107341898D01*
X66558103Y-107360466D01*
X66588548Y-107385452D01*
X66613534Y-107415897D01*
X66632102Y-107450636D01*
X66643535Y-107488323D01*
X66648000Y-107533661D01*
X66648000Y-108620339D01*
X66643535Y-108665677D01*
X66632102Y-108703364D01*
X66613534Y-108738103D01*
X66588548Y-108768548D01*
X66558103Y-108793534D01*
X66523364Y-108812102D01*
X66485677Y-108823535D01*
X66440339Y-108828000D01*
X65603661Y-108828000D01*
X65558323Y-108823535D01*
X65520636Y-108812102D01*
X65485897Y-108793534D01*
X65455452Y-108768548D01*
X65430466Y-108738103D01*
X65411898Y-108703364D01*
X65400465Y-108665677D01*
X65396000Y-108620339D01*
X65396000Y-107533661D01*
X65400465Y-107488323D01*
X65411898Y-107450636D01*
X65430466Y-107415897D01*
X65455452Y-107385452D01*
X65485897Y-107360466D01*
X65520636Y-107341898D01*
X65558323Y-107330465D01*
X65603661Y-107326000D01*
X66440339Y-107326000D01*
X66485677Y-107330465D01*
X66485677Y-107330465D01*
G37*
G36*
X94390000Y-107277000D02*
X90788000Y-107277000D01*
X90788000Y-105575000D01*
X94390000Y-105575000D01*
X94390000Y-107277000D01*
X94390000Y-107277000D01*
G37*
G36*
X88790000Y-107277000D02*
X85188000Y-107277000D01*
X85188000Y-105575000D01*
X88790000Y-105575000D01*
X88790000Y-107277000D01*
X88790000Y-107277000D01*
G37*
G36*
X105429177Y-104091965D02*
X105466864Y-104103398D01*
X105501603Y-104121966D01*
X105532048Y-104146952D01*
X105557034Y-104177397D01*
X105575602Y-104212136D01*
X105587035Y-104249823D01*
X105591500Y-104295161D01*
X105591500Y-105381839D01*
X105587035Y-105427177D01*
X105575602Y-105464864D01*
X105557034Y-105499603D01*
X105532048Y-105530048D01*
X105501603Y-105555034D01*
X105466864Y-105573602D01*
X105429177Y-105585035D01*
X105383839Y-105589500D01*
X104547161Y-105589500D01*
X104501823Y-105585035D01*
X104464136Y-105573602D01*
X104429397Y-105555034D01*
X104398952Y-105530048D01*
X104373966Y-105499603D01*
X104355398Y-105464864D01*
X104343965Y-105427177D01*
X104339500Y-105381839D01*
X104339500Y-104295161D01*
X104343965Y-104249823D01*
X104355398Y-104212136D01*
X104373966Y-104177397D01*
X104398952Y-104146952D01*
X104429397Y-104121966D01*
X104464136Y-104103398D01*
X104501823Y-104091965D01*
X104547161Y-104087500D01*
X105383839Y-104087500D01*
X105429177Y-104091965D01*
X105429177Y-104091965D01*
G37*
G36*
X107479177Y-104091965D02*
X107516864Y-104103398D01*
X107551603Y-104121966D01*
X107582048Y-104146952D01*
X107607034Y-104177397D01*
X107625602Y-104212136D01*
X107637035Y-104249823D01*
X107641500Y-104295161D01*
X107641500Y-105381839D01*
X107637035Y-105427177D01*
X107625602Y-105464864D01*
X107607034Y-105499603D01*
X107582048Y-105530048D01*
X107551603Y-105555034D01*
X107516864Y-105573602D01*
X107479177Y-105585035D01*
X107433839Y-105589500D01*
X106597161Y-105589500D01*
X106551823Y-105585035D01*
X106514136Y-105573602D01*
X106479397Y-105555034D01*
X106448952Y-105530048D01*
X106423966Y-105499603D01*
X106405398Y-105464864D01*
X106393965Y-105427177D01*
X106389500Y-105381839D01*
X106389500Y-104295161D01*
X106393965Y-104249823D01*
X106405398Y-104212136D01*
X106423966Y-104177397D01*
X106448952Y-104146952D01*
X106479397Y-104121966D01*
X106514136Y-104103398D01*
X106551823Y-104091965D01*
X106597161Y-104087500D01*
X107433839Y-104087500D01*
X107479177Y-104091965D01*
X107479177Y-104091965D01*
G37*
G36*
X111888177Y-104091965D02*
X111925864Y-104103398D01*
X111960603Y-104121966D01*
X111991048Y-104146952D01*
X112016034Y-104177397D01*
X112034602Y-104212136D01*
X112046035Y-104249823D01*
X112050500Y-104295161D01*
X112050500Y-105381839D01*
X112046035Y-105427177D01*
X112034602Y-105464864D01*
X112016034Y-105499603D01*
X111991048Y-105530048D01*
X111960603Y-105555034D01*
X111925864Y-105573602D01*
X111888177Y-105585035D01*
X111842839Y-105589500D01*
X111006161Y-105589500D01*
X110960823Y-105585035D01*
X110923136Y-105573602D01*
X110888397Y-105555034D01*
X110857952Y-105530048D01*
X110832966Y-105499603D01*
X110814398Y-105464864D01*
X110802965Y-105427177D01*
X110798500Y-105381839D01*
X110798500Y-104295161D01*
X110802965Y-104249823D01*
X110814398Y-104212136D01*
X110832966Y-104177397D01*
X110857952Y-104146952D01*
X110888397Y-104121966D01*
X110923136Y-104103398D01*
X110960823Y-104091965D01*
X111006161Y-104087500D01*
X111842839Y-104087500D01*
X111888177Y-104091965D01*
X111888177Y-104091965D01*
G37*
G36*
X113938177Y-104091965D02*
X113975864Y-104103398D01*
X114010603Y-104121966D01*
X114041048Y-104146952D01*
X114066034Y-104177397D01*
X114084602Y-104212136D01*
X114096035Y-104249823D01*
X114100500Y-104295161D01*
X114100500Y-105381839D01*
X114096035Y-105427177D01*
X114084602Y-105464864D01*
X114066034Y-105499603D01*
X114041048Y-105530048D01*
X114010603Y-105555034D01*
X113975864Y-105573602D01*
X113938177Y-105585035D01*
X113892839Y-105589500D01*
X113056161Y-105589500D01*
X113010823Y-105585035D01*
X112973136Y-105573602D01*
X112938397Y-105555034D01*
X112907952Y-105530048D01*
X112882966Y-105499603D01*
X112864398Y-105464864D01*
X112852965Y-105427177D01*
X112848500Y-105381839D01*
X112848500Y-104295161D01*
X112852965Y-104249823D01*
X112864398Y-104212136D01*
X112882966Y-104177397D01*
X112907952Y-104146952D01*
X112938397Y-104121966D01*
X112973136Y-104103398D01*
X113010823Y-104091965D01*
X113056161Y-104087500D01*
X113892839Y-104087500D01*
X113938177Y-104091965D01*
X113938177Y-104091965D01*
G37*
G36*
X74885677Y-103901465D02*
X74923364Y-103912898D01*
X74958103Y-103931466D01*
X74988548Y-103956452D01*
X75013534Y-103986897D01*
X75032102Y-104021636D01*
X75043535Y-104059323D01*
X75048000Y-104104661D01*
X75048000Y-105191339D01*
X75043535Y-105236677D01*
X75032102Y-105274364D01*
X75013534Y-105309103D01*
X74988548Y-105339548D01*
X74958103Y-105364534D01*
X74923364Y-105383102D01*
X74885677Y-105394535D01*
X74840339Y-105399000D01*
X74003661Y-105399000D01*
X73958323Y-105394535D01*
X73920636Y-105383102D01*
X73885897Y-105364534D01*
X73855452Y-105339548D01*
X73830466Y-105309103D01*
X73811898Y-105274364D01*
X73800465Y-105236677D01*
X73796000Y-105191339D01*
X73796000Y-104104661D01*
X73800465Y-104059323D01*
X73811898Y-104021636D01*
X73830466Y-103986897D01*
X73855452Y-103956452D01*
X73885897Y-103931466D01*
X73920636Y-103912898D01*
X73958323Y-103901465D01*
X74003661Y-103897000D01*
X74840339Y-103897000D01*
X74885677Y-103901465D01*
X74885677Y-103901465D01*
G37*
G36*
X72835677Y-103901465D02*
X72873364Y-103912898D01*
X72908103Y-103931466D01*
X72938548Y-103956452D01*
X72963534Y-103986897D01*
X72982102Y-104021636D01*
X72993535Y-104059323D01*
X72998000Y-104104661D01*
X72998000Y-105191339D01*
X72993535Y-105236677D01*
X72982102Y-105274364D01*
X72963534Y-105309103D01*
X72938548Y-105339548D01*
X72908103Y-105364534D01*
X72873364Y-105383102D01*
X72835677Y-105394535D01*
X72790339Y-105399000D01*
X71953661Y-105399000D01*
X71908323Y-105394535D01*
X71870636Y-105383102D01*
X71835897Y-105364534D01*
X71805452Y-105339548D01*
X71780466Y-105309103D01*
X71761898Y-105274364D01*
X71750465Y-105236677D01*
X71746000Y-105191339D01*
X71746000Y-104104661D01*
X71750465Y-104059323D01*
X71761898Y-104021636D01*
X71780466Y-103986897D01*
X71805452Y-103956452D01*
X71835897Y-103931466D01*
X71870636Y-103912898D01*
X71908323Y-103901465D01*
X71953661Y-103897000D01*
X72790339Y-103897000D01*
X72835677Y-103901465D01*
X72835677Y-103901465D01*
G37*
G36*
X68535677Y-103901465D02*
X68573364Y-103912898D01*
X68608103Y-103931466D01*
X68638548Y-103956452D01*
X68663534Y-103986897D01*
X68682102Y-104021636D01*
X68693535Y-104059323D01*
X68698000Y-104104661D01*
X68698000Y-105191339D01*
X68693535Y-105236677D01*
X68682102Y-105274364D01*
X68663534Y-105309103D01*
X68638548Y-105339548D01*
X68608103Y-105364534D01*
X68573364Y-105383102D01*
X68535677Y-105394535D01*
X68490339Y-105399000D01*
X67653661Y-105399000D01*
X67608323Y-105394535D01*
X67570636Y-105383102D01*
X67535897Y-105364534D01*
X67505452Y-105339548D01*
X67480466Y-105309103D01*
X67461898Y-105274364D01*
X67450465Y-105236677D01*
X67446000Y-105191339D01*
X67446000Y-104104661D01*
X67450465Y-104059323D01*
X67461898Y-104021636D01*
X67480466Y-103986897D01*
X67505452Y-103956452D01*
X67535897Y-103931466D01*
X67570636Y-103912898D01*
X67608323Y-103901465D01*
X67653661Y-103897000D01*
X68490339Y-103897000D01*
X68535677Y-103901465D01*
X68535677Y-103901465D01*
G37*
G36*
X66485677Y-103901465D02*
X66523364Y-103912898D01*
X66558103Y-103931466D01*
X66588548Y-103956452D01*
X66613534Y-103986897D01*
X66632102Y-104021636D01*
X66643535Y-104059323D01*
X66648000Y-104104661D01*
X66648000Y-105191339D01*
X66643535Y-105236677D01*
X66632102Y-105274364D01*
X66613534Y-105309103D01*
X66588548Y-105339548D01*
X66558103Y-105364534D01*
X66523364Y-105383102D01*
X66485677Y-105394535D01*
X66440339Y-105399000D01*
X65603661Y-105399000D01*
X65558323Y-105394535D01*
X65520636Y-105383102D01*
X65485897Y-105364534D01*
X65455452Y-105339548D01*
X65430466Y-105309103D01*
X65411898Y-105274364D01*
X65400465Y-105236677D01*
X65396000Y-105191339D01*
X65396000Y-104104661D01*
X65400465Y-104059323D01*
X65411898Y-104021636D01*
X65430466Y-103986897D01*
X65455452Y-103956452D01*
X65485897Y-103931466D01*
X65520636Y-103912898D01*
X65558323Y-103901465D01*
X65603661Y-103897000D01*
X66440339Y-103897000D01*
X66485677Y-103901465D01*
X66485677Y-103901465D01*
G37*
G36*
X111888177Y-100916965D02*
X111925864Y-100928398D01*
X111960603Y-100946966D01*
X111991048Y-100971952D01*
X112016034Y-101002397D01*
X112034602Y-101037136D01*
X112046035Y-101074823D01*
X112050500Y-101120161D01*
X112050500Y-102206839D01*
X112046035Y-102252177D01*
X112034602Y-102289864D01*
X112016034Y-102324603D01*
X111991048Y-102355048D01*
X111960603Y-102380034D01*
X111925864Y-102398602D01*
X111888177Y-102410035D01*
X111842839Y-102414500D01*
X111006161Y-102414500D01*
X110960823Y-102410035D01*
X110923136Y-102398602D01*
X110888397Y-102380034D01*
X110857952Y-102355048D01*
X110832966Y-102324603D01*
X110814398Y-102289864D01*
X110802965Y-102252177D01*
X110798500Y-102206839D01*
X110798500Y-101120161D01*
X110802965Y-101074823D01*
X110814398Y-101037136D01*
X110832966Y-101002397D01*
X110857952Y-100971952D01*
X110888397Y-100946966D01*
X110923136Y-100928398D01*
X110960823Y-100916965D01*
X111006161Y-100912500D01*
X111842839Y-100912500D01*
X111888177Y-100916965D01*
X111888177Y-100916965D01*
G37*
G36*
X113938177Y-100916965D02*
X113975864Y-100928398D01*
X114010603Y-100946966D01*
X114041048Y-100971952D01*
X114066034Y-101002397D01*
X114084602Y-101037136D01*
X114096035Y-101074823D01*
X114100500Y-101120161D01*
X114100500Y-102206839D01*
X114096035Y-102252177D01*
X114084602Y-102289864D01*
X114066034Y-102324603D01*
X114041048Y-102355048D01*
X114010603Y-102380034D01*
X113975864Y-102398602D01*
X113938177Y-102410035D01*
X113892839Y-102414500D01*
X113056161Y-102414500D01*
X113010823Y-102410035D01*
X112973136Y-102398602D01*
X112938397Y-102380034D01*
X112907952Y-102355048D01*
X112882966Y-102324603D01*
X112864398Y-102289864D01*
X112852965Y-102252177D01*
X112848500Y-102206839D01*
X112848500Y-101120161D01*
X112852965Y-101074823D01*
X112864398Y-101037136D01*
X112882966Y-101002397D01*
X112907952Y-100971952D01*
X112938397Y-100946966D01*
X112973136Y-100928398D01*
X113010823Y-100916965D01*
X113056161Y-100912500D01*
X113892839Y-100912500D01*
X113938177Y-100916965D01*
X113938177Y-100916965D01*
G37*
G36*
X105302177Y-100789965D02*
X105339864Y-100801398D01*
X105374603Y-100819966D01*
X105405048Y-100844952D01*
X105430034Y-100875397D01*
X105448602Y-100910136D01*
X105460035Y-100947823D01*
X105464500Y-100993161D01*
X105464500Y-102079839D01*
X105460035Y-102125177D01*
X105448602Y-102162864D01*
X105430034Y-102197603D01*
X105405048Y-102228048D01*
X105374603Y-102253034D01*
X105339864Y-102271602D01*
X105302177Y-102283035D01*
X105256839Y-102287500D01*
X104420161Y-102287500D01*
X104374823Y-102283035D01*
X104337136Y-102271602D01*
X104302397Y-102253034D01*
X104271952Y-102228048D01*
X104246966Y-102197603D01*
X104228398Y-102162864D01*
X104216965Y-102125177D01*
X104212500Y-102079839D01*
X104212500Y-100993161D01*
X104216965Y-100947823D01*
X104228398Y-100910136D01*
X104246966Y-100875397D01*
X104271952Y-100844952D01*
X104302397Y-100819966D01*
X104337136Y-100801398D01*
X104374823Y-100789965D01*
X104420161Y-100785500D01*
X105256839Y-100785500D01*
X105302177Y-100789965D01*
X105302177Y-100789965D01*
G37*
G36*
X107352177Y-100789965D02*
X107389864Y-100801398D01*
X107424603Y-100819966D01*
X107455048Y-100844952D01*
X107480034Y-100875397D01*
X107498602Y-100910136D01*
X107510035Y-100947823D01*
X107514500Y-100993161D01*
X107514500Y-102079839D01*
X107510035Y-102125177D01*
X107498602Y-102162864D01*
X107480034Y-102197603D01*
X107455048Y-102228048D01*
X107424603Y-102253034D01*
X107389864Y-102271602D01*
X107352177Y-102283035D01*
X107306839Y-102287500D01*
X106470161Y-102287500D01*
X106424823Y-102283035D01*
X106387136Y-102271602D01*
X106352397Y-102253034D01*
X106321952Y-102228048D01*
X106296966Y-102197603D01*
X106278398Y-102162864D01*
X106266965Y-102125177D01*
X106262500Y-102079839D01*
X106262500Y-100993161D01*
X106266965Y-100947823D01*
X106278398Y-100910136D01*
X106296966Y-100875397D01*
X106321952Y-100844952D01*
X106352397Y-100819966D01*
X106387136Y-100801398D01*
X106424823Y-100789965D01*
X106470161Y-100785500D01*
X107306839Y-100785500D01*
X107352177Y-100789965D01*
X107352177Y-100789965D01*
G37*
G36*
X66485677Y-100599465D02*
X66523364Y-100610898D01*
X66558103Y-100629466D01*
X66588548Y-100654452D01*
X66613534Y-100684897D01*
X66632102Y-100719636D01*
X66643535Y-100757323D01*
X66648000Y-100802661D01*
X66648000Y-101889339D01*
X66643535Y-101934677D01*
X66632102Y-101972364D01*
X66613534Y-102007103D01*
X66588548Y-102037548D01*
X66558103Y-102062534D01*
X66523364Y-102081102D01*
X66485677Y-102092535D01*
X66440339Y-102097000D01*
X65603661Y-102097000D01*
X65558323Y-102092535D01*
X65520636Y-102081102D01*
X65485897Y-102062534D01*
X65455452Y-102037548D01*
X65430466Y-102007103D01*
X65411898Y-101972364D01*
X65400465Y-101934677D01*
X65396000Y-101889339D01*
X65396000Y-100802661D01*
X65400465Y-100757323D01*
X65411898Y-100719636D01*
X65430466Y-100684897D01*
X65455452Y-100654452D01*
X65485897Y-100629466D01*
X65520636Y-100610898D01*
X65558323Y-100599465D01*
X65603661Y-100595000D01*
X66440339Y-100595000D01*
X66485677Y-100599465D01*
X66485677Y-100599465D01*
G37*
G36*
X68535677Y-100599465D02*
X68573364Y-100610898D01*
X68608103Y-100629466D01*
X68638548Y-100654452D01*
X68663534Y-100684897D01*
X68682102Y-100719636D01*
X68693535Y-100757323D01*
X68698000Y-100802661D01*
X68698000Y-101889339D01*
X68693535Y-101934677D01*
X68682102Y-101972364D01*
X68663534Y-102007103D01*
X68638548Y-102037548D01*
X68608103Y-102062534D01*
X68573364Y-102081102D01*
X68535677Y-102092535D01*
X68490339Y-102097000D01*
X67653661Y-102097000D01*
X67608323Y-102092535D01*
X67570636Y-102081102D01*
X67535897Y-102062534D01*
X67505452Y-102037548D01*
X67480466Y-102007103D01*
X67461898Y-101972364D01*
X67450465Y-101934677D01*
X67446000Y-101889339D01*
X67446000Y-100802661D01*
X67450465Y-100757323D01*
X67461898Y-100719636D01*
X67480466Y-100684897D01*
X67505452Y-100654452D01*
X67535897Y-100629466D01*
X67570636Y-100610898D01*
X67608323Y-100599465D01*
X67653661Y-100595000D01*
X68490339Y-100595000D01*
X68535677Y-100599465D01*
X68535677Y-100599465D01*
G37*
G36*
X72835677Y-100599465D02*
X72873364Y-100610898D01*
X72908103Y-100629466D01*
X72938548Y-100654452D01*
X72963534Y-100684897D01*
X72982102Y-100719636D01*
X72993535Y-100757323D01*
X72998000Y-100802661D01*
X72998000Y-101889339D01*
X72993535Y-101934677D01*
X72982102Y-101972364D01*
X72963534Y-102007103D01*
X72938548Y-102037548D01*
X72908103Y-102062534D01*
X72873364Y-102081102D01*
X72835677Y-102092535D01*
X72790339Y-102097000D01*
X71953661Y-102097000D01*
X71908323Y-102092535D01*
X71870636Y-102081102D01*
X71835897Y-102062534D01*
X71805452Y-102037548D01*
X71780466Y-102007103D01*
X71761898Y-101972364D01*
X71750465Y-101934677D01*
X71746000Y-101889339D01*
X71746000Y-100802661D01*
X71750465Y-100757323D01*
X71761898Y-100719636D01*
X71780466Y-100684897D01*
X71805452Y-100654452D01*
X71835897Y-100629466D01*
X71870636Y-100610898D01*
X71908323Y-100599465D01*
X71953661Y-100595000D01*
X72790339Y-100595000D01*
X72835677Y-100599465D01*
X72835677Y-100599465D01*
G37*
G36*
X74885677Y-100599465D02*
X74923364Y-100610898D01*
X74958103Y-100629466D01*
X74988548Y-100654452D01*
X75013534Y-100684897D01*
X75032102Y-100719636D01*
X75043535Y-100757323D01*
X75048000Y-100802661D01*
X75048000Y-101889339D01*
X75043535Y-101934677D01*
X75032102Y-101972364D01*
X75013534Y-102007103D01*
X74988548Y-102037548D01*
X74958103Y-102062534D01*
X74923364Y-102081102D01*
X74885677Y-102092535D01*
X74840339Y-102097000D01*
X74003661Y-102097000D01*
X73958323Y-102092535D01*
X73920636Y-102081102D01*
X73885897Y-102062534D01*
X73855452Y-102037548D01*
X73830466Y-102007103D01*
X73811898Y-101972364D01*
X73800465Y-101934677D01*
X73796000Y-101889339D01*
X73796000Y-100802661D01*
X73800465Y-100757323D01*
X73811898Y-100719636D01*
X73830466Y-100684897D01*
X73855452Y-100654452D01*
X73885897Y-100629466D01*
X73920636Y-100610898D01*
X73958323Y-100599465D01*
X74003661Y-100595000D01*
X74840339Y-100595000D01*
X74885677Y-100599465D01*
X74885677Y-100599465D01*
G37*
G36*
X94261500Y-100087500D02*
X92859500Y-100087500D01*
X92859500Y-99185500D01*
X94261500Y-99185500D01*
X94261500Y-100087500D01*
X94261500Y-100087500D01*
G37*
G36*
X80926500Y-100087500D02*
X79524500Y-100087500D01*
X79524500Y-99185500D01*
X80926500Y-99185500D01*
X80926500Y-100087500D01*
X80926500Y-100087500D01*
G37*
G36*
X100561500Y-100087500D02*
X99159500Y-100087500D01*
X99159500Y-99185500D01*
X100561500Y-99185500D01*
X100561500Y-100087500D01*
X100561500Y-100087500D01*
G37*
G36*
X87226500Y-100087500D02*
X85824500Y-100087500D01*
X85824500Y-99185500D01*
X87226500Y-99185500D01*
X87226500Y-100087500D01*
X87226500Y-100087500D01*
G37*
G36*
X111888177Y-97614965D02*
X111925864Y-97626398D01*
X111960603Y-97644966D01*
X111991048Y-97669952D01*
X112016034Y-97700397D01*
X112034602Y-97735136D01*
X112046035Y-97772823D01*
X112050500Y-97818161D01*
X112050500Y-98904839D01*
X112046035Y-98950177D01*
X112034602Y-98987864D01*
X112016034Y-99022603D01*
X111991048Y-99053048D01*
X111960603Y-99078034D01*
X111925864Y-99096602D01*
X111888177Y-99108035D01*
X111842839Y-99112500D01*
X111006161Y-99112500D01*
X110960823Y-99108035D01*
X110923136Y-99096602D01*
X110888397Y-99078034D01*
X110857952Y-99053048D01*
X110832966Y-99022603D01*
X110814398Y-98987864D01*
X110802965Y-98950177D01*
X110798500Y-98904839D01*
X110798500Y-97818161D01*
X110802965Y-97772823D01*
X110814398Y-97735136D01*
X110832966Y-97700397D01*
X110857952Y-97669952D01*
X110888397Y-97644966D01*
X110923136Y-97626398D01*
X110960823Y-97614965D01*
X111006161Y-97610500D01*
X111842839Y-97610500D01*
X111888177Y-97614965D01*
X111888177Y-97614965D01*
G37*
G36*
X113938177Y-97614965D02*
X113975864Y-97626398D01*
X114010603Y-97644966D01*
X114041048Y-97669952D01*
X114066034Y-97700397D01*
X114084602Y-97735136D01*
X114096035Y-97772823D01*
X114100500Y-97818161D01*
X114100500Y-98904839D01*
X114096035Y-98950177D01*
X114084602Y-98987864D01*
X114066034Y-99022603D01*
X114041048Y-99053048D01*
X114010603Y-99078034D01*
X113975864Y-99096602D01*
X113938177Y-99108035D01*
X113892839Y-99112500D01*
X113056161Y-99112500D01*
X113010823Y-99108035D01*
X112973136Y-99096602D01*
X112938397Y-99078034D01*
X112907952Y-99053048D01*
X112882966Y-99022603D01*
X112864398Y-98987864D01*
X112852965Y-98950177D01*
X112848500Y-98904839D01*
X112848500Y-97818161D01*
X112852965Y-97772823D01*
X112864398Y-97735136D01*
X112882966Y-97700397D01*
X112907952Y-97669952D01*
X112938397Y-97644966D01*
X112973136Y-97626398D01*
X113010823Y-97614965D01*
X113056161Y-97610500D01*
X113892839Y-97610500D01*
X113938177Y-97614965D01*
X113938177Y-97614965D01*
G37*
G36*
X105293177Y-97614965D02*
X105330864Y-97626398D01*
X105365603Y-97644966D01*
X105396048Y-97669952D01*
X105421034Y-97700397D01*
X105439602Y-97735136D01*
X105451035Y-97772823D01*
X105455500Y-97818161D01*
X105455500Y-98904839D01*
X105451035Y-98950177D01*
X105439602Y-98987864D01*
X105421034Y-99022603D01*
X105396048Y-99053048D01*
X105365603Y-99078034D01*
X105330864Y-99096602D01*
X105293177Y-99108035D01*
X105247839Y-99112500D01*
X104411161Y-99112500D01*
X104365823Y-99108035D01*
X104328136Y-99096602D01*
X104293397Y-99078034D01*
X104262952Y-99053048D01*
X104237966Y-99022603D01*
X104219398Y-98987864D01*
X104207965Y-98950177D01*
X104203500Y-98904839D01*
X104203500Y-97818161D01*
X104207965Y-97772823D01*
X104219398Y-97735136D01*
X104237966Y-97700397D01*
X104262952Y-97669952D01*
X104293397Y-97644966D01*
X104328136Y-97626398D01*
X104365823Y-97614965D01*
X104411161Y-97610500D01*
X105247839Y-97610500D01*
X105293177Y-97614965D01*
X105293177Y-97614965D01*
G37*
G36*
X107343177Y-97614965D02*
X107380864Y-97626398D01*
X107415603Y-97644966D01*
X107446048Y-97669952D01*
X107471034Y-97700397D01*
X107489602Y-97735136D01*
X107501035Y-97772823D01*
X107505500Y-97818161D01*
X107505500Y-98904839D01*
X107501035Y-98950177D01*
X107489602Y-98987864D01*
X107471034Y-99022603D01*
X107446048Y-99053048D01*
X107415603Y-99078034D01*
X107380864Y-99096602D01*
X107343177Y-99108035D01*
X107297839Y-99112500D01*
X106461161Y-99112500D01*
X106415823Y-99108035D01*
X106378136Y-99096602D01*
X106343397Y-99078034D01*
X106312952Y-99053048D01*
X106287966Y-99022603D01*
X106269398Y-98987864D01*
X106257965Y-98950177D01*
X106253500Y-98904839D01*
X106253500Y-97818161D01*
X106257965Y-97772823D01*
X106269398Y-97735136D01*
X106287966Y-97700397D01*
X106312952Y-97669952D01*
X106343397Y-97644966D01*
X106378136Y-97626398D01*
X106415823Y-97614965D01*
X106461161Y-97610500D01*
X107297839Y-97610500D01*
X107343177Y-97614965D01*
X107343177Y-97614965D01*
G37*
G36*
X66485677Y-97424465D02*
X66523364Y-97435898D01*
X66558103Y-97454466D01*
X66588548Y-97479452D01*
X66613534Y-97509897D01*
X66632102Y-97544636D01*
X66643535Y-97582323D01*
X66648000Y-97627661D01*
X66648000Y-98714339D01*
X66643535Y-98759677D01*
X66632102Y-98797364D01*
X66613534Y-98832103D01*
X66588548Y-98862548D01*
X66558103Y-98887534D01*
X66523364Y-98906102D01*
X66485677Y-98917535D01*
X66440339Y-98922000D01*
X65603661Y-98922000D01*
X65558323Y-98917535D01*
X65520636Y-98906102D01*
X65485897Y-98887534D01*
X65455452Y-98862548D01*
X65430466Y-98832103D01*
X65411898Y-98797364D01*
X65400465Y-98759677D01*
X65396000Y-98714339D01*
X65396000Y-97627661D01*
X65400465Y-97582323D01*
X65411898Y-97544636D01*
X65430466Y-97509897D01*
X65455452Y-97479452D01*
X65485897Y-97454466D01*
X65520636Y-97435898D01*
X65558323Y-97424465D01*
X65603661Y-97420000D01*
X66440339Y-97420000D01*
X66485677Y-97424465D01*
X66485677Y-97424465D01*
G37*
G36*
X68535677Y-97424465D02*
X68573364Y-97435898D01*
X68608103Y-97454466D01*
X68638548Y-97479452D01*
X68663534Y-97509897D01*
X68682102Y-97544636D01*
X68693535Y-97582323D01*
X68698000Y-97627661D01*
X68698000Y-98714339D01*
X68693535Y-98759677D01*
X68682102Y-98797364D01*
X68663534Y-98832103D01*
X68638548Y-98862548D01*
X68608103Y-98887534D01*
X68573364Y-98906102D01*
X68535677Y-98917535D01*
X68490339Y-98922000D01*
X67653661Y-98922000D01*
X67608323Y-98917535D01*
X67570636Y-98906102D01*
X67535897Y-98887534D01*
X67505452Y-98862548D01*
X67480466Y-98832103D01*
X67461898Y-98797364D01*
X67450465Y-98759677D01*
X67446000Y-98714339D01*
X67446000Y-97627661D01*
X67450465Y-97582323D01*
X67461898Y-97544636D01*
X67480466Y-97509897D01*
X67505452Y-97479452D01*
X67535897Y-97454466D01*
X67570636Y-97435898D01*
X67608323Y-97424465D01*
X67653661Y-97420000D01*
X68490339Y-97420000D01*
X68535677Y-97424465D01*
X68535677Y-97424465D01*
G37*
G36*
X94261500Y-98807500D02*
X92859500Y-98807500D01*
X92859500Y-97905500D01*
X94261500Y-97905500D01*
X94261500Y-98807500D01*
X94261500Y-98807500D01*
G37*
G36*
X87226500Y-98807500D02*
X85824500Y-98807500D01*
X85824500Y-97905500D01*
X87226500Y-97905500D01*
X87226500Y-98807500D01*
X87226500Y-98807500D01*
G37*
G36*
X100561500Y-98807500D02*
X99159500Y-98807500D01*
X99159500Y-97905500D01*
X100561500Y-97905500D01*
X100561500Y-98807500D01*
X100561500Y-98807500D01*
G37*
G36*
X80926500Y-98807500D02*
X79524500Y-98807500D01*
X79524500Y-97905500D01*
X80926500Y-97905500D01*
X80926500Y-98807500D01*
X80926500Y-98807500D01*
G37*
G36*
X72835677Y-97297465D02*
X72873364Y-97308898D01*
X72908103Y-97327466D01*
X72938548Y-97352452D01*
X72963534Y-97382897D01*
X72982102Y-97417636D01*
X72993535Y-97455323D01*
X72998000Y-97500661D01*
X72998000Y-98587339D01*
X72993535Y-98632677D01*
X72982102Y-98670364D01*
X72963534Y-98705103D01*
X72938548Y-98735548D01*
X72908103Y-98760534D01*
X72873364Y-98779102D01*
X72835677Y-98790535D01*
X72790339Y-98795000D01*
X71953661Y-98795000D01*
X71908323Y-98790535D01*
X71870636Y-98779102D01*
X71835897Y-98760534D01*
X71805452Y-98735548D01*
X71780466Y-98705103D01*
X71761898Y-98670364D01*
X71750465Y-98632677D01*
X71746000Y-98587339D01*
X71746000Y-97500661D01*
X71750465Y-97455323D01*
X71761898Y-97417636D01*
X71780466Y-97382897D01*
X71805452Y-97352452D01*
X71835897Y-97327466D01*
X71870636Y-97308898D01*
X71908323Y-97297465D01*
X71953661Y-97293000D01*
X72790339Y-97293000D01*
X72835677Y-97297465D01*
X72835677Y-97297465D01*
G37*
G36*
X74885677Y-97297465D02*
X74923364Y-97308898D01*
X74958103Y-97327466D01*
X74988548Y-97352452D01*
X75013534Y-97382897D01*
X75032102Y-97417636D01*
X75043535Y-97455323D01*
X75048000Y-97500661D01*
X75048000Y-98587339D01*
X75043535Y-98632677D01*
X75032102Y-98670364D01*
X75013534Y-98705103D01*
X74988548Y-98735548D01*
X74958103Y-98760534D01*
X74923364Y-98779102D01*
X74885677Y-98790535D01*
X74840339Y-98795000D01*
X74003661Y-98795000D01*
X73958323Y-98790535D01*
X73920636Y-98779102D01*
X73885897Y-98760534D01*
X73855452Y-98735548D01*
X73830466Y-98705103D01*
X73811898Y-98670364D01*
X73800465Y-98632677D01*
X73796000Y-98587339D01*
X73796000Y-97500661D01*
X73800465Y-97455323D01*
X73811898Y-97417636D01*
X73830466Y-97382897D01*
X73855452Y-97352452D01*
X73885897Y-97327466D01*
X73920636Y-97308898D01*
X73958323Y-97297465D01*
X74003661Y-97293000D01*
X74840339Y-97293000D01*
X74885677Y-97297465D01*
X74885677Y-97297465D01*
G37*
G36*
X80926500Y-97547500D02*
X79524500Y-97547500D01*
X79524500Y-96645500D01*
X80926500Y-96645500D01*
X80926500Y-97547500D01*
X80926500Y-97547500D01*
G37*
G36*
X94261500Y-97547500D02*
X92859500Y-97547500D01*
X92859500Y-96645500D01*
X94261500Y-96645500D01*
X94261500Y-97547500D01*
X94261500Y-97547500D01*
G37*
G36*
X100561500Y-97547500D02*
X99159500Y-97547500D01*
X99159500Y-96645500D01*
X100561500Y-96645500D01*
X100561500Y-97547500D01*
X100561500Y-97547500D01*
G37*
G36*
X87226500Y-97547500D02*
X85824500Y-97547500D01*
X85824500Y-96645500D01*
X87226500Y-96645500D01*
X87226500Y-97547500D01*
X87226500Y-97547500D01*
G37*
G36*
X94261500Y-96277500D02*
X92859500Y-96277500D01*
X92859500Y-95375500D01*
X94261500Y-95375500D01*
X94261500Y-96277500D01*
X94261500Y-96277500D01*
G37*
G36*
X100561500Y-96277500D02*
X99159500Y-96277500D01*
X99159500Y-95375500D01*
X100561500Y-95375500D01*
X100561500Y-96277500D01*
X100561500Y-96277500D01*
G37*
G36*
X87226500Y-96277500D02*
X85824500Y-96277500D01*
X85824500Y-95375500D01*
X87226500Y-95375500D01*
X87226500Y-96277500D01*
X87226500Y-96277500D01*
G37*
G36*
X80926500Y-96277500D02*
X79524500Y-96277500D01*
X79524500Y-95375500D01*
X80926500Y-95375500D01*
X80926500Y-96277500D01*
X80926500Y-96277500D01*
G37*
G36*
X105284177Y-94439965D02*
X105321864Y-94451398D01*
X105356603Y-94469966D01*
X105387048Y-94494952D01*
X105412034Y-94525397D01*
X105430602Y-94560136D01*
X105442035Y-94597823D01*
X105446500Y-94643161D01*
X105446500Y-95729839D01*
X105442035Y-95775177D01*
X105430602Y-95812864D01*
X105412034Y-95847603D01*
X105387048Y-95878048D01*
X105356603Y-95903034D01*
X105321864Y-95921602D01*
X105284177Y-95933035D01*
X105238839Y-95937500D01*
X104402161Y-95937500D01*
X104356823Y-95933035D01*
X104319136Y-95921602D01*
X104284397Y-95903034D01*
X104253952Y-95878048D01*
X104228966Y-95847603D01*
X104210398Y-95812864D01*
X104198965Y-95775177D01*
X104194500Y-95729839D01*
X104194500Y-94643161D01*
X104198965Y-94597823D01*
X104210398Y-94560136D01*
X104228966Y-94525397D01*
X104253952Y-94494952D01*
X104284397Y-94469966D01*
X104319136Y-94451398D01*
X104356823Y-94439965D01*
X104402161Y-94435500D01*
X105238839Y-94435500D01*
X105284177Y-94439965D01*
X105284177Y-94439965D01*
G37*
G36*
X113874677Y-94439965D02*
X113912364Y-94451398D01*
X113947103Y-94469966D01*
X113977548Y-94494952D01*
X114002534Y-94525397D01*
X114021102Y-94560136D01*
X114032535Y-94597823D01*
X114037000Y-94643161D01*
X114037000Y-95729839D01*
X114032535Y-95775177D01*
X114021102Y-95812864D01*
X114002534Y-95847603D01*
X113977548Y-95878048D01*
X113947103Y-95903034D01*
X113912364Y-95921602D01*
X113874677Y-95933035D01*
X113829339Y-95937500D01*
X112992661Y-95937500D01*
X112947323Y-95933035D01*
X112909636Y-95921602D01*
X112874897Y-95903034D01*
X112844452Y-95878048D01*
X112819466Y-95847603D01*
X112800898Y-95812864D01*
X112789465Y-95775177D01*
X112785000Y-95729839D01*
X112785000Y-94643161D01*
X112789465Y-94597823D01*
X112800898Y-94560136D01*
X112819466Y-94525397D01*
X112844452Y-94494952D01*
X112874897Y-94469966D01*
X112909636Y-94451398D01*
X112947323Y-94439965D01*
X112992661Y-94435500D01*
X113829339Y-94435500D01*
X113874677Y-94439965D01*
X113874677Y-94439965D01*
G37*
G36*
X107334177Y-94439965D02*
X107371864Y-94451398D01*
X107406603Y-94469966D01*
X107437048Y-94494952D01*
X107462034Y-94525397D01*
X107480602Y-94560136D01*
X107492035Y-94597823D01*
X107496500Y-94643161D01*
X107496500Y-95729839D01*
X107492035Y-95775177D01*
X107480602Y-95812864D01*
X107462034Y-95847603D01*
X107437048Y-95878048D01*
X107406603Y-95903034D01*
X107371864Y-95921602D01*
X107334177Y-95933035D01*
X107288839Y-95937500D01*
X106452161Y-95937500D01*
X106406823Y-95933035D01*
X106369136Y-95921602D01*
X106334397Y-95903034D01*
X106303952Y-95878048D01*
X106278966Y-95847603D01*
X106260398Y-95812864D01*
X106248965Y-95775177D01*
X106244500Y-95729839D01*
X106244500Y-94643161D01*
X106248965Y-94597823D01*
X106260398Y-94560136D01*
X106278966Y-94525397D01*
X106303952Y-94494952D01*
X106334397Y-94469966D01*
X106369136Y-94451398D01*
X106406823Y-94439965D01*
X106452161Y-94435500D01*
X107288839Y-94435500D01*
X107334177Y-94439965D01*
X107334177Y-94439965D01*
G37*
G36*
X111824677Y-94439965D02*
X111862364Y-94451398D01*
X111897103Y-94469966D01*
X111927548Y-94494952D01*
X111952534Y-94525397D01*
X111971102Y-94560136D01*
X111982535Y-94597823D01*
X111987000Y-94643161D01*
X111987000Y-95729839D01*
X111982535Y-95775177D01*
X111971102Y-95812864D01*
X111952534Y-95847603D01*
X111927548Y-95878048D01*
X111897103Y-95903034D01*
X111862364Y-95921602D01*
X111824677Y-95933035D01*
X111779339Y-95937500D01*
X110942661Y-95937500D01*
X110897323Y-95933035D01*
X110859636Y-95921602D01*
X110824897Y-95903034D01*
X110794452Y-95878048D01*
X110769466Y-95847603D01*
X110750898Y-95812864D01*
X110739465Y-95775177D01*
X110735000Y-95729839D01*
X110735000Y-94643161D01*
X110739465Y-94597823D01*
X110750898Y-94560136D01*
X110769466Y-94525397D01*
X110794452Y-94494952D01*
X110824897Y-94469966D01*
X110859636Y-94451398D01*
X110897323Y-94439965D01*
X110942661Y-94435500D01*
X111779339Y-94435500D01*
X111824677Y-94439965D01*
X111824677Y-94439965D01*
G37*
G36*
X72835677Y-94122465D02*
X72873364Y-94133898D01*
X72908103Y-94152466D01*
X72938548Y-94177452D01*
X72963534Y-94207897D01*
X72982102Y-94242636D01*
X72993535Y-94280323D01*
X72998000Y-94325661D01*
X72998000Y-95412339D01*
X72993535Y-95457677D01*
X72982102Y-95495364D01*
X72963534Y-95530103D01*
X72938548Y-95560548D01*
X72908103Y-95585534D01*
X72873364Y-95604102D01*
X72835677Y-95615535D01*
X72790339Y-95620000D01*
X71953661Y-95620000D01*
X71908323Y-95615535D01*
X71870636Y-95604102D01*
X71835897Y-95585534D01*
X71805452Y-95560548D01*
X71780466Y-95530103D01*
X71761898Y-95495364D01*
X71750465Y-95457677D01*
X71746000Y-95412339D01*
X71746000Y-94325661D01*
X71750465Y-94280323D01*
X71761898Y-94242636D01*
X71780466Y-94207897D01*
X71805452Y-94177452D01*
X71835897Y-94152466D01*
X71870636Y-94133898D01*
X71908323Y-94122465D01*
X71953661Y-94118000D01*
X72790339Y-94118000D01*
X72835677Y-94122465D01*
X72835677Y-94122465D01*
G37*
G36*
X74885677Y-94122465D02*
X74923364Y-94133898D01*
X74958103Y-94152466D01*
X74988548Y-94177452D01*
X75013534Y-94207897D01*
X75032102Y-94242636D01*
X75043535Y-94280323D01*
X75048000Y-94325661D01*
X75048000Y-95412339D01*
X75043535Y-95457677D01*
X75032102Y-95495364D01*
X75013534Y-95530103D01*
X74988548Y-95560548D01*
X74958103Y-95585534D01*
X74923364Y-95604102D01*
X74885677Y-95615535D01*
X74840339Y-95620000D01*
X74003661Y-95620000D01*
X73958323Y-95615535D01*
X73920636Y-95604102D01*
X73885897Y-95585534D01*
X73855452Y-95560548D01*
X73830466Y-95530103D01*
X73811898Y-95495364D01*
X73800465Y-95457677D01*
X73796000Y-95412339D01*
X73796000Y-94325661D01*
X73800465Y-94280323D01*
X73811898Y-94242636D01*
X73830466Y-94207897D01*
X73855452Y-94177452D01*
X73885897Y-94152466D01*
X73920636Y-94133898D01*
X73958323Y-94122465D01*
X74003661Y-94118000D01*
X74840339Y-94118000D01*
X74885677Y-94122465D01*
X74885677Y-94122465D01*
G37*
G36*
X68535677Y-94122465D02*
X68573364Y-94133898D01*
X68608103Y-94152466D01*
X68638548Y-94177452D01*
X68663534Y-94207897D01*
X68682102Y-94242636D01*
X68693535Y-94280323D01*
X68698000Y-94325661D01*
X68698000Y-95412339D01*
X68693535Y-95457677D01*
X68682102Y-95495364D01*
X68663534Y-95530103D01*
X68638548Y-95560548D01*
X68608103Y-95585534D01*
X68573364Y-95604102D01*
X68535677Y-95615535D01*
X68490339Y-95620000D01*
X67653661Y-95620000D01*
X67608323Y-95615535D01*
X67570636Y-95604102D01*
X67535897Y-95585534D01*
X67505452Y-95560548D01*
X67480466Y-95530103D01*
X67461898Y-95495364D01*
X67450465Y-95457677D01*
X67446000Y-95412339D01*
X67446000Y-94325661D01*
X67450465Y-94280323D01*
X67461898Y-94242636D01*
X67480466Y-94207897D01*
X67505452Y-94177452D01*
X67535897Y-94152466D01*
X67570636Y-94133898D01*
X67608323Y-94122465D01*
X67653661Y-94118000D01*
X68490339Y-94118000D01*
X68535677Y-94122465D01*
X68535677Y-94122465D01*
G37*
G36*
X66485677Y-94122465D02*
X66523364Y-94133898D01*
X66558103Y-94152466D01*
X66588548Y-94177452D01*
X66613534Y-94207897D01*
X66632102Y-94242636D01*
X66643535Y-94280323D01*
X66648000Y-94325661D01*
X66648000Y-95412339D01*
X66643535Y-95457677D01*
X66632102Y-95495364D01*
X66613534Y-95530103D01*
X66588548Y-95560548D01*
X66558103Y-95585534D01*
X66523364Y-95604102D01*
X66485677Y-95615535D01*
X66440339Y-95620000D01*
X65603661Y-95620000D01*
X65558323Y-95615535D01*
X65520636Y-95604102D01*
X65485897Y-95585534D01*
X65455452Y-95560548D01*
X65430466Y-95530103D01*
X65411898Y-95495364D01*
X65400465Y-95457677D01*
X65396000Y-95412339D01*
X65396000Y-94325661D01*
X65400465Y-94280323D01*
X65411898Y-94242636D01*
X65430466Y-94207897D01*
X65455452Y-94177452D01*
X65485897Y-94152466D01*
X65520636Y-94133898D01*
X65558323Y-94122465D01*
X65603661Y-94118000D01*
X66440339Y-94118000D01*
X66485677Y-94122465D01*
X66485677Y-94122465D01*
G37*
G36*
X87226500Y-94997500D02*
X85824500Y-94997500D01*
X85824500Y-94095500D01*
X87226500Y-94095500D01*
X87226500Y-94997500D01*
X87226500Y-94997500D01*
G37*
G36*
X94261500Y-94997500D02*
X92859500Y-94997500D01*
X92859500Y-94095500D01*
X94261500Y-94095500D01*
X94261500Y-94997500D01*
X94261500Y-94997500D01*
G37*
G36*
X100561500Y-94997500D02*
X99159500Y-94997500D01*
X99159500Y-94095500D01*
X100561500Y-94095500D01*
X100561500Y-94997500D01*
X100561500Y-94997500D01*
G37*
G36*
X80926500Y-94997500D02*
X79524500Y-94997500D01*
X79524500Y-94095500D01*
X80926500Y-94095500D01*
X80926500Y-94997500D01*
X80926500Y-94997500D01*
G37*
G36*
X94261500Y-93727500D02*
X92859500Y-93727500D01*
X92859500Y-92825500D01*
X94261500Y-92825500D01*
X94261500Y-93727500D01*
X94261500Y-93727500D01*
G37*
G36*
X87226500Y-93727500D02*
X85824500Y-93727500D01*
X85824500Y-92825500D01*
X87226500Y-92825500D01*
X87226500Y-93727500D01*
X87226500Y-93727500D01*
G37*
G36*
X80926500Y-93727500D02*
X79524500Y-93727500D01*
X79524500Y-92825500D01*
X80926500Y-92825500D01*
X80926500Y-93727500D01*
X80926500Y-93727500D01*
G37*
G36*
X100561500Y-93727500D02*
X99159500Y-93727500D01*
X99159500Y-92825500D01*
X100561500Y-92825500D01*
X100561500Y-93727500D01*
X100561500Y-93727500D01*
G37*
G36*
X111824677Y-91391965D02*
X111862364Y-91403398D01*
X111897103Y-91421966D01*
X111927548Y-91446952D01*
X111952534Y-91477397D01*
X111971102Y-91512136D01*
X111982535Y-91549823D01*
X111987000Y-91595161D01*
X111987000Y-92681839D01*
X111982535Y-92727177D01*
X111971102Y-92764864D01*
X111952534Y-92799603D01*
X111927548Y-92830048D01*
X111897103Y-92855034D01*
X111862364Y-92873602D01*
X111824677Y-92885035D01*
X111779339Y-92889500D01*
X110942661Y-92889500D01*
X110897323Y-92885035D01*
X110859636Y-92873602D01*
X110824897Y-92855034D01*
X110794452Y-92830048D01*
X110769466Y-92799603D01*
X110750898Y-92764864D01*
X110739465Y-92727177D01*
X110735000Y-92681839D01*
X110735000Y-91595161D01*
X110739465Y-91549823D01*
X110750898Y-91512136D01*
X110769466Y-91477397D01*
X110794452Y-91446952D01*
X110824897Y-91421966D01*
X110859636Y-91403398D01*
X110897323Y-91391965D01*
X110942661Y-91387500D01*
X111779339Y-91387500D01*
X111824677Y-91391965D01*
X111824677Y-91391965D01*
G37*
G36*
X113874677Y-91391965D02*
X113912364Y-91403398D01*
X113947103Y-91421966D01*
X113977548Y-91446952D01*
X114002534Y-91477397D01*
X114021102Y-91512136D01*
X114032535Y-91549823D01*
X114037000Y-91595161D01*
X114037000Y-92681839D01*
X114032535Y-92727177D01*
X114021102Y-92764864D01*
X114002534Y-92799603D01*
X113977548Y-92830048D01*
X113947103Y-92855034D01*
X113912364Y-92873602D01*
X113874677Y-92885035D01*
X113829339Y-92889500D01*
X112992661Y-92889500D01*
X112947323Y-92885035D01*
X112909636Y-92873602D01*
X112874897Y-92855034D01*
X112844452Y-92830048D01*
X112819466Y-92799603D01*
X112800898Y-92764864D01*
X112789465Y-92727177D01*
X112785000Y-92681839D01*
X112785000Y-91595161D01*
X112789465Y-91549823D01*
X112800898Y-91512136D01*
X112819466Y-91477397D01*
X112844452Y-91446952D01*
X112874897Y-91421966D01*
X112909636Y-91403398D01*
X112947323Y-91391965D01*
X112992661Y-91387500D01*
X113829339Y-91387500D01*
X113874677Y-91391965D01*
X113874677Y-91391965D01*
G37*
G36*
X107334177Y-91137965D02*
X107371864Y-91149398D01*
X107406603Y-91167966D01*
X107437048Y-91192952D01*
X107462034Y-91223397D01*
X107480602Y-91258136D01*
X107492035Y-91295823D01*
X107496500Y-91341161D01*
X107496500Y-92427839D01*
X107492035Y-92473177D01*
X107480602Y-92510864D01*
X107462034Y-92545603D01*
X107437048Y-92576048D01*
X107406603Y-92601034D01*
X107371864Y-92619602D01*
X107334177Y-92631035D01*
X107288839Y-92635500D01*
X106452161Y-92635500D01*
X106406823Y-92631035D01*
X106369136Y-92619602D01*
X106334397Y-92601034D01*
X106303952Y-92576048D01*
X106278966Y-92545603D01*
X106260398Y-92510864D01*
X106248965Y-92473177D01*
X106244500Y-92427839D01*
X106244500Y-91341161D01*
X106248965Y-91295823D01*
X106260398Y-91258136D01*
X106278966Y-91223397D01*
X106303952Y-91192952D01*
X106334397Y-91167966D01*
X106369136Y-91149398D01*
X106406823Y-91137965D01*
X106452161Y-91133500D01*
X107288839Y-91133500D01*
X107334177Y-91137965D01*
X107334177Y-91137965D01*
G37*
G36*
X105284177Y-91137965D02*
X105321864Y-91149398D01*
X105356603Y-91167966D01*
X105387048Y-91192952D01*
X105412034Y-91223397D01*
X105430602Y-91258136D01*
X105442035Y-91295823D01*
X105446500Y-91341161D01*
X105446500Y-92427839D01*
X105442035Y-92473177D01*
X105430602Y-92510864D01*
X105412034Y-92545603D01*
X105387048Y-92576048D01*
X105356603Y-92601034D01*
X105321864Y-92619602D01*
X105284177Y-92631035D01*
X105238839Y-92635500D01*
X104402161Y-92635500D01*
X104356823Y-92631035D01*
X104319136Y-92619602D01*
X104284397Y-92601034D01*
X104253952Y-92576048D01*
X104228966Y-92545603D01*
X104210398Y-92510864D01*
X104198965Y-92473177D01*
X104194500Y-92427839D01*
X104194500Y-91341161D01*
X104198965Y-91295823D01*
X104210398Y-91258136D01*
X104228966Y-91223397D01*
X104253952Y-91192952D01*
X104284397Y-91167966D01*
X104319136Y-91149398D01*
X104356823Y-91137965D01*
X104402161Y-91133500D01*
X105238839Y-91133500D01*
X105284177Y-91137965D01*
X105284177Y-91137965D01*
G37*
G36*
X87226500Y-92467500D02*
X85824500Y-92467500D01*
X85824500Y-91565500D01*
X87226500Y-91565500D01*
X87226500Y-92467500D01*
X87226500Y-92467500D01*
G37*
G36*
X80926500Y-92467500D02*
X79524500Y-92467500D01*
X79524500Y-91565500D01*
X80926500Y-91565500D01*
X80926500Y-92467500D01*
X80926500Y-92467500D01*
G37*
G36*
X100561500Y-92467500D02*
X99159500Y-92467500D01*
X99159500Y-91565500D01*
X100561500Y-91565500D01*
X100561500Y-92467500D01*
X100561500Y-92467500D01*
G37*
G36*
X94261500Y-92467500D02*
X92859500Y-92467500D01*
X92859500Y-91565500D01*
X94261500Y-91565500D01*
X94261500Y-92467500D01*
X94261500Y-92467500D01*
G37*
G36*
X72835677Y-90820465D02*
X72873364Y-90831898D01*
X72908103Y-90850466D01*
X72938548Y-90875452D01*
X72963534Y-90905897D01*
X72982102Y-90940636D01*
X72993535Y-90978323D01*
X72998000Y-91023661D01*
X72998000Y-92110339D01*
X72993535Y-92155677D01*
X72982102Y-92193364D01*
X72963534Y-92228103D01*
X72938548Y-92258548D01*
X72908103Y-92283534D01*
X72873364Y-92302102D01*
X72835677Y-92313535D01*
X72790339Y-92318000D01*
X71953661Y-92318000D01*
X71908323Y-92313535D01*
X71870636Y-92302102D01*
X71835897Y-92283534D01*
X71805452Y-92258548D01*
X71780466Y-92228103D01*
X71761898Y-92193364D01*
X71750465Y-92155677D01*
X71746000Y-92110339D01*
X71746000Y-91023661D01*
X71750465Y-90978323D01*
X71761898Y-90940636D01*
X71780466Y-90905897D01*
X71805452Y-90875452D01*
X71835897Y-90850466D01*
X71870636Y-90831898D01*
X71908323Y-90820465D01*
X71953661Y-90816000D01*
X72790339Y-90816000D01*
X72835677Y-90820465D01*
X72835677Y-90820465D01*
G37*
G36*
X66485677Y-90820465D02*
X66523364Y-90831898D01*
X66558103Y-90850466D01*
X66588548Y-90875452D01*
X66613534Y-90905897D01*
X66632102Y-90940636D01*
X66643535Y-90978323D01*
X66648000Y-91023661D01*
X66648000Y-92110339D01*
X66643535Y-92155677D01*
X66632102Y-92193364D01*
X66613534Y-92228103D01*
X66588548Y-92258548D01*
X66558103Y-92283534D01*
X66523364Y-92302102D01*
X66485677Y-92313535D01*
X66440339Y-92318000D01*
X65603661Y-92318000D01*
X65558323Y-92313535D01*
X65520636Y-92302102D01*
X65485897Y-92283534D01*
X65455452Y-92258548D01*
X65430466Y-92228103D01*
X65411898Y-92193364D01*
X65400465Y-92155677D01*
X65396000Y-92110339D01*
X65396000Y-91023661D01*
X65400465Y-90978323D01*
X65411898Y-90940636D01*
X65430466Y-90905897D01*
X65455452Y-90875452D01*
X65485897Y-90850466D01*
X65520636Y-90831898D01*
X65558323Y-90820465D01*
X65603661Y-90816000D01*
X66440339Y-90816000D01*
X66485677Y-90820465D01*
X66485677Y-90820465D01*
G37*
G36*
X74885677Y-90820465D02*
X74923364Y-90831898D01*
X74958103Y-90850466D01*
X74988548Y-90875452D01*
X75013534Y-90905897D01*
X75032102Y-90940636D01*
X75043535Y-90978323D01*
X75048000Y-91023661D01*
X75048000Y-92110339D01*
X75043535Y-92155677D01*
X75032102Y-92193364D01*
X75013534Y-92228103D01*
X74988548Y-92258548D01*
X74958103Y-92283534D01*
X74923364Y-92302102D01*
X74885677Y-92313535D01*
X74840339Y-92318000D01*
X74003661Y-92318000D01*
X73958323Y-92313535D01*
X73920636Y-92302102D01*
X73885897Y-92283534D01*
X73855452Y-92258548D01*
X73830466Y-92228103D01*
X73811898Y-92193364D01*
X73800465Y-92155677D01*
X73796000Y-92110339D01*
X73796000Y-91023661D01*
X73800465Y-90978323D01*
X73811898Y-90940636D01*
X73830466Y-90905897D01*
X73855452Y-90875452D01*
X73885897Y-90850466D01*
X73920636Y-90831898D01*
X73958323Y-90820465D01*
X74003661Y-90816000D01*
X74840339Y-90816000D01*
X74885677Y-90820465D01*
X74885677Y-90820465D01*
G37*
G36*
X68535677Y-90820465D02*
X68573364Y-90831898D01*
X68608103Y-90850466D01*
X68638548Y-90875452D01*
X68663534Y-90905897D01*
X68682102Y-90940636D01*
X68693535Y-90978323D01*
X68698000Y-91023661D01*
X68698000Y-92110339D01*
X68693535Y-92155677D01*
X68682102Y-92193364D01*
X68663534Y-92228103D01*
X68638548Y-92258548D01*
X68608103Y-92283534D01*
X68573364Y-92302102D01*
X68535677Y-92313535D01*
X68490339Y-92318000D01*
X67653661Y-92318000D01*
X67608323Y-92313535D01*
X67570636Y-92302102D01*
X67535897Y-92283534D01*
X67505452Y-92258548D01*
X67480466Y-92228103D01*
X67461898Y-92193364D01*
X67450465Y-92155677D01*
X67446000Y-92110339D01*
X67446000Y-91023661D01*
X67450465Y-90978323D01*
X67461898Y-90940636D01*
X67480466Y-90905897D01*
X67505452Y-90875452D01*
X67535897Y-90850466D01*
X67570636Y-90831898D01*
X67608323Y-90820465D01*
X67653661Y-90816000D01*
X68490339Y-90816000D01*
X68535677Y-90820465D01*
X68535677Y-90820465D01*
G37*
G36*
X94261500Y-91187500D02*
X92859500Y-91187500D01*
X92859500Y-90285500D01*
X94261500Y-90285500D01*
X94261500Y-91187500D01*
X94261500Y-91187500D01*
G37*
G36*
X87226500Y-91187500D02*
X85824500Y-91187500D01*
X85824500Y-90285500D01*
X87226500Y-90285500D01*
X87226500Y-91187500D01*
X87226500Y-91187500D01*
G37*
G36*
X100561500Y-91187500D02*
X99159500Y-91187500D01*
X99159500Y-90285500D01*
X100561500Y-90285500D01*
X100561500Y-91187500D01*
X100561500Y-91187500D01*
G37*
G36*
X80926500Y-91187500D02*
X79524500Y-91187500D01*
X79524500Y-90285500D01*
X80926500Y-90285500D01*
X80926500Y-91187500D01*
X80926500Y-91187500D01*
G37*
G36*
X107334177Y-87835965D02*
X107371864Y-87847398D01*
X107406603Y-87865966D01*
X107437048Y-87890952D01*
X107462034Y-87921397D01*
X107480602Y-87956136D01*
X107492035Y-87993823D01*
X107496500Y-88039161D01*
X107496500Y-89125839D01*
X107492035Y-89171177D01*
X107480602Y-89208864D01*
X107462034Y-89243603D01*
X107437048Y-89274048D01*
X107406603Y-89299034D01*
X107371864Y-89317602D01*
X107334177Y-89329035D01*
X107288839Y-89333500D01*
X106452161Y-89333500D01*
X106406823Y-89329035D01*
X106369136Y-89317602D01*
X106334397Y-89299034D01*
X106303952Y-89274048D01*
X106278966Y-89243603D01*
X106260398Y-89208864D01*
X106248965Y-89171177D01*
X106244500Y-89125839D01*
X106244500Y-88039161D01*
X106248965Y-87993823D01*
X106260398Y-87956136D01*
X106278966Y-87921397D01*
X106303952Y-87890952D01*
X106334397Y-87865966D01*
X106369136Y-87847398D01*
X106406823Y-87835965D01*
X106452161Y-87831500D01*
X107288839Y-87831500D01*
X107334177Y-87835965D01*
X107334177Y-87835965D01*
G37*
G36*
X105284177Y-87835965D02*
X105321864Y-87847398D01*
X105356603Y-87865966D01*
X105387048Y-87890952D01*
X105412034Y-87921397D01*
X105430602Y-87956136D01*
X105442035Y-87993823D01*
X105446500Y-88039161D01*
X105446500Y-89125839D01*
X105442035Y-89171177D01*
X105430602Y-89208864D01*
X105412034Y-89243603D01*
X105387048Y-89274048D01*
X105356603Y-89299034D01*
X105321864Y-89317602D01*
X105284177Y-89329035D01*
X105238839Y-89333500D01*
X104402161Y-89333500D01*
X104356823Y-89329035D01*
X104319136Y-89317602D01*
X104284397Y-89299034D01*
X104253952Y-89274048D01*
X104228966Y-89243603D01*
X104210398Y-89208864D01*
X104198965Y-89171177D01*
X104194500Y-89125839D01*
X104194500Y-88039161D01*
X104198965Y-87993823D01*
X104210398Y-87956136D01*
X104228966Y-87921397D01*
X104253952Y-87890952D01*
X104284397Y-87865966D01*
X104319136Y-87847398D01*
X104356823Y-87835965D01*
X104402161Y-87831500D01*
X105238839Y-87831500D01*
X105284177Y-87835965D01*
X105284177Y-87835965D01*
G37*
G36*
X113938177Y-87772465D02*
X113975864Y-87783898D01*
X114010603Y-87802466D01*
X114041048Y-87827452D01*
X114066034Y-87857897D01*
X114084602Y-87892636D01*
X114096035Y-87930323D01*
X114100500Y-87975661D01*
X114100500Y-89062339D01*
X114096035Y-89107677D01*
X114084602Y-89145364D01*
X114066034Y-89180103D01*
X114041048Y-89210548D01*
X114010603Y-89235534D01*
X113975864Y-89254102D01*
X113938177Y-89265535D01*
X113892839Y-89270000D01*
X113056161Y-89270000D01*
X113010823Y-89265535D01*
X112973136Y-89254102D01*
X112938397Y-89235534D01*
X112907952Y-89210548D01*
X112882966Y-89180103D01*
X112864398Y-89145364D01*
X112852965Y-89107677D01*
X112848500Y-89062339D01*
X112848500Y-87975661D01*
X112852965Y-87930323D01*
X112864398Y-87892636D01*
X112882966Y-87857897D01*
X112907952Y-87827452D01*
X112938397Y-87802466D01*
X112973136Y-87783898D01*
X113010823Y-87772465D01*
X113056161Y-87768000D01*
X113892839Y-87768000D01*
X113938177Y-87772465D01*
X113938177Y-87772465D01*
G37*
G36*
X111888177Y-87772465D02*
X111925864Y-87783898D01*
X111960603Y-87802466D01*
X111991048Y-87827452D01*
X112016034Y-87857897D01*
X112034602Y-87892636D01*
X112046035Y-87930323D01*
X112050500Y-87975661D01*
X112050500Y-89062339D01*
X112046035Y-89107677D01*
X112034602Y-89145364D01*
X112016034Y-89180103D01*
X111991048Y-89210548D01*
X111960603Y-89235534D01*
X111925864Y-89254102D01*
X111888177Y-89265535D01*
X111842839Y-89270000D01*
X111006161Y-89270000D01*
X110960823Y-89265535D01*
X110923136Y-89254102D01*
X110888397Y-89235534D01*
X110857952Y-89210548D01*
X110832966Y-89180103D01*
X110814398Y-89145364D01*
X110802965Y-89107677D01*
X110798500Y-89062339D01*
X110798500Y-87975661D01*
X110802965Y-87930323D01*
X110814398Y-87892636D01*
X110832966Y-87857897D01*
X110857952Y-87827452D01*
X110888397Y-87802466D01*
X110923136Y-87783898D01*
X110960823Y-87772465D01*
X111006161Y-87768000D01*
X111842839Y-87768000D01*
X111888177Y-87772465D01*
X111888177Y-87772465D01*
G37*
G36*
X68535677Y-87645465D02*
X68573364Y-87656898D01*
X68608103Y-87675466D01*
X68638548Y-87700452D01*
X68663534Y-87730897D01*
X68682102Y-87765636D01*
X68693535Y-87803323D01*
X68698000Y-87848661D01*
X68698000Y-88935339D01*
X68693535Y-88980677D01*
X68682102Y-89018364D01*
X68663534Y-89053103D01*
X68638548Y-89083548D01*
X68608103Y-89108534D01*
X68573364Y-89127102D01*
X68535677Y-89138535D01*
X68490339Y-89143000D01*
X67653661Y-89143000D01*
X67608323Y-89138535D01*
X67570636Y-89127102D01*
X67535897Y-89108534D01*
X67505452Y-89083548D01*
X67480466Y-89053103D01*
X67461898Y-89018364D01*
X67450465Y-88980677D01*
X67446000Y-88935339D01*
X67446000Y-87848661D01*
X67450465Y-87803323D01*
X67461898Y-87765636D01*
X67480466Y-87730897D01*
X67505452Y-87700452D01*
X67535897Y-87675466D01*
X67570636Y-87656898D01*
X67608323Y-87645465D01*
X67653661Y-87641000D01*
X68490339Y-87641000D01*
X68535677Y-87645465D01*
X68535677Y-87645465D01*
G37*
G36*
X66485677Y-87645465D02*
X66523364Y-87656898D01*
X66558103Y-87675466D01*
X66588548Y-87700452D01*
X66613534Y-87730897D01*
X66632102Y-87765636D01*
X66643535Y-87803323D01*
X66648000Y-87848661D01*
X66648000Y-88935339D01*
X66643535Y-88980677D01*
X66632102Y-89018364D01*
X66613534Y-89053103D01*
X66588548Y-89083548D01*
X66558103Y-89108534D01*
X66523364Y-89127102D01*
X66485677Y-89138535D01*
X66440339Y-89143000D01*
X65603661Y-89143000D01*
X65558323Y-89138535D01*
X65520636Y-89127102D01*
X65485897Y-89108534D01*
X65455452Y-89083548D01*
X65430466Y-89053103D01*
X65411898Y-89018364D01*
X65400465Y-88980677D01*
X65396000Y-88935339D01*
X65396000Y-87848661D01*
X65400465Y-87803323D01*
X65411898Y-87765636D01*
X65430466Y-87730897D01*
X65455452Y-87700452D01*
X65485897Y-87675466D01*
X65520636Y-87656898D01*
X65558323Y-87645465D01*
X65603661Y-87641000D01*
X66440339Y-87641000D01*
X66485677Y-87645465D01*
X66485677Y-87645465D01*
G37*
G36*
X74885677Y-87518465D02*
X74923364Y-87529898D01*
X74958103Y-87548466D01*
X74988548Y-87573452D01*
X75013534Y-87603897D01*
X75032102Y-87638636D01*
X75043535Y-87676323D01*
X75048000Y-87721661D01*
X75048000Y-88808339D01*
X75043535Y-88853677D01*
X75032102Y-88891364D01*
X75013534Y-88926103D01*
X74988548Y-88956548D01*
X74958103Y-88981534D01*
X74923364Y-89000102D01*
X74885677Y-89011535D01*
X74840339Y-89016000D01*
X74003661Y-89016000D01*
X73958323Y-89011535D01*
X73920636Y-89000102D01*
X73885897Y-88981534D01*
X73855452Y-88956548D01*
X73830466Y-88926103D01*
X73811898Y-88891364D01*
X73800465Y-88853677D01*
X73796000Y-88808339D01*
X73796000Y-87721661D01*
X73800465Y-87676323D01*
X73811898Y-87638636D01*
X73830466Y-87603897D01*
X73855452Y-87573452D01*
X73885897Y-87548466D01*
X73920636Y-87529898D01*
X73958323Y-87518465D01*
X74003661Y-87514000D01*
X74840339Y-87514000D01*
X74885677Y-87518465D01*
X74885677Y-87518465D01*
G37*
G36*
X72835677Y-87518465D02*
X72873364Y-87529898D01*
X72908103Y-87548466D01*
X72938548Y-87573452D01*
X72963534Y-87603897D01*
X72982102Y-87638636D01*
X72993535Y-87676323D01*
X72998000Y-87721661D01*
X72998000Y-88808339D01*
X72993535Y-88853677D01*
X72982102Y-88891364D01*
X72963534Y-88926103D01*
X72938548Y-88956548D01*
X72908103Y-88981534D01*
X72873364Y-89000102D01*
X72835677Y-89011535D01*
X72790339Y-89016000D01*
X71953661Y-89016000D01*
X71908323Y-89011535D01*
X71870636Y-89000102D01*
X71835897Y-88981534D01*
X71805452Y-88956548D01*
X71780466Y-88926103D01*
X71761898Y-88891364D01*
X71750465Y-88853677D01*
X71746000Y-88808339D01*
X71746000Y-87721661D01*
X71750465Y-87676323D01*
X71761898Y-87638636D01*
X71780466Y-87603897D01*
X71805452Y-87573452D01*
X71835897Y-87548466D01*
X71870636Y-87529898D01*
X71908323Y-87518465D01*
X71953661Y-87514000D01*
X72790339Y-87514000D01*
X72835677Y-87518465D01*
X72835677Y-87518465D01*
G37*
G36*
X72835677Y-84470465D02*
X72873364Y-84481898D01*
X72908103Y-84500466D01*
X72938548Y-84525452D01*
X72963534Y-84555897D01*
X72982102Y-84590636D01*
X72993535Y-84628323D01*
X72998000Y-84673661D01*
X72998000Y-85760339D01*
X72993535Y-85805677D01*
X72982102Y-85843364D01*
X72963534Y-85878103D01*
X72938548Y-85908548D01*
X72908103Y-85933534D01*
X72873364Y-85952102D01*
X72835677Y-85963535D01*
X72790339Y-85968000D01*
X71953661Y-85968000D01*
X71908323Y-85963535D01*
X71870636Y-85952102D01*
X71835897Y-85933534D01*
X71805452Y-85908548D01*
X71780466Y-85878103D01*
X71761898Y-85843364D01*
X71750465Y-85805677D01*
X71746000Y-85760339D01*
X71746000Y-84673661D01*
X71750465Y-84628323D01*
X71761898Y-84590636D01*
X71780466Y-84555897D01*
X71805452Y-84525452D01*
X71835897Y-84500466D01*
X71870636Y-84481898D01*
X71908323Y-84470465D01*
X71953661Y-84466000D01*
X72790339Y-84466000D01*
X72835677Y-84470465D01*
X72835677Y-84470465D01*
G37*
G36*
X74885677Y-84470465D02*
X74923364Y-84481898D01*
X74958103Y-84500466D01*
X74988548Y-84525452D01*
X75013534Y-84555897D01*
X75032102Y-84590636D01*
X75043535Y-84628323D01*
X75048000Y-84673661D01*
X75048000Y-85760339D01*
X75043535Y-85805677D01*
X75032102Y-85843364D01*
X75013534Y-85878103D01*
X74988548Y-85908548D01*
X74958103Y-85933534D01*
X74923364Y-85952102D01*
X74885677Y-85963535D01*
X74840339Y-85968000D01*
X74003661Y-85968000D01*
X73958323Y-85963535D01*
X73920636Y-85952102D01*
X73885897Y-85933534D01*
X73855452Y-85908548D01*
X73830466Y-85878103D01*
X73811898Y-85843364D01*
X73800465Y-85805677D01*
X73796000Y-85760339D01*
X73796000Y-84673661D01*
X73800465Y-84628323D01*
X73811898Y-84590636D01*
X73830466Y-84555897D01*
X73855452Y-84525452D01*
X73885897Y-84500466D01*
X73920636Y-84481898D01*
X73958323Y-84470465D01*
X74003661Y-84466000D01*
X74840339Y-84466000D01*
X74885677Y-84470465D01*
X74885677Y-84470465D01*
G37*
G36*
X68535677Y-84470465D02*
X68573364Y-84481898D01*
X68608103Y-84500466D01*
X68638548Y-84525452D01*
X68663534Y-84555897D01*
X68682102Y-84590636D01*
X68693535Y-84628323D01*
X68698000Y-84673661D01*
X68698000Y-85760339D01*
X68693535Y-85805677D01*
X68682102Y-85843364D01*
X68663534Y-85878103D01*
X68638548Y-85908548D01*
X68608103Y-85933534D01*
X68573364Y-85952102D01*
X68535677Y-85963535D01*
X68490339Y-85968000D01*
X67653661Y-85968000D01*
X67608323Y-85963535D01*
X67570636Y-85952102D01*
X67535897Y-85933534D01*
X67505452Y-85908548D01*
X67480466Y-85878103D01*
X67461898Y-85843364D01*
X67450465Y-85805677D01*
X67446000Y-85760339D01*
X67446000Y-84673661D01*
X67450465Y-84628323D01*
X67461898Y-84590636D01*
X67480466Y-84555897D01*
X67505452Y-84525452D01*
X67535897Y-84500466D01*
X67570636Y-84481898D01*
X67608323Y-84470465D01*
X67653661Y-84466000D01*
X68490339Y-84466000D01*
X68535677Y-84470465D01*
X68535677Y-84470465D01*
G37*
G36*
X66485677Y-84470465D02*
X66523364Y-84481898D01*
X66558103Y-84500466D01*
X66588548Y-84525452D01*
X66613534Y-84555897D01*
X66632102Y-84590636D01*
X66643535Y-84628323D01*
X66648000Y-84673661D01*
X66648000Y-85760339D01*
X66643535Y-85805677D01*
X66632102Y-85843364D01*
X66613534Y-85878103D01*
X66588548Y-85908548D01*
X66558103Y-85933534D01*
X66523364Y-85952102D01*
X66485677Y-85963535D01*
X66440339Y-85968000D01*
X65603661Y-85968000D01*
X65558323Y-85963535D01*
X65520636Y-85952102D01*
X65485897Y-85933534D01*
X65455452Y-85908548D01*
X65430466Y-85878103D01*
X65411898Y-85843364D01*
X65400465Y-85805677D01*
X65396000Y-85760339D01*
X65396000Y-84673661D01*
X65400465Y-84628323D01*
X65411898Y-84590636D01*
X65430466Y-84555897D01*
X65455452Y-84525452D01*
X65485897Y-84500466D01*
X65520636Y-84481898D01*
X65558323Y-84470465D01*
X65603661Y-84466000D01*
X66440339Y-84466000D01*
X66485677Y-84470465D01*
X66485677Y-84470465D01*
G37*
G36*
X113938177Y-84343465D02*
X113975864Y-84354898D01*
X114010603Y-84373466D01*
X114041048Y-84398452D01*
X114066034Y-84428897D01*
X114084602Y-84463636D01*
X114096035Y-84501323D01*
X114100500Y-84546661D01*
X114100500Y-85633339D01*
X114096035Y-85678677D01*
X114084602Y-85716364D01*
X114066034Y-85751103D01*
X114041048Y-85781548D01*
X114010603Y-85806534D01*
X113975864Y-85825102D01*
X113938177Y-85836535D01*
X113892839Y-85841000D01*
X113056161Y-85841000D01*
X113010823Y-85836535D01*
X112973136Y-85825102D01*
X112938397Y-85806534D01*
X112907952Y-85781548D01*
X112882966Y-85751103D01*
X112864398Y-85716364D01*
X112852965Y-85678677D01*
X112848500Y-85633339D01*
X112848500Y-84546661D01*
X112852965Y-84501323D01*
X112864398Y-84463636D01*
X112882966Y-84428897D01*
X112907952Y-84398452D01*
X112938397Y-84373466D01*
X112973136Y-84354898D01*
X113010823Y-84343465D01*
X113056161Y-84339000D01*
X113892839Y-84339000D01*
X113938177Y-84343465D01*
X113938177Y-84343465D01*
G37*
G36*
X111888177Y-84343465D02*
X111925864Y-84354898D01*
X111960603Y-84373466D01*
X111991048Y-84398452D01*
X112016034Y-84428897D01*
X112034602Y-84463636D01*
X112046035Y-84501323D01*
X112050500Y-84546661D01*
X112050500Y-85633339D01*
X112046035Y-85678677D01*
X112034602Y-85716364D01*
X112016034Y-85751103D01*
X111991048Y-85781548D01*
X111960603Y-85806534D01*
X111925864Y-85825102D01*
X111888177Y-85836535D01*
X111842839Y-85841000D01*
X111006161Y-85841000D01*
X110960823Y-85836535D01*
X110923136Y-85825102D01*
X110888397Y-85806534D01*
X110857952Y-85781548D01*
X110832966Y-85751103D01*
X110814398Y-85716364D01*
X110802965Y-85678677D01*
X110798500Y-85633339D01*
X110798500Y-84546661D01*
X110802965Y-84501323D01*
X110814398Y-84463636D01*
X110832966Y-84428897D01*
X110857952Y-84398452D01*
X110888397Y-84373466D01*
X110923136Y-84354898D01*
X110960823Y-84343465D01*
X111006161Y-84339000D01*
X111842839Y-84339000D01*
X111888177Y-84343465D01*
X111888177Y-84343465D01*
G37*
G36*
X105293177Y-84279965D02*
X105330864Y-84291398D01*
X105365603Y-84309966D01*
X105396048Y-84334952D01*
X105421034Y-84365397D01*
X105439602Y-84400136D01*
X105451035Y-84437823D01*
X105455500Y-84483161D01*
X105455500Y-85569839D01*
X105451035Y-85615177D01*
X105439602Y-85652864D01*
X105421034Y-85687603D01*
X105396048Y-85718048D01*
X105365603Y-85743034D01*
X105330864Y-85761602D01*
X105293177Y-85773035D01*
X105247839Y-85777500D01*
X104411161Y-85777500D01*
X104365823Y-85773035D01*
X104328136Y-85761602D01*
X104293397Y-85743034D01*
X104262952Y-85718048D01*
X104237966Y-85687603D01*
X104219398Y-85652864D01*
X104207965Y-85615177D01*
X104203500Y-85569839D01*
X104203500Y-84483161D01*
X104207965Y-84437823D01*
X104219398Y-84400136D01*
X104237966Y-84365397D01*
X104262952Y-84334952D01*
X104293397Y-84309966D01*
X104328136Y-84291398D01*
X104365823Y-84279965D01*
X104411161Y-84275500D01*
X105247839Y-84275500D01*
X105293177Y-84279965D01*
X105293177Y-84279965D01*
G37*
G36*
X107343177Y-84279965D02*
X107380864Y-84291398D01*
X107415603Y-84309966D01*
X107446048Y-84334952D01*
X107471034Y-84365397D01*
X107489602Y-84400136D01*
X107501035Y-84437823D01*
X107505500Y-84483161D01*
X107505500Y-85569839D01*
X107501035Y-85615177D01*
X107489602Y-85652864D01*
X107471034Y-85687603D01*
X107446048Y-85718048D01*
X107415603Y-85743034D01*
X107380864Y-85761602D01*
X107343177Y-85773035D01*
X107297839Y-85777500D01*
X106461161Y-85777500D01*
X106415823Y-85773035D01*
X106378136Y-85761602D01*
X106343397Y-85743034D01*
X106312952Y-85718048D01*
X106287966Y-85687603D01*
X106269398Y-85652864D01*
X106257965Y-85615177D01*
X106253500Y-85569839D01*
X106253500Y-84483161D01*
X106257965Y-84437823D01*
X106269398Y-84400136D01*
X106287966Y-84365397D01*
X106312952Y-84334952D01*
X106343397Y-84309966D01*
X106378136Y-84291398D01*
X106415823Y-84279965D01*
X106461161Y-84275500D01*
X107297839Y-84275500D01*
X107343177Y-84279965D01*
X107343177Y-84279965D01*
G37*
G36*
X95135000Y-85483000D02*
X93333000Y-85483000D01*
X93333000Y-83681000D01*
X95135000Y-83681000D01*
X95135000Y-85483000D01*
X95135000Y-85483000D01*
G37*
G36*
X84184443Y-83687519D02*
X84250627Y-83694037D01*
X84363853Y-83728384D01*
X84420467Y-83745557D01*
X84559087Y-83819652D01*
X84576991Y-83829222D01*
X84612729Y-83858552D01*
X84714186Y-83941814D01*
X84797448Y-84043271D01*
X84826778Y-84079009D01*
X84826779Y-84079011D01*
X84910443Y-84235533D01*
X84910443Y-84235534D01*
X84961963Y-84405373D01*
X84979359Y-84582000D01*
X84961963Y-84758627D01*
X84927616Y-84871853D01*
X84910443Y-84928467D01*
X84836348Y-85067087D01*
X84826778Y-85084991D01*
X84797448Y-85120729D01*
X84714186Y-85222186D01*
X84612729Y-85305448D01*
X84576991Y-85334778D01*
X84576989Y-85334779D01*
X84420467Y-85418443D01*
X84363853Y-85435616D01*
X84250627Y-85469963D01*
X84184442Y-85476482D01*
X84118260Y-85483000D01*
X84029740Y-85483000D01*
X83963558Y-85476482D01*
X83897373Y-85469963D01*
X83784147Y-85435616D01*
X83727533Y-85418443D01*
X83571011Y-85334779D01*
X83571009Y-85334778D01*
X83535271Y-85305448D01*
X83433814Y-85222186D01*
X83350552Y-85120729D01*
X83321222Y-85084991D01*
X83311652Y-85067087D01*
X83237557Y-84928467D01*
X83220384Y-84871853D01*
X83186037Y-84758627D01*
X83168641Y-84582000D01*
X83186037Y-84405373D01*
X83237557Y-84235534D01*
X83237557Y-84235533D01*
X83321221Y-84079011D01*
X83321222Y-84079009D01*
X83350552Y-84043271D01*
X83433814Y-83941814D01*
X83535271Y-83858552D01*
X83571009Y-83829222D01*
X83588913Y-83819652D01*
X83727533Y-83745557D01*
X83784147Y-83728384D01*
X83897373Y-83694037D01*
X83963557Y-83687519D01*
X84029740Y-83681000D01*
X84118260Y-83681000D01*
X84184443Y-83687519D01*
X84184443Y-83687519D01*
G37*
G36*
X89264443Y-83687519D02*
X89330627Y-83694037D01*
X89443853Y-83728384D01*
X89500467Y-83745557D01*
X89639087Y-83819652D01*
X89656991Y-83829222D01*
X89692729Y-83858552D01*
X89794186Y-83941814D01*
X89877448Y-84043271D01*
X89906778Y-84079009D01*
X89906779Y-84079011D01*
X89990443Y-84235533D01*
X89990443Y-84235534D01*
X90041963Y-84405373D01*
X90059359Y-84582000D01*
X90041963Y-84758627D01*
X90007616Y-84871853D01*
X89990443Y-84928467D01*
X89916348Y-85067087D01*
X89906778Y-85084991D01*
X89877448Y-85120729D01*
X89794186Y-85222186D01*
X89692729Y-85305448D01*
X89656991Y-85334778D01*
X89656989Y-85334779D01*
X89500467Y-85418443D01*
X89443853Y-85435616D01*
X89330627Y-85469963D01*
X89264442Y-85476482D01*
X89198260Y-85483000D01*
X89109740Y-85483000D01*
X89043558Y-85476482D01*
X88977373Y-85469963D01*
X88864147Y-85435616D01*
X88807533Y-85418443D01*
X88651011Y-85334779D01*
X88651009Y-85334778D01*
X88615271Y-85305448D01*
X88513814Y-85222186D01*
X88430552Y-85120729D01*
X88401222Y-85084991D01*
X88391652Y-85067087D01*
X88317557Y-84928467D01*
X88300384Y-84871853D01*
X88266037Y-84758627D01*
X88248641Y-84582000D01*
X88266037Y-84405373D01*
X88317557Y-84235534D01*
X88317557Y-84235533D01*
X88401221Y-84079011D01*
X88401222Y-84079009D01*
X88430552Y-84043271D01*
X88513814Y-83941814D01*
X88615271Y-83858552D01*
X88651009Y-83829222D01*
X88668913Y-83819652D01*
X88807533Y-83745557D01*
X88864147Y-83728384D01*
X88977373Y-83694037D01*
X89043557Y-83687519D01*
X89109740Y-83681000D01*
X89198260Y-83681000D01*
X89264443Y-83687519D01*
X89264443Y-83687519D01*
G37*
G36*
X91804443Y-83687519D02*
X91870627Y-83694037D01*
X91983853Y-83728384D01*
X92040467Y-83745557D01*
X92179087Y-83819652D01*
X92196991Y-83829222D01*
X92232729Y-83858552D01*
X92334186Y-83941814D01*
X92417448Y-84043271D01*
X92446778Y-84079009D01*
X92446779Y-84079011D01*
X92530443Y-84235533D01*
X92530443Y-84235534D01*
X92581963Y-84405373D01*
X92599359Y-84582000D01*
X92581963Y-84758627D01*
X92547616Y-84871853D01*
X92530443Y-84928467D01*
X92456348Y-85067087D01*
X92446778Y-85084991D01*
X92417448Y-85120729D01*
X92334186Y-85222186D01*
X92232729Y-85305448D01*
X92196991Y-85334778D01*
X92196989Y-85334779D01*
X92040467Y-85418443D01*
X91983853Y-85435616D01*
X91870627Y-85469963D01*
X91804442Y-85476482D01*
X91738260Y-85483000D01*
X91649740Y-85483000D01*
X91583558Y-85476482D01*
X91517373Y-85469963D01*
X91404147Y-85435616D01*
X91347533Y-85418443D01*
X91191011Y-85334779D01*
X91191009Y-85334778D01*
X91155271Y-85305448D01*
X91053814Y-85222186D01*
X90970552Y-85120729D01*
X90941222Y-85084991D01*
X90931652Y-85067087D01*
X90857557Y-84928467D01*
X90840384Y-84871853D01*
X90806037Y-84758627D01*
X90788641Y-84582000D01*
X90806037Y-84405373D01*
X90857557Y-84235534D01*
X90857557Y-84235533D01*
X90941221Y-84079011D01*
X90941222Y-84079009D01*
X90970552Y-84043271D01*
X91053814Y-83941814D01*
X91155271Y-83858552D01*
X91191009Y-83829222D01*
X91208913Y-83819652D01*
X91347533Y-83745557D01*
X91404147Y-83728384D01*
X91517373Y-83694037D01*
X91583557Y-83687519D01*
X91649740Y-83681000D01*
X91738260Y-83681000D01*
X91804443Y-83687519D01*
X91804443Y-83687519D01*
G37*
G36*
X86724443Y-83687519D02*
X86790627Y-83694037D01*
X86903853Y-83728384D01*
X86960467Y-83745557D01*
X87099087Y-83819652D01*
X87116991Y-83829222D01*
X87152729Y-83858552D01*
X87254186Y-83941814D01*
X87337448Y-84043271D01*
X87366778Y-84079009D01*
X87366779Y-84079011D01*
X87450443Y-84235533D01*
X87450443Y-84235534D01*
X87501963Y-84405373D01*
X87519359Y-84582000D01*
X87501963Y-84758627D01*
X87467616Y-84871853D01*
X87450443Y-84928467D01*
X87376348Y-85067087D01*
X87366778Y-85084991D01*
X87337448Y-85120729D01*
X87254186Y-85222186D01*
X87152729Y-85305448D01*
X87116991Y-85334778D01*
X87116989Y-85334779D01*
X86960467Y-85418443D01*
X86903853Y-85435616D01*
X86790627Y-85469963D01*
X86724442Y-85476482D01*
X86658260Y-85483000D01*
X86569740Y-85483000D01*
X86503558Y-85476482D01*
X86437373Y-85469963D01*
X86324147Y-85435616D01*
X86267533Y-85418443D01*
X86111011Y-85334779D01*
X86111009Y-85334778D01*
X86075271Y-85305448D01*
X85973814Y-85222186D01*
X85890552Y-85120729D01*
X85861222Y-85084991D01*
X85851652Y-85067087D01*
X85777557Y-84928467D01*
X85760384Y-84871853D01*
X85726037Y-84758627D01*
X85708641Y-84582000D01*
X85726037Y-84405373D01*
X85777557Y-84235534D01*
X85777557Y-84235533D01*
X85861221Y-84079011D01*
X85861222Y-84079009D01*
X85890552Y-84043271D01*
X85973814Y-83941814D01*
X86075271Y-83858552D01*
X86111009Y-83829222D01*
X86128913Y-83819652D01*
X86267533Y-83745557D01*
X86324147Y-83728384D01*
X86437373Y-83694037D01*
X86503557Y-83687519D01*
X86569740Y-83681000D01*
X86658260Y-83681000D01*
X86724443Y-83687519D01*
X86724443Y-83687519D01*
G37*
M02*
