G04 #@! TF.GenerationSoftware,KiCad,Pcbnew,(5.0.1-3-g963ef8bb5)*
G04 #@! TF.CreationDate,2018-12-19T14:50:12+08:00*
G04 #@! TF.ProjectId,16-LED-board,31362D4C45442D626F6172642E6B6963,1.0*
G04 #@! TF.SameCoordinates,Original*
G04 #@! TF.FileFunction,Paste,Top*
G04 #@! TF.FilePolarity,Positive*
%FSLAX46Y46*%
G04 Gerber Fmt 4.6, Leading zero omitted, Abs format (unit mm)*
G04 Created by KiCad (PCBNEW (5.0.1-3-g963ef8bb5)) date 2018 December 19, Wednesday 14:50:12*
%MOMM*%
%LPD*%
G01*
G04 APERTURE LIST*
%ADD10R,3.500000X1.600000*%
%ADD11C,0.100000*%
%ADD12C,1.150000*%
%ADD13R,1.300000X0.800000*%
G04 APERTURE END LIST*
D10*
G04 #@! TO.C,C1*
X92589000Y-106426000D03*
X86989000Y-106426000D03*
G04 #@! TD*
D11*
G04 #@! TO.C,D1*
G36*
X68421505Y-107378204D02*
X68445773Y-107381804D01*
X68469572Y-107387765D01*
X68492671Y-107396030D01*
X68514850Y-107406520D01*
X68535893Y-107419132D01*
X68555599Y-107433747D01*
X68573777Y-107450223D01*
X68590253Y-107468401D01*
X68604868Y-107488107D01*
X68617480Y-107509150D01*
X68627970Y-107531329D01*
X68636235Y-107554428D01*
X68642196Y-107578227D01*
X68645796Y-107602495D01*
X68647000Y-107626999D01*
X68647000Y-108527001D01*
X68645796Y-108551505D01*
X68642196Y-108575773D01*
X68636235Y-108599572D01*
X68627970Y-108622671D01*
X68617480Y-108644850D01*
X68604868Y-108665893D01*
X68590253Y-108685599D01*
X68573777Y-108703777D01*
X68555599Y-108720253D01*
X68535893Y-108734868D01*
X68514850Y-108747480D01*
X68492671Y-108757970D01*
X68469572Y-108766235D01*
X68445773Y-108772196D01*
X68421505Y-108775796D01*
X68397001Y-108777000D01*
X67746999Y-108777000D01*
X67722495Y-108775796D01*
X67698227Y-108772196D01*
X67674428Y-108766235D01*
X67651329Y-108757970D01*
X67629150Y-108747480D01*
X67608107Y-108734868D01*
X67588401Y-108720253D01*
X67570223Y-108703777D01*
X67553747Y-108685599D01*
X67539132Y-108665893D01*
X67526520Y-108644850D01*
X67516030Y-108622671D01*
X67507765Y-108599572D01*
X67501804Y-108575773D01*
X67498204Y-108551505D01*
X67497000Y-108527001D01*
X67497000Y-107626999D01*
X67498204Y-107602495D01*
X67501804Y-107578227D01*
X67507765Y-107554428D01*
X67516030Y-107531329D01*
X67526520Y-107509150D01*
X67539132Y-107488107D01*
X67553747Y-107468401D01*
X67570223Y-107450223D01*
X67588401Y-107433747D01*
X67608107Y-107419132D01*
X67629150Y-107406520D01*
X67651329Y-107396030D01*
X67674428Y-107387765D01*
X67698227Y-107381804D01*
X67722495Y-107378204D01*
X67746999Y-107377000D01*
X68397001Y-107377000D01*
X68421505Y-107378204D01*
X68421505Y-107378204D01*
G37*
D12*
X68072000Y-108077000D03*
D11*
G36*
X66371505Y-107378204D02*
X66395773Y-107381804D01*
X66419572Y-107387765D01*
X66442671Y-107396030D01*
X66464850Y-107406520D01*
X66485893Y-107419132D01*
X66505599Y-107433747D01*
X66523777Y-107450223D01*
X66540253Y-107468401D01*
X66554868Y-107488107D01*
X66567480Y-107509150D01*
X66577970Y-107531329D01*
X66586235Y-107554428D01*
X66592196Y-107578227D01*
X66595796Y-107602495D01*
X66597000Y-107626999D01*
X66597000Y-108527001D01*
X66595796Y-108551505D01*
X66592196Y-108575773D01*
X66586235Y-108599572D01*
X66577970Y-108622671D01*
X66567480Y-108644850D01*
X66554868Y-108665893D01*
X66540253Y-108685599D01*
X66523777Y-108703777D01*
X66505599Y-108720253D01*
X66485893Y-108734868D01*
X66464850Y-108747480D01*
X66442671Y-108757970D01*
X66419572Y-108766235D01*
X66395773Y-108772196D01*
X66371505Y-108775796D01*
X66347001Y-108777000D01*
X65696999Y-108777000D01*
X65672495Y-108775796D01*
X65648227Y-108772196D01*
X65624428Y-108766235D01*
X65601329Y-108757970D01*
X65579150Y-108747480D01*
X65558107Y-108734868D01*
X65538401Y-108720253D01*
X65520223Y-108703777D01*
X65503747Y-108685599D01*
X65489132Y-108665893D01*
X65476520Y-108644850D01*
X65466030Y-108622671D01*
X65457765Y-108599572D01*
X65451804Y-108575773D01*
X65448204Y-108551505D01*
X65447000Y-108527001D01*
X65447000Y-107626999D01*
X65448204Y-107602495D01*
X65451804Y-107578227D01*
X65457765Y-107554428D01*
X65466030Y-107531329D01*
X65476520Y-107509150D01*
X65489132Y-107488107D01*
X65503747Y-107468401D01*
X65520223Y-107450223D01*
X65538401Y-107433747D01*
X65558107Y-107419132D01*
X65579150Y-107406520D01*
X65601329Y-107396030D01*
X65624428Y-107387765D01*
X65648227Y-107381804D01*
X65672495Y-107378204D01*
X65696999Y-107377000D01*
X66347001Y-107377000D01*
X66371505Y-107378204D01*
X66371505Y-107378204D01*
G37*
D12*
X66022000Y-108077000D03*
G04 #@! TD*
D11*
G04 #@! TO.C,D2*
G36*
X66371505Y-103949204D02*
X66395773Y-103952804D01*
X66419572Y-103958765D01*
X66442671Y-103967030D01*
X66464850Y-103977520D01*
X66485893Y-103990132D01*
X66505599Y-104004747D01*
X66523777Y-104021223D01*
X66540253Y-104039401D01*
X66554868Y-104059107D01*
X66567480Y-104080150D01*
X66577970Y-104102329D01*
X66586235Y-104125428D01*
X66592196Y-104149227D01*
X66595796Y-104173495D01*
X66597000Y-104197999D01*
X66597000Y-105098001D01*
X66595796Y-105122505D01*
X66592196Y-105146773D01*
X66586235Y-105170572D01*
X66577970Y-105193671D01*
X66567480Y-105215850D01*
X66554868Y-105236893D01*
X66540253Y-105256599D01*
X66523777Y-105274777D01*
X66505599Y-105291253D01*
X66485893Y-105305868D01*
X66464850Y-105318480D01*
X66442671Y-105328970D01*
X66419572Y-105337235D01*
X66395773Y-105343196D01*
X66371505Y-105346796D01*
X66347001Y-105348000D01*
X65696999Y-105348000D01*
X65672495Y-105346796D01*
X65648227Y-105343196D01*
X65624428Y-105337235D01*
X65601329Y-105328970D01*
X65579150Y-105318480D01*
X65558107Y-105305868D01*
X65538401Y-105291253D01*
X65520223Y-105274777D01*
X65503747Y-105256599D01*
X65489132Y-105236893D01*
X65476520Y-105215850D01*
X65466030Y-105193671D01*
X65457765Y-105170572D01*
X65451804Y-105146773D01*
X65448204Y-105122505D01*
X65447000Y-105098001D01*
X65447000Y-104197999D01*
X65448204Y-104173495D01*
X65451804Y-104149227D01*
X65457765Y-104125428D01*
X65466030Y-104102329D01*
X65476520Y-104080150D01*
X65489132Y-104059107D01*
X65503747Y-104039401D01*
X65520223Y-104021223D01*
X65538401Y-104004747D01*
X65558107Y-103990132D01*
X65579150Y-103977520D01*
X65601329Y-103967030D01*
X65624428Y-103958765D01*
X65648227Y-103952804D01*
X65672495Y-103949204D01*
X65696999Y-103948000D01*
X66347001Y-103948000D01*
X66371505Y-103949204D01*
X66371505Y-103949204D01*
G37*
D12*
X66022000Y-104648000D03*
D11*
G36*
X68421505Y-103949204D02*
X68445773Y-103952804D01*
X68469572Y-103958765D01*
X68492671Y-103967030D01*
X68514850Y-103977520D01*
X68535893Y-103990132D01*
X68555599Y-104004747D01*
X68573777Y-104021223D01*
X68590253Y-104039401D01*
X68604868Y-104059107D01*
X68617480Y-104080150D01*
X68627970Y-104102329D01*
X68636235Y-104125428D01*
X68642196Y-104149227D01*
X68645796Y-104173495D01*
X68647000Y-104197999D01*
X68647000Y-105098001D01*
X68645796Y-105122505D01*
X68642196Y-105146773D01*
X68636235Y-105170572D01*
X68627970Y-105193671D01*
X68617480Y-105215850D01*
X68604868Y-105236893D01*
X68590253Y-105256599D01*
X68573777Y-105274777D01*
X68555599Y-105291253D01*
X68535893Y-105305868D01*
X68514850Y-105318480D01*
X68492671Y-105328970D01*
X68469572Y-105337235D01*
X68445773Y-105343196D01*
X68421505Y-105346796D01*
X68397001Y-105348000D01*
X67746999Y-105348000D01*
X67722495Y-105346796D01*
X67698227Y-105343196D01*
X67674428Y-105337235D01*
X67651329Y-105328970D01*
X67629150Y-105318480D01*
X67608107Y-105305868D01*
X67588401Y-105291253D01*
X67570223Y-105274777D01*
X67553747Y-105256599D01*
X67539132Y-105236893D01*
X67526520Y-105215850D01*
X67516030Y-105193671D01*
X67507765Y-105170572D01*
X67501804Y-105146773D01*
X67498204Y-105122505D01*
X67497000Y-105098001D01*
X67497000Y-104197999D01*
X67498204Y-104173495D01*
X67501804Y-104149227D01*
X67507765Y-104125428D01*
X67516030Y-104102329D01*
X67526520Y-104080150D01*
X67539132Y-104059107D01*
X67553747Y-104039401D01*
X67570223Y-104021223D01*
X67588401Y-104004747D01*
X67608107Y-103990132D01*
X67629150Y-103977520D01*
X67651329Y-103967030D01*
X67674428Y-103958765D01*
X67698227Y-103952804D01*
X67722495Y-103949204D01*
X67746999Y-103948000D01*
X68397001Y-103948000D01*
X68421505Y-103949204D01*
X68421505Y-103949204D01*
G37*
D12*
X68072000Y-104648000D03*
G04 #@! TD*
D11*
G04 #@! TO.C,D3*
G36*
X68421505Y-100647204D02*
X68445773Y-100650804D01*
X68469572Y-100656765D01*
X68492671Y-100665030D01*
X68514850Y-100675520D01*
X68535893Y-100688132D01*
X68555599Y-100702747D01*
X68573777Y-100719223D01*
X68590253Y-100737401D01*
X68604868Y-100757107D01*
X68617480Y-100778150D01*
X68627970Y-100800329D01*
X68636235Y-100823428D01*
X68642196Y-100847227D01*
X68645796Y-100871495D01*
X68647000Y-100895999D01*
X68647000Y-101796001D01*
X68645796Y-101820505D01*
X68642196Y-101844773D01*
X68636235Y-101868572D01*
X68627970Y-101891671D01*
X68617480Y-101913850D01*
X68604868Y-101934893D01*
X68590253Y-101954599D01*
X68573777Y-101972777D01*
X68555599Y-101989253D01*
X68535893Y-102003868D01*
X68514850Y-102016480D01*
X68492671Y-102026970D01*
X68469572Y-102035235D01*
X68445773Y-102041196D01*
X68421505Y-102044796D01*
X68397001Y-102046000D01*
X67746999Y-102046000D01*
X67722495Y-102044796D01*
X67698227Y-102041196D01*
X67674428Y-102035235D01*
X67651329Y-102026970D01*
X67629150Y-102016480D01*
X67608107Y-102003868D01*
X67588401Y-101989253D01*
X67570223Y-101972777D01*
X67553747Y-101954599D01*
X67539132Y-101934893D01*
X67526520Y-101913850D01*
X67516030Y-101891671D01*
X67507765Y-101868572D01*
X67501804Y-101844773D01*
X67498204Y-101820505D01*
X67497000Y-101796001D01*
X67497000Y-100895999D01*
X67498204Y-100871495D01*
X67501804Y-100847227D01*
X67507765Y-100823428D01*
X67516030Y-100800329D01*
X67526520Y-100778150D01*
X67539132Y-100757107D01*
X67553747Y-100737401D01*
X67570223Y-100719223D01*
X67588401Y-100702747D01*
X67608107Y-100688132D01*
X67629150Y-100675520D01*
X67651329Y-100665030D01*
X67674428Y-100656765D01*
X67698227Y-100650804D01*
X67722495Y-100647204D01*
X67746999Y-100646000D01*
X68397001Y-100646000D01*
X68421505Y-100647204D01*
X68421505Y-100647204D01*
G37*
D12*
X68072000Y-101346000D03*
D11*
G36*
X66371505Y-100647204D02*
X66395773Y-100650804D01*
X66419572Y-100656765D01*
X66442671Y-100665030D01*
X66464850Y-100675520D01*
X66485893Y-100688132D01*
X66505599Y-100702747D01*
X66523777Y-100719223D01*
X66540253Y-100737401D01*
X66554868Y-100757107D01*
X66567480Y-100778150D01*
X66577970Y-100800329D01*
X66586235Y-100823428D01*
X66592196Y-100847227D01*
X66595796Y-100871495D01*
X66597000Y-100895999D01*
X66597000Y-101796001D01*
X66595796Y-101820505D01*
X66592196Y-101844773D01*
X66586235Y-101868572D01*
X66577970Y-101891671D01*
X66567480Y-101913850D01*
X66554868Y-101934893D01*
X66540253Y-101954599D01*
X66523777Y-101972777D01*
X66505599Y-101989253D01*
X66485893Y-102003868D01*
X66464850Y-102016480D01*
X66442671Y-102026970D01*
X66419572Y-102035235D01*
X66395773Y-102041196D01*
X66371505Y-102044796D01*
X66347001Y-102046000D01*
X65696999Y-102046000D01*
X65672495Y-102044796D01*
X65648227Y-102041196D01*
X65624428Y-102035235D01*
X65601329Y-102026970D01*
X65579150Y-102016480D01*
X65558107Y-102003868D01*
X65538401Y-101989253D01*
X65520223Y-101972777D01*
X65503747Y-101954599D01*
X65489132Y-101934893D01*
X65476520Y-101913850D01*
X65466030Y-101891671D01*
X65457765Y-101868572D01*
X65451804Y-101844773D01*
X65448204Y-101820505D01*
X65447000Y-101796001D01*
X65447000Y-100895999D01*
X65448204Y-100871495D01*
X65451804Y-100847227D01*
X65457765Y-100823428D01*
X65466030Y-100800329D01*
X65476520Y-100778150D01*
X65489132Y-100757107D01*
X65503747Y-100737401D01*
X65520223Y-100719223D01*
X65538401Y-100702747D01*
X65558107Y-100688132D01*
X65579150Y-100675520D01*
X65601329Y-100665030D01*
X65624428Y-100656765D01*
X65648227Y-100650804D01*
X65672495Y-100647204D01*
X65696999Y-100646000D01*
X66347001Y-100646000D01*
X66371505Y-100647204D01*
X66371505Y-100647204D01*
G37*
D12*
X66022000Y-101346000D03*
G04 #@! TD*
D11*
G04 #@! TO.C,D4*
G36*
X66371505Y-97472204D02*
X66395773Y-97475804D01*
X66419572Y-97481765D01*
X66442671Y-97490030D01*
X66464850Y-97500520D01*
X66485893Y-97513132D01*
X66505599Y-97527747D01*
X66523777Y-97544223D01*
X66540253Y-97562401D01*
X66554868Y-97582107D01*
X66567480Y-97603150D01*
X66577970Y-97625329D01*
X66586235Y-97648428D01*
X66592196Y-97672227D01*
X66595796Y-97696495D01*
X66597000Y-97720999D01*
X66597000Y-98621001D01*
X66595796Y-98645505D01*
X66592196Y-98669773D01*
X66586235Y-98693572D01*
X66577970Y-98716671D01*
X66567480Y-98738850D01*
X66554868Y-98759893D01*
X66540253Y-98779599D01*
X66523777Y-98797777D01*
X66505599Y-98814253D01*
X66485893Y-98828868D01*
X66464850Y-98841480D01*
X66442671Y-98851970D01*
X66419572Y-98860235D01*
X66395773Y-98866196D01*
X66371505Y-98869796D01*
X66347001Y-98871000D01*
X65696999Y-98871000D01*
X65672495Y-98869796D01*
X65648227Y-98866196D01*
X65624428Y-98860235D01*
X65601329Y-98851970D01*
X65579150Y-98841480D01*
X65558107Y-98828868D01*
X65538401Y-98814253D01*
X65520223Y-98797777D01*
X65503747Y-98779599D01*
X65489132Y-98759893D01*
X65476520Y-98738850D01*
X65466030Y-98716671D01*
X65457765Y-98693572D01*
X65451804Y-98669773D01*
X65448204Y-98645505D01*
X65447000Y-98621001D01*
X65447000Y-97720999D01*
X65448204Y-97696495D01*
X65451804Y-97672227D01*
X65457765Y-97648428D01*
X65466030Y-97625329D01*
X65476520Y-97603150D01*
X65489132Y-97582107D01*
X65503747Y-97562401D01*
X65520223Y-97544223D01*
X65538401Y-97527747D01*
X65558107Y-97513132D01*
X65579150Y-97500520D01*
X65601329Y-97490030D01*
X65624428Y-97481765D01*
X65648227Y-97475804D01*
X65672495Y-97472204D01*
X65696999Y-97471000D01*
X66347001Y-97471000D01*
X66371505Y-97472204D01*
X66371505Y-97472204D01*
G37*
D12*
X66022000Y-98171000D03*
D11*
G36*
X68421505Y-97472204D02*
X68445773Y-97475804D01*
X68469572Y-97481765D01*
X68492671Y-97490030D01*
X68514850Y-97500520D01*
X68535893Y-97513132D01*
X68555599Y-97527747D01*
X68573777Y-97544223D01*
X68590253Y-97562401D01*
X68604868Y-97582107D01*
X68617480Y-97603150D01*
X68627970Y-97625329D01*
X68636235Y-97648428D01*
X68642196Y-97672227D01*
X68645796Y-97696495D01*
X68647000Y-97720999D01*
X68647000Y-98621001D01*
X68645796Y-98645505D01*
X68642196Y-98669773D01*
X68636235Y-98693572D01*
X68627970Y-98716671D01*
X68617480Y-98738850D01*
X68604868Y-98759893D01*
X68590253Y-98779599D01*
X68573777Y-98797777D01*
X68555599Y-98814253D01*
X68535893Y-98828868D01*
X68514850Y-98841480D01*
X68492671Y-98851970D01*
X68469572Y-98860235D01*
X68445773Y-98866196D01*
X68421505Y-98869796D01*
X68397001Y-98871000D01*
X67746999Y-98871000D01*
X67722495Y-98869796D01*
X67698227Y-98866196D01*
X67674428Y-98860235D01*
X67651329Y-98851970D01*
X67629150Y-98841480D01*
X67608107Y-98828868D01*
X67588401Y-98814253D01*
X67570223Y-98797777D01*
X67553747Y-98779599D01*
X67539132Y-98759893D01*
X67526520Y-98738850D01*
X67516030Y-98716671D01*
X67507765Y-98693572D01*
X67501804Y-98669773D01*
X67498204Y-98645505D01*
X67497000Y-98621001D01*
X67497000Y-97720999D01*
X67498204Y-97696495D01*
X67501804Y-97672227D01*
X67507765Y-97648428D01*
X67516030Y-97625329D01*
X67526520Y-97603150D01*
X67539132Y-97582107D01*
X67553747Y-97562401D01*
X67570223Y-97544223D01*
X67588401Y-97527747D01*
X67608107Y-97513132D01*
X67629150Y-97500520D01*
X67651329Y-97490030D01*
X67674428Y-97481765D01*
X67698227Y-97475804D01*
X67722495Y-97472204D01*
X67746999Y-97471000D01*
X68397001Y-97471000D01*
X68421505Y-97472204D01*
X68421505Y-97472204D01*
G37*
D12*
X68072000Y-98171000D03*
G04 #@! TD*
D11*
G04 #@! TO.C,D5*
G36*
X68421505Y-94170204D02*
X68445773Y-94173804D01*
X68469572Y-94179765D01*
X68492671Y-94188030D01*
X68514850Y-94198520D01*
X68535893Y-94211132D01*
X68555599Y-94225747D01*
X68573777Y-94242223D01*
X68590253Y-94260401D01*
X68604868Y-94280107D01*
X68617480Y-94301150D01*
X68627970Y-94323329D01*
X68636235Y-94346428D01*
X68642196Y-94370227D01*
X68645796Y-94394495D01*
X68647000Y-94418999D01*
X68647000Y-95319001D01*
X68645796Y-95343505D01*
X68642196Y-95367773D01*
X68636235Y-95391572D01*
X68627970Y-95414671D01*
X68617480Y-95436850D01*
X68604868Y-95457893D01*
X68590253Y-95477599D01*
X68573777Y-95495777D01*
X68555599Y-95512253D01*
X68535893Y-95526868D01*
X68514850Y-95539480D01*
X68492671Y-95549970D01*
X68469572Y-95558235D01*
X68445773Y-95564196D01*
X68421505Y-95567796D01*
X68397001Y-95569000D01*
X67746999Y-95569000D01*
X67722495Y-95567796D01*
X67698227Y-95564196D01*
X67674428Y-95558235D01*
X67651329Y-95549970D01*
X67629150Y-95539480D01*
X67608107Y-95526868D01*
X67588401Y-95512253D01*
X67570223Y-95495777D01*
X67553747Y-95477599D01*
X67539132Y-95457893D01*
X67526520Y-95436850D01*
X67516030Y-95414671D01*
X67507765Y-95391572D01*
X67501804Y-95367773D01*
X67498204Y-95343505D01*
X67497000Y-95319001D01*
X67497000Y-94418999D01*
X67498204Y-94394495D01*
X67501804Y-94370227D01*
X67507765Y-94346428D01*
X67516030Y-94323329D01*
X67526520Y-94301150D01*
X67539132Y-94280107D01*
X67553747Y-94260401D01*
X67570223Y-94242223D01*
X67588401Y-94225747D01*
X67608107Y-94211132D01*
X67629150Y-94198520D01*
X67651329Y-94188030D01*
X67674428Y-94179765D01*
X67698227Y-94173804D01*
X67722495Y-94170204D01*
X67746999Y-94169000D01*
X68397001Y-94169000D01*
X68421505Y-94170204D01*
X68421505Y-94170204D01*
G37*
D12*
X68072000Y-94869000D03*
D11*
G36*
X66371505Y-94170204D02*
X66395773Y-94173804D01*
X66419572Y-94179765D01*
X66442671Y-94188030D01*
X66464850Y-94198520D01*
X66485893Y-94211132D01*
X66505599Y-94225747D01*
X66523777Y-94242223D01*
X66540253Y-94260401D01*
X66554868Y-94280107D01*
X66567480Y-94301150D01*
X66577970Y-94323329D01*
X66586235Y-94346428D01*
X66592196Y-94370227D01*
X66595796Y-94394495D01*
X66597000Y-94418999D01*
X66597000Y-95319001D01*
X66595796Y-95343505D01*
X66592196Y-95367773D01*
X66586235Y-95391572D01*
X66577970Y-95414671D01*
X66567480Y-95436850D01*
X66554868Y-95457893D01*
X66540253Y-95477599D01*
X66523777Y-95495777D01*
X66505599Y-95512253D01*
X66485893Y-95526868D01*
X66464850Y-95539480D01*
X66442671Y-95549970D01*
X66419572Y-95558235D01*
X66395773Y-95564196D01*
X66371505Y-95567796D01*
X66347001Y-95569000D01*
X65696999Y-95569000D01*
X65672495Y-95567796D01*
X65648227Y-95564196D01*
X65624428Y-95558235D01*
X65601329Y-95549970D01*
X65579150Y-95539480D01*
X65558107Y-95526868D01*
X65538401Y-95512253D01*
X65520223Y-95495777D01*
X65503747Y-95477599D01*
X65489132Y-95457893D01*
X65476520Y-95436850D01*
X65466030Y-95414671D01*
X65457765Y-95391572D01*
X65451804Y-95367773D01*
X65448204Y-95343505D01*
X65447000Y-95319001D01*
X65447000Y-94418999D01*
X65448204Y-94394495D01*
X65451804Y-94370227D01*
X65457765Y-94346428D01*
X65466030Y-94323329D01*
X65476520Y-94301150D01*
X65489132Y-94280107D01*
X65503747Y-94260401D01*
X65520223Y-94242223D01*
X65538401Y-94225747D01*
X65558107Y-94211132D01*
X65579150Y-94198520D01*
X65601329Y-94188030D01*
X65624428Y-94179765D01*
X65648227Y-94173804D01*
X65672495Y-94170204D01*
X65696999Y-94169000D01*
X66347001Y-94169000D01*
X66371505Y-94170204D01*
X66371505Y-94170204D01*
G37*
D12*
X66022000Y-94869000D03*
G04 #@! TD*
D11*
G04 #@! TO.C,D6*
G36*
X66371505Y-90868204D02*
X66395773Y-90871804D01*
X66419572Y-90877765D01*
X66442671Y-90886030D01*
X66464850Y-90896520D01*
X66485893Y-90909132D01*
X66505599Y-90923747D01*
X66523777Y-90940223D01*
X66540253Y-90958401D01*
X66554868Y-90978107D01*
X66567480Y-90999150D01*
X66577970Y-91021329D01*
X66586235Y-91044428D01*
X66592196Y-91068227D01*
X66595796Y-91092495D01*
X66597000Y-91116999D01*
X66597000Y-92017001D01*
X66595796Y-92041505D01*
X66592196Y-92065773D01*
X66586235Y-92089572D01*
X66577970Y-92112671D01*
X66567480Y-92134850D01*
X66554868Y-92155893D01*
X66540253Y-92175599D01*
X66523777Y-92193777D01*
X66505599Y-92210253D01*
X66485893Y-92224868D01*
X66464850Y-92237480D01*
X66442671Y-92247970D01*
X66419572Y-92256235D01*
X66395773Y-92262196D01*
X66371505Y-92265796D01*
X66347001Y-92267000D01*
X65696999Y-92267000D01*
X65672495Y-92265796D01*
X65648227Y-92262196D01*
X65624428Y-92256235D01*
X65601329Y-92247970D01*
X65579150Y-92237480D01*
X65558107Y-92224868D01*
X65538401Y-92210253D01*
X65520223Y-92193777D01*
X65503747Y-92175599D01*
X65489132Y-92155893D01*
X65476520Y-92134850D01*
X65466030Y-92112671D01*
X65457765Y-92089572D01*
X65451804Y-92065773D01*
X65448204Y-92041505D01*
X65447000Y-92017001D01*
X65447000Y-91116999D01*
X65448204Y-91092495D01*
X65451804Y-91068227D01*
X65457765Y-91044428D01*
X65466030Y-91021329D01*
X65476520Y-90999150D01*
X65489132Y-90978107D01*
X65503747Y-90958401D01*
X65520223Y-90940223D01*
X65538401Y-90923747D01*
X65558107Y-90909132D01*
X65579150Y-90896520D01*
X65601329Y-90886030D01*
X65624428Y-90877765D01*
X65648227Y-90871804D01*
X65672495Y-90868204D01*
X65696999Y-90867000D01*
X66347001Y-90867000D01*
X66371505Y-90868204D01*
X66371505Y-90868204D01*
G37*
D12*
X66022000Y-91567000D03*
D11*
G36*
X68421505Y-90868204D02*
X68445773Y-90871804D01*
X68469572Y-90877765D01*
X68492671Y-90886030D01*
X68514850Y-90896520D01*
X68535893Y-90909132D01*
X68555599Y-90923747D01*
X68573777Y-90940223D01*
X68590253Y-90958401D01*
X68604868Y-90978107D01*
X68617480Y-90999150D01*
X68627970Y-91021329D01*
X68636235Y-91044428D01*
X68642196Y-91068227D01*
X68645796Y-91092495D01*
X68647000Y-91116999D01*
X68647000Y-92017001D01*
X68645796Y-92041505D01*
X68642196Y-92065773D01*
X68636235Y-92089572D01*
X68627970Y-92112671D01*
X68617480Y-92134850D01*
X68604868Y-92155893D01*
X68590253Y-92175599D01*
X68573777Y-92193777D01*
X68555599Y-92210253D01*
X68535893Y-92224868D01*
X68514850Y-92237480D01*
X68492671Y-92247970D01*
X68469572Y-92256235D01*
X68445773Y-92262196D01*
X68421505Y-92265796D01*
X68397001Y-92267000D01*
X67746999Y-92267000D01*
X67722495Y-92265796D01*
X67698227Y-92262196D01*
X67674428Y-92256235D01*
X67651329Y-92247970D01*
X67629150Y-92237480D01*
X67608107Y-92224868D01*
X67588401Y-92210253D01*
X67570223Y-92193777D01*
X67553747Y-92175599D01*
X67539132Y-92155893D01*
X67526520Y-92134850D01*
X67516030Y-92112671D01*
X67507765Y-92089572D01*
X67501804Y-92065773D01*
X67498204Y-92041505D01*
X67497000Y-92017001D01*
X67497000Y-91116999D01*
X67498204Y-91092495D01*
X67501804Y-91068227D01*
X67507765Y-91044428D01*
X67516030Y-91021329D01*
X67526520Y-90999150D01*
X67539132Y-90978107D01*
X67553747Y-90958401D01*
X67570223Y-90940223D01*
X67588401Y-90923747D01*
X67608107Y-90909132D01*
X67629150Y-90896520D01*
X67651329Y-90886030D01*
X67674428Y-90877765D01*
X67698227Y-90871804D01*
X67722495Y-90868204D01*
X67746999Y-90867000D01*
X68397001Y-90867000D01*
X68421505Y-90868204D01*
X68421505Y-90868204D01*
G37*
D12*
X68072000Y-91567000D03*
G04 #@! TD*
D11*
G04 #@! TO.C,D7*
G36*
X68421505Y-87693204D02*
X68445773Y-87696804D01*
X68469572Y-87702765D01*
X68492671Y-87711030D01*
X68514850Y-87721520D01*
X68535893Y-87734132D01*
X68555599Y-87748747D01*
X68573777Y-87765223D01*
X68590253Y-87783401D01*
X68604868Y-87803107D01*
X68617480Y-87824150D01*
X68627970Y-87846329D01*
X68636235Y-87869428D01*
X68642196Y-87893227D01*
X68645796Y-87917495D01*
X68647000Y-87941999D01*
X68647000Y-88842001D01*
X68645796Y-88866505D01*
X68642196Y-88890773D01*
X68636235Y-88914572D01*
X68627970Y-88937671D01*
X68617480Y-88959850D01*
X68604868Y-88980893D01*
X68590253Y-89000599D01*
X68573777Y-89018777D01*
X68555599Y-89035253D01*
X68535893Y-89049868D01*
X68514850Y-89062480D01*
X68492671Y-89072970D01*
X68469572Y-89081235D01*
X68445773Y-89087196D01*
X68421505Y-89090796D01*
X68397001Y-89092000D01*
X67746999Y-89092000D01*
X67722495Y-89090796D01*
X67698227Y-89087196D01*
X67674428Y-89081235D01*
X67651329Y-89072970D01*
X67629150Y-89062480D01*
X67608107Y-89049868D01*
X67588401Y-89035253D01*
X67570223Y-89018777D01*
X67553747Y-89000599D01*
X67539132Y-88980893D01*
X67526520Y-88959850D01*
X67516030Y-88937671D01*
X67507765Y-88914572D01*
X67501804Y-88890773D01*
X67498204Y-88866505D01*
X67497000Y-88842001D01*
X67497000Y-87941999D01*
X67498204Y-87917495D01*
X67501804Y-87893227D01*
X67507765Y-87869428D01*
X67516030Y-87846329D01*
X67526520Y-87824150D01*
X67539132Y-87803107D01*
X67553747Y-87783401D01*
X67570223Y-87765223D01*
X67588401Y-87748747D01*
X67608107Y-87734132D01*
X67629150Y-87721520D01*
X67651329Y-87711030D01*
X67674428Y-87702765D01*
X67698227Y-87696804D01*
X67722495Y-87693204D01*
X67746999Y-87692000D01*
X68397001Y-87692000D01*
X68421505Y-87693204D01*
X68421505Y-87693204D01*
G37*
D12*
X68072000Y-88392000D03*
D11*
G36*
X66371505Y-87693204D02*
X66395773Y-87696804D01*
X66419572Y-87702765D01*
X66442671Y-87711030D01*
X66464850Y-87721520D01*
X66485893Y-87734132D01*
X66505599Y-87748747D01*
X66523777Y-87765223D01*
X66540253Y-87783401D01*
X66554868Y-87803107D01*
X66567480Y-87824150D01*
X66577970Y-87846329D01*
X66586235Y-87869428D01*
X66592196Y-87893227D01*
X66595796Y-87917495D01*
X66597000Y-87941999D01*
X66597000Y-88842001D01*
X66595796Y-88866505D01*
X66592196Y-88890773D01*
X66586235Y-88914572D01*
X66577970Y-88937671D01*
X66567480Y-88959850D01*
X66554868Y-88980893D01*
X66540253Y-89000599D01*
X66523777Y-89018777D01*
X66505599Y-89035253D01*
X66485893Y-89049868D01*
X66464850Y-89062480D01*
X66442671Y-89072970D01*
X66419572Y-89081235D01*
X66395773Y-89087196D01*
X66371505Y-89090796D01*
X66347001Y-89092000D01*
X65696999Y-89092000D01*
X65672495Y-89090796D01*
X65648227Y-89087196D01*
X65624428Y-89081235D01*
X65601329Y-89072970D01*
X65579150Y-89062480D01*
X65558107Y-89049868D01*
X65538401Y-89035253D01*
X65520223Y-89018777D01*
X65503747Y-89000599D01*
X65489132Y-88980893D01*
X65476520Y-88959850D01*
X65466030Y-88937671D01*
X65457765Y-88914572D01*
X65451804Y-88890773D01*
X65448204Y-88866505D01*
X65447000Y-88842001D01*
X65447000Y-87941999D01*
X65448204Y-87917495D01*
X65451804Y-87893227D01*
X65457765Y-87869428D01*
X65466030Y-87846329D01*
X65476520Y-87824150D01*
X65489132Y-87803107D01*
X65503747Y-87783401D01*
X65520223Y-87765223D01*
X65538401Y-87748747D01*
X65558107Y-87734132D01*
X65579150Y-87721520D01*
X65601329Y-87711030D01*
X65624428Y-87702765D01*
X65648227Y-87696804D01*
X65672495Y-87693204D01*
X65696999Y-87692000D01*
X66347001Y-87692000D01*
X66371505Y-87693204D01*
X66371505Y-87693204D01*
G37*
D12*
X66022000Y-88392000D03*
G04 #@! TD*
D11*
G04 #@! TO.C,D8*
G36*
X66371505Y-84518204D02*
X66395773Y-84521804D01*
X66419572Y-84527765D01*
X66442671Y-84536030D01*
X66464850Y-84546520D01*
X66485893Y-84559132D01*
X66505599Y-84573747D01*
X66523777Y-84590223D01*
X66540253Y-84608401D01*
X66554868Y-84628107D01*
X66567480Y-84649150D01*
X66577970Y-84671329D01*
X66586235Y-84694428D01*
X66592196Y-84718227D01*
X66595796Y-84742495D01*
X66597000Y-84766999D01*
X66597000Y-85667001D01*
X66595796Y-85691505D01*
X66592196Y-85715773D01*
X66586235Y-85739572D01*
X66577970Y-85762671D01*
X66567480Y-85784850D01*
X66554868Y-85805893D01*
X66540253Y-85825599D01*
X66523777Y-85843777D01*
X66505599Y-85860253D01*
X66485893Y-85874868D01*
X66464850Y-85887480D01*
X66442671Y-85897970D01*
X66419572Y-85906235D01*
X66395773Y-85912196D01*
X66371505Y-85915796D01*
X66347001Y-85917000D01*
X65696999Y-85917000D01*
X65672495Y-85915796D01*
X65648227Y-85912196D01*
X65624428Y-85906235D01*
X65601329Y-85897970D01*
X65579150Y-85887480D01*
X65558107Y-85874868D01*
X65538401Y-85860253D01*
X65520223Y-85843777D01*
X65503747Y-85825599D01*
X65489132Y-85805893D01*
X65476520Y-85784850D01*
X65466030Y-85762671D01*
X65457765Y-85739572D01*
X65451804Y-85715773D01*
X65448204Y-85691505D01*
X65447000Y-85667001D01*
X65447000Y-84766999D01*
X65448204Y-84742495D01*
X65451804Y-84718227D01*
X65457765Y-84694428D01*
X65466030Y-84671329D01*
X65476520Y-84649150D01*
X65489132Y-84628107D01*
X65503747Y-84608401D01*
X65520223Y-84590223D01*
X65538401Y-84573747D01*
X65558107Y-84559132D01*
X65579150Y-84546520D01*
X65601329Y-84536030D01*
X65624428Y-84527765D01*
X65648227Y-84521804D01*
X65672495Y-84518204D01*
X65696999Y-84517000D01*
X66347001Y-84517000D01*
X66371505Y-84518204D01*
X66371505Y-84518204D01*
G37*
D12*
X66022000Y-85217000D03*
D11*
G36*
X68421505Y-84518204D02*
X68445773Y-84521804D01*
X68469572Y-84527765D01*
X68492671Y-84536030D01*
X68514850Y-84546520D01*
X68535893Y-84559132D01*
X68555599Y-84573747D01*
X68573777Y-84590223D01*
X68590253Y-84608401D01*
X68604868Y-84628107D01*
X68617480Y-84649150D01*
X68627970Y-84671329D01*
X68636235Y-84694428D01*
X68642196Y-84718227D01*
X68645796Y-84742495D01*
X68647000Y-84766999D01*
X68647000Y-85667001D01*
X68645796Y-85691505D01*
X68642196Y-85715773D01*
X68636235Y-85739572D01*
X68627970Y-85762671D01*
X68617480Y-85784850D01*
X68604868Y-85805893D01*
X68590253Y-85825599D01*
X68573777Y-85843777D01*
X68555599Y-85860253D01*
X68535893Y-85874868D01*
X68514850Y-85887480D01*
X68492671Y-85897970D01*
X68469572Y-85906235D01*
X68445773Y-85912196D01*
X68421505Y-85915796D01*
X68397001Y-85917000D01*
X67746999Y-85917000D01*
X67722495Y-85915796D01*
X67698227Y-85912196D01*
X67674428Y-85906235D01*
X67651329Y-85897970D01*
X67629150Y-85887480D01*
X67608107Y-85874868D01*
X67588401Y-85860253D01*
X67570223Y-85843777D01*
X67553747Y-85825599D01*
X67539132Y-85805893D01*
X67526520Y-85784850D01*
X67516030Y-85762671D01*
X67507765Y-85739572D01*
X67501804Y-85715773D01*
X67498204Y-85691505D01*
X67497000Y-85667001D01*
X67497000Y-84766999D01*
X67498204Y-84742495D01*
X67501804Y-84718227D01*
X67507765Y-84694428D01*
X67516030Y-84671329D01*
X67526520Y-84649150D01*
X67539132Y-84628107D01*
X67553747Y-84608401D01*
X67570223Y-84590223D01*
X67588401Y-84573747D01*
X67608107Y-84559132D01*
X67629150Y-84546520D01*
X67651329Y-84536030D01*
X67674428Y-84527765D01*
X67698227Y-84521804D01*
X67722495Y-84518204D01*
X67746999Y-84517000D01*
X68397001Y-84517000D01*
X68421505Y-84518204D01*
X68421505Y-84518204D01*
G37*
D12*
X68072000Y-85217000D03*
G04 #@! TD*
D11*
G04 #@! TO.C,D9*
G36*
X113824005Y-107568704D02*
X113848273Y-107572304D01*
X113872072Y-107578265D01*
X113895171Y-107586530D01*
X113917350Y-107597020D01*
X113938393Y-107609632D01*
X113958099Y-107624247D01*
X113976277Y-107640723D01*
X113992753Y-107658901D01*
X114007368Y-107678607D01*
X114019980Y-107699650D01*
X114030470Y-107721829D01*
X114038735Y-107744928D01*
X114044696Y-107768727D01*
X114048296Y-107792995D01*
X114049500Y-107817499D01*
X114049500Y-108717501D01*
X114048296Y-108742005D01*
X114044696Y-108766273D01*
X114038735Y-108790072D01*
X114030470Y-108813171D01*
X114019980Y-108835350D01*
X114007368Y-108856393D01*
X113992753Y-108876099D01*
X113976277Y-108894277D01*
X113958099Y-108910753D01*
X113938393Y-108925368D01*
X113917350Y-108937980D01*
X113895171Y-108948470D01*
X113872072Y-108956735D01*
X113848273Y-108962696D01*
X113824005Y-108966296D01*
X113799501Y-108967500D01*
X113149499Y-108967500D01*
X113124995Y-108966296D01*
X113100727Y-108962696D01*
X113076928Y-108956735D01*
X113053829Y-108948470D01*
X113031650Y-108937980D01*
X113010607Y-108925368D01*
X112990901Y-108910753D01*
X112972723Y-108894277D01*
X112956247Y-108876099D01*
X112941632Y-108856393D01*
X112929020Y-108835350D01*
X112918530Y-108813171D01*
X112910265Y-108790072D01*
X112904304Y-108766273D01*
X112900704Y-108742005D01*
X112899500Y-108717501D01*
X112899500Y-107817499D01*
X112900704Y-107792995D01*
X112904304Y-107768727D01*
X112910265Y-107744928D01*
X112918530Y-107721829D01*
X112929020Y-107699650D01*
X112941632Y-107678607D01*
X112956247Y-107658901D01*
X112972723Y-107640723D01*
X112990901Y-107624247D01*
X113010607Y-107609632D01*
X113031650Y-107597020D01*
X113053829Y-107586530D01*
X113076928Y-107578265D01*
X113100727Y-107572304D01*
X113124995Y-107568704D01*
X113149499Y-107567500D01*
X113799501Y-107567500D01*
X113824005Y-107568704D01*
X113824005Y-107568704D01*
G37*
D12*
X113474500Y-108267500D03*
D11*
G36*
X111774005Y-107568704D02*
X111798273Y-107572304D01*
X111822072Y-107578265D01*
X111845171Y-107586530D01*
X111867350Y-107597020D01*
X111888393Y-107609632D01*
X111908099Y-107624247D01*
X111926277Y-107640723D01*
X111942753Y-107658901D01*
X111957368Y-107678607D01*
X111969980Y-107699650D01*
X111980470Y-107721829D01*
X111988735Y-107744928D01*
X111994696Y-107768727D01*
X111998296Y-107792995D01*
X111999500Y-107817499D01*
X111999500Y-108717501D01*
X111998296Y-108742005D01*
X111994696Y-108766273D01*
X111988735Y-108790072D01*
X111980470Y-108813171D01*
X111969980Y-108835350D01*
X111957368Y-108856393D01*
X111942753Y-108876099D01*
X111926277Y-108894277D01*
X111908099Y-108910753D01*
X111888393Y-108925368D01*
X111867350Y-108937980D01*
X111845171Y-108948470D01*
X111822072Y-108956735D01*
X111798273Y-108962696D01*
X111774005Y-108966296D01*
X111749501Y-108967500D01*
X111099499Y-108967500D01*
X111074995Y-108966296D01*
X111050727Y-108962696D01*
X111026928Y-108956735D01*
X111003829Y-108948470D01*
X110981650Y-108937980D01*
X110960607Y-108925368D01*
X110940901Y-108910753D01*
X110922723Y-108894277D01*
X110906247Y-108876099D01*
X110891632Y-108856393D01*
X110879020Y-108835350D01*
X110868530Y-108813171D01*
X110860265Y-108790072D01*
X110854304Y-108766273D01*
X110850704Y-108742005D01*
X110849500Y-108717501D01*
X110849500Y-107817499D01*
X110850704Y-107792995D01*
X110854304Y-107768727D01*
X110860265Y-107744928D01*
X110868530Y-107721829D01*
X110879020Y-107699650D01*
X110891632Y-107678607D01*
X110906247Y-107658901D01*
X110922723Y-107640723D01*
X110940901Y-107624247D01*
X110960607Y-107609632D01*
X110981650Y-107597020D01*
X111003829Y-107586530D01*
X111026928Y-107578265D01*
X111050727Y-107572304D01*
X111074995Y-107568704D01*
X111099499Y-107567500D01*
X111749501Y-107567500D01*
X111774005Y-107568704D01*
X111774005Y-107568704D01*
G37*
D12*
X111424500Y-108267500D03*
G04 #@! TD*
D11*
G04 #@! TO.C,D10*
G36*
X111774005Y-104139704D02*
X111798273Y-104143304D01*
X111822072Y-104149265D01*
X111845171Y-104157530D01*
X111867350Y-104168020D01*
X111888393Y-104180632D01*
X111908099Y-104195247D01*
X111926277Y-104211723D01*
X111942753Y-104229901D01*
X111957368Y-104249607D01*
X111969980Y-104270650D01*
X111980470Y-104292829D01*
X111988735Y-104315928D01*
X111994696Y-104339727D01*
X111998296Y-104363995D01*
X111999500Y-104388499D01*
X111999500Y-105288501D01*
X111998296Y-105313005D01*
X111994696Y-105337273D01*
X111988735Y-105361072D01*
X111980470Y-105384171D01*
X111969980Y-105406350D01*
X111957368Y-105427393D01*
X111942753Y-105447099D01*
X111926277Y-105465277D01*
X111908099Y-105481753D01*
X111888393Y-105496368D01*
X111867350Y-105508980D01*
X111845171Y-105519470D01*
X111822072Y-105527735D01*
X111798273Y-105533696D01*
X111774005Y-105537296D01*
X111749501Y-105538500D01*
X111099499Y-105538500D01*
X111074995Y-105537296D01*
X111050727Y-105533696D01*
X111026928Y-105527735D01*
X111003829Y-105519470D01*
X110981650Y-105508980D01*
X110960607Y-105496368D01*
X110940901Y-105481753D01*
X110922723Y-105465277D01*
X110906247Y-105447099D01*
X110891632Y-105427393D01*
X110879020Y-105406350D01*
X110868530Y-105384171D01*
X110860265Y-105361072D01*
X110854304Y-105337273D01*
X110850704Y-105313005D01*
X110849500Y-105288501D01*
X110849500Y-104388499D01*
X110850704Y-104363995D01*
X110854304Y-104339727D01*
X110860265Y-104315928D01*
X110868530Y-104292829D01*
X110879020Y-104270650D01*
X110891632Y-104249607D01*
X110906247Y-104229901D01*
X110922723Y-104211723D01*
X110940901Y-104195247D01*
X110960607Y-104180632D01*
X110981650Y-104168020D01*
X111003829Y-104157530D01*
X111026928Y-104149265D01*
X111050727Y-104143304D01*
X111074995Y-104139704D01*
X111099499Y-104138500D01*
X111749501Y-104138500D01*
X111774005Y-104139704D01*
X111774005Y-104139704D01*
G37*
D12*
X111424500Y-104838500D03*
D11*
G36*
X113824005Y-104139704D02*
X113848273Y-104143304D01*
X113872072Y-104149265D01*
X113895171Y-104157530D01*
X113917350Y-104168020D01*
X113938393Y-104180632D01*
X113958099Y-104195247D01*
X113976277Y-104211723D01*
X113992753Y-104229901D01*
X114007368Y-104249607D01*
X114019980Y-104270650D01*
X114030470Y-104292829D01*
X114038735Y-104315928D01*
X114044696Y-104339727D01*
X114048296Y-104363995D01*
X114049500Y-104388499D01*
X114049500Y-105288501D01*
X114048296Y-105313005D01*
X114044696Y-105337273D01*
X114038735Y-105361072D01*
X114030470Y-105384171D01*
X114019980Y-105406350D01*
X114007368Y-105427393D01*
X113992753Y-105447099D01*
X113976277Y-105465277D01*
X113958099Y-105481753D01*
X113938393Y-105496368D01*
X113917350Y-105508980D01*
X113895171Y-105519470D01*
X113872072Y-105527735D01*
X113848273Y-105533696D01*
X113824005Y-105537296D01*
X113799501Y-105538500D01*
X113149499Y-105538500D01*
X113124995Y-105537296D01*
X113100727Y-105533696D01*
X113076928Y-105527735D01*
X113053829Y-105519470D01*
X113031650Y-105508980D01*
X113010607Y-105496368D01*
X112990901Y-105481753D01*
X112972723Y-105465277D01*
X112956247Y-105447099D01*
X112941632Y-105427393D01*
X112929020Y-105406350D01*
X112918530Y-105384171D01*
X112910265Y-105361072D01*
X112904304Y-105337273D01*
X112900704Y-105313005D01*
X112899500Y-105288501D01*
X112899500Y-104388499D01*
X112900704Y-104363995D01*
X112904304Y-104339727D01*
X112910265Y-104315928D01*
X112918530Y-104292829D01*
X112929020Y-104270650D01*
X112941632Y-104249607D01*
X112956247Y-104229901D01*
X112972723Y-104211723D01*
X112990901Y-104195247D01*
X113010607Y-104180632D01*
X113031650Y-104168020D01*
X113053829Y-104157530D01*
X113076928Y-104149265D01*
X113100727Y-104143304D01*
X113124995Y-104139704D01*
X113149499Y-104138500D01*
X113799501Y-104138500D01*
X113824005Y-104139704D01*
X113824005Y-104139704D01*
G37*
D12*
X113474500Y-104838500D03*
G04 #@! TD*
D11*
G04 #@! TO.C,D11*
G36*
X113824005Y-100964704D02*
X113848273Y-100968304D01*
X113872072Y-100974265D01*
X113895171Y-100982530D01*
X113917350Y-100993020D01*
X113938393Y-101005632D01*
X113958099Y-101020247D01*
X113976277Y-101036723D01*
X113992753Y-101054901D01*
X114007368Y-101074607D01*
X114019980Y-101095650D01*
X114030470Y-101117829D01*
X114038735Y-101140928D01*
X114044696Y-101164727D01*
X114048296Y-101188995D01*
X114049500Y-101213499D01*
X114049500Y-102113501D01*
X114048296Y-102138005D01*
X114044696Y-102162273D01*
X114038735Y-102186072D01*
X114030470Y-102209171D01*
X114019980Y-102231350D01*
X114007368Y-102252393D01*
X113992753Y-102272099D01*
X113976277Y-102290277D01*
X113958099Y-102306753D01*
X113938393Y-102321368D01*
X113917350Y-102333980D01*
X113895171Y-102344470D01*
X113872072Y-102352735D01*
X113848273Y-102358696D01*
X113824005Y-102362296D01*
X113799501Y-102363500D01*
X113149499Y-102363500D01*
X113124995Y-102362296D01*
X113100727Y-102358696D01*
X113076928Y-102352735D01*
X113053829Y-102344470D01*
X113031650Y-102333980D01*
X113010607Y-102321368D01*
X112990901Y-102306753D01*
X112972723Y-102290277D01*
X112956247Y-102272099D01*
X112941632Y-102252393D01*
X112929020Y-102231350D01*
X112918530Y-102209171D01*
X112910265Y-102186072D01*
X112904304Y-102162273D01*
X112900704Y-102138005D01*
X112899500Y-102113501D01*
X112899500Y-101213499D01*
X112900704Y-101188995D01*
X112904304Y-101164727D01*
X112910265Y-101140928D01*
X112918530Y-101117829D01*
X112929020Y-101095650D01*
X112941632Y-101074607D01*
X112956247Y-101054901D01*
X112972723Y-101036723D01*
X112990901Y-101020247D01*
X113010607Y-101005632D01*
X113031650Y-100993020D01*
X113053829Y-100982530D01*
X113076928Y-100974265D01*
X113100727Y-100968304D01*
X113124995Y-100964704D01*
X113149499Y-100963500D01*
X113799501Y-100963500D01*
X113824005Y-100964704D01*
X113824005Y-100964704D01*
G37*
D12*
X113474500Y-101663500D03*
D11*
G36*
X111774005Y-100964704D02*
X111798273Y-100968304D01*
X111822072Y-100974265D01*
X111845171Y-100982530D01*
X111867350Y-100993020D01*
X111888393Y-101005632D01*
X111908099Y-101020247D01*
X111926277Y-101036723D01*
X111942753Y-101054901D01*
X111957368Y-101074607D01*
X111969980Y-101095650D01*
X111980470Y-101117829D01*
X111988735Y-101140928D01*
X111994696Y-101164727D01*
X111998296Y-101188995D01*
X111999500Y-101213499D01*
X111999500Y-102113501D01*
X111998296Y-102138005D01*
X111994696Y-102162273D01*
X111988735Y-102186072D01*
X111980470Y-102209171D01*
X111969980Y-102231350D01*
X111957368Y-102252393D01*
X111942753Y-102272099D01*
X111926277Y-102290277D01*
X111908099Y-102306753D01*
X111888393Y-102321368D01*
X111867350Y-102333980D01*
X111845171Y-102344470D01*
X111822072Y-102352735D01*
X111798273Y-102358696D01*
X111774005Y-102362296D01*
X111749501Y-102363500D01*
X111099499Y-102363500D01*
X111074995Y-102362296D01*
X111050727Y-102358696D01*
X111026928Y-102352735D01*
X111003829Y-102344470D01*
X110981650Y-102333980D01*
X110960607Y-102321368D01*
X110940901Y-102306753D01*
X110922723Y-102290277D01*
X110906247Y-102272099D01*
X110891632Y-102252393D01*
X110879020Y-102231350D01*
X110868530Y-102209171D01*
X110860265Y-102186072D01*
X110854304Y-102162273D01*
X110850704Y-102138005D01*
X110849500Y-102113501D01*
X110849500Y-101213499D01*
X110850704Y-101188995D01*
X110854304Y-101164727D01*
X110860265Y-101140928D01*
X110868530Y-101117829D01*
X110879020Y-101095650D01*
X110891632Y-101074607D01*
X110906247Y-101054901D01*
X110922723Y-101036723D01*
X110940901Y-101020247D01*
X110960607Y-101005632D01*
X110981650Y-100993020D01*
X111003829Y-100982530D01*
X111026928Y-100974265D01*
X111050727Y-100968304D01*
X111074995Y-100964704D01*
X111099499Y-100963500D01*
X111749501Y-100963500D01*
X111774005Y-100964704D01*
X111774005Y-100964704D01*
G37*
D12*
X111424500Y-101663500D03*
G04 #@! TD*
D11*
G04 #@! TO.C,D12*
G36*
X111774005Y-97662704D02*
X111798273Y-97666304D01*
X111822072Y-97672265D01*
X111845171Y-97680530D01*
X111867350Y-97691020D01*
X111888393Y-97703632D01*
X111908099Y-97718247D01*
X111926277Y-97734723D01*
X111942753Y-97752901D01*
X111957368Y-97772607D01*
X111969980Y-97793650D01*
X111980470Y-97815829D01*
X111988735Y-97838928D01*
X111994696Y-97862727D01*
X111998296Y-97886995D01*
X111999500Y-97911499D01*
X111999500Y-98811501D01*
X111998296Y-98836005D01*
X111994696Y-98860273D01*
X111988735Y-98884072D01*
X111980470Y-98907171D01*
X111969980Y-98929350D01*
X111957368Y-98950393D01*
X111942753Y-98970099D01*
X111926277Y-98988277D01*
X111908099Y-99004753D01*
X111888393Y-99019368D01*
X111867350Y-99031980D01*
X111845171Y-99042470D01*
X111822072Y-99050735D01*
X111798273Y-99056696D01*
X111774005Y-99060296D01*
X111749501Y-99061500D01*
X111099499Y-99061500D01*
X111074995Y-99060296D01*
X111050727Y-99056696D01*
X111026928Y-99050735D01*
X111003829Y-99042470D01*
X110981650Y-99031980D01*
X110960607Y-99019368D01*
X110940901Y-99004753D01*
X110922723Y-98988277D01*
X110906247Y-98970099D01*
X110891632Y-98950393D01*
X110879020Y-98929350D01*
X110868530Y-98907171D01*
X110860265Y-98884072D01*
X110854304Y-98860273D01*
X110850704Y-98836005D01*
X110849500Y-98811501D01*
X110849500Y-97911499D01*
X110850704Y-97886995D01*
X110854304Y-97862727D01*
X110860265Y-97838928D01*
X110868530Y-97815829D01*
X110879020Y-97793650D01*
X110891632Y-97772607D01*
X110906247Y-97752901D01*
X110922723Y-97734723D01*
X110940901Y-97718247D01*
X110960607Y-97703632D01*
X110981650Y-97691020D01*
X111003829Y-97680530D01*
X111026928Y-97672265D01*
X111050727Y-97666304D01*
X111074995Y-97662704D01*
X111099499Y-97661500D01*
X111749501Y-97661500D01*
X111774005Y-97662704D01*
X111774005Y-97662704D01*
G37*
D12*
X111424500Y-98361500D03*
D11*
G36*
X113824005Y-97662704D02*
X113848273Y-97666304D01*
X113872072Y-97672265D01*
X113895171Y-97680530D01*
X113917350Y-97691020D01*
X113938393Y-97703632D01*
X113958099Y-97718247D01*
X113976277Y-97734723D01*
X113992753Y-97752901D01*
X114007368Y-97772607D01*
X114019980Y-97793650D01*
X114030470Y-97815829D01*
X114038735Y-97838928D01*
X114044696Y-97862727D01*
X114048296Y-97886995D01*
X114049500Y-97911499D01*
X114049500Y-98811501D01*
X114048296Y-98836005D01*
X114044696Y-98860273D01*
X114038735Y-98884072D01*
X114030470Y-98907171D01*
X114019980Y-98929350D01*
X114007368Y-98950393D01*
X113992753Y-98970099D01*
X113976277Y-98988277D01*
X113958099Y-99004753D01*
X113938393Y-99019368D01*
X113917350Y-99031980D01*
X113895171Y-99042470D01*
X113872072Y-99050735D01*
X113848273Y-99056696D01*
X113824005Y-99060296D01*
X113799501Y-99061500D01*
X113149499Y-99061500D01*
X113124995Y-99060296D01*
X113100727Y-99056696D01*
X113076928Y-99050735D01*
X113053829Y-99042470D01*
X113031650Y-99031980D01*
X113010607Y-99019368D01*
X112990901Y-99004753D01*
X112972723Y-98988277D01*
X112956247Y-98970099D01*
X112941632Y-98950393D01*
X112929020Y-98929350D01*
X112918530Y-98907171D01*
X112910265Y-98884072D01*
X112904304Y-98860273D01*
X112900704Y-98836005D01*
X112899500Y-98811501D01*
X112899500Y-97911499D01*
X112900704Y-97886995D01*
X112904304Y-97862727D01*
X112910265Y-97838928D01*
X112918530Y-97815829D01*
X112929020Y-97793650D01*
X112941632Y-97772607D01*
X112956247Y-97752901D01*
X112972723Y-97734723D01*
X112990901Y-97718247D01*
X113010607Y-97703632D01*
X113031650Y-97691020D01*
X113053829Y-97680530D01*
X113076928Y-97672265D01*
X113100727Y-97666304D01*
X113124995Y-97662704D01*
X113149499Y-97661500D01*
X113799501Y-97661500D01*
X113824005Y-97662704D01*
X113824005Y-97662704D01*
G37*
D12*
X113474500Y-98361500D03*
G04 #@! TD*
D11*
G04 #@! TO.C,D13*
G36*
X113760505Y-94487704D02*
X113784773Y-94491304D01*
X113808572Y-94497265D01*
X113831671Y-94505530D01*
X113853850Y-94516020D01*
X113874893Y-94528632D01*
X113894599Y-94543247D01*
X113912777Y-94559723D01*
X113929253Y-94577901D01*
X113943868Y-94597607D01*
X113956480Y-94618650D01*
X113966970Y-94640829D01*
X113975235Y-94663928D01*
X113981196Y-94687727D01*
X113984796Y-94711995D01*
X113986000Y-94736499D01*
X113986000Y-95636501D01*
X113984796Y-95661005D01*
X113981196Y-95685273D01*
X113975235Y-95709072D01*
X113966970Y-95732171D01*
X113956480Y-95754350D01*
X113943868Y-95775393D01*
X113929253Y-95795099D01*
X113912777Y-95813277D01*
X113894599Y-95829753D01*
X113874893Y-95844368D01*
X113853850Y-95856980D01*
X113831671Y-95867470D01*
X113808572Y-95875735D01*
X113784773Y-95881696D01*
X113760505Y-95885296D01*
X113736001Y-95886500D01*
X113085999Y-95886500D01*
X113061495Y-95885296D01*
X113037227Y-95881696D01*
X113013428Y-95875735D01*
X112990329Y-95867470D01*
X112968150Y-95856980D01*
X112947107Y-95844368D01*
X112927401Y-95829753D01*
X112909223Y-95813277D01*
X112892747Y-95795099D01*
X112878132Y-95775393D01*
X112865520Y-95754350D01*
X112855030Y-95732171D01*
X112846765Y-95709072D01*
X112840804Y-95685273D01*
X112837204Y-95661005D01*
X112836000Y-95636501D01*
X112836000Y-94736499D01*
X112837204Y-94711995D01*
X112840804Y-94687727D01*
X112846765Y-94663928D01*
X112855030Y-94640829D01*
X112865520Y-94618650D01*
X112878132Y-94597607D01*
X112892747Y-94577901D01*
X112909223Y-94559723D01*
X112927401Y-94543247D01*
X112947107Y-94528632D01*
X112968150Y-94516020D01*
X112990329Y-94505530D01*
X113013428Y-94497265D01*
X113037227Y-94491304D01*
X113061495Y-94487704D01*
X113085999Y-94486500D01*
X113736001Y-94486500D01*
X113760505Y-94487704D01*
X113760505Y-94487704D01*
G37*
D12*
X113411000Y-95186500D03*
D11*
G36*
X111710505Y-94487704D02*
X111734773Y-94491304D01*
X111758572Y-94497265D01*
X111781671Y-94505530D01*
X111803850Y-94516020D01*
X111824893Y-94528632D01*
X111844599Y-94543247D01*
X111862777Y-94559723D01*
X111879253Y-94577901D01*
X111893868Y-94597607D01*
X111906480Y-94618650D01*
X111916970Y-94640829D01*
X111925235Y-94663928D01*
X111931196Y-94687727D01*
X111934796Y-94711995D01*
X111936000Y-94736499D01*
X111936000Y-95636501D01*
X111934796Y-95661005D01*
X111931196Y-95685273D01*
X111925235Y-95709072D01*
X111916970Y-95732171D01*
X111906480Y-95754350D01*
X111893868Y-95775393D01*
X111879253Y-95795099D01*
X111862777Y-95813277D01*
X111844599Y-95829753D01*
X111824893Y-95844368D01*
X111803850Y-95856980D01*
X111781671Y-95867470D01*
X111758572Y-95875735D01*
X111734773Y-95881696D01*
X111710505Y-95885296D01*
X111686001Y-95886500D01*
X111035999Y-95886500D01*
X111011495Y-95885296D01*
X110987227Y-95881696D01*
X110963428Y-95875735D01*
X110940329Y-95867470D01*
X110918150Y-95856980D01*
X110897107Y-95844368D01*
X110877401Y-95829753D01*
X110859223Y-95813277D01*
X110842747Y-95795099D01*
X110828132Y-95775393D01*
X110815520Y-95754350D01*
X110805030Y-95732171D01*
X110796765Y-95709072D01*
X110790804Y-95685273D01*
X110787204Y-95661005D01*
X110786000Y-95636501D01*
X110786000Y-94736499D01*
X110787204Y-94711995D01*
X110790804Y-94687727D01*
X110796765Y-94663928D01*
X110805030Y-94640829D01*
X110815520Y-94618650D01*
X110828132Y-94597607D01*
X110842747Y-94577901D01*
X110859223Y-94559723D01*
X110877401Y-94543247D01*
X110897107Y-94528632D01*
X110918150Y-94516020D01*
X110940329Y-94505530D01*
X110963428Y-94497265D01*
X110987227Y-94491304D01*
X111011495Y-94487704D01*
X111035999Y-94486500D01*
X111686001Y-94486500D01*
X111710505Y-94487704D01*
X111710505Y-94487704D01*
G37*
D12*
X111361000Y-95186500D03*
G04 #@! TD*
D11*
G04 #@! TO.C,D14*
G36*
X111710505Y-91439704D02*
X111734773Y-91443304D01*
X111758572Y-91449265D01*
X111781671Y-91457530D01*
X111803850Y-91468020D01*
X111824893Y-91480632D01*
X111844599Y-91495247D01*
X111862777Y-91511723D01*
X111879253Y-91529901D01*
X111893868Y-91549607D01*
X111906480Y-91570650D01*
X111916970Y-91592829D01*
X111925235Y-91615928D01*
X111931196Y-91639727D01*
X111934796Y-91663995D01*
X111936000Y-91688499D01*
X111936000Y-92588501D01*
X111934796Y-92613005D01*
X111931196Y-92637273D01*
X111925235Y-92661072D01*
X111916970Y-92684171D01*
X111906480Y-92706350D01*
X111893868Y-92727393D01*
X111879253Y-92747099D01*
X111862777Y-92765277D01*
X111844599Y-92781753D01*
X111824893Y-92796368D01*
X111803850Y-92808980D01*
X111781671Y-92819470D01*
X111758572Y-92827735D01*
X111734773Y-92833696D01*
X111710505Y-92837296D01*
X111686001Y-92838500D01*
X111035999Y-92838500D01*
X111011495Y-92837296D01*
X110987227Y-92833696D01*
X110963428Y-92827735D01*
X110940329Y-92819470D01*
X110918150Y-92808980D01*
X110897107Y-92796368D01*
X110877401Y-92781753D01*
X110859223Y-92765277D01*
X110842747Y-92747099D01*
X110828132Y-92727393D01*
X110815520Y-92706350D01*
X110805030Y-92684171D01*
X110796765Y-92661072D01*
X110790804Y-92637273D01*
X110787204Y-92613005D01*
X110786000Y-92588501D01*
X110786000Y-91688499D01*
X110787204Y-91663995D01*
X110790804Y-91639727D01*
X110796765Y-91615928D01*
X110805030Y-91592829D01*
X110815520Y-91570650D01*
X110828132Y-91549607D01*
X110842747Y-91529901D01*
X110859223Y-91511723D01*
X110877401Y-91495247D01*
X110897107Y-91480632D01*
X110918150Y-91468020D01*
X110940329Y-91457530D01*
X110963428Y-91449265D01*
X110987227Y-91443304D01*
X111011495Y-91439704D01*
X111035999Y-91438500D01*
X111686001Y-91438500D01*
X111710505Y-91439704D01*
X111710505Y-91439704D01*
G37*
D12*
X111361000Y-92138500D03*
D11*
G36*
X113760505Y-91439704D02*
X113784773Y-91443304D01*
X113808572Y-91449265D01*
X113831671Y-91457530D01*
X113853850Y-91468020D01*
X113874893Y-91480632D01*
X113894599Y-91495247D01*
X113912777Y-91511723D01*
X113929253Y-91529901D01*
X113943868Y-91549607D01*
X113956480Y-91570650D01*
X113966970Y-91592829D01*
X113975235Y-91615928D01*
X113981196Y-91639727D01*
X113984796Y-91663995D01*
X113986000Y-91688499D01*
X113986000Y-92588501D01*
X113984796Y-92613005D01*
X113981196Y-92637273D01*
X113975235Y-92661072D01*
X113966970Y-92684171D01*
X113956480Y-92706350D01*
X113943868Y-92727393D01*
X113929253Y-92747099D01*
X113912777Y-92765277D01*
X113894599Y-92781753D01*
X113874893Y-92796368D01*
X113853850Y-92808980D01*
X113831671Y-92819470D01*
X113808572Y-92827735D01*
X113784773Y-92833696D01*
X113760505Y-92837296D01*
X113736001Y-92838500D01*
X113085999Y-92838500D01*
X113061495Y-92837296D01*
X113037227Y-92833696D01*
X113013428Y-92827735D01*
X112990329Y-92819470D01*
X112968150Y-92808980D01*
X112947107Y-92796368D01*
X112927401Y-92781753D01*
X112909223Y-92765277D01*
X112892747Y-92747099D01*
X112878132Y-92727393D01*
X112865520Y-92706350D01*
X112855030Y-92684171D01*
X112846765Y-92661072D01*
X112840804Y-92637273D01*
X112837204Y-92613005D01*
X112836000Y-92588501D01*
X112836000Y-91688499D01*
X112837204Y-91663995D01*
X112840804Y-91639727D01*
X112846765Y-91615928D01*
X112855030Y-91592829D01*
X112865520Y-91570650D01*
X112878132Y-91549607D01*
X112892747Y-91529901D01*
X112909223Y-91511723D01*
X112927401Y-91495247D01*
X112947107Y-91480632D01*
X112968150Y-91468020D01*
X112990329Y-91457530D01*
X113013428Y-91449265D01*
X113037227Y-91443304D01*
X113061495Y-91439704D01*
X113085999Y-91438500D01*
X113736001Y-91438500D01*
X113760505Y-91439704D01*
X113760505Y-91439704D01*
G37*
D12*
X113411000Y-92138500D03*
G04 #@! TD*
D11*
G04 #@! TO.C,D15*
G36*
X113824005Y-87820204D02*
X113848273Y-87823804D01*
X113872072Y-87829765D01*
X113895171Y-87838030D01*
X113917350Y-87848520D01*
X113938393Y-87861132D01*
X113958099Y-87875747D01*
X113976277Y-87892223D01*
X113992753Y-87910401D01*
X114007368Y-87930107D01*
X114019980Y-87951150D01*
X114030470Y-87973329D01*
X114038735Y-87996428D01*
X114044696Y-88020227D01*
X114048296Y-88044495D01*
X114049500Y-88068999D01*
X114049500Y-88969001D01*
X114048296Y-88993505D01*
X114044696Y-89017773D01*
X114038735Y-89041572D01*
X114030470Y-89064671D01*
X114019980Y-89086850D01*
X114007368Y-89107893D01*
X113992753Y-89127599D01*
X113976277Y-89145777D01*
X113958099Y-89162253D01*
X113938393Y-89176868D01*
X113917350Y-89189480D01*
X113895171Y-89199970D01*
X113872072Y-89208235D01*
X113848273Y-89214196D01*
X113824005Y-89217796D01*
X113799501Y-89219000D01*
X113149499Y-89219000D01*
X113124995Y-89217796D01*
X113100727Y-89214196D01*
X113076928Y-89208235D01*
X113053829Y-89199970D01*
X113031650Y-89189480D01*
X113010607Y-89176868D01*
X112990901Y-89162253D01*
X112972723Y-89145777D01*
X112956247Y-89127599D01*
X112941632Y-89107893D01*
X112929020Y-89086850D01*
X112918530Y-89064671D01*
X112910265Y-89041572D01*
X112904304Y-89017773D01*
X112900704Y-88993505D01*
X112899500Y-88969001D01*
X112899500Y-88068999D01*
X112900704Y-88044495D01*
X112904304Y-88020227D01*
X112910265Y-87996428D01*
X112918530Y-87973329D01*
X112929020Y-87951150D01*
X112941632Y-87930107D01*
X112956247Y-87910401D01*
X112972723Y-87892223D01*
X112990901Y-87875747D01*
X113010607Y-87861132D01*
X113031650Y-87848520D01*
X113053829Y-87838030D01*
X113076928Y-87829765D01*
X113100727Y-87823804D01*
X113124995Y-87820204D01*
X113149499Y-87819000D01*
X113799501Y-87819000D01*
X113824005Y-87820204D01*
X113824005Y-87820204D01*
G37*
D12*
X113474500Y-88519000D03*
D11*
G36*
X111774005Y-87820204D02*
X111798273Y-87823804D01*
X111822072Y-87829765D01*
X111845171Y-87838030D01*
X111867350Y-87848520D01*
X111888393Y-87861132D01*
X111908099Y-87875747D01*
X111926277Y-87892223D01*
X111942753Y-87910401D01*
X111957368Y-87930107D01*
X111969980Y-87951150D01*
X111980470Y-87973329D01*
X111988735Y-87996428D01*
X111994696Y-88020227D01*
X111998296Y-88044495D01*
X111999500Y-88068999D01*
X111999500Y-88969001D01*
X111998296Y-88993505D01*
X111994696Y-89017773D01*
X111988735Y-89041572D01*
X111980470Y-89064671D01*
X111969980Y-89086850D01*
X111957368Y-89107893D01*
X111942753Y-89127599D01*
X111926277Y-89145777D01*
X111908099Y-89162253D01*
X111888393Y-89176868D01*
X111867350Y-89189480D01*
X111845171Y-89199970D01*
X111822072Y-89208235D01*
X111798273Y-89214196D01*
X111774005Y-89217796D01*
X111749501Y-89219000D01*
X111099499Y-89219000D01*
X111074995Y-89217796D01*
X111050727Y-89214196D01*
X111026928Y-89208235D01*
X111003829Y-89199970D01*
X110981650Y-89189480D01*
X110960607Y-89176868D01*
X110940901Y-89162253D01*
X110922723Y-89145777D01*
X110906247Y-89127599D01*
X110891632Y-89107893D01*
X110879020Y-89086850D01*
X110868530Y-89064671D01*
X110860265Y-89041572D01*
X110854304Y-89017773D01*
X110850704Y-88993505D01*
X110849500Y-88969001D01*
X110849500Y-88068999D01*
X110850704Y-88044495D01*
X110854304Y-88020227D01*
X110860265Y-87996428D01*
X110868530Y-87973329D01*
X110879020Y-87951150D01*
X110891632Y-87930107D01*
X110906247Y-87910401D01*
X110922723Y-87892223D01*
X110940901Y-87875747D01*
X110960607Y-87861132D01*
X110981650Y-87848520D01*
X111003829Y-87838030D01*
X111026928Y-87829765D01*
X111050727Y-87823804D01*
X111074995Y-87820204D01*
X111099499Y-87819000D01*
X111749501Y-87819000D01*
X111774005Y-87820204D01*
X111774005Y-87820204D01*
G37*
D12*
X111424500Y-88519000D03*
G04 #@! TD*
D11*
G04 #@! TO.C,D16*
G36*
X111774005Y-84391204D02*
X111798273Y-84394804D01*
X111822072Y-84400765D01*
X111845171Y-84409030D01*
X111867350Y-84419520D01*
X111888393Y-84432132D01*
X111908099Y-84446747D01*
X111926277Y-84463223D01*
X111942753Y-84481401D01*
X111957368Y-84501107D01*
X111969980Y-84522150D01*
X111980470Y-84544329D01*
X111988735Y-84567428D01*
X111994696Y-84591227D01*
X111998296Y-84615495D01*
X111999500Y-84639999D01*
X111999500Y-85540001D01*
X111998296Y-85564505D01*
X111994696Y-85588773D01*
X111988735Y-85612572D01*
X111980470Y-85635671D01*
X111969980Y-85657850D01*
X111957368Y-85678893D01*
X111942753Y-85698599D01*
X111926277Y-85716777D01*
X111908099Y-85733253D01*
X111888393Y-85747868D01*
X111867350Y-85760480D01*
X111845171Y-85770970D01*
X111822072Y-85779235D01*
X111798273Y-85785196D01*
X111774005Y-85788796D01*
X111749501Y-85790000D01*
X111099499Y-85790000D01*
X111074995Y-85788796D01*
X111050727Y-85785196D01*
X111026928Y-85779235D01*
X111003829Y-85770970D01*
X110981650Y-85760480D01*
X110960607Y-85747868D01*
X110940901Y-85733253D01*
X110922723Y-85716777D01*
X110906247Y-85698599D01*
X110891632Y-85678893D01*
X110879020Y-85657850D01*
X110868530Y-85635671D01*
X110860265Y-85612572D01*
X110854304Y-85588773D01*
X110850704Y-85564505D01*
X110849500Y-85540001D01*
X110849500Y-84639999D01*
X110850704Y-84615495D01*
X110854304Y-84591227D01*
X110860265Y-84567428D01*
X110868530Y-84544329D01*
X110879020Y-84522150D01*
X110891632Y-84501107D01*
X110906247Y-84481401D01*
X110922723Y-84463223D01*
X110940901Y-84446747D01*
X110960607Y-84432132D01*
X110981650Y-84419520D01*
X111003829Y-84409030D01*
X111026928Y-84400765D01*
X111050727Y-84394804D01*
X111074995Y-84391204D01*
X111099499Y-84390000D01*
X111749501Y-84390000D01*
X111774005Y-84391204D01*
X111774005Y-84391204D01*
G37*
D12*
X111424500Y-85090000D03*
D11*
G36*
X113824005Y-84391204D02*
X113848273Y-84394804D01*
X113872072Y-84400765D01*
X113895171Y-84409030D01*
X113917350Y-84419520D01*
X113938393Y-84432132D01*
X113958099Y-84446747D01*
X113976277Y-84463223D01*
X113992753Y-84481401D01*
X114007368Y-84501107D01*
X114019980Y-84522150D01*
X114030470Y-84544329D01*
X114038735Y-84567428D01*
X114044696Y-84591227D01*
X114048296Y-84615495D01*
X114049500Y-84639999D01*
X114049500Y-85540001D01*
X114048296Y-85564505D01*
X114044696Y-85588773D01*
X114038735Y-85612572D01*
X114030470Y-85635671D01*
X114019980Y-85657850D01*
X114007368Y-85678893D01*
X113992753Y-85698599D01*
X113976277Y-85716777D01*
X113958099Y-85733253D01*
X113938393Y-85747868D01*
X113917350Y-85760480D01*
X113895171Y-85770970D01*
X113872072Y-85779235D01*
X113848273Y-85785196D01*
X113824005Y-85788796D01*
X113799501Y-85790000D01*
X113149499Y-85790000D01*
X113124995Y-85788796D01*
X113100727Y-85785196D01*
X113076928Y-85779235D01*
X113053829Y-85770970D01*
X113031650Y-85760480D01*
X113010607Y-85747868D01*
X112990901Y-85733253D01*
X112972723Y-85716777D01*
X112956247Y-85698599D01*
X112941632Y-85678893D01*
X112929020Y-85657850D01*
X112918530Y-85635671D01*
X112910265Y-85612572D01*
X112904304Y-85588773D01*
X112900704Y-85564505D01*
X112899500Y-85540001D01*
X112899500Y-84639999D01*
X112900704Y-84615495D01*
X112904304Y-84591227D01*
X112910265Y-84567428D01*
X112918530Y-84544329D01*
X112929020Y-84522150D01*
X112941632Y-84501107D01*
X112956247Y-84481401D01*
X112972723Y-84463223D01*
X112990901Y-84446747D01*
X113010607Y-84432132D01*
X113031650Y-84419520D01*
X113053829Y-84409030D01*
X113076928Y-84400765D01*
X113100727Y-84394804D01*
X113124995Y-84391204D01*
X113149499Y-84390000D01*
X113799501Y-84390000D01*
X113824005Y-84391204D01*
X113824005Y-84391204D01*
G37*
D12*
X113474500Y-85090000D03*
G04 #@! TD*
D11*
G04 #@! TO.C,R1*
G36*
X74771505Y-107378204D02*
X74795773Y-107381804D01*
X74819572Y-107387765D01*
X74842671Y-107396030D01*
X74864850Y-107406520D01*
X74885893Y-107419132D01*
X74905599Y-107433747D01*
X74923777Y-107450223D01*
X74940253Y-107468401D01*
X74954868Y-107488107D01*
X74967480Y-107509150D01*
X74977970Y-107531329D01*
X74986235Y-107554428D01*
X74992196Y-107578227D01*
X74995796Y-107602495D01*
X74997000Y-107626999D01*
X74997000Y-108527001D01*
X74995796Y-108551505D01*
X74992196Y-108575773D01*
X74986235Y-108599572D01*
X74977970Y-108622671D01*
X74967480Y-108644850D01*
X74954868Y-108665893D01*
X74940253Y-108685599D01*
X74923777Y-108703777D01*
X74905599Y-108720253D01*
X74885893Y-108734868D01*
X74864850Y-108747480D01*
X74842671Y-108757970D01*
X74819572Y-108766235D01*
X74795773Y-108772196D01*
X74771505Y-108775796D01*
X74747001Y-108777000D01*
X74096999Y-108777000D01*
X74072495Y-108775796D01*
X74048227Y-108772196D01*
X74024428Y-108766235D01*
X74001329Y-108757970D01*
X73979150Y-108747480D01*
X73958107Y-108734868D01*
X73938401Y-108720253D01*
X73920223Y-108703777D01*
X73903747Y-108685599D01*
X73889132Y-108665893D01*
X73876520Y-108644850D01*
X73866030Y-108622671D01*
X73857765Y-108599572D01*
X73851804Y-108575773D01*
X73848204Y-108551505D01*
X73847000Y-108527001D01*
X73847000Y-107626999D01*
X73848204Y-107602495D01*
X73851804Y-107578227D01*
X73857765Y-107554428D01*
X73866030Y-107531329D01*
X73876520Y-107509150D01*
X73889132Y-107488107D01*
X73903747Y-107468401D01*
X73920223Y-107450223D01*
X73938401Y-107433747D01*
X73958107Y-107419132D01*
X73979150Y-107406520D01*
X74001329Y-107396030D01*
X74024428Y-107387765D01*
X74048227Y-107381804D01*
X74072495Y-107378204D01*
X74096999Y-107377000D01*
X74747001Y-107377000D01*
X74771505Y-107378204D01*
X74771505Y-107378204D01*
G37*
D12*
X74422000Y-108077000D03*
D11*
G36*
X72721505Y-107378204D02*
X72745773Y-107381804D01*
X72769572Y-107387765D01*
X72792671Y-107396030D01*
X72814850Y-107406520D01*
X72835893Y-107419132D01*
X72855599Y-107433747D01*
X72873777Y-107450223D01*
X72890253Y-107468401D01*
X72904868Y-107488107D01*
X72917480Y-107509150D01*
X72927970Y-107531329D01*
X72936235Y-107554428D01*
X72942196Y-107578227D01*
X72945796Y-107602495D01*
X72947000Y-107626999D01*
X72947000Y-108527001D01*
X72945796Y-108551505D01*
X72942196Y-108575773D01*
X72936235Y-108599572D01*
X72927970Y-108622671D01*
X72917480Y-108644850D01*
X72904868Y-108665893D01*
X72890253Y-108685599D01*
X72873777Y-108703777D01*
X72855599Y-108720253D01*
X72835893Y-108734868D01*
X72814850Y-108747480D01*
X72792671Y-108757970D01*
X72769572Y-108766235D01*
X72745773Y-108772196D01*
X72721505Y-108775796D01*
X72697001Y-108777000D01*
X72046999Y-108777000D01*
X72022495Y-108775796D01*
X71998227Y-108772196D01*
X71974428Y-108766235D01*
X71951329Y-108757970D01*
X71929150Y-108747480D01*
X71908107Y-108734868D01*
X71888401Y-108720253D01*
X71870223Y-108703777D01*
X71853747Y-108685599D01*
X71839132Y-108665893D01*
X71826520Y-108644850D01*
X71816030Y-108622671D01*
X71807765Y-108599572D01*
X71801804Y-108575773D01*
X71798204Y-108551505D01*
X71797000Y-108527001D01*
X71797000Y-107626999D01*
X71798204Y-107602495D01*
X71801804Y-107578227D01*
X71807765Y-107554428D01*
X71816030Y-107531329D01*
X71826520Y-107509150D01*
X71839132Y-107488107D01*
X71853747Y-107468401D01*
X71870223Y-107450223D01*
X71888401Y-107433747D01*
X71908107Y-107419132D01*
X71929150Y-107406520D01*
X71951329Y-107396030D01*
X71974428Y-107387765D01*
X71998227Y-107381804D01*
X72022495Y-107378204D01*
X72046999Y-107377000D01*
X72697001Y-107377000D01*
X72721505Y-107378204D01*
X72721505Y-107378204D01*
G37*
D12*
X72372000Y-108077000D03*
G04 #@! TD*
D11*
G04 #@! TO.C,R2*
G36*
X72721505Y-103949204D02*
X72745773Y-103952804D01*
X72769572Y-103958765D01*
X72792671Y-103967030D01*
X72814850Y-103977520D01*
X72835893Y-103990132D01*
X72855599Y-104004747D01*
X72873777Y-104021223D01*
X72890253Y-104039401D01*
X72904868Y-104059107D01*
X72917480Y-104080150D01*
X72927970Y-104102329D01*
X72936235Y-104125428D01*
X72942196Y-104149227D01*
X72945796Y-104173495D01*
X72947000Y-104197999D01*
X72947000Y-105098001D01*
X72945796Y-105122505D01*
X72942196Y-105146773D01*
X72936235Y-105170572D01*
X72927970Y-105193671D01*
X72917480Y-105215850D01*
X72904868Y-105236893D01*
X72890253Y-105256599D01*
X72873777Y-105274777D01*
X72855599Y-105291253D01*
X72835893Y-105305868D01*
X72814850Y-105318480D01*
X72792671Y-105328970D01*
X72769572Y-105337235D01*
X72745773Y-105343196D01*
X72721505Y-105346796D01*
X72697001Y-105348000D01*
X72046999Y-105348000D01*
X72022495Y-105346796D01*
X71998227Y-105343196D01*
X71974428Y-105337235D01*
X71951329Y-105328970D01*
X71929150Y-105318480D01*
X71908107Y-105305868D01*
X71888401Y-105291253D01*
X71870223Y-105274777D01*
X71853747Y-105256599D01*
X71839132Y-105236893D01*
X71826520Y-105215850D01*
X71816030Y-105193671D01*
X71807765Y-105170572D01*
X71801804Y-105146773D01*
X71798204Y-105122505D01*
X71797000Y-105098001D01*
X71797000Y-104197999D01*
X71798204Y-104173495D01*
X71801804Y-104149227D01*
X71807765Y-104125428D01*
X71816030Y-104102329D01*
X71826520Y-104080150D01*
X71839132Y-104059107D01*
X71853747Y-104039401D01*
X71870223Y-104021223D01*
X71888401Y-104004747D01*
X71908107Y-103990132D01*
X71929150Y-103977520D01*
X71951329Y-103967030D01*
X71974428Y-103958765D01*
X71998227Y-103952804D01*
X72022495Y-103949204D01*
X72046999Y-103948000D01*
X72697001Y-103948000D01*
X72721505Y-103949204D01*
X72721505Y-103949204D01*
G37*
D12*
X72372000Y-104648000D03*
D11*
G36*
X74771505Y-103949204D02*
X74795773Y-103952804D01*
X74819572Y-103958765D01*
X74842671Y-103967030D01*
X74864850Y-103977520D01*
X74885893Y-103990132D01*
X74905599Y-104004747D01*
X74923777Y-104021223D01*
X74940253Y-104039401D01*
X74954868Y-104059107D01*
X74967480Y-104080150D01*
X74977970Y-104102329D01*
X74986235Y-104125428D01*
X74992196Y-104149227D01*
X74995796Y-104173495D01*
X74997000Y-104197999D01*
X74997000Y-105098001D01*
X74995796Y-105122505D01*
X74992196Y-105146773D01*
X74986235Y-105170572D01*
X74977970Y-105193671D01*
X74967480Y-105215850D01*
X74954868Y-105236893D01*
X74940253Y-105256599D01*
X74923777Y-105274777D01*
X74905599Y-105291253D01*
X74885893Y-105305868D01*
X74864850Y-105318480D01*
X74842671Y-105328970D01*
X74819572Y-105337235D01*
X74795773Y-105343196D01*
X74771505Y-105346796D01*
X74747001Y-105348000D01*
X74096999Y-105348000D01*
X74072495Y-105346796D01*
X74048227Y-105343196D01*
X74024428Y-105337235D01*
X74001329Y-105328970D01*
X73979150Y-105318480D01*
X73958107Y-105305868D01*
X73938401Y-105291253D01*
X73920223Y-105274777D01*
X73903747Y-105256599D01*
X73889132Y-105236893D01*
X73876520Y-105215850D01*
X73866030Y-105193671D01*
X73857765Y-105170572D01*
X73851804Y-105146773D01*
X73848204Y-105122505D01*
X73847000Y-105098001D01*
X73847000Y-104197999D01*
X73848204Y-104173495D01*
X73851804Y-104149227D01*
X73857765Y-104125428D01*
X73866030Y-104102329D01*
X73876520Y-104080150D01*
X73889132Y-104059107D01*
X73903747Y-104039401D01*
X73920223Y-104021223D01*
X73938401Y-104004747D01*
X73958107Y-103990132D01*
X73979150Y-103977520D01*
X74001329Y-103967030D01*
X74024428Y-103958765D01*
X74048227Y-103952804D01*
X74072495Y-103949204D01*
X74096999Y-103948000D01*
X74747001Y-103948000D01*
X74771505Y-103949204D01*
X74771505Y-103949204D01*
G37*
D12*
X74422000Y-104648000D03*
G04 #@! TD*
D11*
G04 #@! TO.C,R3*
G36*
X74771505Y-100647204D02*
X74795773Y-100650804D01*
X74819572Y-100656765D01*
X74842671Y-100665030D01*
X74864850Y-100675520D01*
X74885893Y-100688132D01*
X74905599Y-100702747D01*
X74923777Y-100719223D01*
X74940253Y-100737401D01*
X74954868Y-100757107D01*
X74967480Y-100778150D01*
X74977970Y-100800329D01*
X74986235Y-100823428D01*
X74992196Y-100847227D01*
X74995796Y-100871495D01*
X74997000Y-100895999D01*
X74997000Y-101796001D01*
X74995796Y-101820505D01*
X74992196Y-101844773D01*
X74986235Y-101868572D01*
X74977970Y-101891671D01*
X74967480Y-101913850D01*
X74954868Y-101934893D01*
X74940253Y-101954599D01*
X74923777Y-101972777D01*
X74905599Y-101989253D01*
X74885893Y-102003868D01*
X74864850Y-102016480D01*
X74842671Y-102026970D01*
X74819572Y-102035235D01*
X74795773Y-102041196D01*
X74771505Y-102044796D01*
X74747001Y-102046000D01*
X74096999Y-102046000D01*
X74072495Y-102044796D01*
X74048227Y-102041196D01*
X74024428Y-102035235D01*
X74001329Y-102026970D01*
X73979150Y-102016480D01*
X73958107Y-102003868D01*
X73938401Y-101989253D01*
X73920223Y-101972777D01*
X73903747Y-101954599D01*
X73889132Y-101934893D01*
X73876520Y-101913850D01*
X73866030Y-101891671D01*
X73857765Y-101868572D01*
X73851804Y-101844773D01*
X73848204Y-101820505D01*
X73847000Y-101796001D01*
X73847000Y-100895999D01*
X73848204Y-100871495D01*
X73851804Y-100847227D01*
X73857765Y-100823428D01*
X73866030Y-100800329D01*
X73876520Y-100778150D01*
X73889132Y-100757107D01*
X73903747Y-100737401D01*
X73920223Y-100719223D01*
X73938401Y-100702747D01*
X73958107Y-100688132D01*
X73979150Y-100675520D01*
X74001329Y-100665030D01*
X74024428Y-100656765D01*
X74048227Y-100650804D01*
X74072495Y-100647204D01*
X74096999Y-100646000D01*
X74747001Y-100646000D01*
X74771505Y-100647204D01*
X74771505Y-100647204D01*
G37*
D12*
X74422000Y-101346000D03*
D11*
G36*
X72721505Y-100647204D02*
X72745773Y-100650804D01*
X72769572Y-100656765D01*
X72792671Y-100665030D01*
X72814850Y-100675520D01*
X72835893Y-100688132D01*
X72855599Y-100702747D01*
X72873777Y-100719223D01*
X72890253Y-100737401D01*
X72904868Y-100757107D01*
X72917480Y-100778150D01*
X72927970Y-100800329D01*
X72936235Y-100823428D01*
X72942196Y-100847227D01*
X72945796Y-100871495D01*
X72947000Y-100895999D01*
X72947000Y-101796001D01*
X72945796Y-101820505D01*
X72942196Y-101844773D01*
X72936235Y-101868572D01*
X72927970Y-101891671D01*
X72917480Y-101913850D01*
X72904868Y-101934893D01*
X72890253Y-101954599D01*
X72873777Y-101972777D01*
X72855599Y-101989253D01*
X72835893Y-102003868D01*
X72814850Y-102016480D01*
X72792671Y-102026970D01*
X72769572Y-102035235D01*
X72745773Y-102041196D01*
X72721505Y-102044796D01*
X72697001Y-102046000D01*
X72046999Y-102046000D01*
X72022495Y-102044796D01*
X71998227Y-102041196D01*
X71974428Y-102035235D01*
X71951329Y-102026970D01*
X71929150Y-102016480D01*
X71908107Y-102003868D01*
X71888401Y-101989253D01*
X71870223Y-101972777D01*
X71853747Y-101954599D01*
X71839132Y-101934893D01*
X71826520Y-101913850D01*
X71816030Y-101891671D01*
X71807765Y-101868572D01*
X71801804Y-101844773D01*
X71798204Y-101820505D01*
X71797000Y-101796001D01*
X71797000Y-100895999D01*
X71798204Y-100871495D01*
X71801804Y-100847227D01*
X71807765Y-100823428D01*
X71816030Y-100800329D01*
X71826520Y-100778150D01*
X71839132Y-100757107D01*
X71853747Y-100737401D01*
X71870223Y-100719223D01*
X71888401Y-100702747D01*
X71908107Y-100688132D01*
X71929150Y-100675520D01*
X71951329Y-100665030D01*
X71974428Y-100656765D01*
X71998227Y-100650804D01*
X72022495Y-100647204D01*
X72046999Y-100646000D01*
X72697001Y-100646000D01*
X72721505Y-100647204D01*
X72721505Y-100647204D01*
G37*
D12*
X72372000Y-101346000D03*
G04 #@! TD*
D11*
G04 #@! TO.C,R4*
G36*
X72721505Y-97345204D02*
X72745773Y-97348804D01*
X72769572Y-97354765D01*
X72792671Y-97363030D01*
X72814850Y-97373520D01*
X72835893Y-97386132D01*
X72855599Y-97400747D01*
X72873777Y-97417223D01*
X72890253Y-97435401D01*
X72904868Y-97455107D01*
X72917480Y-97476150D01*
X72927970Y-97498329D01*
X72936235Y-97521428D01*
X72942196Y-97545227D01*
X72945796Y-97569495D01*
X72947000Y-97593999D01*
X72947000Y-98494001D01*
X72945796Y-98518505D01*
X72942196Y-98542773D01*
X72936235Y-98566572D01*
X72927970Y-98589671D01*
X72917480Y-98611850D01*
X72904868Y-98632893D01*
X72890253Y-98652599D01*
X72873777Y-98670777D01*
X72855599Y-98687253D01*
X72835893Y-98701868D01*
X72814850Y-98714480D01*
X72792671Y-98724970D01*
X72769572Y-98733235D01*
X72745773Y-98739196D01*
X72721505Y-98742796D01*
X72697001Y-98744000D01*
X72046999Y-98744000D01*
X72022495Y-98742796D01*
X71998227Y-98739196D01*
X71974428Y-98733235D01*
X71951329Y-98724970D01*
X71929150Y-98714480D01*
X71908107Y-98701868D01*
X71888401Y-98687253D01*
X71870223Y-98670777D01*
X71853747Y-98652599D01*
X71839132Y-98632893D01*
X71826520Y-98611850D01*
X71816030Y-98589671D01*
X71807765Y-98566572D01*
X71801804Y-98542773D01*
X71798204Y-98518505D01*
X71797000Y-98494001D01*
X71797000Y-97593999D01*
X71798204Y-97569495D01*
X71801804Y-97545227D01*
X71807765Y-97521428D01*
X71816030Y-97498329D01*
X71826520Y-97476150D01*
X71839132Y-97455107D01*
X71853747Y-97435401D01*
X71870223Y-97417223D01*
X71888401Y-97400747D01*
X71908107Y-97386132D01*
X71929150Y-97373520D01*
X71951329Y-97363030D01*
X71974428Y-97354765D01*
X71998227Y-97348804D01*
X72022495Y-97345204D01*
X72046999Y-97344000D01*
X72697001Y-97344000D01*
X72721505Y-97345204D01*
X72721505Y-97345204D01*
G37*
D12*
X72372000Y-98044000D03*
D11*
G36*
X74771505Y-97345204D02*
X74795773Y-97348804D01*
X74819572Y-97354765D01*
X74842671Y-97363030D01*
X74864850Y-97373520D01*
X74885893Y-97386132D01*
X74905599Y-97400747D01*
X74923777Y-97417223D01*
X74940253Y-97435401D01*
X74954868Y-97455107D01*
X74967480Y-97476150D01*
X74977970Y-97498329D01*
X74986235Y-97521428D01*
X74992196Y-97545227D01*
X74995796Y-97569495D01*
X74997000Y-97593999D01*
X74997000Y-98494001D01*
X74995796Y-98518505D01*
X74992196Y-98542773D01*
X74986235Y-98566572D01*
X74977970Y-98589671D01*
X74967480Y-98611850D01*
X74954868Y-98632893D01*
X74940253Y-98652599D01*
X74923777Y-98670777D01*
X74905599Y-98687253D01*
X74885893Y-98701868D01*
X74864850Y-98714480D01*
X74842671Y-98724970D01*
X74819572Y-98733235D01*
X74795773Y-98739196D01*
X74771505Y-98742796D01*
X74747001Y-98744000D01*
X74096999Y-98744000D01*
X74072495Y-98742796D01*
X74048227Y-98739196D01*
X74024428Y-98733235D01*
X74001329Y-98724970D01*
X73979150Y-98714480D01*
X73958107Y-98701868D01*
X73938401Y-98687253D01*
X73920223Y-98670777D01*
X73903747Y-98652599D01*
X73889132Y-98632893D01*
X73876520Y-98611850D01*
X73866030Y-98589671D01*
X73857765Y-98566572D01*
X73851804Y-98542773D01*
X73848204Y-98518505D01*
X73847000Y-98494001D01*
X73847000Y-97593999D01*
X73848204Y-97569495D01*
X73851804Y-97545227D01*
X73857765Y-97521428D01*
X73866030Y-97498329D01*
X73876520Y-97476150D01*
X73889132Y-97455107D01*
X73903747Y-97435401D01*
X73920223Y-97417223D01*
X73938401Y-97400747D01*
X73958107Y-97386132D01*
X73979150Y-97373520D01*
X74001329Y-97363030D01*
X74024428Y-97354765D01*
X74048227Y-97348804D01*
X74072495Y-97345204D01*
X74096999Y-97344000D01*
X74747001Y-97344000D01*
X74771505Y-97345204D01*
X74771505Y-97345204D01*
G37*
D12*
X74422000Y-98044000D03*
G04 #@! TD*
D11*
G04 #@! TO.C,R5*
G36*
X72721505Y-94170204D02*
X72745773Y-94173804D01*
X72769572Y-94179765D01*
X72792671Y-94188030D01*
X72814850Y-94198520D01*
X72835893Y-94211132D01*
X72855599Y-94225747D01*
X72873777Y-94242223D01*
X72890253Y-94260401D01*
X72904868Y-94280107D01*
X72917480Y-94301150D01*
X72927970Y-94323329D01*
X72936235Y-94346428D01*
X72942196Y-94370227D01*
X72945796Y-94394495D01*
X72947000Y-94418999D01*
X72947000Y-95319001D01*
X72945796Y-95343505D01*
X72942196Y-95367773D01*
X72936235Y-95391572D01*
X72927970Y-95414671D01*
X72917480Y-95436850D01*
X72904868Y-95457893D01*
X72890253Y-95477599D01*
X72873777Y-95495777D01*
X72855599Y-95512253D01*
X72835893Y-95526868D01*
X72814850Y-95539480D01*
X72792671Y-95549970D01*
X72769572Y-95558235D01*
X72745773Y-95564196D01*
X72721505Y-95567796D01*
X72697001Y-95569000D01*
X72046999Y-95569000D01*
X72022495Y-95567796D01*
X71998227Y-95564196D01*
X71974428Y-95558235D01*
X71951329Y-95549970D01*
X71929150Y-95539480D01*
X71908107Y-95526868D01*
X71888401Y-95512253D01*
X71870223Y-95495777D01*
X71853747Y-95477599D01*
X71839132Y-95457893D01*
X71826520Y-95436850D01*
X71816030Y-95414671D01*
X71807765Y-95391572D01*
X71801804Y-95367773D01*
X71798204Y-95343505D01*
X71797000Y-95319001D01*
X71797000Y-94418999D01*
X71798204Y-94394495D01*
X71801804Y-94370227D01*
X71807765Y-94346428D01*
X71816030Y-94323329D01*
X71826520Y-94301150D01*
X71839132Y-94280107D01*
X71853747Y-94260401D01*
X71870223Y-94242223D01*
X71888401Y-94225747D01*
X71908107Y-94211132D01*
X71929150Y-94198520D01*
X71951329Y-94188030D01*
X71974428Y-94179765D01*
X71998227Y-94173804D01*
X72022495Y-94170204D01*
X72046999Y-94169000D01*
X72697001Y-94169000D01*
X72721505Y-94170204D01*
X72721505Y-94170204D01*
G37*
D12*
X72372000Y-94869000D03*
D11*
G36*
X74771505Y-94170204D02*
X74795773Y-94173804D01*
X74819572Y-94179765D01*
X74842671Y-94188030D01*
X74864850Y-94198520D01*
X74885893Y-94211132D01*
X74905599Y-94225747D01*
X74923777Y-94242223D01*
X74940253Y-94260401D01*
X74954868Y-94280107D01*
X74967480Y-94301150D01*
X74977970Y-94323329D01*
X74986235Y-94346428D01*
X74992196Y-94370227D01*
X74995796Y-94394495D01*
X74997000Y-94418999D01*
X74997000Y-95319001D01*
X74995796Y-95343505D01*
X74992196Y-95367773D01*
X74986235Y-95391572D01*
X74977970Y-95414671D01*
X74967480Y-95436850D01*
X74954868Y-95457893D01*
X74940253Y-95477599D01*
X74923777Y-95495777D01*
X74905599Y-95512253D01*
X74885893Y-95526868D01*
X74864850Y-95539480D01*
X74842671Y-95549970D01*
X74819572Y-95558235D01*
X74795773Y-95564196D01*
X74771505Y-95567796D01*
X74747001Y-95569000D01*
X74096999Y-95569000D01*
X74072495Y-95567796D01*
X74048227Y-95564196D01*
X74024428Y-95558235D01*
X74001329Y-95549970D01*
X73979150Y-95539480D01*
X73958107Y-95526868D01*
X73938401Y-95512253D01*
X73920223Y-95495777D01*
X73903747Y-95477599D01*
X73889132Y-95457893D01*
X73876520Y-95436850D01*
X73866030Y-95414671D01*
X73857765Y-95391572D01*
X73851804Y-95367773D01*
X73848204Y-95343505D01*
X73847000Y-95319001D01*
X73847000Y-94418999D01*
X73848204Y-94394495D01*
X73851804Y-94370227D01*
X73857765Y-94346428D01*
X73866030Y-94323329D01*
X73876520Y-94301150D01*
X73889132Y-94280107D01*
X73903747Y-94260401D01*
X73920223Y-94242223D01*
X73938401Y-94225747D01*
X73958107Y-94211132D01*
X73979150Y-94198520D01*
X74001329Y-94188030D01*
X74024428Y-94179765D01*
X74048227Y-94173804D01*
X74072495Y-94170204D01*
X74096999Y-94169000D01*
X74747001Y-94169000D01*
X74771505Y-94170204D01*
X74771505Y-94170204D01*
G37*
D12*
X74422000Y-94869000D03*
G04 #@! TD*
D11*
G04 #@! TO.C,R6*
G36*
X74771505Y-90868204D02*
X74795773Y-90871804D01*
X74819572Y-90877765D01*
X74842671Y-90886030D01*
X74864850Y-90896520D01*
X74885893Y-90909132D01*
X74905599Y-90923747D01*
X74923777Y-90940223D01*
X74940253Y-90958401D01*
X74954868Y-90978107D01*
X74967480Y-90999150D01*
X74977970Y-91021329D01*
X74986235Y-91044428D01*
X74992196Y-91068227D01*
X74995796Y-91092495D01*
X74997000Y-91116999D01*
X74997000Y-92017001D01*
X74995796Y-92041505D01*
X74992196Y-92065773D01*
X74986235Y-92089572D01*
X74977970Y-92112671D01*
X74967480Y-92134850D01*
X74954868Y-92155893D01*
X74940253Y-92175599D01*
X74923777Y-92193777D01*
X74905599Y-92210253D01*
X74885893Y-92224868D01*
X74864850Y-92237480D01*
X74842671Y-92247970D01*
X74819572Y-92256235D01*
X74795773Y-92262196D01*
X74771505Y-92265796D01*
X74747001Y-92267000D01*
X74096999Y-92267000D01*
X74072495Y-92265796D01*
X74048227Y-92262196D01*
X74024428Y-92256235D01*
X74001329Y-92247970D01*
X73979150Y-92237480D01*
X73958107Y-92224868D01*
X73938401Y-92210253D01*
X73920223Y-92193777D01*
X73903747Y-92175599D01*
X73889132Y-92155893D01*
X73876520Y-92134850D01*
X73866030Y-92112671D01*
X73857765Y-92089572D01*
X73851804Y-92065773D01*
X73848204Y-92041505D01*
X73847000Y-92017001D01*
X73847000Y-91116999D01*
X73848204Y-91092495D01*
X73851804Y-91068227D01*
X73857765Y-91044428D01*
X73866030Y-91021329D01*
X73876520Y-90999150D01*
X73889132Y-90978107D01*
X73903747Y-90958401D01*
X73920223Y-90940223D01*
X73938401Y-90923747D01*
X73958107Y-90909132D01*
X73979150Y-90896520D01*
X74001329Y-90886030D01*
X74024428Y-90877765D01*
X74048227Y-90871804D01*
X74072495Y-90868204D01*
X74096999Y-90867000D01*
X74747001Y-90867000D01*
X74771505Y-90868204D01*
X74771505Y-90868204D01*
G37*
D12*
X74422000Y-91567000D03*
D11*
G36*
X72721505Y-90868204D02*
X72745773Y-90871804D01*
X72769572Y-90877765D01*
X72792671Y-90886030D01*
X72814850Y-90896520D01*
X72835893Y-90909132D01*
X72855599Y-90923747D01*
X72873777Y-90940223D01*
X72890253Y-90958401D01*
X72904868Y-90978107D01*
X72917480Y-90999150D01*
X72927970Y-91021329D01*
X72936235Y-91044428D01*
X72942196Y-91068227D01*
X72945796Y-91092495D01*
X72947000Y-91116999D01*
X72947000Y-92017001D01*
X72945796Y-92041505D01*
X72942196Y-92065773D01*
X72936235Y-92089572D01*
X72927970Y-92112671D01*
X72917480Y-92134850D01*
X72904868Y-92155893D01*
X72890253Y-92175599D01*
X72873777Y-92193777D01*
X72855599Y-92210253D01*
X72835893Y-92224868D01*
X72814850Y-92237480D01*
X72792671Y-92247970D01*
X72769572Y-92256235D01*
X72745773Y-92262196D01*
X72721505Y-92265796D01*
X72697001Y-92267000D01*
X72046999Y-92267000D01*
X72022495Y-92265796D01*
X71998227Y-92262196D01*
X71974428Y-92256235D01*
X71951329Y-92247970D01*
X71929150Y-92237480D01*
X71908107Y-92224868D01*
X71888401Y-92210253D01*
X71870223Y-92193777D01*
X71853747Y-92175599D01*
X71839132Y-92155893D01*
X71826520Y-92134850D01*
X71816030Y-92112671D01*
X71807765Y-92089572D01*
X71801804Y-92065773D01*
X71798204Y-92041505D01*
X71797000Y-92017001D01*
X71797000Y-91116999D01*
X71798204Y-91092495D01*
X71801804Y-91068227D01*
X71807765Y-91044428D01*
X71816030Y-91021329D01*
X71826520Y-90999150D01*
X71839132Y-90978107D01*
X71853747Y-90958401D01*
X71870223Y-90940223D01*
X71888401Y-90923747D01*
X71908107Y-90909132D01*
X71929150Y-90896520D01*
X71951329Y-90886030D01*
X71974428Y-90877765D01*
X71998227Y-90871804D01*
X72022495Y-90868204D01*
X72046999Y-90867000D01*
X72697001Y-90867000D01*
X72721505Y-90868204D01*
X72721505Y-90868204D01*
G37*
D12*
X72372000Y-91567000D03*
G04 #@! TD*
D11*
G04 #@! TO.C,R7*
G36*
X74771505Y-87566204D02*
X74795773Y-87569804D01*
X74819572Y-87575765D01*
X74842671Y-87584030D01*
X74864850Y-87594520D01*
X74885893Y-87607132D01*
X74905599Y-87621747D01*
X74923777Y-87638223D01*
X74940253Y-87656401D01*
X74954868Y-87676107D01*
X74967480Y-87697150D01*
X74977970Y-87719329D01*
X74986235Y-87742428D01*
X74992196Y-87766227D01*
X74995796Y-87790495D01*
X74997000Y-87814999D01*
X74997000Y-88715001D01*
X74995796Y-88739505D01*
X74992196Y-88763773D01*
X74986235Y-88787572D01*
X74977970Y-88810671D01*
X74967480Y-88832850D01*
X74954868Y-88853893D01*
X74940253Y-88873599D01*
X74923777Y-88891777D01*
X74905599Y-88908253D01*
X74885893Y-88922868D01*
X74864850Y-88935480D01*
X74842671Y-88945970D01*
X74819572Y-88954235D01*
X74795773Y-88960196D01*
X74771505Y-88963796D01*
X74747001Y-88965000D01*
X74096999Y-88965000D01*
X74072495Y-88963796D01*
X74048227Y-88960196D01*
X74024428Y-88954235D01*
X74001329Y-88945970D01*
X73979150Y-88935480D01*
X73958107Y-88922868D01*
X73938401Y-88908253D01*
X73920223Y-88891777D01*
X73903747Y-88873599D01*
X73889132Y-88853893D01*
X73876520Y-88832850D01*
X73866030Y-88810671D01*
X73857765Y-88787572D01*
X73851804Y-88763773D01*
X73848204Y-88739505D01*
X73847000Y-88715001D01*
X73847000Y-87814999D01*
X73848204Y-87790495D01*
X73851804Y-87766227D01*
X73857765Y-87742428D01*
X73866030Y-87719329D01*
X73876520Y-87697150D01*
X73889132Y-87676107D01*
X73903747Y-87656401D01*
X73920223Y-87638223D01*
X73938401Y-87621747D01*
X73958107Y-87607132D01*
X73979150Y-87594520D01*
X74001329Y-87584030D01*
X74024428Y-87575765D01*
X74048227Y-87569804D01*
X74072495Y-87566204D01*
X74096999Y-87565000D01*
X74747001Y-87565000D01*
X74771505Y-87566204D01*
X74771505Y-87566204D01*
G37*
D12*
X74422000Y-88265000D03*
D11*
G36*
X72721505Y-87566204D02*
X72745773Y-87569804D01*
X72769572Y-87575765D01*
X72792671Y-87584030D01*
X72814850Y-87594520D01*
X72835893Y-87607132D01*
X72855599Y-87621747D01*
X72873777Y-87638223D01*
X72890253Y-87656401D01*
X72904868Y-87676107D01*
X72917480Y-87697150D01*
X72927970Y-87719329D01*
X72936235Y-87742428D01*
X72942196Y-87766227D01*
X72945796Y-87790495D01*
X72947000Y-87814999D01*
X72947000Y-88715001D01*
X72945796Y-88739505D01*
X72942196Y-88763773D01*
X72936235Y-88787572D01*
X72927970Y-88810671D01*
X72917480Y-88832850D01*
X72904868Y-88853893D01*
X72890253Y-88873599D01*
X72873777Y-88891777D01*
X72855599Y-88908253D01*
X72835893Y-88922868D01*
X72814850Y-88935480D01*
X72792671Y-88945970D01*
X72769572Y-88954235D01*
X72745773Y-88960196D01*
X72721505Y-88963796D01*
X72697001Y-88965000D01*
X72046999Y-88965000D01*
X72022495Y-88963796D01*
X71998227Y-88960196D01*
X71974428Y-88954235D01*
X71951329Y-88945970D01*
X71929150Y-88935480D01*
X71908107Y-88922868D01*
X71888401Y-88908253D01*
X71870223Y-88891777D01*
X71853747Y-88873599D01*
X71839132Y-88853893D01*
X71826520Y-88832850D01*
X71816030Y-88810671D01*
X71807765Y-88787572D01*
X71801804Y-88763773D01*
X71798204Y-88739505D01*
X71797000Y-88715001D01*
X71797000Y-87814999D01*
X71798204Y-87790495D01*
X71801804Y-87766227D01*
X71807765Y-87742428D01*
X71816030Y-87719329D01*
X71826520Y-87697150D01*
X71839132Y-87676107D01*
X71853747Y-87656401D01*
X71870223Y-87638223D01*
X71888401Y-87621747D01*
X71908107Y-87607132D01*
X71929150Y-87594520D01*
X71951329Y-87584030D01*
X71974428Y-87575765D01*
X71998227Y-87569804D01*
X72022495Y-87566204D01*
X72046999Y-87565000D01*
X72697001Y-87565000D01*
X72721505Y-87566204D01*
X72721505Y-87566204D01*
G37*
D12*
X72372000Y-88265000D03*
G04 #@! TD*
D11*
G04 #@! TO.C,R8*
G36*
X74771505Y-84518204D02*
X74795773Y-84521804D01*
X74819572Y-84527765D01*
X74842671Y-84536030D01*
X74864850Y-84546520D01*
X74885893Y-84559132D01*
X74905599Y-84573747D01*
X74923777Y-84590223D01*
X74940253Y-84608401D01*
X74954868Y-84628107D01*
X74967480Y-84649150D01*
X74977970Y-84671329D01*
X74986235Y-84694428D01*
X74992196Y-84718227D01*
X74995796Y-84742495D01*
X74997000Y-84766999D01*
X74997000Y-85667001D01*
X74995796Y-85691505D01*
X74992196Y-85715773D01*
X74986235Y-85739572D01*
X74977970Y-85762671D01*
X74967480Y-85784850D01*
X74954868Y-85805893D01*
X74940253Y-85825599D01*
X74923777Y-85843777D01*
X74905599Y-85860253D01*
X74885893Y-85874868D01*
X74864850Y-85887480D01*
X74842671Y-85897970D01*
X74819572Y-85906235D01*
X74795773Y-85912196D01*
X74771505Y-85915796D01*
X74747001Y-85917000D01*
X74096999Y-85917000D01*
X74072495Y-85915796D01*
X74048227Y-85912196D01*
X74024428Y-85906235D01*
X74001329Y-85897970D01*
X73979150Y-85887480D01*
X73958107Y-85874868D01*
X73938401Y-85860253D01*
X73920223Y-85843777D01*
X73903747Y-85825599D01*
X73889132Y-85805893D01*
X73876520Y-85784850D01*
X73866030Y-85762671D01*
X73857765Y-85739572D01*
X73851804Y-85715773D01*
X73848204Y-85691505D01*
X73847000Y-85667001D01*
X73847000Y-84766999D01*
X73848204Y-84742495D01*
X73851804Y-84718227D01*
X73857765Y-84694428D01*
X73866030Y-84671329D01*
X73876520Y-84649150D01*
X73889132Y-84628107D01*
X73903747Y-84608401D01*
X73920223Y-84590223D01*
X73938401Y-84573747D01*
X73958107Y-84559132D01*
X73979150Y-84546520D01*
X74001329Y-84536030D01*
X74024428Y-84527765D01*
X74048227Y-84521804D01*
X74072495Y-84518204D01*
X74096999Y-84517000D01*
X74747001Y-84517000D01*
X74771505Y-84518204D01*
X74771505Y-84518204D01*
G37*
D12*
X74422000Y-85217000D03*
D11*
G36*
X72721505Y-84518204D02*
X72745773Y-84521804D01*
X72769572Y-84527765D01*
X72792671Y-84536030D01*
X72814850Y-84546520D01*
X72835893Y-84559132D01*
X72855599Y-84573747D01*
X72873777Y-84590223D01*
X72890253Y-84608401D01*
X72904868Y-84628107D01*
X72917480Y-84649150D01*
X72927970Y-84671329D01*
X72936235Y-84694428D01*
X72942196Y-84718227D01*
X72945796Y-84742495D01*
X72947000Y-84766999D01*
X72947000Y-85667001D01*
X72945796Y-85691505D01*
X72942196Y-85715773D01*
X72936235Y-85739572D01*
X72927970Y-85762671D01*
X72917480Y-85784850D01*
X72904868Y-85805893D01*
X72890253Y-85825599D01*
X72873777Y-85843777D01*
X72855599Y-85860253D01*
X72835893Y-85874868D01*
X72814850Y-85887480D01*
X72792671Y-85897970D01*
X72769572Y-85906235D01*
X72745773Y-85912196D01*
X72721505Y-85915796D01*
X72697001Y-85917000D01*
X72046999Y-85917000D01*
X72022495Y-85915796D01*
X71998227Y-85912196D01*
X71974428Y-85906235D01*
X71951329Y-85897970D01*
X71929150Y-85887480D01*
X71908107Y-85874868D01*
X71888401Y-85860253D01*
X71870223Y-85843777D01*
X71853747Y-85825599D01*
X71839132Y-85805893D01*
X71826520Y-85784850D01*
X71816030Y-85762671D01*
X71807765Y-85739572D01*
X71801804Y-85715773D01*
X71798204Y-85691505D01*
X71797000Y-85667001D01*
X71797000Y-84766999D01*
X71798204Y-84742495D01*
X71801804Y-84718227D01*
X71807765Y-84694428D01*
X71816030Y-84671329D01*
X71826520Y-84649150D01*
X71839132Y-84628107D01*
X71853747Y-84608401D01*
X71870223Y-84590223D01*
X71888401Y-84573747D01*
X71908107Y-84559132D01*
X71929150Y-84546520D01*
X71951329Y-84536030D01*
X71974428Y-84527765D01*
X71998227Y-84521804D01*
X72022495Y-84518204D01*
X72046999Y-84517000D01*
X72697001Y-84517000D01*
X72721505Y-84518204D01*
X72721505Y-84518204D01*
G37*
D12*
X72372000Y-85217000D03*
G04 #@! TD*
D11*
G04 #@! TO.C,R9*
G36*
X107365005Y-107441704D02*
X107389273Y-107445304D01*
X107413072Y-107451265D01*
X107436171Y-107459530D01*
X107458350Y-107470020D01*
X107479393Y-107482632D01*
X107499099Y-107497247D01*
X107517277Y-107513723D01*
X107533753Y-107531901D01*
X107548368Y-107551607D01*
X107560980Y-107572650D01*
X107571470Y-107594829D01*
X107579735Y-107617928D01*
X107585696Y-107641727D01*
X107589296Y-107665995D01*
X107590500Y-107690499D01*
X107590500Y-108590501D01*
X107589296Y-108615005D01*
X107585696Y-108639273D01*
X107579735Y-108663072D01*
X107571470Y-108686171D01*
X107560980Y-108708350D01*
X107548368Y-108729393D01*
X107533753Y-108749099D01*
X107517277Y-108767277D01*
X107499099Y-108783753D01*
X107479393Y-108798368D01*
X107458350Y-108810980D01*
X107436171Y-108821470D01*
X107413072Y-108829735D01*
X107389273Y-108835696D01*
X107365005Y-108839296D01*
X107340501Y-108840500D01*
X106690499Y-108840500D01*
X106665995Y-108839296D01*
X106641727Y-108835696D01*
X106617928Y-108829735D01*
X106594829Y-108821470D01*
X106572650Y-108810980D01*
X106551607Y-108798368D01*
X106531901Y-108783753D01*
X106513723Y-108767277D01*
X106497247Y-108749099D01*
X106482632Y-108729393D01*
X106470020Y-108708350D01*
X106459530Y-108686171D01*
X106451265Y-108663072D01*
X106445304Y-108639273D01*
X106441704Y-108615005D01*
X106440500Y-108590501D01*
X106440500Y-107690499D01*
X106441704Y-107665995D01*
X106445304Y-107641727D01*
X106451265Y-107617928D01*
X106459530Y-107594829D01*
X106470020Y-107572650D01*
X106482632Y-107551607D01*
X106497247Y-107531901D01*
X106513723Y-107513723D01*
X106531901Y-107497247D01*
X106551607Y-107482632D01*
X106572650Y-107470020D01*
X106594829Y-107459530D01*
X106617928Y-107451265D01*
X106641727Y-107445304D01*
X106665995Y-107441704D01*
X106690499Y-107440500D01*
X107340501Y-107440500D01*
X107365005Y-107441704D01*
X107365005Y-107441704D01*
G37*
D12*
X107015500Y-108140500D03*
D11*
G36*
X105315005Y-107441704D02*
X105339273Y-107445304D01*
X105363072Y-107451265D01*
X105386171Y-107459530D01*
X105408350Y-107470020D01*
X105429393Y-107482632D01*
X105449099Y-107497247D01*
X105467277Y-107513723D01*
X105483753Y-107531901D01*
X105498368Y-107551607D01*
X105510980Y-107572650D01*
X105521470Y-107594829D01*
X105529735Y-107617928D01*
X105535696Y-107641727D01*
X105539296Y-107665995D01*
X105540500Y-107690499D01*
X105540500Y-108590501D01*
X105539296Y-108615005D01*
X105535696Y-108639273D01*
X105529735Y-108663072D01*
X105521470Y-108686171D01*
X105510980Y-108708350D01*
X105498368Y-108729393D01*
X105483753Y-108749099D01*
X105467277Y-108767277D01*
X105449099Y-108783753D01*
X105429393Y-108798368D01*
X105408350Y-108810980D01*
X105386171Y-108821470D01*
X105363072Y-108829735D01*
X105339273Y-108835696D01*
X105315005Y-108839296D01*
X105290501Y-108840500D01*
X104640499Y-108840500D01*
X104615995Y-108839296D01*
X104591727Y-108835696D01*
X104567928Y-108829735D01*
X104544829Y-108821470D01*
X104522650Y-108810980D01*
X104501607Y-108798368D01*
X104481901Y-108783753D01*
X104463723Y-108767277D01*
X104447247Y-108749099D01*
X104432632Y-108729393D01*
X104420020Y-108708350D01*
X104409530Y-108686171D01*
X104401265Y-108663072D01*
X104395304Y-108639273D01*
X104391704Y-108615005D01*
X104390500Y-108590501D01*
X104390500Y-107690499D01*
X104391704Y-107665995D01*
X104395304Y-107641727D01*
X104401265Y-107617928D01*
X104409530Y-107594829D01*
X104420020Y-107572650D01*
X104432632Y-107551607D01*
X104447247Y-107531901D01*
X104463723Y-107513723D01*
X104481901Y-107497247D01*
X104501607Y-107482632D01*
X104522650Y-107470020D01*
X104544829Y-107459530D01*
X104567928Y-107451265D01*
X104591727Y-107445304D01*
X104615995Y-107441704D01*
X104640499Y-107440500D01*
X105290501Y-107440500D01*
X105315005Y-107441704D01*
X105315005Y-107441704D01*
G37*
D12*
X104965500Y-108140500D03*
G04 #@! TD*
D11*
G04 #@! TO.C,R10*
G36*
X105315005Y-104139704D02*
X105339273Y-104143304D01*
X105363072Y-104149265D01*
X105386171Y-104157530D01*
X105408350Y-104168020D01*
X105429393Y-104180632D01*
X105449099Y-104195247D01*
X105467277Y-104211723D01*
X105483753Y-104229901D01*
X105498368Y-104249607D01*
X105510980Y-104270650D01*
X105521470Y-104292829D01*
X105529735Y-104315928D01*
X105535696Y-104339727D01*
X105539296Y-104363995D01*
X105540500Y-104388499D01*
X105540500Y-105288501D01*
X105539296Y-105313005D01*
X105535696Y-105337273D01*
X105529735Y-105361072D01*
X105521470Y-105384171D01*
X105510980Y-105406350D01*
X105498368Y-105427393D01*
X105483753Y-105447099D01*
X105467277Y-105465277D01*
X105449099Y-105481753D01*
X105429393Y-105496368D01*
X105408350Y-105508980D01*
X105386171Y-105519470D01*
X105363072Y-105527735D01*
X105339273Y-105533696D01*
X105315005Y-105537296D01*
X105290501Y-105538500D01*
X104640499Y-105538500D01*
X104615995Y-105537296D01*
X104591727Y-105533696D01*
X104567928Y-105527735D01*
X104544829Y-105519470D01*
X104522650Y-105508980D01*
X104501607Y-105496368D01*
X104481901Y-105481753D01*
X104463723Y-105465277D01*
X104447247Y-105447099D01*
X104432632Y-105427393D01*
X104420020Y-105406350D01*
X104409530Y-105384171D01*
X104401265Y-105361072D01*
X104395304Y-105337273D01*
X104391704Y-105313005D01*
X104390500Y-105288501D01*
X104390500Y-104388499D01*
X104391704Y-104363995D01*
X104395304Y-104339727D01*
X104401265Y-104315928D01*
X104409530Y-104292829D01*
X104420020Y-104270650D01*
X104432632Y-104249607D01*
X104447247Y-104229901D01*
X104463723Y-104211723D01*
X104481901Y-104195247D01*
X104501607Y-104180632D01*
X104522650Y-104168020D01*
X104544829Y-104157530D01*
X104567928Y-104149265D01*
X104591727Y-104143304D01*
X104615995Y-104139704D01*
X104640499Y-104138500D01*
X105290501Y-104138500D01*
X105315005Y-104139704D01*
X105315005Y-104139704D01*
G37*
D12*
X104965500Y-104838500D03*
D11*
G36*
X107365005Y-104139704D02*
X107389273Y-104143304D01*
X107413072Y-104149265D01*
X107436171Y-104157530D01*
X107458350Y-104168020D01*
X107479393Y-104180632D01*
X107499099Y-104195247D01*
X107517277Y-104211723D01*
X107533753Y-104229901D01*
X107548368Y-104249607D01*
X107560980Y-104270650D01*
X107571470Y-104292829D01*
X107579735Y-104315928D01*
X107585696Y-104339727D01*
X107589296Y-104363995D01*
X107590500Y-104388499D01*
X107590500Y-105288501D01*
X107589296Y-105313005D01*
X107585696Y-105337273D01*
X107579735Y-105361072D01*
X107571470Y-105384171D01*
X107560980Y-105406350D01*
X107548368Y-105427393D01*
X107533753Y-105447099D01*
X107517277Y-105465277D01*
X107499099Y-105481753D01*
X107479393Y-105496368D01*
X107458350Y-105508980D01*
X107436171Y-105519470D01*
X107413072Y-105527735D01*
X107389273Y-105533696D01*
X107365005Y-105537296D01*
X107340501Y-105538500D01*
X106690499Y-105538500D01*
X106665995Y-105537296D01*
X106641727Y-105533696D01*
X106617928Y-105527735D01*
X106594829Y-105519470D01*
X106572650Y-105508980D01*
X106551607Y-105496368D01*
X106531901Y-105481753D01*
X106513723Y-105465277D01*
X106497247Y-105447099D01*
X106482632Y-105427393D01*
X106470020Y-105406350D01*
X106459530Y-105384171D01*
X106451265Y-105361072D01*
X106445304Y-105337273D01*
X106441704Y-105313005D01*
X106440500Y-105288501D01*
X106440500Y-104388499D01*
X106441704Y-104363995D01*
X106445304Y-104339727D01*
X106451265Y-104315928D01*
X106459530Y-104292829D01*
X106470020Y-104270650D01*
X106482632Y-104249607D01*
X106497247Y-104229901D01*
X106513723Y-104211723D01*
X106531901Y-104195247D01*
X106551607Y-104180632D01*
X106572650Y-104168020D01*
X106594829Y-104157530D01*
X106617928Y-104149265D01*
X106641727Y-104143304D01*
X106665995Y-104139704D01*
X106690499Y-104138500D01*
X107340501Y-104138500D01*
X107365005Y-104139704D01*
X107365005Y-104139704D01*
G37*
D12*
X107015500Y-104838500D03*
G04 #@! TD*
D11*
G04 #@! TO.C,R11*
G36*
X107238005Y-100837704D02*
X107262273Y-100841304D01*
X107286072Y-100847265D01*
X107309171Y-100855530D01*
X107331350Y-100866020D01*
X107352393Y-100878632D01*
X107372099Y-100893247D01*
X107390277Y-100909723D01*
X107406753Y-100927901D01*
X107421368Y-100947607D01*
X107433980Y-100968650D01*
X107444470Y-100990829D01*
X107452735Y-101013928D01*
X107458696Y-101037727D01*
X107462296Y-101061995D01*
X107463500Y-101086499D01*
X107463500Y-101986501D01*
X107462296Y-102011005D01*
X107458696Y-102035273D01*
X107452735Y-102059072D01*
X107444470Y-102082171D01*
X107433980Y-102104350D01*
X107421368Y-102125393D01*
X107406753Y-102145099D01*
X107390277Y-102163277D01*
X107372099Y-102179753D01*
X107352393Y-102194368D01*
X107331350Y-102206980D01*
X107309171Y-102217470D01*
X107286072Y-102225735D01*
X107262273Y-102231696D01*
X107238005Y-102235296D01*
X107213501Y-102236500D01*
X106563499Y-102236500D01*
X106538995Y-102235296D01*
X106514727Y-102231696D01*
X106490928Y-102225735D01*
X106467829Y-102217470D01*
X106445650Y-102206980D01*
X106424607Y-102194368D01*
X106404901Y-102179753D01*
X106386723Y-102163277D01*
X106370247Y-102145099D01*
X106355632Y-102125393D01*
X106343020Y-102104350D01*
X106332530Y-102082171D01*
X106324265Y-102059072D01*
X106318304Y-102035273D01*
X106314704Y-102011005D01*
X106313500Y-101986501D01*
X106313500Y-101086499D01*
X106314704Y-101061995D01*
X106318304Y-101037727D01*
X106324265Y-101013928D01*
X106332530Y-100990829D01*
X106343020Y-100968650D01*
X106355632Y-100947607D01*
X106370247Y-100927901D01*
X106386723Y-100909723D01*
X106404901Y-100893247D01*
X106424607Y-100878632D01*
X106445650Y-100866020D01*
X106467829Y-100855530D01*
X106490928Y-100847265D01*
X106514727Y-100841304D01*
X106538995Y-100837704D01*
X106563499Y-100836500D01*
X107213501Y-100836500D01*
X107238005Y-100837704D01*
X107238005Y-100837704D01*
G37*
D12*
X106888500Y-101536500D03*
D11*
G36*
X105188005Y-100837704D02*
X105212273Y-100841304D01*
X105236072Y-100847265D01*
X105259171Y-100855530D01*
X105281350Y-100866020D01*
X105302393Y-100878632D01*
X105322099Y-100893247D01*
X105340277Y-100909723D01*
X105356753Y-100927901D01*
X105371368Y-100947607D01*
X105383980Y-100968650D01*
X105394470Y-100990829D01*
X105402735Y-101013928D01*
X105408696Y-101037727D01*
X105412296Y-101061995D01*
X105413500Y-101086499D01*
X105413500Y-101986501D01*
X105412296Y-102011005D01*
X105408696Y-102035273D01*
X105402735Y-102059072D01*
X105394470Y-102082171D01*
X105383980Y-102104350D01*
X105371368Y-102125393D01*
X105356753Y-102145099D01*
X105340277Y-102163277D01*
X105322099Y-102179753D01*
X105302393Y-102194368D01*
X105281350Y-102206980D01*
X105259171Y-102217470D01*
X105236072Y-102225735D01*
X105212273Y-102231696D01*
X105188005Y-102235296D01*
X105163501Y-102236500D01*
X104513499Y-102236500D01*
X104488995Y-102235296D01*
X104464727Y-102231696D01*
X104440928Y-102225735D01*
X104417829Y-102217470D01*
X104395650Y-102206980D01*
X104374607Y-102194368D01*
X104354901Y-102179753D01*
X104336723Y-102163277D01*
X104320247Y-102145099D01*
X104305632Y-102125393D01*
X104293020Y-102104350D01*
X104282530Y-102082171D01*
X104274265Y-102059072D01*
X104268304Y-102035273D01*
X104264704Y-102011005D01*
X104263500Y-101986501D01*
X104263500Y-101086499D01*
X104264704Y-101061995D01*
X104268304Y-101037727D01*
X104274265Y-101013928D01*
X104282530Y-100990829D01*
X104293020Y-100968650D01*
X104305632Y-100947607D01*
X104320247Y-100927901D01*
X104336723Y-100909723D01*
X104354901Y-100893247D01*
X104374607Y-100878632D01*
X104395650Y-100866020D01*
X104417829Y-100855530D01*
X104440928Y-100847265D01*
X104464727Y-100841304D01*
X104488995Y-100837704D01*
X104513499Y-100836500D01*
X105163501Y-100836500D01*
X105188005Y-100837704D01*
X105188005Y-100837704D01*
G37*
D12*
X104838500Y-101536500D03*
G04 #@! TD*
D11*
G04 #@! TO.C,R12*
G36*
X105179005Y-97662704D02*
X105203273Y-97666304D01*
X105227072Y-97672265D01*
X105250171Y-97680530D01*
X105272350Y-97691020D01*
X105293393Y-97703632D01*
X105313099Y-97718247D01*
X105331277Y-97734723D01*
X105347753Y-97752901D01*
X105362368Y-97772607D01*
X105374980Y-97793650D01*
X105385470Y-97815829D01*
X105393735Y-97838928D01*
X105399696Y-97862727D01*
X105403296Y-97886995D01*
X105404500Y-97911499D01*
X105404500Y-98811501D01*
X105403296Y-98836005D01*
X105399696Y-98860273D01*
X105393735Y-98884072D01*
X105385470Y-98907171D01*
X105374980Y-98929350D01*
X105362368Y-98950393D01*
X105347753Y-98970099D01*
X105331277Y-98988277D01*
X105313099Y-99004753D01*
X105293393Y-99019368D01*
X105272350Y-99031980D01*
X105250171Y-99042470D01*
X105227072Y-99050735D01*
X105203273Y-99056696D01*
X105179005Y-99060296D01*
X105154501Y-99061500D01*
X104504499Y-99061500D01*
X104479995Y-99060296D01*
X104455727Y-99056696D01*
X104431928Y-99050735D01*
X104408829Y-99042470D01*
X104386650Y-99031980D01*
X104365607Y-99019368D01*
X104345901Y-99004753D01*
X104327723Y-98988277D01*
X104311247Y-98970099D01*
X104296632Y-98950393D01*
X104284020Y-98929350D01*
X104273530Y-98907171D01*
X104265265Y-98884072D01*
X104259304Y-98860273D01*
X104255704Y-98836005D01*
X104254500Y-98811501D01*
X104254500Y-97911499D01*
X104255704Y-97886995D01*
X104259304Y-97862727D01*
X104265265Y-97838928D01*
X104273530Y-97815829D01*
X104284020Y-97793650D01*
X104296632Y-97772607D01*
X104311247Y-97752901D01*
X104327723Y-97734723D01*
X104345901Y-97718247D01*
X104365607Y-97703632D01*
X104386650Y-97691020D01*
X104408829Y-97680530D01*
X104431928Y-97672265D01*
X104455727Y-97666304D01*
X104479995Y-97662704D01*
X104504499Y-97661500D01*
X105154501Y-97661500D01*
X105179005Y-97662704D01*
X105179005Y-97662704D01*
G37*
D12*
X104829500Y-98361500D03*
D11*
G36*
X107229005Y-97662704D02*
X107253273Y-97666304D01*
X107277072Y-97672265D01*
X107300171Y-97680530D01*
X107322350Y-97691020D01*
X107343393Y-97703632D01*
X107363099Y-97718247D01*
X107381277Y-97734723D01*
X107397753Y-97752901D01*
X107412368Y-97772607D01*
X107424980Y-97793650D01*
X107435470Y-97815829D01*
X107443735Y-97838928D01*
X107449696Y-97862727D01*
X107453296Y-97886995D01*
X107454500Y-97911499D01*
X107454500Y-98811501D01*
X107453296Y-98836005D01*
X107449696Y-98860273D01*
X107443735Y-98884072D01*
X107435470Y-98907171D01*
X107424980Y-98929350D01*
X107412368Y-98950393D01*
X107397753Y-98970099D01*
X107381277Y-98988277D01*
X107363099Y-99004753D01*
X107343393Y-99019368D01*
X107322350Y-99031980D01*
X107300171Y-99042470D01*
X107277072Y-99050735D01*
X107253273Y-99056696D01*
X107229005Y-99060296D01*
X107204501Y-99061500D01*
X106554499Y-99061500D01*
X106529995Y-99060296D01*
X106505727Y-99056696D01*
X106481928Y-99050735D01*
X106458829Y-99042470D01*
X106436650Y-99031980D01*
X106415607Y-99019368D01*
X106395901Y-99004753D01*
X106377723Y-98988277D01*
X106361247Y-98970099D01*
X106346632Y-98950393D01*
X106334020Y-98929350D01*
X106323530Y-98907171D01*
X106315265Y-98884072D01*
X106309304Y-98860273D01*
X106305704Y-98836005D01*
X106304500Y-98811501D01*
X106304500Y-97911499D01*
X106305704Y-97886995D01*
X106309304Y-97862727D01*
X106315265Y-97838928D01*
X106323530Y-97815829D01*
X106334020Y-97793650D01*
X106346632Y-97772607D01*
X106361247Y-97752901D01*
X106377723Y-97734723D01*
X106395901Y-97718247D01*
X106415607Y-97703632D01*
X106436650Y-97691020D01*
X106458829Y-97680530D01*
X106481928Y-97672265D01*
X106505727Y-97666304D01*
X106529995Y-97662704D01*
X106554499Y-97661500D01*
X107204501Y-97661500D01*
X107229005Y-97662704D01*
X107229005Y-97662704D01*
G37*
D12*
X106879500Y-98361500D03*
G04 #@! TD*
D11*
G04 #@! TO.C,R13*
G36*
X107220005Y-94487704D02*
X107244273Y-94491304D01*
X107268072Y-94497265D01*
X107291171Y-94505530D01*
X107313350Y-94516020D01*
X107334393Y-94528632D01*
X107354099Y-94543247D01*
X107372277Y-94559723D01*
X107388753Y-94577901D01*
X107403368Y-94597607D01*
X107415980Y-94618650D01*
X107426470Y-94640829D01*
X107434735Y-94663928D01*
X107440696Y-94687727D01*
X107444296Y-94711995D01*
X107445500Y-94736499D01*
X107445500Y-95636501D01*
X107444296Y-95661005D01*
X107440696Y-95685273D01*
X107434735Y-95709072D01*
X107426470Y-95732171D01*
X107415980Y-95754350D01*
X107403368Y-95775393D01*
X107388753Y-95795099D01*
X107372277Y-95813277D01*
X107354099Y-95829753D01*
X107334393Y-95844368D01*
X107313350Y-95856980D01*
X107291171Y-95867470D01*
X107268072Y-95875735D01*
X107244273Y-95881696D01*
X107220005Y-95885296D01*
X107195501Y-95886500D01*
X106545499Y-95886500D01*
X106520995Y-95885296D01*
X106496727Y-95881696D01*
X106472928Y-95875735D01*
X106449829Y-95867470D01*
X106427650Y-95856980D01*
X106406607Y-95844368D01*
X106386901Y-95829753D01*
X106368723Y-95813277D01*
X106352247Y-95795099D01*
X106337632Y-95775393D01*
X106325020Y-95754350D01*
X106314530Y-95732171D01*
X106306265Y-95709072D01*
X106300304Y-95685273D01*
X106296704Y-95661005D01*
X106295500Y-95636501D01*
X106295500Y-94736499D01*
X106296704Y-94711995D01*
X106300304Y-94687727D01*
X106306265Y-94663928D01*
X106314530Y-94640829D01*
X106325020Y-94618650D01*
X106337632Y-94597607D01*
X106352247Y-94577901D01*
X106368723Y-94559723D01*
X106386901Y-94543247D01*
X106406607Y-94528632D01*
X106427650Y-94516020D01*
X106449829Y-94505530D01*
X106472928Y-94497265D01*
X106496727Y-94491304D01*
X106520995Y-94487704D01*
X106545499Y-94486500D01*
X107195501Y-94486500D01*
X107220005Y-94487704D01*
X107220005Y-94487704D01*
G37*
D12*
X106870500Y-95186500D03*
D11*
G36*
X105170005Y-94487704D02*
X105194273Y-94491304D01*
X105218072Y-94497265D01*
X105241171Y-94505530D01*
X105263350Y-94516020D01*
X105284393Y-94528632D01*
X105304099Y-94543247D01*
X105322277Y-94559723D01*
X105338753Y-94577901D01*
X105353368Y-94597607D01*
X105365980Y-94618650D01*
X105376470Y-94640829D01*
X105384735Y-94663928D01*
X105390696Y-94687727D01*
X105394296Y-94711995D01*
X105395500Y-94736499D01*
X105395500Y-95636501D01*
X105394296Y-95661005D01*
X105390696Y-95685273D01*
X105384735Y-95709072D01*
X105376470Y-95732171D01*
X105365980Y-95754350D01*
X105353368Y-95775393D01*
X105338753Y-95795099D01*
X105322277Y-95813277D01*
X105304099Y-95829753D01*
X105284393Y-95844368D01*
X105263350Y-95856980D01*
X105241171Y-95867470D01*
X105218072Y-95875735D01*
X105194273Y-95881696D01*
X105170005Y-95885296D01*
X105145501Y-95886500D01*
X104495499Y-95886500D01*
X104470995Y-95885296D01*
X104446727Y-95881696D01*
X104422928Y-95875735D01*
X104399829Y-95867470D01*
X104377650Y-95856980D01*
X104356607Y-95844368D01*
X104336901Y-95829753D01*
X104318723Y-95813277D01*
X104302247Y-95795099D01*
X104287632Y-95775393D01*
X104275020Y-95754350D01*
X104264530Y-95732171D01*
X104256265Y-95709072D01*
X104250304Y-95685273D01*
X104246704Y-95661005D01*
X104245500Y-95636501D01*
X104245500Y-94736499D01*
X104246704Y-94711995D01*
X104250304Y-94687727D01*
X104256265Y-94663928D01*
X104264530Y-94640829D01*
X104275020Y-94618650D01*
X104287632Y-94597607D01*
X104302247Y-94577901D01*
X104318723Y-94559723D01*
X104336901Y-94543247D01*
X104356607Y-94528632D01*
X104377650Y-94516020D01*
X104399829Y-94505530D01*
X104422928Y-94497265D01*
X104446727Y-94491304D01*
X104470995Y-94487704D01*
X104495499Y-94486500D01*
X105145501Y-94486500D01*
X105170005Y-94487704D01*
X105170005Y-94487704D01*
G37*
D12*
X104820500Y-95186500D03*
G04 #@! TD*
D11*
G04 #@! TO.C,R14*
G36*
X105170005Y-91185704D02*
X105194273Y-91189304D01*
X105218072Y-91195265D01*
X105241171Y-91203530D01*
X105263350Y-91214020D01*
X105284393Y-91226632D01*
X105304099Y-91241247D01*
X105322277Y-91257723D01*
X105338753Y-91275901D01*
X105353368Y-91295607D01*
X105365980Y-91316650D01*
X105376470Y-91338829D01*
X105384735Y-91361928D01*
X105390696Y-91385727D01*
X105394296Y-91409995D01*
X105395500Y-91434499D01*
X105395500Y-92334501D01*
X105394296Y-92359005D01*
X105390696Y-92383273D01*
X105384735Y-92407072D01*
X105376470Y-92430171D01*
X105365980Y-92452350D01*
X105353368Y-92473393D01*
X105338753Y-92493099D01*
X105322277Y-92511277D01*
X105304099Y-92527753D01*
X105284393Y-92542368D01*
X105263350Y-92554980D01*
X105241171Y-92565470D01*
X105218072Y-92573735D01*
X105194273Y-92579696D01*
X105170005Y-92583296D01*
X105145501Y-92584500D01*
X104495499Y-92584500D01*
X104470995Y-92583296D01*
X104446727Y-92579696D01*
X104422928Y-92573735D01*
X104399829Y-92565470D01*
X104377650Y-92554980D01*
X104356607Y-92542368D01*
X104336901Y-92527753D01*
X104318723Y-92511277D01*
X104302247Y-92493099D01*
X104287632Y-92473393D01*
X104275020Y-92452350D01*
X104264530Y-92430171D01*
X104256265Y-92407072D01*
X104250304Y-92383273D01*
X104246704Y-92359005D01*
X104245500Y-92334501D01*
X104245500Y-91434499D01*
X104246704Y-91409995D01*
X104250304Y-91385727D01*
X104256265Y-91361928D01*
X104264530Y-91338829D01*
X104275020Y-91316650D01*
X104287632Y-91295607D01*
X104302247Y-91275901D01*
X104318723Y-91257723D01*
X104336901Y-91241247D01*
X104356607Y-91226632D01*
X104377650Y-91214020D01*
X104399829Y-91203530D01*
X104422928Y-91195265D01*
X104446727Y-91189304D01*
X104470995Y-91185704D01*
X104495499Y-91184500D01*
X105145501Y-91184500D01*
X105170005Y-91185704D01*
X105170005Y-91185704D01*
G37*
D12*
X104820500Y-91884500D03*
D11*
G36*
X107220005Y-91185704D02*
X107244273Y-91189304D01*
X107268072Y-91195265D01*
X107291171Y-91203530D01*
X107313350Y-91214020D01*
X107334393Y-91226632D01*
X107354099Y-91241247D01*
X107372277Y-91257723D01*
X107388753Y-91275901D01*
X107403368Y-91295607D01*
X107415980Y-91316650D01*
X107426470Y-91338829D01*
X107434735Y-91361928D01*
X107440696Y-91385727D01*
X107444296Y-91409995D01*
X107445500Y-91434499D01*
X107445500Y-92334501D01*
X107444296Y-92359005D01*
X107440696Y-92383273D01*
X107434735Y-92407072D01*
X107426470Y-92430171D01*
X107415980Y-92452350D01*
X107403368Y-92473393D01*
X107388753Y-92493099D01*
X107372277Y-92511277D01*
X107354099Y-92527753D01*
X107334393Y-92542368D01*
X107313350Y-92554980D01*
X107291171Y-92565470D01*
X107268072Y-92573735D01*
X107244273Y-92579696D01*
X107220005Y-92583296D01*
X107195501Y-92584500D01*
X106545499Y-92584500D01*
X106520995Y-92583296D01*
X106496727Y-92579696D01*
X106472928Y-92573735D01*
X106449829Y-92565470D01*
X106427650Y-92554980D01*
X106406607Y-92542368D01*
X106386901Y-92527753D01*
X106368723Y-92511277D01*
X106352247Y-92493099D01*
X106337632Y-92473393D01*
X106325020Y-92452350D01*
X106314530Y-92430171D01*
X106306265Y-92407072D01*
X106300304Y-92383273D01*
X106296704Y-92359005D01*
X106295500Y-92334501D01*
X106295500Y-91434499D01*
X106296704Y-91409995D01*
X106300304Y-91385727D01*
X106306265Y-91361928D01*
X106314530Y-91338829D01*
X106325020Y-91316650D01*
X106337632Y-91295607D01*
X106352247Y-91275901D01*
X106368723Y-91257723D01*
X106386901Y-91241247D01*
X106406607Y-91226632D01*
X106427650Y-91214020D01*
X106449829Y-91203530D01*
X106472928Y-91195265D01*
X106496727Y-91189304D01*
X106520995Y-91185704D01*
X106545499Y-91184500D01*
X107195501Y-91184500D01*
X107220005Y-91185704D01*
X107220005Y-91185704D01*
G37*
D12*
X106870500Y-91884500D03*
G04 #@! TD*
D11*
G04 #@! TO.C,R15*
G36*
X107220005Y-87883704D02*
X107244273Y-87887304D01*
X107268072Y-87893265D01*
X107291171Y-87901530D01*
X107313350Y-87912020D01*
X107334393Y-87924632D01*
X107354099Y-87939247D01*
X107372277Y-87955723D01*
X107388753Y-87973901D01*
X107403368Y-87993607D01*
X107415980Y-88014650D01*
X107426470Y-88036829D01*
X107434735Y-88059928D01*
X107440696Y-88083727D01*
X107444296Y-88107995D01*
X107445500Y-88132499D01*
X107445500Y-89032501D01*
X107444296Y-89057005D01*
X107440696Y-89081273D01*
X107434735Y-89105072D01*
X107426470Y-89128171D01*
X107415980Y-89150350D01*
X107403368Y-89171393D01*
X107388753Y-89191099D01*
X107372277Y-89209277D01*
X107354099Y-89225753D01*
X107334393Y-89240368D01*
X107313350Y-89252980D01*
X107291171Y-89263470D01*
X107268072Y-89271735D01*
X107244273Y-89277696D01*
X107220005Y-89281296D01*
X107195501Y-89282500D01*
X106545499Y-89282500D01*
X106520995Y-89281296D01*
X106496727Y-89277696D01*
X106472928Y-89271735D01*
X106449829Y-89263470D01*
X106427650Y-89252980D01*
X106406607Y-89240368D01*
X106386901Y-89225753D01*
X106368723Y-89209277D01*
X106352247Y-89191099D01*
X106337632Y-89171393D01*
X106325020Y-89150350D01*
X106314530Y-89128171D01*
X106306265Y-89105072D01*
X106300304Y-89081273D01*
X106296704Y-89057005D01*
X106295500Y-89032501D01*
X106295500Y-88132499D01*
X106296704Y-88107995D01*
X106300304Y-88083727D01*
X106306265Y-88059928D01*
X106314530Y-88036829D01*
X106325020Y-88014650D01*
X106337632Y-87993607D01*
X106352247Y-87973901D01*
X106368723Y-87955723D01*
X106386901Y-87939247D01*
X106406607Y-87924632D01*
X106427650Y-87912020D01*
X106449829Y-87901530D01*
X106472928Y-87893265D01*
X106496727Y-87887304D01*
X106520995Y-87883704D01*
X106545499Y-87882500D01*
X107195501Y-87882500D01*
X107220005Y-87883704D01*
X107220005Y-87883704D01*
G37*
D12*
X106870500Y-88582500D03*
D11*
G36*
X105170005Y-87883704D02*
X105194273Y-87887304D01*
X105218072Y-87893265D01*
X105241171Y-87901530D01*
X105263350Y-87912020D01*
X105284393Y-87924632D01*
X105304099Y-87939247D01*
X105322277Y-87955723D01*
X105338753Y-87973901D01*
X105353368Y-87993607D01*
X105365980Y-88014650D01*
X105376470Y-88036829D01*
X105384735Y-88059928D01*
X105390696Y-88083727D01*
X105394296Y-88107995D01*
X105395500Y-88132499D01*
X105395500Y-89032501D01*
X105394296Y-89057005D01*
X105390696Y-89081273D01*
X105384735Y-89105072D01*
X105376470Y-89128171D01*
X105365980Y-89150350D01*
X105353368Y-89171393D01*
X105338753Y-89191099D01*
X105322277Y-89209277D01*
X105304099Y-89225753D01*
X105284393Y-89240368D01*
X105263350Y-89252980D01*
X105241171Y-89263470D01*
X105218072Y-89271735D01*
X105194273Y-89277696D01*
X105170005Y-89281296D01*
X105145501Y-89282500D01*
X104495499Y-89282500D01*
X104470995Y-89281296D01*
X104446727Y-89277696D01*
X104422928Y-89271735D01*
X104399829Y-89263470D01*
X104377650Y-89252980D01*
X104356607Y-89240368D01*
X104336901Y-89225753D01*
X104318723Y-89209277D01*
X104302247Y-89191099D01*
X104287632Y-89171393D01*
X104275020Y-89150350D01*
X104264530Y-89128171D01*
X104256265Y-89105072D01*
X104250304Y-89081273D01*
X104246704Y-89057005D01*
X104245500Y-89032501D01*
X104245500Y-88132499D01*
X104246704Y-88107995D01*
X104250304Y-88083727D01*
X104256265Y-88059928D01*
X104264530Y-88036829D01*
X104275020Y-88014650D01*
X104287632Y-87993607D01*
X104302247Y-87973901D01*
X104318723Y-87955723D01*
X104336901Y-87939247D01*
X104356607Y-87924632D01*
X104377650Y-87912020D01*
X104399829Y-87901530D01*
X104422928Y-87893265D01*
X104446727Y-87887304D01*
X104470995Y-87883704D01*
X104495499Y-87882500D01*
X105145501Y-87882500D01*
X105170005Y-87883704D01*
X105170005Y-87883704D01*
G37*
D12*
X104820500Y-88582500D03*
G04 #@! TD*
D11*
G04 #@! TO.C,R16*
G36*
X107229005Y-84327704D02*
X107253273Y-84331304D01*
X107277072Y-84337265D01*
X107300171Y-84345530D01*
X107322350Y-84356020D01*
X107343393Y-84368632D01*
X107363099Y-84383247D01*
X107381277Y-84399723D01*
X107397753Y-84417901D01*
X107412368Y-84437607D01*
X107424980Y-84458650D01*
X107435470Y-84480829D01*
X107443735Y-84503928D01*
X107449696Y-84527727D01*
X107453296Y-84551995D01*
X107454500Y-84576499D01*
X107454500Y-85476501D01*
X107453296Y-85501005D01*
X107449696Y-85525273D01*
X107443735Y-85549072D01*
X107435470Y-85572171D01*
X107424980Y-85594350D01*
X107412368Y-85615393D01*
X107397753Y-85635099D01*
X107381277Y-85653277D01*
X107363099Y-85669753D01*
X107343393Y-85684368D01*
X107322350Y-85696980D01*
X107300171Y-85707470D01*
X107277072Y-85715735D01*
X107253273Y-85721696D01*
X107229005Y-85725296D01*
X107204501Y-85726500D01*
X106554499Y-85726500D01*
X106529995Y-85725296D01*
X106505727Y-85721696D01*
X106481928Y-85715735D01*
X106458829Y-85707470D01*
X106436650Y-85696980D01*
X106415607Y-85684368D01*
X106395901Y-85669753D01*
X106377723Y-85653277D01*
X106361247Y-85635099D01*
X106346632Y-85615393D01*
X106334020Y-85594350D01*
X106323530Y-85572171D01*
X106315265Y-85549072D01*
X106309304Y-85525273D01*
X106305704Y-85501005D01*
X106304500Y-85476501D01*
X106304500Y-84576499D01*
X106305704Y-84551995D01*
X106309304Y-84527727D01*
X106315265Y-84503928D01*
X106323530Y-84480829D01*
X106334020Y-84458650D01*
X106346632Y-84437607D01*
X106361247Y-84417901D01*
X106377723Y-84399723D01*
X106395901Y-84383247D01*
X106415607Y-84368632D01*
X106436650Y-84356020D01*
X106458829Y-84345530D01*
X106481928Y-84337265D01*
X106505727Y-84331304D01*
X106529995Y-84327704D01*
X106554499Y-84326500D01*
X107204501Y-84326500D01*
X107229005Y-84327704D01*
X107229005Y-84327704D01*
G37*
D12*
X106879500Y-85026500D03*
D11*
G36*
X105179005Y-84327704D02*
X105203273Y-84331304D01*
X105227072Y-84337265D01*
X105250171Y-84345530D01*
X105272350Y-84356020D01*
X105293393Y-84368632D01*
X105313099Y-84383247D01*
X105331277Y-84399723D01*
X105347753Y-84417901D01*
X105362368Y-84437607D01*
X105374980Y-84458650D01*
X105385470Y-84480829D01*
X105393735Y-84503928D01*
X105399696Y-84527727D01*
X105403296Y-84551995D01*
X105404500Y-84576499D01*
X105404500Y-85476501D01*
X105403296Y-85501005D01*
X105399696Y-85525273D01*
X105393735Y-85549072D01*
X105385470Y-85572171D01*
X105374980Y-85594350D01*
X105362368Y-85615393D01*
X105347753Y-85635099D01*
X105331277Y-85653277D01*
X105313099Y-85669753D01*
X105293393Y-85684368D01*
X105272350Y-85696980D01*
X105250171Y-85707470D01*
X105227072Y-85715735D01*
X105203273Y-85721696D01*
X105179005Y-85725296D01*
X105154501Y-85726500D01*
X104504499Y-85726500D01*
X104479995Y-85725296D01*
X104455727Y-85721696D01*
X104431928Y-85715735D01*
X104408829Y-85707470D01*
X104386650Y-85696980D01*
X104365607Y-85684368D01*
X104345901Y-85669753D01*
X104327723Y-85653277D01*
X104311247Y-85635099D01*
X104296632Y-85615393D01*
X104284020Y-85594350D01*
X104273530Y-85572171D01*
X104265265Y-85549072D01*
X104259304Y-85525273D01*
X104255704Y-85501005D01*
X104254500Y-85476501D01*
X104254500Y-84576499D01*
X104255704Y-84551995D01*
X104259304Y-84527727D01*
X104265265Y-84503928D01*
X104273530Y-84480829D01*
X104284020Y-84458650D01*
X104296632Y-84437607D01*
X104311247Y-84417901D01*
X104327723Y-84399723D01*
X104345901Y-84383247D01*
X104365607Y-84368632D01*
X104386650Y-84356020D01*
X104408829Y-84345530D01*
X104431928Y-84337265D01*
X104455727Y-84331304D01*
X104479995Y-84327704D01*
X104504499Y-84326500D01*
X105154501Y-84326500D01*
X105179005Y-84327704D01*
X105179005Y-84327704D01*
G37*
D12*
X104829500Y-85026500D03*
G04 #@! TD*
D13*
G04 #@! TO.C,U1*
X80225500Y-99636500D03*
X80225500Y-98356500D03*
X80225500Y-97096500D03*
X80225500Y-95826500D03*
X80225500Y-94546500D03*
X80225500Y-93276500D03*
X80225500Y-92016500D03*
X80225500Y-90736500D03*
X86525500Y-90736500D03*
X86525500Y-92016500D03*
X86525500Y-93276500D03*
X86525500Y-94546500D03*
X86525500Y-95826500D03*
X86525500Y-97096500D03*
X86525500Y-98356500D03*
X86525500Y-99636500D03*
G04 #@! TD*
G04 #@! TO.C,U2*
X99860500Y-99636500D03*
X99860500Y-98356500D03*
X99860500Y-97096500D03*
X99860500Y-95826500D03*
X99860500Y-94546500D03*
X99860500Y-93276500D03*
X99860500Y-92016500D03*
X99860500Y-90736500D03*
X93560500Y-90736500D03*
X93560500Y-92016500D03*
X93560500Y-93276500D03*
X93560500Y-94546500D03*
X93560500Y-95826500D03*
X93560500Y-97096500D03*
X93560500Y-98356500D03*
X93560500Y-99636500D03*
G04 #@! TD*
M02*
