G04 #@! TF.GenerationSoftware,KiCad,Pcbnew,(5.0.1-3-g963ef8bb5)*
G04 #@! TF.CreationDate,2018-12-19T14:50:12+08:00*
G04 #@! TF.ProjectId,16-LED-board,31362D4C45442D626F6172642E6B6963,1.0*
G04 #@! TF.SameCoordinates,Original*
G04 #@! TF.FileFunction,Copper,L2,Bot,Signal*
G04 #@! TF.FilePolarity,Positive*
%FSLAX46Y46*%
G04 Gerber Fmt 4.6, Leading zero omitted, Abs format (unit mm)*
G04 Created by KiCad (PCBNEW (5.0.1-3-g963ef8bb5)) date 2018 December 19, Wednesday 14:50:12*
%MOMM*%
%LPD*%
G01*
G04 APERTURE LIST*
G04 #@! TA.AperFunction,ComponentPad*
%ADD10R,1.700000X1.700000*%
G04 #@! TD*
G04 #@! TA.AperFunction,ComponentPad*
%ADD11O,1.700000X1.700000*%
G04 #@! TD*
G04 #@! TA.AperFunction,ViaPad*
%ADD12C,0.400000*%
G04 #@! TD*
G04 #@! TA.AperFunction,ViaPad*
%ADD13C,0.800000*%
G04 #@! TD*
G04 #@! TA.AperFunction,Conductor*
%ADD14C,0.380000*%
G04 #@! TD*
G04 #@! TA.AperFunction,Conductor*
%ADD15C,0.250000*%
G04 #@! TD*
G04 #@! TA.AperFunction,Conductor*
%ADD16C,0.254000*%
G04 #@! TD*
G04 APERTURE END LIST*
D10*
G04 #@! TO.P,J1,1*
G04 #@! TO.N,VCC*
X94234000Y-84582000D03*
D11*
G04 #@! TO.P,J1,2*
G04 #@! TO.N,GND*
X91694000Y-84582000D03*
G04 #@! TO.P,J1,3*
G04 #@! TO.N,/LATCH*
X89154000Y-84582000D03*
G04 #@! TO.P,J1,4*
G04 #@! TO.N,/CLOCK*
X86614000Y-84582000D03*
G04 #@! TO.P,J1,5*
G04 #@! TO.N,/DATA*
X84074000Y-84582000D03*
G04 #@! TD*
D12*
G04 #@! TO.N,VCC*
X76748000Y-99695000D03*
X78740000Y-99885500D03*
G04 #@! TO.N,GND*
X88519000Y-88959081D03*
X97853500Y-90741500D03*
D13*
G04 #@! TO.N,/led_1_2*
X70040500Y-106362500D03*
X84963000Y-99822000D03*
G04 #@! TO.N,/led_1_3*
X70040500Y-103060500D03*
X84963000Y-98552000D03*
G04 #@! TO.N,/led_1_4*
X69723000Y-99822000D03*
X84963000Y-97218500D03*
G04 #@! TO.N,/led_1_5*
X69659500Y-96710500D03*
X85031500Y-95826500D03*
G04 #@! TO.N,/led_1_6*
X69786500Y-93218000D03*
X84963000Y-94615000D03*
G04 #@! TO.N,/led_1_7*
X69723000Y-89916000D03*
X84899500Y-93218000D03*
G04 #@! TO.N,/led_1_8*
X69723000Y-86741000D03*
X69723000Y-86741000D03*
X84836000Y-91948000D03*
G04 #@! TO.N,/led_2_1*
X109728000Y-110236000D03*
X93560500Y-98356500D03*
G04 #@! TO.N,/led_2_2*
X111760000Y-106489500D03*
X111760000Y-106489500D03*
X99758500Y-99758500D03*
G04 #@! TO.N,/led_2_3*
X111950500Y-103124000D03*
X100261847Y-98429653D03*
G04 #@! TO.N,/led_2_4*
X112077500Y-99758500D03*
X112077500Y-99758500D03*
X99949000Y-97091500D03*
G04 #@! TO.N,/led_2_5*
X111950500Y-96647000D03*
X99860500Y-95826500D03*
G04 #@! TO.N,/led_2_6*
X112204500Y-93345000D03*
X99949000Y-94551500D03*
G04 #@! TO.N,/led_2_7*
X111950500Y-90043000D03*
X99860500Y-93276500D03*
G04 #@! TO.N,/led_2_8*
X111823500Y-86614000D03*
X99860500Y-92016500D03*
G04 #@! TO.N,/DATA*
X81470500Y-84772500D03*
X77406500Y-95101500D03*
G04 #@! TO.N,/DATA_S*
X84391500Y-88455500D03*
X92011500Y-97091500D03*
G04 #@! TD*
D14*
G04 #@! TO.N,VCC*
X78549500Y-99695000D02*
X78740000Y-99885500D01*
X76748000Y-99695000D02*
X78549500Y-99695000D01*
G04 #@! TO.N,GND*
X91694000Y-85784081D02*
X88519000Y-88959081D01*
X91694000Y-84582000D02*
X91694000Y-85784081D01*
X91694000Y-84582000D02*
X97853500Y-90741500D01*
D15*
G04 #@! TO.N,/led_1_2*
X70040500Y-106362500D02*
X78422500Y-106362500D01*
X78422500Y-106362500D02*
X84963000Y-99822000D01*
G04 #@! TO.N,/led_1_3*
X70040500Y-103060500D02*
X70606185Y-103060500D01*
X70606185Y-103060500D02*
X80454500Y-103060500D01*
X80454500Y-103060500D02*
X84963000Y-98552000D01*
G04 #@! TO.N,/led_1_4*
X70288685Y-99822000D02*
X72892185Y-97218500D01*
X69723000Y-99822000D02*
X70288685Y-99822000D01*
X72892185Y-97218500D02*
X84963000Y-97218500D01*
G04 #@! TO.N,/led_1_5*
X70543500Y-95826500D02*
X69659500Y-96710500D01*
X85031500Y-95826500D02*
X70543500Y-95826500D01*
G04 #@! TO.N,/led_1_6*
X69786500Y-93218000D02*
X77216000Y-93218000D01*
X77216000Y-93218000D02*
X79121000Y-95123000D01*
X84455000Y-95123000D02*
X84963000Y-94615000D01*
X79121000Y-95123000D02*
X84455000Y-95123000D01*
G04 #@! TO.N,/led_1_7*
X81597500Y-89916000D02*
X84899500Y-93218000D01*
X69723000Y-89916000D02*
X81597500Y-89916000D01*
G04 #@! TO.N,/led_1_8*
X69723000Y-86741000D02*
X79629000Y-86741000D01*
X79629000Y-86741000D02*
X84836000Y-91948000D01*
G04 #@! TO.N,/led_2_1*
X109328001Y-109836001D02*
X105454501Y-109836001D01*
X109728000Y-110236000D02*
X109328001Y-109836001D01*
X93975000Y-98356500D02*
X93560500Y-98356500D01*
X105454501Y-109836001D02*
X93975000Y-98356500D01*
G04 #@! TO.N,/led_2_2*
X111760000Y-106489500D02*
X106489500Y-106489500D01*
X106489500Y-106489500D02*
X99758500Y-99758500D01*
G04 #@! TO.N,/led_2_3*
X111950500Y-103124000D02*
X104965500Y-103124000D01*
X100266500Y-98425000D02*
X100261847Y-98429653D01*
X104965500Y-103124000D02*
X100261847Y-98429653D01*
G04 #@! TO.N,/led_2_4*
X112077500Y-99758500D02*
X102616000Y-99758500D01*
X102616000Y-99758500D02*
X99949000Y-97091500D01*
G04 #@! TO.N,/led_2_5*
X100681000Y-96647000D02*
X99860500Y-95826500D01*
X111950500Y-96647000D02*
X100681000Y-96647000D01*
G04 #@! TO.N,/led_2_6*
X111638815Y-93345000D02*
X110432315Y-94551500D01*
X112204500Y-93345000D02*
X111638815Y-93345000D01*
X110432315Y-94551500D02*
X99949000Y-94551500D01*
G04 #@! TO.N,/led_2_7*
X103094000Y-90043000D02*
X99860500Y-93276500D01*
X111950500Y-90043000D02*
X103094000Y-90043000D01*
G04 #@! TO.N,/led_2_8*
X105263000Y-86614000D02*
X99860500Y-92016500D01*
X111823500Y-86614000D02*
X105263000Y-86614000D01*
G04 #@! TO.N,/DATA*
X68997999Y-86392999D02*
X70618498Y-84772500D01*
X68997999Y-93502501D02*
X68997999Y-86392999D01*
X69919998Y-94424500D02*
X68997999Y-93502501D01*
X70618498Y-84772500D02*
X81470500Y-84772500D01*
X76729500Y-94424500D02*
X77406500Y-95101500D01*
X69919998Y-94424500D02*
X76729500Y-94424500D01*
G04 #@! TO.N,/DATA_S*
X84791499Y-88855499D02*
X84791499Y-89871499D01*
X84391500Y-88455500D02*
X84791499Y-88855499D01*
X84791499Y-89871499D02*
X92011500Y-97091500D01*
G04 #@! TD*
D16*
G04 #@! TO.N,GND*
G36*
X83003375Y-83511375D02*
X82675161Y-84002582D01*
X82559908Y-84582000D01*
X82675161Y-85161418D01*
X83003375Y-85652625D01*
X83494582Y-85980839D01*
X83927744Y-86067000D01*
X84220256Y-86067000D01*
X84653418Y-85980839D01*
X85144625Y-85652625D01*
X85344000Y-85354239D01*
X85543375Y-85652625D01*
X86034582Y-85980839D01*
X86467744Y-86067000D01*
X86760256Y-86067000D01*
X87193418Y-85980839D01*
X87684625Y-85652625D01*
X87884000Y-85354239D01*
X88083375Y-85652625D01*
X88574582Y-85980839D01*
X89007744Y-86067000D01*
X89300256Y-86067000D01*
X89733418Y-85980839D01*
X90224625Y-85652625D01*
X90437843Y-85333522D01*
X90498817Y-85463358D01*
X90927076Y-85853645D01*
X91337110Y-86023476D01*
X91567000Y-85902155D01*
X91567000Y-84709000D01*
X91547000Y-84709000D01*
X91547000Y-84455000D01*
X91567000Y-84455000D01*
X91567000Y-84435000D01*
X91821000Y-84435000D01*
X91821000Y-84455000D01*
X91841000Y-84455000D01*
X91841000Y-84709000D01*
X91821000Y-84709000D01*
X91821000Y-85902155D01*
X92050890Y-86023476D01*
X92460924Y-85853645D01*
X92765261Y-85576292D01*
X92785843Y-85679765D01*
X92926191Y-85889809D01*
X93136235Y-86030157D01*
X93384000Y-86079440D01*
X95084000Y-86079440D01*
X95331765Y-86030157D01*
X95541809Y-85889809D01*
X95682157Y-85679765D01*
X95731440Y-85432000D01*
X95731440Y-83732000D01*
X95682157Y-83484235D01*
X95541809Y-83274191D01*
X95520571Y-83260000D01*
X114860000Y-83260000D01*
X114860001Y-110420070D01*
X114860000Y-110420075D01*
X114860000Y-111050000D01*
X110377711Y-111050000D01*
X110605431Y-110822280D01*
X110763000Y-110441874D01*
X110763000Y-110030126D01*
X110605431Y-109649720D01*
X110314280Y-109358569D01*
X109933874Y-109201000D01*
X109745618Y-109201000D01*
X109624538Y-109120097D01*
X109402853Y-109076001D01*
X109402848Y-109076001D01*
X109328001Y-109061113D01*
X109253154Y-109076001D01*
X105769303Y-109076001D01*
X96245928Y-99552626D01*
X98723500Y-99552626D01*
X98723500Y-99964374D01*
X98881069Y-100344780D01*
X99172220Y-100635931D01*
X99552626Y-100793500D01*
X99718699Y-100793500D01*
X105899173Y-106973976D01*
X105941571Y-107037429D01*
X106005024Y-107079827D01*
X106005026Y-107079829D01*
X106091170Y-107137388D01*
X106192963Y-107205404D01*
X106414648Y-107249500D01*
X106414652Y-107249500D01*
X106489499Y-107264388D01*
X106564346Y-107249500D01*
X111056289Y-107249500D01*
X111173720Y-107366931D01*
X111554126Y-107524500D01*
X111965874Y-107524500D01*
X112346280Y-107366931D01*
X112637431Y-107075780D01*
X112795000Y-106695374D01*
X112795000Y-106283626D01*
X112637431Y-105903220D01*
X112346280Y-105612069D01*
X111965874Y-105454500D01*
X111554126Y-105454500D01*
X111173720Y-105612069D01*
X111056289Y-105729500D01*
X106804303Y-105729500D01*
X104972453Y-103897651D01*
X105040729Y-103884000D01*
X111246789Y-103884000D01*
X111364220Y-104001431D01*
X111744626Y-104159000D01*
X112156374Y-104159000D01*
X112536780Y-104001431D01*
X112827931Y-103710280D01*
X112985500Y-103329874D01*
X112985500Y-102918126D01*
X112827931Y-102537720D01*
X112536780Y-102246569D01*
X112156374Y-102089000D01*
X111744626Y-102089000D01*
X111364220Y-102246569D01*
X111246789Y-102364000D01*
X105279861Y-102364000D01*
X103430702Y-100518500D01*
X111373789Y-100518500D01*
X111491220Y-100635931D01*
X111871626Y-100793500D01*
X112283374Y-100793500D01*
X112663780Y-100635931D01*
X112954931Y-100344780D01*
X113112500Y-99964374D01*
X113112500Y-99552626D01*
X112954931Y-99172220D01*
X112663780Y-98881069D01*
X112283374Y-98723500D01*
X111871626Y-98723500D01*
X111491220Y-98881069D01*
X111373789Y-98998500D01*
X102930802Y-98998500D01*
X101339301Y-97407000D01*
X111246789Y-97407000D01*
X111364220Y-97524431D01*
X111744626Y-97682000D01*
X112156374Y-97682000D01*
X112536780Y-97524431D01*
X112827931Y-97233280D01*
X112985500Y-96852874D01*
X112985500Y-96441126D01*
X112827931Y-96060720D01*
X112536780Y-95769569D01*
X112156374Y-95612000D01*
X111744626Y-95612000D01*
X111364220Y-95769569D01*
X111246789Y-95887000D01*
X100995802Y-95887000D01*
X100895500Y-95786698D01*
X100895500Y-95620626D01*
X100767456Y-95311500D01*
X110357468Y-95311500D01*
X110432315Y-95326388D01*
X110507162Y-95311500D01*
X110507167Y-95311500D01*
X110728852Y-95267404D01*
X110980244Y-95099429D01*
X111022646Y-95035970D01*
X111772345Y-94286272D01*
X111998626Y-94380000D01*
X112410374Y-94380000D01*
X112790780Y-94222431D01*
X113081931Y-93931280D01*
X113239500Y-93550874D01*
X113239500Y-93139126D01*
X113081931Y-92758720D01*
X112790780Y-92467569D01*
X112410374Y-92310000D01*
X111998626Y-92310000D01*
X111618220Y-92467569D01*
X111485103Y-92600686D01*
X111390420Y-92619520D01*
X111342277Y-92629096D01*
X111194837Y-92727613D01*
X111090886Y-92797071D01*
X111048486Y-92860527D01*
X110117514Y-93791500D01*
X100767456Y-93791500D01*
X100895500Y-93482374D01*
X100895500Y-93316301D01*
X103408802Y-90803000D01*
X111246789Y-90803000D01*
X111364220Y-90920431D01*
X111744626Y-91078000D01*
X112156374Y-91078000D01*
X112536780Y-90920431D01*
X112827931Y-90629280D01*
X112985500Y-90248874D01*
X112985500Y-89837126D01*
X112827931Y-89456720D01*
X112536780Y-89165569D01*
X112156374Y-89008000D01*
X111744626Y-89008000D01*
X111364220Y-89165569D01*
X111246789Y-89283000D01*
X103668802Y-89283000D01*
X105577802Y-87374000D01*
X111119789Y-87374000D01*
X111237220Y-87491431D01*
X111617626Y-87649000D01*
X112029374Y-87649000D01*
X112409780Y-87491431D01*
X112700931Y-87200280D01*
X112858500Y-86819874D01*
X112858500Y-86408126D01*
X112700931Y-86027720D01*
X112409780Y-85736569D01*
X112029374Y-85579000D01*
X111617626Y-85579000D01*
X111237220Y-85736569D01*
X111119789Y-85854000D01*
X105337848Y-85854000D01*
X105263000Y-85839112D01*
X105188152Y-85854000D01*
X105188148Y-85854000D01*
X105014605Y-85888520D01*
X104966462Y-85898096D01*
X104779418Y-86023076D01*
X104715071Y-86066071D01*
X104672671Y-86129527D01*
X99820699Y-90981500D01*
X99654626Y-90981500D01*
X99274220Y-91139069D01*
X98983069Y-91430220D01*
X98825500Y-91810626D01*
X98825500Y-92222374D01*
X98983069Y-92602780D01*
X99026789Y-92646500D01*
X98983069Y-92690220D01*
X98825500Y-93070626D01*
X98825500Y-93482374D01*
X98983069Y-93862780D01*
X99078539Y-93958250D01*
X99071569Y-93965220D01*
X98914000Y-94345626D01*
X98914000Y-94757374D01*
X99071569Y-95137780D01*
X99078539Y-95144750D01*
X98983069Y-95240220D01*
X98825500Y-95620626D01*
X98825500Y-96032374D01*
X98983069Y-96412780D01*
X99073539Y-96503250D01*
X99071569Y-96505220D01*
X98914000Y-96885626D01*
X98914000Y-97297374D01*
X99071569Y-97677780D01*
X99341286Y-97947497D01*
X99226847Y-98223779D01*
X99226847Y-98635527D01*
X99305659Y-98825797D01*
X99172220Y-98881069D01*
X98881069Y-99172220D01*
X98723500Y-99552626D01*
X96245928Y-99552626D01*
X94565331Y-97872030D01*
X94522929Y-97808571D01*
X94382350Y-97714639D01*
X94146780Y-97479069D01*
X93766374Y-97321500D01*
X93354626Y-97321500D01*
X92974220Y-97479069D01*
X92969132Y-97484157D01*
X93046500Y-97297374D01*
X93046500Y-96885626D01*
X92888931Y-96505220D01*
X92597780Y-96214069D01*
X92217374Y-96056500D01*
X92051303Y-96056500D01*
X85551499Y-89556698D01*
X85551499Y-88930345D01*
X85566387Y-88855498D01*
X85551499Y-88780651D01*
X85551499Y-88780647D01*
X85507403Y-88558962D01*
X85426500Y-88437882D01*
X85426500Y-88249626D01*
X85268931Y-87869220D01*
X84977780Y-87578069D01*
X84597374Y-87420500D01*
X84185626Y-87420500D01*
X83805220Y-87578069D01*
X83514069Y-87869220D01*
X83356500Y-88249626D01*
X83356500Y-88661374D01*
X83514069Y-89041780D01*
X83805220Y-89332931D01*
X84031500Y-89426659D01*
X84031500Y-89796648D01*
X84016611Y-89871499D01*
X84031500Y-89946351D01*
X84061879Y-90099078D01*
X80219331Y-86256530D01*
X80176929Y-86193071D01*
X79925537Y-86025096D01*
X79703852Y-85981000D01*
X79703847Y-85981000D01*
X79629000Y-85966112D01*
X79554153Y-85981000D01*
X70484800Y-85981000D01*
X70933300Y-85532500D01*
X80766789Y-85532500D01*
X80884220Y-85649931D01*
X81264626Y-85807500D01*
X81676374Y-85807500D01*
X82056780Y-85649931D01*
X82347931Y-85358780D01*
X82505500Y-84978374D01*
X82505500Y-84566626D01*
X82347931Y-84186220D01*
X82056780Y-83895069D01*
X81676374Y-83737500D01*
X81264626Y-83737500D01*
X80884220Y-83895069D01*
X80766789Y-84012500D01*
X70693346Y-84012500D01*
X70618498Y-83997612D01*
X70543650Y-84012500D01*
X70543646Y-84012500D01*
X70370103Y-84047020D01*
X70321960Y-84056596D01*
X70134916Y-84181576D01*
X70070569Y-84224571D01*
X70028169Y-84288027D01*
X68513527Y-85802670D01*
X68450071Y-85845070D01*
X68407671Y-85908526D01*
X68407670Y-85908527D01*
X68282096Y-86096462D01*
X68223111Y-86392999D01*
X68238000Y-86467851D01*
X68237999Y-93427654D01*
X68223111Y-93502501D01*
X68237999Y-93577348D01*
X68237999Y-93577352D01*
X68282095Y-93799037D01*
X68450070Y-94050430D01*
X68513528Y-94092832D01*
X69329671Y-94908975D01*
X69372069Y-94972429D01*
X69435522Y-95014827D01*
X69435524Y-95014829D01*
X69512856Y-95066500D01*
X69623461Y-95140404D01*
X69845146Y-95184500D01*
X69845150Y-95184500D01*
X69919997Y-95199388D01*
X69994844Y-95184500D01*
X70136358Y-95184500D01*
X70111245Y-95201280D01*
X69995571Y-95278571D01*
X69953171Y-95342027D01*
X69619698Y-95675500D01*
X69453626Y-95675500D01*
X69073220Y-95833069D01*
X68782069Y-96124220D01*
X68624500Y-96504626D01*
X68624500Y-96916374D01*
X68782069Y-97296780D01*
X69073220Y-97587931D01*
X69453626Y-97745500D01*
X69865374Y-97745500D01*
X70245780Y-97587931D01*
X70536931Y-97296780D01*
X70694500Y-96916374D01*
X70694500Y-96750302D01*
X70858302Y-96586500D01*
X72470077Y-96586500D01*
X72344256Y-96670571D01*
X72301856Y-96734027D01*
X70155155Y-98880729D01*
X69928874Y-98787000D01*
X69517126Y-98787000D01*
X69136720Y-98944569D01*
X68845569Y-99235720D01*
X68688000Y-99616126D01*
X68688000Y-100027874D01*
X68845569Y-100408280D01*
X69136720Y-100699431D01*
X69517126Y-100857000D01*
X69928874Y-100857000D01*
X70309280Y-100699431D01*
X70442397Y-100566314D01*
X70585222Y-100537904D01*
X70836614Y-100369929D01*
X70879016Y-100306470D01*
X71490486Y-99695000D01*
X75906838Y-99695000D01*
X75913000Y-99725978D01*
X75913000Y-99861092D01*
X75964706Y-99985923D01*
X75970868Y-100016899D01*
X75988414Y-100043159D01*
X76040121Y-100167990D01*
X76135664Y-100263533D01*
X76153209Y-100289791D01*
X76179467Y-100307336D01*
X76275010Y-100402879D01*
X76399841Y-100454586D01*
X76426101Y-100472132D01*
X76457077Y-100478294D01*
X76581908Y-100530000D01*
X76914092Y-100530000D01*
X76938234Y-100520000D01*
X78193631Y-100520000D01*
X78267010Y-100593379D01*
X78391843Y-100645087D01*
X78418102Y-100662632D01*
X78449076Y-100668793D01*
X78573908Y-100720500D01*
X78709026Y-100720500D01*
X78740000Y-100726661D01*
X78770974Y-100720500D01*
X78906092Y-100720500D01*
X79030924Y-100668793D01*
X79061898Y-100662632D01*
X79088157Y-100645087D01*
X79212990Y-100593379D01*
X79308533Y-100497836D01*
X79334791Y-100480291D01*
X79352336Y-100454033D01*
X79447879Y-100358490D01*
X79499587Y-100233657D01*
X79517132Y-100207398D01*
X79523293Y-100176424D01*
X79575000Y-100051592D01*
X79575000Y-99916474D01*
X79581161Y-99885500D01*
X79575000Y-99854526D01*
X79575000Y-99719408D01*
X79523293Y-99594576D01*
X79517132Y-99563602D01*
X79499587Y-99537343D01*
X79447879Y-99412510D01*
X79212990Y-99177621D01*
X79189521Y-99167900D01*
X79144291Y-99100209D01*
X78871399Y-98917868D01*
X78630751Y-98870000D01*
X78630747Y-98870000D01*
X78549500Y-98853839D01*
X78468253Y-98870000D01*
X76938234Y-98870000D01*
X76914092Y-98860000D01*
X76581908Y-98860000D01*
X76457077Y-98911706D01*
X76426101Y-98917868D01*
X76399841Y-98935414D01*
X76275010Y-98987121D01*
X76179467Y-99082664D01*
X76153209Y-99100209D01*
X76135664Y-99126467D01*
X76040121Y-99222010D01*
X75988414Y-99346841D01*
X75970868Y-99373101D01*
X75964706Y-99404077D01*
X75913000Y-99528908D01*
X75913000Y-99664022D01*
X75906838Y-99695000D01*
X71490486Y-99695000D01*
X73206987Y-97978500D01*
X84080275Y-97978500D01*
X83928000Y-98346126D01*
X83928000Y-98512198D01*
X80139699Y-102300500D01*
X70744211Y-102300500D01*
X70626780Y-102183069D01*
X70246374Y-102025500D01*
X69834626Y-102025500D01*
X69454220Y-102183069D01*
X69163069Y-102474220D01*
X69005500Y-102854626D01*
X69005500Y-103266374D01*
X69163069Y-103646780D01*
X69454220Y-103937931D01*
X69834626Y-104095500D01*
X70246374Y-104095500D01*
X70626780Y-103937931D01*
X70744211Y-103820500D01*
X79889699Y-103820500D01*
X78107699Y-105602500D01*
X70744211Y-105602500D01*
X70626780Y-105485069D01*
X70246374Y-105327500D01*
X69834626Y-105327500D01*
X69454220Y-105485069D01*
X69163069Y-105776220D01*
X69005500Y-106156626D01*
X69005500Y-106568374D01*
X69163069Y-106948780D01*
X69454220Y-107239931D01*
X69834626Y-107397500D01*
X70246374Y-107397500D01*
X70626780Y-107239931D01*
X70744211Y-107122500D01*
X78347653Y-107122500D01*
X78422500Y-107137388D01*
X78497347Y-107122500D01*
X78497352Y-107122500D01*
X78719037Y-107078404D01*
X78970429Y-106910429D01*
X79012831Y-106846970D01*
X85002802Y-100857000D01*
X85168874Y-100857000D01*
X85549280Y-100699431D01*
X85840431Y-100408280D01*
X85998000Y-100027874D01*
X85998000Y-99616126D01*
X85840431Y-99235720D01*
X85791711Y-99187000D01*
X85840431Y-99138280D01*
X85998000Y-98757874D01*
X85998000Y-98346126D01*
X85840431Y-97965720D01*
X85759961Y-97885250D01*
X85840431Y-97804780D01*
X85998000Y-97424374D01*
X85998000Y-97012626D01*
X85840431Y-96632220D01*
X85764961Y-96556750D01*
X85908931Y-96412780D01*
X86066500Y-96032374D01*
X86066500Y-95620626D01*
X85908931Y-95240220D01*
X85849089Y-95180378D01*
X85998000Y-94820874D01*
X85998000Y-94409126D01*
X85840431Y-94028720D01*
X85696461Y-93884750D01*
X85776931Y-93804280D01*
X85934500Y-93423874D01*
X85934500Y-93012126D01*
X85776931Y-92631720D01*
X85696461Y-92551250D01*
X85713431Y-92534280D01*
X85871000Y-92153874D01*
X85871000Y-92025801D01*
X90976500Y-97131303D01*
X90976500Y-97297374D01*
X91134069Y-97677780D01*
X91425220Y-97968931D01*
X91805626Y-98126500D01*
X92217374Y-98126500D01*
X92597780Y-97968931D01*
X92602868Y-97963843D01*
X92525500Y-98150626D01*
X92525500Y-98562374D01*
X92683069Y-98942780D01*
X92974220Y-99233931D01*
X93354626Y-99391500D01*
X93766374Y-99391500D01*
X93885751Y-99342052D01*
X104864171Y-110320473D01*
X104906572Y-110383930D01*
X105157964Y-110551905D01*
X105379649Y-110596001D01*
X105379653Y-110596001D01*
X105454500Y-110610889D01*
X105529347Y-110596001D01*
X108756841Y-110596001D01*
X108850569Y-110822280D01*
X109078289Y-111050000D01*
X64210000Y-111050000D01*
X64210000Y-83260000D01*
X83379584Y-83260000D01*
X83003375Y-83511375D01*
X83003375Y-83511375D01*
G37*
X83003375Y-83511375D02*
X82675161Y-84002582D01*
X82559908Y-84582000D01*
X82675161Y-85161418D01*
X83003375Y-85652625D01*
X83494582Y-85980839D01*
X83927744Y-86067000D01*
X84220256Y-86067000D01*
X84653418Y-85980839D01*
X85144625Y-85652625D01*
X85344000Y-85354239D01*
X85543375Y-85652625D01*
X86034582Y-85980839D01*
X86467744Y-86067000D01*
X86760256Y-86067000D01*
X87193418Y-85980839D01*
X87684625Y-85652625D01*
X87884000Y-85354239D01*
X88083375Y-85652625D01*
X88574582Y-85980839D01*
X89007744Y-86067000D01*
X89300256Y-86067000D01*
X89733418Y-85980839D01*
X90224625Y-85652625D01*
X90437843Y-85333522D01*
X90498817Y-85463358D01*
X90927076Y-85853645D01*
X91337110Y-86023476D01*
X91567000Y-85902155D01*
X91567000Y-84709000D01*
X91547000Y-84709000D01*
X91547000Y-84455000D01*
X91567000Y-84455000D01*
X91567000Y-84435000D01*
X91821000Y-84435000D01*
X91821000Y-84455000D01*
X91841000Y-84455000D01*
X91841000Y-84709000D01*
X91821000Y-84709000D01*
X91821000Y-85902155D01*
X92050890Y-86023476D01*
X92460924Y-85853645D01*
X92765261Y-85576292D01*
X92785843Y-85679765D01*
X92926191Y-85889809D01*
X93136235Y-86030157D01*
X93384000Y-86079440D01*
X95084000Y-86079440D01*
X95331765Y-86030157D01*
X95541809Y-85889809D01*
X95682157Y-85679765D01*
X95731440Y-85432000D01*
X95731440Y-83732000D01*
X95682157Y-83484235D01*
X95541809Y-83274191D01*
X95520571Y-83260000D01*
X114860000Y-83260000D01*
X114860001Y-110420070D01*
X114860000Y-110420075D01*
X114860000Y-111050000D01*
X110377711Y-111050000D01*
X110605431Y-110822280D01*
X110763000Y-110441874D01*
X110763000Y-110030126D01*
X110605431Y-109649720D01*
X110314280Y-109358569D01*
X109933874Y-109201000D01*
X109745618Y-109201000D01*
X109624538Y-109120097D01*
X109402853Y-109076001D01*
X109402848Y-109076001D01*
X109328001Y-109061113D01*
X109253154Y-109076001D01*
X105769303Y-109076001D01*
X96245928Y-99552626D01*
X98723500Y-99552626D01*
X98723500Y-99964374D01*
X98881069Y-100344780D01*
X99172220Y-100635931D01*
X99552626Y-100793500D01*
X99718699Y-100793500D01*
X105899173Y-106973976D01*
X105941571Y-107037429D01*
X106005024Y-107079827D01*
X106005026Y-107079829D01*
X106091170Y-107137388D01*
X106192963Y-107205404D01*
X106414648Y-107249500D01*
X106414652Y-107249500D01*
X106489499Y-107264388D01*
X106564346Y-107249500D01*
X111056289Y-107249500D01*
X111173720Y-107366931D01*
X111554126Y-107524500D01*
X111965874Y-107524500D01*
X112346280Y-107366931D01*
X112637431Y-107075780D01*
X112795000Y-106695374D01*
X112795000Y-106283626D01*
X112637431Y-105903220D01*
X112346280Y-105612069D01*
X111965874Y-105454500D01*
X111554126Y-105454500D01*
X111173720Y-105612069D01*
X111056289Y-105729500D01*
X106804303Y-105729500D01*
X104972453Y-103897651D01*
X105040729Y-103884000D01*
X111246789Y-103884000D01*
X111364220Y-104001431D01*
X111744626Y-104159000D01*
X112156374Y-104159000D01*
X112536780Y-104001431D01*
X112827931Y-103710280D01*
X112985500Y-103329874D01*
X112985500Y-102918126D01*
X112827931Y-102537720D01*
X112536780Y-102246569D01*
X112156374Y-102089000D01*
X111744626Y-102089000D01*
X111364220Y-102246569D01*
X111246789Y-102364000D01*
X105279861Y-102364000D01*
X103430702Y-100518500D01*
X111373789Y-100518500D01*
X111491220Y-100635931D01*
X111871626Y-100793500D01*
X112283374Y-100793500D01*
X112663780Y-100635931D01*
X112954931Y-100344780D01*
X113112500Y-99964374D01*
X113112500Y-99552626D01*
X112954931Y-99172220D01*
X112663780Y-98881069D01*
X112283374Y-98723500D01*
X111871626Y-98723500D01*
X111491220Y-98881069D01*
X111373789Y-98998500D01*
X102930802Y-98998500D01*
X101339301Y-97407000D01*
X111246789Y-97407000D01*
X111364220Y-97524431D01*
X111744626Y-97682000D01*
X112156374Y-97682000D01*
X112536780Y-97524431D01*
X112827931Y-97233280D01*
X112985500Y-96852874D01*
X112985500Y-96441126D01*
X112827931Y-96060720D01*
X112536780Y-95769569D01*
X112156374Y-95612000D01*
X111744626Y-95612000D01*
X111364220Y-95769569D01*
X111246789Y-95887000D01*
X100995802Y-95887000D01*
X100895500Y-95786698D01*
X100895500Y-95620626D01*
X100767456Y-95311500D01*
X110357468Y-95311500D01*
X110432315Y-95326388D01*
X110507162Y-95311500D01*
X110507167Y-95311500D01*
X110728852Y-95267404D01*
X110980244Y-95099429D01*
X111022646Y-95035970D01*
X111772345Y-94286272D01*
X111998626Y-94380000D01*
X112410374Y-94380000D01*
X112790780Y-94222431D01*
X113081931Y-93931280D01*
X113239500Y-93550874D01*
X113239500Y-93139126D01*
X113081931Y-92758720D01*
X112790780Y-92467569D01*
X112410374Y-92310000D01*
X111998626Y-92310000D01*
X111618220Y-92467569D01*
X111485103Y-92600686D01*
X111390420Y-92619520D01*
X111342277Y-92629096D01*
X111194837Y-92727613D01*
X111090886Y-92797071D01*
X111048486Y-92860527D01*
X110117514Y-93791500D01*
X100767456Y-93791500D01*
X100895500Y-93482374D01*
X100895500Y-93316301D01*
X103408802Y-90803000D01*
X111246789Y-90803000D01*
X111364220Y-90920431D01*
X111744626Y-91078000D01*
X112156374Y-91078000D01*
X112536780Y-90920431D01*
X112827931Y-90629280D01*
X112985500Y-90248874D01*
X112985500Y-89837126D01*
X112827931Y-89456720D01*
X112536780Y-89165569D01*
X112156374Y-89008000D01*
X111744626Y-89008000D01*
X111364220Y-89165569D01*
X111246789Y-89283000D01*
X103668802Y-89283000D01*
X105577802Y-87374000D01*
X111119789Y-87374000D01*
X111237220Y-87491431D01*
X111617626Y-87649000D01*
X112029374Y-87649000D01*
X112409780Y-87491431D01*
X112700931Y-87200280D01*
X112858500Y-86819874D01*
X112858500Y-86408126D01*
X112700931Y-86027720D01*
X112409780Y-85736569D01*
X112029374Y-85579000D01*
X111617626Y-85579000D01*
X111237220Y-85736569D01*
X111119789Y-85854000D01*
X105337848Y-85854000D01*
X105263000Y-85839112D01*
X105188152Y-85854000D01*
X105188148Y-85854000D01*
X105014605Y-85888520D01*
X104966462Y-85898096D01*
X104779418Y-86023076D01*
X104715071Y-86066071D01*
X104672671Y-86129527D01*
X99820699Y-90981500D01*
X99654626Y-90981500D01*
X99274220Y-91139069D01*
X98983069Y-91430220D01*
X98825500Y-91810626D01*
X98825500Y-92222374D01*
X98983069Y-92602780D01*
X99026789Y-92646500D01*
X98983069Y-92690220D01*
X98825500Y-93070626D01*
X98825500Y-93482374D01*
X98983069Y-93862780D01*
X99078539Y-93958250D01*
X99071569Y-93965220D01*
X98914000Y-94345626D01*
X98914000Y-94757374D01*
X99071569Y-95137780D01*
X99078539Y-95144750D01*
X98983069Y-95240220D01*
X98825500Y-95620626D01*
X98825500Y-96032374D01*
X98983069Y-96412780D01*
X99073539Y-96503250D01*
X99071569Y-96505220D01*
X98914000Y-96885626D01*
X98914000Y-97297374D01*
X99071569Y-97677780D01*
X99341286Y-97947497D01*
X99226847Y-98223779D01*
X99226847Y-98635527D01*
X99305659Y-98825797D01*
X99172220Y-98881069D01*
X98881069Y-99172220D01*
X98723500Y-99552626D01*
X96245928Y-99552626D01*
X94565331Y-97872030D01*
X94522929Y-97808571D01*
X94382350Y-97714639D01*
X94146780Y-97479069D01*
X93766374Y-97321500D01*
X93354626Y-97321500D01*
X92974220Y-97479069D01*
X92969132Y-97484157D01*
X93046500Y-97297374D01*
X93046500Y-96885626D01*
X92888931Y-96505220D01*
X92597780Y-96214069D01*
X92217374Y-96056500D01*
X92051303Y-96056500D01*
X85551499Y-89556698D01*
X85551499Y-88930345D01*
X85566387Y-88855498D01*
X85551499Y-88780651D01*
X85551499Y-88780647D01*
X85507403Y-88558962D01*
X85426500Y-88437882D01*
X85426500Y-88249626D01*
X85268931Y-87869220D01*
X84977780Y-87578069D01*
X84597374Y-87420500D01*
X84185626Y-87420500D01*
X83805220Y-87578069D01*
X83514069Y-87869220D01*
X83356500Y-88249626D01*
X83356500Y-88661374D01*
X83514069Y-89041780D01*
X83805220Y-89332931D01*
X84031500Y-89426659D01*
X84031500Y-89796648D01*
X84016611Y-89871499D01*
X84031500Y-89946351D01*
X84061879Y-90099078D01*
X80219331Y-86256530D01*
X80176929Y-86193071D01*
X79925537Y-86025096D01*
X79703852Y-85981000D01*
X79703847Y-85981000D01*
X79629000Y-85966112D01*
X79554153Y-85981000D01*
X70484800Y-85981000D01*
X70933300Y-85532500D01*
X80766789Y-85532500D01*
X80884220Y-85649931D01*
X81264626Y-85807500D01*
X81676374Y-85807500D01*
X82056780Y-85649931D01*
X82347931Y-85358780D01*
X82505500Y-84978374D01*
X82505500Y-84566626D01*
X82347931Y-84186220D01*
X82056780Y-83895069D01*
X81676374Y-83737500D01*
X81264626Y-83737500D01*
X80884220Y-83895069D01*
X80766789Y-84012500D01*
X70693346Y-84012500D01*
X70618498Y-83997612D01*
X70543650Y-84012500D01*
X70543646Y-84012500D01*
X70370103Y-84047020D01*
X70321960Y-84056596D01*
X70134916Y-84181576D01*
X70070569Y-84224571D01*
X70028169Y-84288027D01*
X68513527Y-85802670D01*
X68450071Y-85845070D01*
X68407671Y-85908526D01*
X68407670Y-85908527D01*
X68282096Y-86096462D01*
X68223111Y-86392999D01*
X68238000Y-86467851D01*
X68237999Y-93427654D01*
X68223111Y-93502501D01*
X68237999Y-93577348D01*
X68237999Y-93577352D01*
X68282095Y-93799037D01*
X68450070Y-94050430D01*
X68513528Y-94092832D01*
X69329671Y-94908975D01*
X69372069Y-94972429D01*
X69435522Y-95014827D01*
X69435524Y-95014829D01*
X69512856Y-95066500D01*
X69623461Y-95140404D01*
X69845146Y-95184500D01*
X69845150Y-95184500D01*
X69919997Y-95199388D01*
X69994844Y-95184500D01*
X70136358Y-95184500D01*
X70111245Y-95201280D01*
X69995571Y-95278571D01*
X69953171Y-95342027D01*
X69619698Y-95675500D01*
X69453626Y-95675500D01*
X69073220Y-95833069D01*
X68782069Y-96124220D01*
X68624500Y-96504626D01*
X68624500Y-96916374D01*
X68782069Y-97296780D01*
X69073220Y-97587931D01*
X69453626Y-97745500D01*
X69865374Y-97745500D01*
X70245780Y-97587931D01*
X70536931Y-97296780D01*
X70694500Y-96916374D01*
X70694500Y-96750302D01*
X70858302Y-96586500D01*
X72470077Y-96586500D01*
X72344256Y-96670571D01*
X72301856Y-96734027D01*
X70155155Y-98880729D01*
X69928874Y-98787000D01*
X69517126Y-98787000D01*
X69136720Y-98944569D01*
X68845569Y-99235720D01*
X68688000Y-99616126D01*
X68688000Y-100027874D01*
X68845569Y-100408280D01*
X69136720Y-100699431D01*
X69517126Y-100857000D01*
X69928874Y-100857000D01*
X70309280Y-100699431D01*
X70442397Y-100566314D01*
X70585222Y-100537904D01*
X70836614Y-100369929D01*
X70879016Y-100306470D01*
X71490486Y-99695000D01*
X75906838Y-99695000D01*
X75913000Y-99725978D01*
X75913000Y-99861092D01*
X75964706Y-99985923D01*
X75970868Y-100016899D01*
X75988414Y-100043159D01*
X76040121Y-100167990D01*
X76135664Y-100263533D01*
X76153209Y-100289791D01*
X76179467Y-100307336D01*
X76275010Y-100402879D01*
X76399841Y-100454586D01*
X76426101Y-100472132D01*
X76457077Y-100478294D01*
X76581908Y-100530000D01*
X76914092Y-100530000D01*
X76938234Y-100520000D01*
X78193631Y-100520000D01*
X78267010Y-100593379D01*
X78391843Y-100645087D01*
X78418102Y-100662632D01*
X78449076Y-100668793D01*
X78573908Y-100720500D01*
X78709026Y-100720500D01*
X78740000Y-100726661D01*
X78770974Y-100720500D01*
X78906092Y-100720500D01*
X79030924Y-100668793D01*
X79061898Y-100662632D01*
X79088157Y-100645087D01*
X79212990Y-100593379D01*
X79308533Y-100497836D01*
X79334791Y-100480291D01*
X79352336Y-100454033D01*
X79447879Y-100358490D01*
X79499587Y-100233657D01*
X79517132Y-100207398D01*
X79523293Y-100176424D01*
X79575000Y-100051592D01*
X79575000Y-99916474D01*
X79581161Y-99885500D01*
X79575000Y-99854526D01*
X79575000Y-99719408D01*
X79523293Y-99594576D01*
X79517132Y-99563602D01*
X79499587Y-99537343D01*
X79447879Y-99412510D01*
X79212990Y-99177621D01*
X79189521Y-99167900D01*
X79144291Y-99100209D01*
X78871399Y-98917868D01*
X78630751Y-98870000D01*
X78630747Y-98870000D01*
X78549500Y-98853839D01*
X78468253Y-98870000D01*
X76938234Y-98870000D01*
X76914092Y-98860000D01*
X76581908Y-98860000D01*
X76457077Y-98911706D01*
X76426101Y-98917868D01*
X76399841Y-98935414D01*
X76275010Y-98987121D01*
X76179467Y-99082664D01*
X76153209Y-99100209D01*
X76135664Y-99126467D01*
X76040121Y-99222010D01*
X75988414Y-99346841D01*
X75970868Y-99373101D01*
X75964706Y-99404077D01*
X75913000Y-99528908D01*
X75913000Y-99664022D01*
X75906838Y-99695000D01*
X71490486Y-99695000D01*
X73206987Y-97978500D01*
X84080275Y-97978500D01*
X83928000Y-98346126D01*
X83928000Y-98512198D01*
X80139699Y-102300500D01*
X70744211Y-102300500D01*
X70626780Y-102183069D01*
X70246374Y-102025500D01*
X69834626Y-102025500D01*
X69454220Y-102183069D01*
X69163069Y-102474220D01*
X69005500Y-102854626D01*
X69005500Y-103266374D01*
X69163069Y-103646780D01*
X69454220Y-103937931D01*
X69834626Y-104095500D01*
X70246374Y-104095500D01*
X70626780Y-103937931D01*
X70744211Y-103820500D01*
X79889699Y-103820500D01*
X78107699Y-105602500D01*
X70744211Y-105602500D01*
X70626780Y-105485069D01*
X70246374Y-105327500D01*
X69834626Y-105327500D01*
X69454220Y-105485069D01*
X69163069Y-105776220D01*
X69005500Y-106156626D01*
X69005500Y-106568374D01*
X69163069Y-106948780D01*
X69454220Y-107239931D01*
X69834626Y-107397500D01*
X70246374Y-107397500D01*
X70626780Y-107239931D01*
X70744211Y-107122500D01*
X78347653Y-107122500D01*
X78422500Y-107137388D01*
X78497347Y-107122500D01*
X78497352Y-107122500D01*
X78719037Y-107078404D01*
X78970429Y-106910429D01*
X79012831Y-106846970D01*
X85002802Y-100857000D01*
X85168874Y-100857000D01*
X85549280Y-100699431D01*
X85840431Y-100408280D01*
X85998000Y-100027874D01*
X85998000Y-99616126D01*
X85840431Y-99235720D01*
X85791711Y-99187000D01*
X85840431Y-99138280D01*
X85998000Y-98757874D01*
X85998000Y-98346126D01*
X85840431Y-97965720D01*
X85759961Y-97885250D01*
X85840431Y-97804780D01*
X85998000Y-97424374D01*
X85998000Y-97012626D01*
X85840431Y-96632220D01*
X85764961Y-96556750D01*
X85908931Y-96412780D01*
X86066500Y-96032374D01*
X86066500Y-95620626D01*
X85908931Y-95240220D01*
X85849089Y-95180378D01*
X85998000Y-94820874D01*
X85998000Y-94409126D01*
X85840431Y-94028720D01*
X85696461Y-93884750D01*
X85776931Y-93804280D01*
X85934500Y-93423874D01*
X85934500Y-93012126D01*
X85776931Y-92631720D01*
X85696461Y-92551250D01*
X85713431Y-92534280D01*
X85871000Y-92153874D01*
X85871000Y-92025801D01*
X90976500Y-97131303D01*
X90976500Y-97297374D01*
X91134069Y-97677780D01*
X91425220Y-97968931D01*
X91805626Y-98126500D01*
X92217374Y-98126500D01*
X92597780Y-97968931D01*
X92602868Y-97963843D01*
X92525500Y-98150626D01*
X92525500Y-98562374D01*
X92683069Y-98942780D01*
X92974220Y-99233931D01*
X93354626Y-99391500D01*
X93766374Y-99391500D01*
X93885751Y-99342052D01*
X104864171Y-110320473D01*
X104906572Y-110383930D01*
X105157964Y-110551905D01*
X105379649Y-110596001D01*
X105379653Y-110596001D01*
X105454500Y-110610889D01*
X105529347Y-110596001D01*
X108756841Y-110596001D01*
X108850569Y-110822280D01*
X109078289Y-111050000D01*
X64210000Y-111050000D01*
X64210000Y-83260000D01*
X83379584Y-83260000D01*
X83003375Y-83511375D01*
G04 #@! TD*
M02*
