G04 #@! TF.GenerationSoftware,KiCad,Pcbnew,(5.0.1-3-g963ef8bb5)*
G04 #@! TF.CreationDate,2018-11-22T11:30:25+08:00*
G04 #@! TF.ProjectId,nRF24-breakout,6E524632342D627265616B6F75742E6B,1.0*
G04 #@! TF.SameCoordinates,Original*
G04 #@! TF.FileFunction,Soldermask,Top*
G04 #@! TF.FilePolarity,Negative*
%FSLAX46Y46*%
G04 Gerber Fmt 4.6, Leading zero omitted, Abs format (unit mm)*
G04 Created by KiCad (PCBNEW (5.0.1-3-g963ef8bb5)) date 2018 November 22, Thursday 11:30:25*
%MOMM*%
%LPD*%
G01*
G04 APERTURE LIST*
%ADD10C,0.100000*%
G04 APERTURE END LIST*
D10*
G36*
X160246565Y-108844389D02*
X160437834Y-108923615D01*
X160609976Y-109038637D01*
X160756363Y-109185024D01*
X160871385Y-109357166D01*
X160950611Y-109548435D01*
X160991000Y-109751484D01*
X160991000Y-109958516D01*
X160950611Y-110161565D01*
X160871385Y-110352834D01*
X160756363Y-110524976D01*
X160609976Y-110671363D01*
X160437834Y-110786385D01*
X160246565Y-110865611D01*
X160043516Y-110906000D01*
X159836484Y-110906000D01*
X159633435Y-110865611D01*
X159442166Y-110786385D01*
X159270024Y-110671363D01*
X159123637Y-110524976D01*
X159008615Y-110352834D01*
X158929389Y-110161565D01*
X158889000Y-109958516D01*
X158889000Y-109751484D01*
X158929389Y-109548435D01*
X159008615Y-109357166D01*
X159123637Y-109185024D01*
X159270024Y-109038637D01*
X159442166Y-108923615D01*
X159633435Y-108844389D01*
X159836484Y-108804000D01*
X160043516Y-108804000D01*
X160246565Y-108844389D01*
X160246565Y-108844389D01*
G37*
G36*
X155991000Y-110906000D02*
X153889000Y-110906000D01*
X153889000Y-108804000D01*
X155991000Y-108804000D01*
X155991000Y-110906000D01*
X155991000Y-110906000D01*
G37*
G36*
X170290443Y-105785519D02*
X170356627Y-105792037D01*
X170469853Y-105826384D01*
X170526467Y-105843557D01*
X170665087Y-105917652D01*
X170682991Y-105927222D01*
X170718729Y-105956552D01*
X170820186Y-106039814D01*
X170903448Y-106141271D01*
X170932778Y-106177009D01*
X170932779Y-106177011D01*
X171016443Y-106333533D01*
X171016443Y-106333534D01*
X171067963Y-106503373D01*
X171085359Y-106680000D01*
X171067963Y-106856627D01*
X171033616Y-106969853D01*
X171016443Y-107026467D01*
X170942348Y-107165087D01*
X170932778Y-107182991D01*
X170903448Y-107218729D01*
X170820186Y-107320186D01*
X170718729Y-107403448D01*
X170682991Y-107432778D01*
X170682989Y-107432779D01*
X170526467Y-107516443D01*
X170469853Y-107533616D01*
X170356627Y-107567963D01*
X170290443Y-107574481D01*
X170224260Y-107581000D01*
X170135740Y-107581000D01*
X170069557Y-107574481D01*
X170003373Y-107567963D01*
X169890147Y-107533616D01*
X169833533Y-107516443D01*
X169677011Y-107432779D01*
X169677009Y-107432778D01*
X169641271Y-107403448D01*
X169539814Y-107320186D01*
X169456552Y-107218729D01*
X169427222Y-107182991D01*
X169417652Y-107165087D01*
X169343557Y-107026467D01*
X169326384Y-106969853D01*
X169292037Y-106856627D01*
X169274641Y-106680000D01*
X169292037Y-106503373D01*
X169343557Y-106333534D01*
X169343557Y-106333533D01*
X169427221Y-106177011D01*
X169427222Y-106177009D01*
X169456552Y-106141271D01*
X169539814Y-106039814D01*
X169641271Y-105956552D01*
X169677009Y-105927222D01*
X169694913Y-105917652D01*
X169833533Y-105843557D01*
X169890147Y-105826384D01*
X170003373Y-105792037D01*
X170069557Y-105785519D01*
X170135740Y-105779000D01*
X170224260Y-105779000D01*
X170290443Y-105785519D01*
X170290443Y-105785519D01*
G37*
G36*
X170290443Y-103245519D02*
X170356627Y-103252037D01*
X170469853Y-103286384D01*
X170526467Y-103303557D01*
X170665087Y-103377652D01*
X170682991Y-103387222D01*
X170718729Y-103416552D01*
X170820186Y-103499814D01*
X170903448Y-103601271D01*
X170932778Y-103637009D01*
X170932779Y-103637011D01*
X171016443Y-103793533D01*
X171016443Y-103793534D01*
X171067963Y-103963373D01*
X171085359Y-104140000D01*
X171067963Y-104316627D01*
X171033616Y-104429853D01*
X171016443Y-104486467D01*
X170942348Y-104625087D01*
X170932778Y-104642991D01*
X170903448Y-104678729D01*
X170820186Y-104780186D01*
X170718729Y-104863448D01*
X170682991Y-104892778D01*
X170682989Y-104892779D01*
X170526467Y-104976443D01*
X170469853Y-104993616D01*
X170356627Y-105027963D01*
X170290442Y-105034482D01*
X170224260Y-105041000D01*
X170135740Y-105041000D01*
X170069557Y-105034481D01*
X170003373Y-105027963D01*
X169890147Y-104993616D01*
X169833533Y-104976443D01*
X169677011Y-104892779D01*
X169677009Y-104892778D01*
X169641271Y-104863448D01*
X169539814Y-104780186D01*
X169456552Y-104678729D01*
X169427222Y-104642991D01*
X169417652Y-104625087D01*
X169343557Y-104486467D01*
X169326384Y-104429853D01*
X169292037Y-104316627D01*
X169274641Y-104140000D01*
X169292037Y-103963373D01*
X169343557Y-103793534D01*
X169343557Y-103793533D01*
X169427221Y-103637011D01*
X169427222Y-103637009D01*
X169456552Y-103601271D01*
X169539814Y-103499814D01*
X169641271Y-103416552D01*
X169677009Y-103387222D01*
X169694913Y-103377652D01*
X169833533Y-103303557D01*
X169890147Y-103286384D01*
X170003373Y-103252037D01*
X170069558Y-103245518D01*
X170135740Y-103239000D01*
X170224260Y-103239000D01*
X170290443Y-103245519D01*
X170290443Y-103245519D01*
G37*
G36*
X170290443Y-100705519D02*
X170356627Y-100712037D01*
X170469853Y-100746384D01*
X170526467Y-100763557D01*
X170576130Y-100790103D01*
X170682991Y-100847222D01*
X170718729Y-100876552D01*
X170820186Y-100959814D01*
X170903448Y-101061271D01*
X170932778Y-101097009D01*
X170932779Y-101097011D01*
X171016443Y-101253533D01*
X171016443Y-101253534D01*
X171067963Y-101423373D01*
X171085359Y-101600000D01*
X171067963Y-101776627D01*
X171033616Y-101889853D01*
X171016443Y-101946467D01*
X170942348Y-102085087D01*
X170932778Y-102102991D01*
X170903448Y-102138729D01*
X170820186Y-102240186D01*
X170718729Y-102323448D01*
X170682991Y-102352778D01*
X170682989Y-102352779D01*
X170526467Y-102436443D01*
X170469853Y-102453616D01*
X170356627Y-102487963D01*
X170290442Y-102494482D01*
X170224260Y-102501000D01*
X170135740Y-102501000D01*
X170069558Y-102494482D01*
X170003373Y-102487963D01*
X169890147Y-102453616D01*
X169833533Y-102436443D01*
X169677011Y-102352779D01*
X169677009Y-102352778D01*
X169641271Y-102323448D01*
X169539814Y-102240186D01*
X169456552Y-102138729D01*
X169427222Y-102102991D01*
X169417652Y-102085087D01*
X169343557Y-101946467D01*
X169326384Y-101889853D01*
X169292037Y-101776627D01*
X169274641Y-101600000D01*
X169292037Y-101423373D01*
X169343557Y-101253534D01*
X169343557Y-101253533D01*
X169427221Y-101097011D01*
X169427222Y-101097009D01*
X169456552Y-101061271D01*
X169539814Y-100959814D01*
X169641271Y-100876552D01*
X169677009Y-100847222D01*
X169783870Y-100790103D01*
X169833533Y-100763557D01*
X169890147Y-100746384D01*
X170003373Y-100712037D01*
X170069557Y-100705519D01*
X170135740Y-100699000D01*
X170224260Y-100699000D01*
X170290443Y-100705519D01*
X170290443Y-100705519D01*
G37*
G36*
X162712143Y-99623243D02*
X162860103Y-99684531D01*
X162883531Y-99700185D01*
X162993258Y-99773502D01*
X163106500Y-99886744D01*
X163147405Y-99947963D01*
X163195471Y-100019899D01*
X163256759Y-100167859D01*
X163288001Y-100324926D01*
X163288001Y-100485076D01*
X163256759Y-100642143D01*
X163195471Y-100790103D01*
X163106499Y-100923259D01*
X162993259Y-101036499D01*
X162860103Y-101125471D01*
X162712143Y-101186759D01*
X162555076Y-101218001D01*
X162394926Y-101218001D01*
X162237859Y-101186759D01*
X162089899Y-101125471D01*
X161956743Y-101036499D01*
X161843503Y-100923259D01*
X161754531Y-100790103D01*
X161693243Y-100642143D01*
X161662001Y-100485076D01*
X161662001Y-100324926D01*
X161693243Y-100167859D01*
X161754531Y-100019899D01*
X161802597Y-99947963D01*
X161843502Y-99886744D01*
X161956744Y-99773502D01*
X162066471Y-99700185D01*
X162089899Y-99684531D01*
X162237859Y-99623243D01*
X162394926Y-99592001D01*
X162555076Y-99592001D01*
X162712143Y-99623243D01*
X162712143Y-99623243D01*
G37*
G36*
X160172143Y-99623243D02*
X160320103Y-99684531D01*
X160343531Y-99700185D01*
X160453258Y-99773502D01*
X160566500Y-99886744D01*
X160607405Y-99947963D01*
X160655471Y-100019899D01*
X160716759Y-100167859D01*
X160748001Y-100324926D01*
X160748001Y-100485076D01*
X160716759Y-100642143D01*
X160655471Y-100790103D01*
X160566499Y-100923259D01*
X160453259Y-101036499D01*
X160320103Y-101125471D01*
X160172143Y-101186759D01*
X160015076Y-101218001D01*
X159854926Y-101218001D01*
X159697859Y-101186759D01*
X159549899Y-101125471D01*
X159416743Y-101036499D01*
X159303503Y-100923259D01*
X159214531Y-100790103D01*
X159153243Y-100642143D01*
X159122001Y-100485076D01*
X159122001Y-100324926D01*
X159153243Y-100167859D01*
X159214531Y-100019899D01*
X159262597Y-99947963D01*
X159303502Y-99886744D01*
X159416744Y-99773502D01*
X159526471Y-99700185D01*
X159549899Y-99684531D01*
X159697859Y-99623243D01*
X159854926Y-99592001D01*
X160015076Y-99592001D01*
X160172143Y-99623243D01*
X160172143Y-99623243D01*
G37*
G36*
X170290443Y-98165519D02*
X170356627Y-98172037D01*
X170469853Y-98206384D01*
X170526467Y-98223557D01*
X170576130Y-98250103D01*
X170682991Y-98307222D01*
X170718729Y-98336552D01*
X170820186Y-98419814D01*
X170903448Y-98521271D01*
X170932778Y-98557009D01*
X170932779Y-98557011D01*
X171016443Y-98713533D01*
X171016443Y-98713534D01*
X171067963Y-98883373D01*
X171085359Y-99060000D01*
X171067963Y-99236627D01*
X171033616Y-99349853D01*
X171016443Y-99406467D01*
X170942348Y-99545087D01*
X170932778Y-99562991D01*
X170908970Y-99592001D01*
X170820186Y-99700186D01*
X170718729Y-99783448D01*
X170682991Y-99812778D01*
X170682989Y-99812779D01*
X170526467Y-99896443D01*
X170469853Y-99913616D01*
X170356627Y-99947963D01*
X170290443Y-99954481D01*
X170224260Y-99961000D01*
X170135740Y-99961000D01*
X170069557Y-99954481D01*
X170003373Y-99947963D01*
X169890147Y-99913616D01*
X169833533Y-99896443D01*
X169677011Y-99812779D01*
X169677009Y-99812778D01*
X169641271Y-99783448D01*
X169539814Y-99700186D01*
X169451030Y-99592001D01*
X169427222Y-99562991D01*
X169417652Y-99545087D01*
X169343557Y-99406467D01*
X169326384Y-99349853D01*
X169292037Y-99236627D01*
X169274641Y-99060000D01*
X169292037Y-98883373D01*
X169343557Y-98713534D01*
X169343557Y-98713533D01*
X169427221Y-98557011D01*
X169427222Y-98557009D01*
X169456552Y-98521271D01*
X169539814Y-98419814D01*
X169641271Y-98336552D01*
X169677009Y-98307222D01*
X169783870Y-98250103D01*
X169833533Y-98223557D01*
X169890147Y-98206384D01*
X170003373Y-98172037D01*
X170069557Y-98165519D01*
X170135740Y-98159000D01*
X170224260Y-98159000D01*
X170290443Y-98165519D01*
X170290443Y-98165519D01*
G37*
G36*
X162712143Y-97083243D02*
X162860103Y-97144531D01*
X162883531Y-97160185D01*
X162993258Y-97233502D01*
X163106500Y-97346744D01*
X163147405Y-97407963D01*
X163195471Y-97479899D01*
X163256759Y-97627859D01*
X163288001Y-97784926D01*
X163288001Y-97945076D01*
X163256759Y-98102143D01*
X163195471Y-98250103D01*
X163106499Y-98383259D01*
X162993259Y-98496499D01*
X162860103Y-98585471D01*
X162712143Y-98646759D01*
X162555076Y-98678001D01*
X162394926Y-98678001D01*
X162237859Y-98646759D01*
X162089899Y-98585471D01*
X161956743Y-98496499D01*
X161843503Y-98383259D01*
X161754531Y-98250103D01*
X161693243Y-98102143D01*
X161662001Y-97945076D01*
X161662001Y-97784926D01*
X161693243Y-97627859D01*
X161754531Y-97479899D01*
X161802597Y-97407963D01*
X161843502Y-97346744D01*
X161956744Y-97233502D01*
X162066471Y-97160185D01*
X162089899Y-97144531D01*
X162237859Y-97083243D01*
X162394926Y-97052001D01*
X162555076Y-97052001D01*
X162712143Y-97083243D01*
X162712143Y-97083243D01*
G37*
G36*
X160172143Y-97083243D02*
X160320103Y-97144531D01*
X160343531Y-97160185D01*
X160453258Y-97233502D01*
X160566500Y-97346744D01*
X160607405Y-97407963D01*
X160655471Y-97479899D01*
X160716759Y-97627859D01*
X160748001Y-97784926D01*
X160748001Y-97945076D01*
X160716759Y-98102143D01*
X160655471Y-98250103D01*
X160566499Y-98383259D01*
X160453259Y-98496499D01*
X160320103Y-98585471D01*
X160172143Y-98646759D01*
X160015076Y-98678001D01*
X159854926Y-98678001D01*
X159697859Y-98646759D01*
X159549899Y-98585471D01*
X159416743Y-98496499D01*
X159303503Y-98383259D01*
X159214531Y-98250103D01*
X159153243Y-98102143D01*
X159122001Y-97945076D01*
X159122001Y-97784926D01*
X159153243Y-97627859D01*
X159214531Y-97479899D01*
X159262597Y-97407963D01*
X159303502Y-97346744D01*
X159416744Y-97233502D01*
X159526471Y-97160185D01*
X159549899Y-97144531D01*
X159697859Y-97083243D01*
X159854926Y-97052001D01*
X160015076Y-97052001D01*
X160172143Y-97083243D01*
X160172143Y-97083243D01*
G37*
G36*
X170290442Y-95625518D02*
X170356627Y-95632037D01*
X170469853Y-95666384D01*
X170526467Y-95683557D01*
X170576130Y-95710103D01*
X170682991Y-95767222D01*
X170718729Y-95796552D01*
X170820186Y-95879814D01*
X170903448Y-95981271D01*
X170932778Y-96017009D01*
X170932779Y-96017011D01*
X171016443Y-96173533D01*
X171016443Y-96173534D01*
X171067963Y-96343373D01*
X171085359Y-96520000D01*
X171067963Y-96696627D01*
X171033616Y-96809853D01*
X171016443Y-96866467D01*
X170942348Y-97005087D01*
X170932778Y-97022991D01*
X170908970Y-97052001D01*
X170820186Y-97160186D01*
X170718729Y-97243448D01*
X170682991Y-97272778D01*
X170682989Y-97272779D01*
X170526467Y-97356443D01*
X170469853Y-97373616D01*
X170356627Y-97407963D01*
X170290442Y-97414482D01*
X170224260Y-97421000D01*
X170135740Y-97421000D01*
X170069558Y-97414482D01*
X170003373Y-97407963D01*
X169890147Y-97373616D01*
X169833533Y-97356443D01*
X169677011Y-97272779D01*
X169677009Y-97272778D01*
X169641271Y-97243448D01*
X169539814Y-97160186D01*
X169451030Y-97052001D01*
X169427222Y-97022991D01*
X169417652Y-97005087D01*
X169343557Y-96866467D01*
X169326384Y-96809853D01*
X169292037Y-96696627D01*
X169274641Y-96520000D01*
X169292037Y-96343373D01*
X169343557Y-96173534D01*
X169343557Y-96173533D01*
X169427221Y-96017011D01*
X169427222Y-96017009D01*
X169456552Y-95981271D01*
X169539814Y-95879814D01*
X169641271Y-95796552D01*
X169677009Y-95767222D01*
X169783870Y-95710103D01*
X169833533Y-95683557D01*
X169890147Y-95666384D01*
X170003373Y-95632037D01*
X170069558Y-95625518D01*
X170135740Y-95619000D01*
X170224260Y-95619000D01*
X170290442Y-95625518D01*
X170290442Y-95625518D01*
G37*
G36*
X162712143Y-94543243D02*
X162860103Y-94604531D01*
X162883531Y-94620185D01*
X162993258Y-94693502D01*
X163106500Y-94806744D01*
X163147405Y-94867963D01*
X163195471Y-94939899D01*
X163256759Y-95087859D01*
X163288001Y-95244926D01*
X163288001Y-95405076D01*
X163256759Y-95562143D01*
X163195471Y-95710103D01*
X163106499Y-95843259D01*
X162993259Y-95956499D01*
X162860103Y-96045471D01*
X162712143Y-96106759D01*
X162555076Y-96138001D01*
X162394926Y-96138001D01*
X162237859Y-96106759D01*
X162089899Y-96045471D01*
X161956743Y-95956499D01*
X161843503Y-95843259D01*
X161754531Y-95710103D01*
X161693243Y-95562143D01*
X161662001Y-95405076D01*
X161662001Y-95244926D01*
X161693243Y-95087859D01*
X161754531Y-94939899D01*
X161802597Y-94867963D01*
X161843502Y-94806744D01*
X161956744Y-94693502D01*
X162066471Y-94620185D01*
X162089899Y-94604531D01*
X162237859Y-94543243D01*
X162394926Y-94512001D01*
X162555076Y-94512001D01*
X162712143Y-94543243D01*
X162712143Y-94543243D01*
G37*
G36*
X160172143Y-94543243D02*
X160320103Y-94604531D01*
X160343531Y-94620185D01*
X160453258Y-94693502D01*
X160566500Y-94806744D01*
X160607405Y-94867963D01*
X160655471Y-94939899D01*
X160716759Y-95087859D01*
X160748001Y-95244926D01*
X160748001Y-95405076D01*
X160716759Y-95562143D01*
X160655471Y-95710103D01*
X160566499Y-95843259D01*
X160453259Y-95956499D01*
X160320103Y-96045471D01*
X160172143Y-96106759D01*
X160015076Y-96138001D01*
X159854926Y-96138001D01*
X159697859Y-96106759D01*
X159549899Y-96045471D01*
X159416743Y-95956499D01*
X159303503Y-95843259D01*
X159214531Y-95710103D01*
X159153243Y-95562143D01*
X159122001Y-95405076D01*
X159122001Y-95244926D01*
X159153243Y-95087859D01*
X159214531Y-94939899D01*
X159262597Y-94867963D01*
X159303502Y-94806744D01*
X159416744Y-94693502D01*
X159526471Y-94620185D01*
X159549899Y-94604531D01*
X159697859Y-94543243D01*
X159854926Y-94512001D01*
X160015076Y-94512001D01*
X160172143Y-94543243D01*
X160172143Y-94543243D01*
G37*
G36*
X170290443Y-93085519D02*
X170356627Y-93092037D01*
X170469853Y-93126384D01*
X170526467Y-93143557D01*
X170576130Y-93170103D01*
X170682991Y-93227222D01*
X170718729Y-93256552D01*
X170820186Y-93339814D01*
X170903448Y-93441271D01*
X170932778Y-93477009D01*
X170932779Y-93477011D01*
X171016443Y-93633533D01*
X171016443Y-93633534D01*
X171067963Y-93803373D01*
X171085359Y-93980000D01*
X171067963Y-94156627D01*
X171033616Y-94269853D01*
X171016443Y-94326467D01*
X170942348Y-94465087D01*
X170932778Y-94482991D01*
X170908970Y-94512001D01*
X170820186Y-94620186D01*
X170718729Y-94703448D01*
X170682991Y-94732778D01*
X170682989Y-94732779D01*
X170526467Y-94816443D01*
X170469853Y-94833616D01*
X170356627Y-94867963D01*
X170290443Y-94874481D01*
X170224260Y-94881000D01*
X170135740Y-94881000D01*
X170069557Y-94874481D01*
X170003373Y-94867963D01*
X169890147Y-94833616D01*
X169833533Y-94816443D01*
X169677011Y-94732779D01*
X169677009Y-94732778D01*
X169641271Y-94703448D01*
X169539814Y-94620186D01*
X169451030Y-94512001D01*
X169427222Y-94482991D01*
X169417652Y-94465087D01*
X169343557Y-94326467D01*
X169326384Y-94269853D01*
X169292037Y-94156627D01*
X169274641Y-93980000D01*
X169292037Y-93803373D01*
X169343557Y-93633534D01*
X169343557Y-93633533D01*
X169427221Y-93477011D01*
X169427222Y-93477009D01*
X169456552Y-93441271D01*
X169539814Y-93339814D01*
X169641271Y-93256552D01*
X169677009Y-93227222D01*
X169783870Y-93170103D01*
X169833533Y-93143557D01*
X169890147Y-93126384D01*
X170003373Y-93092037D01*
X170069557Y-93085519D01*
X170135740Y-93079000D01*
X170224260Y-93079000D01*
X170290443Y-93085519D01*
X170290443Y-93085519D01*
G37*
G36*
X162712143Y-92003243D02*
X162860103Y-92064531D01*
X162883531Y-92080185D01*
X162993258Y-92153502D01*
X163106500Y-92266744D01*
X163147405Y-92327963D01*
X163195471Y-92399899D01*
X163256759Y-92547859D01*
X163288001Y-92704926D01*
X163288001Y-92865076D01*
X163256759Y-93022143D01*
X163195471Y-93170103D01*
X163106499Y-93303259D01*
X162993259Y-93416499D01*
X162860103Y-93505471D01*
X162712143Y-93566759D01*
X162555076Y-93598001D01*
X162394926Y-93598001D01*
X162237859Y-93566759D01*
X162089899Y-93505471D01*
X161956743Y-93416499D01*
X161843503Y-93303259D01*
X161754531Y-93170103D01*
X161693243Y-93022143D01*
X161662001Y-92865076D01*
X161662001Y-92704926D01*
X161693243Y-92547859D01*
X161754531Y-92399899D01*
X161802597Y-92327963D01*
X161843502Y-92266744D01*
X161956744Y-92153502D01*
X162066471Y-92080185D01*
X162089899Y-92064531D01*
X162237859Y-92003243D01*
X162394926Y-91972001D01*
X162555076Y-91972001D01*
X162712143Y-92003243D01*
X162712143Y-92003243D01*
G37*
G36*
X160172143Y-92003243D02*
X160320103Y-92064531D01*
X160343531Y-92080185D01*
X160453258Y-92153502D01*
X160566500Y-92266744D01*
X160607405Y-92327963D01*
X160655471Y-92399899D01*
X160716759Y-92547859D01*
X160748001Y-92704926D01*
X160748001Y-92865076D01*
X160716759Y-93022143D01*
X160655471Y-93170103D01*
X160566499Y-93303259D01*
X160453259Y-93416499D01*
X160320103Y-93505471D01*
X160172143Y-93566759D01*
X160015076Y-93598001D01*
X159854926Y-93598001D01*
X159697859Y-93566759D01*
X159549899Y-93505471D01*
X159416743Y-93416499D01*
X159303503Y-93303259D01*
X159214531Y-93170103D01*
X159153243Y-93022143D01*
X159122001Y-92865076D01*
X159122001Y-92704926D01*
X159153243Y-92547859D01*
X159214531Y-92399899D01*
X159262597Y-92327963D01*
X159303502Y-92266744D01*
X159416744Y-92153502D01*
X159526471Y-92080185D01*
X159549899Y-92064531D01*
X159697859Y-92003243D01*
X159854926Y-91972001D01*
X160015076Y-91972001D01*
X160172143Y-92003243D01*
X160172143Y-92003243D01*
G37*
G36*
X170290443Y-90545519D02*
X170356627Y-90552037D01*
X170469853Y-90586384D01*
X170526467Y-90603557D01*
X170665087Y-90677652D01*
X170682991Y-90687222D01*
X170718729Y-90716552D01*
X170820186Y-90799814D01*
X170903448Y-90901271D01*
X170932778Y-90937009D01*
X170932779Y-90937011D01*
X171016443Y-91093533D01*
X171016443Y-91093534D01*
X171067963Y-91263373D01*
X171085359Y-91440000D01*
X171067963Y-91616627D01*
X171033616Y-91729853D01*
X171016443Y-91786467D01*
X170942348Y-91925087D01*
X170932778Y-91942991D01*
X170908970Y-91972001D01*
X170820186Y-92080186D01*
X170718729Y-92163448D01*
X170682991Y-92192778D01*
X170682989Y-92192779D01*
X170526467Y-92276443D01*
X170469853Y-92293616D01*
X170356627Y-92327963D01*
X170290443Y-92334481D01*
X170224260Y-92341000D01*
X170135740Y-92341000D01*
X170069557Y-92334481D01*
X170003373Y-92327963D01*
X169890147Y-92293616D01*
X169833533Y-92276443D01*
X169677011Y-92192779D01*
X169677009Y-92192778D01*
X169641271Y-92163448D01*
X169539814Y-92080186D01*
X169451030Y-91972001D01*
X169427222Y-91942991D01*
X169417652Y-91925087D01*
X169343557Y-91786467D01*
X169326384Y-91729853D01*
X169292037Y-91616627D01*
X169274641Y-91440000D01*
X169292037Y-91263373D01*
X169343557Y-91093534D01*
X169343557Y-91093533D01*
X169427221Y-90937011D01*
X169427222Y-90937009D01*
X169456552Y-90901271D01*
X169539814Y-90799814D01*
X169641271Y-90716552D01*
X169677009Y-90687222D01*
X169694913Y-90677652D01*
X169833533Y-90603557D01*
X169890147Y-90586384D01*
X170003373Y-90552037D01*
X170069558Y-90545518D01*
X170135740Y-90539000D01*
X170224260Y-90539000D01*
X170290443Y-90545519D01*
X170290443Y-90545519D01*
G37*
G36*
X171081000Y-89801000D02*
X169279000Y-89801000D01*
X169279000Y-87999000D01*
X171081000Y-87999000D01*
X171081000Y-89801000D01*
X171081000Y-89801000D01*
G37*
M02*
