G04 #@! TF.GenerationSoftware,KiCad,Pcbnew,(5.0.1-3-g963ef8bb5)*
G04 #@! TF.CreationDate,2018-12-19T16:23:04+08:00*
G04 #@! TF.ProjectId,24-LED-board,32342D4C45442D626F6172642E6B6963,1.0*
G04 #@! TF.SameCoordinates,Original*
G04 #@! TF.FileFunction,Paste,Top*
G04 #@! TF.FilePolarity,Positive*
%FSLAX46Y46*%
G04 Gerber Fmt 4.6, Leading zero omitted, Abs format (unit mm)*
G04 Created by KiCad (PCBNEW (5.0.1-3-g963ef8bb5)) date 2018 December 19, Wednesday 16:23:04*
%MOMM*%
%LPD*%
G01*
G04 APERTURE LIST*
%ADD10R,3.500000X1.600000*%
%ADD11C,0.100000*%
%ADD12C,1.150000*%
%ADD13R,1.300000X0.800000*%
%ADD14R,0.800000X1.300000*%
G04 APERTURE END LIST*
D10*
G04 #@! TO.C,C1*
X92589000Y-106426000D03*
X86989000Y-106426000D03*
G04 #@! TD*
D11*
G04 #@! TO.C,D1*
G36*
X68421505Y-107378204D02*
X68445773Y-107381804D01*
X68469572Y-107387765D01*
X68492671Y-107396030D01*
X68514850Y-107406520D01*
X68535893Y-107419132D01*
X68555599Y-107433747D01*
X68573777Y-107450223D01*
X68590253Y-107468401D01*
X68604868Y-107488107D01*
X68617480Y-107509150D01*
X68627970Y-107531329D01*
X68636235Y-107554428D01*
X68642196Y-107578227D01*
X68645796Y-107602495D01*
X68647000Y-107626999D01*
X68647000Y-108527001D01*
X68645796Y-108551505D01*
X68642196Y-108575773D01*
X68636235Y-108599572D01*
X68627970Y-108622671D01*
X68617480Y-108644850D01*
X68604868Y-108665893D01*
X68590253Y-108685599D01*
X68573777Y-108703777D01*
X68555599Y-108720253D01*
X68535893Y-108734868D01*
X68514850Y-108747480D01*
X68492671Y-108757970D01*
X68469572Y-108766235D01*
X68445773Y-108772196D01*
X68421505Y-108775796D01*
X68397001Y-108777000D01*
X67746999Y-108777000D01*
X67722495Y-108775796D01*
X67698227Y-108772196D01*
X67674428Y-108766235D01*
X67651329Y-108757970D01*
X67629150Y-108747480D01*
X67608107Y-108734868D01*
X67588401Y-108720253D01*
X67570223Y-108703777D01*
X67553747Y-108685599D01*
X67539132Y-108665893D01*
X67526520Y-108644850D01*
X67516030Y-108622671D01*
X67507765Y-108599572D01*
X67501804Y-108575773D01*
X67498204Y-108551505D01*
X67497000Y-108527001D01*
X67497000Y-107626999D01*
X67498204Y-107602495D01*
X67501804Y-107578227D01*
X67507765Y-107554428D01*
X67516030Y-107531329D01*
X67526520Y-107509150D01*
X67539132Y-107488107D01*
X67553747Y-107468401D01*
X67570223Y-107450223D01*
X67588401Y-107433747D01*
X67608107Y-107419132D01*
X67629150Y-107406520D01*
X67651329Y-107396030D01*
X67674428Y-107387765D01*
X67698227Y-107381804D01*
X67722495Y-107378204D01*
X67746999Y-107377000D01*
X68397001Y-107377000D01*
X68421505Y-107378204D01*
X68421505Y-107378204D01*
G37*
D12*
X68072000Y-108077000D03*
D11*
G36*
X66371505Y-107378204D02*
X66395773Y-107381804D01*
X66419572Y-107387765D01*
X66442671Y-107396030D01*
X66464850Y-107406520D01*
X66485893Y-107419132D01*
X66505599Y-107433747D01*
X66523777Y-107450223D01*
X66540253Y-107468401D01*
X66554868Y-107488107D01*
X66567480Y-107509150D01*
X66577970Y-107531329D01*
X66586235Y-107554428D01*
X66592196Y-107578227D01*
X66595796Y-107602495D01*
X66597000Y-107626999D01*
X66597000Y-108527001D01*
X66595796Y-108551505D01*
X66592196Y-108575773D01*
X66586235Y-108599572D01*
X66577970Y-108622671D01*
X66567480Y-108644850D01*
X66554868Y-108665893D01*
X66540253Y-108685599D01*
X66523777Y-108703777D01*
X66505599Y-108720253D01*
X66485893Y-108734868D01*
X66464850Y-108747480D01*
X66442671Y-108757970D01*
X66419572Y-108766235D01*
X66395773Y-108772196D01*
X66371505Y-108775796D01*
X66347001Y-108777000D01*
X65696999Y-108777000D01*
X65672495Y-108775796D01*
X65648227Y-108772196D01*
X65624428Y-108766235D01*
X65601329Y-108757970D01*
X65579150Y-108747480D01*
X65558107Y-108734868D01*
X65538401Y-108720253D01*
X65520223Y-108703777D01*
X65503747Y-108685599D01*
X65489132Y-108665893D01*
X65476520Y-108644850D01*
X65466030Y-108622671D01*
X65457765Y-108599572D01*
X65451804Y-108575773D01*
X65448204Y-108551505D01*
X65447000Y-108527001D01*
X65447000Y-107626999D01*
X65448204Y-107602495D01*
X65451804Y-107578227D01*
X65457765Y-107554428D01*
X65466030Y-107531329D01*
X65476520Y-107509150D01*
X65489132Y-107488107D01*
X65503747Y-107468401D01*
X65520223Y-107450223D01*
X65538401Y-107433747D01*
X65558107Y-107419132D01*
X65579150Y-107406520D01*
X65601329Y-107396030D01*
X65624428Y-107387765D01*
X65648227Y-107381804D01*
X65672495Y-107378204D01*
X65696999Y-107377000D01*
X66347001Y-107377000D01*
X66371505Y-107378204D01*
X66371505Y-107378204D01*
G37*
D12*
X66022000Y-108077000D03*
G04 #@! TD*
D11*
G04 #@! TO.C,D2*
G36*
X66371505Y-103949204D02*
X66395773Y-103952804D01*
X66419572Y-103958765D01*
X66442671Y-103967030D01*
X66464850Y-103977520D01*
X66485893Y-103990132D01*
X66505599Y-104004747D01*
X66523777Y-104021223D01*
X66540253Y-104039401D01*
X66554868Y-104059107D01*
X66567480Y-104080150D01*
X66577970Y-104102329D01*
X66586235Y-104125428D01*
X66592196Y-104149227D01*
X66595796Y-104173495D01*
X66597000Y-104197999D01*
X66597000Y-105098001D01*
X66595796Y-105122505D01*
X66592196Y-105146773D01*
X66586235Y-105170572D01*
X66577970Y-105193671D01*
X66567480Y-105215850D01*
X66554868Y-105236893D01*
X66540253Y-105256599D01*
X66523777Y-105274777D01*
X66505599Y-105291253D01*
X66485893Y-105305868D01*
X66464850Y-105318480D01*
X66442671Y-105328970D01*
X66419572Y-105337235D01*
X66395773Y-105343196D01*
X66371505Y-105346796D01*
X66347001Y-105348000D01*
X65696999Y-105348000D01*
X65672495Y-105346796D01*
X65648227Y-105343196D01*
X65624428Y-105337235D01*
X65601329Y-105328970D01*
X65579150Y-105318480D01*
X65558107Y-105305868D01*
X65538401Y-105291253D01*
X65520223Y-105274777D01*
X65503747Y-105256599D01*
X65489132Y-105236893D01*
X65476520Y-105215850D01*
X65466030Y-105193671D01*
X65457765Y-105170572D01*
X65451804Y-105146773D01*
X65448204Y-105122505D01*
X65447000Y-105098001D01*
X65447000Y-104197999D01*
X65448204Y-104173495D01*
X65451804Y-104149227D01*
X65457765Y-104125428D01*
X65466030Y-104102329D01*
X65476520Y-104080150D01*
X65489132Y-104059107D01*
X65503747Y-104039401D01*
X65520223Y-104021223D01*
X65538401Y-104004747D01*
X65558107Y-103990132D01*
X65579150Y-103977520D01*
X65601329Y-103967030D01*
X65624428Y-103958765D01*
X65648227Y-103952804D01*
X65672495Y-103949204D01*
X65696999Y-103948000D01*
X66347001Y-103948000D01*
X66371505Y-103949204D01*
X66371505Y-103949204D01*
G37*
D12*
X66022000Y-104648000D03*
D11*
G36*
X68421505Y-103949204D02*
X68445773Y-103952804D01*
X68469572Y-103958765D01*
X68492671Y-103967030D01*
X68514850Y-103977520D01*
X68535893Y-103990132D01*
X68555599Y-104004747D01*
X68573777Y-104021223D01*
X68590253Y-104039401D01*
X68604868Y-104059107D01*
X68617480Y-104080150D01*
X68627970Y-104102329D01*
X68636235Y-104125428D01*
X68642196Y-104149227D01*
X68645796Y-104173495D01*
X68647000Y-104197999D01*
X68647000Y-105098001D01*
X68645796Y-105122505D01*
X68642196Y-105146773D01*
X68636235Y-105170572D01*
X68627970Y-105193671D01*
X68617480Y-105215850D01*
X68604868Y-105236893D01*
X68590253Y-105256599D01*
X68573777Y-105274777D01*
X68555599Y-105291253D01*
X68535893Y-105305868D01*
X68514850Y-105318480D01*
X68492671Y-105328970D01*
X68469572Y-105337235D01*
X68445773Y-105343196D01*
X68421505Y-105346796D01*
X68397001Y-105348000D01*
X67746999Y-105348000D01*
X67722495Y-105346796D01*
X67698227Y-105343196D01*
X67674428Y-105337235D01*
X67651329Y-105328970D01*
X67629150Y-105318480D01*
X67608107Y-105305868D01*
X67588401Y-105291253D01*
X67570223Y-105274777D01*
X67553747Y-105256599D01*
X67539132Y-105236893D01*
X67526520Y-105215850D01*
X67516030Y-105193671D01*
X67507765Y-105170572D01*
X67501804Y-105146773D01*
X67498204Y-105122505D01*
X67497000Y-105098001D01*
X67497000Y-104197999D01*
X67498204Y-104173495D01*
X67501804Y-104149227D01*
X67507765Y-104125428D01*
X67516030Y-104102329D01*
X67526520Y-104080150D01*
X67539132Y-104059107D01*
X67553747Y-104039401D01*
X67570223Y-104021223D01*
X67588401Y-104004747D01*
X67608107Y-103990132D01*
X67629150Y-103977520D01*
X67651329Y-103967030D01*
X67674428Y-103958765D01*
X67698227Y-103952804D01*
X67722495Y-103949204D01*
X67746999Y-103948000D01*
X68397001Y-103948000D01*
X68421505Y-103949204D01*
X68421505Y-103949204D01*
G37*
D12*
X68072000Y-104648000D03*
G04 #@! TD*
D11*
G04 #@! TO.C,D3*
G36*
X68421505Y-100647204D02*
X68445773Y-100650804D01*
X68469572Y-100656765D01*
X68492671Y-100665030D01*
X68514850Y-100675520D01*
X68535893Y-100688132D01*
X68555599Y-100702747D01*
X68573777Y-100719223D01*
X68590253Y-100737401D01*
X68604868Y-100757107D01*
X68617480Y-100778150D01*
X68627970Y-100800329D01*
X68636235Y-100823428D01*
X68642196Y-100847227D01*
X68645796Y-100871495D01*
X68647000Y-100895999D01*
X68647000Y-101796001D01*
X68645796Y-101820505D01*
X68642196Y-101844773D01*
X68636235Y-101868572D01*
X68627970Y-101891671D01*
X68617480Y-101913850D01*
X68604868Y-101934893D01*
X68590253Y-101954599D01*
X68573777Y-101972777D01*
X68555599Y-101989253D01*
X68535893Y-102003868D01*
X68514850Y-102016480D01*
X68492671Y-102026970D01*
X68469572Y-102035235D01*
X68445773Y-102041196D01*
X68421505Y-102044796D01*
X68397001Y-102046000D01*
X67746999Y-102046000D01*
X67722495Y-102044796D01*
X67698227Y-102041196D01*
X67674428Y-102035235D01*
X67651329Y-102026970D01*
X67629150Y-102016480D01*
X67608107Y-102003868D01*
X67588401Y-101989253D01*
X67570223Y-101972777D01*
X67553747Y-101954599D01*
X67539132Y-101934893D01*
X67526520Y-101913850D01*
X67516030Y-101891671D01*
X67507765Y-101868572D01*
X67501804Y-101844773D01*
X67498204Y-101820505D01*
X67497000Y-101796001D01*
X67497000Y-100895999D01*
X67498204Y-100871495D01*
X67501804Y-100847227D01*
X67507765Y-100823428D01*
X67516030Y-100800329D01*
X67526520Y-100778150D01*
X67539132Y-100757107D01*
X67553747Y-100737401D01*
X67570223Y-100719223D01*
X67588401Y-100702747D01*
X67608107Y-100688132D01*
X67629150Y-100675520D01*
X67651329Y-100665030D01*
X67674428Y-100656765D01*
X67698227Y-100650804D01*
X67722495Y-100647204D01*
X67746999Y-100646000D01*
X68397001Y-100646000D01*
X68421505Y-100647204D01*
X68421505Y-100647204D01*
G37*
D12*
X68072000Y-101346000D03*
D11*
G36*
X66371505Y-100647204D02*
X66395773Y-100650804D01*
X66419572Y-100656765D01*
X66442671Y-100665030D01*
X66464850Y-100675520D01*
X66485893Y-100688132D01*
X66505599Y-100702747D01*
X66523777Y-100719223D01*
X66540253Y-100737401D01*
X66554868Y-100757107D01*
X66567480Y-100778150D01*
X66577970Y-100800329D01*
X66586235Y-100823428D01*
X66592196Y-100847227D01*
X66595796Y-100871495D01*
X66597000Y-100895999D01*
X66597000Y-101796001D01*
X66595796Y-101820505D01*
X66592196Y-101844773D01*
X66586235Y-101868572D01*
X66577970Y-101891671D01*
X66567480Y-101913850D01*
X66554868Y-101934893D01*
X66540253Y-101954599D01*
X66523777Y-101972777D01*
X66505599Y-101989253D01*
X66485893Y-102003868D01*
X66464850Y-102016480D01*
X66442671Y-102026970D01*
X66419572Y-102035235D01*
X66395773Y-102041196D01*
X66371505Y-102044796D01*
X66347001Y-102046000D01*
X65696999Y-102046000D01*
X65672495Y-102044796D01*
X65648227Y-102041196D01*
X65624428Y-102035235D01*
X65601329Y-102026970D01*
X65579150Y-102016480D01*
X65558107Y-102003868D01*
X65538401Y-101989253D01*
X65520223Y-101972777D01*
X65503747Y-101954599D01*
X65489132Y-101934893D01*
X65476520Y-101913850D01*
X65466030Y-101891671D01*
X65457765Y-101868572D01*
X65451804Y-101844773D01*
X65448204Y-101820505D01*
X65447000Y-101796001D01*
X65447000Y-100895999D01*
X65448204Y-100871495D01*
X65451804Y-100847227D01*
X65457765Y-100823428D01*
X65466030Y-100800329D01*
X65476520Y-100778150D01*
X65489132Y-100757107D01*
X65503747Y-100737401D01*
X65520223Y-100719223D01*
X65538401Y-100702747D01*
X65558107Y-100688132D01*
X65579150Y-100675520D01*
X65601329Y-100665030D01*
X65624428Y-100656765D01*
X65648227Y-100650804D01*
X65672495Y-100647204D01*
X65696999Y-100646000D01*
X66347001Y-100646000D01*
X66371505Y-100647204D01*
X66371505Y-100647204D01*
G37*
D12*
X66022000Y-101346000D03*
G04 #@! TD*
D11*
G04 #@! TO.C,D4*
G36*
X66371505Y-97472204D02*
X66395773Y-97475804D01*
X66419572Y-97481765D01*
X66442671Y-97490030D01*
X66464850Y-97500520D01*
X66485893Y-97513132D01*
X66505599Y-97527747D01*
X66523777Y-97544223D01*
X66540253Y-97562401D01*
X66554868Y-97582107D01*
X66567480Y-97603150D01*
X66577970Y-97625329D01*
X66586235Y-97648428D01*
X66592196Y-97672227D01*
X66595796Y-97696495D01*
X66597000Y-97720999D01*
X66597000Y-98621001D01*
X66595796Y-98645505D01*
X66592196Y-98669773D01*
X66586235Y-98693572D01*
X66577970Y-98716671D01*
X66567480Y-98738850D01*
X66554868Y-98759893D01*
X66540253Y-98779599D01*
X66523777Y-98797777D01*
X66505599Y-98814253D01*
X66485893Y-98828868D01*
X66464850Y-98841480D01*
X66442671Y-98851970D01*
X66419572Y-98860235D01*
X66395773Y-98866196D01*
X66371505Y-98869796D01*
X66347001Y-98871000D01*
X65696999Y-98871000D01*
X65672495Y-98869796D01*
X65648227Y-98866196D01*
X65624428Y-98860235D01*
X65601329Y-98851970D01*
X65579150Y-98841480D01*
X65558107Y-98828868D01*
X65538401Y-98814253D01*
X65520223Y-98797777D01*
X65503747Y-98779599D01*
X65489132Y-98759893D01*
X65476520Y-98738850D01*
X65466030Y-98716671D01*
X65457765Y-98693572D01*
X65451804Y-98669773D01*
X65448204Y-98645505D01*
X65447000Y-98621001D01*
X65447000Y-97720999D01*
X65448204Y-97696495D01*
X65451804Y-97672227D01*
X65457765Y-97648428D01*
X65466030Y-97625329D01*
X65476520Y-97603150D01*
X65489132Y-97582107D01*
X65503747Y-97562401D01*
X65520223Y-97544223D01*
X65538401Y-97527747D01*
X65558107Y-97513132D01*
X65579150Y-97500520D01*
X65601329Y-97490030D01*
X65624428Y-97481765D01*
X65648227Y-97475804D01*
X65672495Y-97472204D01*
X65696999Y-97471000D01*
X66347001Y-97471000D01*
X66371505Y-97472204D01*
X66371505Y-97472204D01*
G37*
D12*
X66022000Y-98171000D03*
D11*
G36*
X68421505Y-97472204D02*
X68445773Y-97475804D01*
X68469572Y-97481765D01*
X68492671Y-97490030D01*
X68514850Y-97500520D01*
X68535893Y-97513132D01*
X68555599Y-97527747D01*
X68573777Y-97544223D01*
X68590253Y-97562401D01*
X68604868Y-97582107D01*
X68617480Y-97603150D01*
X68627970Y-97625329D01*
X68636235Y-97648428D01*
X68642196Y-97672227D01*
X68645796Y-97696495D01*
X68647000Y-97720999D01*
X68647000Y-98621001D01*
X68645796Y-98645505D01*
X68642196Y-98669773D01*
X68636235Y-98693572D01*
X68627970Y-98716671D01*
X68617480Y-98738850D01*
X68604868Y-98759893D01*
X68590253Y-98779599D01*
X68573777Y-98797777D01*
X68555599Y-98814253D01*
X68535893Y-98828868D01*
X68514850Y-98841480D01*
X68492671Y-98851970D01*
X68469572Y-98860235D01*
X68445773Y-98866196D01*
X68421505Y-98869796D01*
X68397001Y-98871000D01*
X67746999Y-98871000D01*
X67722495Y-98869796D01*
X67698227Y-98866196D01*
X67674428Y-98860235D01*
X67651329Y-98851970D01*
X67629150Y-98841480D01*
X67608107Y-98828868D01*
X67588401Y-98814253D01*
X67570223Y-98797777D01*
X67553747Y-98779599D01*
X67539132Y-98759893D01*
X67526520Y-98738850D01*
X67516030Y-98716671D01*
X67507765Y-98693572D01*
X67501804Y-98669773D01*
X67498204Y-98645505D01*
X67497000Y-98621001D01*
X67497000Y-97720999D01*
X67498204Y-97696495D01*
X67501804Y-97672227D01*
X67507765Y-97648428D01*
X67516030Y-97625329D01*
X67526520Y-97603150D01*
X67539132Y-97582107D01*
X67553747Y-97562401D01*
X67570223Y-97544223D01*
X67588401Y-97527747D01*
X67608107Y-97513132D01*
X67629150Y-97500520D01*
X67651329Y-97490030D01*
X67674428Y-97481765D01*
X67698227Y-97475804D01*
X67722495Y-97472204D01*
X67746999Y-97471000D01*
X68397001Y-97471000D01*
X68421505Y-97472204D01*
X68421505Y-97472204D01*
G37*
D12*
X68072000Y-98171000D03*
G04 #@! TD*
D11*
G04 #@! TO.C,D5*
G36*
X68421505Y-94170204D02*
X68445773Y-94173804D01*
X68469572Y-94179765D01*
X68492671Y-94188030D01*
X68514850Y-94198520D01*
X68535893Y-94211132D01*
X68555599Y-94225747D01*
X68573777Y-94242223D01*
X68590253Y-94260401D01*
X68604868Y-94280107D01*
X68617480Y-94301150D01*
X68627970Y-94323329D01*
X68636235Y-94346428D01*
X68642196Y-94370227D01*
X68645796Y-94394495D01*
X68647000Y-94418999D01*
X68647000Y-95319001D01*
X68645796Y-95343505D01*
X68642196Y-95367773D01*
X68636235Y-95391572D01*
X68627970Y-95414671D01*
X68617480Y-95436850D01*
X68604868Y-95457893D01*
X68590253Y-95477599D01*
X68573777Y-95495777D01*
X68555599Y-95512253D01*
X68535893Y-95526868D01*
X68514850Y-95539480D01*
X68492671Y-95549970D01*
X68469572Y-95558235D01*
X68445773Y-95564196D01*
X68421505Y-95567796D01*
X68397001Y-95569000D01*
X67746999Y-95569000D01*
X67722495Y-95567796D01*
X67698227Y-95564196D01*
X67674428Y-95558235D01*
X67651329Y-95549970D01*
X67629150Y-95539480D01*
X67608107Y-95526868D01*
X67588401Y-95512253D01*
X67570223Y-95495777D01*
X67553747Y-95477599D01*
X67539132Y-95457893D01*
X67526520Y-95436850D01*
X67516030Y-95414671D01*
X67507765Y-95391572D01*
X67501804Y-95367773D01*
X67498204Y-95343505D01*
X67497000Y-95319001D01*
X67497000Y-94418999D01*
X67498204Y-94394495D01*
X67501804Y-94370227D01*
X67507765Y-94346428D01*
X67516030Y-94323329D01*
X67526520Y-94301150D01*
X67539132Y-94280107D01*
X67553747Y-94260401D01*
X67570223Y-94242223D01*
X67588401Y-94225747D01*
X67608107Y-94211132D01*
X67629150Y-94198520D01*
X67651329Y-94188030D01*
X67674428Y-94179765D01*
X67698227Y-94173804D01*
X67722495Y-94170204D01*
X67746999Y-94169000D01*
X68397001Y-94169000D01*
X68421505Y-94170204D01*
X68421505Y-94170204D01*
G37*
D12*
X68072000Y-94869000D03*
D11*
G36*
X66371505Y-94170204D02*
X66395773Y-94173804D01*
X66419572Y-94179765D01*
X66442671Y-94188030D01*
X66464850Y-94198520D01*
X66485893Y-94211132D01*
X66505599Y-94225747D01*
X66523777Y-94242223D01*
X66540253Y-94260401D01*
X66554868Y-94280107D01*
X66567480Y-94301150D01*
X66577970Y-94323329D01*
X66586235Y-94346428D01*
X66592196Y-94370227D01*
X66595796Y-94394495D01*
X66597000Y-94418999D01*
X66597000Y-95319001D01*
X66595796Y-95343505D01*
X66592196Y-95367773D01*
X66586235Y-95391572D01*
X66577970Y-95414671D01*
X66567480Y-95436850D01*
X66554868Y-95457893D01*
X66540253Y-95477599D01*
X66523777Y-95495777D01*
X66505599Y-95512253D01*
X66485893Y-95526868D01*
X66464850Y-95539480D01*
X66442671Y-95549970D01*
X66419572Y-95558235D01*
X66395773Y-95564196D01*
X66371505Y-95567796D01*
X66347001Y-95569000D01*
X65696999Y-95569000D01*
X65672495Y-95567796D01*
X65648227Y-95564196D01*
X65624428Y-95558235D01*
X65601329Y-95549970D01*
X65579150Y-95539480D01*
X65558107Y-95526868D01*
X65538401Y-95512253D01*
X65520223Y-95495777D01*
X65503747Y-95477599D01*
X65489132Y-95457893D01*
X65476520Y-95436850D01*
X65466030Y-95414671D01*
X65457765Y-95391572D01*
X65451804Y-95367773D01*
X65448204Y-95343505D01*
X65447000Y-95319001D01*
X65447000Y-94418999D01*
X65448204Y-94394495D01*
X65451804Y-94370227D01*
X65457765Y-94346428D01*
X65466030Y-94323329D01*
X65476520Y-94301150D01*
X65489132Y-94280107D01*
X65503747Y-94260401D01*
X65520223Y-94242223D01*
X65538401Y-94225747D01*
X65558107Y-94211132D01*
X65579150Y-94198520D01*
X65601329Y-94188030D01*
X65624428Y-94179765D01*
X65648227Y-94173804D01*
X65672495Y-94170204D01*
X65696999Y-94169000D01*
X66347001Y-94169000D01*
X66371505Y-94170204D01*
X66371505Y-94170204D01*
G37*
D12*
X66022000Y-94869000D03*
G04 #@! TD*
D11*
G04 #@! TO.C,D6*
G36*
X66371505Y-90868204D02*
X66395773Y-90871804D01*
X66419572Y-90877765D01*
X66442671Y-90886030D01*
X66464850Y-90896520D01*
X66485893Y-90909132D01*
X66505599Y-90923747D01*
X66523777Y-90940223D01*
X66540253Y-90958401D01*
X66554868Y-90978107D01*
X66567480Y-90999150D01*
X66577970Y-91021329D01*
X66586235Y-91044428D01*
X66592196Y-91068227D01*
X66595796Y-91092495D01*
X66597000Y-91116999D01*
X66597000Y-92017001D01*
X66595796Y-92041505D01*
X66592196Y-92065773D01*
X66586235Y-92089572D01*
X66577970Y-92112671D01*
X66567480Y-92134850D01*
X66554868Y-92155893D01*
X66540253Y-92175599D01*
X66523777Y-92193777D01*
X66505599Y-92210253D01*
X66485893Y-92224868D01*
X66464850Y-92237480D01*
X66442671Y-92247970D01*
X66419572Y-92256235D01*
X66395773Y-92262196D01*
X66371505Y-92265796D01*
X66347001Y-92267000D01*
X65696999Y-92267000D01*
X65672495Y-92265796D01*
X65648227Y-92262196D01*
X65624428Y-92256235D01*
X65601329Y-92247970D01*
X65579150Y-92237480D01*
X65558107Y-92224868D01*
X65538401Y-92210253D01*
X65520223Y-92193777D01*
X65503747Y-92175599D01*
X65489132Y-92155893D01*
X65476520Y-92134850D01*
X65466030Y-92112671D01*
X65457765Y-92089572D01*
X65451804Y-92065773D01*
X65448204Y-92041505D01*
X65447000Y-92017001D01*
X65447000Y-91116999D01*
X65448204Y-91092495D01*
X65451804Y-91068227D01*
X65457765Y-91044428D01*
X65466030Y-91021329D01*
X65476520Y-90999150D01*
X65489132Y-90978107D01*
X65503747Y-90958401D01*
X65520223Y-90940223D01*
X65538401Y-90923747D01*
X65558107Y-90909132D01*
X65579150Y-90896520D01*
X65601329Y-90886030D01*
X65624428Y-90877765D01*
X65648227Y-90871804D01*
X65672495Y-90868204D01*
X65696999Y-90867000D01*
X66347001Y-90867000D01*
X66371505Y-90868204D01*
X66371505Y-90868204D01*
G37*
D12*
X66022000Y-91567000D03*
D11*
G36*
X68421505Y-90868204D02*
X68445773Y-90871804D01*
X68469572Y-90877765D01*
X68492671Y-90886030D01*
X68514850Y-90896520D01*
X68535893Y-90909132D01*
X68555599Y-90923747D01*
X68573777Y-90940223D01*
X68590253Y-90958401D01*
X68604868Y-90978107D01*
X68617480Y-90999150D01*
X68627970Y-91021329D01*
X68636235Y-91044428D01*
X68642196Y-91068227D01*
X68645796Y-91092495D01*
X68647000Y-91116999D01*
X68647000Y-92017001D01*
X68645796Y-92041505D01*
X68642196Y-92065773D01*
X68636235Y-92089572D01*
X68627970Y-92112671D01*
X68617480Y-92134850D01*
X68604868Y-92155893D01*
X68590253Y-92175599D01*
X68573777Y-92193777D01*
X68555599Y-92210253D01*
X68535893Y-92224868D01*
X68514850Y-92237480D01*
X68492671Y-92247970D01*
X68469572Y-92256235D01*
X68445773Y-92262196D01*
X68421505Y-92265796D01*
X68397001Y-92267000D01*
X67746999Y-92267000D01*
X67722495Y-92265796D01*
X67698227Y-92262196D01*
X67674428Y-92256235D01*
X67651329Y-92247970D01*
X67629150Y-92237480D01*
X67608107Y-92224868D01*
X67588401Y-92210253D01*
X67570223Y-92193777D01*
X67553747Y-92175599D01*
X67539132Y-92155893D01*
X67526520Y-92134850D01*
X67516030Y-92112671D01*
X67507765Y-92089572D01*
X67501804Y-92065773D01*
X67498204Y-92041505D01*
X67497000Y-92017001D01*
X67497000Y-91116999D01*
X67498204Y-91092495D01*
X67501804Y-91068227D01*
X67507765Y-91044428D01*
X67516030Y-91021329D01*
X67526520Y-90999150D01*
X67539132Y-90978107D01*
X67553747Y-90958401D01*
X67570223Y-90940223D01*
X67588401Y-90923747D01*
X67608107Y-90909132D01*
X67629150Y-90896520D01*
X67651329Y-90886030D01*
X67674428Y-90877765D01*
X67698227Y-90871804D01*
X67722495Y-90868204D01*
X67746999Y-90867000D01*
X68397001Y-90867000D01*
X68421505Y-90868204D01*
X68421505Y-90868204D01*
G37*
D12*
X68072000Y-91567000D03*
G04 #@! TD*
D11*
G04 #@! TO.C,D7*
G36*
X68421505Y-87693204D02*
X68445773Y-87696804D01*
X68469572Y-87702765D01*
X68492671Y-87711030D01*
X68514850Y-87721520D01*
X68535893Y-87734132D01*
X68555599Y-87748747D01*
X68573777Y-87765223D01*
X68590253Y-87783401D01*
X68604868Y-87803107D01*
X68617480Y-87824150D01*
X68627970Y-87846329D01*
X68636235Y-87869428D01*
X68642196Y-87893227D01*
X68645796Y-87917495D01*
X68647000Y-87941999D01*
X68647000Y-88842001D01*
X68645796Y-88866505D01*
X68642196Y-88890773D01*
X68636235Y-88914572D01*
X68627970Y-88937671D01*
X68617480Y-88959850D01*
X68604868Y-88980893D01*
X68590253Y-89000599D01*
X68573777Y-89018777D01*
X68555599Y-89035253D01*
X68535893Y-89049868D01*
X68514850Y-89062480D01*
X68492671Y-89072970D01*
X68469572Y-89081235D01*
X68445773Y-89087196D01*
X68421505Y-89090796D01*
X68397001Y-89092000D01*
X67746999Y-89092000D01*
X67722495Y-89090796D01*
X67698227Y-89087196D01*
X67674428Y-89081235D01*
X67651329Y-89072970D01*
X67629150Y-89062480D01*
X67608107Y-89049868D01*
X67588401Y-89035253D01*
X67570223Y-89018777D01*
X67553747Y-89000599D01*
X67539132Y-88980893D01*
X67526520Y-88959850D01*
X67516030Y-88937671D01*
X67507765Y-88914572D01*
X67501804Y-88890773D01*
X67498204Y-88866505D01*
X67497000Y-88842001D01*
X67497000Y-87941999D01*
X67498204Y-87917495D01*
X67501804Y-87893227D01*
X67507765Y-87869428D01*
X67516030Y-87846329D01*
X67526520Y-87824150D01*
X67539132Y-87803107D01*
X67553747Y-87783401D01*
X67570223Y-87765223D01*
X67588401Y-87748747D01*
X67608107Y-87734132D01*
X67629150Y-87721520D01*
X67651329Y-87711030D01*
X67674428Y-87702765D01*
X67698227Y-87696804D01*
X67722495Y-87693204D01*
X67746999Y-87692000D01*
X68397001Y-87692000D01*
X68421505Y-87693204D01*
X68421505Y-87693204D01*
G37*
D12*
X68072000Y-88392000D03*
D11*
G36*
X66371505Y-87693204D02*
X66395773Y-87696804D01*
X66419572Y-87702765D01*
X66442671Y-87711030D01*
X66464850Y-87721520D01*
X66485893Y-87734132D01*
X66505599Y-87748747D01*
X66523777Y-87765223D01*
X66540253Y-87783401D01*
X66554868Y-87803107D01*
X66567480Y-87824150D01*
X66577970Y-87846329D01*
X66586235Y-87869428D01*
X66592196Y-87893227D01*
X66595796Y-87917495D01*
X66597000Y-87941999D01*
X66597000Y-88842001D01*
X66595796Y-88866505D01*
X66592196Y-88890773D01*
X66586235Y-88914572D01*
X66577970Y-88937671D01*
X66567480Y-88959850D01*
X66554868Y-88980893D01*
X66540253Y-89000599D01*
X66523777Y-89018777D01*
X66505599Y-89035253D01*
X66485893Y-89049868D01*
X66464850Y-89062480D01*
X66442671Y-89072970D01*
X66419572Y-89081235D01*
X66395773Y-89087196D01*
X66371505Y-89090796D01*
X66347001Y-89092000D01*
X65696999Y-89092000D01*
X65672495Y-89090796D01*
X65648227Y-89087196D01*
X65624428Y-89081235D01*
X65601329Y-89072970D01*
X65579150Y-89062480D01*
X65558107Y-89049868D01*
X65538401Y-89035253D01*
X65520223Y-89018777D01*
X65503747Y-89000599D01*
X65489132Y-88980893D01*
X65476520Y-88959850D01*
X65466030Y-88937671D01*
X65457765Y-88914572D01*
X65451804Y-88890773D01*
X65448204Y-88866505D01*
X65447000Y-88842001D01*
X65447000Y-87941999D01*
X65448204Y-87917495D01*
X65451804Y-87893227D01*
X65457765Y-87869428D01*
X65466030Y-87846329D01*
X65476520Y-87824150D01*
X65489132Y-87803107D01*
X65503747Y-87783401D01*
X65520223Y-87765223D01*
X65538401Y-87748747D01*
X65558107Y-87734132D01*
X65579150Y-87721520D01*
X65601329Y-87711030D01*
X65624428Y-87702765D01*
X65648227Y-87696804D01*
X65672495Y-87693204D01*
X65696999Y-87692000D01*
X66347001Y-87692000D01*
X66371505Y-87693204D01*
X66371505Y-87693204D01*
G37*
D12*
X66022000Y-88392000D03*
G04 #@! TD*
D11*
G04 #@! TO.C,D8*
G36*
X66371505Y-84518204D02*
X66395773Y-84521804D01*
X66419572Y-84527765D01*
X66442671Y-84536030D01*
X66464850Y-84546520D01*
X66485893Y-84559132D01*
X66505599Y-84573747D01*
X66523777Y-84590223D01*
X66540253Y-84608401D01*
X66554868Y-84628107D01*
X66567480Y-84649150D01*
X66577970Y-84671329D01*
X66586235Y-84694428D01*
X66592196Y-84718227D01*
X66595796Y-84742495D01*
X66597000Y-84766999D01*
X66597000Y-85667001D01*
X66595796Y-85691505D01*
X66592196Y-85715773D01*
X66586235Y-85739572D01*
X66577970Y-85762671D01*
X66567480Y-85784850D01*
X66554868Y-85805893D01*
X66540253Y-85825599D01*
X66523777Y-85843777D01*
X66505599Y-85860253D01*
X66485893Y-85874868D01*
X66464850Y-85887480D01*
X66442671Y-85897970D01*
X66419572Y-85906235D01*
X66395773Y-85912196D01*
X66371505Y-85915796D01*
X66347001Y-85917000D01*
X65696999Y-85917000D01*
X65672495Y-85915796D01*
X65648227Y-85912196D01*
X65624428Y-85906235D01*
X65601329Y-85897970D01*
X65579150Y-85887480D01*
X65558107Y-85874868D01*
X65538401Y-85860253D01*
X65520223Y-85843777D01*
X65503747Y-85825599D01*
X65489132Y-85805893D01*
X65476520Y-85784850D01*
X65466030Y-85762671D01*
X65457765Y-85739572D01*
X65451804Y-85715773D01*
X65448204Y-85691505D01*
X65447000Y-85667001D01*
X65447000Y-84766999D01*
X65448204Y-84742495D01*
X65451804Y-84718227D01*
X65457765Y-84694428D01*
X65466030Y-84671329D01*
X65476520Y-84649150D01*
X65489132Y-84628107D01*
X65503747Y-84608401D01*
X65520223Y-84590223D01*
X65538401Y-84573747D01*
X65558107Y-84559132D01*
X65579150Y-84546520D01*
X65601329Y-84536030D01*
X65624428Y-84527765D01*
X65648227Y-84521804D01*
X65672495Y-84518204D01*
X65696999Y-84517000D01*
X66347001Y-84517000D01*
X66371505Y-84518204D01*
X66371505Y-84518204D01*
G37*
D12*
X66022000Y-85217000D03*
D11*
G36*
X68421505Y-84518204D02*
X68445773Y-84521804D01*
X68469572Y-84527765D01*
X68492671Y-84536030D01*
X68514850Y-84546520D01*
X68535893Y-84559132D01*
X68555599Y-84573747D01*
X68573777Y-84590223D01*
X68590253Y-84608401D01*
X68604868Y-84628107D01*
X68617480Y-84649150D01*
X68627970Y-84671329D01*
X68636235Y-84694428D01*
X68642196Y-84718227D01*
X68645796Y-84742495D01*
X68647000Y-84766999D01*
X68647000Y-85667001D01*
X68645796Y-85691505D01*
X68642196Y-85715773D01*
X68636235Y-85739572D01*
X68627970Y-85762671D01*
X68617480Y-85784850D01*
X68604868Y-85805893D01*
X68590253Y-85825599D01*
X68573777Y-85843777D01*
X68555599Y-85860253D01*
X68535893Y-85874868D01*
X68514850Y-85887480D01*
X68492671Y-85897970D01*
X68469572Y-85906235D01*
X68445773Y-85912196D01*
X68421505Y-85915796D01*
X68397001Y-85917000D01*
X67746999Y-85917000D01*
X67722495Y-85915796D01*
X67698227Y-85912196D01*
X67674428Y-85906235D01*
X67651329Y-85897970D01*
X67629150Y-85887480D01*
X67608107Y-85874868D01*
X67588401Y-85860253D01*
X67570223Y-85843777D01*
X67553747Y-85825599D01*
X67539132Y-85805893D01*
X67526520Y-85784850D01*
X67516030Y-85762671D01*
X67507765Y-85739572D01*
X67501804Y-85715773D01*
X67498204Y-85691505D01*
X67497000Y-85667001D01*
X67497000Y-84766999D01*
X67498204Y-84742495D01*
X67501804Y-84718227D01*
X67507765Y-84694428D01*
X67516030Y-84671329D01*
X67526520Y-84649150D01*
X67539132Y-84628107D01*
X67553747Y-84608401D01*
X67570223Y-84590223D01*
X67588401Y-84573747D01*
X67608107Y-84559132D01*
X67629150Y-84546520D01*
X67651329Y-84536030D01*
X67674428Y-84527765D01*
X67698227Y-84521804D01*
X67722495Y-84518204D01*
X67746999Y-84517000D01*
X68397001Y-84517000D01*
X68421505Y-84518204D01*
X68421505Y-84518204D01*
G37*
D12*
X68072000Y-85217000D03*
G04 #@! TD*
D11*
G04 #@! TO.C,D9*
G36*
X113824005Y-107568704D02*
X113848273Y-107572304D01*
X113872072Y-107578265D01*
X113895171Y-107586530D01*
X113917350Y-107597020D01*
X113938393Y-107609632D01*
X113958099Y-107624247D01*
X113976277Y-107640723D01*
X113992753Y-107658901D01*
X114007368Y-107678607D01*
X114019980Y-107699650D01*
X114030470Y-107721829D01*
X114038735Y-107744928D01*
X114044696Y-107768727D01*
X114048296Y-107792995D01*
X114049500Y-107817499D01*
X114049500Y-108717501D01*
X114048296Y-108742005D01*
X114044696Y-108766273D01*
X114038735Y-108790072D01*
X114030470Y-108813171D01*
X114019980Y-108835350D01*
X114007368Y-108856393D01*
X113992753Y-108876099D01*
X113976277Y-108894277D01*
X113958099Y-108910753D01*
X113938393Y-108925368D01*
X113917350Y-108937980D01*
X113895171Y-108948470D01*
X113872072Y-108956735D01*
X113848273Y-108962696D01*
X113824005Y-108966296D01*
X113799501Y-108967500D01*
X113149499Y-108967500D01*
X113124995Y-108966296D01*
X113100727Y-108962696D01*
X113076928Y-108956735D01*
X113053829Y-108948470D01*
X113031650Y-108937980D01*
X113010607Y-108925368D01*
X112990901Y-108910753D01*
X112972723Y-108894277D01*
X112956247Y-108876099D01*
X112941632Y-108856393D01*
X112929020Y-108835350D01*
X112918530Y-108813171D01*
X112910265Y-108790072D01*
X112904304Y-108766273D01*
X112900704Y-108742005D01*
X112899500Y-108717501D01*
X112899500Y-107817499D01*
X112900704Y-107792995D01*
X112904304Y-107768727D01*
X112910265Y-107744928D01*
X112918530Y-107721829D01*
X112929020Y-107699650D01*
X112941632Y-107678607D01*
X112956247Y-107658901D01*
X112972723Y-107640723D01*
X112990901Y-107624247D01*
X113010607Y-107609632D01*
X113031650Y-107597020D01*
X113053829Y-107586530D01*
X113076928Y-107578265D01*
X113100727Y-107572304D01*
X113124995Y-107568704D01*
X113149499Y-107567500D01*
X113799501Y-107567500D01*
X113824005Y-107568704D01*
X113824005Y-107568704D01*
G37*
D12*
X113474500Y-108267500D03*
D11*
G36*
X111774005Y-107568704D02*
X111798273Y-107572304D01*
X111822072Y-107578265D01*
X111845171Y-107586530D01*
X111867350Y-107597020D01*
X111888393Y-107609632D01*
X111908099Y-107624247D01*
X111926277Y-107640723D01*
X111942753Y-107658901D01*
X111957368Y-107678607D01*
X111969980Y-107699650D01*
X111980470Y-107721829D01*
X111988735Y-107744928D01*
X111994696Y-107768727D01*
X111998296Y-107792995D01*
X111999500Y-107817499D01*
X111999500Y-108717501D01*
X111998296Y-108742005D01*
X111994696Y-108766273D01*
X111988735Y-108790072D01*
X111980470Y-108813171D01*
X111969980Y-108835350D01*
X111957368Y-108856393D01*
X111942753Y-108876099D01*
X111926277Y-108894277D01*
X111908099Y-108910753D01*
X111888393Y-108925368D01*
X111867350Y-108937980D01*
X111845171Y-108948470D01*
X111822072Y-108956735D01*
X111798273Y-108962696D01*
X111774005Y-108966296D01*
X111749501Y-108967500D01*
X111099499Y-108967500D01*
X111074995Y-108966296D01*
X111050727Y-108962696D01*
X111026928Y-108956735D01*
X111003829Y-108948470D01*
X110981650Y-108937980D01*
X110960607Y-108925368D01*
X110940901Y-108910753D01*
X110922723Y-108894277D01*
X110906247Y-108876099D01*
X110891632Y-108856393D01*
X110879020Y-108835350D01*
X110868530Y-108813171D01*
X110860265Y-108790072D01*
X110854304Y-108766273D01*
X110850704Y-108742005D01*
X110849500Y-108717501D01*
X110849500Y-107817499D01*
X110850704Y-107792995D01*
X110854304Y-107768727D01*
X110860265Y-107744928D01*
X110868530Y-107721829D01*
X110879020Y-107699650D01*
X110891632Y-107678607D01*
X110906247Y-107658901D01*
X110922723Y-107640723D01*
X110940901Y-107624247D01*
X110960607Y-107609632D01*
X110981650Y-107597020D01*
X111003829Y-107586530D01*
X111026928Y-107578265D01*
X111050727Y-107572304D01*
X111074995Y-107568704D01*
X111099499Y-107567500D01*
X111749501Y-107567500D01*
X111774005Y-107568704D01*
X111774005Y-107568704D01*
G37*
D12*
X111424500Y-108267500D03*
G04 #@! TD*
D11*
G04 #@! TO.C,D10*
G36*
X111774005Y-104139704D02*
X111798273Y-104143304D01*
X111822072Y-104149265D01*
X111845171Y-104157530D01*
X111867350Y-104168020D01*
X111888393Y-104180632D01*
X111908099Y-104195247D01*
X111926277Y-104211723D01*
X111942753Y-104229901D01*
X111957368Y-104249607D01*
X111969980Y-104270650D01*
X111980470Y-104292829D01*
X111988735Y-104315928D01*
X111994696Y-104339727D01*
X111998296Y-104363995D01*
X111999500Y-104388499D01*
X111999500Y-105288501D01*
X111998296Y-105313005D01*
X111994696Y-105337273D01*
X111988735Y-105361072D01*
X111980470Y-105384171D01*
X111969980Y-105406350D01*
X111957368Y-105427393D01*
X111942753Y-105447099D01*
X111926277Y-105465277D01*
X111908099Y-105481753D01*
X111888393Y-105496368D01*
X111867350Y-105508980D01*
X111845171Y-105519470D01*
X111822072Y-105527735D01*
X111798273Y-105533696D01*
X111774005Y-105537296D01*
X111749501Y-105538500D01*
X111099499Y-105538500D01*
X111074995Y-105537296D01*
X111050727Y-105533696D01*
X111026928Y-105527735D01*
X111003829Y-105519470D01*
X110981650Y-105508980D01*
X110960607Y-105496368D01*
X110940901Y-105481753D01*
X110922723Y-105465277D01*
X110906247Y-105447099D01*
X110891632Y-105427393D01*
X110879020Y-105406350D01*
X110868530Y-105384171D01*
X110860265Y-105361072D01*
X110854304Y-105337273D01*
X110850704Y-105313005D01*
X110849500Y-105288501D01*
X110849500Y-104388499D01*
X110850704Y-104363995D01*
X110854304Y-104339727D01*
X110860265Y-104315928D01*
X110868530Y-104292829D01*
X110879020Y-104270650D01*
X110891632Y-104249607D01*
X110906247Y-104229901D01*
X110922723Y-104211723D01*
X110940901Y-104195247D01*
X110960607Y-104180632D01*
X110981650Y-104168020D01*
X111003829Y-104157530D01*
X111026928Y-104149265D01*
X111050727Y-104143304D01*
X111074995Y-104139704D01*
X111099499Y-104138500D01*
X111749501Y-104138500D01*
X111774005Y-104139704D01*
X111774005Y-104139704D01*
G37*
D12*
X111424500Y-104838500D03*
D11*
G36*
X113824005Y-104139704D02*
X113848273Y-104143304D01*
X113872072Y-104149265D01*
X113895171Y-104157530D01*
X113917350Y-104168020D01*
X113938393Y-104180632D01*
X113958099Y-104195247D01*
X113976277Y-104211723D01*
X113992753Y-104229901D01*
X114007368Y-104249607D01*
X114019980Y-104270650D01*
X114030470Y-104292829D01*
X114038735Y-104315928D01*
X114044696Y-104339727D01*
X114048296Y-104363995D01*
X114049500Y-104388499D01*
X114049500Y-105288501D01*
X114048296Y-105313005D01*
X114044696Y-105337273D01*
X114038735Y-105361072D01*
X114030470Y-105384171D01*
X114019980Y-105406350D01*
X114007368Y-105427393D01*
X113992753Y-105447099D01*
X113976277Y-105465277D01*
X113958099Y-105481753D01*
X113938393Y-105496368D01*
X113917350Y-105508980D01*
X113895171Y-105519470D01*
X113872072Y-105527735D01*
X113848273Y-105533696D01*
X113824005Y-105537296D01*
X113799501Y-105538500D01*
X113149499Y-105538500D01*
X113124995Y-105537296D01*
X113100727Y-105533696D01*
X113076928Y-105527735D01*
X113053829Y-105519470D01*
X113031650Y-105508980D01*
X113010607Y-105496368D01*
X112990901Y-105481753D01*
X112972723Y-105465277D01*
X112956247Y-105447099D01*
X112941632Y-105427393D01*
X112929020Y-105406350D01*
X112918530Y-105384171D01*
X112910265Y-105361072D01*
X112904304Y-105337273D01*
X112900704Y-105313005D01*
X112899500Y-105288501D01*
X112899500Y-104388499D01*
X112900704Y-104363995D01*
X112904304Y-104339727D01*
X112910265Y-104315928D01*
X112918530Y-104292829D01*
X112929020Y-104270650D01*
X112941632Y-104249607D01*
X112956247Y-104229901D01*
X112972723Y-104211723D01*
X112990901Y-104195247D01*
X113010607Y-104180632D01*
X113031650Y-104168020D01*
X113053829Y-104157530D01*
X113076928Y-104149265D01*
X113100727Y-104143304D01*
X113124995Y-104139704D01*
X113149499Y-104138500D01*
X113799501Y-104138500D01*
X113824005Y-104139704D01*
X113824005Y-104139704D01*
G37*
D12*
X113474500Y-104838500D03*
G04 #@! TD*
D11*
G04 #@! TO.C,D11*
G36*
X113824005Y-100964704D02*
X113848273Y-100968304D01*
X113872072Y-100974265D01*
X113895171Y-100982530D01*
X113917350Y-100993020D01*
X113938393Y-101005632D01*
X113958099Y-101020247D01*
X113976277Y-101036723D01*
X113992753Y-101054901D01*
X114007368Y-101074607D01*
X114019980Y-101095650D01*
X114030470Y-101117829D01*
X114038735Y-101140928D01*
X114044696Y-101164727D01*
X114048296Y-101188995D01*
X114049500Y-101213499D01*
X114049500Y-102113501D01*
X114048296Y-102138005D01*
X114044696Y-102162273D01*
X114038735Y-102186072D01*
X114030470Y-102209171D01*
X114019980Y-102231350D01*
X114007368Y-102252393D01*
X113992753Y-102272099D01*
X113976277Y-102290277D01*
X113958099Y-102306753D01*
X113938393Y-102321368D01*
X113917350Y-102333980D01*
X113895171Y-102344470D01*
X113872072Y-102352735D01*
X113848273Y-102358696D01*
X113824005Y-102362296D01*
X113799501Y-102363500D01*
X113149499Y-102363500D01*
X113124995Y-102362296D01*
X113100727Y-102358696D01*
X113076928Y-102352735D01*
X113053829Y-102344470D01*
X113031650Y-102333980D01*
X113010607Y-102321368D01*
X112990901Y-102306753D01*
X112972723Y-102290277D01*
X112956247Y-102272099D01*
X112941632Y-102252393D01*
X112929020Y-102231350D01*
X112918530Y-102209171D01*
X112910265Y-102186072D01*
X112904304Y-102162273D01*
X112900704Y-102138005D01*
X112899500Y-102113501D01*
X112899500Y-101213499D01*
X112900704Y-101188995D01*
X112904304Y-101164727D01*
X112910265Y-101140928D01*
X112918530Y-101117829D01*
X112929020Y-101095650D01*
X112941632Y-101074607D01*
X112956247Y-101054901D01*
X112972723Y-101036723D01*
X112990901Y-101020247D01*
X113010607Y-101005632D01*
X113031650Y-100993020D01*
X113053829Y-100982530D01*
X113076928Y-100974265D01*
X113100727Y-100968304D01*
X113124995Y-100964704D01*
X113149499Y-100963500D01*
X113799501Y-100963500D01*
X113824005Y-100964704D01*
X113824005Y-100964704D01*
G37*
D12*
X113474500Y-101663500D03*
D11*
G36*
X111774005Y-100964704D02*
X111798273Y-100968304D01*
X111822072Y-100974265D01*
X111845171Y-100982530D01*
X111867350Y-100993020D01*
X111888393Y-101005632D01*
X111908099Y-101020247D01*
X111926277Y-101036723D01*
X111942753Y-101054901D01*
X111957368Y-101074607D01*
X111969980Y-101095650D01*
X111980470Y-101117829D01*
X111988735Y-101140928D01*
X111994696Y-101164727D01*
X111998296Y-101188995D01*
X111999500Y-101213499D01*
X111999500Y-102113501D01*
X111998296Y-102138005D01*
X111994696Y-102162273D01*
X111988735Y-102186072D01*
X111980470Y-102209171D01*
X111969980Y-102231350D01*
X111957368Y-102252393D01*
X111942753Y-102272099D01*
X111926277Y-102290277D01*
X111908099Y-102306753D01*
X111888393Y-102321368D01*
X111867350Y-102333980D01*
X111845171Y-102344470D01*
X111822072Y-102352735D01*
X111798273Y-102358696D01*
X111774005Y-102362296D01*
X111749501Y-102363500D01*
X111099499Y-102363500D01*
X111074995Y-102362296D01*
X111050727Y-102358696D01*
X111026928Y-102352735D01*
X111003829Y-102344470D01*
X110981650Y-102333980D01*
X110960607Y-102321368D01*
X110940901Y-102306753D01*
X110922723Y-102290277D01*
X110906247Y-102272099D01*
X110891632Y-102252393D01*
X110879020Y-102231350D01*
X110868530Y-102209171D01*
X110860265Y-102186072D01*
X110854304Y-102162273D01*
X110850704Y-102138005D01*
X110849500Y-102113501D01*
X110849500Y-101213499D01*
X110850704Y-101188995D01*
X110854304Y-101164727D01*
X110860265Y-101140928D01*
X110868530Y-101117829D01*
X110879020Y-101095650D01*
X110891632Y-101074607D01*
X110906247Y-101054901D01*
X110922723Y-101036723D01*
X110940901Y-101020247D01*
X110960607Y-101005632D01*
X110981650Y-100993020D01*
X111003829Y-100982530D01*
X111026928Y-100974265D01*
X111050727Y-100968304D01*
X111074995Y-100964704D01*
X111099499Y-100963500D01*
X111749501Y-100963500D01*
X111774005Y-100964704D01*
X111774005Y-100964704D01*
G37*
D12*
X111424500Y-101663500D03*
G04 #@! TD*
D11*
G04 #@! TO.C,D12*
G36*
X111774005Y-97662704D02*
X111798273Y-97666304D01*
X111822072Y-97672265D01*
X111845171Y-97680530D01*
X111867350Y-97691020D01*
X111888393Y-97703632D01*
X111908099Y-97718247D01*
X111926277Y-97734723D01*
X111942753Y-97752901D01*
X111957368Y-97772607D01*
X111969980Y-97793650D01*
X111980470Y-97815829D01*
X111988735Y-97838928D01*
X111994696Y-97862727D01*
X111998296Y-97886995D01*
X111999500Y-97911499D01*
X111999500Y-98811501D01*
X111998296Y-98836005D01*
X111994696Y-98860273D01*
X111988735Y-98884072D01*
X111980470Y-98907171D01*
X111969980Y-98929350D01*
X111957368Y-98950393D01*
X111942753Y-98970099D01*
X111926277Y-98988277D01*
X111908099Y-99004753D01*
X111888393Y-99019368D01*
X111867350Y-99031980D01*
X111845171Y-99042470D01*
X111822072Y-99050735D01*
X111798273Y-99056696D01*
X111774005Y-99060296D01*
X111749501Y-99061500D01*
X111099499Y-99061500D01*
X111074995Y-99060296D01*
X111050727Y-99056696D01*
X111026928Y-99050735D01*
X111003829Y-99042470D01*
X110981650Y-99031980D01*
X110960607Y-99019368D01*
X110940901Y-99004753D01*
X110922723Y-98988277D01*
X110906247Y-98970099D01*
X110891632Y-98950393D01*
X110879020Y-98929350D01*
X110868530Y-98907171D01*
X110860265Y-98884072D01*
X110854304Y-98860273D01*
X110850704Y-98836005D01*
X110849500Y-98811501D01*
X110849500Y-97911499D01*
X110850704Y-97886995D01*
X110854304Y-97862727D01*
X110860265Y-97838928D01*
X110868530Y-97815829D01*
X110879020Y-97793650D01*
X110891632Y-97772607D01*
X110906247Y-97752901D01*
X110922723Y-97734723D01*
X110940901Y-97718247D01*
X110960607Y-97703632D01*
X110981650Y-97691020D01*
X111003829Y-97680530D01*
X111026928Y-97672265D01*
X111050727Y-97666304D01*
X111074995Y-97662704D01*
X111099499Y-97661500D01*
X111749501Y-97661500D01*
X111774005Y-97662704D01*
X111774005Y-97662704D01*
G37*
D12*
X111424500Y-98361500D03*
D11*
G36*
X113824005Y-97662704D02*
X113848273Y-97666304D01*
X113872072Y-97672265D01*
X113895171Y-97680530D01*
X113917350Y-97691020D01*
X113938393Y-97703632D01*
X113958099Y-97718247D01*
X113976277Y-97734723D01*
X113992753Y-97752901D01*
X114007368Y-97772607D01*
X114019980Y-97793650D01*
X114030470Y-97815829D01*
X114038735Y-97838928D01*
X114044696Y-97862727D01*
X114048296Y-97886995D01*
X114049500Y-97911499D01*
X114049500Y-98811501D01*
X114048296Y-98836005D01*
X114044696Y-98860273D01*
X114038735Y-98884072D01*
X114030470Y-98907171D01*
X114019980Y-98929350D01*
X114007368Y-98950393D01*
X113992753Y-98970099D01*
X113976277Y-98988277D01*
X113958099Y-99004753D01*
X113938393Y-99019368D01*
X113917350Y-99031980D01*
X113895171Y-99042470D01*
X113872072Y-99050735D01*
X113848273Y-99056696D01*
X113824005Y-99060296D01*
X113799501Y-99061500D01*
X113149499Y-99061500D01*
X113124995Y-99060296D01*
X113100727Y-99056696D01*
X113076928Y-99050735D01*
X113053829Y-99042470D01*
X113031650Y-99031980D01*
X113010607Y-99019368D01*
X112990901Y-99004753D01*
X112972723Y-98988277D01*
X112956247Y-98970099D01*
X112941632Y-98950393D01*
X112929020Y-98929350D01*
X112918530Y-98907171D01*
X112910265Y-98884072D01*
X112904304Y-98860273D01*
X112900704Y-98836005D01*
X112899500Y-98811501D01*
X112899500Y-97911499D01*
X112900704Y-97886995D01*
X112904304Y-97862727D01*
X112910265Y-97838928D01*
X112918530Y-97815829D01*
X112929020Y-97793650D01*
X112941632Y-97772607D01*
X112956247Y-97752901D01*
X112972723Y-97734723D01*
X112990901Y-97718247D01*
X113010607Y-97703632D01*
X113031650Y-97691020D01*
X113053829Y-97680530D01*
X113076928Y-97672265D01*
X113100727Y-97666304D01*
X113124995Y-97662704D01*
X113149499Y-97661500D01*
X113799501Y-97661500D01*
X113824005Y-97662704D01*
X113824005Y-97662704D01*
G37*
D12*
X113474500Y-98361500D03*
G04 #@! TD*
D11*
G04 #@! TO.C,D13*
G36*
X113760505Y-94487704D02*
X113784773Y-94491304D01*
X113808572Y-94497265D01*
X113831671Y-94505530D01*
X113853850Y-94516020D01*
X113874893Y-94528632D01*
X113894599Y-94543247D01*
X113912777Y-94559723D01*
X113929253Y-94577901D01*
X113943868Y-94597607D01*
X113956480Y-94618650D01*
X113966970Y-94640829D01*
X113975235Y-94663928D01*
X113981196Y-94687727D01*
X113984796Y-94711995D01*
X113986000Y-94736499D01*
X113986000Y-95636501D01*
X113984796Y-95661005D01*
X113981196Y-95685273D01*
X113975235Y-95709072D01*
X113966970Y-95732171D01*
X113956480Y-95754350D01*
X113943868Y-95775393D01*
X113929253Y-95795099D01*
X113912777Y-95813277D01*
X113894599Y-95829753D01*
X113874893Y-95844368D01*
X113853850Y-95856980D01*
X113831671Y-95867470D01*
X113808572Y-95875735D01*
X113784773Y-95881696D01*
X113760505Y-95885296D01*
X113736001Y-95886500D01*
X113085999Y-95886500D01*
X113061495Y-95885296D01*
X113037227Y-95881696D01*
X113013428Y-95875735D01*
X112990329Y-95867470D01*
X112968150Y-95856980D01*
X112947107Y-95844368D01*
X112927401Y-95829753D01*
X112909223Y-95813277D01*
X112892747Y-95795099D01*
X112878132Y-95775393D01*
X112865520Y-95754350D01*
X112855030Y-95732171D01*
X112846765Y-95709072D01*
X112840804Y-95685273D01*
X112837204Y-95661005D01*
X112836000Y-95636501D01*
X112836000Y-94736499D01*
X112837204Y-94711995D01*
X112840804Y-94687727D01*
X112846765Y-94663928D01*
X112855030Y-94640829D01*
X112865520Y-94618650D01*
X112878132Y-94597607D01*
X112892747Y-94577901D01*
X112909223Y-94559723D01*
X112927401Y-94543247D01*
X112947107Y-94528632D01*
X112968150Y-94516020D01*
X112990329Y-94505530D01*
X113013428Y-94497265D01*
X113037227Y-94491304D01*
X113061495Y-94487704D01*
X113085999Y-94486500D01*
X113736001Y-94486500D01*
X113760505Y-94487704D01*
X113760505Y-94487704D01*
G37*
D12*
X113411000Y-95186500D03*
D11*
G36*
X111710505Y-94487704D02*
X111734773Y-94491304D01*
X111758572Y-94497265D01*
X111781671Y-94505530D01*
X111803850Y-94516020D01*
X111824893Y-94528632D01*
X111844599Y-94543247D01*
X111862777Y-94559723D01*
X111879253Y-94577901D01*
X111893868Y-94597607D01*
X111906480Y-94618650D01*
X111916970Y-94640829D01*
X111925235Y-94663928D01*
X111931196Y-94687727D01*
X111934796Y-94711995D01*
X111936000Y-94736499D01*
X111936000Y-95636501D01*
X111934796Y-95661005D01*
X111931196Y-95685273D01*
X111925235Y-95709072D01*
X111916970Y-95732171D01*
X111906480Y-95754350D01*
X111893868Y-95775393D01*
X111879253Y-95795099D01*
X111862777Y-95813277D01*
X111844599Y-95829753D01*
X111824893Y-95844368D01*
X111803850Y-95856980D01*
X111781671Y-95867470D01*
X111758572Y-95875735D01*
X111734773Y-95881696D01*
X111710505Y-95885296D01*
X111686001Y-95886500D01*
X111035999Y-95886500D01*
X111011495Y-95885296D01*
X110987227Y-95881696D01*
X110963428Y-95875735D01*
X110940329Y-95867470D01*
X110918150Y-95856980D01*
X110897107Y-95844368D01*
X110877401Y-95829753D01*
X110859223Y-95813277D01*
X110842747Y-95795099D01*
X110828132Y-95775393D01*
X110815520Y-95754350D01*
X110805030Y-95732171D01*
X110796765Y-95709072D01*
X110790804Y-95685273D01*
X110787204Y-95661005D01*
X110786000Y-95636501D01*
X110786000Y-94736499D01*
X110787204Y-94711995D01*
X110790804Y-94687727D01*
X110796765Y-94663928D01*
X110805030Y-94640829D01*
X110815520Y-94618650D01*
X110828132Y-94597607D01*
X110842747Y-94577901D01*
X110859223Y-94559723D01*
X110877401Y-94543247D01*
X110897107Y-94528632D01*
X110918150Y-94516020D01*
X110940329Y-94505530D01*
X110963428Y-94497265D01*
X110987227Y-94491304D01*
X111011495Y-94487704D01*
X111035999Y-94486500D01*
X111686001Y-94486500D01*
X111710505Y-94487704D01*
X111710505Y-94487704D01*
G37*
D12*
X111361000Y-95186500D03*
G04 #@! TD*
D11*
G04 #@! TO.C,D14*
G36*
X111710505Y-91439704D02*
X111734773Y-91443304D01*
X111758572Y-91449265D01*
X111781671Y-91457530D01*
X111803850Y-91468020D01*
X111824893Y-91480632D01*
X111844599Y-91495247D01*
X111862777Y-91511723D01*
X111879253Y-91529901D01*
X111893868Y-91549607D01*
X111906480Y-91570650D01*
X111916970Y-91592829D01*
X111925235Y-91615928D01*
X111931196Y-91639727D01*
X111934796Y-91663995D01*
X111936000Y-91688499D01*
X111936000Y-92588501D01*
X111934796Y-92613005D01*
X111931196Y-92637273D01*
X111925235Y-92661072D01*
X111916970Y-92684171D01*
X111906480Y-92706350D01*
X111893868Y-92727393D01*
X111879253Y-92747099D01*
X111862777Y-92765277D01*
X111844599Y-92781753D01*
X111824893Y-92796368D01*
X111803850Y-92808980D01*
X111781671Y-92819470D01*
X111758572Y-92827735D01*
X111734773Y-92833696D01*
X111710505Y-92837296D01*
X111686001Y-92838500D01*
X111035999Y-92838500D01*
X111011495Y-92837296D01*
X110987227Y-92833696D01*
X110963428Y-92827735D01*
X110940329Y-92819470D01*
X110918150Y-92808980D01*
X110897107Y-92796368D01*
X110877401Y-92781753D01*
X110859223Y-92765277D01*
X110842747Y-92747099D01*
X110828132Y-92727393D01*
X110815520Y-92706350D01*
X110805030Y-92684171D01*
X110796765Y-92661072D01*
X110790804Y-92637273D01*
X110787204Y-92613005D01*
X110786000Y-92588501D01*
X110786000Y-91688499D01*
X110787204Y-91663995D01*
X110790804Y-91639727D01*
X110796765Y-91615928D01*
X110805030Y-91592829D01*
X110815520Y-91570650D01*
X110828132Y-91549607D01*
X110842747Y-91529901D01*
X110859223Y-91511723D01*
X110877401Y-91495247D01*
X110897107Y-91480632D01*
X110918150Y-91468020D01*
X110940329Y-91457530D01*
X110963428Y-91449265D01*
X110987227Y-91443304D01*
X111011495Y-91439704D01*
X111035999Y-91438500D01*
X111686001Y-91438500D01*
X111710505Y-91439704D01*
X111710505Y-91439704D01*
G37*
D12*
X111361000Y-92138500D03*
D11*
G36*
X113760505Y-91439704D02*
X113784773Y-91443304D01*
X113808572Y-91449265D01*
X113831671Y-91457530D01*
X113853850Y-91468020D01*
X113874893Y-91480632D01*
X113894599Y-91495247D01*
X113912777Y-91511723D01*
X113929253Y-91529901D01*
X113943868Y-91549607D01*
X113956480Y-91570650D01*
X113966970Y-91592829D01*
X113975235Y-91615928D01*
X113981196Y-91639727D01*
X113984796Y-91663995D01*
X113986000Y-91688499D01*
X113986000Y-92588501D01*
X113984796Y-92613005D01*
X113981196Y-92637273D01*
X113975235Y-92661072D01*
X113966970Y-92684171D01*
X113956480Y-92706350D01*
X113943868Y-92727393D01*
X113929253Y-92747099D01*
X113912777Y-92765277D01*
X113894599Y-92781753D01*
X113874893Y-92796368D01*
X113853850Y-92808980D01*
X113831671Y-92819470D01*
X113808572Y-92827735D01*
X113784773Y-92833696D01*
X113760505Y-92837296D01*
X113736001Y-92838500D01*
X113085999Y-92838500D01*
X113061495Y-92837296D01*
X113037227Y-92833696D01*
X113013428Y-92827735D01*
X112990329Y-92819470D01*
X112968150Y-92808980D01*
X112947107Y-92796368D01*
X112927401Y-92781753D01*
X112909223Y-92765277D01*
X112892747Y-92747099D01*
X112878132Y-92727393D01*
X112865520Y-92706350D01*
X112855030Y-92684171D01*
X112846765Y-92661072D01*
X112840804Y-92637273D01*
X112837204Y-92613005D01*
X112836000Y-92588501D01*
X112836000Y-91688499D01*
X112837204Y-91663995D01*
X112840804Y-91639727D01*
X112846765Y-91615928D01*
X112855030Y-91592829D01*
X112865520Y-91570650D01*
X112878132Y-91549607D01*
X112892747Y-91529901D01*
X112909223Y-91511723D01*
X112927401Y-91495247D01*
X112947107Y-91480632D01*
X112968150Y-91468020D01*
X112990329Y-91457530D01*
X113013428Y-91449265D01*
X113037227Y-91443304D01*
X113061495Y-91439704D01*
X113085999Y-91438500D01*
X113736001Y-91438500D01*
X113760505Y-91439704D01*
X113760505Y-91439704D01*
G37*
D12*
X113411000Y-92138500D03*
G04 #@! TD*
D11*
G04 #@! TO.C,D15*
G36*
X113824005Y-87820204D02*
X113848273Y-87823804D01*
X113872072Y-87829765D01*
X113895171Y-87838030D01*
X113917350Y-87848520D01*
X113938393Y-87861132D01*
X113958099Y-87875747D01*
X113976277Y-87892223D01*
X113992753Y-87910401D01*
X114007368Y-87930107D01*
X114019980Y-87951150D01*
X114030470Y-87973329D01*
X114038735Y-87996428D01*
X114044696Y-88020227D01*
X114048296Y-88044495D01*
X114049500Y-88068999D01*
X114049500Y-88969001D01*
X114048296Y-88993505D01*
X114044696Y-89017773D01*
X114038735Y-89041572D01*
X114030470Y-89064671D01*
X114019980Y-89086850D01*
X114007368Y-89107893D01*
X113992753Y-89127599D01*
X113976277Y-89145777D01*
X113958099Y-89162253D01*
X113938393Y-89176868D01*
X113917350Y-89189480D01*
X113895171Y-89199970D01*
X113872072Y-89208235D01*
X113848273Y-89214196D01*
X113824005Y-89217796D01*
X113799501Y-89219000D01*
X113149499Y-89219000D01*
X113124995Y-89217796D01*
X113100727Y-89214196D01*
X113076928Y-89208235D01*
X113053829Y-89199970D01*
X113031650Y-89189480D01*
X113010607Y-89176868D01*
X112990901Y-89162253D01*
X112972723Y-89145777D01*
X112956247Y-89127599D01*
X112941632Y-89107893D01*
X112929020Y-89086850D01*
X112918530Y-89064671D01*
X112910265Y-89041572D01*
X112904304Y-89017773D01*
X112900704Y-88993505D01*
X112899500Y-88969001D01*
X112899500Y-88068999D01*
X112900704Y-88044495D01*
X112904304Y-88020227D01*
X112910265Y-87996428D01*
X112918530Y-87973329D01*
X112929020Y-87951150D01*
X112941632Y-87930107D01*
X112956247Y-87910401D01*
X112972723Y-87892223D01*
X112990901Y-87875747D01*
X113010607Y-87861132D01*
X113031650Y-87848520D01*
X113053829Y-87838030D01*
X113076928Y-87829765D01*
X113100727Y-87823804D01*
X113124995Y-87820204D01*
X113149499Y-87819000D01*
X113799501Y-87819000D01*
X113824005Y-87820204D01*
X113824005Y-87820204D01*
G37*
D12*
X113474500Y-88519000D03*
D11*
G36*
X111774005Y-87820204D02*
X111798273Y-87823804D01*
X111822072Y-87829765D01*
X111845171Y-87838030D01*
X111867350Y-87848520D01*
X111888393Y-87861132D01*
X111908099Y-87875747D01*
X111926277Y-87892223D01*
X111942753Y-87910401D01*
X111957368Y-87930107D01*
X111969980Y-87951150D01*
X111980470Y-87973329D01*
X111988735Y-87996428D01*
X111994696Y-88020227D01*
X111998296Y-88044495D01*
X111999500Y-88068999D01*
X111999500Y-88969001D01*
X111998296Y-88993505D01*
X111994696Y-89017773D01*
X111988735Y-89041572D01*
X111980470Y-89064671D01*
X111969980Y-89086850D01*
X111957368Y-89107893D01*
X111942753Y-89127599D01*
X111926277Y-89145777D01*
X111908099Y-89162253D01*
X111888393Y-89176868D01*
X111867350Y-89189480D01*
X111845171Y-89199970D01*
X111822072Y-89208235D01*
X111798273Y-89214196D01*
X111774005Y-89217796D01*
X111749501Y-89219000D01*
X111099499Y-89219000D01*
X111074995Y-89217796D01*
X111050727Y-89214196D01*
X111026928Y-89208235D01*
X111003829Y-89199970D01*
X110981650Y-89189480D01*
X110960607Y-89176868D01*
X110940901Y-89162253D01*
X110922723Y-89145777D01*
X110906247Y-89127599D01*
X110891632Y-89107893D01*
X110879020Y-89086850D01*
X110868530Y-89064671D01*
X110860265Y-89041572D01*
X110854304Y-89017773D01*
X110850704Y-88993505D01*
X110849500Y-88969001D01*
X110849500Y-88068999D01*
X110850704Y-88044495D01*
X110854304Y-88020227D01*
X110860265Y-87996428D01*
X110868530Y-87973329D01*
X110879020Y-87951150D01*
X110891632Y-87930107D01*
X110906247Y-87910401D01*
X110922723Y-87892223D01*
X110940901Y-87875747D01*
X110960607Y-87861132D01*
X110981650Y-87848520D01*
X111003829Y-87838030D01*
X111026928Y-87829765D01*
X111050727Y-87823804D01*
X111074995Y-87820204D01*
X111099499Y-87819000D01*
X111749501Y-87819000D01*
X111774005Y-87820204D01*
X111774005Y-87820204D01*
G37*
D12*
X111424500Y-88519000D03*
G04 #@! TD*
D11*
G04 #@! TO.C,D16*
G36*
X111774005Y-84391204D02*
X111798273Y-84394804D01*
X111822072Y-84400765D01*
X111845171Y-84409030D01*
X111867350Y-84419520D01*
X111888393Y-84432132D01*
X111908099Y-84446747D01*
X111926277Y-84463223D01*
X111942753Y-84481401D01*
X111957368Y-84501107D01*
X111969980Y-84522150D01*
X111980470Y-84544329D01*
X111988735Y-84567428D01*
X111994696Y-84591227D01*
X111998296Y-84615495D01*
X111999500Y-84639999D01*
X111999500Y-85540001D01*
X111998296Y-85564505D01*
X111994696Y-85588773D01*
X111988735Y-85612572D01*
X111980470Y-85635671D01*
X111969980Y-85657850D01*
X111957368Y-85678893D01*
X111942753Y-85698599D01*
X111926277Y-85716777D01*
X111908099Y-85733253D01*
X111888393Y-85747868D01*
X111867350Y-85760480D01*
X111845171Y-85770970D01*
X111822072Y-85779235D01*
X111798273Y-85785196D01*
X111774005Y-85788796D01*
X111749501Y-85790000D01*
X111099499Y-85790000D01*
X111074995Y-85788796D01*
X111050727Y-85785196D01*
X111026928Y-85779235D01*
X111003829Y-85770970D01*
X110981650Y-85760480D01*
X110960607Y-85747868D01*
X110940901Y-85733253D01*
X110922723Y-85716777D01*
X110906247Y-85698599D01*
X110891632Y-85678893D01*
X110879020Y-85657850D01*
X110868530Y-85635671D01*
X110860265Y-85612572D01*
X110854304Y-85588773D01*
X110850704Y-85564505D01*
X110849500Y-85540001D01*
X110849500Y-84639999D01*
X110850704Y-84615495D01*
X110854304Y-84591227D01*
X110860265Y-84567428D01*
X110868530Y-84544329D01*
X110879020Y-84522150D01*
X110891632Y-84501107D01*
X110906247Y-84481401D01*
X110922723Y-84463223D01*
X110940901Y-84446747D01*
X110960607Y-84432132D01*
X110981650Y-84419520D01*
X111003829Y-84409030D01*
X111026928Y-84400765D01*
X111050727Y-84394804D01*
X111074995Y-84391204D01*
X111099499Y-84390000D01*
X111749501Y-84390000D01*
X111774005Y-84391204D01*
X111774005Y-84391204D01*
G37*
D12*
X111424500Y-85090000D03*
D11*
G36*
X113824005Y-84391204D02*
X113848273Y-84394804D01*
X113872072Y-84400765D01*
X113895171Y-84409030D01*
X113917350Y-84419520D01*
X113938393Y-84432132D01*
X113958099Y-84446747D01*
X113976277Y-84463223D01*
X113992753Y-84481401D01*
X114007368Y-84501107D01*
X114019980Y-84522150D01*
X114030470Y-84544329D01*
X114038735Y-84567428D01*
X114044696Y-84591227D01*
X114048296Y-84615495D01*
X114049500Y-84639999D01*
X114049500Y-85540001D01*
X114048296Y-85564505D01*
X114044696Y-85588773D01*
X114038735Y-85612572D01*
X114030470Y-85635671D01*
X114019980Y-85657850D01*
X114007368Y-85678893D01*
X113992753Y-85698599D01*
X113976277Y-85716777D01*
X113958099Y-85733253D01*
X113938393Y-85747868D01*
X113917350Y-85760480D01*
X113895171Y-85770970D01*
X113872072Y-85779235D01*
X113848273Y-85785196D01*
X113824005Y-85788796D01*
X113799501Y-85790000D01*
X113149499Y-85790000D01*
X113124995Y-85788796D01*
X113100727Y-85785196D01*
X113076928Y-85779235D01*
X113053829Y-85770970D01*
X113031650Y-85760480D01*
X113010607Y-85747868D01*
X112990901Y-85733253D01*
X112972723Y-85716777D01*
X112956247Y-85698599D01*
X112941632Y-85678893D01*
X112929020Y-85657850D01*
X112918530Y-85635671D01*
X112910265Y-85612572D01*
X112904304Y-85588773D01*
X112900704Y-85564505D01*
X112899500Y-85540001D01*
X112899500Y-84639999D01*
X112900704Y-84615495D01*
X112904304Y-84591227D01*
X112910265Y-84567428D01*
X112918530Y-84544329D01*
X112929020Y-84522150D01*
X112941632Y-84501107D01*
X112956247Y-84481401D01*
X112972723Y-84463223D01*
X112990901Y-84446747D01*
X113010607Y-84432132D01*
X113031650Y-84419520D01*
X113053829Y-84409030D01*
X113076928Y-84400765D01*
X113100727Y-84394804D01*
X113124995Y-84391204D01*
X113149499Y-84390000D01*
X113799501Y-84390000D01*
X113824005Y-84391204D01*
X113824005Y-84391204D01*
G37*
D12*
X113474500Y-85090000D03*
G04 #@! TD*
D11*
G04 #@! TO.C,R1*
G36*
X74771505Y-107378204D02*
X74795773Y-107381804D01*
X74819572Y-107387765D01*
X74842671Y-107396030D01*
X74864850Y-107406520D01*
X74885893Y-107419132D01*
X74905599Y-107433747D01*
X74923777Y-107450223D01*
X74940253Y-107468401D01*
X74954868Y-107488107D01*
X74967480Y-107509150D01*
X74977970Y-107531329D01*
X74986235Y-107554428D01*
X74992196Y-107578227D01*
X74995796Y-107602495D01*
X74997000Y-107626999D01*
X74997000Y-108527001D01*
X74995796Y-108551505D01*
X74992196Y-108575773D01*
X74986235Y-108599572D01*
X74977970Y-108622671D01*
X74967480Y-108644850D01*
X74954868Y-108665893D01*
X74940253Y-108685599D01*
X74923777Y-108703777D01*
X74905599Y-108720253D01*
X74885893Y-108734868D01*
X74864850Y-108747480D01*
X74842671Y-108757970D01*
X74819572Y-108766235D01*
X74795773Y-108772196D01*
X74771505Y-108775796D01*
X74747001Y-108777000D01*
X74096999Y-108777000D01*
X74072495Y-108775796D01*
X74048227Y-108772196D01*
X74024428Y-108766235D01*
X74001329Y-108757970D01*
X73979150Y-108747480D01*
X73958107Y-108734868D01*
X73938401Y-108720253D01*
X73920223Y-108703777D01*
X73903747Y-108685599D01*
X73889132Y-108665893D01*
X73876520Y-108644850D01*
X73866030Y-108622671D01*
X73857765Y-108599572D01*
X73851804Y-108575773D01*
X73848204Y-108551505D01*
X73847000Y-108527001D01*
X73847000Y-107626999D01*
X73848204Y-107602495D01*
X73851804Y-107578227D01*
X73857765Y-107554428D01*
X73866030Y-107531329D01*
X73876520Y-107509150D01*
X73889132Y-107488107D01*
X73903747Y-107468401D01*
X73920223Y-107450223D01*
X73938401Y-107433747D01*
X73958107Y-107419132D01*
X73979150Y-107406520D01*
X74001329Y-107396030D01*
X74024428Y-107387765D01*
X74048227Y-107381804D01*
X74072495Y-107378204D01*
X74096999Y-107377000D01*
X74747001Y-107377000D01*
X74771505Y-107378204D01*
X74771505Y-107378204D01*
G37*
D12*
X74422000Y-108077000D03*
D11*
G36*
X72721505Y-107378204D02*
X72745773Y-107381804D01*
X72769572Y-107387765D01*
X72792671Y-107396030D01*
X72814850Y-107406520D01*
X72835893Y-107419132D01*
X72855599Y-107433747D01*
X72873777Y-107450223D01*
X72890253Y-107468401D01*
X72904868Y-107488107D01*
X72917480Y-107509150D01*
X72927970Y-107531329D01*
X72936235Y-107554428D01*
X72942196Y-107578227D01*
X72945796Y-107602495D01*
X72947000Y-107626999D01*
X72947000Y-108527001D01*
X72945796Y-108551505D01*
X72942196Y-108575773D01*
X72936235Y-108599572D01*
X72927970Y-108622671D01*
X72917480Y-108644850D01*
X72904868Y-108665893D01*
X72890253Y-108685599D01*
X72873777Y-108703777D01*
X72855599Y-108720253D01*
X72835893Y-108734868D01*
X72814850Y-108747480D01*
X72792671Y-108757970D01*
X72769572Y-108766235D01*
X72745773Y-108772196D01*
X72721505Y-108775796D01*
X72697001Y-108777000D01*
X72046999Y-108777000D01*
X72022495Y-108775796D01*
X71998227Y-108772196D01*
X71974428Y-108766235D01*
X71951329Y-108757970D01*
X71929150Y-108747480D01*
X71908107Y-108734868D01*
X71888401Y-108720253D01*
X71870223Y-108703777D01*
X71853747Y-108685599D01*
X71839132Y-108665893D01*
X71826520Y-108644850D01*
X71816030Y-108622671D01*
X71807765Y-108599572D01*
X71801804Y-108575773D01*
X71798204Y-108551505D01*
X71797000Y-108527001D01*
X71797000Y-107626999D01*
X71798204Y-107602495D01*
X71801804Y-107578227D01*
X71807765Y-107554428D01*
X71816030Y-107531329D01*
X71826520Y-107509150D01*
X71839132Y-107488107D01*
X71853747Y-107468401D01*
X71870223Y-107450223D01*
X71888401Y-107433747D01*
X71908107Y-107419132D01*
X71929150Y-107406520D01*
X71951329Y-107396030D01*
X71974428Y-107387765D01*
X71998227Y-107381804D01*
X72022495Y-107378204D01*
X72046999Y-107377000D01*
X72697001Y-107377000D01*
X72721505Y-107378204D01*
X72721505Y-107378204D01*
G37*
D12*
X72372000Y-108077000D03*
G04 #@! TD*
D11*
G04 #@! TO.C,R2*
G36*
X72721505Y-103949204D02*
X72745773Y-103952804D01*
X72769572Y-103958765D01*
X72792671Y-103967030D01*
X72814850Y-103977520D01*
X72835893Y-103990132D01*
X72855599Y-104004747D01*
X72873777Y-104021223D01*
X72890253Y-104039401D01*
X72904868Y-104059107D01*
X72917480Y-104080150D01*
X72927970Y-104102329D01*
X72936235Y-104125428D01*
X72942196Y-104149227D01*
X72945796Y-104173495D01*
X72947000Y-104197999D01*
X72947000Y-105098001D01*
X72945796Y-105122505D01*
X72942196Y-105146773D01*
X72936235Y-105170572D01*
X72927970Y-105193671D01*
X72917480Y-105215850D01*
X72904868Y-105236893D01*
X72890253Y-105256599D01*
X72873777Y-105274777D01*
X72855599Y-105291253D01*
X72835893Y-105305868D01*
X72814850Y-105318480D01*
X72792671Y-105328970D01*
X72769572Y-105337235D01*
X72745773Y-105343196D01*
X72721505Y-105346796D01*
X72697001Y-105348000D01*
X72046999Y-105348000D01*
X72022495Y-105346796D01*
X71998227Y-105343196D01*
X71974428Y-105337235D01*
X71951329Y-105328970D01*
X71929150Y-105318480D01*
X71908107Y-105305868D01*
X71888401Y-105291253D01*
X71870223Y-105274777D01*
X71853747Y-105256599D01*
X71839132Y-105236893D01*
X71826520Y-105215850D01*
X71816030Y-105193671D01*
X71807765Y-105170572D01*
X71801804Y-105146773D01*
X71798204Y-105122505D01*
X71797000Y-105098001D01*
X71797000Y-104197999D01*
X71798204Y-104173495D01*
X71801804Y-104149227D01*
X71807765Y-104125428D01*
X71816030Y-104102329D01*
X71826520Y-104080150D01*
X71839132Y-104059107D01*
X71853747Y-104039401D01*
X71870223Y-104021223D01*
X71888401Y-104004747D01*
X71908107Y-103990132D01*
X71929150Y-103977520D01*
X71951329Y-103967030D01*
X71974428Y-103958765D01*
X71998227Y-103952804D01*
X72022495Y-103949204D01*
X72046999Y-103948000D01*
X72697001Y-103948000D01*
X72721505Y-103949204D01*
X72721505Y-103949204D01*
G37*
D12*
X72372000Y-104648000D03*
D11*
G36*
X74771505Y-103949204D02*
X74795773Y-103952804D01*
X74819572Y-103958765D01*
X74842671Y-103967030D01*
X74864850Y-103977520D01*
X74885893Y-103990132D01*
X74905599Y-104004747D01*
X74923777Y-104021223D01*
X74940253Y-104039401D01*
X74954868Y-104059107D01*
X74967480Y-104080150D01*
X74977970Y-104102329D01*
X74986235Y-104125428D01*
X74992196Y-104149227D01*
X74995796Y-104173495D01*
X74997000Y-104197999D01*
X74997000Y-105098001D01*
X74995796Y-105122505D01*
X74992196Y-105146773D01*
X74986235Y-105170572D01*
X74977970Y-105193671D01*
X74967480Y-105215850D01*
X74954868Y-105236893D01*
X74940253Y-105256599D01*
X74923777Y-105274777D01*
X74905599Y-105291253D01*
X74885893Y-105305868D01*
X74864850Y-105318480D01*
X74842671Y-105328970D01*
X74819572Y-105337235D01*
X74795773Y-105343196D01*
X74771505Y-105346796D01*
X74747001Y-105348000D01*
X74096999Y-105348000D01*
X74072495Y-105346796D01*
X74048227Y-105343196D01*
X74024428Y-105337235D01*
X74001329Y-105328970D01*
X73979150Y-105318480D01*
X73958107Y-105305868D01*
X73938401Y-105291253D01*
X73920223Y-105274777D01*
X73903747Y-105256599D01*
X73889132Y-105236893D01*
X73876520Y-105215850D01*
X73866030Y-105193671D01*
X73857765Y-105170572D01*
X73851804Y-105146773D01*
X73848204Y-105122505D01*
X73847000Y-105098001D01*
X73847000Y-104197999D01*
X73848204Y-104173495D01*
X73851804Y-104149227D01*
X73857765Y-104125428D01*
X73866030Y-104102329D01*
X73876520Y-104080150D01*
X73889132Y-104059107D01*
X73903747Y-104039401D01*
X73920223Y-104021223D01*
X73938401Y-104004747D01*
X73958107Y-103990132D01*
X73979150Y-103977520D01*
X74001329Y-103967030D01*
X74024428Y-103958765D01*
X74048227Y-103952804D01*
X74072495Y-103949204D01*
X74096999Y-103948000D01*
X74747001Y-103948000D01*
X74771505Y-103949204D01*
X74771505Y-103949204D01*
G37*
D12*
X74422000Y-104648000D03*
G04 #@! TD*
D11*
G04 #@! TO.C,R3*
G36*
X74771505Y-100647204D02*
X74795773Y-100650804D01*
X74819572Y-100656765D01*
X74842671Y-100665030D01*
X74864850Y-100675520D01*
X74885893Y-100688132D01*
X74905599Y-100702747D01*
X74923777Y-100719223D01*
X74940253Y-100737401D01*
X74954868Y-100757107D01*
X74967480Y-100778150D01*
X74977970Y-100800329D01*
X74986235Y-100823428D01*
X74992196Y-100847227D01*
X74995796Y-100871495D01*
X74997000Y-100895999D01*
X74997000Y-101796001D01*
X74995796Y-101820505D01*
X74992196Y-101844773D01*
X74986235Y-101868572D01*
X74977970Y-101891671D01*
X74967480Y-101913850D01*
X74954868Y-101934893D01*
X74940253Y-101954599D01*
X74923777Y-101972777D01*
X74905599Y-101989253D01*
X74885893Y-102003868D01*
X74864850Y-102016480D01*
X74842671Y-102026970D01*
X74819572Y-102035235D01*
X74795773Y-102041196D01*
X74771505Y-102044796D01*
X74747001Y-102046000D01*
X74096999Y-102046000D01*
X74072495Y-102044796D01*
X74048227Y-102041196D01*
X74024428Y-102035235D01*
X74001329Y-102026970D01*
X73979150Y-102016480D01*
X73958107Y-102003868D01*
X73938401Y-101989253D01*
X73920223Y-101972777D01*
X73903747Y-101954599D01*
X73889132Y-101934893D01*
X73876520Y-101913850D01*
X73866030Y-101891671D01*
X73857765Y-101868572D01*
X73851804Y-101844773D01*
X73848204Y-101820505D01*
X73847000Y-101796001D01*
X73847000Y-100895999D01*
X73848204Y-100871495D01*
X73851804Y-100847227D01*
X73857765Y-100823428D01*
X73866030Y-100800329D01*
X73876520Y-100778150D01*
X73889132Y-100757107D01*
X73903747Y-100737401D01*
X73920223Y-100719223D01*
X73938401Y-100702747D01*
X73958107Y-100688132D01*
X73979150Y-100675520D01*
X74001329Y-100665030D01*
X74024428Y-100656765D01*
X74048227Y-100650804D01*
X74072495Y-100647204D01*
X74096999Y-100646000D01*
X74747001Y-100646000D01*
X74771505Y-100647204D01*
X74771505Y-100647204D01*
G37*
D12*
X74422000Y-101346000D03*
D11*
G36*
X72721505Y-100647204D02*
X72745773Y-100650804D01*
X72769572Y-100656765D01*
X72792671Y-100665030D01*
X72814850Y-100675520D01*
X72835893Y-100688132D01*
X72855599Y-100702747D01*
X72873777Y-100719223D01*
X72890253Y-100737401D01*
X72904868Y-100757107D01*
X72917480Y-100778150D01*
X72927970Y-100800329D01*
X72936235Y-100823428D01*
X72942196Y-100847227D01*
X72945796Y-100871495D01*
X72947000Y-100895999D01*
X72947000Y-101796001D01*
X72945796Y-101820505D01*
X72942196Y-101844773D01*
X72936235Y-101868572D01*
X72927970Y-101891671D01*
X72917480Y-101913850D01*
X72904868Y-101934893D01*
X72890253Y-101954599D01*
X72873777Y-101972777D01*
X72855599Y-101989253D01*
X72835893Y-102003868D01*
X72814850Y-102016480D01*
X72792671Y-102026970D01*
X72769572Y-102035235D01*
X72745773Y-102041196D01*
X72721505Y-102044796D01*
X72697001Y-102046000D01*
X72046999Y-102046000D01*
X72022495Y-102044796D01*
X71998227Y-102041196D01*
X71974428Y-102035235D01*
X71951329Y-102026970D01*
X71929150Y-102016480D01*
X71908107Y-102003868D01*
X71888401Y-101989253D01*
X71870223Y-101972777D01*
X71853747Y-101954599D01*
X71839132Y-101934893D01*
X71826520Y-101913850D01*
X71816030Y-101891671D01*
X71807765Y-101868572D01*
X71801804Y-101844773D01*
X71798204Y-101820505D01*
X71797000Y-101796001D01*
X71797000Y-100895999D01*
X71798204Y-100871495D01*
X71801804Y-100847227D01*
X71807765Y-100823428D01*
X71816030Y-100800329D01*
X71826520Y-100778150D01*
X71839132Y-100757107D01*
X71853747Y-100737401D01*
X71870223Y-100719223D01*
X71888401Y-100702747D01*
X71908107Y-100688132D01*
X71929150Y-100675520D01*
X71951329Y-100665030D01*
X71974428Y-100656765D01*
X71998227Y-100650804D01*
X72022495Y-100647204D01*
X72046999Y-100646000D01*
X72697001Y-100646000D01*
X72721505Y-100647204D01*
X72721505Y-100647204D01*
G37*
D12*
X72372000Y-101346000D03*
G04 #@! TD*
D11*
G04 #@! TO.C,R4*
G36*
X72721505Y-97345204D02*
X72745773Y-97348804D01*
X72769572Y-97354765D01*
X72792671Y-97363030D01*
X72814850Y-97373520D01*
X72835893Y-97386132D01*
X72855599Y-97400747D01*
X72873777Y-97417223D01*
X72890253Y-97435401D01*
X72904868Y-97455107D01*
X72917480Y-97476150D01*
X72927970Y-97498329D01*
X72936235Y-97521428D01*
X72942196Y-97545227D01*
X72945796Y-97569495D01*
X72947000Y-97593999D01*
X72947000Y-98494001D01*
X72945796Y-98518505D01*
X72942196Y-98542773D01*
X72936235Y-98566572D01*
X72927970Y-98589671D01*
X72917480Y-98611850D01*
X72904868Y-98632893D01*
X72890253Y-98652599D01*
X72873777Y-98670777D01*
X72855599Y-98687253D01*
X72835893Y-98701868D01*
X72814850Y-98714480D01*
X72792671Y-98724970D01*
X72769572Y-98733235D01*
X72745773Y-98739196D01*
X72721505Y-98742796D01*
X72697001Y-98744000D01*
X72046999Y-98744000D01*
X72022495Y-98742796D01*
X71998227Y-98739196D01*
X71974428Y-98733235D01*
X71951329Y-98724970D01*
X71929150Y-98714480D01*
X71908107Y-98701868D01*
X71888401Y-98687253D01*
X71870223Y-98670777D01*
X71853747Y-98652599D01*
X71839132Y-98632893D01*
X71826520Y-98611850D01*
X71816030Y-98589671D01*
X71807765Y-98566572D01*
X71801804Y-98542773D01*
X71798204Y-98518505D01*
X71797000Y-98494001D01*
X71797000Y-97593999D01*
X71798204Y-97569495D01*
X71801804Y-97545227D01*
X71807765Y-97521428D01*
X71816030Y-97498329D01*
X71826520Y-97476150D01*
X71839132Y-97455107D01*
X71853747Y-97435401D01*
X71870223Y-97417223D01*
X71888401Y-97400747D01*
X71908107Y-97386132D01*
X71929150Y-97373520D01*
X71951329Y-97363030D01*
X71974428Y-97354765D01*
X71998227Y-97348804D01*
X72022495Y-97345204D01*
X72046999Y-97344000D01*
X72697001Y-97344000D01*
X72721505Y-97345204D01*
X72721505Y-97345204D01*
G37*
D12*
X72372000Y-98044000D03*
D11*
G36*
X74771505Y-97345204D02*
X74795773Y-97348804D01*
X74819572Y-97354765D01*
X74842671Y-97363030D01*
X74864850Y-97373520D01*
X74885893Y-97386132D01*
X74905599Y-97400747D01*
X74923777Y-97417223D01*
X74940253Y-97435401D01*
X74954868Y-97455107D01*
X74967480Y-97476150D01*
X74977970Y-97498329D01*
X74986235Y-97521428D01*
X74992196Y-97545227D01*
X74995796Y-97569495D01*
X74997000Y-97593999D01*
X74997000Y-98494001D01*
X74995796Y-98518505D01*
X74992196Y-98542773D01*
X74986235Y-98566572D01*
X74977970Y-98589671D01*
X74967480Y-98611850D01*
X74954868Y-98632893D01*
X74940253Y-98652599D01*
X74923777Y-98670777D01*
X74905599Y-98687253D01*
X74885893Y-98701868D01*
X74864850Y-98714480D01*
X74842671Y-98724970D01*
X74819572Y-98733235D01*
X74795773Y-98739196D01*
X74771505Y-98742796D01*
X74747001Y-98744000D01*
X74096999Y-98744000D01*
X74072495Y-98742796D01*
X74048227Y-98739196D01*
X74024428Y-98733235D01*
X74001329Y-98724970D01*
X73979150Y-98714480D01*
X73958107Y-98701868D01*
X73938401Y-98687253D01*
X73920223Y-98670777D01*
X73903747Y-98652599D01*
X73889132Y-98632893D01*
X73876520Y-98611850D01*
X73866030Y-98589671D01*
X73857765Y-98566572D01*
X73851804Y-98542773D01*
X73848204Y-98518505D01*
X73847000Y-98494001D01*
X73847000Y-97593999D01*
X73848204Y-97569495D01*
X73851804Y-97545227D01*
X73857765Y-97521428D01*
X73866030Y-97498329D01*
X73876520Y-97476150D01*
X73889132Y-97455107D01*
X73903747Y-97435401D01*
X73920223Y-97417223D01*
X73938401Y-97400747D01*
X73958107Y-97386132D01*
X73979150Y-97373520D01*
X74001329Y-97363030D01*
X74024428Y-97354765D01*
X74048227Y-97348804D01*
X74072495Y-97345204D01*
X74096999Y-97344000D01*
X74747001Y-97344000D01*
X74771505Y-97345204D01*
X74771505Y-97345204D01*
G37*
D12*
X74422000Y-98044000D03*
G04 #@! TD*
D11*
G04 #@! TO.C,R5*
G36*
X72721505Y-94170204D02*
X72745773Y-94173804D01*
X72769572Y-94179765D01*
X72792671Y-94188030D01*
X72814850Y-94198520D01*
X72835893Y-94211132D01*
X72855599Y-94225747D01*
X72873777Y-94242223D01*
X72890253Y-94260401D01*
X72904868Y-94280107D01*
X72917480Y-94301150D01*
X72927970Y-94323329D01*
X72936235Y-94346428D01*
X72942196Y-94370227D01*
X72945796Y-94394495D01*
X72947000Y-94418999D01*
X72947000Y-95319001D01*
X72945796Y-95343505D01*
X72942196Y-95367773D01*
X72936235Y-95391572D01*
X72927970Y-95414671D01*
X72917480Y-95436850D01*
X72904868Y-95457893D01*
X72890253Y-95477599D01*
X72873777Y-95495777D01*
X72855599Y-95512253D01*
X72835893Y-95526868D01*
X72814850Y-95539480D01*
X72792671Y-95549970D01*
X72769572Y-95558235D01*
X72745773Y-95564196D01*
X72721505Y-95567796D01*
X72697001Y-95569000D01*
X72046999Y-95569000D01*
X72022495Y-95567796D01*
X71998227Y-95564196D01*
X71974428Y-95558235D01*
X71951329Y-95549970D01*
X71929150Y-95539480D01*
X71908107Y-95526868D01*
X71888401Y-95512253D01*
X71870223Y-95495777D01*
X71853747Y-95477599D01*
X71839132Y-95457893D01*
X71826520Y-95436850D01*
X71816030Y-95414671D01*
X71807765Y-95391572D01*
X71801804Y-95367773D01*
X71798204Y-95343505D01*
X71797000Y-95319001D01*
X71797000Y-94418999D01*
X71798204Y-94394495D01*
X71801804Y-94370227D01*
X71807765Y-94346428D01*
X71816030Y-94323329D01*
X71826520Y-94301150D01*
X71839132Y-94280107D01*
X71853747Y-94260401D01*
X71870223Y-94242223D01*
X71888401Y-94225747D01*
X71908107Y-94211132D01*
X71929150Y-94198520D01*
X71951329Y-94188030D01*
X71974428Y-94179765D01*
X71998227Y-94173804D01*
X72022495Y-94170204D01*
X72046999Y-94169000D01*
X72697001Y-94169000D01*
X72721505Y-94170204D01*
X72721505Y-94170204D01*
G37*
D12*
X72372000Y-94869000D03*
D11*
G36*
X74771505Y-94170204D02*
X74795773Y-94173804D01*
X74819572Y-94179765D01*
X74842671Y-94188030D01*
X74864850Y-94198520D01*
X74885893Y-94211132D01*
X74905599Y-94225747D01*
X74923777Y-94242223D01*
X74940253Y-94260401D01*
X74954868Y-94280107D01*
X74967480Y-94301150D01*
X74977970Y-94323329D01*
X74986235Y-94346428D01*
X74992196Y-94370227D01*
X74995796Y-94394495D01*
X74997000Y-94418999D01*
X74997000Y-95319001D01*
X74995796Y-95343505D01*
X74992196Y-95367773D01*
X74986235Y-95391572D01*
X74977970Y-95414671D01*
X74967480Y-95436850D01*
X74954868Y-95457893D01*
X74940253Y-95477599D01*
X74923777Y-95495777D01*
X74905599Y-95512253D01*
X74885893Y-95526868D01*
X74864850Y-95539480D01*
X74842671Y-95549970D01*
X74819572Y-95558235D01*
X74795773Y-95564196D01*
X74771505Y-95567796D01*
X74747001Y-95569000D01*
X74096999Y-95569000D01*
X74072495Y-95567796D01*
X74048227Y-95564196D01*
X74024428Y-95558235D01*
X74001329Y-95549970D01*
X73979150Y-95539480D01*
X73958107Y-95526868D01*
X73938401Y-95512253D01*
X73920223Y-95495777D01*
X73903747Y-95477599D01*
X73889132Y-95457893D01*
X73876520Y-95436850D01*
X73866030Y-95414671D01*
X73857765Y-95391572D01*
X73851804Y-95367773D01*
X73848204Y-95343505D01*
X73847000Y-95319001D01*
X73847000Y-94418999D01*
X73848204Y-94394495D01*
X73851804Y-94370227D01*
X73857765Y-94346428D01*
X73866030Y-94323329D01*
X73876520Y-94301150D01*
X73889132Y-94280107D01*
X73903747Y-94260401D01*
X73920223Y-94242223D01*
X73938401Y-94225747D01*
X73958107Y-94211132D01*
X73979150Y-94198520D01*
X74001329Y-94188030D01*
X74024428Y-94179765D01*
X74048227Y-94173804D01*
X74072495Y-94170204D01*
X74096999Y-94169000D01*
X74747001Y-94169000D01*
X74771505Y-94170204D01*
X74771505Y-94170204D01*
G37*
D12*
X74422000Y-94869000D03*
G04 #@! TD*
D11*
G04 #@! TO.C,R6*
G36*
X74771505Y-90868204D02*
X74795773Y-90871804D01*
X74819572Y-90877765D01*
X74842671Y-90886030D01*
X74864850Y-90896520D01*
X74885893Y-90909132D01*
X74905599Y-90923747D01*
X74923777Y-90940223D01*
X74940253Y-90958401D01*
X74954868Y-90978107D01*
X74967480Y-90999150D01*
X74977970Y-91021329D01*
X74986235Y-91044428D01*
X74992196Y-91068227D01*
X74995796Y-91092495D01*
X74997000Y-91116999D01*
X74997000Y-92017001D01*
X74995796Y-92041505D01*
X74992196Y-92065773D01*
X74986235Y-92089572D01*
X74977970Y-92112671D01*
X74967480Y-92134850D01*
X74954868Y-92155893D01*
X74940253Y-92175599D01*
X74923777Y-92193777D01*
X74905599Y-92210253D01*
X74885893Y-92224868D01*
X74864850Y-92237480D01*
X74842671Y-92247970D01*
X74819572Y-92256235D01*
X74795773Y-92262196D01*
X74771505Y-92265796D01*
X74747001Y-92267000D01*
X74096999Y-92267000D01*
X74072495Y-92265796D01*
X74048227Y-92262196D01*
X74024428Y-92256235D01*
X74001329Y-92247970D01*
X73979150Y-92237480D01*
X73958107Y-92224868D01*
X73938401Y-92210253D01*
X73920223Y-92193777D01*
X73903747Y-92175599D01*
X73889132Y-92155893D01*
X73876520Y-92134850D01*
X73866030Y-92112671D01*
X73857765Y-92089572D01*
X73851804Y-92065773D01*
X73848204Y-92041505D01*
X73847000Y-92017001D01*
X73847000Y-91116999D01*
X73848204Y-91092495D01*
X73851804Y-91068227D01*
X73857765Y-91044428D01*
X73866030Y-91021329D01*
X73876520Y-90999150D01*
X73889132Y-90978107D01*
X73903747Y-90958401D01*
X73920223Y-90940223D01*
X73938401Y-90923747D01*
X73958107Y-90909132D01*
X73979150Y-90896520D01*
X74001329Y-90886030D01*
X74024428Y-90877765D01*
X74048227Y-90871804D01*
X74072495Y-90868204D01*
X74096999Y-90867000D01*
X74747001Y-90867000D01*
X74771505Y-90868204D01*
X74771505Y-90868204D01*
G37*
D12*
X74422000Y-91567000D03*
D11*
G36*
X72721505Y-90868204D02*
X72745773Y-90871804D01*
X72769572Y-90877765D01*
X72792671Y-90886030D01*
X72814850Y-90896520D01*
X72835893Y-90909132D01*
X72855599Y-90923747D01*
X72873777Y-90940223D01*
X72890253Y-90958401D01*
X72904868Y-90978107D01*
X72917480Y-90999150D01*
X72927970Y-91021329D01*
X72936235Y-91044428D01*
X72942196Y-91068227D01*
X72945796Y-91092495D01*
X72947000Y-91116999D01*
X72947000Y-92017001D01*
X72945796Y-92041505D01*
X72942196Y-92065773D01*
X72936235Y-92089572D01*
X72927970Y-92112671D01*
X72917480Y-92134850D01*
X72904868Y-92155893D01*
X72890253Y-92175599D01*
X72873777Y-92193777D01*
X72855599Y-92210253D01*
X72835893Y-92224868D01*
X72814850Y-92237480D01*
X72792671Y-92247970D01*
X72769572Y-92256235D01*
X72745773Y-92262196D01*
X72721505Y-92265796D01*
X72697001Y-92267000D01*
X72046999Y-92267000D01*
X72022495Y-92265796D01*
X71998227Y-92262196D01*
X71974428Y-92256235D01*
X71951329Y-92247970D01*
X71929150Y-92237480D01*
X71908107Y-92224868D01*
X71888401Y-92210253D01*
X71870223Y-92193777D01*
X71853747Y-92175599D01*
X71839132Y-92155893D01*
X71826520Y-92134850D01*
X71816030Y-92112671D01*
X71807765Y-92089572D01*
X71801804Y-92065773D01*
X71798204Y-92041505D01*
X71797000Y-92017001D01*
X71797000Y-91116999D01*
X71798204Y-91092495D01*
X71801804Y-91068227D01*
X71807765Y-91044428D01*
X71816030Y-91021329D01*
X71826520Y-90999150D01*
X71839132Y-90978107D01*
X71853747Y-90958401D01*
X71870223Y-90940223D01*
X71888401Y-90923747D01*
X71908107Y-90909132D01*
X71929150Y-90896520D01*
X71951329Y-90886030D01*
X71974428Y-90877765D01*
X71998227Y-90871804D01*
X72022495Y-90868204D01*
X72046999Y-90867000D01*
X72697001Y-90867000D01*
X72721505Y-90868204D01*
X72721505Y-90868204D01*
G37*
D12*
X72372000Y-91567000D03*
G04 #@! TD*
D11*
G04 #@! TO.C,R7*
G36*
X74771505Y-87566204D02*
X74795773Y-87569804D01*
X74819572Y-87575765D01*
X74842671Y-87584030D01*
X74864850Y-87594520D01*
X74885893Y-87607132D01*
X74905599Y-87621747D01*
X74923777Y-87638223D01*
X74940253Y-87656401D01*
X74954868Y-87676107D01*
X74967480Y-87697150D01*
X74977970Y-87719329D01*
X74986235Y-87742428D01*
X74992196Y-87766227D01*
X74995796Y-87790495D01*
X74997000Y-87814999D01*
X74997000Y-88715001D01*
X74995796Y-88739505D01*
X74992196Y-88763773D01*
X74986235Y-88787572D01*
X74977970Y-88810671D01*
X74967480Y-88832850D01*
X74954868Y-88853893D01*
X74940253Y-88873599D01*
X74923777Y-88891777D01*
X74905599Y-88908253D01*
X74885893Y-88922868D01*
X74864850Y-88935480D01*
X74842671Y-88945970D01*
X74819572Y-88954235D01*
X74795773Y-88960196D01*
X74771505Y-88963796D01*
X74747001Y-88965000D01*
X74096999Y-88965000D01*
X74072495Y-88963796D01*
X74048227Y-88960196D01*
X74024428Y-88954235D01*
X74001329Y-88945970D01*
X73979150Y-88935480D01*
X73958107Y-88922868D01*
X73938401Y-88908253D01*
X73920223Y-88891777D01*
X73903747Y-88873599D01*
X73889132Y-88853893D01*
X73876520Y-88832850D01*
X73866030Y-88810671D01*
X73857765Y-88787572D01*
X73851804Y-88763773D01*
X73848204Y-88739505D01*
X73847000Y-88715001D01*
X73847000Y-87814999D01*
X73848204Y-87790495D01*
X73851804Y-87766227D01*
X73857765Y-87742428D01*
X73866030Y-87719329D01*
X73876520Y-87697150D01*
X73889132Y-87676107D01*
X73903747Y-87656401D01*
X73920223Y-87638223D01*
X73938401Y-87621747D01*
X73958107Y-87607132D01*
X73979150Y-87594520D01*
X74001329Y-87584030D01*
X74024428Y-87575765D01*
X74048227Y-87569804D01*
X74072495Y-87566204D01*
X74096999Y-87565000D01*
X74747001Y-87565000D01*
X74771505Y-87566204D01*
X74771505Y-87566204D01*
G37*
D12*
X74422000Y-88265000D03*
D11*
G36*
X72721505Y-87566204D02*
X72745773Y-87569804D01*
X72769572Y-87575765D01*
X72792671Y-87584030D01*
X72814850Y-87594520D01*
X72835893Y-87607132D01*
X72855599Y-87621747D01*
X72873777Y-87638223D01*
X72890253Y-87656401D01*
X72904868Y-87676107D01*
X72917480Y-87697150D01*
X72927970Y-87719329D01*
X72936235Y-87742428D01*
X72942196Y-87766227D01*
X72945796Y-87790495D01*
X72947000Y-87814999D01*
X72947000Y-88715001D01*
X72945796Y-88739505D01*
X72942196Y-88763773D01*
X72936235Y-88787572D01*
X72927970Y-88810671D01*
X72917480Y-88832850D01*
X72904868Y-88853893D01*
X72890253Y-88873599D01*
X72873777Y-88891777D01*
X72855599Y-88908253D01*
X72835893Y-88922868D01*
X72814850Y-88935480D01*
X72792671Y-88945970D01*
X72769572Y-88954235D01*
X72745773Y-88960196D01*
X72721505Y-88963796D01*
X72697001Y-88965000D01*
X72046999Y-88965000D01*
X72022495Y-88963796D01*
X71998227Y-88960196D01*
X71974428Y-88954235D01*
X71951329Y-88945970D01*
X71929150Y-88935480D01*
X71908107Y-88922868D01*
X71888401Y-88908253D01*
X71870223Y-88891777D01*
X71853747Y-88873599D01*
X71839132Y-88853893D01*
X71826520Y-88832850D01*
X71816030Y-88810671D01*
X71807765Y-88787572D01*
X71801804Y-88763773D01*
X71798204Y-88739505D01*
X71797000Y-88715001D01*
X71797000Y-87814999D01*
X71798204Y-87790495D01*
X71801804Y-87766227D01*
X71807765Y-87742428D01*
X71816030Y-87719329D01*
X71826520Y-87697150D01*
X71839132Y-87676107D01*
X71853747Y-87656401D01*
X71870223Y-87638223D01*
X71888401Y-87621747D01*
X71908107Y-87607132D01*
X71929150Y-87594520D01*
X71951329Y-87584030D01*
X71974428Y-87575765D01*
X71998227Y-87569804D01*
X72022495Y-87566204D01*
X72046999Y-87565000D01*
X72697001Y-87565000D01*
X72721505Y-87566204D01*
X72721505Y-87566204D01*
G37*
D12*
X72372000Y-88265000D03*
G04 #@! TD*
D11*
G04 #@! TO.C,R8*
G36*
X74771505Y-84518204D02*
X74795773Y-84521804D01*
X74819572Y-84527765D01*
X74842671Y-84536030D01*
X74864850Y-84546520D01*
X74885893Y-84559132D01*
X74905599Y-84573747D01*
X74923777Y-84590223D01*
X74940253Y-84608401D01*
X74954868Y-84628107D01*
X74967480Y-84649150D01*
X74977970Y-84671329D01*
X74986235Y-84694428D01*
X74992196Y-84718227D01*
X74995796Y-84742495D01*
X74997000Y-84766999D01*
X74997000Y-85667001D01*
X74995796Y-85691505D01*
X74992196Y-85715773D01*
X74986235Y-85739572D01*
X74977970Y-85762671D01*
X74967480Y-85784850D01*
X74954868Y-85805893D01*
X74940253Y-85825599D01*
X74923777Y-85843777D01*
X74905599Y-85860253D01*
X74885893Y-85874868D01*
X74864850Y-85887480D01*
X74842671Y-85897970D01*
X74819572Y-85906235D01*
X74795773Y-85912196D01*
X74771505Y-85915796D01*
X74747001Y-85917000D01*
X74096999Y-85917000D01*
X74072495Y-85915796D01*
X74048227Y-85912196D01*
X74024428Y-85906235D01*
X74001329Y-85897970D01*
X73979150Y-85887480D01*
X73958107Y-85874868D01*
X73938401Y-85860253D01*
X73920223Y-85843777D01*
X73903747Y-85825599D01*
X73889132Y-85805893D01*
X73876520Y-85784850D01*
X73866030Y-85762671D01*
X73857765Y-85739572D01*
X73851804Y-85715773D01*
X73848204Y-85691505D01*
X73847000Y-85667001D01*
X73847000Y-84766999D01*
X73848204Y-84742495D01*
X73851804Y-84718227D01*
X73857765Y-84694428D01*
X73866030Y-84671329D01*
X73876520Y-84649150D01*
X73889132Y-84628107D01*
X73903747Y-84608401D01*
X73920223Y-84590223D01*
X73938401Y-84573747D01*
X73958107Y-84559132D01*
X73979150Y-84546520D01*
X74001329Y-84536030D01*
X74024428Y-84527765D01*
X74048227Y-84521804D01*
X74072495Y-84518204D01*
X74096999Y-84517000D01*
X74747001Y-84517000D01*
X74771505Y-84518204D01*
X74771505Y-84518204D01*
G37*
D12*
X74422000Y-85217000D03*
D11*
G36*
X72721505Y-84518204D02*
X72745773Y-84521804D01*
X72769572Y-84527765D01*
X72792671Y-84536030D01*
X72814850Y-84546520D01*
X72835893Y-84559132D01*
X72855599Y-84573747D01*
X72873777Y-84590223D01*
X72890253Y-84608401D01*
X72904868Y-84628107D01*
X72917480Y-84649150D01*
X72927970Y-84671329D01*
X72936235Y-84694428D01*
X72942196Y-84718227D01*
X72945796Y-84742495D01*
X72947000Y-84766999D01*
X72947000Y-85667001D01*
X72945796Y-85691505D01*
X72942196Y-85715773D01*
X72936235Y-85739572D01*
X72927970Y-85762671D01*
X72917480Y-85784850D01*
X72904868Y-85805893D01*
X72890253Y-85825599D01*
X72873777Y-85843777D01*
X72855599Y-85860253D01*
X72835893Y-85874868D01*
X72814850Y-85887480D01*
X72792671Y-85897970D01*
X72769572Y-85906235D01*
X72745773Y-85912196D01*
X72721505Y-85915796D01*
X72697001Y-85917000D01*
X72046999Y-85917000D01*
X72022495Y-85915796D01*
X71998227Y-85912196D01*
X71974428Y-85906235D01*
X71951329Y-85897970D01*
X71929150Y-85887480D01*
X71908107Y-85874868D01*
X71888401Y-85860253D01*
X71870223Y-85843777D01*
X71853747Y-85825599D01*
X71839132Y-85805893D01*
X71826520Y-85784850D01*
X71816030Y-85762671D01*
X71807765Y-85739572D01*
X71801804Y-85715773D01*
X71798204Y-85691505D01*
X71797000Y-85667001D01*
X71797000Y-84766999D01*
X71798204Y-84742495D01*
X71801804Y-84718227D01*
X71807765Y-84694428D01*
X71816030Y-84671329D01*
X71826520Y-84649150D01*
X71839132Y-84628107D01*
X71853747Y-84608401D01*
X71870223Y-84590223D01*
X71888401Y-84573747D01*
X71908107Y-84559132D01*
X71929150Y-84546520D01*
X71951329Y-84536030D01*
X71974428Y-84527765D01*
X71998227Y-84521804D01*
X72022495Y-84518204D01*
X72046999Y-84517000D01*
X72697001Y-84517000D01*
X72721505Y-84518204D01*
X72721505Y-84518204D01*
G37*
D12*
X72372000Y-85217000D03*
G04 #@! TD*
D11*
G04 #@! TO.C,R9*
G36*
X107365005Y-107441704D02*
X107389273Y-107445304D01*
X107413072Y-107451265D01*
X107436171Y-107459530D01*
X107458350Y-107470020D01*
X107479393Y-107482632D01*
X107499099Y-107497247D01*
X107517277Y-107513723D01*
X107533753Y-107531901D01*
X107548368Y-107551607D01*
X107560980Y-107572650D01*
X107571470Y-107594829D01*
X107579735Y-107617928D01*
X107585696Y-107641727D01*
X107589296Y-107665995D01*
X107590500Y-107690499D01*
X107590500Y-108590501D01*
X107589296Y-108615005D01*
X107585696Y-108639273D01*
X107579735Y-108663072D01*
X107571470Y-108686171D01*
X107560980Y-108708350D01*
X107548368Y-108729393D01*
X107533753Y-108749099D01*
X107517277Y-108767277D01*
X107499099Y-108783753D01*
X107479393Y-108798368D01*
X107458350Y-108810980D01*
X107436171Y-108821470D01*
X107413072Y-108829735D01*
X107389273Y-108835696D01*
X107365005Y-108839296D01*
X107340501Y-108840500D01*
X106690499Y-108840500D01*
X106665995Y-108839296D01*
X106641727Y-108835696D01*
X106617928Y-108829735D01*
X106594829Y-108821470D01*
X106572650Y-108810980D01*
X106551607Y-108798368D01*
X106531901Y-108783753D01*
X106513723Y-108767277D01*
X106497247Y-108749099D01*
X106482632Y-108729393D01*
X106470020Y-108708350D01*
X106459530Y-108686171D01*
X106451265Y-108663072D01*
X106445304Y-108639273D01*
X106441704Y-108615005D01*
X106440500Y-108590501D01*
X106440500Y-107690499D01*
X106441704Y-107665995D01*
X106445304Y-107641727D01*
X106451265Y-107617928D01*
X106459530Y-107594829D01*
X106470020Y-107572650D01*
X106482632Y-107551607D01*
X106497247Y-107531901D01*
X106513723Y-107513723D01*
X106531901Y-107497247D01*
X106551607Y-107482632D01*
X106572650Y-107470020D01*
X106594829Y-107459530D01*
X106617928Y-107451265D01*
X106641727Y-107445304D01*
X106665995Y-107441704D01*
X106690499Y-107440500D01*
X107340501Y-107440500D01*
X107365005Y-107441704D01*
X107365005Y-107441704D01*
G37*
D12*
X107015500Y-108140500D03*
D11*
G36*
X105315005Y-107441704D02*
X105339273Y-107445304D01*
X105363072Y-107451265D01*
X105386171Y-107459530D01*
X105408350Y-107470020D01*
X105429393Y-107482632D01*
X105449099Y-107497247D01*
X105467277Y-107513723D01*
X105483753Y-107531901D01*
X105498368Y-107551607D01*
X105510980Y-107572650D01*
X105521470Y-107594829D01*
X105529735Y-107617928D01*
X105535696Y-107641727D01*
X105539296Y-107665995D01*
X105540500Y-107690499D01*
X105540500Y-108590501D01*
X105539296Y-108615005D01*
X105535696Y-108639273D01*
X105529735Y-108663072D01*
X105521470Y-108686171D01*
X105510980Y-108708350D01*
X105498368Y-108729393D01*
X105483753Y-108749099D01*
X105467277Y-108767277D01*
X105449099Y-108783753D01*
X105429393Y-108798368D01*
X105408350Y-108810980D01*
X105386171Y-108821470D01*
X105363072Y-108829735D01*
X105339273Y-108835696D01*
X105315005Y-108839296D01*
X105290501Y-108840500D01*
X104640499Y-108840500D01*
X104615995Y-108839296D01*
X104591727Y-108835696D01*
X104567928Y-108829735D01*
X104544829Y-108821470D01*
X104522650Y-108810980D01*
X104501607Y-108798368D01*
X104481901Y-108783753D01*
X104463723Y-108767277D01*
X104447247Y-108749099D01*
X104432632Y-108729393D01*
X104420020Y-108708350D01*
X104409530Y-108686171D01*
X104401265Y-108663072D01*
X104395304Y-108639273D01*
X104391704Y-108615005D01*
X104390500Y-108590501D01*
X104390500Y-107690499D01*
X104391704Y-107665995D01*
X104395304Y-107641727D01*
X104401265Y-107617928D01*
X104409530Y-107594829D01*
X104420020Y-107572650D01*
X104432632Y-107551607D01*
X104447247Y-107531901D01*
X104463723Y-107513723D01*
X104481901Y-107497247D01*
X104501607Y-107482632D01*
X104522650Y-107470020D01*
X104544829Y-107459530D01*
X104567928Y-107451265D01*
X104591727Y-107445304D01*
X104615995Y-107441704D01*
X104640499Y-107440500D01*
X105290501Y-107440500D01*
X105315005Y-107441704D01*
X105315005Y-107441704D01*
G37*
D12*
X104965500Y-108140500D03*
G04 #@! TD*
D11*
G04 #@! TO.C,R10*
G36*
X105315005Y-104139704D02*
X105339273Y-104143304D01*
X105363072Y-104149265D01*
X105386171Y-104157530D01*
X105408350Y-104168020D01*
X105429393Y-104180632D01*
X105449099Y-104195247D01*
X105467277Y-104211723D01*
X105483753Y-104229901D01*
X105498368Y-104249607D01*
X105510980Y-104270650D01*
X105521470Y-104292829D01*
X105529735Y-104315928D01*
X105535696Y-104339727D01*
X105539296Y-104363995D01*
X105540500Y-104388499D01*
X105540500Y-105288501D01*
X105539296Y-105313005D01*
X105535696Y-105337273D01*
X105529735Y-105361072D01*
X105521470Y-105384171D01*
X105510980Y-105406350D01*
X105498368Y-105427393D01*
X105483753Y-105447099D01*
X105467277Y-105465277D01*
X105449099Y-105481753D01*
X105429393Y-105496368D01*
X105408350Y-105508980D01*
X105386171Y-105519470D01*
X105363072Y-105527735D01*
X105339273Y-105533696D01*
X105315005Y-105537296D01*
X105290501Y-105538500D01*
X104640499Y-105538500D01*
X104615995Y-105537296D01*
X104591727Y-105533696D01*
X104567928Y-105527735D01*
X104544829Y-105519470D01*
X104522650Y-105508980D01*
X104501607Y-105496368D01*
X104481901Y-105481753D01*
X104463723Y-105465277D01*
X104447247Y-105447099D01*
X104432632Y-105427393D01*
X104420020Y-105406350D01*
X104409530Y-105384171D01*
X104401265Y-105361072D01*
X104395304Y-105337273D01*
X104391704Y-105313005D01*
X104390500Y-105288501D01*
X104390500Y-104388499D01*
X104391704Y-104363995D01*
X104395304Y-104339727D01*
X104401265Y-104315928D01*
X104409530Y-104292829D01*
X104420020Y-104270650D01*
X104432632Y-104249607D01*
X104447247Y-104229901D01*
X104463723Y-104211723D01*
X104481901Y-104195247D01*
X104501607Y-104180632D01*
X104522650Y-104168020D01*
X104544829Y-104157530D01*
X104567928Y-104149265D01*
X104591727Y-104143304D01*
X104615995Y-104139704D01*
X104640499Y-104138500D01*
X105290501Y-104138500D01*
X105315005Y-104139704D01*
X105315005Y-104139704D01*
G37*
D12*
X104965500Y-104838500D03*
D11*
G36*
X107365005Y-104139704D02*
X107389273Y-104143304D01*
X107413072Y-104149265D01*
X107436171Y-104157530D01*
X107458350Y-104168020D01*
X107479393Y-104180632D01*
X107499099Y-104195247D01*
X107517277Y-104211723D01*
X107533753Y-104229901D01*
X107548368Y-104249607D01*
X107560980Y-104270650D01*
X107571470Y-104292829D01*
X107579735Y-104315928D01*
X107585696Y-104339727D01*
X107589296Y-104363995D01*
X107590500Y-104388499D01*
X107590500Y-105288501D01*
X107589296Y-105313005D01*
X107585696Y-105337273D01*
X107579735Y-105361072D01*
X107571470Y-105384171D01*
X107560980Y-105406350D01*
X107548368Y-105427393D01*
X107533753Y-105447099D01*
X107517277Y-105465277D01*
X107499099Y-105481753D01*
X107479393Y-105496368D01*
X107458350Y-105508980D01*
X107436171Y-105519470D01*
X107413072Y-105527735D01*
X107389273Y-105533696D01*
X107365005Y-105537296D01*
X107340501Y-105538500D01*
X106690499Y-105538500D01*
X106665995Y-105537296D01*
X106641727Y-105533696D01*
X106617928Y-105527735D01*
X106594829Y-105519470D01*
X106572650Y-105508980D01*
X106551607Y-105496368D01*
X106531901Y-105481753D01*
X106513723Y-105465277D01*
X106497247Y-105447099D01*
X106482632Y-105427393D01*
X106470020Y-105406350D01*
X106459530Y-105384171D01*
X106451265Y-105361072D01*
X106445304Y-105337273D01*
X106441704Y-105313005D01*
X106440500Y-105288501D01*
X106440500Y-104388499D01*
X106441704Y-104363995D01*
X106445304Y-104339727D01*
X106451265Y-104315928D01*
X106459530Y-104292829D01*
X106470020Y-104270650D01*
X106482632Y-104249607D01*
X106497247Y-104229901D01*
X106513723Y-104211723D01*
X106531901Y-104195247D01*
X106551607Y-104180632D01*
X106572650Y-104168020D01*
X106594829Y-104157530D01*
X106617928Y-104149265D01*
X106641727Y-104143304D01*
X106665995Y-104139704D01*
X106690499Y-104138500D01*
X107340501Y-104138500D01*
X107365005Y-104139704D01*
X107365005Y-104139704D01*
G37*
D12*
X107015500Y-104838500D03*
G04 #@! TD*
D11*
G04 #@! TO.C,R11*
G36*
X107238005Y-100837704D02*
X107262273Y-100841304D01*
X107286072Y-100847265D01*
X107309171Y-100855530D01*
X107331350Y-100866020D01*
X107352393Y-100878632D01*
X107372099Y-100893247D01*
X107390277Y-100909723D01*
X107406753Y-100927901D01*
X107421368Y-100947607D01*
X107433980Y-100968650D01*
X107444470Y-100990829D01*
X107452735Y-101013928D01*
X107458696Y-101037727D01*
X107462296Y-101061995D01*
X107463500Y-101086499D01*
X107463500Y-101986501D01*
X107462296Y-102011005D01*
X107458696Y-102035273D01*
X107452735Y-102059072D01*
X107444470Y-102082171D01*
X107433980Y-102104350D01*
X107421368Y-102125393D01*
X107406753Y-102145099D01*
X107390277Y-102163277D01*
X107372099Y-102179753D01*
X107352393Y-102194368D01*
X107331350Y-102206980D01*
X107309171Y-102217470D01*
X107286072Y-102225735D01*
X107262273Y-102231696D01*
X107238005Y-102235296D01*
X107213501Y-102236500D01*
X106563499Y-102236500D01*
X106538995Y-102235296D01*
X106514727Y-102231696D01*
X106490928Y-102225735D01*
X106467829Y-102217470D01*
X106445650Y-102206980D01*
X106424607Y-102194368D01*
X106404901Y-102179753D01*
X106386723Y-102163277D01*
X106370247Y-102145099D01*
X106355632Y-102125393D01*
X106343020Y-102104350D01*
X106332530Y-102082171D01*
X106324265Y-102059072D01*
X106318304Y-102035273D01*
X106314704Y-102011005D01*
X106313500Y-101986501D01*
X106313500Y-101086499D01*
X106314704Y-101061995D01*
X106318304Y-101037727D01*
X106324265Y-101013928D01*
X106332530Y-100990829D01*
X106343020Y-100968650D01*
X106355632Y-100947607D01*
X106370247Y-100927901D01*
X106386723Y-100909723D01*
X106404901Y-100893247D01*
X106424607Y-100878632D01*
X106445650Y-100866020D01*
X106467829Y-100855530D01*
X106490928Y-100847265D01*
X106514727Y-100841304D01*
X106538995Y-100837704D01*
X106563499Y-100836500D01*
X107213501Y-100836500D01*
X107238005Y-100837704D01*
X107238005Y-100837704D01*
G37*
D12*
X106888500Y-101536500D03*
D11*
G36*
X105188005Y-100837704D02*
X105212273Y-100841304D01*
X105236072Y-100847265D01*
X105259171Y-100855530D01*
X105281350Y-100866020D01*
X105302393Y-100878632D01*
X105322099Y-100893247D01*
X105340277Y-100909723D01*
X105356753Y-100927901D01*
X105371368Y-100947607D01*
X105383980Y-100968650D01*
X105394470Y-100990829D01*
X105402735Y-101013928D01*
X105408696Y-101037727D01*
X105412296Y-101061995D01*
X105413500Y-101086499D01*
X105413500Y-101986501D01*
X105412296Y-102011005D01*
X105408696Y-102035273D01*
X105402735Y-102059072D01*
X105394470Y-102082171D01*
X105383980Y-102104350D01*
X105371368Y-102125393D01*
X105356753Y-102145099D01*
X105340277Y-102163277D01*
X105322099Y-102179753D01*
X105302393Y-102194368D01*
X105281350Y-102206980D01*
X105259171Y-102217470D01*
X105236072Y-102225735D01*
X105212273Y-102231696D01*
X105188005Y-102235296D01*
X105163501Y-102236500D01*
X104513499Y-102236500D01*
X104488995Y-102235296D01*
X104464727Y-102231696D01*
X104440928Y-102225735D01*
X104417829Y-102217470D01*
X104395650Y-102206980D01*
X104374607Y-102194368D01*
X104354901Y-102179753D01*
X104336723Y-102163277D01*
X104320247Y-102145099D01*
X104305632Y-102125393D01*
X104293020Y-102104350D01*
X104282530Y-102082171D01*
X104274265Y-102059072D01*
X104268304Y-102035273D01*
X104264704Y-102011005D01*
X104263500Y-101986501D01*
X104263500Y-101086499D01*
X104264704Y-101061995D01*
X104268304Y-101037727D01*
X104274265Y-101013928D01*
X104282530Y-100990829D01*
X104293020Y-100968650D01*
X104305632Y-100947607D01*
X104320247Y-100927901D01*
X104336723Y-100909723D01*
X104354901Y-100893247D01*
X104374607Y-100878632D01*
X104395650Y-100866020D01*
X104417829Y-100855530D01*
X104440928Y-100847265D01*
X104464727Y-100841304D01*
X104488995Y-100837704D01*
X104513499Y-100836500D01*
X105163501Y-100836500D01*
X105188005Y-100837704D01*
X105188005Y-100837704D01*
G37*
D12*
X104838500Y-101536500D03*
G04 #@! TD*
D11*
G04 #@! TO.C,R12*
G36*
X105179005Y-97662704D02*
X105203273Y-97666304D01*
X105227072Y-97672265D01*
X105250171Y-97680530D01*
X105272350Y-97691020D01*
X105293393Y-97703632D01*
X105313099Y-97718247D01*
X105331277Y-97734723D01*
X105347753Y-97752901D01*
X105362368Y-97772607D01*
X105374980Y-97793650D01*
X105385470Y-97815829D01*
X105393735Y-97838928D01*
X105399696Y-97862727D01*
X105403296Y-97886995D01*
X105404500Y-97911499D01*
X105404500Y-98811501D01*
X105403296Y-98836005D01*
X105399696Y-98860273D01*
X105393735Y-98884072D01*
X105385470Y-98907171D01*
X105374980Y-98929350D01*
X105362368Y-98950393D01*
X105347753Y-98970099D01*
X105331277Y-98988277D01*
X105313099Y-99004753D01*
X105293393Y-99019368D01*
X105272350Y-99031980D01*
X105250171Y-99042470D01*
X105227072Y-99050735D01*
X105203273Y-99056696D01*
X105179005Y-99060296D01*
X105154501Y-99061500D01*
X104504499Y-99061500D01*
X104479995Y-99060296D01*
X104455727Y-99056696D01*
X104431928Y-99050735D01*
X104408829Y-99042470D01*
X104386650Y-99031980D01*
X104365607Y-99019368D01*
X104345901Y-99004753D01*
X104327723Y-98988277D01*
X104311247Y-98970099D01*
X104296632Y-98950393D01*
X104284020Y-98929350D01*
X104273530Y-98907171D01*
X104265265Y-98884072D01*
X104259304Y-98860273D01*
X104255704Y-98836005D01*
X104254500Y-98811501D01*
X104254500Y-97911499D01*
X104255704Y-97886995D01*
X104259304Y-97862727D01*
X104265265Y-97838928D01*
X104273530Y-97815829D01*
X104284020Y-97793650D01*
X104296632Y-97772607D01*
X104311247Y-97752901D01*
X104327723Y-97734723D01*
X104345901Y-97718247D01*
X104365607Y-97703632D01*
X104386650Y-97691020D01*
X104408829Y-97680530D01*
X104431928Y-97672265D01*
X104455727Y-97666304D01*
X104479995Y-97662704D01*
X104504499Y-97661500D01*
X105154501Y-97661500D01*
X105179005Y-97662704D01*
X105179005Y-97662704D01*
G37*
D12*
X104829500Y-98361500D03*
D11*
G36*
X107229005Y-97662704D02*
X107253273Y-97666304D01*
X107277072Y-97672265D01*
X107300171Y-97680530D01*
X107322350Y-97691020D01*
X107343393Y-97703632D01*
X107363099Y-97718247D01*
X107381277Y-97734723D01*
X107397753Y-97752901D01*
X107412368Y-97772607D01*
X107424980Y-97793650D01*
X107435470Y-97815829D01*
X107443735Y-97838928D01*
X107449696Y-97862727D01*
X107453296Y-97886995D01*
X107454500Y-97911499D01*
X107454500Y-98811501D01*
X107453296Y-98836005D01*
X107449696Y-98860273D01*
X107443735Y-98884072D01*
X107435470Y-98907171D01*
X107424980Y-98929350D01*
X107412368Y-98950393D01*
X107397753Y-98970099D01*
X107381277Y-98988277D01*
X107363099Y-99004753D01*
X107343393Y-99019368D01*
X107322350Y-99031980D01*
X107300171Y-99042470D01*
X107277072Y-99050735D01*
X107253273Y-99056696D01*
X107229005Y-99060296D01*
X107204501Y-99061500D01*
X106554499Y-99061500D01*
X106529995Y-99060296D01*
X106505727Y-99056696D01*
X106481928Y-99050735D01*
X106458829Y-99042470D01*
X106436650Y-99031980D01*
X106415607Y-99019368D01*
X106395901Y-99004753D01*
X106377723Y-98988277D01*
X106361247Y-98970099D01*
X106346632Y-98950393D01*
X106334020Y-98929350D01*
X106323530Y-98907171D01*
X106315265Y-98884072D01*
X106309304Y-98860273D01*
X106305704Y-98836005D01*
X106304500Y-98811501D01*
X106304500Y-97911499D01*
X106305704Y-97886995D01*
X106309304Y-97862727D01*
X106315265Y-97838928D01*
X106323530Y-97815829D01*
X106334020Y-97793650D01*
X106346632Y-97772607D01*
X106361247Y-97752901D01*
X106377723Y-97734723D01*
X106395901Y-97718247D01*
X106415607Y-97703632D01*
X106436650Y-97691020D01*
X106458829Y-97680530D01*
X106481928Y-97672265D01*
X106505727Y-97666304D01*
X106529995Y-97662704D01*
X106554499Y-97661500D01*
X107204501Y-97661500D01*
X107229005Y-97662704D01*
X107229005Y-97662704D01*
G37*
D12*
X106879500Y-98361500D03*
G04 #@! TD*
D11*
G04 #@! TO.C,R13*
G36*
X107220005Y-94487704D02*
X107244273Y-94491304D01*
X107268072Y-94497265D01*
X107291171Y-94505530D01*
X107313350Y-94516020D01*
X107334393Y-94528632D01*
X107354099Y-94543247D01*
X107372277Y-94559723D01*
X107388753Y-94577901D01*
X107403368Y-94597607D01*
X107415980Y-94618650D01*
X107426470Y-94640829D01*
X107434735Y-94663928D01*
X107440696Y-94687727D01*
X107444296Y-94711995D01*
X107445500Y-94736499D01*
X107445500Y-95636501D01*
X107444296Y-95661005D01*
X107440696Y-95685273D01*
X107434735Y-95709072D01*
X107426470Y-95732171D01*
X107415980Y-95754350D01*
X107403368Y-95775393D01*
X107388753Y-95795099D01*
X107372277Y-95813277D01*
X107354099Y-95829753D01*
X107334393Y-95844368D01*
X107313350Y-95856980D01*
X107291171Y-95867470D01*
X107268072Y-95875735D01*
X107244273Y-95881696D01*
X107220005Y-95885296D01*
X107195501Y-95886500D01*
X106545499Y-95886500D01*
X106520995Y-95885296D01*
X106496727Y-95881696D01*
X106472928Y-95875735D01*
X106449829Y-95867470D01*
X106427650Y-95856980D01*
X106406607Y-95844368D01*
X106386901Y-95829753D01*
X106368723Y-95813277D01*
X106352247Y-95795099D01*
X106337632Y-95775393D01*
X106325020Y-95754350D01*
X106314530Y-95732171D01*
X106306265Y-95709072D01*
X106300304Y-95685273D01*
X106296704Y-95661005D01*
X106295500Y-95636501D01*
X106295500Y-94736499D01*
X106296704Y-94711995D01*
X106300304Y-94687727D01*
X106306265Y-94663928D01*
X106314530Y-94640829D01*
X106325020Y-94618650D01*
X106337632Y-94597607D01*
X106352247Y-94577901D01*
X106368723Y-94559723D01*
X106386901Y-94543247D01*
X106406607Y-94528632D01*
X106427650Y-94516020D01*
X106449829Y-94505530D01*
X106472928Y-94497265D01*
X106496727Y-94491304D01*
X106520995Y-94487704D01*
X106545499Y-94486500D01*
X107195501Y-94486500D01*
X107220005Y-94487704D01*
X107220005Y-94487704D01*
G37*
D12*
X106870500Y-95186500D03*
D11*
G36*
X105170005Y-94487704D02*
X105194273Y-94491304D01*
X105218072Y-94497265D01*
X105241171Y-94505530D01*
X105263350Y-94516020D01*
X105284393Y-94528632D01*
X105304099Y-94543247D01*
X105322277Y-94559723D01*
X105338753Y-94577901D01*
X105353368Y-94597607D01*
X105365980Y-94618650D01*
X105376470Y-94640829D01*
X105384735Y-94663928D01*
X105390696Y-94687727D01*
X105394296Y-94711995D01*
X105395500Y-94736499D01*
X105395500Y-95636501D01*
X105394296Y-95661005D01*
X105390696Y-95685273D01*
X105384735Y-95709072D01*
X105376470Y-95732171D01*
X105365980Y-95754350D01*
X105353368Y-95775393D01*
X105338753Y-95795099D01*
X105322277Y-95813277D01*
X105304099Y-95829753D01*
X105284393Y-95844368D01*
X105263350Y-95856980D01*
X105241171Y-95867470D01*
X105218072Y-95875735D01*
X105194273Y-95881696D01*
X105170005Y-95885296D01*
X105145501Y-95886500D01*
X104495499Y-95886500D01*
X104470995Y-95885296D01*
X104446727Y-95881696D01*
X104422928Y-95875735D01*
X104399829Y-95867470D01*
X104377650Y-95856980D01*
X104356607Y-95844368D01*
X104336901Y-95829753D01*
X104318723Y-95813277D01*
X104302247Y-95795099D01*
X104287632Y-95775393D01*
X104275020Y-95754350D01*
X104264530Y-95732171D01*
X104256265Y-95709072D01*
X104250304Y-95685273D01*
X104246704Y-95661005D01*
X104245500Y-95636501D01*
X104245500Y-94736499D01*
X104246704Y-94711995D01*
X104250304Y-94687727D01*
X104256265Y-94663928D01*
X104264530Y-94640829D01*
X104275020Y-94618650D01*
X104287632Y-94597607D01*
X104302247Y-94577901D01*
X104318723Y-94559723D01*
X104336901Y-94543247D01*
X104356607Y-94528632D01*
X104377650Y-94516020D01*
X104399829Y-94505530D01*
X104422928Y-94497265D01*
X104446727Y-94491304D01*
X104470995Y-94487704D01*
X104495499Y-94486500D01*
X105145501Y-94486500D01*
X105170005Y-94487704D01*
X105170005Y-94487704D01*
G37*
D12*
X104820500Y-95186500D03*
G04 #@! TD*
D11*
G04 #@! TO.C,R14*
G36*
X105170005Y-91185704D02*
X105194273Y-91189304D01*
X105218072Y-91195265D01*
X105241171Y-91203530D01*
X105263350Y-91214020D01*
X105284393Y-91226632D01*
X105304099Y-91241247D01*
X105322277Y-91257723D01*
X105338753Y-91275901D01*
X105353368Y-91295607D01*
X105365980Y-91316650D01*
X105376470Y-91338829D01*
X105384735Y-91361928D01*
X105390696Y-91385727D01*
X105394296Y-91409995D01*
X105395500Y-91434499D01*
X105395500Y-92334501D01*
X105394296Y-92359005D01*
X105390696Y-92383273D01*
X105384735Y-92407072D01*
X105376470Y-92430171D01*
X105365980Y-92452350D01*
X105353368Y-92473393D01*
X105338753Y-92493099D01*
X105322277Y-92511277D01*
X105304099Y-92527753D01*
X105284393Y-92542368D01*
X105263350Y-92554980D01*
X105241171Y-92565470D01*
X105218072Y-92573735D01*
X105194273Y-92579696D01*
X105170005Y-92583296D01*
X105145501Y-92584500D01*
X104495499Y-92584500D01*
X104470995Y-92583296D01*
X104446727Y-92579696D01*
X104422928Y-92573735D01*
X104399829Y-92565470D01*
X104377650Y-92554980D01*
X104356607Y-92542368D01*
X104336901Y-92527753D01*
X104318723Y-92511277D01*
X104302247Y-92493099D01*
X104287632Y-92473393D01*
X104275020Y-92452350D01*
X104264530Y-92430171D01*
X104256265Y-92407072D01*
X104250304Y-92383273D01*
X104246704Y-92359005D01*
X104245500Y-92334501D01*
X104245500Y-91434499D01*
X104246704Y-91409995D01*
X104250304Y-91385727D01*
X104256265Y-91361928D01*
X104264530Y-91338829D01*
X104275020Y-91316650D01*
X104287632Y-91295607D01*
X104302247Y-91275901D01*
X104318723Y-91257723D01*
X104336901Y-91241247D01*
X104356607Y-91226632D01*
X104377650Y-91214020D01*
X104399829Y-91203530D01*
X104422928Y-91195265D01*
X104446727Y-91189304D01*
X104470995Y-91185704D01*
X104495499Y-91184500D01*
X105145501Y-91184500D01*
X105170005Y-91185704D01*
X105170005Y-91185704D01*
G37*
D12*
X104820500Y-91884500D03*
D11*
G36*
X107220005Y-91185704D02*
X107244273Y-91189304D01*
X107268072Y-91195265D01*
X107291171Y-91203530D01*
X107313350Y-91214020D01*
X107334393Y-91226632D01*
X107354099Y-91241247D01*
X107372277Y-91257723D01*
X107388753Y-91275901D01*
X107403368Y-91295607D01*
X107415980Y-91316650D01*
X107426470Y-91338829D01*
X107434735Y-91361928D01*
X107440696Y-91385727D01*
X107444296Y-91409995D01*
X107445500Y-91434499D01*
X107445500Y-92334501D01*
X107444296Y-92359005D01*
X107440696Y-92383273D01*
X107434735Y-92407072D01*
X107426470Y-92430171D01*
X107415980Y-92452350D01*
X107403368Y-92473393D01*
X107388753Y-92493099D01*
X107372277Y-92511277D01*
X107354099Y-92527753D01*
X107334393Y-92542368D01*
X107313350Y-92554980D01*
X107291171Y-92565470D01*
X107268072Y-92573735D01*
X107244273Y-92579696D01*
X107220005Y-92583296D01*
X107195501Y-92584500D01*
X106545499Y-92584500D01*
X106520995Y-92583296D01*
X106496727Y-92579696D01*
X106472928Y-92573735D01*
X106449829Y-92565470D01*
X106427650Y-92554980D01*
X106406607Y-92542368D01*
X106386901Y-92527753D01*
X106368723Y-92511277D01*
X106352247Y-92493099D01*
X106337632Y-92473393D01*
X106325020Y-92452350D01*
X106314530Y-92430171D01*
X106306265Y-92407072D01*
X106300304Y-92383273D01*
X106296704Y-92359005D01*
X106295500Y-92334501D01*
X106295500Y-91434499D01*
X106296704Y-91409995D01*
X106300304Y-91385727D01*
X106306265Y-91361928D01*
X106314530Y-91338829D01*
X106325020Y-91316650D01*
X106337632Y-91295607D01*
X106352247Y-91275901D01*
X106368723Y-91257723D01*
X106386901Y-91241247D01*
X106406607Y-91226632D01*
X106427650Y-91214020D01*
X106449829Y-91203530D01*
X106472928Y-91195265D01*
X106496727Y-91189304D01*
X106520995Y-91185704D01*
X106545499Y-91184500D01*
X107195501Y-91184500D01*
X107220005Y-91185704D01*
X107220005Y-91185704D01*
G37*
D12*
X106870500Y-91884500D03*
G04 #@! TD*
D11*
G04 #@! TO.C,R15*
G36*
X107220005Y-87883704D02*
X107244273Y-87887304D01*
X107268072Y-87893265D01*
X107291171Y-87901530D01*
X107313350Y-87912020D01*
X107334393Y-87924632D01*
X107354099Y-87939247D01*
X107372277Y-87955723D01*
X107388753Y-87973901D01*
X107403368Y-87993607D01*
X107415980Y-88014650D01*
X107426470Y-88036829D01*
X107434735Y-88059928D01*
X107440696Y-88083727D01*
X107444296Y-88107995D01*
X107445500Y-88132499D01*
X107445500Y-89032501D01*
X107444296Y-89057005D01*
X107440696Y-89081273D01*
X107434735Y-89105072D01*
X107426470Y-89128171D01*
X107415980Y-89150350D01*
X107403368Y-89171393D01*
X107388753Y-89191099D01*
X107372277Y-89209277D01*
X107354099Y-89225753D01*
X107334393Y-89240368D01*
X107313350Y-89252980D01*
X107291171Y-89263470D01*
X107268072Y-89271735D01*
X107244273Y-89277696D01*
X107220005Y-89281296D01*
X107195501Y-89282500D01*
X106545499Y-89282500D01*
X106520995Y-89281296D01*
X106496727Y-89277696D01*
X106472928Y-89271735D01*
X106449829Y-89263470D01*
X106427650Y-89252980D01*
X106406607Y-89240368D01*
X106386901Y-89225753D01*
X106368723Y-89209277D01*
X106352247Y-89191099D01*
X106337632Y-89171393D01*
X106325020Y-89150350D01*
X106314530Y-89128171D01*
X106306265Y-89105072D01*
X106300304Y-89081273D01*
X106296704Y-89057005D01*
X106295500Y-89032501D01*
X106295500Y-88132499D01*
X106296704Y-88107995D01*
X106300304Y-88083727D01*
X106306265Y-88059928D01*
X106314530Y-88036829D01*
X106325020Y-88014650D01*
X106337632Y-87993607D01*
X106352247Y-87973901D01*
X106368723Y-87955723D01*
X106386901Y-87939247D01*
X106406607Y-87924632D01*
X106427650Y-87912020D01*
X106449829Y-87901530D01*
X106472928Y-87893265D01*
X106496727Y-87887304D01*
X106520995Y-87883704D01*
X106545499Y-87882500D01*
X107195501Y-87882500D01*
X107220005Y-87883704D01*
X107220005Y-87883704D01*
G37*
D12*
X106870500Y-88582500D03*
D11*
G36*
X105170005Y-87883704D02*
X105194273Y-87887304D01*
X105218072Y-87893265D01*
X105241171Y-87901530D01*
X105263350Y-87912020D01*
X105284393Y-87924632D01*
X105304099Y-87939247D01*
X105322277Y-87955723D01*
X105338753Y-87973901D01*
X105353368Y-87993607D01*
X105365980Y-88014650D01*
X105376470Y-88036829D01*
X105384735Y-88059928D01*
X105390696Y-88083727D01*
X105394296Y-88107995D01*
X105395500Y-88132499D01*
X105395500Y-89032501D01*
X105394296Y-89057005D01*
X105390696Y-89081273D01*
X105384735Y-89105072D01*
X105376470Y-89128171D01*
X105365980Y-89150350D01*
X105353368Y-89171393D01*
X105338753Y-89191099D01*
X105322277Y-89209277D01*
X105304099Y-89225753D01*
X105284393Y-89240368D01*
X105263350Y-89252980D01*
X105241171Y-89263470D01*
X105218072Y-89271735D01*
X105194273Y-89277696D01*
X105170005Y-89281296D01*
X105145501Y-89282500D01*
X104495499Y-89282500D01*
X104470995Y-89281296D01*
X104446727Y-89277696D01*
X104422928Y-89271735D01*
X104399829Y-89263470D01*
X104377650Y-89252980D01*
X104356607Y-89240368D01*
X104336901Y-89225753D01*
X104318723Y-89209277D01*
X104302247Y-89191099D01*
X104287632Y-89171393D01*
X104275020Y-89150350D01*
X104264530Y-89128171D01*
X104256265Y-89105072D01*
X104250304Y-89081273D01*
X104246704Y-89057005D01*
X104245500Y-89032501D01*
X104245500Y-88132499D01*
X104246704Y-88107995D01*
X104250304Y-88083727D01*
X104256265Y-88059928D01*
X104264530Y-88036829D01*
X104275020Y-88014650D01*
X104287632Y-87993607D01*
X104302247Y-87973901D01*
X104318723Y-87955723D01*
X104336901Y-87939247D01*
X104356607Y-87924632D01*
X104377650Y-87912020D01*
X104399829Y-87901530D01*
X104422928Y-87893265D01*
X104446727Y-87887304D01*
X104470995Y-87883704D01*
X104495499Y-87882500D01*
X105145501Y-87882500D01*
X105170005Y-87883704D01*
X105170005Y-87883704D01*
G37*
D12*
X104820500Y-88582500D03*
G04 #@! TD*
D11*
G04 #@! TO.C,R16*
G36*
X107229005Y-84327704D02*
X107253273Y-84331304D01*
X107277072Y-84337265D01*
X107300171Y-84345530D01*
X107322350Y-84356020D01*
X107343393Y-84368632D01*
X107363099Y-84383247D01*
X107381277Y-84399723D01*
X107397753Y-84417901D01*
X107412368Y-84437607D01*
X107424980Y-84458650D01*
X107435470Y-84480829D01*
X107443735Y-84503928D01*
X107449696Y-84527727D01*
X107453296Y-84551995D01*
X107454500Y-84576499D01*
X107454500Y-85476501D01*
X107453296Y-85501005D01*
X107449696Y-85525273D01*
X107443735Y-85549072D01*
X107435470Y-85572171D01*
X107424980Y-85594350D01*
X107412368Y-85615393D01*
X107397753Y-85635099D01*
X107381277Y-85653277D01*
X107363099Y-85669753D01*
X107343393Y-85684368D01*
X107322350Y-85696980D01*
X107300171Y-85707470D01*
X107277072Y-85715735D01*
X107253273Y-85721696D01*
X107229005Y-85725296D01*
X107204501Y-85726500D01*
X106554499Y-85726500D01*
X106529995Y-85725296D01*
X106505727Y-85721696D01*
X106481928Y-85715735D01*
X106458829Y-85707470D01*
X106436650Y-85696980D01*
X106415607Y-85684368D01*
X106395901Y-85669753D01*
X106377723Y-85653277D01*
X106361247Y-85635099D01*
X106346632Y-85615393D01*
X106334020Y-85594350D01*
X106323530Y-85572171D01*
X106315265Y-85549072D01*
X106309304Y-85525273D01*
X106305704Y-85501005D01*
X106304500Y-85476501D01*
X106304500Y-84576499D01*
X106305704Y-84551995D01*
X106309304Y-84527727D01*
X106315265Y-84503928D01*
X106323530Y-84480829D01*
X106334020Y-84458650D01*
X106346632Y-84437607D01*
X106361247Y-84417901D01*
X106377723Y-84399723D01*
X106395901Y-84383247D01*
X106415607Y-84368632D01*
X106436650Y-84356020D01*
X106458829Y-84345530D01*
X106481928Y-84337265D01*
X106505727Y-84331304D01*
X106529995Y-84327704D01*
X106554499Y-84326500D01*
X107204501Y-84326500D01*
X107229005Y-84327704D01*
X107229005Y-84327704D01*
G37*
D12*
X106879500Y-85026500D03*
D11*
G36*
X105179005Y-84327704D02*
X105203273Y-84331304D01*
X105227072Y-84337265D01*
X105250171Y-84345530D01*
X105272350Y-84356020D01*
X105293393Y-84368632D01*
X105313099Y-84383247D01*
X105331277Y-84399723D01*
X105347753Y-84417901D01*
X105362368Y-84437607D01*
X105374980Y-84458650D01*
X105385470Y-84480829D01*
X105393735Y-84503928D01*
X105399696Y-84527727D01*
X105403296Y-84551995D01*
X105404500Y-84576499D01*
X105404500Y-85476501D01*
X105403296Y-85501005D01*
X105399696Y-85525273D01*
X105393735Y-85549072D01*
X105385470Y-85572171D01*
X105374980Y-85594350D01*
X105362368Y-85615393D01*
X105347753Y-85635099D01*
X105331277Y-85653277D01*
X105313099Y-85669753D01*
X105293393Y-85684368D01*
X105272350Y-85696980D01*
X105250171Y-85707470D01*
X105227072Y-85715735D01*
X105203273Y-85721696D01*
X105179005Y-85725296D01*
X105154501Y-85726500D01*
X104504499Y-85726500D01*
X104479995Y-85725296D01*
X104455727Y-85721696D01*
X104431928Y-85715735D01*
X104408829Y-85707470D01*
X104386650Y-85696980D01*
X104365607Y-85684368D01*
X104345901Y-85669753D01*
X104327723Y-85653277D01*
X104311247Y-85635099D01*
X104296632Y-85615393D01*
X104284020Y-85594350D01*
X104273530Y-85572171D01*
X104265265Y-85549072D01*
X104259304Y-85525273D01*
X104255704Y-85501005D01*
X104254500Y-85476501D01*
X104254500Y-84576499D01*
X104255704Y-84551995D01*
X104259304Y-84527727D01*
X104265265Y-84503928D01*
X104273530Y-84480829D01*
X104284020Y-84458650D01*
X104296632Y-84437607D01*
X104311247Y-84417901D01*
X104327723Y-84399723D01*
X104345901Y-84383247D01*
X104365607Y-84368632D01*
X104386650Y-84356020D01*
X104408829Y-84345530D01*
X104431928Y-84337265D01*
X104455727Y-84331304D01*
X104479995Y-84327704D01*
X104504499Y-84326500D01*
X105154501Y-84326500D01*
X105179005Y-84327704D01*
X105179005Y-84327704D01*
G37*
D12*
X104829500Y-85026500D03*
G04 #@! TD*
D13*
G04 #@! TO.C,U1*
X80225500Y-99636500D03*
X80225500Y-98356500D03*
X80225500Y-97096500D03*
X80225500Y-95826500D03*
X80225500Y-94546500D03*
X80225500Y-93276500D03*
X80225500Y-92016500D03*
X80225500Y-90736500D03*
X86525500Y-90736500D03*
X86525500Y-92016500D03*
X86525500Y-93276500D03*
X86525500Y-94546500D03*
X86525500Y-95826500D03*
X86525500Y-97096500D03*
X86525500Y-98356500D03*
X86525500Y-99636500D03*
G04 #@! TD*
G04 #@! TO.C,U2*
X99860500Y-99636500D03*
X99860500Y-98356500D03*
X99860500Y-97096500D03*
X99860500Y-95826500D03*
X99860500Y-94546500D03*
X99860500Y-93276500D03*
X99860500Y-92016500D03*
X99860500Y-90736500D03*
X93560500Y-90736500D03*
X93560500Y-92016500D03*
X93560500Y-93276500D03*
X93560500Y-94546500D03*
X93560500Y-95826500D03*
X93560500Y-97096500D03*
X93560500Y-98356500D03*
X93560500Y-99636500D03*
G04 #@! TD*
D11*
G04 #@! TO.C,D17*
G36*
X66879505Y-125031204D02*
X66903773Y-125034804D01*
X66927572Y-125040765D01*
X66950671Y-125049030D01*
X66972850Y-125059520D01*
X66993893Y-125072132D01*
X67013599Y-125086747D01*
X67031777Y-125103223D01*
X67048253Y-125121401D01*
X67062868Y-125141107D01*
X67075480Y-125162150D01*
X67085970Y-125184329D01*
X67094235Y-125207428D01*
X67100196Y-125231227D01*
X67103796Y-125255495D01*
X67105000Y-125279999D01*
X67105000Y-126180001D01*
X67103796Y-126204505D01*
X67100196Y-126228773D01*
X67094235Y-126252572D01*
X67085970Y-126275671D01*
X67075480Y-126297850D01*
X67062868Y-126318893D01*
X67048253Y-126338599D01*
X67031777Y-126356777D01*
X67013599Y-126373253D01*
X66993893Y-126387868D01*
X66972850Y-126400480D01*
X66950671Y-126410970D01*
X66927572Y-126419235D01*
X66903773Y-126425196D01*
X66879505Y-126428796D01*
X66855001Y-126430000D01*
X66204999Y-126430000D01*
X66180495Y-126428796D01*
X66156227Y-126425196D01*
X66132428Y-126419235D01*
X66109329Y-126410970D01*
X66087150Y-126400480D01*
X66066107Y-126387868D01*
X66046401Y-126373253D01*
X66028223Y-126356777D01*
X66011747Y-126338599D01*
X65997132Y-126318893D01*
X65984520Y-126297850D01*
X65974030Y-126275671D01*
X65965765Y-126252572D01*
X65959804Y-126228773D01*
X65956204Y-126204505D01*
X65955000Y-126180001D01*
X65955000Y-125279999D01*
X65956204Y-125255495D01*
X65959804Y-125231227D01*
X65965765Y-125207428D01*
X65974030Y-125184329D01*
X65984520Y-125162150D01*
X65997132Y-125141107D01*
X66011747Y-125121401D01*
X66028223Y-125103223D01*
X66046401Y-125086747D01*
X66066107Y-125072132D01*
X66087150Y-125059520D01*
X66109329Y-125049030D01*
X66132428Y-125040765D01*
X66156227Y-125034804D01*
X66180495Y-125031204D01*
X66204999Y-125030000D01*
X66855001Y-125030000D01*
X66879505Y-125031204D01*
X66879505Y-125031204D01*
G37*
D12*
X66530000Y-125730000D03*
D11*
G36*
X68929505Y-125031204D02*
X68953773Y-125034804D01*
X68977572Y-125040765D01*
X69000671Y-125049030D01*
X69022850Y-125059520D01*
X69043893Y-125072132D01*
X69063599Y-125086747D01*
X69081777Y-125103223D01*
X69098253Y-125121401D01*
X69112868Y-125141107D01*
X69125480Y-125162150D01*
X69135970Y-125184329D01*
X69144235Y-125207428D01*
X69150196Y-125231227D01*
X69153796Y-125255495D01*
X69155000Y-125279999D01*
X69155000Y-126180001D01*
X69153796Y-126204505D01*
X69150196Y-126228773D01*
X69144235Y-126252572D01*
X69135970Y-126275671D01*
X69125480Y-126297850D01*
X69112868Y-126318893D01*
X69098253Y-126338599D01*
X69081777Y-126356777D01*
X69063599Y-126373253D01*
X69043893Y-126387868D01*
X69022850Y-126400480D01*
X69000671Y-126410970D01*
X68977572Y-126419235D01*
X68953773Y-126425196D01*
X68929505Y-126428796D01*
X68905001Y-126430000D01*
X68254999Y-126430000D01*
X68230495Y-126428796D01*
X68206227Y-126425196D01*
X68182428Y-126419235D01*
X68159329Y-126410970D01*
X68137150Y-126400480D01*
X68116107Y-126387868D01*
X68096401Y-126373253D01*
X68078223Y-126356777D01*
X68061747Y-126338599D01*
X68047132Y-126318893D01*
X68034520Y-126297850D01*
X68024030Y-126275671D01*
X68015765Y-126252572D01*
X68009804Y-126228773D01*
X68006204Y-126204505D01*
X68005000Y-126180001D01*
X68005000Y-125279999D01*
X68006204Y-125255495D01*
X68009804Y-125231227D01*
X68015765Y-125207428D01*
X68024030Y-125184329D01*
X68034520Y-125162150D01*
X68047132Y-125141107D01*
X68061747Y-125121401D01*
X68078223Y-125103223D01*
X68096401Y-125086747D01*
X68116107Y-125072132D01*
X68137150Y-125059520D01*
X68159329Y-125049030D01*
X68182428Y-125040765D01*
X68206227Y-125034804D01*
X68230495Y-125031204D01*
X68254999Y-125030000D01*
X68905001Y-125030000D01*
X68929505Y-125031204D01*
X68929505Y-125031204D01*
G37*
D12*
X68580000Y-125730000D03*
G04 #@! TD*
D11*
G04 #@! TO.C,D18*
G36*
X74789505Y-125031204D02*
X74813773Y-125034804D01*
X74837572Y-125040765D01*
X74860671Y-125049030D01*
X74882850Y-125059520D01*
X74903893Y-125072132D01*
X74923599Y-125086747D01*
X74941777Y-125103223D01*
X74958253Y-125121401D01*
X74972868Y-125141107D01*
X74985480Y-125162150D01*
X74995970Y-125184329D01*
X75004235Y-125207428D01*
X75010196Y-125231227D01*
X75013796Y-125255495D01*
X75015000Y-125279999D01*
X75015000Y-126180001D01*
X75013796Y-126204505D01*
X75010196Y-126228773D01*
X75004235Y-126252572D01*
X74995970Y-126275671D01*
X74985480Y-126297850D01*
X74972868Y-126318893D01*
X74958253Y-126338599D01*
X74941777Y-126356777D01*
X74923599Y-126373253D01*
X74903893Y-126387868D01*
X74882850Y-126400480D01*
X74860671Y-126410970D01*
X74837572Y-126419235D01*
X74813773Y-126425196D01*
X74789505Y-126428796D01*
X74765001Y-126430000D01*
X74114999Y-126430000D01*
X74090495Y-126428796D01*
X74066227Y-126425196D01*
X74042428Y-126419235D01*
X74019329Y-126410970D01*
X73997150Y-126400480D01*
X73976107Y-126387868D01*
X73956401Y-126373253D01*
X73938223Y-126356777D01*
X73921747Y-126338599D01*
X73907132Y-126318893D01*
X73894520Y-126297850D01*
X73884030Y-126275671D01*
X73875765Y-126252572D01*
X73869804Y-126228773D01*
X73866204Y-126204505D01*
X73865000Y-126180001D01*
X73865000Y-125279999D01*
X73866204Y-125255495D01*
X73869804Y-125231227D01*
X73875765Y-125207428D01*
X73884030Y-125184329D01*
X73894520Y-125162150D01*
X73907132Y-125141107D01*
X73921747Y-125121401D01*
X73938223Y-125103223D01*
X73956401Y-125086747D01*
X73976107Y-125072132D01*
X73997150Y-125059520D01*
X74019329Y-125049030D01*
X74042428Y-125040765D01*
X74066227Y-125034804D01*
X74090495Y-125031204D01*
X74114999Y-125030000D01*
X74765001Y-125030000D01*
X74789505Y-125031204D01*
X74789505Y-125031204D01*
G37*
D12*
X74440000Y-125730000D03*
D11*
G36*
X72739505Y-125031204D02*
X72763773Y-125034804D01*
X72787572Y-125040765D01*
X72810671Y-125049030D01*
X72832850Y-125059520D01*
X72853893Y-125072132D01*
X72873599Y-125086747D01*
X72891777Y-125103223D01*
X72908253Y-125121401D01*
X72922868Y-125141107D01*
X72935480Y-125162150D01*
X72945970Y-125184329D01*
X72954235Y-125207428D01*
X72960196Y-125231227D01*
X72963796Y-125255495D01*
X72965000Y-125279999D01*
X72965000Y-126180001D01*
X72963796Y-126204505D01*
X72960196Y-126228773D01*
X72954235Y-126252572D01*
X72945970Y-126275671D01*
X72935480Y-126297850D01*
X72922868Y-126318893D01*
X72908253Y-126338599D01*
X72891777Y-126356777D01*
X72873599Y-126373253D01*
X72853893Y-126387868D01*
X72832850Y-126400480D01*
X72810671Y-126410970D01*
X72787572Y-126419235D01*
X72763773Y-126425196D01*
X72739505Y-126428796D01*
X72715001Y-126430000D01*
X72064999Y-126430000D01*
X72040495Y-126428796D01*
X72016227Y-126425196D01*
X71992428Y-126419235D01*
X71969329Y-126410970D01*
X71947150Y-126400480D01*
X71926107Y-126387868D01*
X71906401Y-126373253D01*
X71888223Y-126356777D01*
X71871747Y-126338599D01*
X71857132Y-126318893D01*
X71844520Y-126297850D01*
X71834030Y-126275671D01*
X71825765Y-126252572D01*
X71819804Y-126228773D01*
X71816204Y-126204505D01*
X71815000Y-126180001D01*
X71815000Y-125279999D01*
X71816204Y-125255495D01*
X71819804Y-125231227D01*
X71825765Y-125207428D01*
X71834030Y-125184329D01*
X71844520Y-125162150D01*
X71857132Y-125141107D01*
X71871747Y-125121401D01*
X71888223Y-125103223D01*
X71906401Y-125086747D01*
X71926107Y-125072132D01*
X71947150Y-125059520D01*
X71969329Y-125049030D01*
X71992428Y-125040765D01*
X72016227Y-125034804D01*
X72040495Y-125031204D01*
X72064999Y-125030000D01*
X72715001Y-125030000D01*
X72739505Y-125031204D01*
X72739505Y-125031204D01*
G37*
D12*
X72390000Y-125730000D03*
G04 #@! TD*
D11*
G04 #@! TO.C,D19*
G36*
X79089505Y-125031204D02*
X79113773Y-125034804D01*
X79137572Y-125040765D01*
X79160671Y-125049030D01*
X79182850Y-125059520D01*
X79203893Y-125072132D01*
X79223599Y-125086747D01*
X79241777Y-125103223D01*
X79258253Y-125121401D01*
X79272868Y-125141107D01*
X79285480Y-125162150D01*
X79295970Y-125184329D01*
X79304235Y-125207428D01*
X79310196Y-125231227D01*
X79313796Y-125255495D01*
X79315000Y-125279999D01*
X79315000Y-126180001D01*
X79313796Y-126204505D01*
X79310196Y-126228773D01*
X79304235Y-126252572D01*
X79295970Y-126275671D01*
X79285480Y-126297850D01*
X79272868Y-126318893D01*
X79258253Y-126338599D01*
X79241777Y-126356777D01*
X79223599Y-126373253D01*
X79203893Y-126387868D01*
X79182850Y-126400480D01*
X79160671Y-126410970D01*
X79137572Y-126419235D01*
X79113773Y-126425196D01*
X79089505Y-126428796D01*
X79065001Y-126430000D01*
X78414999Y-126430000D01*
X78390495Y-126428796D01*
X78366227Y-126425196D01*
X78342428Y-126419235D01*
X78319329Y-126410970D01*
X78297150Y-126400480D01*
X78276107Y-126387868D01*
X78256401Y-126373253D01*
X78238223Y-126356777D01*
X78221747Y-126338599D01*
X78207132Y-126318893D01*
X78194520Y-126297850D01*
X78184030Y-126275671D01*
X78175765Y-126252572D01*
X78169804Y-126228773D01*
X78166204Y-126204505D01*
X78165000Y-126180001D01*
X78165000Y-125279999D01*
X78166204Y-125255495D01*
X78169804Y-125231227D01*
X78175765Y-125207428D01*
X78184030Y-125184329D01*
X78194520Y-125162150D01*
X78207132Y-125141107D01*
X78221747Y-125121401D01*
X78238223Y-125103223D01*
X78256401Y-125086747D01*
X78276107Y-125072132D01*
X78297150Y-125059520D01*
X78319329Y-125049030D01*
X78342428Y-125040765D01*
X78366227Y-125034804D01*
X78390495Y-125031204D01*
X78414999Y-125030000D01*
X79065001Y-125030000D01*
X79089505Y-125031204D01*
X79089505Y-125031204D01*
G37*
D12*
X78740000Y-125730000D03*
D11*
G36*
X81139505Y-125031204D02*
X81163773Y-125034804D01*
X81187572Y-125040765D01*
X81210671Y-125049030D01*
X81232850Y-125059520D01*
X81253893Y-125072132D01*
X81273599Y-125086747D01*
X81291777Y-125103223D01*
X81308253Y-125121401D01*
X81322868Y-125141107D01*
X81335480Y-125162150D01*
X81345970Y-125184329D01*
X81354235Y-125207428D01*
X81360196Y-125231227D01*
X81363796Y-125255495D01*
X81365000Y-125279999D01*
X81365000Y-126180001D01*
X81363796Y-126204505D01*
X81360196Y-126228773D01*
X81354235Y-126252572D01*
X81345970Y-126275671D01*
X81335480Y-126297850D01*
X81322868Y-126318893D01*
X81308253Y-126338599D01*
X81291777Y-126356777D01*
X81273599Y-126373253D01*
X81253893Y-126387868D01*
X81232850Y-126400480D01*
X81210671Y-126410970D01*
X81187572Y-126419235D01*
X81163773Y-126425196D01*
X81139505Y-126428796D01*
X81115001Y-126430000D01*
X80464999Y-126430000D01*
X80440495Y-126428796D01*
X80416227Y-126425196D01*
X80392428Y-126419235D01*
X80369329Y-126410970D01*
X80347150Y-126400480D01*
X80326107Y-126387868D01*
X80306401Y-126373253D01*
X80288223Y-126356777D01*
X80271747Y-126338599D01*
X80257132Y-126318893D01*
X80244520Y-126297850D01*
X80234030Y-126275671D01*
X80225765Y-126252572D01*
X80219804Y-126228773D01*
X80216204Y-126204505D01*
X80215000Y-126180001D01*
X80215000Y-125279999D01*
X80216204Y-125255495D01*
X80219804Y-125231227D01*
X80225765Y-125207428D01*
X80234030Y-125184329D01*
X80244520Y-125162150D01*
X80257132Y-125141107D01*
X80271747Y-125121401D01*
X80288223Y-125103223D01*
X80306401Y-125086747D01*
X80326107Y-125072132D01*
X80347150Y-125059520D01*
X80369329Y-125049030D01*
X80392428Y-125040765D01*
X80416227Y-125034804D01*
X80440495Y-125031204D01*
X80464999Y-125030000D01*
X81115001Y-125030000D01*
X81139505Y-125031204D01*
X81139505Y-125031204D01*
G37*
D12*
X80790000Y-125730000D03*
G04 #@! TD*
D11*
G04 #@! TO.C,D20*
G36*
X87734505Y-125031204D02*
X87758773Y-125034804D01*
X87782572Y-125040765D01*
X87805671Y-125049030D01*
X87827850Y-125059520D01*
X87848893Y-125072132D01*
X87868599Y-125086747D01*
X87886777Y-125103223D01*
X87903253Y-125121401D01*
X87917868Y-125141107D01*
X87930480Y-125162150D01*
X87940970Y-125184329D01*
X87949235Y-125207428D01*
X87955196Y-125231227D01*
X87958796Y-125255495D01*
X87960000Y-125279999D01*
X87960000Y-126180001D01*
X87958796Y-126204505D01*
X87955196Y-126228773D01*
X87949235Y-126252572D01*
X87940970Y-126275671D01*
X87930480Y-126297850D01*
X87917868Y-126318893D01*
X87903253Y-126338599D01*
X87886777Y-126356777D01*
X87868599Y-126373253D01*
X87848893Y-126387868D01*
X87827850Y-126400480D01*
X87805671Y-126410970D01*
X87782572Y-126419235D01*
X87758773Y-126425196D01*
X87734505Y-126428796D01*
X87710001Y-126430000D01*
X87059999Y-126430000D01*
X87035495Y-126428796D01*
X87011227Y-126425196D01*
X86987428Y-126419235D01*
X86964329Y-126410970D01*
X86942150Y-126400480D01*
X86921107Y-126387868D01*
X86901401Y-126373253D01*
X86883223Y-126356777D01*
X86866747Y-126338599D01*
X86852132Y-126318893D01*
X86839520Y-126297850D01*
X86829030Y-126275671D01*
X86820765Y-126252572D01*
X86814804Y-126228773D01*
X86811204Y-126204505D01*
X86810000Y-126180001D01*
X86810000Y-125279999D01*
X86811204Y-125255495D01*
X86814804Y-125231227D01*
X86820765Y-125207428D01*
X86829030Y-125184329D01*
X86839520Y-125162150D01*
X86852132Y-125141107D01*
X86866747Y-125121401D01*
X86883223Y-125103223D01*
X86901401Y-125086747D01*
X86921107Y-125072132D01*
X86942150Y-125059520D01*
X86964329Y-125049030D01*
X86987428Y-125040765D01*
X87011227Y-125034804D01*
X87035495Y-125031204D01*
X87059999Y-125030000D01*
X87710001Y-125030000D01*
X87734505Y-125031204D01*
X87734505Y-125031204D01*
G37*
D12*
X87385000Y-125730000D03*
D11*
G36*
X85684505Y-125031204D02*
X85708773Y-125034804D01*
X85732572Y-125040765D01*
X85755671Y-125049030D01*
X85777850Y-125059520D01*
X85798893Y-125072132D01*
X85818599Y-125086747D01*
X85836777Y-125103223D01*
X85853253Y-125121401D01*
X85867868Y-125141107D01*
X85880480Y-125162150D01*
X85890970Y-125184329D01*
X85899235Y-125207428D01*
X85905196Y-125231227D01*
X85908796Y-125255495D01*
X85910000Y-125279999D01*
X85910000Y-126180001D01*
X85908796Y-126204505D01*
X85905196Y-126228773D01*
X85899235Y-126252572D01*
X85890970Y-126275671D01*
X85880480Y-126297850D01*
X85867868Y-126318893D01*
X85853253Y-126338599D01*
X85836777Y-126356777D01*
X85818599Y-126373253D01*
X85798893Y-126387868D01*
X85777850Y-126400480D01*
X85755671Y-126410970D01*
X85732572Y-126419235D01*
X85708773Y-126425196D01*
X85684505Y-126428796D01*
X85660001Y-126430000D01*
X85009999Y-126430000D01*
X84985495Y-126428796D01*
X84961227Y-126425196D01*
X84937428Y-126419235D01*
X84914329Y-126410970D01*
X84892150Y-126400480D01*
X84871107Y-126387868D01*
X84851401Y-126373253D01*
X84833223Y-126356777D01*
X84816747Y-126338599D01*
X84802132Y-126318893D01*
X84789520Y-126297850D01*
X84779030Y-126275671D01*
X84770765Y-126252572D01*
X84764804Y-126228773D01*
X84761204Y-126204505D01*
X84760000Y-126180001D01*
X84760000Y-125279999D01*
X84761204Y-125255495D01*
X84764804Y-125231227D01*
X84770765Y-125207428D01*
X84779030Y-125184329D01*
X84789520Y-125162150D01*
X84802132Y-125141107D01*
X84816747Y-125121401D01*
X84833223Y-125103223D01*
X84851401Y-125086747D01*
X84871107Y-125072132D01*
X84892150Y-125059520D01*
X84914329Y-125049030D01*
X84937428Y-125040765D01*
X84961227Y-125034804D01*
X84985495Y-125031204D01*
X85009999Y-125030000D01*
X85660001Y-125030000D01*
X85684505Y-125031204D01*
X85684505Y-125031204D01*
G37*
D12*
X85335000Y-125730000D03*
G04 #@! TD*
D11*
G04 #@! TO.C,D21*
G36*
X92034505Y-125031204D02*
X92058773Y-125034804D01*
X92082572Y-125040765D01*
X92105671Y-125049030D01*
X92127850Y-125059520D01*
X92148893Y-125072132D01*
X92168599Y-125086747D01*
X92186777Y-125103223D01*
X92203253Y-125121401D01*
X92217868Y-125141107D01*
X92230480Y-125162150D01*
X92240970Y-125184329D01*
X92249235Y-125207428D01*
X92255196Y-125231227D01*
X92258796Y-125255495D01*
X92260000Y-125279999D01*
X92260000Y-126180001D01*
X92258796Y-126204505D01*
X92255196Y-126228773D01*
X92249235Y-126252572D01*
X92240970Y-126275671D01*
X92230480Y-126297850D01*
X92217868Y-126318893D01*
X92203253Y-126338599D01*
X92186777Y-126356777D01*
X92168599Y-126373253D01*
X92148893Y-126387868D01*
X92127850Y-126400480D01*
X92105671Y-126410970D01*
X92082572Y-126419235D01*
X92058773Y-126425196D01*
X92034505Y-126428796D01*
X92010001Y-126430000D01*
X91359999Y-126430000D01*
X91335495Y-126428796D01*
X91311227Y-126425196D01*
X91287428Y-126419235D01*
X91264329Y-126410970D01*
X91242150Y-126400480D01*
X91221107Y-126387868D01*
X91201401Y-126373253D01*
X91183223Y-126356777D01*
X91166747Y-126338599D01*
X91152132Y-126318893D01*
X91139520Y-126297850D01*
X91129030Y-126275671D01*
X91120765Y-126252572D01*
X91114804Y-126228773D01*
X91111204Y-126204505D01*
X91110000Y-126180001D01*
X91110000Y-125279999D01*
X91111204Y-125255495D01*
X91114804Y-125231227D01*
X91120765Y-125207428D01*
X91129030Y-125184329D01*
X91139520Y-125162150D01*
X91152132Y-125141107D01*
X91166747Y-125121401D01*
X91183223Y-125103223D01*
X91201401Y-125086747D01*
X91221107Y-125072132D01*
X91242150Y-125059520D01*
X91264329Y-125049030D01*
X91287428Y-125040765D01*
X91311227Y-125034804D01*
X91335495Y-125031204D01*
X91359999Y-125030000D01*
X92010001Y-125030000D01*
X92034505Y-125031204D01*
X92034505Y-125031204D01*
G37*
D12*
X91685000Y-125730000D03*
D11*
G36*
X94084505Y-125031204D02*
X94108773Y-125034804D01*
X94132572Y-125040765D01*
X94155671Y-125049030D01*
X94177850Y-125059520D01*
X94198893Y-125072132D01*
X94218599Y-125086747D01*
X94236777Y-125103223D01*
X94253253Y-125121401D01*
X94267868Y-125141107D01*
X94280480Y-125162150D01*
X94290970Y-125184329D01*
X94299235Y-125207428D01*
X94305196Y-125231227D01*
X94308796Y-125255495D01*
X94310000Y-125279999D01*
X94310000Y-126180001D01*
X94308796Y-126204505D01*
X94305196Y-126228773D01*
X94299235Y-126252572D01*
X94290970Y-126275671D01*
X94280480Y-126297850D01*
X94267868Y-126318893D01*
X94253253Y-126338599D01*
X94236777Y-126356777D01*
X94218599Y-126373253D01*
X94198893Y-126387868D01*
X94177850Y-126400480D01*
X94155671Y-126410970D01*
X94132572Y-126419235D01*
X94108773Y-126425196D01*
X94084505Y-126428796D01*
X94060001Y-126430000D01*
X93409999Y-126430000D01*
X93385495Y-126428796D01*
X93361227Y-126425196D01*
X93337428Y-126419235D01*
X93314329Y-126410970D01*
X93292150Y-126400480D01*
X93271107Y-126387868D01*
X93251401Y-126373253D01*
X93233223Y-126356777D01*
X93216747Y-126338599D01*
X93202132Y-126318893D01*
X93189520Y-126297850D01*
X93179030Y-126275671D01*
X93170765Y-126252572D01*
X93164804Y-126228773D01*
X93161204Y-126204505D01*
X93160000Y-126180001D01*
X93160000Y-125279999D01*
X93161204Y-125255495D01*
X93164804Y-125231227D01*
X93170765Y-125207428D01*
X93179030Y-125184329D01*
X93189520Y-125162150D01*
X93202132Y-125141107D01*
X93216747Y-125121401D01*
X93233223Y-125103223D01*
X93251401Y-125086747D01*
X93271107Y-125072132D01*
X93292150Y-125059520D01*
X93314329Y-125049030D01*
X93337428Y-125040765D01*
X93361227Y-125034804D01*
X93385495Y-125031204D01*
X93409999Y-125030000D01*
X94060001Y-125030000D01*
X94084505Y-125031204D01*
X94084505Y-125031204D01*
G37*
D12*
X93735000Y-125730000D03*
G04 #@! TD*
D11*
G04 #@! TO.C,D22*
G36*
X100434505Y-125031204D02*
X100458773Y-125034804D01*
X100482572Y-125040765D01*
X100505671Y-125049030D01*
X100527850Y-125059520D01*
X100548893Y-125072132D01*
X100568599Y-125086747D01*
X100586777Y-125103223D01*
X100603253Y-125121401D01*
X100617868Y-125141107D01*
X100630480Y-125162150D01*
X100640970Y-125184329D01*
X100649235Y-125207428D01*
X100655196Y-125231227D01*
X100658796Y-125255495D01*
X100660000Y-125279999D01*
X100660000Y-126180001D01*
X100658796Y-126204505D01*
X100655196Y-126228773D01*
X100649235Y-126252572D01*
X100640970Y-126275671D01*
X100630480Y-126297850D01*
X100617868Y-126318893D01*
X100603253Y-126338599D01*
X100586777Y-126356777D01*
X100568599Y-126373253D01*
X100548893Y-126387868D01*
X100527850Y-126400480D01*
X100505671Y-126410970D01*
X100482572Y-126419235D01*
X100458773Y-126425196D01*
X100434505Y-126428796D01*
X100410001Y-126430000D01*
X99759999Y-126430000D01*
X99735495Y-126428796D01*
X99711227Y-126425196D01*
X99687428Y-126419235D01*
X99664329Y-126410970D01*
X99642150Y-126400480D01*
X99621107Y-126387868D01*
X99601401Y-126373253D01*
X99583223Y-126356777D01*
X99566747Y-126338599D01*
X99552132Y-126318893D01*
X99539520Y-126297850D01*
X99529030Y-126275671D01*
X99520765Y-126252572D01*
X99514804Y-126228773D01*
X99511204Y-126204505D01*
X99510000Y-126180001D01*
X99510000Y-125279999D01*
X99511204Y-125255495D01*
X99514804Y-125231227D01*
X99520765Y-125207428D01*
X99529030Y-125184329D01*
X99539520Y-125162150D01*
X99552132Y-125141107D01*
X99566747Y-125121401D01*
X99583223Y-125103223D01*
X99601401Y-125086747D01*
X99621107Y-125072132D01*
X99642150Y-125059520D01*
X99664329Y-125049030D01*
X99687428Y-125040765D01*
X99711227Y-125034804D01*
X99735495Y-125031204D01*
X99759999Y-125030000D01*
X100410001Y-125030000D01*
X100434505Y-125031204D01*
X100434505Y-125031204D01*
G37*
D12*
X100085000Y-125730000D03*
D11*
G36*
X98384505Y-125031204D02*
X98408773Y-125034804D01*
X98432572Y-125040765D01*
X98455671Y-125049030D01*
X98477850Y-125059520D01*
X98498893Y-125072132D01*
X98518599Y-125086747D01*
X98536777Y-125103223D01*
X98553253Y-125121401D01*
X98567868Y-125141107D01*
X98580480Y-125162150D01*
X98590970Y-125184329D01*
X98599235Y-125207428D01*
X98605196Y-125231227D01*
X98608796Y-125255495D01*
X98610000Y-125279999D01*
X98610000Y-126180001D01*
X98608796Y-126204505D01*
X98605196Y-126228773D01*
X98599235Y-126252572D01*
X98590970Y-126275671D01*
X98580480Y-126297850D01*
X98567868Y-126318893D01*
X98553253Y-126338599D01*
X98536777Y-126356777D01*
X98518599Y-126373253D01*
X98498893Y-126387868D01*
X98477850Y-126400480D01*
X98455671Y-126410970D01*
X98432572Y-126419235D01*
X98408773Y-126425196D01*
X98384505Y-126428796D01*
X98360001Y-126430000D01*
X97709999Y-126430000D01*
X97685495Y-126428796D01*
X97661227Y-126425196D01*
X97637428Y-126419235D01*
X97614329Y-126410970D01*
X97592150Y-126400480D01*
X97571107Y-126387868D01*
X97551401Y-126373253D01*
X97533223Y-126356777D01*
X97516747Y-126338599D01*
X97502132Y-126318893D01*
X97489520Y-126297850D01*
X97479030Y-126275671D01*
X97470765Y-126252572D01*
X97464804Y-126228773D01*
X97461204Y-126204505D01*
X97460000Y-126180001D01*
X97460000Y-125279999D01*
X97461204Y-125255495D01*
X97464804Y-125231227D01*
X97470765Y-125207428D01*
X97479030Y-125184329D01*
X97489520Y-125162150D01*
X97502132Y-125141107D01*
X97516747Y-125121401D01*
X97533223Y-125103223D01*
X97551401Y-125086747D01*
X97571107Y-125072132D01*
X97592150Y-125059520D01*
X97614329Y-125049030D01*
X97637428Y-125040765D01*
X97661227Y-125034804D01*
X97685495Y-125031204D01*
X97709999Y-125030000D01*
X98360001Y-125030000D01*
X98384505Y-125031204D01*
X98384505Y-125031204D01*
G37*
D12*
X98035000Y-125730000D03*
G04 #@! TD*
D11*
G04 #@! TO.C,D23*
G36*
X104734505Y-125031204D02*
X104758773Y-125034804D01*
X104782572Y-125040765D01*
X104805671Y-125049030D01*
X104827850Y-125059520D01*
X104848893Y-125072132D01*
X104868599Y-125086747D01*
X104886777Y-125103223D01*
X104903253Y-125121401D01*
X104917868Y-125141107D01*
X104930480Y-125162150D01*
X104940970Y-125184329D01*
X104949235Y-125207428D01*
X104955196Y-125231227D01*
X104958796Y-125255495D01*
X104960000Y-125279999D01*
X104960000Y-126180001D01*
X104958796Y-126204505D01*
X104955196Y-126228773D01*
X104949235Y-126252572D01*
X104940970Y-126275671D01*
X104930480Y-126297850D01*
X104917868Y-126318893D01*
X104903253Y-126338599D01*
X104886777Y-126356777D01*
X104868599Y-126373253D01*
X104848893Y-126387868D01*
X104827850Y-126400480D01*
X104805671Y-126410970D01*
X104782572Y-126419235D01*
X104758773Y-126425196D01*
X104734505Y-126428796D01*
X104710001Y-126430000D01*
X104059999Y-126430000D01*
X104035495Y-126428796D01*
X104011227Y-126425196D01*
X103987428Y-126419235D01*
X103964329Y-126410970D01*
X103942150Y-126400480D01*
X103921107Y-126387868D01*
X103901401Y-126373253D01*
X103883223Y-126356777D01*
X103866747Y-126338599D01*
X103852132Y-126318893D01*
X103839520Y-126297850D01*
X103829030Y-126275671D01*
X103820765Y-126252572D01*
X103814804Y-126228773D01*
X103811204Y-126204505D01*
X103810000Y-126180001D01*
X103810000Y-125279999D01*
X103811204Y-125255495D01*
X103814804Y-125231227D01*
X103820765Y-125207428D01*
X103829030Y-125184329D01*
X103839520Y-125162150D01*
X103852132Y-125141107D01*
X103866747Y-125121401D01*
X103883223Y-125103223D01*
X103901401Y-125086747D01*
X103921107Y-125072132D01*
X103942150Y-125059520D01*
X103964329Y-125049030D01*
X103987428Y-125040765D01*
X104011227Y-125034804D01*
X104035495Y-125031204D01*
X104059999Y-125030000D01*
X104710001Y-125030000D01*
X104734505Y-125031204D01*
X104734505Y-125031204D01*
G37*
D12*
X104385000Y-125730000D03*
D11*
G36*
X106784505Y-125031204D02*
X106808773Y-125034804D01*
X106832572Y-125040765D01*
X106855671Y-125049030D01*
X106877850Y-125059520D01*
X106898893Y-125072132D01*
X106918599Y-125086747D01*
X106936777Y-125103223D01*
X106953253Y-125121401D01*
X106967868Y-125141107D01*
X106980480Y-125162150D01*
X106990970Y-125184329D01*
X106999235Y-125207428D01*
X107005196Y-125231227D01*
X107008796Y-125255495D01*
X107010000Y-125279999D01*
X107010000Y-126180001D01*
X107008796Y-126204505D01*
X107005196Y-126228773D01*
X106999235Y-126252572D01*
X106990970Y-126275671D01*
X106980480Y-126297850D01*
X106967868Y-126318893D01*
X106953253Y-126338599D01*
X106936777Y-126356777D01*
X106918599Y-126373253D01*
X106898893Y-126387868D01*
X106877850Y-126400480D01*
X106855671Y-126410970D01*
X106832572Y-126419235D01*
X106808773Y-126425196D01*
X106784505Y-126428796D01*
X106760001Y-126430000D01*
X106109999Y-126430000D01*
X106085495Y-126428796D01*
X106061227Y-126425196D01*
X106037428Y-126419235D01*
X106014329Y-126410970D01*
X105992150Y-126400480D01*
X105971107Y-126387868D01*
X105951401Y-126373253D01*
X105933223Y-126356777D01*
X105916747Y-126338599D01*
X105902132Y-126318893D01*
X105889520Y-126297850D01*
X105879030Y-126275671D01*
X105870765Y-126252572D01*
X105864804Y-126228773D01*
X105861204Y-126204505D01*
X105860000Y-126180001D01*
X105860000Y-125279999D01*
X105861204Y-125255495D01*
X105864804Y-125231227D01*
X105870765Y-125207428D01*
X105879030Y-125184329D01*
X105889520Y-125162150D01*
X105902132Y-125141107D01*
X105916747Y-125121401D01*
X105933223Y-125103223D01*
X105951401Y-125086747D01*
X105971107Y-125072132D01*
X105992150Y-125059520D01*
X106014329Y-125049030D01*
X106037428Y-125040765D01*
X106061227Y-125034804D01*
X106085495Y-125031204D01*
X106109999Y-125030000D01*
X106760001Y-125030000D01*
X106784505Y-125031204D01*
X106784505Y-125031204D01*
G37*
D12*
X106435000Y-125730000D03*
G04 #@! TD*
D11*
G04 #@! TO.C,D24*
G36*
X113134505Y-125031204D02*
X113158773Y-125034804D01*
X113182572Y-125040765D01*
X113205671Y-125049030D01*
X113227850Y-125059520D01*
X113248893Y-125072132D01*
X113268599Y-125086747D01*
X113286777Y-125103223D01*
X113303253Y-125121401D01*
X113317868Y-125141107D01*
X113330480Y-125162150D01*
X113340970Y-125184329D01*
X113349235Y-125207428D01*
X113355196Y-125231227D01*
X113358796Y-125255495D01*
X113360000Y-125279999D01*
X113360000Y-126180001D01*
X113358796Y-126204505D01*
X113355196Y-126228773D01*
X113349235Y-126252572D01*
X113340970Y-126275671D01*
X113330480Y-126297850D01*
X113317868Y-126318893D01*
X113303253Y-126338599D01*
X113286777Y-126356777D01*
X113268599Y-126373253D01*
X113248893Y-126387868D01*
X113227850Y-126400480D01*
X113205671Y-126410970D01*
X113182572Y-126419235D01*
X113158773Y-126425196D01*
X113134505Y-126428796D01*
X113110001Y-126430000D01*
X112459999Y-126430000D01*
X112435495Y-126428796D01*
X112411227Y-126425196D01*
X112387428Y-126419235D01*
X112364329Y-126410970D01*
X112342150Y-126400480D01*
X112321107Y-126387868D01*
X112301401Y-126373253D01*
X112283223Y-126356777D01*
X112266747Y-126338599D01*
X112252132Y-126318893D01*
X112239520Y-126297850D01*
X112229030Y-126275671D01*
X112220765Y-126252572D01*
X112214804Y-126228773D01*
X112211204Y-126204505D01*
X112210000Y-126180001D01*
X112210000Y-125279999D01*
X112211204Y-125255495D01*
X112214804Y-125231227D01*
X112220765Y-125207428D01*
X112229030Y-125184329D01*
X112239520Y-125162150D01*
X112252132Y-125141107D01*
X112266747Y-125121401D01*
X112283223Y-125103223D01*
X112301401Y-125086747D01*
X112321107Y-125072132D01*
X112342150Y-125059520D01*
X112364329Y-125049030D01*
X112387428Y-125040765D01*
X112411227Y-125034804D01*
X112435495Y-125031204D01*
X112459999Y-125030000D01*
X113110001Y-125030000D01*
X113134505Y-125031204D01*
X113134505Y-125031204D01*
G37*
D12*
X112785000Y-125730000D03*
D11*
G36*
X111084505Y-125031204D02*
X111108773Y-125034804D01*
X111132572Y-125040765D01*
X111155671Y-125049030D01*
X111177850Y-125059520D01*
X111198893Y-125072132D01*
X111218599Y-125086747D01*
X111236777Y-125103223D01*
X111253253Y-125121401D01*
X111267868Y-125141107D01*
X111280480Y-125162150D01*
X111290970Y-125184329D01*
X111299235Y-125207428D01*
X111305196Y-125231227D01*
X111308796Y-125255495D01*
X111310000Y-125279999D01*
X111310000Y-126180001D01*
X111308796Y-126204505D01*
X111305196Y-126228773D01*
X111299235Y-126252572D01*
X111290970Y-126275671D01*
X111280480Y-126297850D01*
X111267868Y-126318893D01*
X111253253Y-126338599D01*
X111236777Y-126356777D01*
X111218599Y-126373253D01*
X111198893Y-126387868D01*
X111177850Y-126400480D01*
X111155671Y-126410970D01*
X111132572Y-126419235D01*
X111108773Y-126425196D01*
X111084505Y-126428796D01*
X111060001Y-126430000D01*
X110409999Y-126430000D01*
X110385495Y-126428796D01*
X110361227Y-126425196D01*
X110337428Y-126419235D01*
X110314329Y-126410970D01*
X110292150Y-126400480D01*
X110271107Y-126387868D01*
X110251401Y-126373253D01*
X110233223Y-126356777D01*
X110216747Y-126338599D01*
X110202132Y-126318893D01*
X110189520Y-126297850D01*
X110179030Y-126275671D01*
X110170765Y-126252572D01*
X110164804Y-126228773D01*
X110161204Y-126204505D01*
X110160000Y-126180001D01*
X110160000Y-125279999D01*
X110161204Y-125255495D01*
X110164804Y-125231227D01*
X110170765Y-125207428D01*
X110179030Y-125184329D01*
X110189520Y-125162150D01*
X110202132Y-125141107D01*
X110216747Y-125121401D01*
X110233223Y-125103223D01*
X110251401Y-125086747D01*
X110271107Y-125072132D01*
X110292150Y-125059520D01*
X110314329Y-125049030D01*
X110337428Y-125040765D01*
X110361227Y-125034804D01*
X110385495Y-125031204D01*
X110409999Y-125030000D01*
X111060001Y-125030000D01*
X111084505Y-125031204D01*
X111084505Y-125031204D01*
G37*
D12*
X110735000Y-125730000D03*
G04 #@! TD*
D11*
G04 #@! TO.C,R17*
G36*
X66514505Y-117291204D02*
X66538773Y-117294804D01*
X66562572Y-117300765D01*
X66585671Y-117309030D01*
X66607850Y-117319520D01*
X66628893Y-117332132D01*
X66648599Y-117346747D01*
X66666777Y-117363223D01*
X66683253Y-117381401D01*
X66697868Y-117401107D01*
X66710480Y-117422150D01*
X66720970Y-117444329D01*
X66729235Y-117467428D01*
X66735196Y-117491227D01*
X66738796Y-117515495D01*
X66740000Y-117539999D01*
X66740000Y-118190001D01*
X66738796Y-118214505D01*
X66735196Y-118238773D01*
X66729235Y-118262572D01*
X66720970Y-118285671D01*
X66710480Y-118307850D01*
X66697868Y-118328893D01*
X66683253Y-118348599D01*
X66666777Y-118366777D01*
X66648599Y-118383253D01*
X66628893Y-118397868D01*
X66607850Y-118410480D01*
X66585671Y-118420970D01*
X66562572Y-118429235D01*
X66538773Y-118435196D01*
X66514505Y-118438796D01*
X66490001Y-118440000D01*
X65589999Y-118440000D01*
X65565495Y-118438796D01*
X65541227Y-118435196D01*
X65517428Y-118429235D01*
X65494329Y-118420970D01*
X65472150Y-118410480D01*
X65451107Y-118397868D01*
X65431401Y-118383253D01*
X65413223Y-118366777D01*
X65396747Y-118348599D01*
X65382132Y-118328893D01*
X65369520Y-118307850D01*
X65359030Y-118285671D01*
X65350765Y-118262572D01*
X65344804Y-118238773D01*
X65341204Y-118214505D01*
X65340000Y-118190001D01*
X65340000Y-117539999D01*
X65341204Y-117515495D01*
X65344804Y-117491227D01*
X65350765Y-117467428D01*
X65359030Y-117444329D01*
X65369520Y-117422150D01*
X65382132Y-117401107D01*
X65396747Y-117381401D01*
X65413223Y-117363223D01*
X65431401Y-117346747D01*
X65451107Y-117332132D01*
X65472150Y-117319520D01*
X65494329Y-117309030D01*
X65517428Y-117300765D01*
X65541227Y-117294804D01*
X65565495Y-117291204D01*
X65589999Y-117290000D01*
X66490001Y-117290000D01*
X66514505Y-117291204D01*
X66514505Y-117291204D01*
G37*
D12*
X66040000Y-117865000D03*
D11*
G36*
X66514505Y-115241204D02*
X66538773Y-115244804D01*
X66562572Y-115250765D01*
X66585671Y-115259030D01*
X66607850Y-115269520D01*
X66628893Y-115282132D01*
X66648599Y-115296747D01*
X66666777Y-115313223D01*
X66683253Y-115331401D01*
X66697868Y-115351107D01*
X66710480Y-115372150D01*
X66720970Y-115394329D01*
X66729235Y-115417428D01*
X66735196Y-115441227D01*
X66738796Y-115465495D01*
X66740000Y-115489999D01*
X66740000Y-116140001D01*
X66738796Y-116164505D01*
X66735196Y-116188773D01*
X66729235Y-116212572D01*
X66720970Y-116235671D01*
X66710480Y-116257850D01*
X66697868Y-116278893D01*
X66683253Y-116298599D01*
X66666777Y-116316777D01*
X66648599Y-116333253D01*
X66628893Y-116347868D01*
X66607850Y-116360480D01*
X66585671Y-116370970D01*
X66562572Y-116379235D01*
X66538773Y-116385196D01*
X66514505Y-116388796D01*
X66490001Y-116390000D01*
X65589999Y-116390000D01*
X65565495Y-116388796D01*
X65541227Y-116385196D01*
X65517428Y-116379235D01*
X65494329Y-116370970D01*
X65472150Y-116360480D01*
X65451107Y-116347868D01*
X65431401Y-116333253D01*
X65413223Y-116316777D01*
X65396747Y-116298599D01*
X65382132Y-116278893D01*
X65369520Y-116257850D01*
X65359030Y-116235671D01*
X65350765Y-116212572D01*
X65344804Y-116188773D01*
X65341204Y-116164505D01*
X65340000Y-116140001D01*
X65340000Y-115489999D01*
X65341204Y-115465495D01*
X65344804Y-115441227D01*
X65350765Y-115417428D01*
X65359030Y-115394329D01*
X65369520Y-115372150D01*
X65382132Y-115351107D01*
X65396747Y-115331401D01*
X65413223Y-115313223D01*
X65431401Y-115296747D01*
X65451107Y-115282132D01*
X65472150Y-115269520D01*
X65494329Y-115259030D01*
X65517428Y-115250765D01*
X65541227Y-115244804D01*
X65565495Y-115241204D01*
X65589999Y-115240000D01*
X66490001Y-115240000D01*
X66514505Y-115241204D01*
X66514505Y-115241204D01*
G37*
D12*
X66040000Y-115815000D03*
G04 #@! TD*
D11*
G04 #@! TO.C,R18*
G36*
X70324505Y-115241204D02*
X70348773Y-115244804D01*
X70372572Y-115250765D01*
X70395671Y-115259030D01*
X70417850Y-115269520D01*
X70438893Y-115282132D01*
X70458599Y-115296747D01*
X70476777Y-115313223D01*
X70493253Y-115331401D01*
X70507868Y-115351107D01*
X70520480Y-115372150D01*
X70530970Y-115394329D01*
X70539235Y-115417428D01*
X70545196Y-115441227D01*
X70548796Y-115465495D01*
X70550000Y-115489999D01*
X70550000Y-116140001D01*
X70548796Y-116164505D01*
X70545196Y-116188773D01*
X70539235Y-116212572D01*
X70530970Y-116235671D01*
X70520480Y-116257850D01*
X70507868Y-116278893D01*
X70493253Y-116298599D01*
X70476777Y-116316777D01*
X70458599Y-116333253D01*
X70438893Y-116347868D01*
X70417850Y-116360480D01*
X70395671Y-116370970D01*
X70372572Y-116379235D01*
X70348773Y-116385196D01*
X70324505Y-116388796D01*
X70300001Y-116390000D01*
X69399999Y-116390000D01*
X69375495Y-116388796D01*
X69351227Y-116385196D01*
X69327428Y-116379235D01*
X69304329Y-116370970D01*
X69282150Y-116360480D01*
X69261107Y-116347868D01*
X69241401Y-116333253D01*
X69223223Y-116316777D01*
X69206747Y-116298599D01*
X69192132Y-116278893D01*
X69179520Y-116257850D01*
X69169030Y-116235671D01*
X69160765Y-116212572D01*
X69154804Y-116188773D01*
X69151204Y-116164505D01*
X69150000Y-116140001D01*
X69150000Y-115489999D01*
X69151204Y-115465495D01*
X69154804Y-115441227D01*
X69160765Y-115417428D01*
X69169030Y-115394329D01*
X69179520Y-115372150D01*
X69192132Y-115351107D01*
X69206747Y-115331401D01*
X69223223Y-115313223D01*
X69241401Y-115296747D01*
X69261107Y-115282132D01*
X69282150Y-115269520D01*
X69304329Y-115259030D01*
X69327428Y-115250765D01*
X69351227Y-115244804D01*
X69375495Y-115241204D01*
X69399999Y-115240000D01*
X70300001Y-115240000D01*
X70324505Y-115241204D01*
X70324505Y-115241204D01*
G37*
D12*
X69850000Y-115815000D03*
D11*
G36*
X70324505Y-117291204D02*
X70348773Y-117294804D01*
X70372572Y-117300765D01*
X70395671Y-117309030D01*
X70417850Y-117319520D01*
X70438893Y-117332132D01*
X70458599Y-117346747D01*
X70476777Y-117363223D01*
X70493253Y-117381401D01*
X70507868Y-117401107D01*
X70520480Y-117422150D01*
X70530970Y-117444329D01*
X70539235Y-117467428D01*
X70545196Y-117491227D01*
X70548796Y-117515495D01*
X70550000Y-117539999D01*
X70550000Y-118190001D01*
X70548796Y-118214505D01*
X70545196Y-118238773D01*
X70539235Y-118262572D01*
X70530970Y-118285671D01*
X70520480Y-118307850D01*
X70507868Y-118328893D01*
X70493253Y-118348599D01*
X70476777Y-118366777D01*
X70458599Y-118383253D01*
X70438893Y-118397868D01*
X70417850Y-118410480D01*
X70395671Y-118420970D01*
X70372572Y-118429235D01*
X70348773Y-118435196D01*
X70324505Y-118438796D01*
X70300001Y-118440000D01*
X69399999Y-118440000D01*
X69375495Y-118438796D01*
X69351227Y-118435196D01*
X69327428Y-118429235D01*
X69304329Y-118420970D01*
X69282150Y-118410480D01*
X69261107Y-118397868D01*
X69241401Y-118383253D01*
X69223223Y-118366777D01*
X69206747Y-118348599D01*
X69192132Y-118328893D01*
X69179520Y-118307850D01*
X69169030Y-118285671D01*
X69160765Y-118262572D01*
X69154804Y-118238773D01*
X69151204Y-118214505D01*
X69150000Y-118190001D01*
X69150000Y-117539999D01*
X69151204Y-117515495D01*
X69154804Y-117491227D01*
X69160765Y-117467428D01*
X69169030Y-117444329D01*
X69179520Y-117422150D01*
X69192132Y-117401107D01*
X69206747Y-117381401D01*
X69223223Y-117363223D01*
X69241401Y-117346747D01*
X69261107Y-117332132D01*
X69282150Y-117319520D01*
X69304329Y-117309030D01*
X69327428Y-117300765D01*
X69351227Y-117294804D01*
X69375495Y-117291204D01*
X69399999Y-117290000D01*
X70300001Y-117290000D01*
X70324505Y-117291204D01*
X70324505Y-117291204D01*
G37*
D12*
X69850000Y-117865000D03*
G04 #@! TD*
D11*
G04 #@! TO.C,R19*
G36*
X74134505Y-117291204D02*
X74158773Y-117294804D01*
X74182572Y-117300765D01*
X74205671Y-117309030D01*
X74227850Y-117319520D01*
X74248893Y-117332132D01*
X74268599Y-117346747D01*
X74286777Y-117363223D01*
X74303253Y-117381401D01*
X74317868Y-117401107D01*
X74330480Y-117422150D01*
X74340970Y-117444329D01*
X74349235Y-117467428D01*
X74355196Y-117491227D01*
X74358796Y-117515495D01*
X74360000Y-117539999D01*
X74360000Y-118190001D01*
X74358796Y-118214505D01*
X74355196Y-118238773D01*
X74349235Y-118262572D01*
X74340970Y-118285671D01*
X74330480Y-118307850D01*
X74317868Y-118328893D01*
X74303253Y-118348599D01*
X74286777Y-118366777D01*
X74268599Y-118383253D01*
X74248893Y-118397868D01*
X74227850Y-118410480D01*
X74205671Y-118420970D01*
X74182572Y-118429235D01*
X74158773Y-118435196D01*
X74134505Y-118438796D01*
X74110001Y-118440000D01*
X73209999Y-118440000D01*
X73185495Y-118438796D01*
X73161227Y-118435196D01*
X73137428Y-118429235D01*
X73114329Y-118420970D01*
X73092150Y-118410480D01*
X73071107Y-118397868D01*
X73051401Y-118383253D01*
X73033223Y-118366777D01*
X73016747Y-118348599D01*
X73002132Y-118328893D01*
X72989520Y-118307850D01*
X72979030Y-118285671D01*
X72970765Y-118262572D01*
X72964804Y-118238773D01*
X72961204Y-118214505D01*
X72960000Y-118190001D01*
X72960000Y-117539999D01*
X72961204Y-117515495D01*
X72964804Y-117491227D01*
X72970765Y-117467428D01*
X72979030Y-117444329D01*
X72989520Y-117422150D01*
X73002132Y-117401107D01*
X73016747Y-117381401D01*
X73033223Y-117363223D01*
X73051401Y-117346747D01*
X73071107Y-117332132D01*
X73092150Y-117319520D01*
X73114329Y-117309030D01*
X73137428Y-117300765D01*
X73161227Y-117294804D01*
X73185495Y-117291204D01*
X73209999Y-117290000D01*
X74110001Y-117290000D01*
X74134505Y-117291204D01*
X74134505Y-117291204D01*
G37*
D12*
X73660000Y-117865000D03*
D11*
G36*
X74134505Y-115241204D02*
X74158773Y-115244804D01*
X74182572Y-115250765D01*
X74205671Y-115259030D01*
X74227850Y-115269520D01*
X74248893Y-115282132D01*
X74268599Y-115296747D01*
X74286777Y-115313223D01*
X74303253Y-115331401D01*
X74317868Y-115351107D01*
X74330480Y-115372150D01*
X74340970Y-115394329D01*
X74349235Y-115417428D01*
X74355196Y-115441227D01*
X74358796Y-115465495D01*
X74360000Y-115489999D01*
X74360000Y-116140001D01*
X74358796Y-116164505D01*
X74355196Y-116188773D01*
X74349235Y-116212572D01*
X74340970Y-116235671D01*
X74330480Y-116257850D01*
X74317868Y-116278893D01*
X74303253Y-116298599D01*
X74286777Y-116316777D01*
X74268599Y-116333253D01*
X74248893Y-116347868D01*
X74227850Y-116360480D01*
X74205671Y-116370970D01*
X74182572Y-116379235D01*
X74158773Y-116385196D01*
X74134505Y-116388796D01*
X74110001Y-116390000D01*
X73209999Y-116390000D01*
X73185495Y-116388796D01*
X73161227Y-116385196D01*
X73137428Y-116379235D01*
X73114329Y-116370970D01*
X73092150Y-116360480D01*
X73071107Y-116347868D01*
X73051401Y-116333253D01*
X73033223Y-116316777D01*
X73016747Y-116298599D01*
X73002132Y-116278893D01*
X72989520Y-116257850D01*
X72979030Y-116235671D01*
X72970765Y-116212572D01*
X72964804Y-116188773D01*
X72961204Y-116164505D01*
X72960000Y-116140001D01*
X72960000Y-115489999D01*
X72961204Y-115465495D01*
X72964804Y-115441227D01*
X72970765Y-115417428D01*
X72979030Y-115394329D01*
X72989520Y-115372150D01*
X73002132Y-115351107D01*
X73016747Y-115331401D01*
X73033223Y-115313223D01*
X73051401Y-115296747D01*
X73071107Y-115282132D01*
X73092150Y-115269520D01*
X73114329Y-115259030D01*
X73137428Y-115250765D01*
X73161227Y-115244804D01*
X73185495Y-115241204D01*
X73209999Y-115240000D01*
X74110001Y-115240000D01*
X74134505Y-115241204D01*
X74134505Y-115241204D01*
G37*
D12*
X73660000Y-115815000D03*
G04 #@! TD*
D11*
G04 #@! TO.C,R20*
G36*
X77944505Y-115241204D02*
X77968773Y-115244804D01*
X77992572Y-115250765D01*
X78015671Y-115259030D01*
X78037850Y-115269520D01*
X78058893Y-115282132D01*
X78078599Y-115296747D01*
X78096777Y-115313223D01*
X78113253Y-115331401D01*
X78127868Y-115351107D01*
X78140480Y-115372150D01*
X78150970Y-115394329D01*
X78159235Y-115417428D01*
X78165196Y-115441227D01*
X78168796Y-115465495D01*
X78170000Y-115489999D01*
X78170000Y-116140001D01*
X78168796Y-116164505D01*
X78165196Y-116188773D01*
X78159235Y-116212572D01*
X78150970Y-116235671D01*
X78140480Y-116257850D01*
X78127868Y-116278893D01*
X78113253Y-116298599D01*
X78096777Y-116316777D01*
X78078599Y-116333253D01*
X78058893Y-116347868D01*
X78037850Y-116360480D01*
X78015671Y-116370970D01*
X77992572Y-116379235D01*
X77968773Y-116385196D01*
X77944505Y-116388796D01*
X77920001Y-116390000D01*
X77019999Y-116390000D01*
X76995495Y-116388796D01*
X76971227Y-116385196D01*
X76947428Y-116379235D01*
X76924329Y-116370970D01*
X76902150Y-116360480D01*
X76881107Y-116347868D01*
X76861401Y-116333253D01*
X76843223Y-116316777D01*
X76826747Y-116298599D01*
X76812132Y-116278893D01*
X76799520Y-116257850D01*
X76789030Y-116235671D01*
X76780765Y-116212572D01*
X76774804Y-116188773D01*
X76771204Y-116164505D01*
X76770000Y-116140001D01*
X76770000Y-115489999D01*
X76771204Y-115465495D01*
X76774804Y-115441227D01*
X76780765Y-115417428D01*
X76789030Y-115394329D01*
X76799520Y-115372150D01*
X76812132Y-115351107D01*
X76826747Y-115331401D01*
X76843223Y-115313223D01*
X76861401Y-115296747D01*
X76881107Y-115282132D01*
X76902150Y-115269520D01*
X76924329Y-115259030D01*
X76947428Y-115250765D01*
X76971227Y-115244804D01*
X76995495Y-115241204D01*
X77019999Y-115240000D01*
X77920001Y-115240000D01*
X77944505Y-115241204D01*
X77944505Y-115241204D01*
G37*
D12*
X77470000Y-115815000D03*
D11*
G36*
X77944505Y-117291204D02*
X77968773Y-117294804D01*
X77992572Y-117300765D01*
X78015671Y-117309030D01*
X78037850Y-117319520D01*
X78058893Y-117332132D01*
X78078599Y-117346747D01*
X78096777Y-117363223D01*
X78113253Y-117381401D01*
X78127868Y-117401107D01*
X78140480Y-117422150D01*
X78150970Y-117444329D01*
X78159235Y-117467428D01*
X78165196Y-117491227D01*
X78168796Y-117515495D01*
X78170000Y-117539999D01*
X78170000Y-118190001D01*
X78168796Y-118214505D01*
X78165196Y-118238773D01*
X78159235Y-118262572D01*
X78150970Y-118285671D01*
X78140480Y-118307850D01*
X78127868Y-118328893D01*
X78113253Y-118348599D01*
X78096777Y-118366777D01*
X78078599Y-118383253D01*
X78058893Y-118397868D01*
X78037850Y-118410480D01*
X78015671Y-118420970D01*
X77992572Y-118429235D01*
X77968773Y-118435196D01*
X77944505Y-118438796D01*
X77920001Y-118440000D01*
X77019999Y-118440000D01*
X76995495Y-118438796D01*
X76971227Y-118435196D01*
X76947428Y-118429235D01*
X76924329Y-118420970D01*
X76902150Y-118410480D01*
X76881107Y-118397868D01*
X76861401Y-118383253D01*
X76843223Y-118366777D01*
X76826747Y-118348599D01*
X76812132Y-118328893D01*
X76799520Y-118307850D01*
X76789030Y-118285671D01*
X76780765Y-118262572D01*
X76774804Y-118238773D01*
X76771204Y-118214505D01*
X76770000Y-118190001D01*
X76770000Y-117539999D01*
X76771204Y-117515495D01*
X76774804Y-117491227D01*
X76780765Y-117467428D01*
X76789030Y-117444329D01*
X76799520Y-117422150D01*
X76812132Y-117401107D01*
X76826747Y-117381401D01*
X76843223Y-117363223D01*
X76861401Y-117346747D01*
X76881107Y-117332132D01*
X76902150Y-117319520D01*
X76924329Y-117309030D01*
X76947428Y-117300765D01*
X76971227Y-117294804D01*
X76995495Y-117291204D01*
X77019999Y-117290000D01*
X77920001Y-117290000D01*
X77944505Y-117291204D01*
X77944505Y-117291204D01*
G37*
D12*
X77470000Y-117865000D03*
G04 #@! TD*
D11*
G04 #@! TO.C,R21*
G36*
X99534505Y-117536204D02*
X99558773Y-117539804D01*
X99582572Y-117545765D01*
X99605671Y-117554030D01*
X99627850Y-117564520D01*
X99648893Y-117577132D01*
X99668599Y-117591747D01*
X99686777Y-117608223D01*
X99703253Y-117626401D01*
X99717868Y-117646107D01*
X99730480Y-117667150D01*
X99740970Y-117689329D01*
X99749235Y-117712428D01*
X99755196Y-117736227D01*
X99758796Y-117760495D01*
X99760000Y-117784999D01*
X99760000Y-118435001D01*
X99758796Y-118459505D01*
X99755196Y-118483773D01*
X99749235Y-118507572D01*
X99740970Y-118530671D01*
X99730480Y-118552850D01*
X99717868Y-118573893D01*
X99703253Y-118593599D01*
X99686777Y-118611777D01*
X99668599Y-118628253D01*
X99648893Y-118642868D01*
X99627850Y-118655480D01*
X99605671Y-118665970D01*
X99582572Y-118674235D01*
X99558773Y-118680196D01*
X99534505Y-118683796D01*
X99510001Y-118685000D01*
X98609999Y-118685000D01*
X98585495Y-118683796D01*
X98561227Y-118680196D01*
X98537428Y-118674235D01*
X98514329Y-118665970D01*
X98492150Y-118655480D01*
X98471107Y-118642868D01*
X98451401Y-118628253D01*
X98433223Y-118611777D01*
X98416747Y-118593599D01*
X98402132Y-118573893D01*
X98389520Y-118552850D01*
X98379030Y-118530671D01*
X98370765Y-118507572D01*
X98364804Y-118483773D01*
X98361204Y-118459505D01*
X98360000Y-118435001D01*
X98360000Y-117784999D01*
X98361204Y-117760495D01*
X98364804Y-117736227D01*
X98370765Y-117712428D01*
X98379030Y-117689329D01*
X98389520Y-117667150D01*
X98402132Y-117646107D01*
X98416747Y-117626401D01*
X98433223Y-117608223D01*
X98451401Y-117591747D01*
X98471107Y-117577132D01*
X98492150Y-117564520D01*
X98514329Y-117554030D01*
X98537428Y-117545765D01*
X98561227Y-117539804D01*
X98585495Y-117536204D01*
X98609999Y-117535000D01*
X99510001Y-117535000D01*
X99534505Y-117536204D01*
X99534505Y-117536204D01*
G37*
D12*
X99060000Y-118110000D03*
D11*
G36*
X99534505Y-115486204D02*
X99558773Y-115489804D01*
X99582572Y-115495765D01*
X99605671Y-115504030D01*
X99627850Y-115514520D01*
X99648893Y-115527132D01*
X99668599Y-115541747D01*
X99686777Y-115558223D01*
X99703253Y-115576401D01*
X99717868Y-115596107D01*
X99730480Y-115617150D01*
X99740970Y-115639329D01*
X99749235Y-115662428D01*
X99755196Y-115686227D01*
X99758796Y-115710495D01*
X99760000Y-115734999D01*
X99760000Y-116385001D01*
X99758796Y-116409505D01*
X99755196Y-116433773D01*
X99749235Y-116457572D01*
X99740970Y-116480671D01*
X99730480Y-116502850D01*
X99717868Y-116523893D01*
X99703253Y-116543599D01*
X99686777Y-116561777D01*
X99668599Y-116578253D01*
X99648893Y-116592868D01*
X99627850Y-116605480D01*
X99605671Y-116615970D01*
X99582572Y-116624235D01*
X99558773Y-116630196D01*
X99534505Y-116633796D01*
X99510001Y-116635000D01*
X98609999Y-116635000D01*
X98585495Y-116633796D01*
X98561227Y-116630196D01*
X98537428Y-116624235D01*
X98514329Y-116615970D01*
X98492150Y-116605480D01*
X98471107Y-116592868D01*
X98451401Y-116578253D01*
X98433223Y-116561777D01*
X98416747Y-116543599D01*
X98402132Y-116523893D01*
X98389520Y-116502850D01*
X98379030Y-116480671D01*
X98370765Y-116457572D01*
X98364804Y-116433773D01*
X98361204Y-116409505D01*
X98360000Y-116385001D01*
X98360000Y-115734999D01*
X98361204Y-115710495D01*
X98364804Y-115686227D01*
X98370765Y-115662428D01*
X98379030Y-115639329D01*
X98389520Y-115617150D01*
X98402132Y-115596107D01*
X98416747Y-115576401D01*
X98433223Y-115558223D01*
X98451401Y-115541747D01*
X98471107Y-115527132D01*
X98492150Y-115514520D01*
X98514329Y-115504030D01*
X98537428Y-115495765D01*
X98561227Y-115489804D01*
X98585495Y-115486204D01*
X98609999Y-115485000D01*
X99510001Y-115485000D01*
X99534505Y-115486204D01*
X99534505Y-115486204D01*
G37*
D12*
X99060000Y-116060000D03*
G04 #@! TD*
D11*
G04 #@! TO.C,R22*
G36*
X103344505Y-115486204D02*
X103368773Y-115489804D01*
X103392572Y-115495765D01*
X103415671Y-115504030D01*
X103437850Y-115514520D01*
X103458893Y-115527132D01*
X103478599Y-115541747D01*
X103496777Y-115558223D01*
X103513253Y-115576401D01*
X103527868Y-115596107D01*
X103540480Y-115617150D01*
X103550970Y-115639329D01*
X103559235Y-115662428D01*
X103565196Y-115686227D01*
X103568796Y-115710495D01*
X103570000Y-115734999D01*
X103570000Y-116385001D01*
X103568796Y-116409505D01*
X103565196Y-116433773D01*
X103559235Y-116457572D01*
X103550970Y-116480671D01*
X103540480Y-116502850D01*
X103527868Y-116523893D01*
X103513253Y-116543599D01*
X103496777Y-116561777D01*
X103478599Y-116578253D01*
X103458893Y-116592868D01*
X103437850Y-116605480D01*
X103415671Y-116615970D01*
X103392572Y-116624235D01*
X103368773Y-116630196D01*
X103344505Y-116633796D01*
X103320001Y-116635000D01*
X102419999Y-116635000D01*
X102395495Y-116633796D01*
X102371227Y-116630196D01*
X102347428Y-116624235D01*
X102324329Y-116615970D01*
X102302150Y-116605480D01*
X102281107Y-116592868D01*
X102261401Y-116578253D01*
X102243223Y-116561777D01*
X102226747Y-116543599D01*
X102212132Y-116523893D01*
X102199520Y-116502850D01*
X102189030Y-116480671D01*
X102180765Y-116457572D01*
X102174804Y-116433773D01*
X102171204Y-116409505D01*
X102170000Y-116385001D01*
X102170000Y-115734999D01*
X102171204Y-115710495D01*
X102174804Y-115686227D01*
X102180765Y-115662428D01*
X102189030Y-115639329D01*
X102199520Y-115617150D01*
X102212132Y-115596107D01*
X102226747Y-115576401D01*
X102243223Y-115558223D01*
X102261401Y-115541747D01*
X102281107Y-115527132D01*
X102302150Y-115514520D01*
X102324329Y-115504030D01*
X102347428Y-115495765D01*
X102371227Y-115489804D01*
X102395495Y-115486204D01*
X102419999Y-115485000D01*
X103320001Y-115485000D01*
X103344505Y-115486204D01*
X103344505Y-115486204D01*
G37*
D12*
X102870000Y-116060000D03*
D11*
G36*
X103344505Y-117536204D02*
X103368773Y-117539804D01*
X103392572Y-117545765D01*
X103415671Y-117554030D01*
X103437850Y-117564520D01*
X103458893Y-117577132D01*
X103478599Y-117591747D01*
X103496777Y-117608223D01*
X103513253Y-117626401D01*
X103527868Y-117646107D01*
X103540480Y-117667150D01*
X103550970Y-117689329D01*
X103559235Y-117712428D01*
X103565196Y-117736227D01*
X103568796Y-117760495D01*
X103570000Y-117784999D01*
X103570000Y-118435001D01*
X103568796Y-118459505D01*
X103565196Y-118483773D01*
X103559235Y-118507572D01*
X103550970Y-118530671D01*
X103540480Y-118552850D01*
X103527868Y-118573893D01*
X103513253Y-118593599D01*
X103496777Y-118611777D01*
X103478599Y-118628253D01*
X103458893Y-118642868D01*
X103437850Y-118655480D01*
X103415671Y-118665970D01*
X103392572Y-118674235D01*
X103368773Y-118680196D01*
X103344505Y-118683796D01*
X103320001Y-118685000D01*
X102419999Y-118685000D01*
X102395495Y-118683796D01*
X102371227Y-118680196D01*
X102347428Y-118674235D01*
X102324329Y-118665970D01*
X102302150Y-118655480D01*
X102281107Y-118642868D01*
X102261401Y-118628253D01*
X102243223Y-118611777D01*
X102226747Y-118593599D01*
X102212132Y-118573893D01*
X102199520Y-118552850D01*
X102189030Y-118530671D01*
X102180765Y-118507572D01*
X102174804Y-118483773D01*
X102171204Y-118459505D01*
X102170000Y-118435001D01*
X102170000Y-117784999D01*
X102171204Y-117760495D01*
X102174804Y-117736227D01*
X102180765Y-117712428D01*
X102189030Y-117689329D01*
X102199520Y-117667150D01*
X102212132Y-117646107D01*
X102226747Y-117626401D01*
X102243223Y-117608223D01*
X102261401Y-117591747D01*
X102281107Y-117577132D01*
X102302150Y-117564520D01*
X102324329Y-117554030D01*
X102347428Y-117545765D01*
X102371227Y-117539804D01*
X102395495Y-117536204D01*
X102419999Y-117535000D01*
X103320001Y-117535000D01*
X103344505Y-117536204D01*
X103344505Y-117536204D01*
G37*
D12*
X102870000Y-118110000D03*
G04 #@! TD*
D11*
G04 #@! TO.C,R23*
G36*
X107154505Y-117291204D02*
X107178773Y-117294804D01*
X107202572Y-117300765D01*
X107225671Y-117309030D01*
X107247850Y-117319520D01*
X107268893Y-117332132D01*
X107288599Y-117346747D01*
X107306777Y-117363223D01*
X107323253Y-117381401D01*
X107337868Y-117401107D01*
X107350480Y-117422150D01*
X107360970Y-117444329D01*
X107369235Y-117467428D01*
X107375196Y-117491227D01*
X107378796Y-117515495D01*
X107380000Y-117539999D01*
X107380000Y-118190001D01*
X107378796Y-118214505D01*
X107375196Y-118238773D01*
X107369235Y-118262572D01*
X107360970Y-118285671D01*
X107350480Y-118307850D01*
X107337868Y-118328893D01*
X107323253Y-118348599D01*
X107306777Y-118366777D01*
X107288599Y-118383253D01*
X107268893Y-118397868D01*
X107247850Y-118410480D01*
X107225671Y-118420970D01*
X107202572Y-118429235D01*
X107178773Y-118435196D01*
X107154505Y-118438796D01*
X107130001Y-118440000D01*
X106229999Y-118440000D01*
X106205495Y-118438796D01*
X106181227Y-118435196D01*
X106157428Y-118429235D01*
X106134329Y-118420970D01*
X106112150Y-118410480D01*
X106091107Y-118397868D01*
X106071401Y-118383253D01*
X106053223Y-118366777D01*
X106036747Y-118348599D01*
X106022132Y-118328893D01*
X106009520Y-118307850D01*
X105999030Y-118285671D01*
X105990765Y-118262572D01*
X105984804Y-118238773D01*
X105981204Y-118214505D01*
X105980000Y-118190001D01*
X105980000Y-117539999D01*
X105981204Y-117515495D01*
X105984804Y-117491227D01*
X105990765Y-117467428D01*
X105999030Y-117444329D01*
X106009520Y-117422150D01*
X106022132Y-117401107D01*
X106036747Y-117381401D01*
X106053223Y-117363223D01*
X106071401Y-117346747D01*
X106091107Y-117332132D01*
X106112150Y-117319520D01*
X106134329Y-117309030D01*
X106157428Y-117300765D01*
X106181227Y-117294804D01*
X106205495Y-117291204D01*
X106229999Y-117290000D01*
X107130001Y-117290000D01*
X107154505Y-117291204D01*
X107154505Y-117291204D01*
G37*
D12*
X106680000Y-117865000D03*
D11*
G36*
X107154505Y-115241204D02*
X107178773Y-115244804D01*
X107202572Y-115250765D01*
X107225671Y-115259030D01*
X107247850Y-115269520D01*
X107268893Y-115282132D01*
X107288599Y-115296747D01*
X107306777Y-115313223D01*
X107323253Y-115331401D01*
X107337868Y-115351107D01*
X107350480Y-115372150D01*
X107360970Y-115394329D01*
X107369235Y-115417428D01*
X107375196Y-115441227D01*
X107378796Y-115465495D01*
X107380000Y-115489999D01*
X107380000Y-116140001D01*
X107378796Y-116164505D01*
X107375196Y-116188773D01*
X107369235Y-116212572D01*
X107360970Y-116235671D01*
X107350480Y-116257850D01*
X107337868Y-116278893D01*
X107323253Y-116298599D01*
X107306777Y-116316777D01*
X107288599Y-116333253D01*
X107268893Y-116347868D01*
X107247850Y-116360480D01*
X107225671Y-116370970D01*
X107202572Y-116379235D01*
X107178773Y-116385196D01*
X107154505Y-116388796D01*
X107130001Y-116390000D01*
X106229999Y-116390000D01*
X106205495Y-116388796D01*
X106181227Y-116385196D01*
X106157428Y-116379235D01*
X106134329Y-116370970D01*
X106112150Y-116360480D01*
X106091107Y-116347868D01*
X106071401Y-116333253D01*
X106053223Y-116316777D01*
X106036747Y-116298599D01*
X106022132Y-116278893D01*
X106009520Y-116257850D01*
X105999030Y-116235671D01*
X105990765Y-116212572D01*
X105984804Y-116188773D01*
X105981204Y-116164505D01*
X105980000Y-116140001D01*
X105980000Y-115489999D01*
X105981204Y-115465495D01*
X105984804Y-115441227D01*
X105990765Y-115417428D01*
X105999030Y-115394329D01*
X106009520Y-115372150D01*
X106022132Y-115351107D01*
X106036747Y-115331401D01*
X106053223Y-115313223D01*
X106071401Y-115296747D01*
X106091107Y-115282132D01*
X106112150Y-115269520D01*
X106134329Y-115259030D01*
X106157428Y-115250765D01*
X106181227Y-115244804D01*
X106205495Y-115241204D01*
X106229999Y-115240000D01*
X107130001Y-115240000D01*
X107154505Y-115241204D01*
X107154505Y-115241204D01*
G37*
D12*
X106680000Y-115815000D03*
G04 #@! TD*
D11*
G04 #@! TO.C,R24*
G36*
X110964505Y-115241204D02*
X110988773Y-115244804D01*
X111012572Y-115250765D01*
X111035671Y-115259030D01*
X111057850Y-115269520D01*
X111078893Y-115282132D01*
X111098599Y-115296747D01*
X111116777Y-115313223D01*
X111133253Y-115331401D01*
X111147868Y-115351107D01*
X111160480Y-115372150D01*
X111170970Y-115394329D01*
X111179235Y-115417428D01*
X111185196Y-115441227D01*
X111188796Y-115465495D01*
X111190000Y-115489999D01*
X111190000Y-116140001D01*
X111188796Y-116164505D01*
X111185196Y-116188773D01*
X111179235Y-116212572D01*
X111170970Y-116235671D01*
X111160480Y-116257850D01*
X111147868Y-116278893D01*
X111133253Y-116298599D01*
X111116777Y-116316777D01*
X111098599Y-116333253D01*
X111078893Y-116347868D01*
X111057850Y-116360480D01*
X111035671Y-116370970D01*
X111012572Y-116379235D01*
X110988773Y-116385196D01*
X110964505Y-116388796D01*
X110940001Y-116390000D01*
X110039999Y-116390000D01*
X110015495Y-116388796D01*
X109991227Y-116385196D01*
X109967428Y-116379235D01*
X109944329Y-116370970D01*
X109922150Y-116360480D01*
X109901107Y-116347868D01*
X109881401Y-116333253D01*
X109863223Y-116316777D01*
X109846747Y-116298599D01*
X109832132Y-116278893D01*
X109819520Y-116257850D01*
X109809030Y-116235671D01*
X109800765Y-116212572D01*
X109794804Y-116188773D01*
X109791204Y-116164505D01*
X109790000Y-116140001D01*
X109790000Y-115489999D01*
X109791204Y-115465495D01*
X109794804Y-115441227D01*
X109800765Y-115417428D01*
X109809030Y-115394329D01*
X109819520Y-115372150D01*
X109832132Y-115351107D01*
X109846747Y-115331401D01*
X109863223Y-115313223D01*
X109881401Y-115296747D01*
X109901107Y-115282132D01*
X109922150Y-115269520D01*
X109944329Y-115259030D01*
X109967428Y-115250765D01*
X109991227Y-115244804D01*
X110015495Y-115241204D01*
X110039999Y-115240000D01*
X110940001Y-115240000D01*
X110964505Y-115241204D01*
X110964505Y-115241204D01*
G37*
D12*
X110490000Y-115815000D03*
D11*
G36*
X110964505Y-117291204D02*
X110988773Y-117294804D01*
X111012572Y-117300765D01*
X111035671Y-117309030D01*
X111057850Y-117319520D01*
X111078893Y-117332132D01*
X111098599Y-117346747D01*
X111116777Y-117363223D01*
X111133253Y-117381401D01*
X111147868Y-117401107D01*
X111160480Y-117422150D01*
X111170970Y-117444329D01*
X111179235Y-117467428D01*
X111185196Y-117491227D01*
X111188796Y-117515495D01*
X111190000Y-117539999D01*
X111190000Y-118190001D01*
X111188796Y-118214505D01*
X111185196Y-118238773D01*
X111179235Y-118262572D01*
X111170970Y-118285671D01*
X111160480Y-118307850D01*
X111147868Y-118328893D01*
X111133253Y-118348599D01*
X111116777Y-118366777D01*
X111098599Y-118383253D01*
X111078893Y-118397868D01*
X111057850Y-118410480D01*
X111035671Y-118420970D01*
X111012572Y-118429235D01*
X110988773Y-118435196D01*
X110964505Y-118438796D01*
X110940001Y-118440000D01*
X110039999Y-118440000D01*
X110015495Y-118438796D01*
X109991227Y-118435196D01*
X109967428Y-118429235D01*
X109944329Y-118420970D01*
X109922150Y-118410480D01*
X109901107Y-118397868D01*
X109881401Y-118383253D01*
X109863223Y-118366777D01*
X109846747Y-118348599D01*
X109832132Y-118328893D01*
X109819520Y-118307850D01*
X109809030Y-118285671D01*
X109800765Y-118262572D01*
X109794804Y-118238773D01*
X109791204Y-118214505D01*
X109790000Y-118190001D01*
X109790000Y-117539999D01*
X109791204Y-117515495D01*
X109794804Y-117491227D01*
X109800765Y-117467428D01*
X109809030Y-117444329D01*
X109819520Y-117422150D01*
X109832132Y-117401107D01*
X109846747Y-117381401D01*
X109863223Y-117363223D01*
X109881401Y-117346747D01*
X109901107Y-117332132D01*
X109922150Y-117319520D01*
X109944329Y-117309030D01*
X109967428Y-117300765D01*
X109991227Y-117294804D01*
X110015495Y-117291204D01*
X110039999Y-117290000D01*
X110940001Y-117290000D01*
X110964505Y-117291204D01*
X110964505Y-117291204D01*
G37*
D12*
X110490000Y-117865000D03*
G04 #@! TD*
D14*
G04 #@! TO.C,U3*
X85021500Y-119990000D03*
X86301500Y-119990000D03*
X87561500Y-119990000D03*
X88831500Y-119990000D03*
X90111500Y-119990000D03*
X91381500Y-119990000D03*
X92641500Y-119990000D03*
X93921500Y-119990000D03*
X93921500Y-113690000D03*
X92641500Y-113690000D03*
X91381500Y-113690000D03*
X90111500Y-113690000D03*
X88831500Y-113690000D03*
X87561500Y-113690000D03*
X86301500Y-113690000D03*
X85021500Y-113690000D03*
G04 #@! TD*
M02*
