G04 #@! TF.GenerationSoftware,KiCad,Pcbnew,(5.0.1-3-g963ef8bb5)*
G04 #@! TF.CreationDate,2018-12-19T16:23:04+08:00*
G04 #@! TF.ProjectId,24-LED-board,32342D4C45442D626F6172642E6B6963,1.0*
G04 #@! TF.SameCoordinates,Original*
G04 #@! TF.FileFunction,Legend,Top*
G04 #@! TF.FilePolarity,Positive*
%FSLAX46Y46*%
G04 Gerber Fmt 4.6, Leading zero omitted, Abs format (unit mm)*
G04 Created by KiCad (PCBNEW (5.0.1-3-g963ef8bb5)) date 2018 December 19, Wednesday 16:23:04*
%MOMM*%
%LPD*%
G01*
G04 APERTURE LIST*
%ADD10C,0.225000*%
%ADD11C,0.300000*%
%ADD12C,0.120000*%
%ADD13C,0.150000*%
G04 APERTURE END LIST*
D10*
X93985357Y-109320857D02*
X94028214Y-109278000D01*
X94113928Y-109235142D01*
X94328214Y-109235142D01*
X94413928Y-109278000D01*
X94456785Y-109320857D01*
X94499642Y-109406571D01*
X94499642Y-109492285D01*
X94456785Y-109620857D01*
X93942500Y-110135142D01*
X94499642Y-110135142D01*
X95271071Y-109535142D02*
X95271071Y-110135142D01*
X95056785Y-109192285D02*
X94842500Y-109835142D01*
X95399642Y-109835142D01*
X95742500Y-109792285D02*
X96428214Y-109792285D01*
X97285357Y-110135142D02*
X96856785Y-110135142D01*
X96856785Y-109235142D01*
X97585357Y-109663714D02*
X97885357Y-109663714D01*
X98013928Y-110135142D02*
X97585357Y-110135142D01*
X97585357Y-109235142D01*
X98013928Y-109235142D01*
X98399642Y-110135142D02*
X98399642Y-109235142D01*
X98613928Y-109235142D01*
X98742500Y-109278000D01*
X98828214Y-109363714D01*
X98871071Y-109449428D01*
X98913928Y-109620857D01*
X98913928Y-109749428D01*
X98871071Y-109920857D01*
X98828214Y-110006571D01*
X98742500Y-110092285D01*
X98613928Y-110135142D01*
X98399642Y-110135142D01*
X100285357Y-109663714D02*
X100413928Y-109706571D01*
X100456785Y-109749428D01*
X100499642Y-109835142D01*
X100499642Y-109963714D01*
X100456785Y-110049428D01*
X100413928Y-110092285D01*
X100328214Y-110135142D01*
X99985357Y-110135142D01*
X99985357Y-109235142D01*
X100285357Y-109235142D01*
X100371071Y-109278000D01*
X100413928Y-109320857D01*
X100456785Y-109406571D01*
X100456785Y-109492285D01*
X100413928Y-109578000D01*
X100371071Y-109620857D01*
X100285357Y-109663714D01*
X99985357Y-109663714D01*
X101013928Y-110135142D02*
X100928214Y-110092285D01*
X100885357Y-110049428D01*
X100842500Y-109963714D01*
X100842500Y-109706571D01*
X100885357Y-109620857D01*
X100928214Y-109578000D01*
X101013928Y-109535142D01*
X101142500Y-109535142D01*
X101228214Y-109578000D01*
X101271071Y-109620857D01*
X101313928Y-109706571D01*
X101313928Y-109963714D01*
X101271071Y-110049428D01*
X101228214Y-110092285D01*
X101142500Y-110135142D01*
X101013928Y-110135142D01*
X102085357Y-110135142D02*
X102085357Y-109663714D01*
X102042500Y-109578000D01*
X101956785Y-109535142D01*
X101785357Y-109535142D01*
X101699642Y-109578000D01*
X102085357Y-110092285D02*
X101999642Y-110135142D01*
X101785357Y-110135142D01*
X101699642Y-110092285D01*
X101656785Y-110006571D01*
X101656785Y-109920857D01*
X101699642Y-109835142D01*
X101785357Y-109792285D01*
X101999642Y-109792285D01*
X102085357Y-109749428D01*
X102513928Y-110135142D02*
X102513928Y-109535142D01*
X102513928Y-109706571D02*
X102556785Y-109620857D01*
X102599642Y-109578000D01*
X102685357Y-109535142D01*
X102771071Y-109535142D01*
X103456785Y-110135142D02*
X103456785Y-109235142D01*
X103456785Y-110092285D02*
X103371071Y-110135142D01*
X103199642Y-110135142D01*
X103113928Y-110092285D01*
X103071071Y-110049428D01*
X103028214Y-109963714D01*
X103028214Y-109706571D01*
X103071071Y-109620857D01*
X103113928Y-109578000D01*
X103199642Y-109535142D01*
X103371071Y-109535142D01*
X103456785Y-109578000D01*
D11*
X77978285Y-107573071D02*
X78478285Y-109073071D01*
X78978285Y-107573071D01*
X80264000Y-109073071D02*
X79406857Y-109073071D01*
X79835428Y-109073071D02*
X79835428Y-107573071D01*
X79692571Y-107787357D01*
X79549714Y-107930214D01*
X79406857Y-108001642D01*
X80906857Y-108930214D02*
X80978285Y-109001642D01*
X80906857Y-109073071D01*
X80835428Y-109001642D01*
X80906857Y-108930214D01*
X80906857Y-109073071D01*
X81906857Y-107573071D02*
X82049714Y-107573071D01*
X82192571Y-107644500D01*
X82264000Y-107715928D01*
X82335428Y-107858785D01*
X82406857Y-108144500D01*
X82406857Y-108501642D01*
X82335428Y-108787357D01*
X82264000Y-108930214D01*
X82192571Y-109001642D01*
X82049714Y-109073071D01*
X81906857Y-109073071D01*
X81764000Y-109001642D01*
X81692571Y-108930214D01*
X81621142Y-108787357D01*
X81549714Y-108501642D01*
X81549714Y-108144500D01*
X81621142Y-107858785D01*
X81692571Y-107715928D01*
X81764000Y-107644500D01*
X81906857Y-107573071D01*
D12*
G04 #@! TO.C,C1*
X86379000Y-103016000D02*
X86379000Y-105366000D01*
X86379000Y-109836000D02*
X86379000Y-107486000D01*
X92134563Y-109836000D02*
X86379000Y-109836000D01*
X92134563Y-103016000D02*
X86379000Y-103016000D01*
X93199000Y-104080437D02*
X93199000Y-105366000D01*
X93199000Y-108771563D02*
X93199000Y-107486000D01*
X93199000Y-108771563D02*
X92134563Y-109836000D01*
X93199000Y-104080437D02*
X92134563Y-103016000D01*
X94226500Y-108273500D02*
X93439000Y-108273500D01*
X93832750Y-108667250D02*
X93832750Y-107879750D01*
G04 #@! TO.C,D1*
X65187000Y-109037000D02*
X68047000Y-109037000D01*
X65187000Y-107117000D02*
X65187000Y-109037000D01*
X68047000Y-107117000D02*
X65187000Y-107117000D01*
G04 #@! TO.C,D2*
X68047000Y-103688000D02*
X65187000Y-103688000D01*
X65187000Y-103688000D02*
X65187000Y-105608000D01*
X65187000Y-105608000D02*
X68047000Y-105608000D01*
G04 #@! TO.C,D3*
X65187000Y-102306000D02*
X68047000Y-102306000D01*
X65187000Y-100386000D02*
X65187000Y-102306000D01*
X68047000Y-100386000D02*
X65187000Y-100386000D01*
G04 #@! TO.C,D4*
X68047000Y-97211000D02*
X65187000Y-97211000D01*
X65187000Y-97211000D02*
X65187000Y-99131000D01*
X65187000Y-99131000D02*
X68047000Y-99131000D01*
G04 #@! TO.C,D5*
X65187000Y-95829000D02*
X68047000Y-95829000D01*
X65187000Y-93909000D02*
X65187000Y-95829000D01*
X68047000Y-93909000D02*
X65187000Y-93909000D01*
G04 #@! TO.C,D6*
X68047000Y-90607000D02*
X65187000Y-90607000D01*
X65187000Y-90607000D02*
X65187000Y-92527000D01*
X65187000Y-92527000D02*
X68047000Y-92527000D01*
G04 #@! TO.C,D7*
X65187000Y-89352000D02*
X68047000Y-89352000D01*
X65187000Y-87432000D02*
X65187000Y-89352000D01*
X68047000Y-87432000D02*
X65187000Y-87432000D01*
G04 #@! TO.C,D8*
X68047000Y-84257000D02*
X65187000Y-84257000D01*
X65187000Y-84257000D02*
X65187000Y-86177000D01*
X65187000Y-86177000D02*
X68047000Y-86177000D01*
G04 #@! TO.C,D9*
X111449500Y-109227500D02*
X114309500Y-109227500D01*
X114309500Y-109227500D02*
X114309500Y-107307500D01*
X114309500Y-107307500D02*
X111449500Y-107307500D01*
G04 #@! TO.C,D10*
X114309500Y-103878500D02*
X111449500Y-103878500D01*
X114309500Y-105798500D02*
X114309500Y-103878500D01*
X111449500Y-105798500D02*
X114309500Y-105798500D01*
G04 #@! TO.C,D11*
X111449500Y-102623500D02*
X114309500Y-102623500D01*
X114309500Y-102623500D02*
X114309500Y-100703500D01*
X114309500Y-100703500D02*
X111449500Y-100703500D01*
G04 #@! TO.C,D12*
X114309500Y-97401500D02*
X111449500Y-97401500D01*
X114309500Y-99321500D02*
X114309500Y-97401500D01*
X111449500Y-99321500D02*
X114309500Y-99321500D01*
G04 #@! TO.C,D13*
X111386000Y-96146500D02*
X114246000Y-96146500D01*
X114246000Y-96146500D02*
X114246000Y-94226500D01*
X114246000Y-94226500D02*
X111386000Y-94226500D01*
G04 #@! TO.C,D14*
X114246000Y-91178500D02*
X111386000Y-91178500D01*
X114246000Y-93098500D02*
X114246000Y-91178500D01*
X111386000Y-93098500D02*
X114246000Y-93098500D01*
G04 #@! TO.C,D15*
X111449500Y-89479000D02*
X114309500Y-89479000D01*
X114309500Y-89479000D02*
X114309500Y-87559000D01*
X114309500Y-87559000D02*
X111449500Y-87559000D01*
G04 #@! TO.C,D16*
X114309500Y-84130000D02*
X111449500Y-84130000D01*
X114309500Y-86050000D02*
X114309500Y-84130000D01*
X111449500Y-86050000D02*
X114309500Y-86050000D01*
G04 #@! TO.C,J1*
X82744000Y-83252000D02*
X82744000Y-85912000D01*
X92964000Y-83252000D02*
X82744000Y-83252000D01*
X92964000Y-85912000D02*
X82744000Y-85912000D01*
X92964000Y-83252000D02*
X92964000Y-85912000D01*
X94234000Y-83252000D02*
X95564000Y-83252000D01*
X95564000Y-83252000D02*
X95564000Y-84582000D01*
G04 #@! TO.C,R1*
X73658252Y-108787000D02*
X73135748Y-108787000D01*
X73658252Y-107367000D02*
X73135748Y-107367000D01*
G04 #@! TO.C,R2*
X73658252Y-103938000D02*
X73135748Y-103938000D01*
X73658252Y-105358000D02*
X73135748Y-105358000D01*
G04 #@! TO.C,R3*
X73658252Y-102056000D02*
X73135748Y-102056000D01*
X73658252Y-100636000D02*
X73135748Y-100636000D01*
G04 #@! TO.C,R4*
X73658252Y-97334000D02*
X73135748Y-97334000D01*
X73658252Y-98754000D02*
X73135748Y-98754000D01*
G04 #@! TO.C,R5*
X73658252Y-94159000D02*
X73135748Y-94159000D01*
X73658252Y-95579000D02*
X73135748Y-95579000D01*
G04 #@! TO.C,R6*
X73658252Y-92277000D02*
X73135748Y-92277000D01*
X73658252Y-90857000D02*
X73135748Y-90857000D01*
G04 #@! TO.C,R7*
X73658252Y-88975000D02*
X73135748Y-88975000D01*
X73658252Y-87555000D02*
X73135748Y-87555000D01*
G04 #@! TO.C,R8*
X73658252Y-85927000D02*
X73135748Y-85927000D01*
X73658252Y-84507000D02*
X73135748Y-84507000D01*
G04 #@! TO.C,R9*
X105729248Y-108850500D02*
X106251752Y-108850500D01*
X105729248Y-107430500D02*
X106251752Y-107430500D01*
G04 #@! TO.C,R10*
X105729248Y-104128500D02*
X106251752Y-104128500D01*
X105729248Y-105548500D02*
X106251752Y-105548500D01*
G04 #@! TO.C,R11*
X105602248Y-102246500D02*
X106124752Y-102246500D01*
X105602248Y-100826500D02*
X106124752Y-100826500D01*
G04 #@! TO.C,R12*
X105593248Y-97651500D02*
X106115752Y-97651500D01*
X105593248Y-99071500D02*
X106115752Y-99071500D01*
G04 #@! TO.C,R13*
X105584248Y-95896500D02*
X106106752Y-95896500D01*
X105584248Y-94476500D02*
X106106752Y-94476500D01*
G04 #@! TO.C,R14*
X105584248Y-91174500D02*
X106106752Y-91174500D01*
X105584248Y-92594500D02*
X106106752Y-92594500D01*
G04 #@! TO.C,R15*
X105584248Y-89292500D02*
X106106752Y-89292500D01*
X105584248Y-87872500D02*
X106106752Y-87872500D01*
G04 #@! TO.C,R16*
X105593248Y-85736500D02*
X106115752Y-85736500D01*
X105593248Y-84316500D02*
X106115752Y-84316500D01*
G04 #@! TO.C,U1*
X85775500Y-89786500D02*
X80975500Y-89786500D01*
X85775500Y-100586500D02*
X80975500Y-100586500D01*
X85775500Y-100186500D02*
X87175500Y-100186500D01*
X85775500Y-100586500D02*
X85775500Y-100186500D01*
G04 #@! TO.C,U2*
X99110500Y-100586500D02*
X99110500Y-100186500D01*
X99110500Y-100186500D02*
X100510500Y-100186500D01*
X99110500Y-100586500D02*
X94310500Y-100586500D01*
X99110500Y-89786500D02*
X94310500Y-89786500D01*
G04 #@! TO.C,D17*
X68555000Y-124770000D02*
X65695000Y-124770000D01*
X65695000Y-124770000D02*
X65695000Y-126690000D01*
X65695000Y-126690000D02*
X68555000Y-126690000D01*
G04 #@! TO.C,D18*
X71555000Y-126690000D02*
X74415000Y-126690000D01*
X71555000Y-124770000D02*
X71555000Y-126690000D01*
X74415000Y-124770000D02*
X71555000Y-124770000D01*
G04 #@! TO.C,D19*
X80765000Y-124770000D02*
X77905000Y-124770000D01*
X77905000Y-124770000D02*
X77905000Y-126690000D01*
X77905000Y-126690000D02*
X80765000Y-126690000D01*
G04 #@! TO.C,D20*
X84500000Y-126690000D02*
X87360000Y-126690000D01*
X84500000Y-124770000D02*
X84500000Y-126690000D01*
X87360000Y-124770000D02*
X84500000Y-124770000D01*
G04 #@! TO.C,D21*
X93710000Y-124770000D02*
X90850000Y-124770000D01*
X90850000Y-124770000D02*
X90850000Y-126690000D01*
X90850000Y-126690000D02*
X93710000Y-126690000D01*
G04 #@! TO.C,D22*
X97200000Y-126690000D02*
X100060000Y-126690000D01*
X97200000Y-124770000D02*
X97200000Y-126690000D01*
X100060000Y-124770000D02*
X97200000Y-124770000D01*
G04 #@! TO.C,D23*
X106410000Y-124770000D02*
X103550000Y-124770000D01*
X103550000Y-124770000D02*
X103550000Y-126690000D01*
X103550000Y-126690000D02*
X106410000Y-126690000D01*
G04 #@! TO.C,D24*
X109900000Y-126690000D02*
X112760000Y-126690000D01*
X109900000Y-124770000D02*
X109900000Y-126690000D01*
X112760000Y-124770000D02*
X109900000Y-124770000D01*
G04 #@! TO.C,R17*
X65330000Y-116578748D02*
X65330000Y-117101252D01*
X66750000Y-116578748D02*
X66750000Y-117101252D01*
G04 #@! TO.C,R18*
X70560000Y-116578748D02*
X70560000Y-117101252D01*
X69140000Y-116578748D02*
X69140000Y-117101252D01*
G04 #@! TO.C,R19*
X72950000Y-116578748D02*
X72950000Y-117101252D01*
X74370000Y-116578748D02*
X74370000Y-117101252D01*
G04 #@! TO.C,R20*
X78180000Y-116578748D02*
X78180000Y-117101252D01*
X76760000Y-116578748D02*
X76760000Y-117101252D01*
G04 #@! TO.C,R21*
X98350000Y-116823748D02*
X98350000Y-117346252D01*
X99770000Y-116823748D02*
X99770000Y-117346252D01*
G04 #@! TO.C,R22*
X103580000Y-116823748D02*
X103580000Y-117346252D01*
X102160000Y-116823748D02*
X102160000Y-117346252D01*
G04 #@! TO.C,R23*
X105970000Y-116578748D02*
X105970000Y-117101252D01*
X107390000Y-116578748D02*
X107390000Y-117101252D01*
G04 #@! TO.C,R24*
X111200000Y-116578748D02*
X111200000Y-117101252D01*
X109780000Y-116578748D02*
X109780000Y-117101252D01*
G04 #@! TO.C,U3*
X84071500Y-119240000D02*
X84471500Y-119240000D01*
X84471500Y-119240000D02*
X84471500Y-120640000D01*
X84071500Y-119240000D02*
X84071500Y-114440000D01*
X94871500Y-119240000D02*
X94871500Y-114440000D01*
G04 #@! TO.C,C1*
D13*
X89622333Y-111133142D02*
X89574714Y-111180761D01*
X89431857Y-111228380D01*
X89336619Y-111228380D01*
X89193761Y-111180761D01*
X89098523Y-111085523D01*
X89050904Y-110990285D01*
X89003285Y-110799809D01*
X89003285Y-110656952D01*
X89050904Y-110466476D01*
X89098523Y-110371238D01*
X89193761Y-110276000D01*
X89336619Y-110228380D01*
X89431857Y-110228380D01*
X89574714Y-110276000D01*
X89622333Y-110323619D01*
X90574714Y-111228380D02*
X90003285Y-111228380D01*
X90289000Y-111228380D02*
X90289000Y-110228380D01*
X90193761Y-110371238D01*
X90098523Y-110466476D01*
X90003285Y-110514095D01*
G04 #@! TO.C,D1*
X66308904Y-106879380D02*
X66308904Y-105879380D01*
X66547000Y-105879380D01*
X66689857Y-105927000D01*
X66785095Y-106022238D01*
X66832714Y-106117476D01*
X66880333Y-106307952D01*
X66880333Y-106450809D01*
X66832714Y-106641285D01*
X66785095Y-106736523D01*
X66689857Y-106831761D01*
X66547000Y-106879380D01*
X66308904Y-106879380D01*
X67832714Y-106879380D02*
X67261285Y-106879380D01*
X67547000Y-106879380D02*
X67547000Y-105879380D01*
X67451761Y-106022238D01*
X67356523Y-106117476D01*
X67261285Y-106165095D01*
G04 #@! TO.C,D2*
X66308904Y-103450380D02*
X66308904Y-102450380D01*
X66547000Y-102450380D01*
X66689857Y-102498000D01*
X66785095Y-102593238D01*
X66832714Y-102688476D01*
X66880333Y-102878952D01*
X66880333Y-103021809D01*
X66832714Y-103212285D01*
X66785095Y-103307523D01*
X66689857Y-103402761D01*
X66547000Y-103450380D01*
X66308904Y-103450380D01*
X67261285Y-102545619D02*
X67308904Y-102498000D01*
X67404142Y-102450380D01*
X67642238Y-102450380D01*
X67737476Y-102498000D01*
X67785095Y-102545619D01*
X67832714Y-102640857D01*
X67832714Y-102736095D01*
X67785095Y-102878952D01*
X67213666Y-103450380D01*
X67832714Y-103450380D01*
G04 #@! TO.C,D3*
X66308904Y-100148380D02*
X66308904Y-99148380D01*
X66547000Y-99148380D01*
X66689857Y-99196000D01*
X66785095Y-99291238D01*
X66832714Y-99386476D01*
X66880333Y-99576952D01*
X66880333Y-99719809D01*
X66832714Y-99910285D01*
X66785095Y-100005523D01*
X66689857Y-100100761D01*
X66547000Y-100148380D01*
X66308904Y-100148380D01*
X67213666Y-99148380D02*
X67832714Y-99148380D01*
X67499380Y-99529333D01*
X67642238Y-99529333D01*
X67737476Y-99576952D01*
X67785095Y-99624571D01*
X67832714Y-99719809D01*
X67832714Y-99957904D01*
X67785095Y-100053142D01*
X67737476Y-100100761D01*
X67642238Y-100148380D01*
X67356523Y-100148380D01*
X67261285Y-100100761D01*
X67213666Y-100053142D01*
G04 #@! TO.C,D4*
X66308904Y-96973380D02*
X66308904Y-95973380D01*
X66547000Y-95973380D01*
X66689857Y-96021000D01*
X66785095Y-96116238D01*
X66832714Y-96211476D01*
X66880333Y-96401952D01*
X66880333Y-96544809D01*
X66832714Y-96735285D01*
X66785095Y-96830523D01*
X66689857Y-96925761D01*
X66547000Y-96973380D01*
X66308904Y-96973380D01*
X67737476Y-96306714D02*
X67737476Y-96973380D01*
X67499380Y-95925761D02*
X67261285Y-96640047D01*
X67880333Y-96640047D01*
G04 #@! TO.C,D5*
X66308904Y-93671380D02*
X66308904Y-92671380D01*
X66547000Y-92671380D01*
X66689857Y-92719000D01*
X66785095Y-92814238D01*
X66832714Y-92909476D01*
X66880333Y-93099952D01*
X66880333Y-93242809D01*
X66832714Y-93433285D01*
X66785095Y-93528523D01*
X66689857Y-93623761D01*
X66547000Y-93671380D01*
X66308904Y-93671380D01*
X67785095Y-92671380D02*
X67308904Y-92671380D01*
X67261285Y-93147571D01*
X67308904Y-93099952D01*
X67404142Y-93052333D01*
X67642238Y-93052333D01*
X67737476Y-93099952D01*
X67785095Y-93147571D01*
X67832714Y-93242809D01*
X67832714Y-93480904D01*
X67785095Y-93576142D01*
X67737476Y-93623761D01*
X67642238Y-93671380D01*
X67404142Y-93671380D01*
X67308904Y-93623761D01*
X67261285Y-93576142D01*
G04 #@! TO.C,D6*
X66308904Y-90369380D02*
X66308904Y-89369380D01*
X66547000Y-89369380D01*
X66689857Y-89417000D01*
X66785095Y-89512238D01*
X66832714Y-89607476D01*
X66880333Y-89797952D01*
X66880333Y-89940809D01*
X66832714Y-90131285D01*
X66785095Y-90226523D01*
X66689857Y-90321761D01*
X66547000Y-90369380D01*
X66308904Y-90369380D01*
X67737476Y-89369380D02*
X67547000Y-89369380D01*
X67451761Y-89417000D01*
X67404142Y-89464619D01*
X67308904Y-89607476D01*
X67261285Y-89797952D01*
X67261285Y-90178904D01*
X67308904Y-90274142D01*
X67356523Y-90321761D01*
X67451761Y-90369380D01*
X67642238Y-90369380D01*
X67737476Y-90321761D01*
X67785095Y-90274142D01*
X67832714Y-90178904D01*
X67832714Y-89940809D01*
X67785095Y-89845571D01*
X67737476Y-89797952D01*
X67642238Y-89750333D01*
X67451761Y-89750333D01*
X67356523Y-89797952D01*
X67308904Y-89845571D01*
X67261285Y-89940809D01*
G04 #@! TO.C,D7*
X66308904Y-87194380D02*
X66308904Y-86194380D01*
X66547000Y-86194380D01*
X66689857Y-86242000D01*
X66785095Y-86337238D01*
X66832714Y-86432476D01*
X66880333Y-86622952D01*
X66880333Y-86765809D01*
X66832714Y-86956285D01*
X66785095Y-87051523D01*
X66689857Y-87146761D01*
X66547000Y-87194380D01*
X66308904Y-87194380D01*
X67213666Y-86194380D02*
X67880333Y-86194380D01*
X67451761Y-87194380D01*
G04 #@! TO.C,D8*
X66308904Y-84019380D02*
X66308904Y-83019380D01*
X66547000Y-83019380D01*
X66689857Y-83067000D01*
X66785095Y-83162238D01*
X66832714Y-83257476D01*
X66880333Y-83447952D01*
X66880333Y-83590809D01*
X66832714Y-83781285D01*
X66785095Y-83876523D01*
X66689857Y-83971761D01*
X66547000Y-84019380D01*
X66308904Y-84019380D01*
X67451761Y-83447952D02*
X67356523Y-83400333D01*
X67308904Y-83352714D01*
X67261285Y-83257476D01*
X67261285Y-83209857D01*
X67308904Y-83114619D01*
X67356523Y-83067000D01*
X67451761Y-83019380D01*
X67642238Y-83019380D01*
X67737476Y-83067000D01*
X67785095Y-83114619D01*
X67832714Y-83209857D01*
X67832714Y-83257476D01*
X67785095Y-83352714D01*
X67737476Y-83400333D01*
X67642238Y-83447952D01*
X67451761Y-83447952D01*
X67356523Y-83495571D01*
X67308904Y-83543190D01*
X67261285Y-83638428D01*
X67261285Y-83828904D01*
X67308904Y-83924142D01*
X67356523Y-83971761D01*
X67451761Y-84019380D01*
X67642238Y-84019380D01*
X67737476Y-83971761D01*
X67785095Y-83924142D01*
X67832714Y-83828904D01*
X67832714Y-83638428D01*
X67785095Y-83543190D01*
X67737476Y-83495571D01*
X67642238Y-83447952D01*
G04 #@! TO.C,D9*
X111593404Y-107195880D02*
X111593404Y-106195880D01*
X111831500Y-106195880D01*
X111974357Y-106243500D01*
X112069595Y-106338738D01*
X112117214Y-106433976D01*
X112164833Y-106624452D01*
X112164833Y-106767309D01*
X112117214Y-106957785D01*
X112069595Y-107053023D01*
X111974357Y-107148261D01*
X111831500Y-107195880D01*
X111593404Y-107195880D01*
X112641023Y-107195880D02*
X112831500Y-107195880D01*
X112926738Y-107148261D01*
X112974357Y-107100642D01*
X113069595Y-106957785D01*
X113117214Y-106767309D01*
X113117214Y-106386357D01*
X113069595Y-106291119D01*
X113021976Y-106243500D01*
X112926738Y-106195880D01*
X112736261Y-106195880D01*
X112641023Y-106243500D01*
X112593404Y-106291119D01*
X112545785Y-106386357D01*
X112545785Y-106624452D01*
X112593404Y-106719690D01*
X112641023Y-106767309D01*
X112736261Y-106814928D01*
X112926738Y-106814928D01*
X113021976Y-106767309D01*
X113069595Y-106719690D01*
X113117214Y-106624452D01*
G04 #@! TO.C,D10*
X111180714Y-103893880D02*
X111180714Y-102893880D01*
X111418809Y-102893880D01*
X111561666Y-102941500D01*
X111656904Y-103036738D01*
X111704523Y-103131976D01*
X111752142Y-103322452D01*
X111752142Y-103465309D01*
X111704523Y-103655785D01*
X111656904Y-103751023D01*
X111561666Y-103846261D01*
X111418809Y-103893880D01*
X111180714Y-103893880D01*
X112704523Y-103893880D02*
X112133095Y-103893880D01*
X112418809Y-103893880D02*
X112418809Y-102893880D01*
X112323571Y-103036738D01*
X112228333Y-103131976D01*
X112133095Y-103179595D01*
X113323571Y-102893880D02*
X113418809Y-102893880D01*
X113514047Y-102941500D01*
X113561666Y-102989119D01*
X113609285Y-103084357D01*
X113656904Y-103274833D01*
X113656904Y-103512928D01*
X113609285Y-103703404D01*
X113561666Y-103798642D01*
X113514047Y-103846261D01*
X113418809Y-103893880D01*
X113323571Y-103893880D01*
X113228333Y-103846261D01*
X113180714Y-103798642D01*
X113133095Y-103703404D01*
X113085476Y-103512928D01*
X113085476Y-103274833D01*
X113133095Y-103084357D01*
X113180714Y-102989119D01*
X113228333Y-102941500D01*
X113323571Y-102893880D01*
G04 #@! TO.C,D11*
X111371214Y-100528380D02*
X111371214Y-99528380D01*
X111609309Y-99528380D01*
X111752166Y-99576000D01*
X111847404Y-99671238D01*
X111895023Y-99766476D01*
X111942642Y-99956952D01*
X111942642Y-100099809D01*
X111895023Y-100290285D01*
X111847404Y-100385523D01*
X111752166Y-100480761D01*
X111609309Y-100528380D01*
X111371214Y-100528380D01*
X112895023Y-100528380D02*
X112323595Y-100528380D01*
X112609309Y-100528380D02*
X112609309Y-99528380D01*
X112514071Y-99671238D01*
X112418833Y-99766476D01*
X112323595Y-99814095D01*
X113847404Y-100528380D02*
X113275976Y-100528380D01*
X113561690Y-100528380D02*
X113561690Y-99528380D01*
X113466452Y-99671238D01*
X113371214Y-99766476D01*
X113275976Y-99814095D01*
G04 #@! TO.C,D12*
X111117214Y-97353380D02*
X111117214Y-96353380D01*
X111355309Y-96353380D01*
X111498166Y-96401000D01*
X111593404Y-96496238D01*
X111641023Y-96591476D01*
X111688642Y-96781952D01*
X111688642Y-96924809D01*
X111641023Y-97115285D01*
X111593404Y-97210523D01*
X111498166Y-97305761D01*
X111355309Y-97353380D01*
X111117214Y-97353380D01*
X112641023Y-97353380D02*
X112069595Y-97353380D01*
X112355309Y-97353380D02*
X112355309Y-96353380D01*
X112260071Y-96496238D01*
X112164833Y-96591476D01*
X112069595Y-96639095D01*
X113021976Y-96448619D02*
X113069595Y-96401000D01*
X113164833Y-96353380D01*
X113402928Y-96353380D01*
X113498166Y-96401000D01*
X113545785Y-96448619D01*
X113593404Y-96543857D01*
X113593404Y-96639095D01*
X113545785Y-96781952D01*
X112974357Y-97353380D01*
X113593404Y-97353380D01*
G04 #@! TO.C,D13*
X111117214Y-94114880D02*
X111117214Y-93114880D01*
X111355309Y-93114880D01*
X111498166Y-93162500D01*
X111593404Y-93257738D01*
X111641023Y-93352976D01*
X111688642Y-93543452D01*
X111688642Y-93686309D01*
X111641023Y-93876785D01*
X111593404Y-93972023D01*
X111498166Y-94067261D01*
X111355309Y-94114880D01*
X111117214Y-94114880D01*
X112641023Y-94114880D02*
X112069595Y-94114880D01*
X112355309Y-94114880D02*
X112355309Y-93114880D01*
X112260071Y-93257738D01*
X112164833Y-93352976D01*
X112069595Y-93400595D01*
X112974357Y-93114880D02*
X113593404Y-93114880D01*
X113260071Y-93495833D01*
X113402928Y-93495833D01*
X113498166Y-93543452D01*
X113545785Y-93591071D01*
X113593404Y-93686309D01*
X113593404Y-93924404D01*
X113545785Y-94019642D01*
X113498166Y-94067261D01*
X113402928Y-94114880D01*
X113117214Y-94114880D01*
X113021976Y-94067261D01*
X112974357Y-94019642D01*
G04 #@! TO.C,D14*
X111053714Y-90749380D02*
X111053714Y-89749380D01*
X111291809Y-89749380D01*
X111434666Y-89797000D01*
X111529904Y-89892238D01*
X111577523Y-89987476D01*
X111625142Y-90177952D01*
X111625142Y-90320809D01*
X111577523Y-90511285D01*
X111529904Y-90606523D01*
X111434666Y-90701761D01*
X111291809Y-90749380D01*
X111053714Y-90749380D01*
X112577523Y-90749380D02*
X112006095Y-90749380D01*
X112291809Y-90749380D02*
X112291809Y-89749380D01*
X112196571Y-89892238D01*
X112101333Y-89987476D01*
X112006095Y-90035095D01*
X113434666Y-90082714D02*
X113434666Y-90749380D01*
X113196571Y-89701761D02*
X112958476Y-90416047D01*
X113577523Y-90416047D01*
G04 #@! TO.C,D15*
X111235214Y-87383880D02*
X111235214Y-86383880D01*
X111473309Y-86383880D01*
X111616166Y-86431500D01*
X111711404Y-86526738D01*
X111759023Y-86621976D01*
X111806642Y-86812452D01*
X111806642Y-86955309D01*
X111759023Y-87145785D01*
X111711404Y-87241023D01*
X111616166Y-87336261D01*
X111473309Y-87383880D01*
X111235214Y-87383880D01*
X112759023Y-87383880D02*
X112187595Y-87383880D01*
X112473309Y-87383880D02*
X112473309Y-86383880D01*
X112378071Y-86526738D01*
X112282833Y-86621976D01*
X112187595Y-86669595D01*
X113663785Y-86383880D02*
X113187595Y-86383880D01*
X113139976Y-86860071D01*
X113187595Y-86812452D01*
X113282833Y-86764833D01*
X113520928Y-86764833D01*
X113616166Y-86812452D01*
X113663785Y-86860071D01*
X113711404Y-86955309D01*
X113711404Y-87193404D01*
X113663785Y-87288642D01*
X113616166Y-87336261D01*
X113520928Y-87383880D01*
X113282833Y-87383880D01*
X113187595Y-87336261D01*
X113139976Y-87288642D01*
G04 #@! TO.C,D16*
X111180714Y-83827880D02*
X111180714Y-82827880D01*
X111418809Y-82827880D01*
X111561666Y-82875500D01*
X111656904Y-82970738D01*
X111704523Y-83065976D01*
X111752142Y-83256452D01*
X111752142Y-83399309D01*
X111704523Y-83589785D01*
X111656904Y-83685023D01*
X111561666Y-83780261D01*
X111418809Y-83827880D01*
X111180714Y-83827880D01*
X112704523Y-83827880D02*
X112133095Y-83827880D01*
X112418809Y-83827880D02*
X112418809Y-82827880D01*
X112323571Y-82970738D01*
X112228333Y-83065976D01*
X112133095Y-83113595D01*
X113561666Y-82827880D02*
X113371190Y-82827880D01*
X113275952Y-82875500D01*
X113228333Y-82923119D01*
X113133095Y-83065976D01*
X113085476Y-83256452D01*
X113085476Y-83637404D01*
X113133095Y-83732642D01*
X113180714Y-83780261D01*
X113275952Y-83827880D01*
X113466428Y-83827880D01*
X113561666Y-83780261D01*
X113609285Y-83732642D01*
X113656904Y-83637404D01*
X113656904Y-83399309D01*
X113609285Y-83304071D01*
X113561666Y-83256452D01*
X113466428Y-83208833D01*
X113275952Y-83208833D01*
X113180714Y-83256452D01*
X113133095Y-83304071D01*
X113085476Y-83399309D01*
G04 #@! TO.C,J1*
X96694666Y-84034380D02*
X96694666Y-84748666D01*
X96647047Y-84891523D01*
X96551809Y-84986761D01*
X96408952Y-85034380D01*
X96313714Y-85034380D01*
X97694666Y-85034380D02*
X97123238Y-85034380D01*
X97408952Y-85034380D02*
X97408952Y-84034380D01*
X97313714Y-84177238D01*
X97218476Y-84272476D01*
X97123238Y-84320095D01*
G04 #@! TO.C,R1*
X73230333Y-110179380D02*
X72897000Y-109703190D01*
X72658904Y-110179380D02*
X72658904Y-109179380D01*
X73039857Y-109179380D01*
X73135095Y-109227000D01*
X73182714Y-109274619D01*
X73230333Y-109369857D01*
X73230333Y-109512714D01*
X73182714Y-109607952D01*
X73135095Y-109655571D01*
X73039857Y-109703190D01*
X72658904Y-109703190D01*
X74182714Y-110179380D02*
X73611285Y-110179380D01*
X73897000Y-110179380D02*
X73897000Y-109179380D01*
X73801761Y-109322238D01*
X73706523Y-109417476D01*
X73611285Y-109465095D01*
G04 #@! TO.C,R2*
X73230333Y-106750380D02*
X72897000Y-106274190D01*
X72658904Y-106750380D02*
X72658904Y-105750380D01*
X73039857Y-105750380D01*
X73135095Y-105798000D01*
X73182714Y-105845619D01*
X73230333Y-105940857D01*
X73230333Y-106083714D01*
X73182714Y-106178952D01*
X73135095Y-106226571D01*
X73039857Y-106274190D01*
X72658904Y-106274190D01*
X73611285Y-105845619D02*
X73658904Y-105798000D01*
X73754142Y-105750380D01*
X73992238Y-105750380D01*
X74087476Y-105798000D01*
X74135095Y-105845619D01*
X74182714Y-105940857D01*
X74182714Y-106036095D01*
X74135095Y-106178952D01*
X73563666Y-106750380D01*
X74182714Y-106750380D01*
G04 #@! TO.C,R3*
X73230333Y-103448380D02*
X72897000Y-102972190D01*
X72658904Y-103448380D02*
X72658904Y-102448380D01*
X73039857Y-102448380D01*
X73135095Y-102496000D01*
X73182714Y-102543619D01*
X73230333Y-102638857D01*
X73230333Y-102781714D01*
X73182714Y-102876952D01*
X73135095Y-102924571D01*
X73039857Y-102972190D01*
X72658904Y-102972190D01*
X73563666Y-102448380D02*
X74182714Y-102448380D01*
X73849380Y-102829333D01*
X73992238Y-102829333D01*
X74087476Y-102876952D01*
X74135095Y-102924571D01*
X74182714Y-103019809D01*
X74182714Y-103257904D01*
X74135095Y-103353142D01*
X74087476Y-103400761D01*
X73992238Y-103448380D01*
X73706523Y-103448380D01*
X73611285Y-103400761D01*
X73563666Y-103353142D01*
G04 #@! TO.C,R4*
X73230333Y-100146380D02*
X72897000Y-99670190D01*
X72658904Y-100146380D02*
X72658904Y-99146380D01*
X73039857Y-99146380D01*
X73135095Y-99194000D01*
X73182714Y-99241619D01*
X73230333Y-99336857D01*
X73230333Y-99479714D01*
X73182714Y-99574952D01*
X73135095Y-99622571D01*
X73039857Y-99670190D01*
X72658904Y-99670190D01*
X74087476Y-99479714D02*
X74087476Y-100146380D01*
X73849380Y-99098761D02*
X73611285Y-99813047D01*
X74230333Y-99813047D01*
G04 #@! TO.C,R5*
X73230333Y-96971380D02*
X72897000Y-96495190D01*
X72658904Y-96971380D02*
X72658904Y-95971380D01*
X73039857Y-95971380D01*
X73135095Y-96019000D01*
X73182714Y-96066619D01*
X73230333Y-96161857D01*
X73230333Y-96304714D01*
X73182714Y-96399952D01*
X73135095Y-96447571D01*
X73039857Y-96495190D01*
X72658904Y-96495190D01*
X74135095Y-95971380D02*
X73658904Y-95971380D01*
X73611285Y-96447571D01*
X73658904Y-96399952D01*
X73754142Y-96352333D01*
X73992238Y-96352333D01*
X74087476Y-96399952D01*
X74135095Y-96447571D01*
X74182714Y-96542809D01*
X74182714Y-96780904D01*
X74135095Y-96876142D01*
X74087476Y-96923761D01*
X73992238Y-96971380D01*
X73754142Y-96971380D01*
X73658904Y-96923761D01*
X73611285Y-96876142D01*
G04 #@! TO.C,R6*
X73230333Y-93669380D02*
X72897000Y-93193190D01*
X72658904Y-93669380D02*
X72658904Y-92669380D01*
X73039857Y-92669380D01*
X73135095Y-92717000D01*
X73182714Y-92764619D01*
X73230333Y-92859857D01*
X73230333Y-93002714D01*
X73182714Y-93097952D01*
X73135095Y-93145571D01*
X73039857Y-93193190D01*
X72658904Y-93193190D01*
X74087476Y-92669380D02*
X73897000Y-92669380D01*
X73801761Y-92717000D01*
X73754142Y-92764619D01*
X73658904Y-92907476D01*
X73611285Y-93097952D01*
X73611285Y-93478904D01*
X73658904Y-93574142D01*
X73706523Y-93621761D01*
X73801761Y-93669380D01*
X73992238Y-93669380D01*
X74087476Y-93621761D01*
X74135095Y-93574142D01*
X74182714Y-93478904D01*
X74182714Y-93240809D01*
X74135095Y-93145571D01*
X74087476Y-93097952D01*
X73992238Y-93050333D01*
X73801761Y-93050333D01*
X73706523Y-93097952D01*
X73658904Y-93145571D01*
X73611285Y-93240809D01*
G04 #@! TO.C,R7*
X73230333Y-90367380D02*
X72897000Y-89891190D01*
X72658904Y-90367380D02*
X72658904Y-89367380D01*
X73039857Y-89367380D01*
X73135095Y-89415000D01*
X73182714Y-89462619D01*
X73230333Y-89557857D01*
X73230333Y-89700714D01*
X73182714Y-89795952D01*
X73135095Y-89843571D01*
X73039857Y-89891190D01*
X72658904Y-89891190D01*
X73563666Y-89367380D02*
X74230333Y-89367380D01*
X73801761Y-90367380D01*
G04 #@! TO.C,R8*
X73230333Y-87319380D02*
X72897000Y-86843190D01*
X72658904Y-87319380D02*
X72658904Y-86319380D01*
X73039857Y-86319380D01*
X73135095Y-86367000D01*
X73182714Y-86414619D01*
X73230333Y-86509857D01*
X73230333Y-86652714D01*
X73182714Y-86747952D01*
X73135095Y-86795571D01*
X73039857Y-86843190D01*
X72658904Y-86843190D01*
X73801761Y-86747952D02*
X73706523Y-86700333D01*
X73658904Y-86652714D01*
X73611285Y-86557476D01*
X73611285Y-86509857D01*
X73658904Y-86414619D01*
X73706523Y-86367000D01*
X73801761Y-86319380D01*
X73992238Y-86319380D01*
X74087476Y-86367000D01*
X74135095Y-86414619D01*
X74182714Y-86509857D01*
X74182714Y-86557476D01*
X74135095Y-86652714D01*
X74087476Y-86700333D01*
X73992238Y-86747952D01*
X73801761Y-86747952D01*
X73706523Y-86795571D01*
X73658904Y-86843190D01*
X73611285Y-86938428D01*
X73611285Y-87128904D01*
X73658904Y-87224142D01*
X73706523Y-87271761D01*
X73801761Y-87319380D01*
X73992238Y-87319380D01*
X74087476Y-87271761D01*
X74135095Y-87224142D01*
X74182714Y-87128904D01*
X74182714Y-86938428D01*
X74135095Y-86843190D01*
X74087476Y-86795571D01*
X73992238Y-86747952D01*
G04 #@! TO.C,R9*
X105823833Y-106942880D02*
X105490500Y-106466690D01*
X105252404Y-106942880D02*
X105252404Y-105942880D01*
X105633357Y-105942880D01*
X105728595Y-105990500D01*
X105776214Y-106038119D01*
X105823833Y-106133357D01*
X105823833Y-106276214D01*
X105776214Y-106371452D01*
X105728595Y-106419071D01*
X105633357Y-106466690D01*
X105252404Y-106466690D01*
X106300023Y-106942880D02*
X106490500Y-106942880D01*
X106585738Y-106895261D01*
X106633357Y-106847642D01*
X106728595Y-106704785D01*
X106776214Y-106514309D01*
X106776214Y-106133357D01*
X106728595Y-106038119D01*
X106680976Y-105990500D01*
X106585738Y-105942880D01*
X106395261Y-105942880D01*
X106300023Y-105990500D01*
X106252404Y-106038119D01*
X106204785Y-106133357D01*
X106204785Y-106371452D01*
X106252404Y-106466690D01*
X106300023Y-106514309D01*
X106395261Y-106561928D01*
X106585738Y-106561928D01*
X106680976Y-106514309D01*
X106728595Y-106466690D01*
X106776214Y-106371452D01*
G04 #@! TO.C,R10*
X105347642Y-103640880D02*
X105014309Y-103164690D01*
X104776214Y-103640880D02*
X104776214Y-102640880D01*
X105157166Y-102640880D01*
X105252404Y-102688500D01*
X105300023Y-102736119D01*
X105347642Y-102831357D01*
X105347642Y-102974214D01*
X105300023Y-103069452D01*
X105252404Y-103117071D01*
X105157166Y-103164690D01*
X104776214Y-103164690D01*
X106300023Y-103640880D02*
X105728595Y-103640880D01*
X106014309Y-103640880D02*
X106014309Y-102640880D01*
X105919071Y-102783738D01*
X105823833Y-102878976D01*
X105728595Y-102926595D01*
X106919071Y-102640880D02*
X107014309Y-102640880D01*
X107109547Y-102688500D01*
X107157166Y-102736119D01*
X107204785Y-102831357D01*
X107252404Y-103021833D01*
X107252404Y-103259928D01*
X107204785Y-103450404D01*
X107157166Y-103545642D01*
X107109547Y-103593261D01*
X107014309Y-103640880D01*
X106919071Y-103640880D01*
X106823833Y-103593261D01*
X106776214Y-103545642D01*
X106728595Y-103450404D01*
X106680976Y-103259928D01*
X106680976Y-103021833D01*
X106728595Y-102831357D01*
X106776214Y-102736119D01*
X106823833Y-102688500D01*
X106919071Y-102640880D01*
G04 #@! TO.C,R11*
X105220642Y-100338880D02*
X104887309Y-99862690D01*
X104649214Y-100338880D02*
X104649214Y-99338880D01*
X105030166Y-99338880D01*
X105125404Y-99386500D01*
X105173023Y-99434119D01*
X105220642Y-99529357D01*
X105220642Y-99672214D01*
X105173023Y-99767452D01*
X105125404Y-99815071D01*
X105030166Y-99862690D01*
X104649214Y-99862690D01*
X106173023Y-100338880D02*
X105601595Y-100338880D01*
X105887309Y-100338880D02*
X105887309Y-99338880D01*
X105792071Y-99481738D01*
X105696833Y-99576976D01*
X105601595Y-99624595D01*
X107125404Y-100338880D02*
X106553976Y-100338880D01*
X106839690Y-100338880D02*
X106839690Y-99338880D01*
X106744452Y-99481738D01*
X106649214Y-99576976D01*
X106553976Y-99624595D01*
G04 #@! TO.C,R12*
X105211642Y-97163880D02*
X104878309Y-96687690D01*
X104640214Y-97163880D02*
X104640214Y-96163880D01*
X105021166Y-96163880D01*
X105116404Y-96211500D01*
X105164023Y-96259119D01*
X105211642Y-96354357D01*
X105211642Y-96497214D01*
X105164023Y-96592452D01*
X105116404Y-96640071D01*
X105021166Y-96687690D01*
X104640214Y-96687690D01*
X106164023Y-97163880D02*
X105592595Y-97163880D01*
X105878309Y-97163880D02*
X105878309Y-96163880D01*
X105783071Y-96306738D01*
X105687833Y-96401976D01*
X105592595Y-96449595D01*
X106544976Y-96259119D02*
X106592595Y-96211500D01*
X106687833Y-96163880D01*
X106925928Y-96163880D01*
X107021166Y-96211500D01*
X107068785Y-96259119D01*
X107116404Y-96354357D01*
X107116404Y-96449595D01*
X107068785Y-96592452D01*
X106497357Y-97163880D01*
X107116404Y-97163880D01*
G04 #@! TO.C,R13*
X105202642Y-93988880D02*
X104869309Y-93512690D01*
X104631214Y-93988880D02*
X104631214Y-92988880D01*
X105012166Y-92988880D01*
X105107404Y-93036500D01*
X105155023Y-93084119D01*
X105202642Y-93179357D01*
X105202642Y-93322214D01*
X105155023Y-93417452D01*
X105107404Y-93465071D01*
X105012166Y-93512690D01*
X104631214Y-93512690D01*
X106155023Y-93988880D02*
X105583595Y-93988880D01*
X105869309Y-93988880D02*
X105869309Y-92988880D01*
X105774071Y-93131738D01*
X105678833Y-93226976D01*
X105583595Y-93274595D01*
X106488357Y-92988880D02*
X107107404Y-92988880D01*
X106774071Y-93369833D01*
X106916928Y-93369833D01*
X107012166Y-93417452D01*
X107059785Y-93465071D01*
X107107404Y-93560309D01*
X107107404Y-93798404D01*
X107059785Y-93893642D01*
X107012166Y-93941261D01*
X106916928Y-93988880D01*
X106631214Y-93988880D01*
X106535976Y-93941261D01*
X106488357Y-93893642D01*
G04 #@! TO.C,R14*
X105202642Y-90686880D02*
X104869309Y-90210690D01*
X104631214Y-90686880D02*
X104631214Y-89686880D01*
X105012166Y-89686880D01*
X105107404Y-89734500D01*
X105155023Y-89782119D01*
X105202642Y-89877357D01*
X105202642Y-90020214D01*
X105155023Y-90115452D01*
X105107404Y-90163071D01*
X105012166Y-90210690D01*
X104631214Y-90210690D01*
X106155023Y-90686880D02*
X105583595Y-90686880D01*
X105869309Y-90686880D02*
X105869309Y-89686880D01*
X105774071Y-89829738D01*
X105678833Y-89924976D01*
X105583595Y-89972595D01*
X107012166Y-90020214D02*
X107012166Y-90686880D01*
X106774071Y-89639261D02*
X106535976Y-90353547D01*
X107155023Y-90353547D01*
G04 #@! TO.C,R15*
X105202642Y-87384880D02*
X104869309Y-86908690D01*
X104631214Y-87384880D02*
X104631214Y-86384880D01*
X105012166Y-86384880D01*
X105107404Y-86432500D01*
X105155023Y-86480119D01*
X105202642Y-86575357D01*
X105202642Y-86718214D01*
X105155023Y-86813452D01*
X105107404Y-86861071D01*
X105012166Y-86908690D01*
X104631214Y-86908690D01*
X106155023Y-87384880D02*
X105583595Y-87384880D01*
X105869309Y-87384880D02*
X105869309Y-86384880D01*
X105774071Y-86527738D01*
X105678833Y-86622976D01*
X105583595Y-86670595D01*
X107059785Y-86384880D02*
X106583595Y-86384880D01*
X106535976Y-86861071D01*
X106583595Y-86813452D01*
X106678833Y-86765833D01*
X106916928Y-86765833D01*
X107012166Y-86813452D01*
X107059785Y-86861071D01*
X107107404Y-86956309D01*
X107107404Y-87194404D01*
X107059785Y-87289642D01*
X107012166Y-87337261D01*
X106916928Y-87384880D01*
X106678833Y-87384880D01*
X106583595Y-87337261D01*
X106535976Y-87289642D01*
G04 #@! TO.C,R16*
X105211642Y-83828880D02*
X104878309Y-83352690D01*
X104640214Y-83828880D02*
X104640214Y-82828880D01*
X105021166Y-82828880D01*
X105116404Y-82876500D01*
X105164023Y-82924119D01*
X105211642Y-83019357D01*
X105211642Y-83162214D01*
X105164023Y-83257452D01*
X105116404Y-83305071D01*
X105021166Y-83352690D01*
X104640214Y-83352690D01*
X106164023Y-83828880D02*
X105592595Y-83828880D01*
X105878309Y-83828880D02*
X105878309Y-82828880D01*
X105783071Y-82971738D01*
X105687833Y-83066976D01*
X105592595Y-83114595D01*
X107021166Y-82828880D02*
X106830690Y-82828880D01*
X106735452Y-82876500D01*
X106687833Y-82924119D01*
X106592595Y-83066976D01*
X106544976Y-83257452D01*
X106544976Y-83638404D01*
X106592595Y-83733642D01*
X106640214Y-83781261D01*
X106735452Y-83828880D01*
X106925928Y-83828880D01*
X107021166Y-83781261D01*
X107068785Y-83733642D01*
X107116404Y-83638404D01*
X107116404Y-83400309D01*
X107068785Y-83305071D01*
X107021166Y-83257452D01*
X106925928Y-83209833D01*
X106735452Y-83209833D01*
X106640214Y-83257452D01*
X106592595Y-83305071D01*
X106544976Y-83400309D01*
G04 #@! TO.C,U1*
X82613595Y-100838880D02*
X82613595Y-101648404D01*
X82661214Y-101743642D01*
X82708833Y-101791261D01*
X82804071Y-101838880D01*
X82994547Y-101838880D01*
X83089785Y-101791261D01*
X83137404Y-101743642D01*
X83185023Y-101648404D01*
X83185023Y-100838880D01*
X84185023Y-101838880D02*
X83613595Y-101838880D01*
X83899309Y-101838880D02*
X83899309Y-100838880D01*
X83804071Y-100981738D01*
X83708833Y-101076976D01*
X83613595Y-101124595D01*
G04 #@! TO.C,U2*
X95948595Y-100838880D02*
X95948595Y-101648404D01*
X95996214Y-101743642D01*
X96043833Y-101791261D01*
X96139071Y-101838880D01*
X96329547Y-101838880D01*
X96424785Y-101791261D01*
X96472404Y-101743642D01*
X96520023Y-101648404D01*
X96520023Y-100838880D01*
X96948595Y-100934119D02*
X96996214Y-100886500D01*
X97091452Y-100838880D01*
X97329547Y-100838880D01*
X97424785Y-100886500D01*
X97472404Y-100934119D01*
X97520023Y-101029357D01*
X97520023Y-101124595D01*
X97472404Y-101267452D01*
X96900976Y-101838880D01*
X97520023Y-101838880D01*
G04 #@! TO.C,D17*
X66340714Y-124532380D02*
X66340714Y-123532380D01*
X66578809Y-123532380D01*
X66721666Y-123580000D01*
X66816904Y-123675238D01*
X66864523Y-123770476D01*
X66912142Y-123960952D01*
X66912142Y-124103809D01*
X66864523Y-124294285D01*
X66816904Y-124389523D01*
X66721666Y-124484761D01*
X66578809Y-124532380D01*
X66340714Y-124532380D01*
X67864523Y-124532380D02*
X67293095Y-124532380D01*
X67578809Y-124532380D02*
X67578809Y-123532380D01*
X67483571Y-123675238D01*
X67388333Y-123770476D01*
X67293095Y-123818095D01*
X68197857Y-123532380D02*
X68864523Y-123532380D01*
X68435952Y-124532380D01*
G04 #@! TO.C,D18*
X72200714Y-124532380D02*
X72200714Y-123532380D01*
X72438809Y-123532380D01*
X72581666Y-123580000D01*
X72676904Y-123675238D01*
X72724523Y-123770476D01*
X72772142Y-123960952D01*
X72772142Y-124103809D01*
X72724523Y-124294285D01*
X72676904Y-124389523D01*
X72581666Y-124484761D01*
X72438809Y-124532380D01*
X72200714Y-124532380D01*
X73724523Y-124532380D02*
X73153095Y-124532380D01*
X73438809Y-124532380D02*
X73438809Y-123532380D01*
X73343571Y-123675238D01*
X73248333Y-123770476D01*
X73153095Y-123818095D01*
X74295952Y-123960952D02*
X74200714Y-123913333D01*
X74153095Y-123865714D01*
X74105476Y-123770476D01*
X74105476Y-123722857D01*
X74153095Y-123627619D01*
X74200714Y-123580000D01*
X74295952Y-123532380D01*
X74486428Y-123532380D01*
X74581666Y-123580000D01*
X74629285Y-123627619D01*
X74676904Y-123722857D01*
X74676904Y-123770476D01*
X74629285Y-123865714D01*
X74581666Y-123913333D01*
X74486428Y-123960952D01*
X74295952Y-123960952D01*
X74200714Y-124008571D01*
X74153095Y-124056190D01*
X74105476Y-124151428D01*
X74105476Y-124341904D01*
X74153095Y-124437142D01*
X74200714Y-124484761D01*
X74295952Y-124532380D01*
X74486428Y-124532380D01*
X74581666Y-124484761D01*
X74629285Y-124437142D01*
X74676904Y-124341904D01*
X74676904Y-124151428D01*
X74629285Y-124056190D01*
X74581666Y-124008571D01*
X74486428Y-123960952D01*
G04 #@! TO.C,D19*
X78550714Y-124532380D02*
X78550714Y-123532380D01*
X78788809Y-123532380D01*
X78931666Y-123580000D01*
X79026904Y-123675238D01*
X79074523Y-123770476D01*
X79122142Y-123960952D01*
X79122142Y-124103809D01*
X79074523Y-124294285D01*
X79026904Y-124389523D01*
X78931666Y-124484761D01*
X78788809Y-124532380D01*
X78550714Y-124532380D01*
X80074523Y-124532380D02*
X79503095Y-124532380D01*
X79788809Y-124532380D02*
X79788809Y-123532380D01*
X79693571Y-123675238D01*
X79598333Y-123770476D01*
X79503095Y-123818095D01*
X80550714Y-124532380D02*
X80741190Y-124532380D01*
X80836428Y-124484761D01*
X80884047Y-124437142D01*
X80979285Y-124294285D01*
X81026904Y-124103809D01*
X81026904Y-123722857D01*
X80979285Y-123627619D01*
X80931666Y-123580000D01*
X80836428Y-123532380D01*
X80645952Y-123532380D01*
X80550714Y-123580000D01*
X80503095Y-123627619D01*
X80455476Y-123722857D01*
X80455476Y-123960952D01*
X80503095Y-124056190D01*
X80550714Y-124103809D01*
X80645952Y-124151428D01*
X80836428Y-124151428D01*
X80931666Y-124103809D01*
X80979285Y-124056190D01*
X81026904Y-123960952D01*
G04 #@! TO.C,D20*
X85145714Y-124532380D02*
X85145714Y-123532380D01*
X85383809Y-123532380D01*
X85526666Y-123580000D01*
X85621904Y-123675238D01*
X85669523Y-123770476D01*
X85717142Y-123960952D01*
X85717142Y-124103809D01*
X85669523Y-124294285D01*
X85621904Y-124389523D01*
X85526666Y-124484761D01*
X85383809Y-124532380D01*
X85145714Y-124532380D01*
X86098095Y-123627619D02*
X86145714Y-123580000D01*
X86240952Y-123532380D01*
X86479047Y-123532380D01*
X86574285Y-123580000D01*
X86621904Y-123627619D01*
X86669523Y-123722857D01*
X86669523Y-123818095D01*
X86621904Y-123960952D01*
X86050476Y-124532380D01*
X86669523Y-124532380D01*
X87288571Y-123532380D02*
X87383809Y-123532380D01*
X87479047Y-123580000D01*
X87526666Y-123627619D01*
X87574285Y-123722857D01*
X87621904Y-123913333D01*
X87621904Y-124151428D01*
X87574285Y-124341904D01*
X87526666Y-124437142D01*
X87479047Y-124484761D01*
X87383809Y-124532380D01*
X87288571Y-124532380D01*
X87193333Y-124484761D01*
X87145714Y-124437142D01*
X87098095Y-124341904D01*
X87050476Y-124151428D01*
X87050476Y-123913333D01*
X87098095Y-123722857D01*
X87145714Y-123627619D01*
X87193333Y-123580000D01*
X87288571Y-123532380D01*
G04 #@! TO.C,D21*
X91495714Y-124532380D02*
X91495714Y-123532380D01*
X91733809Y-123532380D01*
X91876666Y-123580000D01*
X91971904Y-123675238D01*
X92019523Y-123770476D01*
X92067142Y-123960952D01*
X92067142Y-124103809D01*
X92019523Y-124294285D01*
X91971904Y-124389523D01*
X91876666Y-124484761D01*
X91733809Y-124532380D01*
X91495714Y-124532380D01*
X92448095Y-123627619D02*
X92495714Y-123580000D01*
X92590952Y-123532380D01*
X92829047Y-123532380D01*
X92924285Y-123580000D01*
X92971904Y-123627619D01*
X93019523Y-123722857D01*
X93019523Y-123818095D01*
X92971904Y-123960952D01*
X92400476Y-124532380D01*
X93019523Y-124532380D01*
X93971904Y-124532380D02*
X93400476Y-124532380D01*
X93686190Y-124532380D02*
X93686190Y-123532380D01*
X93590952Y-123675238D01*
X93495714Y-123770476D01*
X93400476Y-123818095D01*
G04 #@! TO.C,D22*
X97845714Y-124532380D02*
X97845714Y-123532380D01*
X98083809Y-123532380D01*
X98226666Y-123580000D01*
X98321904Y-123675238D01*
X98369523Y-123770476D01*
X98417142Y-123960952D01*
X98417142Y-124103809D01*
X98369523Y-124294285D01*
X98321904Y-124389523D01*
X98226666Y-124484761D01*
X98083809Y-124532380D01*
X97845714Y-124532380D01*
X98798095Y-123627619D02*
X98845714Y-123580000D01*
X98940952Y-123532380D01*
X99179047Y-123532380D01*
X99274285Y-123580000D01*
X99321904Y-123627619D01*
X99369523Y-123722857D01*
X99369523Y-123818095D01*
X99321904Y-123960952D01*
X98750476Y-124532380D01*
X99369523Y-124532380D01*
X99750476Y-123627619D02*
X99798095Y-123580000D01*
X99893333Y-123532380D01*
X100131428Y-123532380D01*
X100226666Y-123580000D01*
X100274285Y-123627619D01*
X100321904Y-123722857D01*
X100321904Y-123818095D01*
X100274285Y-123960952D01*
X99702857Y-124532380D01*
X100321904Y-124532380D01*
G04 #@! TO.C,D23*
X104195714Y-124532380D02*
X104195714Y-123532380D01*
X104433809Y-123532380D01*
X104576666Y-123580000D01*
X104671904Y-123675238D01*
X104719523Y-123770476D01*
X104767142Y-123960952D01*
X104767142Y-124103809D01*
X104719523Y-124294285D01*
X104671904Y-124389523D01*
X104576666Y-124484761D01*
X104433809Y-124532380D01*
X104195714Y-124532380D01*
X105148095Y-123627619D02*
X105195714Y-123580000D01*
X105290952Y-123532380D01*
X105529047Y-123532380D01*
X105624285Y-123580000D01*
X105671904Y-123627619D01*
X105719523Y-123722857D01*
X105719523Y-123818095D01*
X105671904Y-123960952D01*
X105100476Y-124532380D01*
X105719523Y-124532380D01*
X106052857Y-123532380D02*
X106671904Y-123532380D01*
X106338571Y-123913333D01*
X106481428Y-123913333D01*
X106576666Y-123960952D01*
X106624285Y-124008571D01*
X106671904Y-124103809D01*
X106671904Y-124341904D01*
X106624285Y-124437142D01*
X106576666Y-124484761D01*
X106481428Y-124532380D01*
X106195714Y-124532380D01*
X106100476Y-124484761D01*
X106052857Y-124437142D01*
G04 #@! TO.C,D24*
X110545714Y-124532380D02*
X110545714Y-123532380D01*
X110783809Y-123532380D01*
X110926666Y-123580000D01*
X111021904Y-123675238D01*
X111069523Y-123770476D01*
X111117142Y-123960952D01*
X111117142Y-124103809D01*
X111069523Y-124294285D01*
X111021904Y-124389523D01*
X110926666Y-124484761D01*
X110783809Y-124532380D01*
X110545714Y-124532380D01*
X111498095Y-123627619D02*
X111545714Y-123580000D01*
X111640952Y-123532380D01*
X111879047Y-123532380D01*
X111974285Y-123580000D01*
X112021904Y-123627619D01*
X112069523Y-123722857D01*
X112069523Y-123818095D01*
X112021904Y-123960952D01*
X111450476Y-124532380D01*
X112069523Y-124532380D01*
X112926666Y-123865714D02*
X112926666Y-124532380D01*
X112688571Y-123484761D02*
X112450476Y-124199047D01*
X113069523Y-124199047D01*
G04 #@! TO.C,R17*
X68142380Y-117482857D02*
X67666190Y-117816190D01*
X68142380Y-118054285D02*
X67142380Y-118054285D01*
X67142380Y-117673333D01*
X67190000Y-117578095D01*
X67237619Y-117530476D01*
X67332857Y-117482857D01*
X67475714Y-117482857D01*
X67570952Y-117530476D01*
X67618571Y-117578095D01*
X67666190Y-117673333D01*
X67666190Y-118054285D01*
X68142380Y-116530476D02*
X68142380Y-117101904D01*
X68142380Y-116816190D02*
X67142380Y-116816190D01*
X67285238Y-116911428D01*
X67380476Y-117006666D01*
X67428095Y-117101904D01*
X67142380Y-116197142D02*
X67142380Y-115530476D01*
X68142380Y-115959047D01*
G04 #@! TO.C,R18*
X71952380Y-117482857D02*
X71476190Y-117816190D01*
X71952380Y-118054285D02*
X70952380Y-118054285D01*
X70952380Y-117673333D01*
X71000000Y-117578095D01*
X71047619Y-117530476D01*
X71142857Y-117482857D01*
X71285714Y-117482857D01*
X71380952Y-117530476D01*
X71428571Y-117578095D01*
X71476190Y-117673333D01*
X71476190Y-118054285D01*
X71952380Y-116530476D02*
X71952380Y-117101904D01*
X71952380Y-116816190D02*
X70952380Y-116816190D01*
X71095238Y-116911428D01*
X71190476Y-117006666D01*
X71238095Y-117101904D01*
X71380952Y-115959047D02*
X71333333Y-116054285D01*
X71285714Y-116101904D01*
X71190476Y-116149523D01*
X71142857Y-116149523D01*
X71047619Y-116101904D01*
X71000000Y-116054285D01*
X70952380Y-115959047D01*
X70952380Y-115768571D01*
X71000000Y-115673333D01*
X71047619Y-115625714D01*
X71142857Y-115578095D01*
X71190476Y-115578095D01*
X71285714Y-115625714D01*
X71333333Y-115673333D01*
X71380952Y-115768571D01*
X71380952Y-115959047D01*
X71428571Y-116054285D01*
X71476190Y-116101904D01*
X71571428Y-116149523D01*
X71761904Y-116149523D01*
X71857142Y-116101904D01*
X71904761Y-116054285D01*
X71952380Y-115959047D01*
X71952380Y-115768571D01*
X71904761Y-115673333D01*
X71857142Y-115625714D01*
X71761904Y-115578095D01*
X71571428Y-115578095D01*
X71476190Y-115625714D01*
X71428571Y-115673333D01*
X71380952Y-115768571D01*
G04 #@! TO.C,R19*
X75762380Y-117482857D02*
X75286190Y-117816190D01*
X75762380Y-118054285D02*
X74762380Y-118054285D01*
X74762380Y-117673333D01*
X74810000Y-117578095D01*
X74857619Y-117530476D01*
X74952857Y-117482857D01*
X75095714Y-117482857D01*
X75190952Y-117530476D01*
X75238571Y-117578095D01*
X75286190Y-117673333D01*
X75286190Y-118054285D01*
X75762380Y-116530476D02*
X75762380Y-117101904D01*
X75762380Y-116816190D02*
X74762380Y-116816190D01*
X74905238Y-116911428D01*
X75000476Y-117006666D01*
X75048095Y-117101904D01*
X75762380Y-116054285D02*
X75762380Y-115863809D01*
X75714761Y-115768571D01*
X75667142Y-115720952D01*
X75524285Y-115625714D01*
X75333809Y-115578095D01*
X74952857Y-115578095D01*
X74857619Y-115625714D01*
X74810000Y-115673333D01*
X74762380Y-115768571D01*
X74762380Y-115959047D01*
X74810000Y-116054285D01*
X74857619Y-116101904D01*
X74952857Y-116149523D01*
X75190952Y-116149523D01*
X75286190Y-116101904D01*
X75333809Y-116054285D01*
X75381428Y-115959047D01*
X75381428Y-115768571D01*
X75333809Y-115673333D01*
X75286190Y-115625714D01*
X75190952Y-115578095D01*
G04 #@! TO.C,R20*
X79572380Y-117482857D02*
X79096190Y-117816190D01*
X79572380Y-118054285D02*
X78572380Y-118054285D01*
X78572380Y-117673333D01*
X78620000Y-117578095D01*
X78667619Y-117530476D01*
X78762857Y-117482857D01*
X78905714Y-117482857D01*
X79000952Y-117530476D01*
X79048571Y-117578095D01*
X79096190Y-117673333D01*
X79096190Y-118054285D01*
X78667619Y-117101904D02*
X78620000Y-117054285D01*
X78572380Y-116959047D01*
X78572380Y-116720952D01*
X78620000Y-116625714D01*
X78667619Y-116578095D01*
X78762857Y-116530476D01*
X78858095Y-116530476D01*
X79000952Y-116578095D01*
X79572380Y-117149523D01*
X79572380Y-116530476D01*
X78572380Y-115911428D02*
X78572380Y-115816190D01*
X78620000Y-115720952D01*
X78667619Y-115673333D01*
X78762857Y-115625714D01*
X78953333Y-115578095D01*
X79191428Y-115578095D01*
X79381904Y-115625714D01*
X79477142Y-115673333D01*
X79524761Y-115720952D01*
X79572380Y-115816190D01*
X79572380Y-115911428D01*
X79524761Y-116006666D01*
X79477142Y-116054285D01*
X79381904Y-116101904D01*
X79191428Y-116149523D01*
X78953333Y-116149523D01*
X78762857Y-116101904D01*
X78667619Y-116054285D01*
X78620000Y-116006666D01*
X78572380Y-115911428D01*
G04 #@! TO.C,R21*
X101162380Y-117727857D02*
X100686190Y-118061190D01*
X101162380Y-118299285D02*
X100162380Y-118299285D01*
X100162380Y-117918333D01*
X100210000Y-117823095D01*
X100257619Y-117775476D01*
X100352857Y-117727857D01*
X100495714Y-117727857D01*
X100590952Y-117775476D01*
X100638571Y-117823095D01*
X100686190Y-117918333D01*
X100686190Y-118299285D01*
X100257619Y-117346904D02*
X100210000Y-117299285D01*
X100162380Y-117204047D01*
X100162380Y-116965952D01*
X100210000Y-116870714D01*
X100257619Y-116823095D01*
X100352857Y-116775476D01*
X100448095Y-116775476D01*
X100590952Y-116823095D01*
X101162380Y-117394523D01*
X101162380Y-116775476D01*
X101162380Y-115823095D02*
X101162380Y-116394523D01*
X101162380Y-116108809D02*
X100162380Y-116108809D01*
X100305238Y-116204047D01*
X100400476Y-116299285D01*
X100448095Y-116394523D01*
G04 #@! TO.C,R22*
X104972380Y-117727857D02*
X104496190Y-118061190D01*
X104972380Y-118299285D02*
X103972380Y-118299285D01*
X103972380Y-117918333D01*
X104020000Y-117823095D01*
X104067619Y-117775476D01*
X104162857Y-117727857D01*
X104305714Y-117727857D01*
X104400952Y-117775476D01*
X104448571Y-117823095D01*
X104496190Y-117918333D01*
X104496190Y-118299285D01*
X104067619Y-117346904D02*
X104020000Y-117299285D01*
X103972380Y-117204047D01*
X103972380Y-116965952D01*
X104020000Y-116870714D01*
X104067619Y-116823095D01*
X104162857Y-116775476D01*
X104258095Y-116775476D01*
X104400952Y-116823095D01*
X104972380Y-117394523D01*
X104972380Y-116775476D01*
X104067619Y-116394523D02*
X104020000Y-116346904D01*
X103972380Y-116251666D01*
X103972380Y-116013571D01*
X104020000Y-115918333D01*
X104067619Y-115870714D01*
X104162857Y-115823095D01*
X104258095Y-115823095D01*
X104400952Y-115870714D01*
X104972380Y-116442142D01*
X104972380Y-115823095D01*
G04 #@! TO.C,R23*
X108782380Y-117482857D02*
X108306190Y-117816190D01*
X108782380Y-118054285D02*
X107782380Y-118054285D01*
X107782380Y-117673333D01*
X107830000Y-117578095D01*
X107877619Y-117530476D01*
X107972857Y-117482857D01*
X108115714Y-117482857D01*
X108210952Y-117530476D01*
X108258571Y-117578095D01*
X108306190Y-117673333D01*
X108306190Y-118054285D01*
X107877619Y-117101904D02*
X107830000Y-117054285D01*
X107782380Y-116959047D01*
X107782380Y-116720952D01*
X107830000Y-116625714D01*
X107877619Y-116578095D01*
X107972857Y-116530476D01*
X108068095Y-116530476D01*
X108210952Y-116578095D01*
X108782380Y-117149523D01*
X108782380Y-116530476D01*
X107782380Y-116197142D02*
X107782380Y-115578095D01*
X108163333Y-115911428D01*
X108163333Y-115768571D01*
X108210952Y-115673333D01*
X108258571Y-115625714D01*
X108353809Y-115578095D01*
X108591904Y-115578095D01*
X108687142Y-115625714D01*
X108734761Y-115673333D01*
X108782380Y-115768571D01*
X108782380Y-116054285D01*
X108734761Y-116149523D01*
X108687142Y-116197142D01*
G04 #@! TO.C,R24*
X112592380Y-117482857D02*
X112116190Y-117816190D01*
X112592380Y-118054285D02*
X111592380Y-118054285D01*
X111592380Y-117673333D01*
X111640000Y-117578095D01*
X111687619Y-117530476D01*
X111782857Y-117482857D01*
X111925714Y-117482857D01*
X112020952Y-117530476D01*
X112068571Y-117578095D01*
X112116190Y-117673333D01*
X112116190Y-118054285D01*
X111687619Y-117101904D02*
X111640000Y-117054285D01*
X111592380Y-116959047D01*
X111592380Y-116720952D01*
X111640000Y-116625714D01*
X111687619Y-116578095D01*
X111782857Y-116530476D01*
X111878095Y-116530476D01*
X112020952Y-116578095D01*
X112592380Y-117149523D01*
X112592380Y-116530476D01*
X111925714Y-115673333D02*
X112592380Y-115673333D01*
X111544761Y-115911428D02*
X112259047Y-116149523D01*
X112259047Y-115530476D01*
G04 #@! TO.C,U3*
X81788095Y-115784380D02*
X81788095Y-116593904D01*
X81835714Y-116689142D01*
X81883333Y-116736761D01*
X81978571Y-116784380D01*
X82169047Y-116784380D01*
X82264285Y-116736761D01*
X82311904Y-116689142D01*
X82359523Y-116593904D01*
X82359523Y-115784380D01*
X82740476Y-115784380D02*
X83359523Y-115784380D01*
X83026190Y-116165333D01*
X83169047Y-116165333D01*
X83264285Y-116212952D01*
X83311904Y-116260571D01*
X83359523Y-116355809D01*
X83359523Y-116593904D01*
X83311904Y-116689142D01*
X83264285Y-116736761D01*
X83169047Y-116784380D01*
X82883333Y-116784380D01*
X82788095Y-116736761D01*
X82740476Y-116689142D01*
G04 #@! TD*
M02*
