M48
;DRILL file {KiCad (5.0.1-3-g963ef8bb5)} date 2018 December 19, Wednesday 16:23:07
;FORMAT={-:-/ absolute / inch / decimal}
FMAT,2
INCH,TZ
T1C0.0118
T2C0.0157
T3C0.0394
%
G90
G05
M72
T1
X3.0216Y-3.925
X3.1Y-3.9325
X3.485Y-3.5023
X3.7Y-4.65
X3.8525Y-3.5725
T2
X2.625Y-4.875
X2.7425Y-3.8075
X2.745Y-3.415
X2.745Y-3.415
X2.745Y-3.54
X2.745Y-3.93
X2.7475Y-3.67
X2.7575Y-4.0575
X2.7575Y-4.1875
X2.8202Y-4.8798
X3.0475Y-3.7442
X3.075Y-4.9
X3.2Y-4.65
X3.2075Y-3.3375
X3.275Y-4.725
X3.3225Y-3.4825
X3.3279Y-4.7971
X3.34Y-3.62
X3.3425Y-3.67
X3.345Y-3.725
X3.345Y-3.8275
X3.345Y-3.88
X3.345Y-3.93
X3.3477Y-3.7727
X3.45Y-4.375
X3.55Y-3.8
X3.55Y-4.375
X3.5977Y-4.3773
X3.6Y-3.725
X3.6225Y-3.8225
X3.625Y-3.6
X3.6835Y-3.8723
X3.725Y-4.85
X3.7509Y-3.9741
X3.775Y-4.8
X3.7884Y-4.0116
X3.8375Y-4.7625
X3.85Y-4.875
X3.9275Y-3.9275
X3.9315Y-3.6227
X3.9315Y-3.6723
X3.9315Y-3.7727
X3.935Y-3.7225
X3.935Y-3.8225
X3.9473Y-3.8752
X4.1Y-4.85
X4.3Y-4.9
X4.32Y-4.34
X4.4Y-4.1925
X4.4Y-4.1925
X4.4025Y-3.41
X4.4075Y-3.545
X4.4075Y-3.805
X4.4075Y-4.06
X4.4125Y-3.9275
X4.4125Y-3.9275
X4.4175Y-3.675
T3
X3.31Y-3.33
X3.41Y-3.33
X3.51Y-3.33
X3.61Y-3.33
X3.71Y-3.33
T0
M30
