G04 #@! TF.GenerationSoftware,KiCad,Pcbnew,(5.0.1-3-g963ef8bb5)*
G04 #@! TF.CreationDate,2018-11-22T11:29:30+08:00*
G04 #@! TF.ProjectId,nRF24-breakout,6E524632342D627265616B6F75742E6B,1.0*
G04 #@! TF.SameCoordinates,Original*
G04 #@! TF.FileFunction,Legend,Bot*
G04 #@! TF.FilePolarity,Positive*
%FSLAX46Y46*%
G04 Gerber Fmt 4.6, Leading zero omitted, Abs format (unit mm)*
G04 Created by KiCad (PCBNEW (5.0.1-3-g963ef8bb5)) date 2018 November 22, Thursday 11:29:30*
%MOMM*%
%LPD*%
G01*
G04 APERTURE LIST*
%ADD10C,0.300000*%
G04 APERTURE END LIST*
D10*
X156872142Y-98468571D02*
X156872142Y-96968571D01*
X156015000Y-98468571D01*
X156015000Y-96968571D01*
X155086428Y-98468571D02*
X155229285Y-98397142D01*
X155300714Y-98325714D01*
X155372142Y-98182857D01*
X155372142Y-97754285D01*
X155300714Y-97611428D01*
X155229285Y-97540000D01*
X155086428Y-97468571D01*
X154872142Y-97468571D01*
X154729285Y-97540000D01*
X154657857Y-97611428D01*
X154586428Y-97754285D01*
X154586428Y-98182857D01*
X154657857Y-98325714D01*
X154729285Y-98397142D01*
X154872142Y-98468571D01*
X155086428Y-98468571D01*
X154086428Y-97468571D02*
X153729285Y-98468571D01*
X153372142Y-97468571D01*
X151729285Y-97111428D02*
X151657857Y-97040000D01*
X151515000Y-96968571D01*
X151157857Y-96968571D01*
X151015000Y-97040000D01*
X150943571Y-97111428D01*
X150872142Y-97254285D01*
X150872142Y-97397142D01*
X150943571Y-97611428D01*
X151800714Y-98468571D01*
X150872142Y-98468571D01*
X149943571Y-96968571D02*
X149800714Y-96968571D01*
X149657857Y-97040000D01*
X149586428Y-97111428D01*
X149515000Y-97254285D01*
X149443571Y-97540000D01*
X149443571Y-97897142D01*
X149515000Y-98182857D01*
X149586428Y-98325714D01*
X149657857Y-98397142D01*
X149800714Y-98468571D01*
X149943571Y-98468571D01*
X150086428Y-98397142D01*
X150157857Y-98325714D01*
X150229285Y-98182857D01*
X150300714Y-97897142D01*
X150300714Y-97540000D01*
X150229285Y-97254285D01*
X150157857Y-97111428D01*
X150086428Y-97040000D01*
X149943571Y-96968571D01*
X148015000Y-98468571D02*
X148872142Y-98468571D01*
X148443571Y-98468571D02*
X148443571Y-96968571D01*
X148586428Y-97182857D01*
X148729285Y-97325714D01*
X148872142Y-97397142D01*
X147157857Y-97611428D02*
X147300714Y-97540000D01*
X147372142Y-97468571D01*
X147443571Y-97325714D01*
X147443571Y-97254285D01*
X147372142Y-97111428D01*
X147300714Y-97040000D01*
X147157857Y-96968571D01*
X146872142Y-96968571D01*
X146729285Y-97040000D01*
X146657857Y-97111428D01*
X146586428Y-97254285D01*
X146586428Y-97325714D01*
X146657857Y-97468571D01*
X146729285Y-97540000D01*
X146872142Y-97611428D01*
X147157857Y-97611428D01*
X147300714Y-97682857D01*
X147372142Y-97754285D01*
X147443571Y-97897142D01*
X147443571Y-98182857D01*
X147372142Y-98325714D01*
X147300714Y-98397142D01*
X147157857Y-98468571D01*
X146872142Y-98468571D01*
X146729285Y-98397142D01*
X146657857Y-98325714D01*
X146586428Y-98182857D01*
X146586428Y-97897142D01*
X146657857Y-97754285D01*
X146729285Y-97682857D01*
X146872142Y-97611428D01*
M02*
