G04 #@! TF.GenerationSoftware,KiCad,Pcbnew,(5.0.1-3-g963ef8bb5)*
G04 #@! TF.CreationDate,2018-11-22T11:29:30+08:00*
G04 #@! TF.ProjectId,nRF24-breakout,6E524632342D627265616B6F75742E6B,1.0*
G04 #@! TF.SameCoordinates,Original*
G04 #@! TF.FileFunction,Legend,Top*
G04 #@! TF.FilePolarity,Positive*
%FSLAX46Y46*%
G04 Gerber Fmt 4.6, Leading zero omitted, Abs format (unit mm)*
G04 Created by KiCad (PCBNEW (5.0.1-3-g963ef8bb5)) date 2018 November 22, Thursday 11:29:30*
%MOMM*%
%LPD*%
G01*
G04 APERTURE LIST*
%ADD10C,0.175000*%
%ADD11C,0.300000*%
%ADD12C,0.200000*%
%ADD13C,0.120000*%
%ADD14C,0.150000*%
%ADD15C,0.125000*%
G04 APERTURE END LIST*
D10*
X146128333Y-88570833D02*
X146228333Y-88604166D01*
X146395000Y-88604166D01*
X146461666Y-88570833D01*
X146495000Y-88537500D01*
X146528333Y-88470833D01*
X146528333Y-88404166D01*
X146495000Y-88337500D01*
X146461666Y-88304166D01*
X146395000Y-88270833D01*
X146261666Y-88237500D01*
X146195000Y-88204166D01*
X146161666Y-88170833D01*
X146128333Y-88104166D01*
X146128333Y-88037500D01*
X146161666Y-87970833D01*
X146195000Y-87937500D01*
X146261666Y-87904166D01*
X146428333Y-87904166D01*
X146528333Y-87937500D01*
X147128333Y-88604166D02*
X147128333Y-88237500D01*
X147095000Y-88170833D01*
X147028333Y-88137500D01*
X146895000Y-88137500D01*
X146828333Y-88170833D01*
X147128333Y-88570833D02*
X147061666Y-88604166D01*
X146895000Y-88604166D01*
X146828333Y-88570833D01*
X146795000Y-88504166D01*
X146795000Y-88437500D01*
X146828333Y-88370833D01*
X146895000Y-88337500D01*
X147061666Y-88337500D01*
X147128333Y-88304166D01*
X147395000Y-88137500D02*
X147561666Y-88604166D01*
X147728333Y-88137500D02*
X147561666Y-88604166D01*
X147495000Y-88770833D01*
X147461666Y-88804166D01*
X147395000Y-88837500D01*
X148295000Y-88604166D02*
X148295000Y-88237500D01*
X148261666Y-88170833D01*
X148195000Y-88137500D01*
X148061666Y-88137500D01*
X147995000Y-88170833D01*
X148295000Y-88570833D02*
X148228333Y-88604166D01*
X148061666Y-88604166D01*
X147995000Y-88570833D01*
X147961666Y-88504166D01*
X147961666Y-88437500D01*
X147995000Y-88370833D01*
X148061666Y-88337500D01*
X148228333Y-88337500D01*
X148295000Y-88304166D01*
X148628333Y-88137500D02*
X148628333Y-88604166D01*
X148628333Y-88204166D02*
X148661666Y-88170833D01*
X148728333Y-88137500D01*
X148828333Y-88137500D01*
X148895000Y-88170833D01*
X148928333Y-88237500D01*
X148928333Y-88604166D01*
X149528333Y-88570833D02*
X149461666Y-88604166D01*
X149328333Y-88604166D01*
X149261666Y-88570833D01*
X149228333Y-88504166D01*
X149228333Y-88237500D01*
X149261666Y-88170833D01*
X149328333Y-88137500D01*
X149461666Y-88137500D01*
X149528333Y-88170833D01*
X149561666Y-88237500D01*
X149561666Y-88304166D01*
X149228333Y-88370833D01*
X150128333Y-88570833D02*
X150061666Y-88604166D01*
X149928333Y-88604166D01*
X149861666Y-88570833D01*
X149828333Y-88504166D01*
X149828333Y-88237500D01*
X149861666Y-88170833D01*
X149928333Y-88137500D01*
X150061666Y-88137500D01*
X150128333Y-88170833D01*
X150161666Y-88237500D01*
X150161666Y-88304166D01*
X149828333Y-88370833D01*
X150495000Y-87904166D02*
X150495000Y-87937500D01*
X150461666Y-88004166D01*
X150428333Y-88037500D01*
X150761666Y-88570833D02*
X150828333Y-88604166D01*
X150961666Y-88604166D01*
X151028333Y-88570833D01*
X151061666Y-88504166D01*
X151061666Y-88470833D01*
X151028333Y-88404166D01*
X150961666Y-88370833D01*
X150861666Y-88370833D01*
X150795000Y-88337500D01*
X150761666Y-88270833D01*
X150761666Y-88237500D01*
X150795000Y-88170833D01*
X150861666Y-88137500D01*
X150961666Y-88137500D01*
X151028333Y-88170833D01*
X151895000Y-88137500D02*
X151895000Y-88604166D01*
X151895000Y-88204166D02*
X151928333Y-88170833D01*
X151995000Y-88137500D01*
X152095000Y-88137500D01*
X152161666Y-88170833D01*
X152195000Y-88237500D01*
X152195000Y-88604166D01*
X152928333Y-88604166D02*
X152695000Y-88270833D01*
X152528333Y-88604166D02*
X152528333Y-87904166D01*
X152795000Y-87904166D01*
X152861666Y-87937500D01*
X152895000Y-87970833D01*
X152928333Y-88037500D01*
X152928333Y-88137500D01*
X152895000Y-88204166D01*
X152861666Y-88237500D01*
X152795000Y-88270833D01*
X152528333Y-88270833D01*
X153461666Y-88237500D02*
X153228333Y-88237500D01*
X153228333Y-88604166D02*
X153228333Y-87904166D01*
X153561666Y-87904166D01*
X153795000Y-87970833D02*
X153828333Y-87937500D01*
X153895000Y-87904166D01*
X154061666Y-87904166D01*
X154128333Y-87937500D01*
X154161666Y-87970833D01*
X154195000Y-88037500D01*
X154195000Y-88104166D01*
X154161666Y-88204166D01*
X153761666Y-88604166D01*
X154195000Y-88604166D01*
X154795000Y-88137500D02*
X154795000Y-88604166D01*
X154628333Y-87870833D02*
X154461666Y-88370833D01*
X154895000Y-88370833D01*
X146645000Y-89829166D02*
X146645000Y-89129166D01*
X146645000Y-89395833D02*
X146711666Y-89362500D01*
X146845000Y-89362500D01*
X146911666Y-89395833D01*
X146945000Y-89429166D01*
X146978333Y-89495833D01*
X146978333Y-89695833D01*
X146945000Y-89762500D01*
X146911666Y-89795833D01*
X146845000Y-89829166D01*
X146711666Y-89829166D01*
X146645000Y-89795833D01*
X147278333Y-89829166D02*
X147278333Y-89362500D01*
X147278333Y-89495833D02*
X147311666Y-89429166D01*
X147345000Y-89395833D01*
X147411666Y-89362500D01*
X147478333Y-89362500D01*
X147978333Y-89795833D02*
X147911666Y-89829166D01*
X147778333Y-89829166D01*
X147711666Y-89795833D01*
X147678333Y-89729166D01*
X147678333Y-89462500D01*
X147711666Y-89395833D01*
X147778333Y-89362500D01*
X147911666Y-89362500D01*
X147978333Y-89395833D01*
X148011666Y-89462500D01*
X148011666Y-89529166D01*
X147678333Y-89595833D01*
X148611666Y-89829166D02*
X148611666Y-89462500D01*
X148578333Y-89395833D01*
X148511666Y-89362500D01*
X148378333Y-89362500D01*
X148311666Y-89395833D01*
X148611666Y-89795833D02*
X148545000Y-89829166D01*
X148378333Y-89829166D01*
X148311666Y-89795833D01*
X148278333Y-89729166D01*
X148278333Y-89662500D01*
X148311666Y-89595833D01*
X148378333Y-89562500D01*
X148545000Y-89562500D01*
X148611666Y-89529166D01*
X148945000Y-89829166D02*
X148945000Y-89129166D01*
X149011666Y-89562500D02*
X149211666Y-89829166D01*
X149211666Y-89362500D02*
X148945000Y-89629166D01*
X149611666Y-89829166D02*
X149545000Y-89795833D01*
X149511666Y-89762500D01*
X149478333Y-89695833D01*
X149478333Y-89495833D01*
X149511666Y-89429166D01*
X149545000Y-89395833D01*
X149611666Y-89362500D01*
X149711666Y-89362500D01*
X149778333Y-89395833D01*
X149811666Y-89429166D01*
X149845000Y-89495833D01*
X149845000Y-89695833D01*
X149811666Y-89762500D01*
X149778333Y-89795833D01*
X149711666Y-89829166D01*
X149611666Y-89829166D01*
X150445000Y-89362500D02*
X150445000Y-89829166D01*
X150145000Y-89362500D02*
X150145000Y-89729166D01*
X150178333Y-89795833D01*
X150245000Y-89829166D01*
X150345000Y-89829166D01*
X150411666Y-89795833D01*
X150445000Y-89762500D01*
X150678333Y-89362500D02*
X150945000Y-89362500D01*
X150778333Y-89129166D02*
X150778333Y-89729166D01*
X150811666Y-89795833D01*
X150878333Y-89829166D01*
X150945000Y-89829166D01*
X151711666Y-89829166D02*
X151711666Y-89129166D01*
X151711666Y-89395833D02*
X151778333Y-89362500D01*
X151911666Y-89362500D01*
X151978333Y-89395833D01*
X152011666Y-89429166D01*
X152045000Y-89495833D01*
X152045000Y-89695833D01*
X152011666Y-89762500D01*
X151978333Y-89795833D01*
X151911666Y-89829166D01*
X151778333Y-89829166D01*
X151711666Y-89795833D01*
X152445000Y-89829166D02*
X152378333Y-89795833D01*
X152345000Y-89762500D01*
X152311666Y-89695833D01*
X152311666Y-89495833D01*
X152345000Y-89429166D01*
X152378333Y-89395833D01*
X152445000Y-89362500D01*
X152545000Y-89362500D01*
X152611666Y-89395833D01*
X152645000Y-89429166D01*
X152678333Y-89495833D01*
X152678333Y-89695833D01*
X152645000Y-89762500D01*
X152611666Y-89795833D01*
X152545000Y-89829166D01*
X152445000Y-89829166D01*
X153278333Y-89829166D02*
X153278333Y-89462500D01*
X153245000Y-89395833D01*
X153178333Y-89362500D01*
X153045000Y-89362500D01*
X152978333Y-89395833D01*
X153278333Y-89795833D02*
X153211666Y-89829166D01*
X153045000Y-89829166D01*
X152978333Y-89795833D01*
X152945000Y-89729166D01*
X152945000Y-89662500D01*
X152978333Y-89595833D01*
X153045000Y-89562500D01*
X153211666Y-89562500D01*
X153278333Y-89529166D01*
X153611666Y-89829166D02*
X153611666Y-89362500D01*
X153611666Y-89495833D02*
X153645000Y-89429166D01*
X153678333Y-89395833D01*
X153745000Y-89362500D01*
X153811666Y-89362500D01*
X154345000Y-89829166D02*
X154345000Y-89129166D01*
X154345000Y-89795833D02*
X154278333Y-89829166D01*
X154145000Y-89829166D01*
X154078333Y-89795833D01*
X154045000Y-89762500D01*
X154011666Y-89695833D01*
X154011666Y-89495833D01*
X154045000Y-89429166D01*
X154078333Y-89395833D01*
X154145000Y-89362500D01*
X154278333Y-89362500D01*
X154345000Y-89395833D01*
D11*
X145669285Y-106493571D02*
X146169285Y-107993571D01*
X146669285Y-106493571D01*
X147955000Y-107993571D02*
X147097857Y-107993571D01*
X147526428Y-107993571D02*
X147526428Y-106493571D01*
X147383571Y-106707857D01*
X147240714Y-106850714D01*
X147097857Y-106922142D01*
X148597857Y-107850714D02*
X148669285Y-107922142D01*
X148597857Y-107993571D01*
X148526428Y-107922142D01*
X148597857Y-107850714D01*
X148597857Y-107993571D01*
X150097857Y-107993571D02*
X149240714Y-107993571D01*
X149669285Y-107993571D02*
X149669285Y-106493571D01*
X149526428Y-106707857D01*
X149383571Y-106850714D01*
X149240714Y-106922142D01*
D12*
X166395476Y-88500000D02*
X166319285Y-88461904D01*
X166205000Y-88461904D01*
X166090714Y-88500000D01*
X166014523Y-88576190D01*
X165976428Y-88652380D01*
X165938333Y-88804761D01*
X165938333Y-88919047D01*
X165976428Y-89071428D01*
X166014523Y-89147619D01*
X166090714Y-89223809D01*
X166205000Y-89261904D01*
X166281190Y-89261904D01*
X166395476Y-89223809D01*
X166433571Y-89185714D01*
X166433571Y-88919047D01*
X166281190Y-88919047D01*
X166776428Y-89261904D02*
X166776428Y-88461904D01*
X167233571Y-89261904D01*
X167233571Y-88461904D01*
X167614523Y-89261904D02*
X167614523Y-88461904D01*
X167805000Y-88461904D01*
X167919285Y-88500000D01*
X167995476Y-88576190D01*
X168033571Y-88652380D01*
X168071666Y-88804761D01*
X168071666Y-88919047D01*
X168033571Y-89071428D01*
X167995476Y-89147619D01*
X167919285Y-89223809D01*
X167805000Y-89261904D01*
X167614523Y-89261904D01*
X166890714Y-91725714D02*
X166852619Y-91763809D01*
X166738333Y-91801904D01*
X166662142Y-91801904D01*
X166547857Y-91763809D01*
X166471666Y-91687619D01*
X166433571Y-91611428D01*
X166395476Y-91459047D01*
X166395476Y-91344761D01*
X166433571Y-91192380D01*
X166471666Y-91116190D01*
X166547857Y-91040000D01*
X166662142Y-91001904D01*
X166738333Y-91001904D01*
X166852619Y-91040000D01*
X166890714Y-91078095D01*
X167233571Y-91382857D02*
X167500238Y-91382857D01*
X167614523Y-91801904D02*
X167233571Y-91801904D01*
X167233571Y-91001904D01*
X167614523Y-91001904D01*
X165976428Y-94303809D02*
X166090714Y-94341904D01*
X166281190Y-94341904D01*
X166357380Y-94303809D01*
X166395476Y-94265714D01*
X166433571Y-94189523D01*
X166433571Y-94113333D01*
X166395476Y-94037142D01*
X166357380Y-93999047D01*
X166281190Y-93960952D01*
X166128809Y-93922857D01*
X166052619Y-93884761D01*
X166014523Y-93846666D01*
X165976428Y-93770476D01*
X165976428Y-93694285D01*
X166014523Y-93618095D01*
X166052619Y-93580000D01*
X166128809Y-93541904D01*
X166319285Y-93541904D01*
X166433571Y-93580000D01*
X167233571Y-94265714D02*
X167195476Y-94303809D01*
X167081190Y-94341904D01*
X167005000Y-94341904D01*
X166890714Y-94303809D01*
X166814523Y-94227619D01*
X166776428Y-94151428D01*
X166738333Y-93999047D01*
X166738333Y-93884761D01*
X166776428Y-93732380D01*
X166814523Y-93656190D01*
X166890714Y-93580000D01*
X167005000Y-93541904D01*
X167081190Y-93541904D01*
X167195476Y-93580000D01*
X167233571Y-93618095D01*
X167576428Y-94341904D02*
X167576428Y-93541904D01*
X168033571Y-94341904D02*
X167690714Y-93884761D01*
X168033571Y-93541904D02*
X167576428Y-93999047D01*
X165747857Y-96881904D02*
X165747857Y-96081904D01*
X166014523Y-96653333D01*
X166281190Y-96081904D01*
X166281190Y-96881904D01*
X166662142Y-96881904D02*
X166662142Y-96081904D01*
X167005000Y-96843809D02*
X167119285Y-96881904D01*
X167309761Y-96881904D01*
X167385952Y-96843809D01*
X167424047Y-96805714D01*
X167462142Y-96729523D01*
X167462142Y-96653333D01*
X167424047Y-96577142D01*
X167385952Y-96539047D01*
X167309761Y-96500952D01*
X167157380Y-96462857D01*
X167081190Y-96424761D01*
X167043095Y-96386666D01*
X167005000Y-96310476D01*
X167005000Y-96234285D01*
X167043095Y-96158095D01*
X167081190Y-96120000D01*
X167157380Y-96081904D01*
X167347857Y-96081904D01*
X167462142Y-96120000D01*
X167957380Y-96081904D02*
X168109761Y-96081904D01*
X168185952Y-96120000D01*
X168262142Y-96196190D01*
X168300238Y-96348571D01*
X168300238Y-96615238D01*
X168262142Y-96767619D01*
X168185952Y-96843809D01*
X168109761Y-96881904D01*
X167957380Y-96881904D01*
X167881190Y-96843809D01*
X167805000Y-96767619D01*
X167766904Y-96615238D01*
X167766904Y-96348571D01*
X167805000Y-96196190D01*
X167881190Y-96120000D01*
X167957380Y-96081904D01*
X166185952Y-99421904D02*
X166185952Y-98621904D01*
X167024047Y-99421904D02*
X166757380Y-99040952D01*
X166566904Y-99421904D02*
X166566904Y-98621904D01*
X166871666Y-98621904D01*
X166947857Y-98660000D01*
X166985952Y-98698095D01*
X167024047Y-98774285D01*
X167024047Y-98888571D01*
X166985952Y-98964761D01*
X166947857Y-99002857D01*
X166871666Y-99040952D01*
X166566904Y-99040952D01*
X167900238Y-99498095D02*
X167824047Y-99460000D01*
X167747857Y-99383809D01*
X167633571Y-99269523D01*
X167557380Y-99231428D01*
X167481190Y-99231428D01*
X167519285Y-99421904D02*
X167443095Y-99383809D01*
X167366904Y-99307619D01*
X167328809Y-99155238D01*
X167328809Y-98888571D01*
X167366904Y-98736190D01*
X167443095Y-98660000D01*
X167519285Y-98621904D01*
X167671666Y-98621904D01*
X167747857Y-98660000D01*
X167824047Y-98736190D01*
X167862142Y-98888571D01*
X167862142Y-99155238D01*
X167824047Y-99307619D01*
X167747857Y-99383809D01*
X167671666Y-99421904D01*
X167519285Y-99421904D01*
X165747857Y-101961904D02*
X165747857Y-101161904D01*
X166014523Y-101733333D01*
X166281190Y-101161904D01*
X166281190Y-101961904D01*
X166814523Y-101161904D02*
X166966904Y-101161904D01*
X167043095Y-101200000D01*
X167119285Y-101276190D01*
X167157380Y-101428571D01*
X167157380Y-101695238D01*
X167119285Y-101847619D01*
X167043095Y-101923809D01*
X166966904Y-101961904D01*
X166814523Y-101961904D01*
X166738333Y-101923809D01*
X166662142Y-101847619D01*
X166624047Y-101695238D01*
X166624047Y-101428571D01*
X166662142Y-101276190D01*
X166738333Y-101200000D01*
X166814523Y-101161904D01*
X167462142Y-101923809D02*
X167576428Y-101961904D01*
X167766904Y-101961904D01*
X167843095Y-101923809D01*
X167881190Y-101885714D01*
X167919285Y-101809523D01*
X167919285Y-101733333D01*
X167881190Y-101657142D01*
X167843095Y-101619047D01*
X167766904Y-101580952D01*
X167614523Y-101542857D01*
X167538333Y-101504761D01*
X167500238Y-101466666D01*
X167462142Y-101390476D01*
X167462142Y-101314285D01*
X167500238Y-101238095D01*
X167538333Y-101200000D01*
X167614523Y-101161904D01*
X167805000Y-101161904D01*
X167919285Y-101200000D01*
X168262142Y-101961904D02*
X168262142Y-101161904D01*
X166052619Y-103701904D02*
X166319285Y-104501904D01*
X166585952Y-103701904D01*
X167195476Y-104463809D02*
X167119285Y-104501904D01*
X166966904Y-104501904D01*
X166890714Y-104463809D01*
X166852619Y-104425714D01*
X166814523Y-104349523D01*
X166814523Y-104120952D01*
X166852619Y-104044761D01*
X166890714Y-104006666D01*
X166966904Y-103968571D01*
X167119285Y-103968571D01*
X167195476Y-104006666D01*
X167881190Y-104463809D02*
X167805000Y-104501904D01*
X167652619Y-104501904D01*
X167576428Y-104463809D01*
X167538333Y-104425714D01*
X167500238Y-104349523D01*
X167500238Y-104120952D01*
X167538333Y-104044761D01*
X167576428Y-104006666D01*
X167652619Y-103968571D01*
X167805000Y-103968571D01*
X167881190Y-104006666D01*
X166052619Y-106241904D02*
X166319285Y-107041904D01*
X166585952Y-106241904D01*
X167195476Y-107003809D02*
X167119285Y-107041904D01*
X166966904Y-107041904D01*
X166890714Y-107003809D01*
X166852619Y-106965714D01*
X166814523Y-106889523D01*
X166814523Y-106660952D01*
X166852619Y-106584761D01*
X166890714Y-106546666D01*
X166966904Y-106508571D01*
X167119285Y-106508571D01*
X167195476Y-106546666D01*
X167881190Y-107003809D02*
X167805000Y-107041904D01*
X167652619Y-107041904D01*
X167576428Y-107003809D01*
X167538333Y-106965714D01*
X167500238Y-106889523D01*
X167500238Y-106660952D01*
X167538333Y-106584761D01*
X167576428Y-106546666D01*
X167652619Y-106508571D01*
X167805000Y-106508571D01*
X167881190Y-106546666D01*
D13*
G04 #@! TO.C,J1*
X168850000Y-108010000D02*
X171510000Y-108010000D01*
X168850000Y-90170000D02*
X168850000Y-108010000D01*
X171510000Y-90170000D02*
X171510000Y-108010000D01*
X168850000Y-90170000D02*
X171510000Y-90170000D01*
X168850000Y-88900000D02*
X168850000Y-87570000D01*
X168850000Y-87570000D02*
X170180000Y-87570000D01*
D14*
G04 #@! TO.C,U1*
X165015001Y-101675001D02*
X165015001Y-91515001D01*
X145965001Y-91515001D02*
X145965001Y-101675001D01*
X165015001Y-101675001D02*
X165015001Y-91515001D01*
X165015001Y-91515001D02*
X145965001Y-91515001D01*
X145965001Y-101675001D02*
X165015001Y-101675001D01*
D13*
G04 #@! TO.C,C1*
X162560000Y-109855000D02*
G75*
G03X162560000Y-109855000I-5120000J0D01*
G01*
X157440000Y-104775000D02*
X157440000Y-114935000D01*
X157480000Y-104775000D02*
X157480000Y-114935000D01*
X157520000Y-104775000D02*
X157520000Y-114935000D01*
X157560000Y-104776000D02*
X157560000Y-114934000D01*
X157600000Y-104777000D02*
X157600000Y-114933000D01*
X157640000Y-104778000D02*
X157640000Y-114932000D01*
X157680000Y-104780000D02*
X157680000Y-114930000D01*
X157720000Y-104782000D02*
X157720000Y-114928000D01*
X157760000Y-104785000D02*
X157760000Y-114925000D01*
X157800000Y-104787000D02*
X157800000Y-114923000D01*
X157840000Y-104790000D02*
X157840000Y-114920000D01*
X157880000Y-104793000D02*
X157880000Y-114917000D01*
X157920000Y-104797000D02*
X157920000Y-114913000D01*
X157960000Y-104801000D02*
X157960000Y-114909000D01*
X158000000Y-104805000D02*
X158000000Y-114905000D01*
X158040000Y-104810000D02*
X158040000Y-114900000D01*
X158080000Y-104815000D02*
X158080000Y-114895000D01*
X158120000Y-104820000D02*
X158120000Y-114890000D01*
X158161000Y-104825000D02*
X158161000Y-114885000D01*
X158201000Y-104831000D02*
X158201000Y-114879000D01*
X158241000Y-104837000D02*
X158241000Y-114873000D01*
X158281000Y-104844000D02*
X158281000Y-114866000D01*
X158321000Y-104851000D02*
X158321000Y-114859000D01*
X158361000Y-104858000D02*
X158361000Y-114852000D01*
X158401000Y-104865000D02*
X158401000Y-114845000D01*
X158441000Y-104873000D02*
X158441000Y-114837000D01*
X158481000Y-104881000D02*
X158481000Y-114829000D01*
X158521000Y-104890000D02*
X158521000Y-114820000D01*
X158561000Y-104899000D02*
X158561000Y-114811000D01*
X158601000Y-104908000D02*
X158601000Y-114802000D01*
X158641000Y-104917000D02*
X158641000Y-114793000D01*
X158681000Y-104927000D02*
X158681000Y-114783000D01*
X158721000Y-104937000D02*
X158721000Y-108614000D01*
X158721000Y-111096000D02*
X158721000Y-114773000D01*
X158761000Y-104948000D02*
X158761000Y-108614000D01*
X158761000Y-111096000D02*
X158761000Y-114762000D01*
X158801000Y-104958000D02*
X158801000Y-108614000D01*
X158801000Y-111096000D02*
X158801000Y-114752000D01*
X158841000Y-104970000D02*
X158841000Y-108614000D01*
X158841000Y-111096000D02*
X158841000Y-114740000D01*
X158881000Y-104981000D02*
X158881000Y-108614000D01*
X158881000Y-111096000D02*
X158881000Y-114729000D01*
X158921000Y-104993000D02*
X158921000Y-108614000D01*
X158921000Y-111096000D02*
X158921000Y-114717000D01*
X158961000Y-105005000D02*
X158961000Y-108614000D01*
X158961000Y-111096000D02*
X158961000Y-114705000D01*
X159001000Y-105018000D02*
X159001000Y-108614000D01*
X159001000Y-111096000D02*
X159001000Y-114692000D01*
X159041000Y-105031000D02*
X159041000Y-108614000D01*
X159041000Y-111096000D02*
X159041000Y-114679000D01*
X159081000Y-105044000D02*
X159081000Y-108614000D01*
X159081000Y-111096000D02*
X159081000Y-114666000D01*
X159121000Y-105058000D02*
X159121000Y-108614000D01*
X159121000Y-111096000D02*
X159121000Y-114652000D01*
X159161000Y-105072000D02*
X159161000Y-108614000D01*
X159161000Y-111096000D02*
X159161000Y-114638000D01*
X159201000Y-105087000D02*
X159201000Y-108614000D01*
X159201000Y-111096000D02*
X159201000Y-114623000D01*
X159241000Y-105101000D02*
X159241000Y-108614000D01*
X159241000Y-111096000D02*
X159241000Y-114609000D01*
X159281000Y-105117000D02*
X159281000Y-108614000D01*
X159281000Y-111096000D02*
X159281000Y-114593000D01*
X159321000Y-105132000D02*
X159321000Y-108614000D01*
X159321000Y-111096000D02*
X159321000Y-114578000D01*
X159361000Y-105148000D02*
X159361000Y-108614000D01*
X159361000Y-111096000D02*
X159361000Y-114562000D01*
X159401000Y-105165000D02*
X159401000Y-108614000D01*
X159401000Y-111096000D02*
X159401000Y-114545000D01*
X159441000Y-105181000D02*
X159441000Y-108614000D01*
X159441000Y-111096000D02*
X159441000Y-114529000D01*
X159481000Y-105198000D02*
X159481000Y-108614000D01*
X159481000Y-111096000D02*
X159481000Y-114512000D01*
X159521000Y-105216000D02*
X159521000Y-108614000D01*
X159521000Y-111096000D02*
X159521000Y-114494000D01*
X159561000Y-105234000D02*
X159561000Y-108614000D01*
X159561000Y-111096000D02*
X159561000Y-114476000D01*
X159601000Y-105252000D02*
X159601000Y-108614000D01*
X159601000Y-111096000D02*
X159601000Y-114458000D01*
X159641000Y-105271000D02*
X159641000Y-108614000D01*
X159641000Y-111096000D02*
X159641000Y-114439000D01*
X159681000Y-105291000D02*
X159681000Y-108614000D01*
X159681000Y-111096000D02*
X159681000Y-114419000D01*
X159721000Y-105310000D02*
X159721000Y-108614000D01*
X159721000Y-111096000D02*
X159721000Y-114400000D01*
X159761000Y-105330000D02*
X159761000Y-108614000D01*
X159761000Y-111096000D02*
X159761000Y-114380000D01*
X159801000Y-105351000D02*
X159801000Y-108614000D01*
X159801000Y-111096000D02*
X159801000Y-114359000D01*
X159841000Y-105372000D02*
X159841000Y-108614000D01*
X159841000Y-111096000D02*
X159841000Y-114338000D01*
X159881000Y-105393000D02*
X159881000Y-108614000D01*
X159881000Y-111096000D02*
X159881000Y-114317000D01*
X159921000Y-105415000D02*
X159921000Y-108614000D01*
X159921000Y-111096000D02*
X159921000Y-114295000D01*
X159961000Y-105438000D02*
X159961000Y-108614000D01*
X159961000Y-111096000D02*
X159961000Y-114272000D01*
X160001000Y-105460000D02*
X160001000Y-108614000D01*
X160001000Y-111096000D02*
X160001000Y-114250000D01*
X160041000Y-105484000D02*
X160041000Y-108614000D01*
X160041000Y-111096000D02*
X160041000Y-114226000D01*
X160081000Y-105508000D02*
X160081000Y-108614000D01*
X160081000Y-111096000D02*
X160081000Y-114202000D01*
X160121000Y-105532000D02*
X160121000Y-108614000D01*
X160121000Y-111096000D02*
X160121000Y-114178000D01*
X160161000Y-105557000D02*
X160161000Y-108614000D01*
X160161000Y-111096000D02*
X160161000Y-114153000D01*
X160201000Y-105582000D02*
X160201000Y-108614000D01*
X160201000Y-111096000D02*
X160201000Y-114128000D01*
X160241000Y-105608000D02*
X160241000Y-108614000D01*
X160241000Y-111096000D02*
X160241000Y-114102000D01*
X160281000Y-105634000D02*
X160281000Y-108614000D01*
X160281000Y-111096000D02*
X160281000Y-114076000D01*
X160321000Y-105661000D02*
X160321000Y-108614000D01*
X160321000Y-111096000D02*
X160321000Y-114049000D01*
X160361000Y-105689000D02*
X160361000Y-108614000D01*
X160361000Y-111096000D02*
X160361000Y-114021000D01*
X160401000Y-105717000D02*
X160401000Y-108614000D01*
X160401000Y-111096000D02*
X160401000Y-113993000D01*
X160441000Y-105745000D02*
X160441000Y-108614000D01*
X160441000Y-111096000D02*
X160441000Y-113965000D01*
X160481000Y-105775000D02*
X160481000Y-108614000D01*
X160481000Y-111096000D02*
X160481000Y-113935000D01*
X160521000Y-105805000D02*
X160521000Y-108614000D01*
X160521000Y-111096000D02*
X160521000Y-113905000D01*
X160561000Y-105835000D02*
X160561000Y-108614000D01*
X160561000Y-111096000D02*
X160561000Y-113875000D01*
X160601000Y-105866000D02*
X160601000Y-108614000D01*
X160601000Y-111096000D02*
X160601000Y-113844000D01*
X160641000Y-105898000D02*
X160641000Y-108614000D01*
X160641000Y-111096000D02*
X160641000Y-113812000D01*
X160681000Y-105930000D02*
X160681000Y-108614000D01*
X160681000Y-111096000D02*
X160681000Y-113780000D01*
X160721000Y-105963000D02*
X160721000Y-108614000D01*
X160721000Y-111096000D02*
X160721000Y-113747000D01*
X160761000Y-105997000D02*
X160761000Y-108614000D01*
X160761000Y-111096000D02*
X160761000Y-113713000D01*
X160801000Y-106031000D02*
X160801000Y-108614000D01*
X160801000Y-111096000D02*
X160801000Y-113679000D01*
X160841000Y-106066000D02*
X160841000Y-108614000D01*
X160841000Y-111096000D02*
X160841000Y-113644000D01*
X160881000Y-106102000D02*
X160881000Y-108614000D01*
X160881000Y-111096000D02*
X160881000Y-113608000D01*
X160921000Y-106139000D02*
X160921000Y-108614000D01*
X160921000Y-111096000D02*
X160921000Y-113571000D01*
X160961000Y-106176000D02*
X160961000Y-108614000D01*
X160961000Y-111096000D02*
X160961000Y-113534000D01*
X161001000Y-106215000D02*
X161001000Y-108614000D01*
X161001000Y-111096000D02*
X161001000Y-113495000D01*
X161041000Y-106254000D02*
X161041000Y-108614000D01*
X161041000Y-111096000D02*
X161041000Y-113456000D01*
X161081000Y-106294000D02*
X161081000Y-108614000D01*
X161081000Y-111096000D02*
X161081000Y-113416000D01*
X161121000Y-106335000D02*
X161121000Y-108614000D01*
X161121000Y-111096000D02*
X161121000Y-113375000D01*
X161161000Y-106377000D02*
X161161000Y-108614000D01*
X161161000Y-111096000D02*
X161161000Y-113333000D01*
X161201000Y-106419000D02*
X161201000Y-113291000D01*
X161241000Y-106463000D02*
X161241000Y-113247000D01*
X161281000Y-106508000D02*
X161281000Y-113202000D01*
X161321000Y-106554000D02*
X161321000Y-113156000D01*
X161361000Y-106601000D02*
X161361000Y-113109000D01*
X161401000Y-106649000D02*
X161401000Y-113061000D01*
X161441000Y-106699000D02*
X161441000Y-113011000D01*
X161481000Y-106749000D02*
X161481000Y-112961000D01*
X161521000Y-106801000D02*
X161521000Y-112909000D01*
X161561000Y-106855000D02*
X161561000Y-112855000D01*
X161601000Y-106910000D02*
X161601000Y-112800000D01*
X161641000Y-106966000D02*
X161641000Y-112744000D01*
X161681000Y-107025000D02*
X161681000Y-112685000D01*
X161721000Y-107085000D02*
X161721000Y-112625000D01*
X161761000Y-107146000D02*
X161761000Y-112564000D01*
X161801000Y-107210000D02*
X161801000Y-112500000D01*
X161841000Y-107276000D02*
X161841000Y-112434000D01*
X161881000Y-107345000D02*
X161881000Y-112365000D01*
X161921000Y-107416000D02*
X161921000Y-112294000D01*
X161961000Y-107490000D02*
X161961000Y-112220000D01*
X162001000Y-107566000D02*
X162001000Y-112144000D01*
X162041000Y-107646000D02*
X162041000Y-112064000D01*
X162081000Y-107730000D02*
X162081000Y-111980000D01*
X162121000Y-107818000D02*
X162121000Y-111892000D01*
X162161000Y-107911000D02*
X162161000Y-111799000D01*
X162201000Y-108009000D02*
X162201000Y-111701000D01*
X162241000Y-108113000D02*
X162241000Y-111597000D01*
X162281000Y-108225000D02*
X162281000Y-111485000D01*
X162321000Y-108345000D02*
X162321000Y-111365000D01*
X162361000Y-108477000D02*
X162361000Y-111233000D01*
X162401000Y-108625000D02*
X162401000Y-111085000D01*
X162441000Y-108793000D02*
X162441000Y-110917000D01*
X162481000Y-108993000D02*
X162481000Y-110717000D01*
X162521000Y-109256000D02*
X162521000Y-110454000D01*
X151960354Y-106980000D02*
X152960354Y-106980000D01*
X152460354Y-106480000D02*
X152460354Y-107480000D01*
G04 #@! TO.C,J1*
D14*
X169913333Y-86429904D02*
X169913333Y-87001333D01*
X169875238Y-87115619D01*
X169799047Y-87191809D01*
X169684761Y-87229904D01*
X169608571Y-87229904D01*
X170713333Y-87229904D02*
X170256190Y-87229904D01*
X170484761Y-87229904D02*
X170484761Y-86429904D01*
X170408571Y-86544190D01*
X170332380Y-86620380D01*
X170256190Y-86658476D01*
G04 #@! TO.C,U1*
X152146095Y-99020380D02*
X152146095Y-99829904D01*
X152193714Y-99925142D01*
X152241333Y-99972761D01*
X152336571Y-100020380D01*
X152527047Y-100020380D01*
X152622285Y-99972761D01*
X152669904Y-99925142D01*
X152717523Y-99829904D01*
X152717523Y-99020380D01*
X153717523Y-100020380D02*
X153146095Y-100020380D01*
X153431809Y-100020380D02*
X153431809Y-99020380D01*
X153336571Y-99163238D01*
X153241333Y-99258476D01*
X153146095Y-99306095D01*
D15*
X163495001Y-100785953D02*
X163471191Y-100833572D01*
X163471191Y-100905001D01*
X163495001Y-100976429D01*
X163542620Y-101024048D01*
X163590239Y-101047858D01*
X163685477Y-101071667D01*
X163756905Y-101071667D01*
X163852143Y-101047858D01*
X163899762Y-101024048D01*
X163947381Y-100976429D01*
X163971191Y-100905001D01*
X163971191Y-100857381D01*
X163947381Y-100785953D01*
X163923572Y-100762143D01*
X163756905Y-100762143D01*
X163756905Y-100857381D01*
X163971191Y-100547858D02*
X163471191Y-100547858D01*
X163971191Y-100262143D01*
X163471191Y-100262143D01*
X163971191Y-100024048D02*
X163471191Y-100024048D01*
X163471191Y-99905001D01*
X163495001Y-99833572D01*
X163542620Y-99785953D01*
X163590239Y-99762143D01*
X163685477Y-99738334D01*
X163756905Y-99738334D01*
X163852143Y-99762143D01*
X163899762Y-99785953D01*
X163947381Y-99833572D01*
X163971191Y-99905001D01*
X163971191Y-100024048D01*
X163923572Y-97936429D02*
X163947381Y-97960239D01*
X163971191Y-98031667D01*
X163971191Y-98079286D01*
X163947381Y-98150715D01*
X163899762Y-98198334D01*
X163852143Y-98222143D01*
X163756905Y-98245953D01*
X163685477Y-98245953D01*
X163590239Y-98222143D01*
X163542620Y-98198334D01*
X163495001Y-98150715D01*
X163471191Y-98079286D01*
X163471191Y-98031667D01*
X163495001Y-97960239D01*
X163518810Y-97936429D01*
X163709286Y-97722143D02*
X163709286Y-97555477D01*
X163971191Y-97484048D02*
X163971191Y-97722143D01*
X163471191Y-97722143D01*
X163471191Y-97484048D01*
X163947381Y-95967858D02*
X163971191Y-95896429D01*
X163971191Y-95777381D01*
X163947381Y-95729762D01*
X163923572Y-95705953D01*
X163875953Y-95682143D01*
X163828334Y-95682143D01*
X163780715Y-95705953D01*
X163756905Y-95729762D01*
X163733096Y-95777381D01*
X163709286Y-95872620D01*
X163685477Y-95920239D01*
X163661667Y-95944048D01*
X163614048Y-95967858D01*
X163566429Y-95967858D01*
X163518810Y-95944048D01*
X163495001Y-95920239D01*
X163471191Y-95872620D01*
X163471191Y-95753572D01*
X163495001Y-95682143D01*
X163923572Y-95182143D02*
X163947381Y-95205953D01*
X163971191Y-95277381D01*
X163971191Y-95325001D01*
X163947381Y-95396429D01*
X163899762Y-95444048D01*
X163852143Y-95467858D01*
X163756905Y-95491667D01*
X163685477Y-95491667D01*
X163590239Y-95467858D01*
X163542620Y-95444048D01*
X163495001Y-95396429D01*
X163471191Y-95325001D01*
X163471191Y-95277381D01*
X163495001Y-95205953D01*
X163518810Y-95182143D01*
X163971191Y-94967858D02*
X163471191Y-94967858D01*
X163971191Y-94682143D02*
X163685477Y-94896429D01*
X163471191Y-94682143D02*
X163756905Y-94967858D01*
X163971191Y-93570715D02*
X163471191Y-93570715D01*
X163828334Y-93404048D01*
X163471191Y-93237381D01*
X163971191Y-93237381D01*
X163971191Y-92999286D02*
X163471191Y-92999286D01*
X163947381Y-92785001D02*
X163971191Y-92713572D01*
X163971191Y-92594524D01*
X163947381Y-92546905D01*
X163923572Y-92523096D01*
X163875953Y-92499286D01*
X163828334Y-92499286D01*
X163780715Y-92523096D01*
X163756905Y-92546905D01*
X163733096Y-92594524D01*
X163709286Y-92689762D01*
X163685477Y-92737381D01*
X163661667Y-92761191D01*
X163614048Y-92785001D01*
X163566429Y-92785001D01*
X163518810Y-92761191D01*
X163495001Y-92737381D01*
X163471191Y-92689762D01*
X163471191Y-92570715D01*
X163495001Y-92499286D01*
X163471191Y-92189762D02*
X163471191Y-92094524D01*
X163495001Y-92046905D01*
X163542620Y-91999286D01*
X163637858Y-91975477D01*
X163804524Y-91975477D01*
X163899762Y-91999286D01*
X163947381Y-92046905D01*
X163971191Y-92094524D01*
X163971191Y-92189762D01*
X163947381Y-92237381D01*
X163899762Y-92285001D01*
X163804524Y-92308810D01*
X163637858Y-92308810D01*
X163542620Y-92285001D01*
X163495001Y-92237381D01*
X163471191Y-92189762D01*
X158891191Y-93296905D02*
X158391191Y-93296905D01*
X158891191Y-92773096D02*
X158653096Y-92939762D01*
X158891191Y-93058810D02*
X158391191Y-93058810D01*
X158391191Y-92868334D01*
X158415001Y-92820715D01*
X158438810Y-92796905D01*
X158486429Y-92773096D01*
X158557858Y-92773096D01*
X158605477Y-92796905D01*
X158629286Y-92820715D01*
X158653096Y-92868334D01*
X158653096Y-93058810D01*
X158938810Y-92225477D02*
X158915001Y-92273096D01*
X158867381Y-92320715D01*
X158795953Y-92392143D01*
X158772143Y-92439762D01*
X158772143Y-92487381D01*
X158891191Y-92463572D02*
X158867381Y-92511191D01*
X158819762Y-92558810D01*
X158724524Y-92582620D01*
X158557858Y-92582620D01*
X158462620Y-92558810D01*
X158415001Y-92511191D01*
X158391191Y-92463572D01*
X158391191Y-92368334D01*
X158415001Y-92320715D01*
X158462620Y-92273096D01*
X158557858Y-92249286D01*
X158724524Y-92249286D01*
X158819762Y-92273096D01*
X158867381Y-92320715D01*
X158891191Y-92368334D01*
X158891191Y-92463572D01*
X158891191Y-96110715D02*
X158391191Y-96110715D01*
X158748334Y-95944048D01*
X158391191Y-95777381D01*
X158891191Y-95777381D01*
X158391191Y-95444048D02*
X158391191Y-95348810D01*
X158415001Y-95301191D01*
X158462620Y-95253572D01*
X158557858Y-95229762D01*
X158724524Y-95229762D01*
X158819762Y-95253572D01*
X158867381Y-95301191D01*
X158891191Y-95348810D01*
X158891191Y-95444048D01*
X158867381Y-95491667D01*
X158819762Y-95539286D01*
X158724524Y-95563096D01*
X158557858Y-95563096D01*
X158462620Y-95539286D01*
X158415001Y-95491667D01*
X158391191Y-95444048D01*
X158867381Y-95039286D02*
X158891191Y-94967858D01*
X158891191Y-94848810D01*
X158867381Y-94801191D01*
X158843572Y-94777381D01*
X158795953Y-94753572D01*
X158748334Y-94753572D01*
X158700715Y-94777381D01*
X158676905Y-94801191D01*
X158653096Y-94848810D01*
X158629286Y-94944048D01*
X158605477Y-94991667D01*
X158581667Y-95015477D01*
X158534048Y-95039286D01*
X158486429Y-95039286D01*
X158438810Y-95015477D01*
X158415001Y-94991667D01*
X158391191Y-94944048D01*
X158391191Y-94825001D01*
X158415001Y-94753572D01*
X158891191Y-94539286D02*
X158391191Y-94539286D01*
X158843572Y-98210239D02*
X158867381Y-98234048D01*
X158891191Y-98305477D01*
X158891191Y-98353096D01*
X158867381Y-98424524D01*
X158819762Y-98472143D01*
X158772143Y-98495953D01*
X158676905Y-98519762D01*
X158605477Y-98519762D01*
X158510239Y-98495953D01*
X158462620Y-98472143D01*
X158415001Y-98424524D01*
X158391191Y-98353096D01*
X158391191Y-98305477D01*
X158415001Y-98234048D01*
X158438810Y-98210239D01*
X158867381Y-98019762D02*
X158891191Y-97948334D01*
X158891191Y-97829286D01*
X158867381Y-97781667D01*
X158843572Y-97757858D01*
X158795953Y-97734048D01*
X158748334Y-97734048D01*
X158700715Y-97757858D01*
X158676905Y-97781667D01*
X158653096Y-97829286D01*
X158629286Y-97924524D01*
X158605477Y-97972143D01*
X158581667Y-97995953D01*
X158534048Y-98019762D01*
X158486429Y-98019762D01*
X158438810Y-97995953D01*
X158415001Y-97972143D01*
X158391191Y-97924524D01*
X158391191Y-97805477D01*
X158415001Y-97734048D01*
X158891191Y-97519762D02*
X158391191Y-97519762D01*
X158891191Y-97234048D01*
X158391191Y-97234048D01*
X158391191Y-101000239D02*
X158891191Y-100833572D01*
X158391191Y-100666905D01*
X158867381Y-100285953D02*
X158891191Y-100333572D01*
X158891191Y-100428810D01*
X158867381Y-100476429D01*
X158843572Y-100500239D01*
X158795953Y-100524048D01*
X158653096Y-100524048D01*
X158605477Y-100500239D01*
X158581667Y-100476429D01*
X158557858Y-100428810D01*
X158557858Y-100333572D01*
X158581667Y-100285953D01*
X158867381Y-99857381D02*
X158891191Y-99905001D01*
X158891191Y-100000239D01*
X158867381Y-100047858D01*
X158843572Y-100071667D01*
X158795953Y-100095477D01*
X158653096Y-100095477D01*
X158605477Y-100071667D01*
X158581667Y-100047858D01*
X158557858Y-100000239D01*
X158557858Y-99905001D01*
X158581667Y-99857381D01*
G04 #@! TO.C,C1*
D14*
X157273333Y-103962142D02*
X157225714Y-104009761D01*
X157082857Y-104057380D01*
X156987619Y-104057380D01*
X156844761Y-104009761D01*
X156749523Y-103914523D01*
X156701904Y-103819285D01*
X156654285Y-103628809D01*
X156654285Y-103485952D01*
X156701904Y-103295476D01*
X156749523Y-103200238D01*
X156844761Y-103105000D01*
X156987619Y-103057380D01*
X157082857Y-103057380D01*
X157225714Y-103105000D01*
X157273333Y-103152619D01*
X158225714Y-104057380D02*
X157654285Y-104057380D01*
X157940000Y-104057380D02*
X157940000Y-103057380D01*
X157844761Y-103200238D01*
X157749523Y-103295476D01*
X157654285Y-103343095D01*
G04 #@! TD*
M02*
